<?xml version="1.0" encoding="UTF-8"?>
<svg xmlns="http://www.w3.org/2000/svg" viewBox="0 0 440.94 310">
  <defs>
    <style>
      .cls-1 {
        fill: none;
      }

      .cls-1, .cls-2, .cls-3, .cls-4, .cls-5, .cls-6, .cls-7, .cls-8 {
        stroke-width: 0px;
      }

      .cls-2 {
        opacity: .2;
      }

      .cls-2, .cls-6 {
        fill: #e4d2b1;
      }

      .cls-3 {
        fill: #262626;
      }

      .cls-4 {
        fill: #fff;
      }

      .cls-5 {
        fill: #e9dbc1;
      }

      .cls-7 {
        fill: #e66751;
      }

      .cls-8 {
        fill: #e76751;
      }
    </style>
  </defs>
  <g id="board">
    <rect class="cls-1" x=".47" y="0" width="440" height="310"/>
  </g>
  <g id="map">
    <path class="cls-2" d="m216.84,222.56l-6.54-6.54-6.54-6.54-6.54-6.54-6.54-6.54-6.54-6.54-6.54-6.54-6.54-6.54-6.54-6.54-6.54-6.54-6.5-6.5v2.5l5.25,5.25,6.54,6.54,6.54,6.54,6.54,6.54,6.54,6.54,6.54,6.54,6.54,6.54,6.54,6.54,6.54,6.54,6.54,6.54,6.54,6.54,3.4,3.4h2.5l-4.65-4.65-6.54-6.54Zm-3.51,3.51l-6.54-6.54-6.54-6.54-6.54-6.54-6.54-6.54-6.54-6.54-6.54-6.54-6.54-6.54-6.54-6.54-6.54-6.54-2.99-2.99v2.5l1.74,1.74,6.54,6.54,6.54,6.54,6.54,6.54,6.54,6.54,6.54,6.54,6.54,6.54,6.54,6.54,6.54,6.54,6.54,6.54,6.43,6.43h2.5l-1.14-1.14-6.54-6.54Zm-9.7-3.38l-6.54-6.54-6.54-6.54-6.54-6.54-6.54-6.54-6.54-6.54-6.54-6.54-6.54-6.54-6.37-6.37v2.5l5.12,5.12,6.54,6.54,6.54,6.54,6.54,6.54,6.54,6.54,6.54,6.54,6.54,6.54,6.54,6.54,6.54,6.54,3.27,3.27h2.5l-4.52-4.52-6.54-6.54Zm36.12,3.13l-6.54-6.54-6.54-6.54-6.54-6.54-6.54-6.54-6.54-6.54-6.54-6.54-6.54-6.54-6.54-6.54-6.54-6.54-6.54-6.54-6.54-6.54-5.04-5.04h-2.5l6.29,6.29,6.54,6.54,6.54,6.54,6.54,6.54,6.54,6.54,6.54,6.54,6.54,6.54,6.54,6.54,6.54,6.54,6.54,6.54,6.54,6.54,6.54,6.54,6.54,6.54.14.14h2.5l-1.39-1.39-6.54-6.54Zm3.51-3.51l-6.54-6.54-6.54-6.54-6.54-6.54-6.54-6.54-6.54-6.54-6.54-6.54-6.54-6.54-6.54-6.54-6.54-6.54-6.54-6.54-6.54-6.54-1.54-1.54h-2.5l2.79,2.79,6.54,6.54,6.54,6.54,6.54,6.54,6.54,6.54,6.54,6.54,6.54,6.54,6.54,6.54,6.54,6.54,6.54,6.54,6.54,6.54,6.54,6.54,6.54,6.54,3.65,3.65h2.5l-4.9-4.9-6.54-6.54Zm-13.21.13l-6.54-6.54-6.54-6.54-6.54-6.54-6.54-6.54-6.54-6.54-6.54-6.54-6.54-6.54-6.54-6.54-6.54-6.54-6.54-6.54-6.54-6.54-1.66-1.66h-.4c-.62,0-1.21.13-1.75.35l2.56,2.56,6.54,6.54,6.54,6.54,6.54,6.54,6.54,6.54,6.54,6.54,6.54,6.54,6.54,6.54,6.54,6.54,6.54,6.54,6.54,6.54,6.54,6.54,6.54,6.54,3.52,3.52h2.5l-4.77-4.77-6.54-6.54Zm-3.51,3.51l-6.54-6.54-6.54-6.54-6.54-6.54-6.54-6.54-6.54-6.54-6.54-6.54-6.54-6.54-6.54-6.54-6.54-6.54-6.54-6.54-6.54-6.54-2.62-2.62c-.3.61-.49,1.29-.49,2.01l1.86,1.86,6.54,6.54,6.54,6.54,6.54,6.54,6.54,6.54,6.54,6.54,6.54,6.54,6.54,6.54,6.54,6.54,6.54,6.54,6.54,6.54,6.54,6.54,6.54,6.54.02.02h2.5l-1.27-1.27-6.54-6.54Zm-26.42.25l-6.54-6.54-6.54-6.54-6.54-6.54-6.54-6.54-6.54-6.54-6.54-6.54-6.54-6.54-2.87-2.87v2.5l1.61,1.61,6.54,6.54,6.54,6.54,6.54,6.54,6.54,6.54,6.54,6.54,6.54,6.54,6.54,6.54,6.31,6.31h2.5l-1.02-1.02-6.54-6.54Zm-39.63.38l-6.54-6.54-2.49-2.49v2.5l1.24,1.24,6.54,6.54,5.93,5.93h2.5l-.64-.64-6.54-6.54Zm3.51-3.51l-6.54-6.54-6-6v2.5l4.75,4.75,6.54,6.54,6.54,6.54,2.9,2.9h2.5l-4.15-4.15-6.54-6.54Zm-12.54.8v2.5l4.62,4.62,2.77,2.77h2.5l-4.02-4.02-5.87-5.87Zm38.96-1.05l-6.54-6.54-6.54-6.54-6.54-6.54-6.54-6.54-6.54-6.54-6.25-6.25v2.5l5,5,6.54,6.54,6.54,6.54,6.54,6.54,6.54,6.54,6.54,6.54,6.54,6.54,3.15,3.15h2.5l-4.4-4.4-6.54-6.54Zm-3.51,3.51l-6.54-6.54-6.54-6.54-6.54-6.54-6.54-6.54-6.54-6.54-2.74-2.74v2.5l1.49,1.49,6.54,6.54,6.54,6.54,6.54,6.54,6.54,6.54,6.54,6.54,6.18,6.18h2.5l-.89-.89-6.54-6.54Zm-9.7-3.38l-6.54-6.54-6.54-6.54-6.54-6.54-6.12-6.12v2.5l4.87,4.87,6.54,6.54,6.54,6.54,6.54,6.54,6.54,6.54,3.02,3.02h2.5l-4.27-4.27-6.54-6.54Zm-3.51,3.51l-6.54-6.54-6.54-6.54-6.54-6.54-2.62-2.62v2.5l1.36,1.36,6.54,6.54,6.54,6.54,6.54,6.54,6.06,6.06h2.5l-.77-.77-6.54-6.54Zm-20.04,6.63l-1.53-1.53c.38.63.9,1.15,1.53,1.53Zm113.01-60.35l-6.54-6.54-6.54-6.54-6.54-6.54-4.29-4.29h-2.5l5.54,5.54,6.54,6.54,6.54,6.54,6.54,6.54,6.54,6.54,2.07,2.07v-2.5l-.82-.82-6.54-6.54Zm-3.16,3.16l-6.54-6.54-6.54-6.54-6.54-6.54-6.54-6.54-.91-.91h-2.5l2.16,2.16,6.54,6.54,6.54,6.54,6.54,6.54,6.54,6.54,6.54,6.54,5.23,5.23v-2.5l-3.98-3.98-6.54-6.54Zm.13-13.21l-6.54-6.54-6.54-6.54-.78-.78h-2.5l2.03,2.03,6.54,6.54,6.54,6.54,6.54,6.54,5.11,5.11v-2.5l-3.85-3.85-6.54-6.54Zm2.91,23.26l-6.54-6.54-6.54-6.54-6.54-6.54-6.54-6.54-6.54-6.54-4.42-4.42h-2.5l5.67,5.67,6.54,6.54,6.54,6.54,6.54,6.54,6.54,6.54,6.54,6.54,6.54,6.54,2.2,2.2v-2.5l-.94-.94-6.54-6.54Zm.25-26.42l-6.54-6.54-4.17-4.17h-2.5l5.42,5.42,6.54,6.54,6.54,6.54,1.94,1.94v-2.5l-.69-.69-6.54-6.54Zm6.67-6.67l-4.04-4.04h-2.5l5.29,5.29,1.82,1.82v-2.5l-.57-.57Zm-9.7-3.38l-.66-.66h-2.5l1.91,1.91,6.54,6.54,4.98,4.98v-2.5l-3.73-3.73-6.54-6.54Zm-7.29,72.72l-6.54-6.54-6.54-6.54-6.54-6.54-6.54-6.54-6.54-6.54-6.54-6.54-6.54-6.54-6.54-6.54-6.54-6.54-6.54-6.54-6.54-6.54-1.41-1.41h-2.5l2.66,2.66,6.54,6.54,6.54,6.54,6.54,6.54,6.54,6.54,6.54,6.54,6.54,6.54,6.54,6.54,6.54,6.54,6.54,6.54,6.54,6.54,6.54,6.54,6.54,6.54,3.77,3.77h2.5l-5.02-5.02-6.54-6.54Zm6.67-6.67l-6.54-6.54-6.54-6.54-6.54-6.54-6.54-6.54-6.54-6.54-6.54-6.54-6.54-6.54-6.54-6.54-6.54-6.54-6.54-6.54-1.28-1.28h-2.5l2.54,2.54,6.54,6.54,6.54,6.54,6.54,6.54,6.54,6.54,6.54,6.54,6.54,6.54,6.54,6.54,6.54,6.54,6.54,6.54,6.54,6.54,6.54,6.54,5.61,5.61v-2.5l-4.36-4.36-6.54-6.54Zm3.04,10.05l-6.54-6.54-6.54-6.54-6.54-6.54-6.54-6.54-6.54-6.54-6.54-6.54-6.54-6.54-6.54-6.54-6.54-6.54-6.54-6.54-6.54-6.54-4.79-4.79h-2.5l6.04,6.04,6.54,6.54,6.54,6.54,6.54,6.54,6.54,6.54,6.54,6.54,6.54,6.54,6.54,6.54,6.54,6.54,6.54,6.54,6.54,6.54,6.54,6.54,6.49,6.49c.55-.26,1.03-.62,1.43-1.07l-.13-.13-6.54-6.54Zm-13.21.13l-6.54-6.54-6.54-6.54-6.54-6.54-6.54-6.54-6.54-6.54-6.54-6.54-6.54-6.54-6.54-6.54-6.54-6.54-6.54-6.54-6.54-6.54-4.92-4.92h-2.5l6.17,6.17,6.54,6.54,6.54,6.54,6.54,6.54,6.54,6.54,6.54,6.54,6.54,6.54,6.54,6.54,6.54,6.54,6.54,6.54,6.54,6.54,6.54,6.54,6.54,6.54.27.27h2.5l-1.52-1.52-6.54-6.54Zm13.46-26.55l-6.54-6.54-6.54-6.54-6.54-6.54-6.54-6.54-6.54-6.54-6.54-6.54-6.54-6.54-4.54-4.54h-2.5l5.79,5.79,6.54,6.54,6.54,6.54,6.54,6.54,6.54,6.54,6.54,6.54,6.54,6.54,6.54,6.54,6.54,6.54,2.32,2.32v-2.5l-1.07-1.07-6.54-6.54Zm-3.04-10.05l-6.54-6.54-6.54-6.54-6.54-6.54-6.54-6.54-6.54-6.54-6.54-6.54-1.03-1.03h-2.5l2.28,2.28,6.54,6.54,6.54,6.54,6.54,6.54,6.54,6.54,6.54,6.54,6.54,6.54,6.54,6.54,5.36,5.36v-2.5l-4.11-4.11-6.54-6.54Zm-.13,13.21l-6.54-6.54-6.54-6.54-6.54-6.54-6.54-6.54-6.54-6.54-6.54-6.54-6.54-6.54-6.54-6.54-1.16-1.16h-2.5l2.41,2.41,6.54,6.54,6.54,6.54,6.54,6.54,6.54,6.54,6.54,6.54,6.54,6.54,6.54,6.54,6.54,6.54,6.54,6.54,5.48,5.48v-2.5l-4.23-4.23-6.54-6.54Zm3.04,10.05l-6.54-6.54-6.54-6.54-6.54-6.54-6.54-6.54-6.54-6.54-6.54-6.54-6.54-6.54-6.54-6.54-6.54-6.54-4.67-4.67h-2.5l5.92,5.92,6.54,6.54,6.54,6.54,6.54,6.54,6.54,6.54,6.54,6.54,6.54,6.54,6.54,6.54,6.54,6.54,6.54,6.54,6.54,6.54,2.45,2.45v-2.5l-1.2-1.2-6.54-6.54Z"/>
    <path class="cls-7" d="m350.6,255.39c-3.71,0-7.42,0-11.12,0-.73,0-1.47.06-2.15.34-.2.08-.37.22-.51.38-1.56,1.79-3.07,3.62-4.59,5.44-.24.29-.59.48-.97.52-1.34.15-2.77-.17-4.09.4-.19.08-.35.21-.49.36-.73.82-1.43,1.67-2.14,2.52-.02.03-.04.06-.06.1h.19c3.79,0,7.58,0,11.37,0,.44,0,.88-.07,1.3-.1.4-.03.77-.2,1.03-.51,1.58-1.87,3.18-3.71,4.69-5.63.29-.37.73-.58,1.2-.55,1.18.06,2.46.18,3.63-.19.21-.07.41-.2.57-.35.64-.63,1.19-1.34,1.77-2.03.19-.22.38-.45.59-.7h-.22Zm-21.17,2.7c.4-.03.77-.2,1.03-.51,1.58-1.87,3.18-3.71,4.69-5.63.29-.37.73-.58,1.2-.55,1.18.06,2.46.18,3.63-.19.21-.07.41-.2.57-.35.64-.63,1.19-1.34,1.77-2.03.19-.22.38-.45.59-.7h-.22c-3.71,0-7.42,0-11.12,0-.73,0-1.47.06-2.15.34-.2.08-.37.22-.51.38-1.56,1.79-3.07,3.62-4.59,5.44-.24.29-.59.48-.97.52-1.34.15-2.77-.17-4.09.4-.19.08-.35.21-.49.36-.73.82-1.43,1.67-2.14,2.52-.02.03-.04.06-.06.1h.19c3.79,0,7.58,0,11.37,0,.44,0,.88-.07,1.3-.1Z"/>
    <g>
      <circle class="cls-5" cx="213.75" cy="281.81" r="9.58" transform="translate(-116.15 154.26) rotate(-31.68)"/>
      <g>
        <path class="cls-4" d="m210.81,285.04c.99-.82,1.78-1.51,2.36-2.06.59-.55,1.08-1.13,1.47-1.72.39-.6.59-1.18.59-1.76,0-.53-.12-.94-.37-1.24-.25-.3-.63-.45-1.14-.45s-.91.17-1.19.52-.42.82-.43,1.41h-2.1c.04-1.24.41-2.17,1.1-2.81s1.58-.96,2.65-.96c1.17,0,2.08.31,2.7.93.63.62.94,1.44.94,2.46,0,.8-.22,1.57-.65,2.3s-.93,1.37-1.48,1.91c-.56.54-1.28,1.19-2.18,1.95h4.56v1.79h-7.63v-1.61l.8-.68Z"/>
        <g>
          <path class="cls-3" d="m210.81,285.04c.99-.82,1.78-1.51,2.36-2.06.59-.55,1.08-1.13,1.47-1.72.39-.6.59-1.18.59-1.76,0-.53-.12-.94-.37-1.24-.25-.3-.63-.45-1.14-.45s-.91.17-1.19.52-.42.82-.43,1.41h-2.1c.04-1.24.41-2.17,1.1-2.81s1.58-.96,2.65-.96c1.17,0,2.08.31,2.7.93.63.62.94,1.44.94,2.46,0,.8-.22,1.57-.65,2.3s-.93,1.37-1.48,1.91c-.56.54-1.28,1.19-2.18,1.95h4.56v1.79h-7.63v-1.61l.8-.68Z"/>
          <path class="cls-3" d="m210.81,285.04c.99-.82,1.78-1.51,2.36-2.06.59-.55,1.08-1.13,1.47-1.72.39-.6.59-1.18.59-1.76,0-.53-.12-.94-.37-1.24-.25-.3-.63-.45-1.14-.45s-.91.17-1.19.52-.42.82-.43,1.41h-2.1c.04-1.24.41-2.17,1.1-2.81s1.58-.96,2.65-.96c1.17,0,2.08.31,2.7.93.63.62.94,1.44.94,2.46,0,.8-.22,1.57-.65,2.3s-.93,1.37-1.48,1.91c-.56.54-1.28,1.19-2.18,1.95h4.56v1.79h-7.63v-1.61l.8-.68Z"/>
          <path class="cls-3" d="m210.81,285.04c.99-.82,1.78-1.51,2.36-2.06.59-.55,1.08-1.13,1.47-1.72.39-.6.59-1.18.59-1.76,0-.53-.12-.94-.37-1.24-.25-.3-.63-.45-1.14-.45s-.91.17-1.19.52-.42.82-.43,1.41h-2.1c.04-1.24.41-2.17,1.1-2.81s1.58-.96,2.65-.96c1.17,0,2.08.31,2.7.93.63.62.94,1.44.94,2.46,0,.8-.22,1.57-.65,2.3s-.93,1.37-1.48,1.91c-.56.54-1.28,1.19-2.18,1.95h4.56v1.79h-7.63v-1.61l.8-.68Z"/>
        </g>
      </g>
    </g>
    <g>
      <circle class="cls-5" cx="303.08" cy="257.19" r="9.58" transform="translate(-89.91 197.51) rotate(-31.68)"/>
      <g>
        <path class="cls-4" d="m300.84,253.59v-1.99h3.72v11.26h-2.23v-9.27h-1.5Z"/>
        <g>
          <path class="cls-3" d="m300.84,253.59v-1.99h3.72v11.26h-2.23v-9.27h-1.5Z"/>
          <path class="cls-3" d="m300.84,253.59v-1.99h3.72v11.26h-2.23v-9.27h-1.5Z"/>
          <path class="cls-3" d="m300.84,253.59v-1.99h3.72v11.26h-2.23v-9.27h-1.5Z"/>
        </g>
      </g>
    </g>
    <path class="cls-6" d="m369.67,24.43H119.33c-20.07,0-36.4,16.33-36.4,36.4v140.92c0,20.07,16.33,36.4,36.4,36.4h197.41c21.02,0,38.12-17.1,38.12-38.12v-104.76c0-1.96,1.59-3.55,3.55-3.55h11.26c11.3,0,20.5-9.2,20.5-20.5v-26.28c0-11.31-9.2-20.5-20.5-20.5Zm-98.93,125.46v82.26h-118.61v-72.23c0-5.53,4.5-10.03,10.03-10.03h108.59Zm0-6h-89.44v-52.17h89.44v52.17Zm-89.44-58.17V30.54s0-.07-.01-.11h89.45v55.28h-89.44Zm-92.37,116.04V60.83c0-16.76,13.64-30.4,30.4-30.4h55.99s-.01.07-.01.11v113.35h-13.15c-8.84,0-16.03,7.19-16.03,16.03v72.23h-26.8c-16.76,0-30.4-13.64-30.4-30.4Zm259.92-106.49v104.76c0,17.71-14.41,32.12-32.12,32.12h-39.99V91.71h72.81c-.44,1.1-.69,2.3-.69,3.55Zm35.32-24.05c0,8-6.51,14.5-14.5,14.5h-92.93V30.43h92.93c8,0,14.5,6.51,14.5,14.5v26.28Z"/>
    <path class="cls-6" d="m374.97,126.88h-2.31v.98h2.31v.91h-1.69v.97h1.69v.85h-1.88v1.02h1.88v.92h-2.21v1.02h2.21v1.5h1.08v-1.5h2.72v-1.02h-2.72v-.92h2.3v-1.02h-2.3v-.85h2.07v-1.88h.91v-.98h-.91v-1.85h-2.07v-1.11h-1.08v1.11h-1.69v.97h1.69v.88Zm1.08-.88h1.06v.88h-1.06v-.88Zm0,1.86h1.06v.91h-1.06v-.91Zm.2,42.92c.87-1.04,1.57-2.28,2-3.74l-.83-.35-.22.06h-2.38c.15-.35.29-.71.42-1.08l-1.26-.31c-.49,1.61-1.37,3.12-2.42,4.15v-3.59h-4.62v4.4h1.95v5.46l-.92.21v-4.5h-1.06v4.72c-.24.04-.46.08-.67.13l.22,1.26c1.51-.35,3.54-.84,5.46-1.33l-.13-1.15-1.74.41v-2.21h1.64c.14.18.28.39.36.56.21-.08.41-.18.62-.28v4.58h1.19v-.49h3.12v.45h1.25v-4.55l.28.11c.17-.32.55-.84.8-1.08-1.19-.42-2.2-1.06-3.05-1.83Zm-1.95-2.93h2.34c-.32.74-.74,1.43-1.25,2.04-.5-.59-.9-1.19-1.22-1.79l.13-.25Zm-6.23,1.34v-2.16h2.28v2.16h-2.28Zm3.61,3.54v-.57h-1.64v-1.85h1.51v-.63c.29.22.7.56.9.77.36-.38.74-.83,1.08-1.32.31.53.66,1.08,1.11,1.61-.88.87-1.91,1.54-2.96,1.99Zm5.29,3.82h-3.12v-2.33h3.12v2.33Zm-3.47-3.43c.69-.41,1.34-.91,1.93-1.48.56.55,1.2,1.06,1.93,1.48h-3.87Zm-4.92-23.27v-2.91h4.31v.85h-3.39v.91h3.39v.91h-4.01v.95h4.01v.95h-3.52v.92h.39l-.66.69c.67.42,1.57,1.02,2,1.43l.74-.81c-.45-.35-1.32-.92-1.98-1.3h3.01v1.41c-1.65.66-3.36,1.33-4.47,1.72l.5,1.06c1.13-.49,2.58-1.13,3.96-1.77v1.23c0,.22-.08.31-.34.31-.22.01-1.08.03-1.86-.01.18.29.35.77.41,1.09,1.18,0,1.93-.01,2.44-.2.49-.17.67-.46.67-1.18v-1.23c1.46.62,3.14,1.42,4.05,1.95l.59-.92c-.66-.36-1.67-.84-2.72-1.29.69-.39,1.44-.88,2.12-1.36l-.97-.77c-.56.52-1.53,1.23-2.25,1.67-.28-.11-.55-.21-.81-.32v-1.4h3.56v-1.81h1.3v-1.12h-1.3v-1.72h-3.56v-.85h4.71v-1.15h-4.68c-.21-.41-.49-.91-.76-1.29l-1.29.32c.17.29.35.63.53.97h-5.39v4.06c0,2.06-.1,4.92-1.21,6.89.28.13.83.49,1.05.71,1.21-2.12,1.4-5.39,1.4-7.61Zm5.63-1.15h2.33v.91h-2.33v-.91Zm0,1.86h2.33v.95h-2.33v-.95Zm-6.6-21.28v7.47h1.15v-9.74c.38-.88.71-1.82.99-2.75l-1.18-.34c-.52,1.97-1.4,3.94-2.42,5.22.2.32.52,1.05.62,1.36.29-.36.56-.78.84-1.23Zm2.07-3.29h1.4c-.49,1.37-1.08,2.9-1.54,3.95h2.1c-.13,1.18-.34,2.16-.63,3.01-.29-.49-.55-1.09-.74-1.79l-.94.34c.32,1.06.73,1.89,1.21,2.56-.45.84-1,1.46-1.68,1.9.25.15.67.55.85.8.62-.45,1.15-1.04,1.58-1.79,1.36,1.26,3.14,1.57,5.16,1.57h2.27c.06-.29.24-.8.41-1.06-.57.01-2.17.01-2.61.01-1.81,0-3.5-.29-4.73-1.53.5-1.26.84-2.89,1.01-4.92l-.67-.14h-.13s-.85.01-.85.01c.49-1.23,1.07-2.76,1.51-4.05h-2.97v1.12Z"/>
    <path class="cls-6" d="m64.54,106.48h-5.15v2.8h5.15v-.07c.27.27.6.73.76.98.29-.41.57-.83.84-1.32.28,1.3.64,2.48,1.13,3.53-.71,1.15-1.68,2.04-2.98,2.7.27.22.69.74.84,1.01,1.16-.67,2.09-1.5,2.82-2.49.66,1.01,1.48,1.82,2.54,2.4.2-.34.59-.84.88-1.08-1.13-.53-2.02-1.4-2.7-2.49.74-1.43,1.19-3.12,1.5-5.2h.91v-1.19h-3.8c.28-.84.49-1.71.67-2.6l-1.25-.24c-.41,2.21-1.13,4.34-2.16,5.77v-2.51Zm-1.13,1.89h-2.94v-.99h2.94v.99Zm5.52-1.12c-.21,1.47-.52,2.72-.98,3.82-.48-1.13-.83-2.42-1.05-3.82h2.03Zm-.57,63.53c.87-1.04,1.57-2.28,2-3.74l-.83-.35-.22.06h-2.38c.15-.35.29-.71.42-1.08l-1.26-.31c-.49,1.61-1.37,3.12-2.42,4.15v-3.59h-4.62v4.4h1.95v5.46l-.92.21v-4.5h-1.06v4.72c-.24.04-.46.08-.67.13l.22,1.26c1.51-.35,3.54-.84,5.46-1.33l-.13-1.15-1.74.41v-2.21h1.64c.14.18.28.39.36.56.21-.08.41-.18.62-.28v4.58h1.19v-.49h3.12v.45h1.25v-4.55l.28.11c.17-.32.55-.84.8-1.08-1.19-.42-2.2-1.06-3.05-1.83Zm-1.95-2.93h2.34c-.32.74-.74,1.43-1.25,2.04-.5-.59-.9-1.19-1.22-1.79l.13-.25Zm-6.23,1.34v-2.16h2.28v2.16h-2.28Zm3.61,3.54v-.57h-1.64v-1.85h1.51v-.63c.29.22.7.56.9.77.36-.38.74-.83,1.08-1.32.31.53.66,1.08,1.11,1.61-.88.87-1.91,1.54-2.96,1.99Zm5.29,3.82h-3.12v-2.33h3.12v2.33Zm-3.47-3.43c.69-.41,1.34-.91,1.93-1.48.56.55,1.2,1.06,1.93,1.48h-3.87Zm-.04-28.24v9.97c0,1.65.39,2.13,1.75,2.13h1.78c1.44,0,1.75-1.02,1.88-3.91-.35-.08-.92-.35-1.25-.62-.08,2.59-.17,3.25-.74,3.25h-1.48c-.49,0-.58-.13-.58-.84v-5.55h3.77v-1.29h-3.77v-3.15h-1.36Zm-4.06-31.34v1.16c0,.14-.04.18-.25.2-.2.01-.85.01-1.54-.01.17.31.35.76.41,1.06.92,0,1.58,0,2.02-.17s.56-.48.56-1.06v-1.32c.84-.11,1.69-.21,2.54-.32v-1.04c-.85.08-1.7.2-2.54.29v-.27c.81-.46,1.64-1.06,2.25-1.67l-.71-.56-.22.07h-4.97v.98h3.77c-.41.29-.88.55-1.3.74v.83c-1.2.14-2.28.25-3.15.34l.15,1.09c.85-.1,1.88-.21,3-.35Zm-3.25,42.46l.59,1.32c1.61-.64,3.77-1.53,5.76-2.37l-.22-1.16-.94.35v-9.26h-1.34v3.17h-3.39v1.3h3.39v5.29c-1.47.55-2.86,1.04-3.84,1.36Zm2.33-27.19v7.94h1.23v-9.74c.52-.85.99-1.75,1.37-2.65l-1.19-.39c-.87,2.07-2.31,4.1-3.8,5.38.24.31.6,1.01.71,1.32.57-.53,1.13-1.16,1.67-1.86Zm9.33,3.43c-.11,2.35-.24,2.94-1,2.94h-2.31c-.7,0-.84-.15-.84-.94v-5.15h4.93v-1.25h-4.93v-3.7h-1.25v10.07c0,1.68.43,2.14,1.98,2.14h2.51c1.58,0,1.91-.92,2.09-3.54-.34-.08-.87-.34-1.18-.57Zm-4.55-27.49h-2.54c-.17-.5-.42-1.13-.67-1.65l-1.16.27c.18.42.36.94.52,1.39h-2.84v1.11h6.7v-1.11Z"/>
    <path class="cls-6" d="m117.13,254.09h-8.95v4.17h3.78v3.35c0,.18-.07.24-.31.24-.25.01-1.12.01-1.95-.01.15.35.35.88.42,1.26,1.18,0,1.99,0,2.52-.2s.69-.55.69-1.26v-3.38h3.8v-4.17Zm-1.37,3.05h-6.29v-1.92h6.29v1.92Zm65.17-1.62c.24.17.73.6.91.84,1.51-1.02,1.82-2.62,1.82-3.91v-.59h1.71v2.27c0,1.08.21,1.53,1.3,1.53h.92c.29,0,.59,0,.76-.07-.04-.28-.07-.71-.08-1.02-.18.06-.49.08-.67.08h-.81c-.18,0-.22-.13-.22-.5v-3.4h-4.1v1.68c0,1.01-.17,2.2-1.53,3.1Zm-72.16,3.56c-.5.91-1.54,2.05-2.44,2.79.27.2.71.56.94.83.97-.83,2.04-2.06,2.77-3.17l-1.27-.45Zm-10.05.31h-2.91v-1.2h2.65v-1.02h-1.33c.24-.49.48-1.05.71-1.6l-1.18-.27c-.14.53-.43,1.3-.67,1.86h-2.3l.74-.22c-.13-.43-.42-1.11-.73-1.6l-1.02.27c.27.46.55,1.09.66,1.55h-1.29v1.02h2.52v1.2h-2.82v1.05h2.82v2.3h1.23v-2.3h2.91v-1.05Zm-2.6-9.03l-1.43-.14c-.01.39-.04.84-.08,1.3h-5.49v1.22h5.36c-.04.45-.11.9-.15,1.27h-4.55v9.04h1.3v-7.83h8.32v6.43c0,.22-.07.29-.32.29-.24.01-1.09.03-1.89-.01.18.31.38.8.46,1.12,1.11,0,1.92,0,2.41-.2.49-.18.67-.5.67-1.2v-7.63h-5.14c.07-.39.14-.83.2-1.27h5.58v-1.22h-5.39c.06-.39.11-.78.15-1.16Zm16.49-.25l-1.26.41c.25.41.52.92.74,1.37h-5.58v1.27h12.16v-1.27h-5.04c-.22-.52-.66-1.25-1.02-1.78Zm68.5,8.73c-1.09.17-2.18.32-3.19.45v-1.75h2.97v-1.15h-2.97v-1.69h2.98v-1.13h-2.98v-1.26c1.19-.34,2.48-.74,3.47-1.2l-1.02-.98c-.9.48-2.37,1.04-3.67,1.41h-.04s0,7.93,0,7.93l-1.13.15.2,1.23.94-.15v2.14h1.26v-2.34c1.04-.17,2.16-.35,3.25-.53l-.06-1.12Zm-22.21,3.8h1.3v-1.01h8.85v.9h1.36v-11.11h-11.51v11.22Zm7.77-9.96h2.38v5.34c-.01-.24-.04-.48-.06-.7-.21.06-.6.08-.83.08h-1.16c-.29,0-.34-.18-.34-.64v-4.08Zm-6.47,0h2.28c-.06,3.15-.25,4.82-2.21,5.8.29.24.64.71.78,1.02,2.31-1.18,2.62-3.24,2.69-6.82h1.71v4.05c0,1.23.25,1.77,1.37,1.77h1.37c.31,0,.66-.01.85-.08v1.98h-8.85v-7.7Zm-45.17,7.05c.9.92,1.97,2.23,2.46,3.01l1.15-.76c-.53-.8-1.67-2.03-2.54-2.91l-1.08.66Zm70.52.95c.92-.99,1.61-2.28,2.02-3.95l-.8-.28-.24.04h-5v1.11h1.15l-.69.18c.42,1.09.99,2.06,1.71,2.87-.9.64-1.96,1.09-3.15,1.37.25.27.56.77.67,1.12,1.27-.38,2.42-.9,3.4-1.64.85.69,1.86,1.23,3.04,1.55.18-.34.55-.85.81-1.11-1.12-.25-2.12-.69-2.93-1.27Zm-.95-.8c-.64-.66-1.16-1.43-1.51-2.28h2.93c-.34.9-.81,1.65-1.42,2.28Zm-49.63-.99v-5.18h-4.37v-1.02h5.48v-1.2h-5.48v-1.25h-1.36v1.25h-5.35v1.2h5.35v1.02h-4.16v5.18h3.15c-1.21,1.22-3.03,2.31-4.71,2.91.29.27.69.76.9,1.09,1.71-.7,3.52-1.93,4.82-3.35v3.53h1.36v-3.59c1.32,1.44,3.18,2.72,4.9,3.42.21-.34.62-.85.94-1.12-1.72-.57-3.59-1.68-4.82-2.9h3.35Zm-5.73-.99h-2.88v-1.13h2.88v1.13Zm0-2.07h-2.88v-1.12h2.88v1.12Zm1.36-1.12h3.05v1.12h-3.05v-1.12Zm0,2.06h3.05v1.13h-3.05v-1.13Zm22.29-4.85l-.83-.35-.22.06h-2.38c.15-.35.29-.71.42-1.08l-1.26-.31c-.49,1.61-1.37,3.12-2.42,4.15v-3.59h-4.62v4.4h1.95v5.46l-.92.21v-4.5h-1.06v4.72c-.24.04-.46.08-.67.13l.22,1.26c1.51-.35,3.54-.84,5.46-1.33l-.13-1.15-1.74.41v-2.21h1.64c.14.18.28.39.36.56.21-.08.41-.18.62-.28v4.58h1.19v-.49h3.12v.45h1.25v-4.55l.28.11c.17-.32.55-.84.8-1.08-1.19-.42-2.2-1.06-3.05-1.83.87-1.04,1.57-2.28,2-3.74Zm-3.95.81h2.34c-.32.74-.74,1.43-1.25,2.04-.5-.59-.9-1.19-1.22-1.79l.13-.25Zm-6.23,1.34v-2.16h2.28v2.16h-2.28Zm3.61,3.54v-.57h-1.64v-1.85h1.51v-.63c.29.22.7.56.9.77.36-.38.74-.83,1.08-1.32.31.53.66,1.08,1.11,1.61-.88.87-1.91,1.54-2.96,1.99Zm5.29,3.82h-3.12v-2.33h3.12v2.33Zm.39-3.43h-3.87c.69-.41,1.34-.91,1.93-1.48.56.55,1.2,1.06,1.93,1.48Z"/>
    <path class="cls-8" d="m233.57,286.34l-5.27,9.69h1.81l1.34-2.52h3.52l.35,2.52h1.73l-1.33-9.69h-2.15Zm-1.43,5.74c.99-1.86,1.81-3.45,2.25-4.38h.01c.05.85.22,2.29.49,4.38h-2.75Zm15.75-20.52h-1.65l-.36,1.7h1.65l.36-1.7Zm-7.73,9.33c-.05.29-.11.69-.13.91h1.61c.02-.24.18-1.07.33-1.77l.64-3c.39-1.83-.83-2.57-2.54-2.57-2.17,0-2.96,1-3.23,2.13h1.68c.18-.42.4-.95,1.41-.95,1.14,0,1.16.74,1.04,1.32l-.07.39c-.42.01-1.01.01-1.66.07-1.54.16-3.35.67-3.35,2.69,0,.85.58,1.83,2,1.83s1.9-.55,2.26-1.05Zm-1.58-.23c-.67,0-.97-.37-.97-.83,0-.79.63-1.13,1.72-1.28.45-.05.88-.08,1.32-.08l-.03.11c-.23.96-.65,2.07-2.05,2.07Zm-7.88,1.14h1.72l1.74-8.27h2.89l.31-1.42h-7.49l-.31,1.42h2.89l-1.75,8.27Zm16.54-7.2h-1.65l-1.52,7.2h1.65l1.52-7.2Zm20.03-3.04l-.36,1.7h1.65l.36-1.7h-1.65Zm-25.6,18.64c.13-.6.21-1.2.23-1.38h-1.59c-.12.66-.27,1.43-.42,2.13l-1.08,5.07h1.65l.68-3.21c.34-1.59,1.3-2.41,2.63-2.46l.34-1.67c-1.2,0-1.94.6-2.44,1.52Zm23.56-1.52c-2.17,0-2.96,1-3.23,2.13h1.68c.18-.42.4-.95,1.41-.95,1.14,0,1.16.75,1.04,1.32l-.07.39c-.42.01-1.01.01-1.66.07-1.54.16-3.35.67-3.35,2.69,0,.85.58,1.83,2,1.83s1.9-.55,2.26-1.05c-.05.29-.11.69-.13.91h1.61c.02-.24.18-1.07.33-1.77l.64-3c.39-1.83-.83-2.57-2.54-2.57Zm.56,4.12c-.23.96-.65,2.07-2.05,2.07-.67,0-.97-.37-.97-.83,0-.79.63-1.13,1.72-1.28.45-.05.88-.08,1.32-.08l-.03.11Zm-.69-11h1.65l1.52-7.2h-1.65l-1.52,7.2Zm-1.68-2.14h-1.72c-.27.51-.65.98-1.52.98s-1.29-.67-1.29-1.58c0-.19.02-.32.05-.52h4.72c.12-.43.19-.85.19-1.38,0-1.42-.71-2.7-2.76-2.7-2.79,0-3.86,2.62-3.86,4.56,0,1.72.91,2.92,2.8,2.92,2.06,0,2.96-1.2,3.39-2.28Zm-2.39-3.94c.9,0,1.24.54,1.24,1.29,0,.11,0,.24-.04.39h-3.05c.29-1.06.91-1.68,1.85-1.68Zm-3.22,12.95c-1.24,0-1.9.64-2.26,1.15.05-.19.15-.8.17-1.01h-1.62c-.1.6-.23,1.21-.36,1.83l-1.14,5.37h1.65l.78-3.68c.29-1.38.94-2.26,2-2.26.91,0,1.11.63.91,1.54l-.92,4.4h1.64l.93-4.4c.45-2.1-.38-2.94-1.78-2.94Zm-9.2,0c-2.79,0-3.86,2.62-3.86,4.56,0,1.72.91,2.92,2.8,2.92,2.06,0,2.96-1.2,3.39-2.28h-1.72c-.27.51-.65.98-1.52.98s-1.29-.67-1.29-1.58c0-.19.02-.32.05-.52h4.72c.12-.43.19-.85.19-1.38,0-1.42-.71-2.7-2.76-2.7Zm1.14,2.95h-3.05c.29-1.06.91-1.68,1.85-1.68s1.24.54,1.24,1.29c0,.11,0,.24-.04.39Zm5.96-14.38c0-1.69-.85-2.79-2.3-2.79-1.14,0-1.85.57-2.28,1.2.07-.36.17-.9.17-1.06h-1.64c-.07.46-.2,1.12-.41,2.1l-1.67,7.88h1.64l.75-3.54c.24.46.85.9,1.84.9,2.52,0,3.89-2.41,3.89-4.69Zm-3.93,3.33c-1.28,0-1.54-1.02-1.27-2.34.27-1.31,1.04-2.39,2.17-2.39.8,0,1.3.49,1.3,1.58,0,1.34-.68,3.15-2.21,3.15Z"/>
    <path class="cls-8" d="m188.03,196.98c.65-.3,1.23-1,1.23-2.09,0-1.25-.88-2.47-3.21-2.47h-4.21v9.65h4.36c2.05,0,3.35-1.24,3.35-2.89,0-1.27-.85-1.95-1.5-2.2Zm-4.15-2.95h1.99c.8,0,1.34.36,1.34,1.07s-.41,1.12-1.4,1.12h-1.93v-2.19Zm1.88,6.42h-1.88v-2.62h1.87c1.15,0,1.65.5,1.65,1.27,0,.87-.51,1.35-1.64,1.35Zm9.13,9.21h2.93v7.94h2.09v-7.94h2.92v-1.71h-7.94v1.71Zm-4.36,7.94h2.09v-9.65h-2.09v9.65Zm8.59-17.25h-5.09v-2.45h4.61v-1.71h-4.61v-2.07h4.82v-1.71h-6.84v9.65h6.87l.25-1.71Zm-17.72,17.25h2.04v-3.86h4.4v-1.71h-4.4v-2.36h4.7v-1.71h-6.73v9.65Zm34.55-38.13c-.29.19-.63.29-1.07.31-.14,0-.27.03-.41.05l-.19.03-.28.1.08.69h1.62s.08,0,.08,0c.02,0,.03,0,.04,0,.23.07.45.08.67.09.16,0,.3.01.44.04.14.03.29.04.43.05.1,0,.19.01.29.03.24.04.47.1.72.15.17.04.34.08.52.11.53.11,1.06.28,1.6.44l.08.03c.43.13.85.31,1.26.47l.05.02c.19.08.38.15.57.23.7.27,1.41.6,2.04.88l.14.06c.42.19.84.39,1.25.6l.96.46c.3.14.61.29.91.45.45.25.9.52,1.34.79l.44.27c.11.06.21.13.31.2l.38.25.47-.64-.67-.48c-.3-.22-.59-.43-.89-.64-.26-.18-.51-.35-.77-.52l-.06-.04c-.23-.16-.47-.31-.7-.47-.5-.34-.99-.69-1.49-1.04-.74-.53-1.59-1.18-2.27-2.04-.32-.41-.45-.76-.42-1.09.09-.26.25-.48.53-.69.34-.26.72-.43,1.02-.55.73-.29,1.55-.51,2.51-.68.18-.03.37-.07.56-.11.29-.06.58-.12.87-.15.36-.04.73-.09,1.09-.14.2-.03.41-.04.63-.06.11,0,.22-.01.33-.02.05,0,.09-.02.17-.04l.29-.08-.13-.81-.28.02c-.11,0-.22.02-.33.03-.23.02-.45.04-.68.05-.63,0-1.15,0-1.62-.04-.2-.01-.4-.02-.61-.04-.4-.02-.86-.04-1.33-.11-.3-.04-.6-.08-.9-.14-.51-.09-.92-.2-1.28-.34-.53-.21-1.02-.46-1.18-1.05-.05-.36.04-.7.28-1.09.24-.38.5-.71.8-.99.32-.31.66-.61,1.04-.92.34-.28.7-.53,1.05-.78l.38-.27c.44-.32.91-.62,1.39-.92.31-.19.61-.39.91-.59.25-.17.5-.33.75-.49l.12-.07c.2-.13.4-.26.6-.39.13-.09.25-.2.35-.3.12-.11.12-.27.12-.39l.04-.6-.57.3s-.07.04-.1.06l-.81.51c-.58.37-1.18.74-1.78,1.11-.45.27-.91.52-1.39.79-.21.12-.43.23-.64.35-.05.03-.09.05-.16.09-.05.03-.09.06-.15.08l-.38.19c-.45.23-.91.46-1.37.67-.55.26-1.1.51-1.63.73-.15.07-.31.12-.48.18-.17.06-.35.12-.52.19-.29.12-.6.22-.91.31-.14.04-.28.09-.42.13-.28.09-.6.18-1,.27-.33.07-.67.13-.97.19l-.15.03c-.06.01-.12.02-.19.02-.12.01-.27.02-.41.07-.16.05-.33.06-.51.07-.1,0-.19.01-.28.02-.36.04-.74.05-1.13.07-.17,0-.35,0-.52.02-.1,0-.18.05-.24.13l-.11.12.02.19.09.36.24.02s.1,0,.15,0c.3-.03.6.05.85.13.47.15.73.45.81.95.03.2,0,.4-.1.57-.15.26-.33.43-.57.52-.16.06-.32.12-.5.18l-.42.16-.02.21s0,.09,0,.15c.01.1.05.16.08.21l.1.17h.19c.39-.04.7,0,.96.14.27.14.45.38.58.76v.08c0,.06,0,.12,0,.18-.01.51-.21.89-.62,1.15Zm-21.2-2.47h.03c.2.06.39.08.61.09.1,0,.19.02.29.03.11.02.21.03.34.05.09,0,.19.02.28.03.23.04.46.08.69.13l.38.07c.06,0,.11.02.18.03.08.01.16.02.23.04.45.12.83.22,1.21.34.67.2,1.16.42,1.59.7.35.23.57.48.66.71.05.35-.03.64-.22.93-.22.32-.41.56-.6.76-.44.47-.96.87-1.46,1.26-.51.4-1.03.76-1.67,1.18-.61.4-1.21.83-1.79,1.24l-.29.21c-.21.15-.42.31-.62.47l-.22.17-.11.12v.16s0,.19,0,.19l.29.36.22-.15c.1-.06.19-.13.29-.2l.07-.05c.21-.14.4-.28.61-.4.5-.29,1-.56,1.5-.84l.67-.37c.16-.09.31-.17.47-.25l.26-.13c.53-.25,1.09-.52,1.63-.76.59-.26,1.18-.51,1.77-.76l.54-.23c.64-.27,1.29-.46,2.02-.67.44-.13.89-.23,1.33-.32l.44-.1c.11-.02.22-.04.35-.07.15-.03.29-.05.44-.09.29-.07.59-.11.91-.15l.17-.02c.2-.03.4-.04.6-.06l.91-.09-.49-.6c-.11-.13-.2-.23-.23-.35h0c-.03-.1-.06-.19-.09-.29-.05-.15-.09-.3-.13-.46-.06-.27-.1-.55-.13-.86l-.03-.31c-.04-.37-.08-.71-.07-1.07,0-.1.01-.2.02-.31.01-.14.02-.27.02-.41,0-.35.06-.7.12-1,.06-.31.14-.64.31-.9.05-.08.11-.16.17-.24l.22-.29-.08-.19c-.12-.27-.35-.28-.46-.29l-.17-.02c-.16-.02-.32-.03-.48-.06-.24-.04-.48-.09-.72-.14-.19-.04-.39-.08-.58-.12-.13-.02-.26-.04-.38-.06-.16-.02-.32-.05-.48-.09-.15-.03-.3-.08-.46-.12-.17-.05-.34-.1-.52-.14-.51-.11-1.03-.26-1.58-.46-.91-.33-1.82-.75-2.7-1.17l-.07-.03c-.91-.42-1.76-.89-2.48-1.28-.54-.3-1.08-.62-1.6-.93l-.52-.31c-.14-.08-.27-.17-.41-.26l-1.33-.87c-.09-.06-.17-.05-.21-.05h-.31v.68l.56.38c.28.19.57.39.86.58.46.3.93.6,1.39.9l.65.42c.84.54,1.57,1.06,2.23,1.6.49.4,1.01.84,1.44,1.38.24.3.42.6.54.92.16.41.09.82-.18,1.13-.2.23-.46.37-.78.52-.65.29-1.37.41-2.07.53-.43.07-.87.11-1.24.13-.2.01-.39.02-.59.02-.24,0-.52.01-.79.04-.29.03-.61.02-.89.01-.13,0-.27,0-.46,0-.21-.07-.41-.07-.64-.06-.08,0-.17,0-.26,0l-.57-.05.44.9,1.24.11Zm47.71,20.12c0-2.85-1.84-4.7-4.65-4.7h-3.83v9.65h3.74c2.95,0,4.73-2.13,4.73-4.94Zm-6.39,3.26v-6.28h1.58c1.89,0,2.66,1.45,2.66,3.02,0,1.88-.82,3.25-2.67,3.25h-1.56Zm-11.67-5.8c.48,1.11,2.95,5.6,3.98,7.49h2.45v-9.65h-1.89v2.86c0,1.58,0,3.26.11,4.27h-.03c-.44-1.05-2.67-4.96-3.88-7.12h-2.58v9.65h1.9v-2.93c0-1.73-.02-3.71-.09-4.55h.03Zm5.33,17.12c-1.56-.36-1.97-.63-1.97-1.3s.51-1.03,1.36-1.03c1.24,0,1.57.65,1.67,1.24h2.1c-.14-1.41-1.16-2.79-3.72-2.79-2.28,0-3.54,1.14-3.54,2.82,0,1.3.65,2.26,3.27,2.87,1.65.38,2.12.72,2.12,1.51,0,.71-.48,1.15-1.59,1.15s-1.81-.42-2.03-1.39h-2.1c.23,1.76,1.52,2.96,3.97,2.96s3.88-1.21,3.88-2.97c0-1.36-.62-2.4-3.42-3.06Zm-23.66-9.64v-3.44c0-.2.04-.24.08-.31l3.37-5.9h-2.18c-.73,1.4-1.79,3.43-2.21,4.44-.48-1.05-1.45-2.98-2.19-4.44h-2.36l3.33,5.93c.06.1.08.2.08.31v3.41h2.09Zm33.5,9.64c-1.56-.36-1.97-.63-1.97-1.3s.51-1.03,1.36-1.03c1.24,0,1.57.65,1.67,1.24h2.1c-.14-1.41-1.16-2.79-3.72-2.79-2.28,0-3.54,1.14-3.54,2.82,0,1.3.65,2.26,3.27,2.87,1.65.38,2.12.72,2.12,1.51,0,.71-.48,1.15-1.59,1.15s-1.81-.42-2.03-1.39h-2.1c.23,1.76,1.52,2.96,3.97,2.96s3.88-1.21,3.88-2.97c0-1.36-.62-2.4-3.42-3.06Zm-28.24-.89c0,1.58,0,3.26.11,4.27h-.03c-.44-1.05-2.67-4.96-3.88-7.12h-2.58v9.65h1.9v-2.93c0-1.73-.02-3.71-.09-4.55h.03c.48,1.11,2.95,5.6,3.98,7.49h2.45v-9.65h-1.89v2.86Zm7.07,2.63h4.61v-1.71h-4.61v-2.07h4.82v-1.71h-6.84v9.65h6.87l.25-1.71h-5.09v-2.45Zm1.5-16.23c0-2.95-1.79-4.93-4.61-4.93-3,0-4.75,2.16-4.75,4.96s1.58,4.96,4.61,4.96,4.75-2.31,4.75-5Zm-4.67,3.3c-1.71,0-2.54-1.42-2.54-3.31s.76-3.22,2.5-3.22,2.55,1.43,2.55,3.26c0,1.72-.66,3.27-2.51,3.27Z"/>
    <g>
      <path class="cls-6" d="m286.3,259.08c.49,0,.88-.39.88-.88s-.39-.88-.88-.88-.88.39-.88.88.39.88.88.88Z"/>
      <path class="cls-6" d="m282.78,259.08c.49,0,.88-.39.88-.88s-.39-.88-.88-.88-.88.39-.88.88.39.88.88.88Z"/>
      <path class="cls-6" d="m279.26,259.08c.49,0,.88-.39.88-.88s-.39-.88-.88-.88-.88.39-.88.88.39.88.88.88Z"/>
      <path class="cls-6" d="m275.74,259.08c.49,0,.88-.39.88-.88s-.39-.88-.88-.88-.88.39-.88.88.39.88.88.88Z"/>
      <path class="cls-6" d="m272.22,259.08c.49,0,.88-.39.88-.88s-.39-.88-.88-.88-.88.39-.88.88.39.88.88.88Z"/>
      <path class="cls-6" d="m268.7,259.08c.49,0,.88-.39.88-.88s-.39-.88-.88-.88-.88.39-.88.88.39.88.88.88Z"/>
      <path class="cls-6" d="m265.18,259.08c.49,0,.88-.39.88-.88s-.39-.88-.88-.88-.88.39-.88.88.39.88.88.88Z"/>
      <path class="cls-6" d="m261.66,259.08c.49,0,.88-.39.88-.88s-.39-.88-.88-.88-.88.39-.88.88.39.88.88.88Z"/>
      <path class="cls-6" d="m258.14,259.08c.49,0,.88-.39.88-.88s-.39-.88-.88-.88-.88.39-.88.88.39.88.88.88Z"/>
      <path class="cls-6" d="m254.62,259.08c.49,0,.88-.39.88-.88s-.39-.88-.88-.88-.88.39-.88.88.39.88.88.88Z"/>
      <path class="cls-6" d="m251.1,259.08c.49,0,.88-.39.88-.88s-.39-.88-.88-.88-.88.39-.88.88.39.88.88.88Z"/>
      <path class="cls-6" d="m247.58,259.08c.49,0,.88-.39.88-.88s-.39-.88-.88-.88-.88.39-.88.88.39.88.88.88Z"/>
      <path class="cls-6" d="m244.06,259.08c.49,0,.88-.39.88-.88s-.39-.88-.88-.88-.88.39-.88.88.39.88.88.88Z"/>
      <path class="cls-6" d="m240.54,259.08c.49,0,.88-.39.88-.88s-.39-.88-.88-.88-.88.39-.88.88.39.88.88.88Z"/>
      <path class="cls-6" d="m237.02,259.08c.49,0,.88-.39.88-.88s-.39-.88-.88-.88-.88.39-.88.88.39.88.88.88Z"/>
      <path class="cls-6" d="m233.5,259.08c.49,0,.88-.39.88-.88s-.39-.88-.88-.88-.88.39-.88.88.39.88.88.88Z"/>
      <path class="cls-6" d="m229.98,259.08c.49,0,.88-.39.88-.88s-.39-.88-.88-.88-.88.39-.88.88.39.88.88.88Z"/>
      <path class="cls-6" d="m226.46,259.08c.49,0,.88-.39.88-.88s-.39-.88-.88-.88-.88.39-.88.88.39.88.88.88Z"/>
      <path class="cls-6" d="m222.94,259.08c.49,0,.88-.39.88-.88s-.39-.88-.88-.88-.88.39-.88.88.39.88.88.88Z"/>
      <path class="cls-6" d="m219.3,258.96c.53.1.98-.3,1-.78.02-.49-.32-.88-.75-.96-.43-.05-.87.23-.99.7-.12.47.2.97.73,1.04Z"/>
      <path class="cls-6" d="m215.69,257.72c.47.26,1.03.07,1.22-.37.19-.45.02-.95-.35-1.16-.37-.23-.9-.08-1.18.3-.29.41-.15.95.31,1.23Z"/>
      <path class="cls-6" d="m212.75,255.28c.36.4.93.44,1.27.09s.38-.89.08-1.21c-.26-.34-.8-.41-1.21-.14-.4.27-.48.84-.15,1.26Z"/>
      <path class="cls-6" d="m210.88,251.95c.18.51.7.74,1.15.53.43-.2.65-.69.51-1.1-.16-.4-.59-.67-1.08-.56-.46.1-.78.62-.59,1.13Z"/>
      <path class="cls-6" d="m210.31,248.2c0,.48.43.93.91.88.49-.05.84-.39.85-.88,0-.49-.39-.88-.88-.88s-.88.39-.88.88Z"/>
      <path class="cls-6" d="m210.31,244.68c0,.49.39.88.88.88s.88-.39.88-.88-.39-.88-.88-.88-.88.39-.88.88Z"/>
    </g>
  </g>
</svg>