<?xml version="1.0" encoding="UTF-8"?>
<svg xmlns="http://www.w3.org/2000/svg" viewBox="0 0 440 310">
  <defs>
    <style>
      .cls-1 {
        fill: none;
      }

      .cls-1, .cls-2, .cls-3, .cls-4, .cls-5, .cls-6, .cls-7 {
        stroke-width: 0px;
      }

      .cls-8 {
        opacity: .1;
      }

      .cls-2 {
        fill: #262626;
      }

      .cls-3 {
        fill: #fff;
      }

      .cls-4 {
        fill: #e9dbc1;
      }

      .cls-5 {
        fill: #e4d2b1;
      }

      .cls-6 {
        fill: #e66751;
      }

      .cls-7 {
        fill: #e76751;
      }
    </style>
  </defs>
  <g id="board">
    <rect class="cls-1" width="440" height="310"/>
  </g>
  <g id="map">
    <g class="cls-8">
      <polygon class="cls-5" points="320.77 183.13 313.86 176.58 306.96 170.04 300.05 163.5 293.15 156.96 286.24 150.41 279.34 143.87 272.43 137.33 265.53 130.79 260.24 125.77 260.24 128.27 264.21 132.04 271.11 138.58 278.02 145.12 284.92 151.66 291.83 158.21 298.73 164.75 305.64 171.29 312.54 177.83 319.45 184.38 320.54 185.41 323.18 185.41 320.77 183.13"/>
      <polygon class="cls-5" points="303.26 173.55 296.35 167.01 289.45 160.46 282.54 153.92 275.64 147.38 268.73 140.84 261.83 134.29 260.24 132.79 260.24 135.29 260.51 135.54 267.41 142.09 274.32 148.63 281.22 155.17 288.13 161.71 295.03 168.26 301.94 174.8 308.84 181.34 313.14 185.41 315.78 185.41 310.16 180.09 303.26 173.55"/>
      <polygon class="cls-5" points="317.2 173.42 310.29 166.88 303.39 160.34 296.48 153.8 289.58 147.25 282.67 140.71 275.77 134.17 268.86 127.63 261.96 121.08 260.24 119.45 260.24 121.95 260.64 122.33 267.54 128.88 274.45 135.42 281.35 141.96 288.26 148.5 295.16 155.05 302.07 161.59 308.97 168.13 315.88 174.67 322.78 181.22 327.21 185.41 329.85 185.41 324.1 179.97 317.2 173.42"/>
      <polygon class="cls-5" points="306.82 183.25 299.92 176.71 293.02 170.17 286.11 163.62 279.21 157.08 272.3 150.54 265.4 144 260.24 139.11 260.24 141.61 264.08 145.25 270.98 151.79 277.89 158.33 284.79 164.87 291.7 171.42 298.6 177.96 305.5 184.5 306.46 185.41 309.1 185.41 306.82 183.25"/>
      <polygon class="cls-5" points="334.71 183 327.8 176.46 320.9 169.92 313.99 163.37 307.09 156.83 300.18 150.29 293.28 143.75 286.37 137.2 279.47 130.66 272.57 124.12 265.66 117.58 260.24 112.44 260.24 114.94 264.34 118.83 271.25 125.37 278.15 131.91 285.05 138.45 291.96 145 298.86 151.54 305.77 158.08 312.67 164.62 319.58 171.17 326.48 177.71 333.39 184.25 334.61 185.41 337.25 185.41 334.71 183"/>
      <polygon class="cls-5" points="348.65 182.88 341.74 176.33 334.84 169.79 327.94 163.25 321.03 156.71 314.13 150.16 307.22 143.62 300.32 137.08 293.41 130.54 286.51 123.99 279.6 117.45 272.7 110.91 265.79 104.37 260.24 99.1 260.24 101.6 264.47 105.62 271.38 112.16 278.28 118.7 285.19 125.24 292.09 131.79 299 138.33 305.9 144.87 312.81 151.41 319.71 157.96 326.62 164.5 333.52 171.04 340.42 177.58 347.33 184.13 348.69 185.41 351.33 185.41 348.65 182.88"/>
      <polygon class="cls-5" points="362.59 182.75 355.69 176.21 348.78 169.67 341.88 163.12 334.97 156.58 328.07 150.04 321.16 143.5 314.26 136.95 307.35 130.41 300.45 123.87 293.54 117.33 286.64 110.78 279.73 104.24 272.83 97.7 268.06 93.18 265.42 93.18 271.51 98.95 278.41 105.49 285.32 112.03 292.22 118.58 299.13 125.12 306.03 131.66 312.94 138.2 319.84 144.75 326.75 151.29 333.65 157.83 340.56 164.37 347.46 170.92 354.37 177.46 361.27 184 362.76 185.41 365.4 185.41 362.59 182.75"/>
      <polygon class="cls-5" points="331.14 173.3 324.23 166.76 317.33 160.21 310.42 153.67 303.52 147.13 296.62 140.59 289.71 134.04 282.81 127.5 275.9 120.96 269 114.42 262.09 107.87 260.24 106.12 260.24 108.62 260.77 109.12 267.68 115.67 274.58 122.21 281.49 128.75 288.39 135.29 295.3 141.84 302.2 148.38 309.1 154.92 316.01 161.46 322.91 168.01 329.82 174.55 336.72 181.09 341.28 185.41 343.92 185.41 338.04 179.84 331.14 173.3"/>
      <polygon class="cls-5" points="289.31 173.67 282.41 167.13 275.5 160.59 268.6 154.05 261.69 147.5 260.24 146.12 260.24 148.62 260.37 148.75 267.28 155.3 274.18 161.84 281.09 168.38 287.99 174.92 294.9 181.47 299.06 185.41 301.7 185.41 296.22 180.22 289.31 173.67"/>
      <polygon class="cls-5" points="268.34 180.47 261.43 173.92 260.24 172.79 260.24 175.3 267.02 181.72 270.91 185.41 273.55 185.41 268.34 180.47"/>
      <polygon class="cls-5" points="369.63 176.08 362.72 169.54 355.82 163 348.91 156.46 342.01 149.91 335.1 143.37 328.2 136.83 321.3 130.28 314.39 123.74 307.49 117.2 300.58 110.66 293.68 104.11 286.77 97.57 282.13 93.18 279.49 93.18 285.45 98.82 292.36 105.37 299.26 111.91 306.17 118.45 313.07 124.99 319.98 131.54 326.88 138.08 333.78 144.62 340.69 151.16 347.59 157.71 354.5 164.25 361.4 170.79 368.31 177.33 375.21 183.88 376.83 185.41 379.47 185.41 376.53 182.63 369.63 176.08"/>
      <polygon class="cls-5" points="265 183.63 260.24 179.12 260.24 181.62 263.68 184.88 264.24 185.41 266.88 185.41 265 183.63"/>
      <polygon class="cls-5" points="278.94 183.5 272.04 176.96 265.13 170.42 260.24 165.78 260.24 168.28 263.81 171.67 270.72 178.21 277.62 184.75 278.32 185.41 280.96 185.41 278.94 183.5"/>
      <polygon class="cls-5" points="292.88 183.38 285.98 176.83 279.07 170.29 272.17 163.75 265.26 157.21 260.24 152.44 260.24 154.95 263.94 158.46 270.85 165 277.75 171.54 284.66 178.09 291.56 184.63 292.39 185.41 295.03 185.41 292.88 183.38"/>
      <polygon class="cls-5" points="282.28 180.34 275.37 173.8 268.47 167.26 261.56 160.71 260.24 159.46 260.24 161.96 260.24 161.96 267.15 168.51 274.05 175.05 280.96 181.59 284.99 185.41 287.63 185.41 282.28 180.34"/>
      <polygon class="cls-5" points="345.08 173.17 338.18 166.63 331.27 160.09 324.37 153.55 317.46 147 310.56 140.46 303.65 133.92 296.75 127.37 289.84 120.83 282.94 114.29 276.03 107.75 269.13 101.2 262.22 94.66 260.66 93.18 260.24 93.18 260.24 95.28 260.9 95.91 267.81 102.46 274.71 109 281.62 115.54 288.52 122.08 295.43 128.63 302.33 135.17 309.24 141.71 316.14 148.25 323.05 154.8 329.95 161.34 336.86 167.88 343.76 174.42 350.67 180.97 355.36 185.41 358 185.41 351.99 179.72 345.08 173.17"/>
      <polygon class="cls-5" points="341.22 98.32 348.12 104.86 355.03 111.41 361.93 117.95 368.84 124.49 375.74 131.03 379.47 134.57 379.47 132.07 377.06 129.78 370.16 123.24 363.25 116.7 356.35 110.16 349.44 103.61 342.54 97.07 338.43 93.18 335.79 93.18 341.22 98.32"/>
      <polygon class="cls-5" points="316.67 95.41 323.57 101.95 330.48 108.5 337.38 115.04 344.29 121.58 351.19 128.12 358.1 134.67 365 141.21 371.91 147.75 378.81 154.29 379.47 154.92 379.47 152.42 373.23 146.5 366.32 139.96 359.42 133.42 352.51 126.87 345.61 120.33 338.7 113.79 331.8 107.25 324.9 100.7 317.99 94.16 316.95 93.18 314.31 93.18 316.67 95.41"/>
      <polygon class="cls-5" points="330.61 95.29 337.52 101.83 344.42 108.37 351.33 114.91 358.23 121.46 365.14 128 372.04 134.54 378.94 141.08 379.47 141.59 379.47 139.08 373.36 133.29 366.46 126.75 359.55 120.21 352.65 113.66 345.74 107.12 338.84 100.58 331.93 94.04 331.03 93.18 328.39 93.18 330.61 95.29"/>
      <polygon class="cls-5" points="327.28 98.45 334.18 104.99 341.09 111.53 347.99 118.07 354.9 124.62 361.8 131.16 368.7 137.7 375.61 144.25 379.47 147.91 379.47 145.4 376.93 142.99 370.02 136.45 363.12 129.91 356.22 123.37 349.31 116.82 342.41 110.28 335.5 103.74 328.6 97.2 324.36 93.18 321.71 93.18 327.28 98.45"/>
      <polygon class="cls-5" points="313.33 98.57 320.24 105.12 327.14 111.66 334.05 118.2 340.95 124.74 347.86 131.29 354.76 137.83 361.67 144.37 368.57 150.91 375.48 157.46 379.47 161.24 379.47 158.74 376.8 156.2 369.89 149.66 362.99 143.12 356.08 136.58 349.18 130.03 342.27 123.49 335.37 116.95 328.46 110.41 321.56 103.86 314.65 97.32 310.28 93.18 307.64 93.18 313.33 98.57"/>
      <polygon class="cls-5" points="299.39 98.7 306.3 105.24 313.2 111.78 320.11 118.33 327.01 124.87 333.92 131.41 340.82 137.95 347.73 144.5 354.63 151.04 361.54 157.58 368.44 164.12 375.35 170.67 379.47 174.58 379.47 172.08 376.67 169.41 369.76 162.87 362.86 156.33 355.95 149.79 349.05 143.24 342.14 136.7 335.24 130.16 328.33 123.62 321.43 117.07 314.52 110.53 307.62 103.99 300.71 97.45 296.21 93.18 293.57 93.18 299.39 98.7"/>
      <polygon class="cls-5" points="302.73 95.54 309.63 102.08 316.54 108.62 323.44 115.16 330.35 121.71 337.25 128.25 344.16 134.79 351.06 141.34 357.97 147.88 364.87 154.42 371.78 160.96 378.68 167.51 379.47 168.26 379.47 165.76 373.1 159.71 366.19 153.17 359.29 146.63 352.38 140.08 345.48 133.54 338.57 127 331.67 120.46 324.76 113.91 317.86 107.37 310.95 100.83 304.05 94.29 302.88 93.18 300.24 93.18 302.73 95.54"/>
      <polygon class="cls-5" points="369.1 98.07 376.01 104.61 379.47 107.9 379.47 105.4 377.33 103.36 370.42 96.82 366.58 93.18 363.94 93.18 369.1 98.07"/>
      <polygon class="cls-5" points="379.47 94.56 379.47 93.18 378.01 93.18 379.47 94.56"/>
      <polygon class="cls-5" points="372.96 172.92 366.06 166.38 359.15 159.84 352.25 153.29 345.34 146.75 338.44 140.21 331.54 133.67 324.63 127.12 317.73 120.58 310.82 114.04 303.92 107.5 297.01 100.95 290.11 94.41 288.8 93.18 286.16 93.18 288.79 95.66 295.69 102.21 302.6 108.75 309.5 115.29 316.41 121.83 323.31 128.38 330.22 134.92 337.12 141.46 344.02 148 350.93 154.55 357.83 161.09 364.74 167.63 371.64 174.17 378.55 180.72 379.47 181.59 379.47 179.09 372.96 172.92"/>
      <polygon class="cls-5" points="372.44 94.91 379.34 101.45 379.47 101.58 379.47 99.08 373.76 93.66 373.25 93.18 370.61 93.18 372.44 94.91"/>
      <polygon class="cls-5" points="355.16 98.2 362.06 104.74 368.97 111.28 375.87 117.82 379.47 121.24 379.47 118.73 377.19 116.57 370.29 110.03 363.38 103.49 356.48 96.95 352.5 93.18 349.86 93.18 355.16 98.2"/>
      <polygon class="cls-5" points="344.55 95.16 351.46 101.7 358.36 108.25 365.27 114.79 372.17 121.33 379.08 127.87 379.47 128.25 379.47 125.75 373.49 120.08 366.59 113.54 359.68 107 352.78 100.45 345.87 93.91 345.1 93.18 342.46 93.18 344.55 95.16"/>
      <polygon class="cls-5" points="359.02 173.05 352.12 166.5 345.21 159.96 338.31 153.42 331.4 146.88 324.5 140.33 317.59 133.79 310.69 127.25 303.78 120.71 296.88 114.16 289.97 107.62 283.07 101.08 276.17 94.54 274.73 93.18 272.09 93.18 274.85 95.79 281.75 102.33 288.65 108.87 295.56 115.42 302.46 121.96 309.37 128.5 316.27 135.04 323.18 141.59 330.08 148.13 336.99 154.67 343.89 161.21 350.8 167.76 357.7 174.3 364.61 180.84 369.43 185.41 372.07 185.41 365.93 179.59 359.02 173.05"/>
      <polygon class="cls-5" points="358.5 95.04 365.4 101.58 372.3 108.12 379.21 114.66 379.47 114.91 379.47 112.41 373.62 106.87 366.72 100.33 359.82 93.79 359.17 93.18 356.53 93.18 358.5 95.04"/>
    </g>
    <path class="cls-6" d="m51.4,281.12c.4-.03.77-.2,1.03-.51,1.58-1.87,3.18-3.71,4.69-5.63.29-.37.73-.58,1.2-.55,1.18.06,2.46.18,3.63-.19.21-.07.41-.2.57-.35.64-.63,1.19-1.34,1.77-2.03.19-.22.38-.45.59-.7h-.22c-3.71,0-7.42,0-11.12,0-.73,0-1.47.06-2.15.34-.2.08-.37.22-.51.38-1.56,1.79-3.07,3.62-4.59,5.44-.24.29-.59.48-.97.52-1.34.15-2.77-.17-4.09.4-.19.08-.35.21-.49.36-.73.82-1.43,1.67-2.14,2.52-.02.03-.04.06-.06.1h.19c3.79,0,7.58,0,11.37,0,.44,0,.88-.07,1.3-.1Zm21.17-2.7c-3.71,0-7.42,0-11.12,0-.73,0-1.47.06-2.15.34-.2.08-.37.22-.51.38-1.56,1.79-3.07,3.62-4.59,5.44-.24.29-.59.48-.97.52-1.34.15-2.77-.17-4.09.4-.19.08-.35.21-.49.36-.73.82-1.43,1.67-2.14,2.52-.02.03-.04.06-.06.1h.19c3.79,0,7.58,0,11.37,0,.44,0,.88-.07,1.3-.1.4-.03.77-.2,1.03-.51,1.58-1.87,3.18-3.71,4.69-5.63.29-.37.73-.58,1.2-.55,1.18.06,2.46.18,3.63-.19.21-.07.41-.2.57-.35.64-.63,1.19-1.34,1.77-2.03.19-.22.38-.45.59-.7h-.22Z"/>
    <path class="cls-5" d="m146.59,197.73h.92c.29,0,.59,0,.76-.07-.04-.28-.07-.71-.08-1.02-.18.06-.49.08-.67.08h-.81c-.18,0-.22-.13-.22-.5v-3.4h-4.1v1.68c0,1.01-.17,2.2-1.53,3.1.24.17.73.6.91.84,1.51-1.02,1.82-2.62,1.82-3.91v-.59h1.71v2.27c0,1.08.21,1.53,1.3,1.53Zm1.46-54.94v-1.23h-2.4c.08-.38.15-.78.22-1.2l-1.58-.13c-.06.46-.13.92-.21,1.33h-2.98c.35-.69.67-1.39.92-2.04l-1.49-.28c-.27.73-.63,1.54-1.05,2.33h-3.59v1.23h2.88c-.41.7-.84,1.34-1.22,1.88,1.18.38,2.48.84,3.75,1.36-1.29.83-3.04,1.29-5.35,1.56.28.34.69.97.81,1.3,2.63-.41,4.59-1.06,6.02-2.21,1.65.73,3.14,1.51,4.12,2.19l.98-1.15c-1.02-.64-2.49-1.37-4.08-2.04.64-.78,1.12-1.72,1.49-2.87h2.73Zm-5.6,2.3c-.92-.36-1.88-.7-2.79-1.01.25-.39.5-.83.77-1.29h3.33c-.31.92-.73,1.68-1.32,2.3Zm5.91,34h-12.75v1.43h12.75v-1.43Zm-12.13-38.6h1.32v-1.72h8.78v1.72h1.39v-2.94h-4.75c-.21-.49-.55-1.15-.81-1.67l-1.43.35c.18.39.41.9.59,1.32h-5.08v2.94Zm-.64-11.52c.36.28.78.74.99,1.09,3.18-1.5,4.69-3.92,5.41-6.46,1.09,2.97,2.79,5.24,5.41,6.46.21-.39.64-.94.97-1.22-2.65-1.11-4.41-3.47-5.36-6.39h5.11v-1.34h-5.64c.17-1.39.18-2.73.2-3.87h-1.41c-.01,1.12,0,2.47-.17,3.87h-5.21v1.34h4.97c-.56,2.54-1.92,5.06-5.25,6.51Zm11.91,69.8l-.8-.28-.24.04h-5v1.11h1.15l-.69.18c.42,1.09,1,2.06,1.71,2.87-.9.64-1.96,1.09-3.15,1.37.25.27.56.77.67,1.12,1.27-.38,2.42-.9,3.4-1.64.85.69,1.86,1.23,3.04,1.55.18-.34.55-.85.81-1.11-1.12-.25-2.12-.69-2.93-1.27.92-.99,1.61-2.28,2.02-3.95Zm-2.97,3.15c-.64-.66-1.16-1.43-1.51-2.28h2.93c-.34.9-.81,1.65-1.42,2.28Zm-3.49-1.04c-1.09.17-2.18.32-3.19.45v-1.75h2.97v-1.15h-2.97v-1.7h2.98v-1.13h-2.98v-1.26c1.19-.34,2.48-.74,3.47-1.2l-1.02-.98c-.9.48-2.37,1.04-3.67,1.42h-.04s0,7.93,0,7.93l-1.13.15.2,1.23.94-.15v2.14h1.26v-2.34c1.04-.17,2.16-.35,3.25-.53l-.06-1.12Zm.15-35.22l-.13-1.15-1.74.41v-2.21h1.64c.14.18.28.39.36.56.21-.08.41-.18.62-.28v4.58h1.19v-.49h3.12v.45h1.25v-4.55l.28.11c.17-.32.55-.84.8-1.08-1.19-.42-2.2-1.06-3.05-1.83.87-1.04,1.57-2.28,2-3.74l-.83-.35-.22.06h-2.38c.15-.35.29-.71.42-1.08l-1.26-.31c-.49,1.61-1.37,3.12-2.42,4.15v-3.59h-4.62v4.4h1.95v5.46l-.92.21v-4.5h-1.06v4.72c-.24.04-.46.08-.67.13l.22,1.26c1.51-.35,3.54-.84,5.46-1.33Zm5.07.29h-3.12v-2.33h3.12v2.33Zm.39-3.43h-3.87c.69-.41,1.34-.91,1.93-1.48.56.55,1.2,1.06,1.93,1.48Zm-3.07-5.28h2.34c-.32.74-.74,1.43-1.25,2.04-.5-.59-.9-1.19-1.22-1.79l.13-.25Zm-2.75,1.83c.29.22.7.56.9.77.36-.38.74-.83,1.08-1.32.31.53.66,1.08,1.11,1.61-.88.87-1.9,1.54-2.96,1.99v-.58h-1.64v-1.85h1.51v-.63Zm-3.49-.49v-2.16h2.28v2.16h-2.28Z"/>
    <path class="cls-5" d="m55.06,200.33h.92c.29,0,.59,0,.76-.07-.04-.28-.07-.71-.08-1.02-.18.06-.49.08-.67.08h-.81c-.18,0-.22-.13-.22-.5v-3.4h-4.1v1.68c0,1.01-.17,2.2-1.53,3.1.24.17.73.6.91.84,1.51-1.02,1.82-2.62,1.82-3.91v-.59h1.71v2.27c0,1.08.21,1.53,1.3,1.53Zm-5.66-69.73h2.04v-3.18h-2.04v3.18Zm.59-2.38h.85v1.58h-.85v-1.58Zm4.01,36.25c.87-1.04,1.57-2.28,2-3.74l-.83-.35-.22.06h-2.38c.15-.35.29-.71.42-1.08l-1.26-.31c-.49,1.61-1.37,3.12-2.42,4.15v-3.59h-4.62v4.4h1.95v5.46l-.92.21v-4.5h-1.06v4.72c-.24.04-.46.08-.67.13l.22,1.26c1.51-.35,3.54-.84,5.46-1.33l-.13-1.15-1.74.41v-2.21h1.64c.14.18.28.39.36.56.21-.08.41-.18.62-.28v4.58h1.19v-.49h3.12v.45h1.25v-4.55l.28.11c.17-.32.55-.84.8-1.08-1.19-.42-2.2-1.06-3.05-1.83Zm-1.95-2.93h2.34c-.32.74-.74,1.43-1.25,2.04-.5-.59-.9-1.19-1.22-1.79l.13-.25Zm-6.23,1.34v-2.16h2.28v2.16h-2.28Zm3.61,3.54v-.57h-1.64v-1.85h1.51v-.63c.29.22.7.56.9.77.36-.38.74-.83,1.08-1.32.31.53.66,1.08,1.11,1.61-.88.87-1.9,1.54-2.96,1.99Zm5.29,3.82h-3.12v-2.33h3.12v2.33Zm-3.47-3.43c.69-.41,1.34-.91,1.93-1.48.56.55,1.2,1.06,1.93,1.48h-3.87Zm5.58,15.72h-12.75v1.43h12.75v-1.43Zm-11.02-70.39v5.98h1.32v-7.61c.38-.52.74-1.05,1.04-1.6.28.18.6.45.77.6.2-.2.38-.41.57-.63v3.74h1.34c-.27.38-.59.74-.98,1.09-.21-.24-.41-.5-.59-.76l-.95.35c.24.38.48.71.77,1.06-.42.29-.85.55-1.29.77.25.2.7.62.88.84.41-.24.8-.5,1.18-.8.42.36.85.71,1.33,1.02-1.08.42-2.3.7-3.53.87.22.27.48.78.6,1.09,1.49-.25,2.91-.66,4.19-1.27,1.09.53,2.33.94,3.64,1.19.17-.35.53-.88.79-1.16-1.11-.17-2.17-.42-3.14-.78.92-.63,1.67-1.43,2.17-2.41l-.81-.43-.21.06h-3.19c.17-.22.34-.49.48-.73h3.63v-4.2h-5.95c.18-.24.35-.49.52-.76h6.26v-1.05h-5.69c.14-.35.29-.69.42-1.04l-1.19-.29c-.46,1.33-1.27,2.59-2.21,3.43l-.9-.36c-.77,1.4-2.05,2.82-3.24,3.73.22.32.56,1.02.67,1.3.42-.35.87-.78,1.3-1.25Zm8.29,2.2c-.43.49-.98.92-1.61,1.27-.66-.32-1.28-.7-1.79-1.12l.15-.15h3.25Zm-3.43-5h3.94v.76h-3.94v-.76Zm0,1.61h3.94v.78h-3.94v-.78Zm1.72,21.84l-.73.91c1.46.69,2.98,1.6,3.91,2.24l.84-.98c-.95-.63-2.56-1.5-4.02-2.17Zm-4.36-27l-1.25-.48c-.56.95-1.71,2.12-2.75,2.82.2.27.52.78.67,1.09,1.2-.85,2.52-2.19,3.32-3.43Zm1.47,97.69c-1.09.17-2.18.32-3.19.45v-1.75h2.97v-1.15h-2.97v-1.7h2.98v-1.13h-2.98v-1.26c1.19-.34,2.48-.74,3.47-1.2l-1.02-.98c-.9.48-2.37,1.04-3.67,1.42h-.04s0,7.93,0,7.93l-1.13.15.2,1.23.94-.15v2.14h1.26v-2.34c1.04-.17,2.16-.35,3.25-.53l-.06-1.12Zm6.46-2.12l-.8-.28-.24.04h-5v1.11h1.15l-.69.18c.42,1.09,1,2.06,1.71,2.87-.9.64-1.96,1.09-3.15,1.37.25.27.56.77.67,1.12,1.27-.38,2.42-.9,3.4-1.64.85.69,1.86,1.23,3.04,1.55.18-.34.55-.85.81-1.11-1.12-.25-2.12-.69-2.93-1.27.92-.99,1.61-2.28,2.02-3.95Zm-2.97,3.15c-.64-.66-1.16-1.43-1.51-2.28h2.93c-.34.9-.81,1.65-1.42,2.28Zm3.56-60.89v-1.22h-5.39c.06-.39.11-.78.15-1.16l-1.43-.14c-.01.39-.04.84-.08,1.3h-5.49v1.22h5.37c-.04.45-.11.9-.15,1.27h-4.55v9.03h1.3v-7.83h8.32v6.43c0,.22-.07.29-.32.29-.24.01-1.09.03-1.89-.01.18.31.38.8.46,1.12,1.11,0,1.92,0,2.41-.2.49-.18.67-.5.67-1.2v-7.63h-5.14c.07-.39.14-.83.2-1.27h5.57Zm-7.4-9.92l-1.08-.83c-.9.73-2.58,1.64-3.89,2.16.25.27.57.71.74.98,1.36-.57,3.05-1.48,4.23-2.31Zm.11-7.12h2.25v-.85h-2.25v.85Zm-5.14,6.18h12.58v-1.2h-1.05c.13-2.16.22-5.32.25-7.77h-2.65v1.08h1.5c0,.52-.01,1.06-.01,1.61h-1.42v1.05h1.39c-.01.5-.03,1.01-.04,1.5h-1.44v1.05h1.39c-.01.52-.04,1.04-.07,1.48h-1.67v-7.69h-4.92v7.69h-1.65l-.04-1.51h1.36v-1.05h-1.39l-.06-1.5h1.39v-1.05h-1.42l-.04-1.48c.6-.15,1.23-.34,1.79-.53l-.59-1.11c-.62.29-1.55.63-2.34.87l.21,7.37h-1.07v1.2Zm4.78-7.89h3v6.68h-3v-6.68Zm2.1,28.75v-2.3h2.91v-1.05h-2.91v-1.2h2.65v-1.02h-1.33c.24-.49.48-1.05.71-1.6l-1.18-.27c-.14.53-.43,1.3-.67,1.86h-2.3l.74-.22c-.13-.43-.42-1.11-.73-1.6l-1.02.27c.27.46.55,1.09.66,1.55h-1.29v1.02h2.52v1.2h-2.82v1.05h2.82v2.3h1.23Z"/>
    <path class="cls-5" d="m399.29,203.49c-1.09.17-2.19.32-3.19.45v-1.75h2.97v-1.15h-2.97v-1.7h2.98v-1.13h-2.98v-1.26c1.19-.34,2.48-.74,3.47-1.2l-1.02-.98c-.9.48-2.37,1.04-3.67,1.42h-.04s0,7.93,0,7.93l-1.13.15.2,1.23.94-.15v2.14h1.26v-2.34c1.04-.17,2.16-.35,3.25-.53l-.06-1.12Zm6.46-2.12l-.8-.28-.24.04h-5v1.11h1.15l-.69.18c.42,1.09.99,2.06,1.71,2.87-.9.64-1.96,1.09-3.15,1.37.25.27.56.77.67,1.12,1.27-.38,2.42-.9,3.4-1.64.86.69,1.86,1.23,3.04,1.55.18-.34.55-.85.81-1.11-1.12-.25-2.12-.69-2.93-1.27.92-.99,1.61-2.28,2.02-3.95Zm-2.97,3.15c-.64-.66-1.16-1.43-1.51-2.28h2.93c-.34.9-.81,1.65-1.41,2.28Zm-2.8-95.97h-5.16v2.8h5.16v-.07c.27.27.6.73.76.98.29-.41.57-.83.84-1.32.28,1.3.64,2.48,1.13,3.53-.71,1.15-1.68,2.04-2.98,2.7.27.22.69.74.84,1.01,1.16-.67,2.09-1.5,2.81-2.49.66,1.01,1.49,1.82,2.54,2.4.2-.34.59-.84.88-1.08-1.13-.53-2.02-1.4-2.7-2.49.74-1.43,1.19-3.12,1.5-5.2h.91v-1.19h-3.8c.28-.84.49-1.71.67-2.6l-1.25-.24c-.41,2.21-1.13,4.34-2.16,5.77v-2.51Zm-1.13,1.89h-2.94v-.99h2.94v.99Zm5.52-1.12c-.21,1.47-.52,2.72-.98,3.82-.48-1.13-.83-2.42-1.05-3.82h2.03Zm.49,91h.93c.29,0,.59,0,.76-.07-.04-.28-.07-.71-.08-1.02-.18.06-.49.08-.67.08h-.81c-.18,0-.22-.13-.22-.5v-3.4h-4.1v1.68c0,1.01-.17,2.2-1.53,3.1.24.17.73.6.91.84,1.51-1.02,1.82-2.62,1.82-3.91v-.59h1.71v2.27c0,1.08.21,1.53,1.3,1.53Zm-8.84-72.23v7.94h1.23v-9.74c.52-.85.99-1.75,1.37-2.65l-1.19-.39c-.87,2.07-2.31,4.1-3.79,5.38.24.31.6,1.01.71,1.32.57-.53,1.13-1.16,1.67-1.86Zm10.6,54.43h-12.75v1.43h12.75v-1.43Zm-5.83-28.89v-2.3h2.91v-1.05h-2.91v-1.21h2.65v-1.02h-1.33c.24-.49.48-1.05.71-1.6l-1.18-.27c-.14.53-.43,1.3-.67,1.86h-2.3l.74-.22c-.13-.43-.42-1.11-.73-1.6l-1.02.27c.27.46.55,1.09.66,1.55h-1.29v1.02h2.52v1.21h-2.81v1.05h2.81v2.3h1.23Zm-3.85-38.01v1.16c0,.14-.04.18-.25.2-.2.01-.85.01-1.54-.01.17.31.35.76.41,1.06.92,0,1.58,0,2.02-.17s.56-.48.56-1.06v-1.32c.84-.11,1.7-.21,2.54-.32v-1.04c-.85.08-1.7.2-2.54.29v-.27c.81-.46,1.64-1.06,2.25-1.67l-.71-.56-.22.07h-4.97v.98h3.77c-.41.29-.88.55-1.3.74v.83c-1.2.14-2.28.25-3.15.34l.15,1.09c.85-.1,1.88-.21,3-.35Zm3.85-8.78h-2.54c-.17-.5-.42-1.13-.67-1.65l-1.16.27c.18.42.36.94.52,1.39h-2.84v1.11h6.7v-1.11Zm-1.2,35.57h-5.49v1.22h5.37c-.04.45-.11.9-.15,1.27h-4.55v9.04h1.3v-7.83h8.32v6.43c0,.22-.07.29-.32.29-.24.01-1.09.03-1.89-.01.18.31.38.8.46,1.12,1.11,0,1.92,0,2.41-.2.49-.18.67-.5.67-1.21v-7.63h-5.14c.07-.39.14-.83.2-1.27h5.58v-1.22h-5.39c.06-.39.11-.78.15-1.16l-1.43-.14c-.01.39-.04.84-.08,1.3Zm4.2,22.04c.87-1.04,1.57-2.28,2-3.74l-.83-.35-.22.06h-2.38c.15-.35.29-.71.42-1.08l-1.26-.31c-.49,1.61-1.37,3.12-2.42,4.15v-3.59h-4.62v4.4h1.95v5.46l-.92.21v-4.5h-1.06v4.72c-.24.04-.46.08-.67.13l.22,1.26c1.51-.35,3.54-.84,5.46-1.33l-.13-1.15-1.74.41v-2.21h1.64c.14.18.28.39.37.56.21-.08.41-.18.62-.28v4.58h1.19v-.49h3.12v.45h1.25v-4.55l.28.11c.17-.32.55-.84.8-1.08-1.19-.42-2.2-1.06-3.05-1.83Zm-1.95-2.93h2.34c-.32.74-.74,1.43-1.25,2.04-.5-.59-.9-1.19-1.22-1.79l.12-.25Zm-6.23,1.34v-2.16h2.28v2.16h-2.28Zm3.61,3.54v-.57h-1.64v-1.85h1.51v-.63c.29.22.7.56.9.77.36-.38.74-.83,1.08-1.32.31.53.66,1.08,1.11,1.61-.88.87-1.91,1.54-2.96,1.99Zm5.29,3.82h-3.12v-2.33h3.12v2.33Zm-3.47-3.43c.69-.41,1.34-.91,1.93-1.48.56.55,1.21,1.06,1.93,1.48h-3.87Zm-1.09-43.38v10.07c0,1.68.43,2.14,1.98,2.14h2.51c1.58,0,1.91-.92,2.09-3.54-.34-.08-.87-.34-1.18-.57-.11,2.35-.24,2.94-.99,2.94h-2.31c-.7,0-.84-.15-.84-.94v-5.15h4.93v-1.25h-4.93v-3.7h-1.25Z"/>
    <path class="cls-5" d="m353.77,42.64l-159.98-19.19c-15.33-1.84-30.68-.8-45.62,3.08l-56.26,14.61c-14.63,3.8-24.79,17.01-24.7,32.13l.91,155.19c.11,18.09,14.91,32.81,33,32.81h248.73c18.2,0,33-14.8,33-33V75.41c0-16.69-12.5-30.78-29.07-32.77Zm-189.52,143.73h91.94v68.91h-91.94v-68.91Zm0-6v-85.43h91.94v85.43h-91.94Zm97.94-85.43h114.29c.12,0,.24-.02.36-.04v85.47h-114.65v-85.43Zm114.65-19.53v13.57c-.12-.01-.24-.04-.36-.04h-114.29v-50.07c0-.42-.09-.83-.25-1.19l91.11,10.93c13.56,1.63,23.79,13.15,23.79,26.81ZM193.07,29.41l63.74,7.64c-.38.5-.62,1.13-.62,1.81v50.07h-91.94V29.92c0-.13-.02-.26-.04-.39,4.93-.64,9.89-.95,14.86-.95,4.66,0,9.34.28,14.01.84Zm-99.65,17.54l56.26-14.61c2.84-.74,5.7-1.35,8.57-1.88v58.47h-84.95l-.09-15.69c-.07-12.37,8.24-23.18,20.21-26.29Zm-19.31,181.48l-.78-133.5h84.91v160.34h-57.14c-14.8,0-26.91-12.04-27-26.84Zm275.73,26.84h-87.65v-68.91h114.65v41.91c0,14.89-12.11,27-27,27Z"/>
    <path class="cls-7" d="m300.62,125.52h-5.09v-2.45h4.61v-1.71h-4.61v-2.07h4.82v-1.71h-6.84v9.65h6.87l.25-1.71Zm-9.58-1.18c0-1.27-.85-1.95-1.5-2.2.65-.3,1.23-1,1.23-2.09,0-1.25-.88-2.47-3.21-2.47h-4.21v9.65h4.36c2.05,0,3.35-1.24,3.35-2.89Zm-5.66-5.15h1.99c.8,0,1.34.36,1.34,1.07s-.41,1.12-1.4,1.12h-1.93v-2.19Zm0,6.42v-2.62h1.87c1.15,0,1.65.5,1.65,1.27,0,.87-.51,1.35-1.64,1.35h-1.88Zm8.74,7.5h-2.09v9.65h2.09v-9.65Zm22.55-5.75c3.13,0,4.74-2.31,4.74-5,0-2.95-1.79-4.93-4.61-4.93-3,0-4.75,2.16-4.75,4.96s1.58,4.96,4.61,4.96Zm.04-8.23c1.8,0,2.54,1.43,2.54,3.26,0,1.72-.66,3.27-2.51,3.27-1.71,0-2.54-1.42-2.54-3.31s.76-3.22,2.5-3.22Zm-11.21,4.68v3.41h2.09v-3.44c0-.2.04-.24.08-.31l3.37-5.9h-2.18c-.73,1.4-1.79,3.43-2.21,4.44-.48-1.05-1.45-2.98-2.19-4.44h-2.36l3.32,5.93c.06.1.08.2.08.31Zm6.79,18.94h2.45v-9.65h-1.89v2.86c0,1.58,0,3.26.11,4.27h-.03c-.44-1.05-2.67-4.96-3.88-7.12h-2.58v9.65h1.9v-2.93c0-1.73-.02-3.71-.09-4.55h.03c.48,1.11,2.95,5.6,3.98,7.49Zm31.69-20.48c0-2.85-1.84-4.7-4.65-4.7h-3.83v9.65h3.74c2.95,0,4.73-2.13,4.73-4.94Zm-6.39,3.26v-6.28h1.58c1.89,0,2.66,1.45,2.66,3.02,0,1.88-.82,3.25-2.67,3.25h-1.56Zm-17.68,13.06h4.61v-1.71h-4.61v-2.07h4.82v-1.71h-6.84v9.65h6.87l.25-1.71h-5.09v-2.45Zm11.33-1.74c-1.56-.36-1.97-.63-1.97-1.3s.51-1.03,1.36-1.03c1.24,0,1.57.65,1.67,1.24h2.1c-.14-1.41-1.16-2.79-3.72-2.79-2.29,0-3.54,1.14-3.54,2.82,0,1.3.65,2.26,3.28,2.87,1.65.38,2.12.72,2.12,1.51,0,.71-.48,1.15-1.59,1.15s-1.81-.42-2.03-1.39h-2.1c.23,1.76,1.52,2.96,3.97,2.96s3.88-1.21,3.88-2.97c0-1.36-.62-2.4-3.42-3.06Zm-5.33-17.12c.48,1.11,2.95,5.6,3.98,7.49h2.45v-9.65h-1.89v2.86c0,1.58,0,3.26.11,4.27h-.03c-.44-1.05-2.67-4.96-3.88-7.12h-2.59v9.65h1.9v-2.93c0-1.73-.02-3.71-.09-4.55h.03Zm-40.97,19.16h4.4v-1.71h-4.4v-2.36h4.7v-1.71h-6.73v9.65h2.04v-3.86Zm56.14-2.03c-1.56-.36-1.97-.63-1.97-1.3s.51-1.03,1.36-1.03c1.24,0,1.57.65,1.67,1.24h2.1c-.14-1.41-1.16-2.79-3.72-2.79-2.29,0-3.54,1.14-3.54,2.82,0,1.3.65,2.26,3.28,2.87,1.65.38,2.12.72,2.12,1.51,0,.71-.48,1.15-1.59,1.15s-1.81-.42-2.03-1.39h-2.1c.23,1.76,1.52,2.96,3.97,2.96s3.88-1.21,3.88-2.97c0-1.36-.62-2.4-3.42-3.06Zm-42.36,24.66h0c-.03-.1-.06-.19-.09-.31-.04-.14-.09-.29-.12-.44-.06-.27-.1-.55-.13-.86l-.04-.34c-.04-.36-.07-.7-.06-1.04,0-.09.01-.19.02-.31.01-.14.02-.27.02-.41,0-.35.06-.7.12-1,.06-.31.14-.64.31-.9.05-.08.11-.16.17-.24l.22-.29-.08-.19c-.12-.27-.35-.28-.46-.29l-.18-.02c-.16-.01-.32-.03-.48-.06-.24-.04-.48-.09-.72-.14-.19-.04-.39-.08-.58-.12-.13-.02-.26-.04-.38-.06-.16-.03-.32-.05-.48-.09-.15-.03-.3-.08-.46-.12h-.05c-.16-.06-.31-.1-.47-.14-.51-.11-1.03-.26-1.58-.46-.91-.33-1.81-.75-2.71-1.17l-.07-.03c-.9-.42-1.76-.88-2.48-1.28-.54-.3-1.09-.62-1.61-.94l-.51-.31c-.15-.09-.29-.18-.44-.28l-1.3-.85c-.09-.06-.18-.05-.22-.05h-.31v.68l.64.44c.26.18.52.35.78.52.52.34,1.05.68,1.58,1.02l.46.3c.84.54,1.57,1.06,2.23,1.59.49.4,1.01.84,1.44,1.38.24.3.42.6.54.92.16.41.09.82-.18,1.13-.2.23-.46.38-.78.52-.66.3-1.38.41-2.07.53-.43.07-.85.11-1.24.13-.2.01-.39.02-.59.02h-.03c-.25,0-.5.01-.76.04-.28.03-.58.02-.89.01h-.07c-.11,0-.23,0-.38,0-.21-.07-.41-.07-.61-.06h-.04c-.08,0-.17,0-.25,0l-.57-.05.44.9,1.24.11h.03c.19.06.38.08.56.09v-.12s.05.13.05.13c.09,0,.19.02.28.03.11.02.23.03.34.04.09,0,.19.02.28.04.23.04.46.08.68.13l.38.07s.09.02.13.02h.04c.08.02.16.03.24.05.37.1.79.21,1.21.34.67.2,1.16.42,1.59.7.35.23.57.48.66.71.04.35-.03.64-.22.93-.21.31-.4.55-.6.76-.44.46-.95.86-1.46,1.26-.51.4-1.03.76-1.67,1.18-.61.4-1.21.83-1.79,1.24l-.29.21c-.21.15-.41.3-.62.47l-.22.17-.11.12v.16s0,.19,0,.19l.29.36.22-.15c.09-.06.17-.12.26-.18l.06-.04c.22-.15.42-.29.64-.42.48-.28.96-.54,1.45-.81l.72-.4c.16-.09.31-.18.47-.25l.2-.1c.52-.25,1.11-.53,1.69-.79.6-.26,1.2-.52,1.8-.77l.51-.21c.64-.27,1.29-.46,2.02-.67.44-.13.91-.23,1.33-.32l.44-.1c.1-.02.19-.04.29-.06h.06c.15-.04.29-.06.44-.1.3-.07.62-.12.91-.15l.17-.02c.2-.03.4-.05.6-.06l.91-.09-.5-.6c-.11-.13-.2-.23-.23-.35Zm5.6-28.41h-7.94v1.71h2.93v7.94h2.09v-7.94h2.92v-1.71Zm16.4,24.81c-.11,0-.22.02-.33.03-.21.02-.45.04-.68.04-.66,0-1.16,0-1.62-.04-.17-.01-.34-.02-.51-.03h-.1c-.43-.03-.87-.05-1.33-.12h-.08c-.27-.05-.55-.09-.82-.13-.51-.09-.92-.2-1.28-.34-.53-.21-1.02-.46-1.18-1.05-.05-.36.04-.7.28-1.09.24-.38.5-.7.8-.99.31-.3.65-.6,1.04-.92.33-.27.69-.53,1.05-.78l.38-.27c.45-.33.94-.64,1.38-.91l.05-.03c.29-.19.58-.37.87-.57.25-.17.49-.32.74-.48l.08-.05c.22-.14.43-.28.64-.42.13-.09.25-.2.35-.3.12-.11.12-.27.12-.39l.04-.6-.56.3s-.08.04-.11.06l-.81.51c-.55.35-1.17.74-1.78,1.11-.45.27-.91.52-1.36.77l-.03.02c-.22.12-.43.24-.64.35-.05.03-.09.05-.14.08-.05.03-.11.07-.16.09l-.33.17c-.47.24-.94.47-1.42.7-.55.26-1.1.51-1.63.73-.16.07-.32.13-.48.18-.17.06-.35.12-.52.19-.3.13-.62.23-.91.31-.14.04-.28.09-.42.13-.27.09-.59.18-1,.27-.32.07-.64.13-.97.19l-.15.03c-.06,0-.12.02-.19.02-.12.01-.26.02-.41.07-.15.05-.32.06-.51.07-.1,0-.19.01-.29.02-.38.04-.78.06-1.13.07-.17,0-.35.01-.53.02-.07,0-.16.03-.24.13l-.11.12.02.19.09.36.24.02c.06,0,.11,0,.15,0,.3-.03.6.05.85.13.47.15.73.45.81.95.03.2,0,.4-.1.57-.15.26-.33.43-.57.52-.15.06-.3.11-.46.17l-.45.18-.02.21s-.01.08,0,.15c.01.1.06.17.08.21l.1.17h.19c.39-.04.7,0,.96.14.27.14.45.38.58.76v.07c0,.06,0,.12,0,.19-.01.51-.21.89-.62,1.15-.29.19-.63.29-1.07.31-.13,0-.26.03-.41.05l-.19.03-.28.1.08.7h1.62s.09,0,.09,0c.01,0,.03,0,.03,0,.23.07.45.08.67.08.16,0,.3.01.45.04.14.03.28.04.41.05.1,0,.2.01.3.03.23.04.46.09.7.15h.06c.16.05.31.08.47.11.53.11,1.06.28,1.6.44l.08.03c.43.14.87.31,1.26.47l.05.02c.19.08.38.15.57.23.7.27,1.41.6,2.04.88l.14.06c.45.21.89.42,1.33.64l.87.42c.3.14.62.29.92.46.45.25.9.52,1.34.79l.44.27c.09.05.17.11.26.17l.43.29.47-.64-.72-.52c-.28-.2-.56-.4-.84-.6-.27-.19-.55-.38-.83-.56-.23-.16-.47-.31-.7-.47-.5-.34-.99-.69-1.49-1.04-.74-.53-1.59-1.18-2.27-2.04-.32-.41-.45-.77-.41-1.09.09-.26.25-.47.53-.69.34-.26.72-.43,1.02-.55.73-.29,1.55-.51,2.51-.68.18-.03.35-.07.56-.11.29-.06.59-.12.88-.15.36-.04.73-.09,1.09-.14.18-.03.38-.04.56-.05h.07c.11-.01.22-.02.33-.03.05,0,.09-.02.17-.04l.29-.08-.13-.81-.28.02Z"/>
    <path class="cls-5" d="m174.4,278.94c-.49,0-.89.39-.89.88s.4.88.89.88.89-.39.89-.88-.4-.88-.89-.88Zm3.54,0c-.49,0-.89.39-.89.88s.4.88.89.88.89-.39.89-.88-.4-.88-.89-.88Zm3.54,0c-.49,0-.89.39-.89.88s.4.88.89.88.89-.39.89-.88-.4-.88-.89-.88Zm3.54,0c-.49,0-.89.39-.89.88s.4.88.89.88.89-.39.89-.88-.4-.88-.89-.88Zm-14.18,0c-.49,0-.89.39-.89.88s.4.88.89.88.89-.39.89-.88-.4-.88-.89-.88Zm-7.09,0c-.49,0-.89.39-.89.88s.4.88.89.88.89-.39.89-.88-.4-.88-.89-.88Zm3.54,0c-.49,0-.89.39-.89.88s.4.88.89.88.89-.39.89-.88-.4-.88-.89-.88Zm21.26,0c-.49,0-.89.39-.89.88s.4.88.89.88.89-.39.89-.88-.4-.88-.89-.88Zm17.72,0c-.49,0-.89.39-.89.88s.4.88.89.88.89-.39.89-.88-.4-.88-.89-.88Zm-3.54,0c-.49,0-.89.39-.89.88s.4.88.89.88.89-.39.89-.88-.4-.88-.89-.88Zm7.09,0c-.49,0-.89.39-.89.88s.4.88.89.88.89-.39.89-.88-.4-.88-.89-.88Zm3.54,0c-.49,0-.89.39-.89.88s.4.88.89.88.89-.39.89-.88-.4-.88-.89-.88Zm-14.18,0c-.49,0-.89.39-.89.88s.4.88.89.88.89-.39.89-.88-.4-.88-.89-.88Zm-7.09,0c-.49,0-.89.39-.89.88s.4.88.89.88.89-.39.89-.88-.4-.88-.89-.88Zm-31.89,0c-.49,0-.89.39-.89.88s.4.88.89.88.89-.39.89-.88-.4-.88-.89-.88Zm35.44,0c-.49,0-.89.39-.89.88s.4.88.89.88.89-.39.89-.88-.4-.88-.89-.88Zm-46.07,0c-.49,0-.89.39-.89.88s.4.88.89.88.89-.39.89-.88-.4-.88-.89-.88Zm-31.89,0c-.49,0-.89.39-.89.88s.4.88.89.88.89-.39.89-.88-.4-.88-.89-.88Zm3.54,0c-.49,0-.89.39-.89.88s.4.88.89.88.89-.39.89-.88-.4-.88-.89-.88Zm-7.09,0c-.49,0-.89.39-.89.88s.4.88.89.88.89-.39.89-.88-.4-.88-.89-.88Zm10.63,0c-.49,0-.89.39-.89.88s.4.88.89.88.89-.39.89-.88-.4-.88-.89-.88Zm-14.18,0c-.49,0-.89.39-.89.88s.4.88.89.88.89-.39.89-.88-.4-.88-.89-.88Zm17.72,0c-.49,0-.89.39-.89.88s.4.88.89.88.89-.39.89-.88-.4-.88-.89-.88Zm143.2-85.66c.49,0,.88-.39.88-.88s-.39-.88-.88-.88-.88.39-.88.88.39.88.88.88Zm-164.47,85.66c-.49,0-.89.39-.89.88s.4.88.89.88.89-.39.89-.88-.4-.88-.89-.88Zm109.86,0c-.49,0-.89.39-.89.88s.4.88.89.88.89-.39.89-.88-.4-.88-.89-.88Zm-60.24,0c-.49,0-.89.39-.89.88s.4.88.89.88.89-.39.89-.88-.4-.88-.89-.88Zm-24.81,0c-.49,0-.89.39-.89.88s.4.88.89.88.89-.39.89-.88-.4-.88-.89-.88Zm21.26,0c-.49,0-.89.39-.89.88s.4.88.89.88.89-.39.89-.88-.4-.88-.89-.88Zm-7.09,0c-.49,0-.89.39-.89.88s.4.88.89.88.89-.39.89-.88-.4-.88-.89-.88Zm-10.63,0c-.49,0-.89.39-.89.88s.4.88.89.88.89-.39.89-.88-.4-.88-.89-.88Zm7.09,0c-.49,0-.89.39-.89.88s.4.88.89.88.89-.39.89-.88-.4-.88-.89-.88Zm-3.54,0c-.49,0-.89.39-.89.88s.4.88.89.88.89-.39.89-.88-.4-.88-.89-.88Zm120.21-.48c-.44.11-.72.59-.63,1.07.09.48.58.76,1.09.63.51-.12.78-.65.62-1.1-.16-.46-.63-.69-1.08-.59Zm12.36-48.13c-.49,0-.88.39-.88.88s.39.88.88.88.88-.39.88-.88-.39-.88-.88-.88Zm0-3.53c-.49,0-.88.39-.88.88s.39.88.88.88.88-.39.88-.88-.39-.88-.88-.88Zm0,7.06c-.49,0-.88.39-.88.88s.39.88.88.88.88-.39.88-.88-.39-.88-.88-.88Zm0-10.58c-.49,0-.88.39-.88.88s.39.88.88.88.88-.39.88-.88-.39-.88-.88-.88Zm0,17.64c-.49,0-.88.39-.88.88s.39.88.88.88.88-.39.88-.88-.39-.88-.88-.88Zm0,3.53c-.49,0-.88.39-.88.88s.39.88.88.88.88-.39.88-.88-.39-.88-.88-.88Zm0-24.69c-.49,0-.88.39-.88.88s.39.88.88.88.88-.39.88-.88-.39-.88-.88-.88Zm0,17.64c-.49,0-.88.39-.88.88s.39.88.88.88.88-.39.88-.88-.39-.88-.88-.88Zm0-21.17c-.49,0-.88.39-.88.88s.39.88.88.88.88-.39.88-.88-.39-.88-.88-.88Zm0-14.11c-.49,0-.88.39-.88.88s.39.88.88.88.88-.39.88-.88-.39-.88-.88-.88Zm0-3.53c-.49,0-.88.39-.88.88s.39.88.88.88.88-.39.88-.88-.39-.88-.88-.88Zm0-3.53c-.49,0-.88.39-.88.88s.39.88.88.88.88-.39.88-.88-.39-.88-.88-.88Zm0,52.92c-.49,0-.88.39-.88.88s.39.88.88.88.88-.39.88-.88-.39-.88-.88-.88Zm0-42.33c-.49,0-.88.39-.88.88s.39.88.88.88.88-.39.88-.88-.39-.88-.88-.88Zm0,7.06c-.49,0-.88.39-.88.88s.39.88.88.88.88-.39.88-.88-.39-.88-.88-.88Zm-51.07,66.26c-.49,0-.89.39-.89.88s.4.88.89.88.89-.39.89-.88-.4-.88-.89-.88Zm51.07-69.78c-.49,0-.88.39-.88.88s.39.88.88.88.88-.39.88-.88-.39-.88-.88-.88Zm-36.89,69.78c-.49,0-.89.39-.89.88s.4.88.89.88.89-.39.89-.88-.4-.88-.89-.88Zm3.54,0c-.49,0-.89.39-.89.88s.4.88.89.88.89-.39.89-.88-.4-.88-.89-.88Zm3.54,0c-.49,0-.89.39-.89.88s.4.88.89.88.89-.39.89-.88-.4-.88-.89-.88Zm28.19-13.38c-.49,0-.9.38-.92.83,0,.46.33.87.8.94.49.07.94-.3.95-.83.03-.52-.35-.94-.83-.94Zm-45.91,13.38c-.49,0-.89.39-.89.88s.4.88.89.88.89-.39.89-.88-.4-.88-.89-.88Zm3.54,0c-.49,0-.89.39-.89.88s.4.88.89.88.89-.39.89-.88-.4-.88-.89-.88Zm17.72,0c-.49,0-.89.39-.89.88s.4.88.89.88.89-.39.89-.88-.4-.88-.89-.88Zm-14.18,0c-.49,0-.89.39-.89.88s.4.88.89.88.89-.39.89-.88-.4-.88-.89-.88Zm33.8-3.72c-.34.3-.36.86-.05,1.23s.88.39,1.26.04c.4-.34.36-.95,0-1.27-.37-.34-.88-.3-1.23,0Zm3.3-2.86c-.43-.23-.97-.1-1.21.29-.22.4-.14.91.25,1.2.39.29.98.19,1.24-.27.27-.45.14-1-.29-1.22Zm1.27-3.3c-.48-.12-.94.15-1.07.59-.16.43.08.92.53,1.1s.96-.07,1.14-.56c.16-.5-.14-1.01-.6-1.12Zm-17.11,9.88c-.49,0-.89.39-.89.88s.4.88.89.88.89-.39.89-.88-.4-.88-.89-.88Zm-3.54,0c-.49,0-.89.39-.89.88s.4.88.89.88.89-.39.89-.88-.4-.88-.89-.88Zm13.42-1.74c-.39.24-.57.72-.35,1.17.2.43.77.63,1.22.36.45-.27.59-.82.32-1.23s-.8-.54-1.19-.31Zm-6.35,1.73c-.46.02-.88.4-.87.89,0,.48.38.89.9.87.52-.03.91-.44.87-.92-.04-.48-.45-.86-.9-.83Z"/>
    <path class="cls-5" d="m282.33,277.63h.14l-.67.49c.73.6,1.62,1.46,2.07,2.02l1.04-.81c-.41-.48-1.16-1.15-1.82-1.7h.55v-1.26h4.58v-4.58h-4.58v-1.62h-1.3v1.62h-4.48v4.58h4.48v1.26Zm1.3-4.69h3.28v2.27h-3.28v-2.27Zm-4.52,2.27v-2.27h3.22v2.27h-3.22Zm-2.54,6.32l1.22.55c.56-.94,1.09-2.41,1.46-3.5l-1.15-.45c-.34,1.09-.91,2.48-1.53,3.4Zm68.96,1.05h1.3v-1.01h8.85v.9h1.36v-11.11h-11.52v11.22Zm7.78-9.96h2.38v5.34c-.01-.24-.04-.48-.06-.7-.21.06-.6.08-.83.08h-1.16c-.29,0-.34-.18-.34-.64v-4.08Zm-6.47,0h2.28c-.05,3.15-.25,4.82-2.21,5.8.29.24.64.71.79,1.02,2.31-1.18,2.62-3.24,2.69-6.82h1.71v4.05c0,1.23.25,1.77,1.37,1.77h1.37c.31,0,.66-.01.86-.08v1.97h-8.85v-7.71Zm-24.68,6.21v-5.18h-4.37v-1.02h5.48v-1.2h-5.48v-1.25h-1.36v1.25h-5.35v1.2h5.35v1.02h-4.16v5.18h3.15c-1.21,1.22-3.03,2.31-4.71,2.91.29.27.69.76.9,1.09,1.71-.7,3.52-1.93,4.82-3.35v3.53h1.36v-3.59c1.32,1.44,3.18,2.72,4.9,3.42.21-.34.62-.86.94-1.12-1.72-.57-3.59-1.68-4.82-2.9h3.35Zm-5.73-1h-2.88v-1.13h2.88v1.13Zm0-2.07h-2.88v-1.12h2.88v1.12Zm1.36-1.12h3.05v1.12h-3.05v-1.12Zm0,2.06h3.05v1.13h-3.05v-1.13Zm49.49-1.22c.24.17.73.6.91.84,1.51-1.02,1.82-2.62,1.82-3.91v-.59h1.71v2.27c0,1.08.21,1.53,1.3,1.53h.92c.29,0,.59,0,.76-.07-.04-.28-.07-.71-.08-1.02-.18.06-.49.08-.67.08h-.81c-.18,0-.22-.13-.22-.5v-3.4h-4.11v1.68c0,1.01-.17,2.2-1.53,3.1Zm4.62,5.14c.93-1,1.61-2.28,2.02-3.95l-.8-.28-.24.04h-5v1.11h1.15l-.69.18c.42,1.09.99,2.06,1.71,2.87-.9.64-1.96,1.09-3.15,1.37.25.27.56.77.67,1.12,1.28-.38,2.42-.9,3.4-1.64.85.69,1.86,1.23,3.04,1.55.18-.34.55-.86.81-1.11-1.12-.25-2.12-.69-2.93-1.27Zm-.95-.8c-.64-.66-1.16-1.43-1.51-2.28h2.93c-.34.9-.81,1.65-1.41,2.28Zm-3.49-1.04c-1.09.17-2.19.32-3.19.45v-1.75h2.97v-1.15h-2.97v-1.7h2.98v-1.13h-2.98v-1.26c1.19-.34,2.48-.74,3.47-1.21l-1.02-.98c-.9.48-2.37,1.04-3.67,1.41h-.04s0,7.93,0,7.93l-1.13.15.2,1.23.94-.15v2.14h1.26v-2.34c1.04-.17,2.16-.35,3.25-.53l-.06-1.12Zm-82.85,2.72h-2.39c-.76,0-.88-.07-.88-.5v-2.87h-1.36v2.88c0,1.33.44,1.71,2.1,1.71h2.65c1.4,0,1.79-.49,1.96-2.46-.37-.08-.93-.29-1.23-.5-.07,1.51-.18,1.75-.84,1.75Zm20.9-10.21l-1.08-.6c-.5.62-1.05,1.2-1.65,1.76v-.84h-2.96v-1.44h-1.29v1.44h-3.52v1.12h3.52v1.29h-4.72v1.13h5.38c-1.75,1.09-3.71,1.99-5.67,2.66.25.25.66.79.83,1.06,1.19-.45,2.39-.99,3.56-1.61h4.08c-.64.39-1.42.76-2.1,1.01v.63h-4.9v1.13h4.9v1.57c0,.18-.07.24-.31.24-.24.01-1.15.01-2-.01.2.31.42.83.49,1.16,1.13,0,1.92-.01,2.42-.2.53-.17.69-.5.69-1.16v-1.6h4.96v-1.13h-4.96v-.15c1.21-.5,2.45-1.19,3.39-1.86l-.8-.71-.29.06h-3.74c.55-.35,1.09-.7,1.61-1.08h4.99v-1.13h-3.52c1.01-.84,1.9-1.75,2.7-2.73Zm-4.62,2.73h-1.06v-1.29h2.65c-.5.45-1.02.87-1.58,1.29Zm38.91-2.17l-.83-.35-.22.05h-2.38c.15-.35.29-.71.42-1.08l-1.26-.31c-.49,1.61-1.37,3.12-2.42,4.15v-3.59h-4.62v4.4h1.95v5.46l-.93.21v-4.5h-1.06v4.72c-.24.04-.46.08-.67.13l.22,1.26c1.51-.35,3.54-.84,5.46-1.33l-.13-1.15-1.74.41v-2.21h1.64c.14.18.28.39.36.56.21-.08.41-.18.62-.28v4.58h1.19v-.49h3.12v.45h1.25v-4.55l.28.11c.17-.32.54-.84.8-1.08-1.19-.42-2.2-1.06-3.05-1.83.87-1.04,1.57-2.28,2-3.74Zm-3.95.81h2.34c-.32.74-.74,1.43-1.25,2.04-.51-.59-.9-1.19-1.22-1.79l.12-.25Zm-6.23,1.34v-2.16h2.28v2.16h-2.28Zm3.61,3.54v-.57h-1.64v-1.85h1.51v-.63c.29.22.7.56.9.77.37-.38.74-.83,1.08-1.32.31.53.66,1.08,1.11,1.61-.88.87-1.9,1.54-2.96,1.99Zm5.29,3.82h-3.12v-2.33h3.12v2.33Zm.39-3.43h-3.87c.69-.41,1.35-.91,1.93-1.49.56.55,1.21,1.06,1.93,1.49Zm-52.81.64c.73,1.04,1.62,2.42,2.03,3.26l1.21-.66c-.43-.83-1.4-2.18-2.12-3.17l-1.12.56Z"/>
    <path class="cls-5" d="m218.88,194.4h8.78v1.72h1.39v-2.94h-4.75c-.21-.49-.55-1.15-.81-1.67l-1.43.35c.18.39.41.9.59,1.32h-5.08v2.94h1.32v-1.72Zm87.3,2.54c.24.17.73.6.91.84,1.51-1.02,1.82-2.62,1.82-3.91v-.59h1.71v2.27c0,1.08.21,1.53,1.3,1.53h.92c.29,0,.59,0,.76-.07-.04-.28-.07-.71-.08-1.02-.18.06-.49.08-.67.08h-.81c-.18,0-.22-.13-.22-.5v-3.4h-4.1v1.68c0,1.01-.17,2.2-1.53,3.1Zm6.64,1.19l-.8-.28-.24.04h-5v1.11h1.15l-.69.18c.42,1.09.99,2.06,1.71,2.87-.9.64-1.96,1.09-3.15,1.37.25.27.56.77.67,1.12,1.27-.38,2.42-.9,3.4-1.64.85.69,1.86,1.23,3.04,1.55.18-.34.55-.85.81-1.11-1.12-.25-2.12-.69-2.93-1.27.92-.99,1.61-2.28,2.02-3.95Zm-2.97,3.15c-.64-.66-1.16-1.43-1.51-2.28h2.93c-.34.9-.81,1.65-1.42,2.28Zm43.13.39v-2.46c.76.74,1.62,1.36,2.54,1.75.2-.34.62-.85.91-1.12-1.41-.5-2.79-1.51-3.66-2.66h3.42v-1.16h-3.57v-1.67h2.73v-1.15h-2.73v-1.57h-1.3v1.57h-3v-1.57h-1.3v1.57h-2.61v1.15h2.61v1.67h-3.47v1.16h3.26c-.85,1.26-2.14,2.31-3.56,2.97.28.22.77.73.98.99.76-.43,1.51-.97,2.19-1.6v2.87c0,1.47.59,1.85,2.58,1.85h3.89c1.67,0,2.1-.48,2.3-2.27-.36-.08-.9-.28-1.22-.48-.1,1.33-.25,1.55-1.16,1.55h-3.77c-1.12,0-1.33-.11-1.33-.66v-.74h5.28Zm-1.25-1.08h-4.03v-1.28h4.03v1.28Zm-3.42-6.25h3v1.67h-3v-1.67Zm-.71,3.89c.25-.34.49-.7.71-1.06h3.07c.22.36.46.73.73,1.06h-4.51Zm-120.4-2.25l-1.58-.13c-.06.46-.13.92-.21,1.33h-2.98c.35-.69.67-1.39.92-2.04l-1.49-.28c-.27.73-.63,1.54-1.05,2.33h-3.59v1.23h2.89c-.41.7-.84,1.34-1.22,1.88,1.18.38,2.48.84,3.75,1.36-1.29.83-3.04,1.29-5.35,1.55.28.34.69.97.81,1.3,2.63-.41,4.59-1.06,6.02-2.21,1.65.73,3.14,1.51,4.12,2.18l.98-1.15c-1.02-.64-2.49-1.37-4.08-2.04.64-.78,1.12-1.72,1.48-2.87h2.73v-1.23h-2.39c.08-.38.15-.78.22-1.2Zm-3.43,4.73c-.92-.36-1.88-.7-2.79-1.01.25-.39.5-.83.77-1.29h3.33c-.31.92-.73,1.68-1.32,2.3Zm-17.65-3.87h5.11v-1.34h-5.65c.17-1.39.18-2.73.2-3.87h-1.42c-.01,1.12,0,2.46-.17,3.87h-5.21v1.34h4.97c-.56,2.54-1.92,5.06-5.25,6.51.36.28.79.74,1,1.09,3.18-1.5,4.69-3.92,5.41-6.46,1.09,2.97,2.79,5.24,5.41,6.46.21-.39.64-.94.97-1.22-2.65-1.11-4.41-3.47-5.37-6.39Zm100.24,3.39c-1.09.17-2.18.32-3.19.45v-1.75h2.97v-1.15h-2.97v-1.7h2.98v-1.13h-2.98v-1.26c1.19-.34,2.48-.74,3.47-1.2l-1.02-.98c-.9.48-2.37,1.04-3.67,1.42h-.04s0,7.93,0,7.93l-1.13.15.2,1.23.94-.15v2.14h1.26v-2.34c1.04-.17,2.16-.35,3.25-.53l-.06-1.12Zm12.81-5.81h4.85c-1.99,2.77-2.65,5.18-2.83,8.95h1.65c.17-4.03.55-6.3,2.97-9.33v-.98h-6.64v1.36Zm15.58,2.28c-.56,0-.98.14-1.41.36l.24-2.65h3.82v-1.36h-5.22l-.31,4.89.78.52c.6-.39.99-.59,1.65-.59,1.18,0,1.96.79,1.96,2.16s-.88,2.2-2.04,2.2c-1.08,0-1.82-.52-2.41-1.11l-.77,1.05c.73.71,1.75,1.37,3.38,1.37,1.81,0,3.47-1.29,3.47-3.57s-1.41-3.28-3.14-3.28Zm-87.69-3.4l-.83-.35-.22.06h-2.38c.15-.35.29-.71.42-1.08l-1.26-.31c-.49,1.61-1.37,3.12-2.42,4.15v-3.59h-4.62v4.4h1.95v5.46l-.92.21v-4.5h-1.06v4.72c-.24.04-.46.08-.67.13l.22,1.26c1.51-.35,3.54-.84,5.46-1.33l-.13-1.15-1.74.41v-2.21h1.64c.14.18.28.39.36.56.21-.08.41-.18.62-.28v4.58h1.19v-.49h3.12v.45h1.25v-4.55l.28.11c.17-.32.55-.84.8-1.08-1.19-.42-2.2-1.06-3.05-1.83.87-1.04,1.57-2.28,2-3.74Zm-3.95.81h2.34c-.32.74-.74,1.43-1.25,2.04-.5-.59-.9-1.19-1.22-1.79l.13-.25Zm-6.23,1.34v-2.16h2.28v2.16h-2.28Zm3.61,3.54v-.57h-1.64v-1.85h1.51v-.63c.29.22.7.56.9.77.36-.38.74-.83,1.08-1.32.31.53.66,1.08,1.11,1.61-.88.87-1.91,1.54-2.96,1.99Zm5.29,3.82h-3.12v-2.33h3.12v2.33Zm.39-3.43h-3.87c.69-.41,1.34-.91,1.93-1.48.56.55,1.2,1.06,1.93,1.48Zm36.56-.77h12.75v-1.43h-12.75v1.43Z"/>
    <g>
      <circle class="cls-4" cx="321" cy="228.1" r="9.58" transform="translate(-71.97 202.58) rotate(-31.68)"/>
      <g>
        <path class="cls-3" d="m318.06,231.34c.99-.82,1.78-1.51,2.36-2.06.59-.55,1.08-1.13,1.47-1.72.39-.6.59-1.18.59-1.76,0-.53-.12-.94-.37-1.24s-.63-.45-1.14-.45-.91.17-1.19.52c-.28.35-.42.82-.43,1.41h-2.1c.04-1.24.41-2.17,1.1-2.81s1.58-.96,2.65-.96c1.17,0,2.08.31,2.7.93.63.62.94,1.45.94,2.46,0,.8-.22,1.57-.65,2.3s-.93,1.37-1.48,1.91c-.56.54-1.28,1.19-2.18,1.95h4.56v1.79h-7.63v-1.61l.8-.68Z"/>
        <g>
          <path class="cls-2" d="m318.06,231.34c.99-.82,1.78-1.51,2.36-2.06.59-.55,1.08-1.13,1.47-1.72.39-.6.59-1.18.59-1.76,0-.53-.12-.94-.37-1.24s-.63-.45-1.14-.45-.91.17-1.19.52c-.28.35-.42.82-.43,1.41h-2.1c.04-1.24.41-2.17,1.1-2.81s1.58-.96,2.65-.96c1.17,0,2.08.31,2.7.93.63.62.94,1.45.94,2.46,0,.8-.22,1.57-.65,2.3s-.93,1.37-1.48,1.91c-.56.54-1.28,1.19-2.18,1.95h4.56v1.79h-7.63v-1.61l.8-.68Z"/>
          <path class="cls-2" d="m318.06,231.34c.99-.82,1.78-1.51,2.36-2.06.59-.55,1.08-1.13,1.47-1.72.39-.6.59-1.18.59-1.76,0-.53-.12-.94-.37-1.24s-.63-.45-1.14-.45-.91.17-1.19.52c-.28.35-.42.82-.43,1.41h-2.1c.04-1.24.41-2.17,1.1-2.81s1.58-.96,2.65-.96c1.17,0,2.08.31,2.7.93.63.62.94,1.45.94,2.46,0,.8-.22,1.57-.65,2.3s-.93,1.37-1.48,1.91c-.56.54-1.28,1.19-2.18,1.95h4.56v1.79h-7.63v-1.61l.8-.68Z"/>
          <path class="cls-2" d="m318.06,231.34c.99-.82,1.78-1.51,2.36-2.06.59-.55,1.08-1.13,1.47-1.72.39-.6.59-1.18.59-1.76,0-.53-.12-.94-.37-1.24s-.63-.45-1.14-.45-.91.17-1.19.52c-.28.35-.42.82-.43,1.41h-2.1c.04-1.24.41-2.17,1.1-2.81s1.58-.96,2.65-.96c1.17,0,2.08.31,2.7.93.63.62.94,1.45.94,2.46,0,.8-.22,1.57-.65,2.3s-.93,1.37-1.48,1.91c-.56.54-1.28,1.19-2.18,1.95h4.56v1.79h-7.63v-1.61l.8-.68Z"/>
        </g>
      </g>
    </g>
    <g>
      <circle class="cls-4" cx="90.97" cy="279.7" r="9.58" transform="translate(-133.34 89.46) rotate(-31.68)"/>
      <g>
        <path class="cls-3" d="m88.73,276.11v-1.99h3.72v11.26h-2.23v-9.27h-1.5Z"/>
        <g>
          <path class="cls-2" d="m88.73,276.11v-1.99h3.72v11.26h-2.23v-9.27h-1.5Z"/>
          <path class="cls-2" d="m88.73,276.11v-1.99h3.72v11.26h-2.23v-9.27h-1.5Z"/>
          <path class="cls-2" d="m88.73,276.11v-1.99h3.72v11.26h-2.23v-9.27h-1.5Z"/>
        </g>
      </g>
    </g>
  </g>
</svg>