<?xml version="1.0" encoding="UTF-8"?>
<svg id="uuid-a1a0b5a5-1065-4d26-a811-c19e3a718edc" data-name="圖層 1" xmlns="http://www.w3.org/2000/svg" viewBox="0 0 15.42 28.95">
  <defs>
    <style>
      .uuid-034138c2-2749-40d4-826a-56ccf4eff559 {
        fill: #fff;
        stroke-width: 0px;
      }
    </style>
  </defs>
  <path class="uuid-034138c2-2749-40d4-826a-56ccf4eff559" d="m4.83,15.42H0v-4.77h4.82v-.32c0-1.26-.01-2.52,0-3.78.01-1.09.2-2.16.68-3.15.78-1.62,2.07-2.62,3.79-3.1C10.08.08,10.88,0,11.7,0c1.14,0,2.28,0,3.41,0h.26c.06.2.07,4.41.02,4.79-.07,0-.15.01-.22.01-.73,0-1.45-.01-2.18,0-.48.01-.95.07-1.41.25-.48.19-.81.52-.9,1.03-.04.23-.09.47-.09.7,0,1.19,0,2.38,0,3.57,0,.09,0,.17.02.28h4.82c-.32,1.61-.64,3.18-.95,4.78h-3.81s-.04.04-.05.05c0,0,0,.02-.01.02,0,0,0,.02,0,.03,0,.02,0,.03,0,.05v.03s0,.05,0,.08v13.16s0,.02,0,.03c0,0,0,.02,0,.03,0,0,0,.02,0,.03,0,0,0,.01-.02.04h-5.73v-13.53Z"/>
</svg>