<?xml version="1.0" encoding="UTF-8"?>
<svg id="uuid-fb5e0f02-c90c-496a-b8ad-5ffb30756ace" data-name="圖層 1" xmlns="http://www.w3.org/2000/svg" viewBox="0 0 29.15 29.16">
  <defs>
    <style>
      .uuid-e41bc56e-f910-4b43-a389-ca0b82ce9967 {
        fill: #fff;
        stroke-width: 0px;
      }
    </style>
  </defs>
  <path class="uuid-e41bc56e-f910-4b43-a389-ca0b82ce9967" d="m22.13,5.06c-.83.09-1.5.71-1.52,1.68-.03,1.11.83,1.83,1.79,1.81.88-.02,1.67-.69,1.69-1.68.08-.96-.71-1.94-1.96-1.81m-3.78,12.53c-.87,1.09-2.02,1.71-3.4,1.81-1.37.11-2.61-.31-3.64-1.25-1.02-.94-1.55-2.11-1.58-3.27-.05-2.95,2.14-5.14,4.78-5.15,2.8-.02,4.6,2.15,4.85,4.16.18,1.38-.15,2.62-1.02,3.71m-3.69-10.51c-4.19-.05-7.58,3.35-7.57,7.48-.02,4.16,3.39,7.45,7.38,7.5,4.26.05,7.55-3.37,7.59-7.41.04-4.17-3.32-7.52-7.41-7.57m11.85,13.56c0,.3-.04.61-.08.91-.18,1.34-.8,2.44-1.76,3.37-.52.5-1.12.88-1.79,1.15-.33.14-.68.22-1.02.31-.39.1-.79.12-1.19.12-2.69,0-5.38,0-8.07,0-1.35,0-2.71,0-4.06.01-.48,0-.95-.07-1.43-.16-.16-.03-.33-.06-.49-.1-.05-.01-.1-.05-.15-.07-.31-.14-.63-.27-.92-.44-.44-.25-.82-.59-1.18-.95-.3-.31-.56-.65-.81-1-.28-.4-.45-.84-.61-1.29-.23-.65-.3-1.32-.3-2.01,0-4.01,0-8.02,0-12.02,0-1.04.24-2.02.77-2.91.95-1.61,2.36-2.58,4.22-2.88.28-.04.57-.06.85-.06,2.03,0,4.05,0,6.08,0h0c2.01,0,4.02,0,6.03,0,1.41,0,2.67.42,3.76,1.32,1.17.96,1.87,2.19,2.09,3.69.04.29.06.59.06.89,0,4.04,0,8.07,0,12.11m2.65-11.94c0-.26,0-.52-.02-.78-.16-2.21-1.04-4.08-2.64-5.62-.76-.73-1.65-1.29-2.63-1.69C22.84.2,21.77,0,20.67,0,17,0,13.34,0,9.68,0c-.56,0-1.11,0-1.67.01-1.2.05-2.33.37-3.4.91-.83.42-1.57.97-2.22,1.64-.65.66-1.17,1.41-1.56,2.24-.14.3-.27.61-.38.93-.23.64-.35,1.3-.43,1.97-.03.25-.02.51-.02.77C0,12.41,0,16.35,0,20.28c0,.31,0,.62.02.93.03.79.19,1.56.47,2.31.11.29.23.57.36.85.06.13.15.26.23.38.14.23.27.48.43.7.19.26.37.52.6.75.05.05.08.13.14.18.1.1.2.19.3.28.21.19.41.38.62.56.12.1.24.21.37.3.18.13.38.26.57.38.13.08.28.15.41.23.13.08.27.14.42.16.05,0,.09.05.14.08.02.02.04.05.06.06.2.09.4.18.61.25.26.09.53.16.81.23.27.06.54.12.82.15.33.04.66.05.99.07.29.01.59.02.88.02,2.01,0,4.01.02,6.02.01,2,0,4,.06,6-.03.31-.01.62-.03.92-.09.35-.06.69-.16,1.04-.26.52-.15,1.01-.38,1.49-.62.45-.24.88-.51,1.27-.84.33-.28.65-.57.94-.89.77-.82,1.34-1.76,1.71-2.82.1-.28.19-.57.27-.86.07-.27.12-.54.16-.81.04-.37.09-.74.09-1.11,0-2.07,0-4.15,0-6.22h0c0-1.96,0-3.91,0-5.87"/>
</svg>