<?xml version="1.0" encoding="UTF-8"?>
<svg id="uuid-2b51ee34-b70d-476a-9971-faa0f4025df7" data-name="圖層 1" xmlns="http://www.w3.org/2000/svg" viewBox="0 0 31.46 30.68">
  <defs>
    <style>
      .uuid-59320341-fe64-4ac6-936c-eddcb2481168 {
        fill: #fff;
        stroke-width: 0px;
      }
    </style>
  </defs>
  <path class="uuid-59320341-fe64-4ac6-936c-eddcb2481168" d="m12.65,13.05c0-.91,0-1.82,0-2.73,0-.39-.22-.74-.5-.82-.4-.11-.67-.04-.82.22-.11.19-.16.44-.17.66-.01,1.76,0,3.52,0,5.29,0,.15.02.31.05.45.08.35.48.57.84.45.43-.14.6-.37.61-.85,0-.89,0-1.78,0-2.67m-4.82,2.11v-2.36c0-.83,0-1.66,0-2.49,0-.45-.28-.87-.81-.83-.43.04-.67.29-.67.82,0,.62,0,1.25,0,1.88,0,1.23,0,2.46,0,3.69,0,.4.34.77.6.77.96,0,1.93,0,2.89,0,.28,0,.6-.24.67-.51.07-.28.05-.57-.21-.73-.21-.13-.47-.22-.71-.23-.57-.03-1.14-.01-1.74-.01m14.03-4.36c.9,0,1.77,0,2.64,0,.15,0,.32,0,.44-.07.4-.21.49-.45.42-.87-.06-.3-.36-.54-.76-.54-1.15-.01-2.3-.02-3.45,0-.54,0-.77.33-.77.63-.01,1.97,0,3.94,0,5.91,0,.31.32.65.63.65,1.25,0,2.5.01,3.75,0,.41,0,.69-.3.72-.65.07-.62-.4-.83-.83-.83-.84,0-1.68,0-2.52,0-.09,0-.18-.01-.26-.02v-1.35c.76,0,1.49,0,2.23,0,.4,0,.72-.31.76-.7.04-.35-.23-.68-.62-.76-.16-.03-.33-.03-.49-.03-.63,0-1.26,0-1.9,0v-1.37Zm-3.97,2.75c-.06-.01-.08-.01-.09-.02-.86-1.19-1.73-2.39-2.59-3.58-.2-.27-.56-.42-.85-.31-.3.11-.51.32-.5.73,0,.45,0,.9,0,1.35,0,1.4,0,2.79,0,4.18,0,.33.3.7.59.73.35.05.72-.17.81-.52.06-.24.08-.5.08-.75,0-.88,0-1.75,0-2.64.05.01.07.01.08.02.86,1.19,1.7,2.38,2.57,3.55.12.16.37.29.58.32.46.06.8-.35.8-.91,0-1.78,0-3.57,0-5.35,0-.12-.02-.24-.05-.36-.1-.35-.48-.61-.81-.56-.34.04-.6.31-.61.71-.02.94-.01,1.89-.01,2.83v.58M0,14.16v-2.03c.02-.14.03-.29.06-.43.22-.84.41-1.7.69-2.52.51-1.48,1.35-2.79,2.42-3.93.66-.7,1.38-1.35,2.13-1.95.99-.8,2.11-1.39,3.28-1.88,1.07-.45,2.17-.84,3.31-1.02,1-.16,2-.3,3.01-.38.65-.05,1.3,0,1.95.05.9.08,1.81.14,2.69.32,1.37.27,2.7.71,3.96,1.31,1.95.94,3.66,2.18,5.07,3.83.93,1.08,1.68,2.26,2.16,3.6.27.74.5,1.51.62,2.29.11.73.08,1.49.07,2.23,0,.52-.03,1.06-.13,1.57-.27,1.35-.7,2.64-1.39,3.85-.55.97-1.21,1.85-1.96,2.66-.53.58-1.11,1.12-1.7,1.64-.74.65-1.48,1.31-2.27,1.89-1.47,1.09-2.96,2.14-4.46,3.17-1.08.74-2.18,1.48-3.4,2-.48.2-.99.32-1.49.2-.73-.18-1.03-.82-1.11-1.55-.07-.69.09-1.36.25-2.02.1-.4,0-.57-.4-.65-.7-.14-1.4-.28-2.1-.43-1.22-.28-2.4-.67-3.52-1.23-.94-.48-1.83-1.03-2.68-1.68-1.11-.85-2.05-1.84-2.85-2.96-.59-.81-1.07-1.7-1.43-2.65-.33-.87-.61-1.76-.7-2.7-.02-.2-.08-.4-.12-.6"/>
</svg>