<?xml version="1.0" encoding="UTF-8"?>
<svg id="uuid-b0e2859b-e70b-45de-8565-baa85b9515f8" data-name="圖層 1" xmlns="http://www.w3.org/2000/svg" viewBox="0 0 32.11 22.88">
  <defs>
    <style>
      .uuid-39163698-d2b7-4951-8e36-61fae82ceac1 {
        fill: #fff;
        stroke-width: 0px;
      }
    </style>
  </defs>
  <path class="uuid-39163698-d2b7-4951-8e36-61fae82ceac1" d="m32.08,10.54c-.02-.73-.04-1.45-.08-2.17-.02-.59-.04-1.19-.11-1.78-.11-.92-.21-1.85-.39-2.76-.3-1.48-1.17-2.5-2.56-3.05-.7-.27-1.45-.33-2.18-.4-1.16-.1-2.32-.17-3.47-.24-.68-.04-1.36-.05-2.04-.07-.64-.02-1.28-.03-1.92-.05-.58-.01-1.16-.02-1.74-.02-1.12,0-2.23,0-3.35.02-.69.01-1.39.03-2.08.04-.52,0-1.05.02-1.58.04-.67.02-1.34.05-2.01.08-.52.02-1.04.03-1.56.07-1,.1-2.01.17-3.01.33-1.56.24-2.65,1.14-3.21,2.65-.36,1-.43,2.07-.55,3.11-.05.45-.07.89-.09,1.34-.05.89-.12,1.79-.14,2.68-.02.9.02,1.8.03,2.7.01.32.02.64.04.96.06.93.1,1.86.2,2.78.09.82.19,1.64.39,2.43.4,1.58,1.41,2.61,2.98,3,1.24.3,2.51.34,3.77.43.99.05,1.99.11,2.98.16.47.02.93.03,1.39.04.89.01,1.78.02,2.66.02,1.17,0,2.33,0,3.49-.02.89-.01,1.77-.02,2.65-.04.44,0,.87-.02,1.31-.04,1.44-.07,2.88-.14,4.31-.24.72-.05,1.43-.13,2.13-.28,1.53-.33,2.57-1.27,3.05-2.79.31-.97.41-1.98.49-2.99.09-1.03.14-2.06.2-3.09.02-.47.03-.95.03-1.42s-.01-.96-.03-1.43Zm-19.22,5.79V6.55c2.77,1.64,5.52,3.26,8.3,4.89-2.77,1.63-5.52,3.25-8.3,4.89Z"/>
</svg>