<?xml version="1.0" encoding="UTF-8"?>
<svg xmlns="http://www.w3.org/2000/svg" viewBox="0 0 440.94 310">
  <defs>
    <style>
      .cls-1 {
        fill: none;
      }

      .cls-1, .cls-2, .cls-3, .cls-4, .cls-5, .cls-6, .cls-7, .cls-8 {
        stroke-width: 0px;
      }

      .cls-2 {
        opacity: .2;
      }

      .cls-2, .cls-6 {
        fill: #e4d2b1;
      }

      .cls-3 {
        fill: #262626;
      }

      .cls-4 {
        fill: #fff;
      }

      .cls-5 {
        fill: #e9dbc1;
      }

      .cls-7 {
        fill: #e66751;
      }

      .cls-8 {
        fill: #e76751;
      }
    </style>
  </defs>
  <g id="board">
    <rect class="cls-1" x=".47" y="0" width="440" height="310"/>
  </g>
  <g id="map">
    <g>
      <path class="cls-7" d="m238.39,34.51c.44,0,.88-.07,1.3-.1.4-.03.77-.2,1.03-.51,1.58-1.87,3.18-3.71,4.69-5.63.29-.37.73-.58,1.2-.55,1.18.06,2.46.18,3.63-.19.21-.07.41-.2.57-.35.64-.63,1.19-1.34,1.77-2.03.19-.22.38-.45.59-.7h-.22c-3.71,0-7.42,0-11.12,0-.73,0-1.47.06-2.15.34-.2.08-.37.22-.51.38-1.56,1.79-3.07,3.62-4.59,5.44-.24.29-.59.48-.97.52-1.34.15-2.77-.17-4.09.4-.19.08-.35.21-.49.36-.73.82-1.43,1.67-2.14,2.52-.02.03-.04.06-.06.1h.19c3.79,0,7.58,0,11.37,0Z"/>
      <path class="cls-7" d="m246.31,41.78c.44,0,.88-.07,1.3-.1.4-.03.77-.2,1.03-.51,1.58-1.87,3.18-3.71,4.69-5.63.29-.37.73-.58,1.2-.55,1.18.06,2.46.18,3.63-.19.21-.07.41-.2.57-.35.64-.63,1.19-1.34,1.77-2.03.19-.22.38-.45.59-.7h-.22c-3.71,0-7.42,0-11.12,0-.73,0-1.47.06-2.15.34-.2.08-.37.22-.51.38-1.56,1.79-3.07,3.62-4.59,5.44-.24.29-.59.48-.97.52-1.34.15-2.77-.17-4.09.4-.19.08-.35.21-.49.36-.73.82-1.43,1.67-2.14,2.52-.02.03-.04.06-.06.1h.19c3.79,0,7.58,0,11.37,0Z"/>
    </g>
    <path class="cls-2" d="m204.17,258.8l-6.54-6.54-6.54-6.54-6.54-6.54-6.54-6.54-.54-.54-1.38,1.12.68.68,6.54,6.54,6.54,6.54,6.54,6.54,6.54,6.54,6.54,6.54,3.75,3.75,2.07-.43-4.57-4.57-6.54-6.54Zm26.42-.25l-6.54-6.54-6.54-6.54-6.54-6.54-6.54-6.54-6.54-6.54-5.69-5.69-1.38,1.12,5.82,5.82,6.54,6.54,6.54,6.54,6.54,6.54,6.54,6.54,6.54,6.54,5.92,5.92,2.07-.43-.19-.19-6.54-6.54Zm3.16-3.16l-6.54-6.54-6.54-6.54-6.54-6.54-6.54-6.54-6.54-6.54-5.36-5.36-1.38,1.12,5.49,5.49,6.54,6.54,6.54,6.54,6.54,6.54,6.54,6.54,6.54,6.54,6.54,6.54,1.45,1.45c.7-.14,1.39-.28,2.09-.41l-2.29-2.29-6.54-6.54Zm3.51-3.51l-6.54-6.54-6.54-6.54-6.54-6.54-6.54-6.54-6.54-6.54-5-5-1.38,1.12,5.13,5.13,6.54,6.54,6.54,6.54,6.54,6.54,6.54,6.54,6.54,6.54,6.54,6.54,3.87,3.87c.72-.12,1.45-.22,2.17-.33l-4.8-4.8-6.54-6.54Zm-16.72,3.63l-6.54-6.54-6.54-6.54-6.54-6.54-6.54-6.54-6.06-6.06-1.38,1.12,6.19,6.19,6.54,6.54,6.54,6.54,6.54,6.54,6.54,6.54,6.54,6.54,3.63,3.63,2.07-.43-4.45-4.45-6.54-6.54Zm-6.67,6.67l-6.54-6.54-6.54-6.54-6.54-6.54-6.54-6.54-6.54-6.54-.21-.21-1.38,1.12.35.35,6.54,6.54,6.54,6.54,6.54,6.54,6.54,6.54,6.54,6.54,5.82,5.82,2.07-.43-.09-.09-6.54-6.54Zm3.51-3.51l-6.54-6.54-6.54-6.54-6.54-6.54-6.54-6.54-6.39-6.39-1.38,1.12,6.52,6.52,6.54,6.54,6.54,6.54,6.54,6.54,6.54,6.54,6.54,6.54,1.56,1.56,2.07-.43-2.38-2.38-6.54-6.54Zm46.3-7.04l-6.54-6.54-6.54-6.54-6.54-6.54-6.54-6.54-6.54-6.54-6.54-6.54-6.54-6.54-3.6-3.6-1.38,1.12,3.73,3.73,6.54,6.54,6.54,6.54,6.54,6.54,6.54,6.54,6.54,6.54,6.54,6.54,6.54,6.54,6.54,6.54,2.3,2.3h2.5l-3.55-3.55-6.54-6.54Zm9.7,3.38l-6.54-6.54-6.54-6.54-6.54-6.54-6.54-6.54-6.54-6.54-6.54-6.54-6.54-6.54-6.54-6.54-3.27-3.27-1.38,1.12,3.4,3.4,6.54,6.54,6.54,6.54,6.54,6.54,6.54,6.54,6.54,6.54,6.54,6.54,6.54,6.54,6.54,6.54,5.46,5.46h2.5l-.17-.17-6.54-6.54Zm3.51-3.51l-6.54-6.54-6.54-6.54-6.54-6.54-6.54-6.54-6.54-6.54-6.54-6.54-6.54-6.54-6.54-6.54-2.91-2.91-1.38,1.12,3.04,3.04,6.54,6.54,6.54,6.54,6.54,6.54,6.54,6.54,6.54,6.54,6.54,6.54,6.54,6.54,6.54,6.54,6.54,6.54,2.42,2.42h2.5l-3.67-3.67-6.54-6.54Zm9.7,3.38l-6.54-6.54-6.54-6.54-6.54-6.54-6.54-6.54-6.54-6.54-6.54-6.54-6.54-6.54-6.54-6.54-6.54-6.54-2.57-2.57-1.38,1.12,2.71,2.71,6.54,6.54,6.54,6.54,6.54,6.54,6.54,6.54,6.54,6.54,6.54,6.54,6.54,6.54,6.54,6.54,6.54,6.54,5.58,5.58h2.5l-.29-.29-6.54-6.54Zm-39.63.38l-6.54-6.54-6.54-6.54-6.54-6.54-6.54-6.54-6.54-6.54-6.54-6.54-4.67-4.67-1.38,1.12,4.8,4.8,6.54,6.54,6.54,6.54,6.54,6.54,6.54,6.54,6.54,6.54,6.54,6.54,6.26,6.26c.75-.09,1.49-.18,2.24-.26l-.71-.71-6.54-6.54Zm-46.3,7.04l-6.54-6.54-6.54-6.54-6.54-6.54-6.54-6.54-.91-.91-1.38,1.12,1.04,1.04,6.54,6.54,6.54,6.54,6.54,6.54,6.54,6.54,6.54,6.54,1.46,1.46,2.07-.43-2.28-2.28-6.54-6.54Zm49.81-10.55l-6.54-6.54-6.54-6.54-6.54-6.54-6.54-6.54-6.54-6.54-6.54-6.54-4.3-4.3-1.38,1.12,4.43,4.43,6.54,6.54,6.54,6.54,6.54,6.54,6.54,6.54,6.54,6.54,6.54,6.54,6.54,6.54,2.59,2.59c.78-.06,1.57-.11,2.35-.15l-3.69-3.69-6.54-6.54Zm9.7,3.38l-6.54-6.54-6.54-6.54-6.54-6.54-6.54-6.54-6.54-6.54-6.54-6.54-6.54-6.54-3.97-3.97-1.38,1.12,4.1,4.1,6.54,6.54,6.54,6.54,6.54,6.54,6.54,6.54,6.54,6.54,6.54,6.54,6.54,6.54,5.43,5.43c.81-.03,1.63-.05,2.44-.06l-.07-.07-6.54-6.54Zm-122.18,17.5l-4.73-4.73-1.38,1.12,4.86,4.86,6.54,6.54,1.06,1.06h2.5l-2.31-2.31-6.54-6.54Zm-8.6-1.59l-1.38,1.12,5.22,5.22,4.1,4.1h2.5l-5.35-5.35-5.09-5.09Zm160.71-19.67l-6.54-6.54-6.54-6.54-6.54-6.54-6.54-6.54-6.54-6.54-6.54-6.54-6.54-6.54-6.54-6.54-6.54-6.54-2.21-2.21-1.38,1.12,2.34,2.34,6.54,6.54,6.54,6.54,6.54,6.54,6.54,6.54,6.54,6.54,6.54,6.54,6.54,6.54,6.54,6.54,6.54,6.54,6.54,6.54,2.55,2.55h2.5l-3.8-3.8-6.54-6.54Zm-138.9,21.13l-6.54-6.54-4.03-4.03-1.38,1.12,4.16,4.16,6.54,6.54,6.54,6.54,1.15,1.15c.78-.03,1.56-.08,2.34-.16l-2.23-2.23-6.54-6.54Zm3.16-3.16l-6.54-6.54-3.7-3.7-1.38,1.12,3.83,3.83,6.54,6.54,6.54,6.54,3.65,3.65c.25-.05.51-.09.76-.14l1.32-.28-4.48-4.48-6.54-6.54Zm43.14-3.88l-6.54-6.54-6.54-6.54-6.54-6.54-6.54-6.54-1.24-1.24-1.38,1.12,1.37,1.37,6.54,6.54,6.54,6.54,6.54,6.54,6.54,6.54,5.94,5.94,2.07-.43-.21-.21-6.54-6.54Zm-80.35,15.5l.52.52h2.5l-1.64-1.64-1.38,1.12Zm3.49-2.83l3.35,3.35h2.5l-4.47-4.47-1.38,1.12Zm5.26-4.26l-1.38,1.12,5.56,5.56.94.94h2.5l-2.19-2.19-5.42-5.42Zm58.39-8.29l-6.54-6.54-6.54-6.54-6.54-6.54-1.94-1.94-1.38,1.12,2.07,2.07,6.54,6.54,6.54,6.54,6.54,6.54,6.54,6.54,1.58,1.58,2.07-.43-2.4-2.4-6.54-6.54Zm-3.51,3.51l-6.54-6.54-6.54-6.54-6.54-6.54-2.31-2.31-1.38,1.12,2.44,2.44,6.54,6.54,6.54,6.54,6.54,6.54,5.83,5.83,2.07-.43-.11-.11-6.54-6.54Zm6.67-6.67l-6.54-6.54-6.54-6.54-6.54-6.54-1.61-1.61-1.38,1.12,1.74,1.74,6.54,6.54,6.54,6.54,6.54,6.54,6.54,6.54,3.65,3.65,2.07-.43-4.46-4.46-6.54-6.54Zm-19.88,6.79l-6.54-6.54-6.54-6.54-3-3-1.38,1.12,3.13,3.13,6.54,6.54,6.54,6.54,6.54,6.54,1.48,1.48,2.07-.43-2.3-2.3-6.54-6.54Zm3.51-3.51l-6.54-6.54-6.54-6.54-2.64-2.64-1.38,1.12,2.77,2.77,6.54,6.54,6.54,6.54,6.54,6.54,3.77,3.77,2.07-.43-4.59-4.59-6.54-6.54Zm-6.67,6.67l-6.54-6.54-6.54-6.54-3.33-3.33-1.38,1.12,3.46,3.46,6.54,6.54,6.54,6.54,5.96,5.96,2.07-.43-.23-.23-6.54-6.54Zm-23.26-2.91l-4.4-4.4-1.38,1.12,4.53,4.53,6.54,6.54,4.22,4.22h2.5l-5.48-5.48-6.54-6.54Zm215.75-97.98l-6.54-6.54-6.54-6.54-6.54-6.54-6.54-6.54-6.54-6.54-6.54-6.54-6.54-6.54-2.85-2.85h-2.5l4.1,4.1,6.54,6.54,6.54,6.54,6.54,6.54,6.54,6.54,6.54,6.54,6.54,6.54,6.54,6.54,6.54,6.54,2.34,2.34.6-1.9-1.7-1.7-6.54-6.54Zm-3.51,3.51l-6.54-6.54-6.54-6.54-6.54-6.54-6.54-6.54-6.54-6.54-6.54-6.54-6.54-6.54-6.35-6.35h-2.5l1.06,1.06,6.54,6.54,6.54,6.54,6.54,6.54,6.54,6.54,6.54,6.54,6.54,6.54,6.54,6.54,6.54,6.54,6.54,6.54,4.16,4.16.6-1.9-3.51-3.51-6.54-6.54Zm3.63-16.72l-6.54-6.54-6.54-6.54-6.54-6.54-6.54-6.54-6.54-6.54-2.72-2.72h-2.5l3.97,3.97,6.54,6.54,6.54,6.54,6.54,6.54,6.54,6.54,6.54,6.54,6.54,6.54,5.43,5.43c.2-.64.39-1.28.57-1.93l-4.75-4.75-6.54-6.54Zm3.04,10.05l-6.54-6.54-6.54-6.54-6.54-6.54-6.54-6.54-6.54-6.54-6.54-6.54-6.23-6.23h-2.5l.94.94,6.54,6.54,6.54,6.54,6.54,6.54,6.54,6.54,6.54,6.54,6.54,6.54,6.54,6.54,6.54,6.54.71.71.6-1.9-.06-.06-6.54-6.54Zm-9.95,23.04l-6.54-6.54-6.54-6.54-6.54-6.54-6.54-6.54-6.54-6.54-6.54-6.54-6.54-6.54-6.54-6.54-6.54-6.54-6.54-6.54-3.1-3.1h-2.5l4.35,4.35,6.54,6.54,6.54,6.54,6.54,6.54,6.54,6.54,6.54,6.54,6.54,6.54,6.54,6.54,6.54,6.54,6.54,6.54,6.54,6.54,6.54,6.54,2.7,2.7.6-1.9-2.06-2.06-6.54-6.54Zm.13-13.21l-6.54-6.54-6.54-6.54-6.54-6.54-6.54-6.54-6.54-6.54-6.54-6.54-6.54-6.54-6.54-6.54-2.97-2.97h-2.5l4.22,4.22,6.54,6.54,6.54,6.54,6.54,6.54,6.54,6.54,6.54,6.54,6.54,6.54,6.54,6.54,6.54,6.54,6.54,6.54,5.8,5.8.6-1.9-5.15-5.15-6.54-6.54Zm3.04,10.05l-6.54-6.54-6.54-6.54-6.54-6.54-6.54-6.54-6.54-6.54-6.54-6.54-6.54-6.54-6.54-6.54-6.54-6.54-6.48-6.48h-2.5l1.19,1.19,6.54,6.54,6.54,6.54,6.54,6.54,6.54,6.54,6.54,6.54,6.54,6.54,6.54,6.54,6.54,6.54,6.54,6.54,6.54,6.54,6.54,6.54,1.07,1.07.6-1.9-.42-.42-6.54-6.54Zm6.92-33.09l-6.54-6.54-6.54-6.54-6.54-6.54-6.54-6.54-6.1-6.1h-2.5l.81.81,6.54,6.54,6.54,6.54,6.54,6.54,6.54,6.54,6.54,6.54,6.54,6.54,3.64,3.64c.16-.68.31-1.36.46-2.04l-2.84-2.84-6.54-6.54Zm.25-26.42l-5.85-5.85h-2.5l.56.56,6.54,6.54,6.54,6.54,5.53,5.53v-2.5l-4.28-4.28-6.54-6.54Zm3.51-3.51l-2.34-2.34h-2.5l3.6,3.6,6.54,6.54,2.03,2.03v-2.5l-.78-.78-6.54-6.54Zm3.98-2.34h-2.5l.44.44,5.41,5.41v-2.5l-3.34-3.34Zm-7.61,19.06l-6.54-6.54-6.54-6.54-5.98-5.98h-2.5l.69.69,6.54,6.54,6.54,6.54,6.54,6.54,6.54,6.54,5.37,5.37c.07-.78.12-1.56.16-2.34l-4.28-4.28-6.54-6.54Zm3.38,9.7l-6.54-6.54-6.54-6.54-6.54-6.54-6.54-6.54-2.6-2.6h-2.5l3.85,3.85,6.54,6.54,6.54,6.54,6.54,6.54,6.54,6.54,6.54,6.54,1.3,1.3c.12-.73.22-1.46.31-2.19l-.37-.37-6.54-6.54Zm.13-13.21l-6.54-6.54-6.54-6.54-2.47-2.47h-2.5l3.72,3.72,6.54,6.54,6.54,6.54,6.54,6.54,2.15,2.15v-2.5l-.9-.9-6.54-6.54Zm-17.22,56.47l-6.54-6.54-6.54-6.54-6.54-6.54-6.54-6.54-6.54-6.54-6.54-6.54-6.54-6.54-6.54-6.54-6.54-6.54-6.54-6.54-6.54-6.54-.06-.06h-2.5l1.31,1.31,6.54,6.54,6.54,6.54,6.54,6.54,6.54,6.54,6.54,6.54,6.54,6.54,6.54,6.54,6.54,6.54,6.54,6.54,6.54,6.54,6.54,6.54,6.54,6.54,4.52,4.52.6-1.9-3.87-3.87-6.54-6.54Zm-10.08,36.25l-6.54-6.54-6.54-6.54-6.54-6.54-6.54-6.54-6.54-6.54-6.54-6.54-6.54-6.54-6.54-6.54-6.54-6.54-6.54-6.54-6.54-6.54-4.59-4.59c-.17.65-.36,1.3-.56,1.94l3.9,3.9,6.54,6.54,6.54,6.54,6.54,6.54,6.54,6.54,6.54,6.54,6.54,6.54,6.54,6.54,6.54,6.54,6.54,6.54,6.54,6.54,6.54,6.54,6.54,6.54,3.4,3.4c.1-.28.21-.56.31-.85l.33-1.02-2.78-2.78-6.54-6.54Zm-16.84,16.84l-6.54-6.54-6.54-6.54-6.54-6.54-6.54-6.54-6.54-6.54-6.54-6.54-6.54-6.54-6.54-6.54-6.54-6.54-6.54-6.54-6.54-6.54-.53-.53c-.44.39-.89.78-1.35,1.16l.62.62,6.54,6.54,6.54,6.54,6.54,6.54,6.54,6.54,6.54,6.54,6.54,6.54,6.54,6.54,6.54,6.54,6.54,6.54,6.54,6.54,6.54,6.54,6.54,6.54,3.82,3.82c.59-.24,1.16-.5,1.73-.78l-4.3-4.3-6.54-6.54Zm3.51-3.51l-6.54-6.54-6.54-6.54-6.54-6.54-6.54-6.54-6.54-6.54-6.54-6.54-6.54-6.54-6.54-6.54-6.54-6.54-6.54-6.54-6.54-6.54-.53-.53c-.39.44-.8.87-1.21,1.29l.49.49,6.54,6.54,6.54,6.54,6.54,6.54,6.54,6.54,6.54,6.54,6.54,6.54,6.54,6.54,6.54,6.54,6.54,6.54,6.54,6.54,6.54,6.54,6.54,6.54,4.95,4.95c.51-.32,1.01-.65,1.5-1.01l-5.19-5.19-6.54-6.54Zm20.25-46.42l-6.54-6.54-6.54-6.54-6.54-6.54-6.54-6.54-6.54-6.54-6.54-6.54-6.54-6.54-6.54-6.54-6.54-6.54-6.54-6.54-6.54-6.54-3.22-3.22h-2.5l4.47,4.47,6.54,6.54,6.54,6.54,6.54,6.54,6.54,6.54,6.54,6.54,6.54,6.54,6.54,6.54,6.54,6.54,6.54,6.54,6.54,6.54,6.54,6.54,6.54,6.54,6.16,6.16.6-1.9-5.51-5.51-6.54-6.54Zm-13.59,39.76l-6.54-6.54-6.54-6.54-6.54-6.54-6.54-6.54-6.54-6.54-6.54-6.54-6.54-6.54-6.54-6.54-6.54-6.54-6.54-6.54-6.54-6.54-1.7-1.7c-.29.54-.6,1.06-.92,1.58l1.37,1.37,6.54,6.54,6.54,6.54,6.54,6.54,6.54,6.54,6.54,6.54,6.54,6.54,6.54,6.54,6.54,6.54,6.54,6.54,6.54,6.54,6.54,6.54,6.54,6.54,5.31,5.31c.37-.46.74-.93,1.08-1.42l-5.14-5.14-6.54-6.54Zm-26.55,13.46l-6.54-6.54-6.54-6.54-6.54-6.54-6.54-6.54-6.54-6.54-6.54-6.54-6.54-6.54-6.54-6.54-6.54-6.54-6.54-6.54-1.51-1.51-1.38,1.12,1.64,1.64,6.54,6.54,6.54,6.54,6.54,6.54,6.54,6.54,6.54,6.54,6.54,6.54,6.54,6.54,6.54,6.54,6.54,6.54,6.54,6.54,6.54,6.54,2.67,2.67h2.5l-3.92-3.92-6.54-6.54Zm13.21-.13l-6.54-6.54-6.54-6.54-6.54-6.54-6.54-6.54-6.54-6.54-6.54-6.54-6.54-6.54-6.54-6.54-6.54-6.54-6.54-6.54-6.54-6.54-.81-.81-1.38,1.12.94.94,6.54,6.54,6.54,6.54,6.54,6.54,6.54,6.54,6.54,6.54,6.54,6.54,6.54,6.54,6.54,6.54,6.54,6.54,6.54,6.54,6.54,6.54,6.54,6.54,2.14,2.14c.68-.14,1.34-.31,2-.5l-2.88-2.88-6.54-6.54Zm-3.51,3.51l-6.54-6.54-6.54-6.54-6.54-6.54-6.54-6.54-6.54-6.54-6.54-6.54-6.54-6.54-6.54-6.54-6.54-6.54-6.54-6.54-6.54-6.54-1.18-1.18-1.38,1.12,1.31,1.31,6.54,6.54,6.54,6.54,6.54,6.54,6.54,6.54,6.54,6.54,6.54,6.54,6.54,6.54,6.54,6.54,6.54,6.54,6.54,6.54,6.54,6.54,5.83,5.83h.25c.73,0,1.45-.03,2.17-.09l-.45-.45-6.54-6.54Zm13.34-13.34l-6.54-6.54-6.54-6.54-6.54-6.54-6.54-6.54-6.54-6.54-6.54-6.54-6.54-6.54-6.54-6.54-6.54-6.54-6.54-6.54-6.54-6.54-.9-.9c-.35.48-.7.96-1.07,1.44l.71.71,6.54,6.54,6.54,6.54,6.54,6.54,6.54,6.54,6.54,6.54,6.54,6.54,6.54,6.54,6.54,6.54,6.54,6.54,6.54,6.54,6.54,6.54,6.54,6.54,5.4,5.4c.44-.39.88-.79,1.3-1.2l-5.44-5.44-6.54-6.54Zm16.97-30.05l-6.54-6.54-6.54-6.54-6.54-6.54-6.54-6.54-6.54-6.54-6.54-6.54-6.54-6.54-6.54-6.54-6.54-6.54-6.54-6.54-6.54-6.54-6.54-6.54-3.45-3.45v2.5s2.2,2.2,2.2,2.2l6.54,6.54,6.54,6.54,6.54,6.54,6.54,6.54,6.54,6.54,6.54,6.54,6.54,6.54,6.54,6.54,6.54,6.54,6.54,6.54,6.54,6.54,6.54,6.54,6.54,6.54,3.07,3.07.6-1.9-2.42-2.42-6.54-6.54Zm-3.51,3.51l-6.54-6.54-6.54-6.54-6.54-6.54-6.54-6.54-6.54-6.54-6.54-6.54-6.54-6.54-6.54-6.54-6.54-6.54-6.54-6.54-6.54-6.54-6.48-6.48v2.5s5.23,5.23,5.23,5.23l6.54,6.54,6.54,6.54,6.54,6.54,6.54,6.54,6.54,6.54,6.54,6.54,6.54,6.54,6.54,6.54,6.54,6.54,6.54,6.54,6.54,6.54,6.54,6.54,4.88,4.88.6-1.9-4.23-4.23-6.54-6.54Zm-6.79,19.88l-6.54-6.54-6.54-6.54-6.54-6.54-6.54-6.54-6.54-6.54-6.54-6.54-6.54-6.54-6.54-6.54-6.54-6.54-6.54-6.54-6.54-6.54-2.83-2.83c-.24.59-.5,1.16-.76,1.74l2.34,2.34,6.54,6.54,6.54,6.54,6.54,6.54,6.54,6.54,6.54,6.54,6.54,6.54,6.54,6.54,6.54,6.54,6.54,6.54,6.54,6.54,6.54,6.54,6.54,6.54,4.71,4.71c.3-.53.6-1.07.87-1.63l-4.33-4.33-6.54-6.54Zm13.46-26.55l-6.54-6.54-6.54-6.54-6.54-6.54-6.54-6.54-6.54-6.54-6.54-6.54-6.54-6.54-6.54-6.54-6.54-6.54-6.54-6.54-6.54-6.54-6.54-6.54-6.54-6.54-.07-.07v2.5s5.36,5.36,5.36,5.36l6.54,6.54,6.54,6.54,6.54,6.54,6.54,6.54,6.54,6.54,6.54,6.54,6.54,6.54,6.54,6.54,6.54,6.54,6.54,6.54,6.54,6.54,6.54,6.54,6.54,6.54,1.43,1.43.6-1.9-.78-.78-6.54-6.54Zm-46.67,46.67l-6.54-6.54-6.54-6.54-6.54-6.54-6.54-6.54-6.54-6.54-6.54-6.54-6.54-6.54-6.54-6.54-6.54-6.54-6.54-6.54-1.88-1.88-1.38,1.12,2.01,2.01,6.54,6.54,6.54,6.54,6.54,6.54,6.54,6.54,6.54,6.54,6.54,6.54,6.54,6.54,6.54,6.54,6.54,6.54,6.54,6.54,5.71,5.71h2.5l-.42-.42-6.54-6.54Zm39.88-26.8l-6.54-6.54-6.54-6.54-6.54-6.54-6.54-6.54-6.54-6.54-6.54-6.54-6.54-6.54-6.54-6.54-6.54-6.54-6.54-6.54-6.54-6.54-6.54-6.54-.18-.18c-.09.73-.2,1.45-.34,2.17l5.81,5.81,6.54,6.54,6.54,6.54,6.54,6.54,6.54,6.54,6.54,6.54,6.54,6.54,6.54,6.54,6.54,6.54,6.54,6.54,6.54,6.54,6.54,6.54,6.54,6.54,1.79,1.79.6-1.9-1.14-1.14-6.54-6.54Zm-3.04-10.05l-6.54-6.54-6.54-6.54-6.54-6.54-6.54-6.54-6.54-6.54-6.54-6.54-6.54-6.54-6.54-6.54-6.54-6.54-6.54-6.54-6.54-6.54-3.31-3.31v1.08c0,.46-.02.92-.04,1.39l2.1,2.1,6.54,6.54,6.54,6.54,6.54,6.54,6.54,6.54,6.54,6.54,6.54,6.54,6.54,6.54,6.54,6.54,6.54,6.54,6.54,6.54,6.54,6.54,6.54,6.54,6.52,6.52.6-1.9-5.87-5.87-6.54-6.54Z"/>
    <g>
      <circle class="cls-5" cx="221.81" cy="169.53" r="9.58" transform="translate(-55.98 141.76) rotate(-31.68)"/>
      <g>
        <path class="cls-4" d="m218.87,172.76c.99-.82,1.78-1.51,2.36-2.06.59-.55,1.08-1.13,1.47-1.72.39-.6.59-1.18.59-1.76,0-.53-.12-.94-.37-1.24s-.63-.45-1.14-.45-.91.17-1.19.52c-.28.35-.42.82-.43,1.41h-2.1c.04-1.24.41-2.17,1.1-2.81s1.58-.96,2.65-.96c1.17,0,2.08.31,2.7.93.63.62.94,1.45.94,2.46,0,.8-.22,1.57-.65,2.3s-.93,1.37-1.48,1.91c-.56.54-1.28,1.19-2.18,1.95h4.56v1.79h-7.63v-1.61l.8-.68Z"/>
        <g>
          <path class="cls-3" d="m218.87,172.76c.99-.82,1.78-1.51,2.36-2.06.59-.55,1.08-1.13,1.47-1.72.39-.6.59-1.18.59-1.76,0-.53-.12-.94-.37-1.24s-.63-.45-1.14-.45-.91.17-1.19.52c-.28.35-.42.82-.43,1.41h-2.1c.04-1.24.41-2.17,1.1-2.81s1.58-.96,2.65-.96c1.17,0,2.08.31,2.7.93.63.62.94,1.45.94,2.46,0,.8-.22,1.57-.65,2.3s-.93,1.37-1.48,1.91c-.56.54-1.28,1.19-2.18,1.95h4.56v1.79h-7.63v-1.61l.8-.68Z"/>
          <path class="cls-3" d="m218.87,172.76c.99-.82,1.78-1.51,2.36-2.06.59-.55,1.08-1.13,1.47-1.72.39-.6.59-1.18.59-1.76,0-.53-.12-.94-.37-1.24s-.63-.45-1.14-.45-.91.17-1.19.52c-.28.35-.42.82-.43,1.41h-2.1c.04-1.24.41-2.17,1.1-2.81s1.58-.96,2.65-.96c1.17,0,2.08.31,2.7.93.63.62.94,1.45.94,2.46,0,.8-.22,1.57-.65,2.3s-.93,1.37-1.48,1.91c-.56.54-1.28,1.19-2.18,1.95h4.56v1.79h-7.63v-1.61l.8-.68Z"/>
          <path class="cls-3" d="m218.87,172.76c.99-.82,1.78-1.51,2.36-2.06.59-.55,1.08-1.13,1.47-1.72.39-.6.59-1.18.59-1.76,0-.53-.12-.94-.37-1.24s-.63-.45-1.14-.45-.91.17-1.19.52c-.28.35-.42.82-.43,1.41h-2.1c.04-1.24.41-2.17,1.1-2.81s1.58-.96,2.65-.96c1.17,0,2.08.31,2.7.93.63.62.94,1.45.94,2.46,0,.8-.22,1.57-.65,2.3s-.93,1.37-1.48,1.91c-.56.54-1.28,1.19-2.18,1.95h4.56v1.79h-7.63v-1.61l.8-.68Z"/>
        </g>
      </g>
    </g>
    <g>
      <circle class="cls-5" cx="243.19" cy="72.32" r="9.58" transform="translate(-1.74 138.5) rotate(-31.68)"/>
      <g>
        <path class="cls-4" d="m240.95,68.73v-1.99h3.72v11.26h-2.23v-9.27h-1.5Z"/>
        <g>
          <path class="cls-3" d="m240.95,68.73v-1.99h3.72v11.26h-2.23v-9.27h-1.5Z"/>
          <path class="cls-3" d="m240.95,68.73v-1.99h3.72v11.26h-2.23v-9.27h-1.5Z"/>
          <path class="cls-3" d="m240.95,68.73v-1.99h3.72v11.26h-2.23v-9.27h-1.5Z"/>
        </g>
      </g>
    </g>
    <path class="cls-6" d="m338.69,50.74H112.63c-9.44,0-18.32,3.68-25,10.36-6.68,6.68-10.35,15.56-10.34,25.01l.13,162.82c.02,19.47,15.87,35.31,35.34,35.31h48.4c3,0,6-.31,8.93-.93l72.86-15.28c8.95-1.88,18.12-2.83,27.26-2.83h46.82c14.66,0,27.5-9.39,31.94-23.37l21.32-67.1c2.47-7.79,3.73-15.88,3.73-24.05v-64.6c0-19.49-15.85-35.34-35.34-35.34Zm-254.4,35.36c0-7.57,2.94-14.69,8.29-20.05,5.35-5.36,12.47-8.31,20.05-8.31h144.41l.05,62.63H84.32l-.03-34.27Zm31.85,191.13h-3.38c-15.61,0-28.33-12.7-28.34-28.31l-.1-121.55h172.76v18.64c.01,10.77-4.78,20.83-13.15,27.61l-127.8,103.61Zm250.89-126.55c0,7.45-1.14,14.83-3.4,21.93l-21.32,67.1c-3.51,11.06-13.67,18.49-25.27,18.49h-46.82c-9.63,0-19.28,1-28.7,2.98l-72.86,15.28c-2.46.52-4.98.78-7.5.78h-33.9l121.09-98.17c10.01-8.12,15.75-20.16,15.75-33.05v-18.64s102.92,0,102.92,0v23.31Zm0-30.31h-102.94l-.05-62.63h74.65c15.63,0,28.34,12.71,28.34,28.34v34.29Z"/>
    <path class="cls-6" d="m372.87,222.87l.35-1.05-1.66-.56.52-1.57-1.16-.39-.52,1.57-1.65-.55-.35,1.05,1.65.55-.52,1.55-1.9-.63-.36,1.09,4.94,1.65.36-1.09-1.89-.63.52-1.55,1.66.56Zm-4.64-1.05l-.98-.74c-1.11,1.21-2.66,2.24-4.05,2.78.13.32.28,1.06.32,1.33.43-.18.89-.42,1.35-.68l-1.91,5.71,1.14.38,2.42-7.24c.6-.48,1.19-.99,1.7-1.54Zm2.73,8.12c-.72-.15-1.46-.31-2.17-.46l.57-1.71,1.81.6.36-1.06-1.81-.6.5-1.5-1.17-.39-.5,1.5-1.79-.6-.36,1.06,1.79.6-.62,1.85c-.84-.19-1.61-.36-2.24-.51l-.25,1.19c1.5.31,3.56.75,5.54,1.13l.32-1.09Zm9.32-49.97l-1.2-.05c-.02.78,0,1.83-.06,2.46l1.26-.02c.02-.63,0-1.63,0-2.4Zm-9.05,31.73l3.09-9.23c.76-.65,1.5-1.34,2.14-2.07l-1.01-.75c-1.48,1.69-3.49,3.16-5.31,3.9.13.37.25,1.15.26,1.47.71-.32,1.45-.74,2.17-1.24l-2.52,7.53,1.17.39Zm-2.43,7.36l-.99-.79c-.76.72-2.06,1.47-3.17,1.82.12.31.29.85.35,1.15,1.27-.45,2.76-1.31,3.8-2.18Zm9.51-28.33c-.34-.41-.54-.73-.75-.94.8-.84,1.59-1.96,2.22-3.07l-.49-.4h-.2s-.73-.25-.73-.25c.63-.82,1.36-1.77,1.97-2.62l-2.87-.96-.37,1.12,1.34.45c-.68.93-1.42,1.87-2.02,2.54l1.7.57c-.5.84-1.14,1.69-1.73,2.29-.51.12-1.15.49-1.8.93l.46,1.42c.63-.69,1.37-1.4,1.67-1.3.28.09.61.72,1.04,1.21.77.88,1.86,1.41,3.62,1.99,1.54.52,4.01,1.25,5.06,1.53.14-.32.54-.87.79-1.16-1.52-.3-3.81-.93-5.42-1.47-1.57-.52-2.75-1.01-3.49-1.88Zm8.24-5.56c1.11-.19,2.25-.53,3.14-.96l-.55-.85h-.26s-6.28-2.12-6.28-2.12l-.32.97,5.13,1.72c-.53.18-1.16.32-1.75.42-.5-.46-1.03-.91-1.49-1.25l-1.02.4c.59.48,1.28,1.11,1.86,1.67l-3.4-1.14-2.28,6.81,1.16.39.7-2.1,1.91.64-.68,2.04,1.12.37.68-2.04,1.98.66-.32.94c-.05.16-.12.19-.28.14-.15-.05-.67-.21-1.2-.42.05.33.06.79,0,1.11.84.28,1.4.45,1.84.41.43-.04.63-.28.81-.84l1.9-5.67-1.63-.55c-.2-.23-.46-.49-.76-.77Zm-3.13,3.68l-1.91-.64.33-1,1.91.64-.33,1Zm.64-1.9l-1.91-.64.32-.96,1.91.64-.32.96Zm2.46,2.94l-1.98-.66.33-1,1.98.66-.33,1Zm.64-1.9l-1.98-.66.32-.96,1.98.66-.32.96Zm-8.17,13.02l-1.18-.4-3.2,9.55c-.53,1.59-.27,2.17,1.19,2.66l2.38.8c1.5.5,2.1-.27,3.1-2.7-.29-.19-.72-.59-.93-.92-.85,2.2-1.16,2.71-1.88,2.47l-2.19-.73c-.67-.22-.75-.41-.5-1.16l1.64-4.89,4.68,1.56.4-1.18-4.68-1.57,1.17-3.51Zm-6.58,24.79l1.26.42-1.8,5.37c-.06.17-.13.21-.31.15-.19-.05-.78-.26-1.42-.49.03.41,0,.99-.07,1.35.93.31,1.58.52,2.07.44.49-.04.73-.38.94-1.01l1.8-5.39,1.12.37.37-1.1-3.6-1.2-.37,1.1Zm1.29-3.5l3.32,1.11.37-1.1-3.32-1.11-.37,1.1Z"/>
    <path class="cls-6" d="m120.32,41.71h1.11v-.5h4.92v.46h1.15v-4.5h-7.17v4.54Zm1.11-3.49h4.92v1.93h-4.92v-1.93Zm5.91-5.08h-6.82v1.04h6.82v-1.04Zm-6.82,3.01h6.82v-1.04h-6.82v1.04Zm27.96-2.54h-5.55v-.71h4.2v-.94h-4.2v-.71h4.94v-.98h-2.68c.25-.32.52-.71.8-1.12l-1.41-.31c-.17.41-.49,1.01-.74,1.43h-3.11l.07-.03c-.17-.39-.53-.98-.92-1.37l-1.13.38c.25.31.5.69.67,1.02h-2.69v.98h4.87v.71h-4.13v.94h4.13v.71h-5.49v1.02h12.37v-1.02Zm53.18.56c.24.17.73.6.91.84,1.51-1.02,1.82-2.62,1.82-3.91v-.59h1.71v2.27c0,1.08.21,1.53,1.3,1.53h.92c.29,0,.59,0,.76-.07-.04-.28-.07-.71-.08-1.02-.18.06-.49.08-.67.08h-.81c-.18,0-.22-.13-.22-.5v-3.4h-4.1v1.68c0,1.01-.17,2.2-1.53,3.1Zm-83.04-5.25c-.69,2.03-1.81,4.08-3.03,5.39.21.29.57.97.7,1.25.39-.46.8-.98,1.18-1.57v7.76h1.19v-9.83c.42-.85.81-1.77,1.13-2.65l-1.18-.35Zm83.22,8.56c-1.09.17-2.19.32-3.19.45v-1.75h2.97v-1.15h-2.97v-1.7h2.98v-1.13h-2.98v-1.26c1.19-.34,2.48-.74,3.47-1.2l-1.02-.98c-.9.48-2.37,1.04-3.67,1.41h-.04s0,7.93,0,7.93l-1.13.15.2,1.23.94-.15v2.14h1.26v-2.34c1.04-.17,2.16-.35,3.25-.53l-.06-1.12Zm-25.01,3.8h1.3v-1.01h8.85v.9h1.36v-11.11h-11.51v11.22Zm7.77-9.96h2.38v5.34c-.01-.24-.04-.48-.06-.7-.21.06-.6.08-.83.08h-1.16c-.29,0-.34-.18-.34-.64v-4.08Zm-6.47,0h2.28c-.06,3.15-.25,4.82-2.21,5.8.29.24.64.71.78,1.02,2.31-1.18,2.62-3.24,2.69-6.82h1.71v4.05c0,1.23.25,1.77,1.37,1.77h1.37c.31,0,.66-.01.85-.08v1.98h-8.85v-7.7Zm-53.32-.64c-.21-.5-.63-1.26-1.01-1.82l-1.12.43c.35.56.74,1.32.94,1.82h-4.1v1.06h8.88v-1.06h-4.59l1.01-.43Zm81.47,8.64c.92-.99,1.61-2.28,2.02-3.95l-.8-.28-.24.04h-5v1.11h1.15l-.69.18c.42,1.09.99,2.06,1.71,2.87-.9.64-1.96,1.09-3.15,1.37.25.27.56.77.67,1.12,1.27-.38,2.42-.9,3.4-1.64.85.69,1.86,1.23,3.04,1.55.18-.34.55-.85.81-1.11-1.12-.25-2.12-.69-2.93-1.27Zm-.95-.8c-.64-.66-1.16-1.43-1.51-2.28h2.93c-.34.9-.81,1.65-1.41,2.28Zm-37.31-7.97l-.83-.35-.22.06h-2.38c.15-.35.29-.71.42-1.08l-1.26-.31c-.49,1.61-1.37,3.12-2.42,4.15v-3.59h-4.62v4.4h1.95v5.46l-.92.21v-4.5h-1.06v4.72c-.24.04-.46.08-.67.13l.22,1.26c1.51-.35,3.54-.84,5.46-1.33l-.13-1.15-1.74.41v-2.21h1.64c.14.18.28.39.36.56.21-.08.41-.18.62-.28v4.58h1.19v-.49h3.12v.45h1.25v-4.55l.28.11c.17-.32.55-.84.8-1.08-1.19-.42-2.2-1.06-3.05-1.83.87-1.04,1.57-2.28,2-3.74Zm-3.95.81h2.34c-.32.74-.74,1.43-1.25,2.04-.5-.59-.9-1.19-1.22-1.79l.13-.25Zm-6.23,1.34v-2.16h2.28v2.16h-2.28Zm3.61,3.54v-.57h-1.64v-1.85h1.51v-.63c.29.22.7.56.9.77.36-.38.74-.83,1.08-1.32.31.53.66,1.08,1.11,1.61-.88.87-1.91,1.54-2.96,1.99Zm5.29,3.82h-3.12v-2.33h3.12v2.33Zm.39-3.43h-3.87c.69-.41,1.34-.91,1.93-1.48.56.55,1.2,1.06,1.93,1.48Zm-19.91,3.88c-.52.01-1.02-.24-1.48-.69.7-.48,1.32-1.01,1.78-1.62l-1.11-.38c-.34.43-.78.83-1.32,1.18-.22-.36-.42-.78-.57-1.25h4.01v-.99h-1.47l.74-.81c-.5-.43-1.5-.94-2.3-1.23l-.73.76c.8.34,1.78.88,2.26,1.29h-2.8c-.14-.6-.22-1.25-.25-1.93h-1.26c.04.67.13,1.33.25,1.93h-2.76v-.91c.77-.11,1.5-.22,2.12-.38l-.77-.78c-1.23.31-3.42.55-5.27.64.13.22.24.59.28.81.76-.03,1.57-.08,2.38-.17v.78h-2.86v.99h2.86v.84c-1.11.08-2.12.14-2.91.18l.11,1.01,2.8-.22v.91c0,.2-.06.25-.28.25-.18.01-.92.01-1.62-.03.14.29.31.71.38,1.02,1.05,0,1.74-.01,2.19-.17.46-.14.6-.42.6-1.05v-1.05c.76-.06,1.54-.13,2.31-.2v-.91c-.77.06-1.55.11-2.31.17v-.76h3.01c.21.69.48,1.32.8,1.85-.92.46-1.98.81-3.01,1.05.22.24.55.78.67,1.04,1.01-.31,2.05-.71,2.98-1.2.69.77,1.54,1.22,2.49,1.22s1.39-.36,1.58-1.88c-.32-.08-.73-.29-.98-.5-.07.9-.17,1.19-.53,1.19Z"/>
    <path class="cls-6" d="m64.19,212.91h.92c.29,0,.59,0,.76-.07-.04-.28-.07-.71-.08-1.02-.18.06-.49.08-.67.08h-.81c-.18,0-.22-.13-.22-.5v-3.4h-4.1v1.68c0,1.01-.17,2.2-1.53,3.1.24.17.73.6.91.84,1.51-1.02,1.82-2.62,1.82-3.91v-.59h1.71v2.27c0,1.08.21,1.53,1.3,1.53Zm-10.79-14.02h12.33v-1.49h-12.33v1.49Zm1.16-9.64v1.42h10v-1.42h-10Zm8.56-16.69c.87-1.04,1.57-2.28,2-3.74l-.83-.35-.22.06h-2.38c.15-.35.29-.71.42-1.08l-1.26-.31c-.49,1.61-1.37,3.12-2.42,4.15v-3.59h-4.62v4.4h1.95v5.46l-.92.21v-4.5h-1.06v4.72c-.24.04-.46.08-.67.13l.22,1.26c1.51-.35,3.54-.84,5.46-1.33l-.13-1.15-1.74.41v-2.21h1.64c.14.18.28.39.36.56.21-.08.41-.18.62-.28v4.58h1.19v-.49h3.12v.45h1.25v-4.55l.28.11c.17-.32.55-.84.8-1.08-1.19-.42-2.2-1.06-3.05-1.83Zm-1.95-2.93h2.34c-.32.74-.74,1.43-1.25,2.04-.5-.59-.9-1.19-1.22-1.79l.13-.25Zm-6.23,1.34v-2.16h2.28v2.16h-2.28Zm3.61,3.54v-.57h-1.64v-1.85h1.51v-.63c.29.22.7.56.9.77.36-.38.74-.83,1.08-1.32.31.53.66,1.08,1.11,1.61-.88.87-1.9,1.54-2.96,1.99Zm5.29,3.82h-3.12v-2.33h3.12v2.33Zm-3.47-3.43c.69-.41,1.34-.91,1.93-1.48.56.55,1.2,1.06,1.93,1.48h-3.87Zm-5.03-43.19v7.94h1.23v-9.74c.52-.85.99-1.75,1.37-2.65l-1.19-.39c-.87,2.07-2.31,4.1-3.8,5.38.24.31.6,1.01.71,1.32.57-.53,1.13-1.16,1.67-1.86Zm4.78-23.49h-2.54c-.17-.5-.42-1.13-.67-1.65l-1.16.27c.18.42.36.94.52,1.39h-2.84v1.11h6.7v-1.11Zm-3.85,8.78v1.16c0,.14-.04.18-.25.2-.2.01-.85.01-1.54-.01.17.31.35.76.41,1.06.92,0,1.58,0,2.02-.17s.56-.48.56-1.06v-1.32c.84-.11,1.7-.21,2.54-.32v-1.04c-.85.08-1.69.2-2.54.29v-.27c.81-.46,1.64-1.06,2.26-1.67l-.71-.56-.22.07h-4.97v.98h3.77c-.41.29-.88.55-1.3.74v.83c-1.2.14-2.28.25-3.15.34l.15,1.09c.85-.1,1.88-.21,3-.35Zm2.35,99.06c-1.09.17-2.19.32-3.19.45v-1.75h2.97v-1.15h-2.97v-1.7h2.98v-1.13h-2.98v-1.26c1.19-.34,2.48-.74,3.47-1.2l-1.02-.98c-.9.48-2.37,1.04-3.67,1.42h-.04s0,7.93,0,7.93l-1.13.15.2,1.23.94-.15v2.14h1.26v-2.34c1.04-.17,2.16-.35,3.25-.53l-.06-1.12Zm6.46-2.12l-.8-.28-.24.04h-5v1.11h1.15l-.69.18c.42,1.09.99,2.06,1.71,2.87-.9.64-1.96,1.09-3.15,1.37.25.27.56.77.67,1.12,1.27-.38,2.42-.9,3.4-1.64.85.69,1.86,1.23,3.04,1.55.18-.34.55-.85.81-1.11-1.12-.25-2.12-.69-2.93-1.27.92-.99,1.61-2.28,2.02-3.95Zm-2.97,3.15c-.64-.66-1.16-1.43-1.51-2.28h2.93c-.34.9-.81,1.65-1.41,2.28Zm-2.83-90.05v10.07c0,1.68.43,2.14,1.98,2.14h2.51c1.58,0,1.9-.92,2.09-3.54-.34-.08-.87-.34-1.18-.57-.11,2.35-.24,2.94-.99,2.94h-2.31c-.7,0-.84-.15-.84-.94v-5.15h4.93v-1.25h-4.93v-3.7h-1.25Zm.03-17.12h-5.15v2.8h5.15v-.07c.27.27.6.73.76.98.29-.41.57-.83.84-1.32.28,1.3.64,2.48,1.13,3.53-.71,1.15-1.68,2.04-2.98,2.7.27.22.69.74.84,1.01,1.16-.67,2.09-1.5,2.82-2.49.66,1.01,1.48,1.82,2.54,2.4.2-.34.59-.84.88-1.08-1.13-.53-2.02-1.4-2.7-2.49.74-1.43,1.19-3.12,1.5-5.2h.91v-1.19h-3.8c.28-.84.49-1.71.67-2.6l-1.25-.24c-.41,2.21-1.13,4.34-2.16,5.77v-2.51Zm-1.13,1.89h-2.94v-.99h2.94v.99Zm5.52-1.12c-.21,1.47-.52,2.72-.98,3.82-.48-1.13-.83-2.42-1.05-3.82h2.03Zm-4.78,37.57h-5.49v1.22h5.37c-.04.45-.11.9-.15,1.27h-4.55v9.04h1.3v-7.83h8.32v6.43c0,.22-.07.29-.32.29-.24.01-1.09.03-1.89-.01.18.31.38.8.46,1.12,1.11,0,1.92,0,2.41-.2.49-.18.67-.5.67-1.21v-7.63h-5.14c.07-.39.14-.83.2-1.27h5.57v-1.22h-5.39c.06-.39.11-.78.15-1.16l-1.43-.14c-.01.39-.04.84-.08,1.3Zm1.2,11.22v-2.3h2.91v-1.05h-2.91v-1.21h2.65v-1.02h-1.33c.24-.49.48-1.05.71-1.6l-1.18-.27c-.14.53-.43,1.3-.67,1.86h-2.3l.74-.22c-.13-.43-.42-1.11-.73-1.6l-1.02.27c.27.46.55,1.09.66,1.55h-1.29v1.02h2.52v1.21h-2.82v1.05h2.82v2.3h1.23Z"/>
    <path class="cls-6" d="m146.77,235.1l2.65-2.14-2.58-3.19-1.31,1.06c-.78.63-1.81,1.25-3.37.76.02.29,0,.95-.08,1.24,1.75.53,3.18-.23,4.18-1.04l.46-.37,1.08,1.33-1.76,1.43c-.84.68-1.05,1.12-.37,1.97l.58.72c.19.23.37.46.53.54.19-.21.51-.5.74-.71-.16-.11-.37-.33-.49-.47l-.51-.63c-.11-.14-.04-.25.25-.49Zm-1.64,1.6l-.18-.16-3.15-3.88-.86.7.72.89-.57-.42c-.58,1.01-.97,2.07-1.16,3.14-1.06-.29-2.08-.83-3.05-1.58-.05.36-.25.92-.45,1.23,1.1.75,2.22,1.32,3.42,1.61,0,1.1.22,2.22.71,3.34.38-.07,1.01-.11,1.37-.07-.51-1.03-.8-2.08-.85-3.08,1.35.09,2.79-.18,4.34-.92l-.29-.8Zm-4.03.47c.11-.92.38-1.8.82-2.61l1.84,2.27c-.91.3-1.8.41-2.66.34Zm41-36.06l.79.98.88-.71,1.72,2.12-.81.65.84,1.03,8.4-6.81-3.35-4.14-8.48,6.87Zm4.36,1.6l-1.72-2.12,5.66-4.59,1.72,2.12-5.66,4.59Zm-46.75,31.1c-.82-.74-1.63-1.49-2.36-2.2l1.36-1.1,1.87,2.31.89-.72-1.87-2.31,1.32-1.07,1.88,2.32.88-.71-1.88-2.32.98-.79c1.01.71,2.14,1.46,3.12,1.94l.12-1.41c-.93-.4-2.29-1.19-3.41-1.96l-.02-.04-6.17,5-.83-.79-.83.93.71.63-1.67,1.35.79.98,1.82-1.47c.78.7,1.63,1.46,2.46,2.19l.84-.75Zm9.2-14.18l7.76,9.58,1.15-.93-7.76-9.58-1.15.93Zm29.87-9.11l-.25-.86-.18-.14-1.5-1.85c.37-.1.74-.22,1.1-.35l-.55-1.17c-1.56.63-3.29.9-4.75.73l2.79-2.26-2.91-3.59-3.42,2.77,1.23,1.51-4.24,3.44-.75-.59,3.49-2.83-.67-.83-3.67,2.97c-.18-.16-.36-.31-.52-.44l-.84.97c1.22.96,2.88,2.22,4.47,3.41l.81-.82-1.41-1.09,1.72-1.39,1.03,1.27h.01c-.06.22-.14.46-.22.64.2.11.4.2.61.3l-3.56,2.88.75.92.38-.31,1.97,2.43-.35.28.79.97,3.54-2.87.09.29c.36-.07,1-.11,1.34-.06-.42-1.19-.56-2.38-.5-3.53,1.35.02,2.76-.22,4.17-.8Zm-3.39-2.5l.28-.06,1.47,1.82c-.78.22-1.58.32-2.37.32.14-.76.36-1.45.63-2.08Zm-3.02-5.42l1.44,1.77-1.68,1.36-1.44-1.77,1.68-1.36Zm-1.79,12.92l-1.97-2.43,1.81-1.46,1.97,2.43-1.81,1.46Zm.48-4.86c.75.28,1.55.47,2.37.57-.07.78-.07,1.61.06,2.44l-2.43-3Zm2.56-.62c-1.23-.14-2.4-.51-3.41-1.04l.45-.36-1.03-1.27,1.44-1.16.95,1.18.49-.4c.01.37,0,.9-.03,1.18.52.04,1.11.06,1.7,0-.22.57-.42,1.19-.55,1.87Zm9.99-11.75l1.32-.06c.12-.51.49-2.6.57-3.37l.25-.2,1.42,1.75.94-.76-1.42-1.75,1.83-1.48c.63.53,1.28,1,1.89,1.35l.24-1.31c-1.17-.66-2.83-2.03-4.19-3.3-.14.29-.37.7-.55.92.5.48,1.03,1,1.59,1.49l-1.62,1.31-1.64-2.02-.94.76,1.44,1.77c-1.65.58-3.68.93-5.12.78-.11.4-.31.95-.5,1.29,1.21.09,2.82-.19,4.37-.64l-4.38,3.54.82,1.01,4.43-3.59c-.23.89-.52,1.96-.74,2.49Zm21.64-11.35l-.9-1.31c-.39.25-.8.48-1.17.67l-1.88-2.32c.75-.16,1.5-.35,2.17-.57l-.72-1.33c-.73.25-1.59.48-2.47.65l-2.26-2.79-.96.78,1.82,2.24c-.8.12-1.57.19-2.23.23.45,1.15.91,2.46,1.31,3.77-1.45-.48-2.91-1.55-4.58-3.18-.08.43-.32,1.14-.5,1.45,1.97,1.79,3.72,2.9,5.51,3.29.47,1.74.8,3.39.9,4.57l1.51.04c-.14-1.2-.5-2.8-.98-4.45,1.02,0,2.04-.21,3.17-.65l1.72,2.12.96-.78-1.51-1.86c.35-.17.71-.38,1.08-.58Zm-5.84.31c-.3-.95-.64-1.9-.97-2.8.46-.05.96-.13,1.49-.21l2.1,2.59c-.91.34-1.76.49-2.61.42Zm-43.38,28.1l6.3,7.77,1.1-.89-6.3-7.77-1.1.89Zm49.56-32.44c.25-.47.55-1.15.78-1.68l-1.17-.89c-.19.39-.44.88-.65,1.29l-3.2-3.95-2.29,1.85.83,1.02,1.34-1.08,5.53,6.82-1.34,1.08.87,1.08,2.29-1.85-2.99-3.69Z"/>
    <g>
      <path class="cls-6" d="m244.07,131.49c0-.51-.39-.92-.88-.92s-.88.41-.88.92.39.92.88.92.88-.41.88-.92Z"/>
      <path class="cls-6" d="m244.07,135.17c0-.51-.39-.92-.88-.92s-.88.41-.88.92.39.92.88.92.88-.41.88-.92Z"/>
      <path class="cls-6" d="m244.07,138.84c0-.51-.39-.92-.88-.92s-.88.41-.88.92.39.92.88.92.88-.41.88-.92Z"/>
      <path class="cls-6" d="m244.07,142.52c0-.51-.39-.92-.88-.92s-.88.41-.88.92.39.92.88.92.88-.41.88-.92Z"/>
      <path class="cls-6" d="m244.02,146.28c.05-.55-.35-1-.83-1-.49,0-.88.38-.92.83-.05.46.27.9.75.99.47.09.95-.27,1-.83Z"/>
      <path class="cls-6" d="m242.98,150.09c.23-.5.01-1.06-.45-1.22-.46-.16-.95.06-1.15.48-.19.42-.04.94.38,1.19.42.25.99.06,1.22-.45Z"/>
      <path class="cls-6" d="m240.79,153.34c.34-.37.33-.99-.06-1.28-.39-.29-.91-.27-1.26.11-.34.38-.32.95.05,1.27s.93.28,1.27-.1Z"/>
      <path class="cls-6" d="m238.34,156.08c.34-.38.32-.95-.05-1.27-.36-.32-.93-.28-1.27.1-.34.38-.32.95.05,1.27.36.32.93.28,1.27-.1Z"/>
      <path class="cls-6" d="m235.89,158.83c.34-.38.32-.95-.05-1.27-.36-.32-.93-.28-1.27.1-.34.38-.32.95.05,1.27.36.32.93.28,1.27-.1Z"/>
      <path class="cls-6" d="m233.44,161.57c.34-.38.32-.95-.04-1.27-.36-.32-.93-.28-1.27.1s-.32.95.04,1.27c.36.32.93.28,1.27-.1Z"/>
    </g>
    <g>
      <path class="cls-6" d="m244.07,85.56c0-.47-.39-.86-.88-.86s-.88.38-.88.86.39.86.88.86.88-.38.88-.86Z"/>
      <path class="cls-6" d="m244.07,88.99c0-.47-.39-.86-.88-.86s-.88.38-.88.86.39.86.88.86.88-.38.88-.86Z"/>
      <path class="cls-6" d="m244.07,92.42c0-.47-.39-.86-.88-.86s-.88.38-.88.86.39.86.88.86.88-.38.88-.86Z"/>
      <path class="cls-6" d="m244.07,95.85c0-.47-.39-.86-.88-.86s-.88.38-.88.86.39.86.88.86.88-.38.88-.86Z"/>
      <path class="cls-6" d="m244.07,99.28c0-.47-.39-.86-.88-.86s-.88.38-.88.86.39.86.88.86.88-.38.88-.86Z"/>
      <path class="cls-6" d="m244.07,102.71c0-.47-.39-.86-.88-.86s-.88.38-.88.86.39.86.88.86.88-.38.88-.86Z"/>
      <path class="cls-6" d="m244.07,106.13c0-.47-.39-.86-.88-.86s-.88.38-.88.86.39.86.88.86.88-.38.88-.86Z"/>
      <path class="cls-6" d="m244.07,109.56c0-.47-.39-.86-.88-.86s-.88.38-.88.86.39.86.88.86.88-.38.88-.86Z"/>
      <path class="cls-6" d="m244.07,112.99c0-.47-.39-.86-.88-.86s-.88.38-.88.86.39.86.88.86.88-.38.88-.86Z"/>
      <path class="cls-6" d="m244.07,116.42c0-.47-.39-.86-.88-.86s-.88.38-.88.86.39.86.88.86.88-.38.88-.86Z"/>
    </g>
    <g>
      <circle class="cls-5" cx="235.32" cy="220.38" r="9.58" transform="translate(-80.68 156.43) rotate(-31.68)"/>
      <g>
        <path class="cls-4" d="m232.63,215.37c.67-.56,1.56-.84,2.67-.84.75,0,1.4.13,1.93.39.54.26.94.62,1.21,1.07.27.45.41.96.41,1.52,0,.65-.17,1.2-.5,1.65s-.73.75-1.2.9v.06c.6.19,1.06.52,1.4.99.33.47.5,1.08.5,1.82,0,.62-.14,1.17-.42,1.65-.28.48-.7.86-1.25,1.14-.55.27-1.21.41-1.99.41-1.16,0-2.11-.29-2.84-.88-.73-.59-1.12-1.45-1.16-2.6h2.1c.02.5.19.91.52,1.21s.77.46,1.34.46c.53,0,.93-.15,1.21-.44.28-.29.42-.67.42-1.14,0-.62-.2-1.06-.59-1.33-.39-.27-1-.4-1.82-.4h-.45v-1.78h.45c1.46,0,2.19-.49,2.19-1.47,0-.44-.13-.79-.39-1.04s-.64-.37-1.14-.37-.86.13-1.12.39-.42.59-.46,1h-2.12c.05-1.03.42-1.83,1.09-2.39Z"/>
        <g>
          <path class="cls-3" d="m232.63,215.37c.67-.56,1.56-.84,2.67-.84.75,0,1.4.13,1.93.39.54.26.94.62,1.21,1.07.27.45.41.96.41,1.52,0,.65-.17,1.2-.5,1.65s-.73.75-1.2.9v.06c.6.19,1.06.52,1.4.99.33.47.5,1.08.5,1.82,0,.62-.14,1.17-.42,1.65-.28.48-.7.86-1.25,1.14-.55.27-1.21.41-1.99.41-1.16,0-2.11-.29-2.84-.88-.73-.59-1.12-1.45-1.16-2.6h2.1c.02.5.19.91.52,1.21s.77.46,1.34.46c.53,0,.93-.15,1.21-.44.28-.29.42-.67.42-1.14,0-.62-.2-1.06-.59-1.33-.39-.27-1-.4-1.82-.4h-.45v-1.78h.45c1.46,0,2.19-.49,2.19-1.47,0-.44-.13-.79-.39-1.04s-.64-.37-1.14-.37-.86.13-1.12.39-.42.59-.46,1h-2.12c.05-1.03.42-1.83,1.09-2.39Z"/>
          <path class="cls-3" d="m232.63,215.37c.67-.56,1.56-.84,2.67-.84.75,0,1.4.13,1.93.39.54.26.94.62,1.21,1.07.27.45.41.96.41,1.52,0,.65-.17,1.2-.5,1.65s-.73.75-1.2.9v.06c.6.19,1.06.52,1.4.99.33.47.5,1.08.5,1.82,0,.62-.14,1.17-.42,1.65-.28.48-.7.86-1.25,1.14-.55.27-1.21.41-1.99.41-1.16,0-2.11-.29-2.84-.88-.73-.59-1.12-1.45-1.16-2.6h2.1c.02.5.19.91.52,1.21s.77.46,1.34.46c.53,0,.93-.15,1.21-.44.28-.29.42-.67.42-1.14,0-.62-.2-1.06-.59-1.33-.39-.27-1-.4-1.82-.4h-.45v-1.78h.45c1.46,0,2.19-.49,2.19-1.47,0-.44-.13-.79-.39-1.04s-.64-.37-1.14-.37-.86.13-1.12.39-.42.59-.46,1h-2.12c.05-1.03.42-1.83,1.09-2.39Z"/>
          <path class="cls-3" d="m232.63,215.37c.67-.56,1.56-.84,2.67-.84.75,0,1.4.13,1.93.39.54.26.94.62,1.21,1.07.27.45.41.96.41,1.52,0,.65-.17,1.2-.5,1.65s-.73.75-1.2.9v.06c.6.19,1.06.52,1.4.99.33.47.5,1.08.5,1.82,0,.62-.14,1.17-.42,1.65-.28.48-.7.86-1.25,1.14-.55.27-1.21.41-1.99.41-1.16,0-2.11-.29-2.84-.88-.73-.59-1.12-1.45-1.16-2.6h2.1c.02.5.19.91.52,1.21s.77.46,1.34.46c.53,0,.93-.15,1.21-.44.28-.29.42-.67.42-1.14,0-.62-.2-1.06-.59-1.33-.39-.27-1-.4-1.82-.4h-.45v-1.78h.45c1.46,0,2.19-.49,2.19-1.47,0-.44-.13-.79-.39-1.04s-.64-.37-1.14-.37-.86.13-1.12.39-.42.59-.46,1h-2.12c.05-1.03.42-1.83,1.09-2.39Z"/>
        </g>
      </g>
    </g>
    <path class="cls-8" d="m263.77,193.34c.65-.3,1.23-1,1.23-2.09,0-1.25-.88-2.47-3.21-2.47h-4.21v9.65h4.36c2.05,0,3.35-1.24,3.35-2.89,0-1.27-.85-1.95-1.5-2.2Zm-4.15-2.95h1.99c.8,0,1.34.36,1.34,1.07s-.41,1.12-1.4,1.12h-1.93v-2.19Zm1.88,6.42h-1.88v-2.62h1.87c1.15,0,1.65.5,1.65,1.27,0,.88-.51,1.35-1.64,1.35Zm13.36-.1h-5.09v-2.45h4.61v-1.71h-4.61v-2.07h4.82v-1.71h-6.84v9.65h6.87l.25-1.71Zm16.83-20.89c-.29.19-.63.29-1.07.31-.13,0-.26.03-.41.05l-.19.03-.28.1.08.7h1.62s.09,0,.09,0c.02,0,.03,0,.03,0,.23.07.45.08.67.08.16,0,.3.01.45.04.14.03.28.04.42.05.1,0,.2.01.3.03.24.04.47.1.72.15.17.04.34.08.51.11.53.11,1.07.28,1.6.44l.08.03c.43.14.87.31,1.26.47l.05.02c.19.08.38.15.57.23.7.27,1.41.6,2.04.88l.14.06c.43.2.86.41,1.29.62l.92.45c.3.14.61.29.91.45.46.25.91.53,1.38.81l.41.24c.1.06.19.12.28.18l.41.27.47-.64-.69-.5c-.29-.21-.58-.42-.87-.62-.27-.19-.55-.38-.83-.56-.23-.16-.47-.31-.7-.47-.5-.34-.99-.69-1.48-1.04-.74-.53-1.59-1.18-2.27-2.04-.32-.41-.45-.76-.42-1.09.09-.26.25-.48.53-.69.34-.26.72-.43,1.02-.55.73-.29,1.55-.51,2.51-.68.18-.03.37-.07.55-.1.29-.06.59-.12.89-.16.36-.04.73-.09,1.09-.14.19-.03.38-.04.56-.05h.06c.11-.01.22-.02.33-.03.05,0,.1-.02.17-.04l.29-.08-.13-.81-.28.02c-.11.01-.22.02-.33.03-.21.02-.45.04-.68.04-.65,0-1.16,0-1.62-.04-.17-.01-.34-.02-.51-.03h-.1c-.43-.03-.87-.05-1.33-.12h-.08c-.27-.05-.54-.09-.81-.13-.52-.09-.92-.2-1.28-.34-.53-.21-1.02-.46-1.18-1.05-.05-.36.04-.7.28-1.09.24-.38.5-.7.8-.99.32-.31.66-.61,1.04-.92.35-.28.72-.54,1.05-.78l.38-.27c.46-.33.94-.64,1.38-.91l.05-.03c.29-.19.58-.37.87-.57.24-.16.48-.31.72-.47l.14-.09c.2-.13.41-.26.61-.39.13-.09.25-.2.35-.3.12-.12.12-.27.12-.39l.04-.6-.56.3s-.08.04-.11.06l-.81.51c-.54.34-1.16.74-1.78,1.11-.46.27-.93.53-1.39.79-.21.12-.43.24-.64.35-.05.03-.09.05-.14.08-.05.03-.11.07-.16.09l-.33.17c-.47.24-.94.47-1.42.7-.56.26-1.1.51-1.63.73-.16.07-.32.13-.48.18h-.04c-.16.07-.32.13-.48.19-.3.13-.64.23-.91.31l-.07.02c-.12.04-.23.07-.34.11-.28.09-.59.17-1,.27-.3.07-.61.12-.91.18l-.21.04c-.06,0-.13.02-.19.02-.12.01-.27.02-.41.07-.16.05-.33.06-.51.07-.1,0-.19.01-.28.02-.38.04-.78.06-1.13.07h-.13c-.13,0-.26.01-.39.02-.1,0-.18.05-.24.13l-.11.12.02.19.09.36.24.02c.06,0,.11,0,.15,0,.3-.03.6.05.85.13.47.15.73.45.81.95.03.2,0,.4-.1.57-.15.26-.33.43-.57.52-.15.06-.3.11-.46.17l-.45.18-.02.21s0,.09,0,.15c.01.1.05.16.08.21l.1.17h.19c.39-.04.7,0,.96.14.27.14.45.38.59.76v.07c0,.06,0,.13,0,.19-.01.51-.21.89-.62,1.15Zm-34.55,38.13h2.04v-3.86h4.4v-1.71h-4.4v-2.36h4.7v-1.71h-6.73v9.65Zm13.36-40.6h.03c.19.06.38.08.56.09v-.12s.05.13.05.13c.1,0,.19.02.29.03.11.02.23.03.34.04.09,0,.19.02.28.04.23.04.46.08.69.13l.38.07s.09.01.13.02h.04c.08.02.16.03.24.05.39.1.8.21,1.21.34.67.2,1.17.42,1.59.7.35.23.57.48.66.71.05.35-.03.64-.22.93-.21.31-.41.56-.6.76-.45.47-.96.87-1.46,1.26-.51.4-1.03.76-1.67,1.18-.62.41-1.24.85-1.79,1.24l-.29.21c-.2.14-.39.29-.58.44l-.26.2-.11.12v.16s0,.19,0,.19l.29.36.22-.15c.11-.07.21-.14.33-.23.21-.15.41-.29.63-.41.5-.29,1-.56,1.5-.84l.67-.37c.16-.09.31-.18.47-.25l.2-.1c.55-.26,1.12-.54,1.69-.79.61-.27,1.22-.52,1.85-.79l.45-.19c.64-.27,1.29-.46,2.02-.67.45-.13.91-.23,1.33-.32l.44-.1c.1-.02.2-.04.3-.06h.05c.15-.04.29-.06.44-.1.3-.07.62-.12.91-.15l.17-.02c.2-.03.4-.05.6-.06l.91-.09-.5-.6c-.11-.12-.2-.23-.23-.35h0c-.03-.1-.06-.19-.09-.29-.04-.14-.09-.3-.13-.46-.06-.27-.1-.55-.13-.86l-.03-.31c-.04-.37-.08-.71-.07-1.07,0-.1.01-.2.02-.31.01-.14.02-.27.02-.41,0-.35.06-.69.12-1,.06-.31.14-.64.31-.9.05-.08.11-.15.17-.24l.22-.29-.08-.19c-.12-.27-.35-.28-.46-.29l-.17-.02c-.16-.02-.32-.03-.48-.06-.23-.04-.46-.09-.72-.14-.19-.04-.39-.08-.58-.12-.13-.02-.26-.04-.38-.06-.16-.03-.32-.05-.48-.09-.15-.03-.31-.08-.47-.13-.17-.05-.33-.1-.5-.13-.51-.11-1.03-.26-1.58-.46-.9-.33-1.79-.74-2.65-1.15l-.12-.06c-.9-.42-1.76-.88-2.48-1.28-.55-.3-1.1-.63-1.65-.96l-.48-.29c-.14-.08-.28-.18-.44-.28l-1.3-.85c-.09-.06-.18-.05-.21-.05h-.31v.68l.53.36c.3.2.59.4.89.6.48.31.96.62,1.44.93l.6.39c.84.54,1.57,1.06,2.23,1.59.49.4,1.01.84,1.44,1.38.24.3.42.6.54.92.16.41.09.82-.18,1.13-.2.23-.46.38-.78.52-.65.29-1.37.41-2.07.53-.43.07-.85.11-1.24.13-.2.01-.39.02-.59.02h-.03c-.25,0-.5.01-.76.04-.28.03-.59.02-.89.01h-.07c-.11,0-.22,0-.38,0-.21-.07-.41-.07-.61-.06h-.04c-.08,0-.17,0-.25,0l-.57-.05.44.9,1.24.11Zm.13,32.67h2.93v7.94h2.09v-7.94h2.92v-1.71h-7.94v1.71Zm-4.36,7.94h2.09v-9.65h-2.09v9.65Zm39.21-5.9c-1.56-.36-1.97-.63-1.97-1.3s.51-1.03,1.36-1.03c1.24,0,1.57.64,1.67,1.24h2.1c-.14-1.41-1.16-2.79-3.72-2.79-2.28,0-3.54,1.14-3.54,2.82,0,1.3.65,2.26,3.27,2.87,1.65.38,2.12.72,2.12,1.51,0,.71-.48,1.15-1.59,1.15s-1.81-.42-2.03-1.39h-2.1c.23,1.76,1.52,2.96,3.97,2.96s3.88-1.21,3.88-2.97c0-1.36-.62-2.4-3.42-3.07Zm12.73-14.58c0-2.85-1.84-4.7-4.65-4.7h-3.82v9.65h3.74c2.95,0,4.73-2.13,4.73-4.94Zm-6.38,3.26v-6.28h1.58c1.89,0,2.65,1.45,2.65,3.02,0,1.88-.82,3.25-2.67,3.25h-1.56Zm3.5,11.32c-1.56-.36-1.97-.63-1.97-1.3s.51-1.03,1.36-1.03c1.24,0,1.57.64,1.67,1.24h2.1c-.14-1.41-1.16-2.79-3.72-2.79-2.28,0-3.54,1.14-3.54,2.82,0,1.3.65,2.26,3.27,2.87,1.65.38,2.12.72,2.12,1.51,0,.71-.48,1.15-1.59,1.15s-1.81-.42-2.03-1.39h-2.1c.23,1.76,1.52,2.96,3.97,2.96s3.88-1.21,3.88-2.97c0-1.36-.62-2.4-3.42-3.07Zm-15.17-17.12c.48,1.11,2.95,5.6,3.98,7.49h2.45v-9.65h-1.89v2.86c0,1.58,0,3.26.11,4.27h-.03c-.44-1.05-2.67-4.96-3.88-7.12h-2.58v9.65h1.9v-2.93c0-1.73-.02-3.71-.09-4.55h.03Zm-4.5,2.63c0-2.95-1.79-4.93-4.61-4.93-3,0-4.75,2.16-4.75,4.96s1.58,4.96,4.61,4.96,4.75-2.31,4.75-5Zm-4.67,3.3c-1.71,0-2.54-1.42-2.54-3.31s.76-3.22,2.5-3.22,2.55,1.43,2.55,3.26c0,1.72-.66,3.27-2.51,3.27Zm3.17,12.93h4.61v-1.71h-4.61v-2.07h4.82v-1.71h-6.84v9.65h6.87l.25-1.71h-5.09v-2.45Zm-7.07-2.63c0,1.58,0,3.26.11,4.26h-.03c-.44-1.05-2.67-4.96-3.88-7.12h-2.58v9.65h1.9v-2.93c0-1.73-.02-3.71-.09-4.55h.03c.48,1.11,2.95,5.6,3.98,7.49h2.45v-9.65h-1.89v2.86Zm-5.26-8.75v-3.44c0-.2.04-.24.08-.31l3.37-5.9h-2.18c-.73,1.4-1.79,3.43-2.21,4.44-.48-1.05-1.45-2.98-2.19-4.44h-2.36l3.33,5.93c.06.1.08.2.08.31v3.41h2.09Z"/>
  </g>
</svg>