<?xml version="1.0" encoding="UTF-8"?>
<svg xmlns="http://www.w3.org/2000/svg" viewBox="0 0 80 80">
  <defs>
    <style>
      .cls-1 {
        fill: none;
      }

      .cls-1, .cls-2 {
        stroke-width: 0px;
      }

      .cls-2 {
        fill: #e2d0af;
      }
    </style>
  </defs>
  <g id="board">
    <rect class="cls-1" width="80" height="80"/>
  </g>
  <g id="sport_icon">
    <path class="cls-2" d="m79.72,12.28c-.21-3.33-1.48-6.18-3.78-8.47-2.24-2.23-5.06-3.5-8.31-3.76-.1-.02-.5-.04-.9-.04-.35,0-.8.01-1.31.06l-.74.08c-.39.04-.77.08-1.14.16-2.63.53-5,1.83-7.05,3.85-.51.5-1.01,1-1.51,1.51l-.17.18c-.71.72-1.43,1.45-2.16,2.16-.33.32-.77.72-1.27.93-3.1,1.31-6.22,2.59-9.34,3.87l-19.74,8.1c-3.87,1.59-7.74,3.17-11.61,4.77-1.83.76-3.77,1.58-5.67,2.49-1.4.68-2.56,1.71-3.44,3.07-1.41,2.17-1.73,4.62-.93,7.26,1.46,4.87,6.05,9.93,13.01,10.23.35.02.69.02,1.04.02l1.73-.02.15.02.02.28s-.02.28-.04.41c-.32,2.37-.1,4.48.65,6.44.92,2.39,2.21,4.16,3.95,5.4,2.79,1.99,5.94,2.76,9.48,2.28.11-.02.21-.02.44-.03h.25s0,.34,0,.34c0,.16,0,.3,0,.43-.16,2.86.28,5.35,1.34,7.6,1.68,3.56,4.48,6.09,8.3,7.5,1.09.4,2.18.61,3.22.61,1.23,0,2.44-.28,3.6-.84,1.96-.95,3.47-2.58,4.47-4.86.92-2.09,1.78-4.23,2.65-6.4l10.36-25.47c1.86-4.57,3.72-9.14,5.58-13.71.18-.43.46-.87.79-1.21.65-.67,1.31-1.33,2.01-2.03.72-.72,1.44-1.45,2.15-2.18,2.03-2.12,3.3-4.56,3.77-7.26.32-2.36.15-3.74.14-3.76Zm-21.44,7.28l2.02,2.14-19.59,25.64-7.94-8.06,25.51-19.71Zm-32.42,5.6c2.57-1.06,5.14-2.12,7.71-3.19l6.29-2.53c.07-.04.16-.09.26-.13l12.25-5.05c.26-.11.41-.25.78.14.27.29.55.57.84.86l.53.53-1.61,1.24s-6.42,4.96-8.5,6.58l-13.41,10.34c-.53.41-1.06.81-1.58,1.23-.3.24-.47.23-.76-.05-1.88-1.9-3.76-3.78-5.64-5.67l-1.62-1.62-.61-.58,5.09-2.11Zm-5.35,16.81c-1.12.71-2.48,1.16-4.27,1.39-2.47.32-4.39,0-6.14-.98-2.32-1.29-3.83-3.21-4.49-5.71-.39-1.47.11-2.74,1.36-3.48,1.12-.66,2.32-1.19,3.48-1.7l.35-.16c.85-.38,1.71-.72,2.58-1.07.56-.23,1.13-.45,1.68-.69.09-.04.19-.07.3-.07s.22.02.39.19c2.09,2.11,8.76,8.81,8.77,8.81l.22.29c-.42.32-1.07.82-1.35,1.04-.92.73-1.88,1.48-2.88,2.12Zm14.8,12.45c-.41.56-.82,1.1-1.25,1.59-1.34,1.52-3.33,2.4-5.46,2.4-1.86,0-3.59-.67-4.88-1.88-1.02-.95-1.66-2.24-1.9-3.83-.42-2.83.42-5.16,2.52-6.92.91-.76,1.88-1.5,2.82-2.21l1.37-1.04,8.96,9.02-2.18,2.87Zm15.08,10.63c-.31.76-.62,1.52-.93,2.29l-.1.25c-.52,1.29-1.04,2.57-1.59,3.84-.35.8-.82,1.58-1.36,2.26-.73.91-1.83,1.24-3.04.9-3.07-.85-6.34-3.63-6.73-7.94-.2-2.2.22-4.44,1.3-6.84.06-.13.12-.24.19-.33l3.06-4.08,1.88,1.83c.73.71,1.45,1.42,2.17,2.13l5.02,4.99c.23.22.26.4.14.69Zm15.01-36.86c-.07.13-.13.26-.19.39l-4.55,11.16c-.06.14-.13.29-.27.56l-2.38,5.99c-1.27,3.11-5.11,12.6-5.1,12.6l-.21.34-8.18-8.19,19.06-24.93c.26-.34.39-.48.55-.48.15,0,.27.11.57.41.1.1.2.19.32.29.29.25.6.51.67.84.07.32-.11.67-.29,1.01Zm6.53-8.47c-.61.62-1.23,1.24-1.86,1.85l-1.14,1.13-11.74-11.79.08-.08c.35-.34.69-.68,1.03-1.02l.17-.17c.81-.82,1.65-1.66,2.54-2.42,1.44-1.24,3.35-1.92,5.38-1.92,2.26,0,4.42.85,5.92,2.34,1.13,1.13,1.85,2.64,2.11,4.5.42,2.92-.43,5.47-2.5,7.58Z"/>
  </g>
</svg>