<?xml version="1.0" encoding="UTF-8"?>
<svg xmlns="http://www.w3.org/2000/svg" viewBox="0 0 80 80">
  <defs>
    <style>
      .cls-1 {
        fill: none;
      }

      .cls-1, .cls-2 {
        stroke-width: 0px;
      }

      .cls-2 {
        fill: #e2d0af;
      }
    </style>
  </defs>
  <g id="board">
    <rect class="cls-1" width="80" height="80"/>
  </g>
  <g id="sport_icon">
    <path class="cls-2" d="m65.27,12.94h0s-.54-.48-.74-.68c-6.79-6.01-15.5-9.32-24.53-9.32s-17.75,3.31-24.55,9.33c-.23.23-.72.66-.73.67C7.24,19.93,2.95,29.8,2.95,40s4.29,20.06,11.78,27.06c0,0,.45.4.74.67,6.79,6.01,15.5,9.32,24.54,9.32s17.74-3.31,24.5-9.29c.11-.07.53-.46.77-.69,7.49-7,11.78-16.87,11.78-27.07s-4.29-20.07-11.78-27.06ZM18.03,59.65l.62.63c-.59.5-1.21.98-1.83,1.42-5.55-5.91-8.6-13.61-8.6-21.71s3.05-15.79,8.6-21.7c.66.47,1.27.94,1.83,1.42l-.62.62c-.83.83-.83,2.19,0,3.02.81.81,2.21.81,3.02,0l.62-.62c.61.72,1.16,1.42,1.65,2.14l-.78.45c-.49.28-.84.74-.99,1.29-.15.55-.07,1.12.21,1.61.38.66,1.09,1.07,1.85,1.07.39,0,.75-.1,1.06-.29l.77-.44c.39.81.73,1.65,1.04,2.49l-.86.23c-.55.15-1.01.5-1.3.99-.28.49-.36,1.07-.21,1.62.25.93,1.09,1.58,2.06,1.58.19,0,.37-.02.56-.07l.86-.23c.16.89.28,1.77.36,2.68h-.89c-1.18,0-2.14.96-2.14,2.13s.96,2.14,2.14,2.14h.89c-.08.9-.19,1.8-.35,2.68l-.86-.23c-1.14-.3-2.31.38-2.61,1.51-.15.55-.07,1.13.21,1.62.29.49.75.84,1.29.99l.86.23c-.3.82-.64,1.66-1.04,2.49l-.77-.45c-1.02-.59-2.33-.24-2.92.78-.59,1.02-.24,2.33.78,2.92l.77.44c-.5.73-1.06,1.45-1.65,2.14l-.62-.62c-.8-.81-2.22-.81-3.02,0-.4.4-.62.94-.62,1.51s.22,1.1.62,1.5Zm21.97,12.12c-7.26,0-14.35-2.52-20-7.1.53-.4,1.08-.85,1.67-1.37l.58.57c.81.81,2.21.81,3.02,0,.83-.83.83-2.18,0-3.01l-.57-.58c.83-.95,1.6-1.97,2.31-3.03l.7.4c.32.2.68.3,1.07.3.77,0,1.46-.4,1.84-1.07.29-.49.36-1.07.21-1.62-.15-.55-.5-1.01-.99-1.29l-.69-.4c.54-1.12,1.03-2.3,1.45-3.53l.78.21c.17.05.35.07.55.07.96,0,1.81-.65,2.07-1.58.15-.55.07-1.12-.22-1.62-.29-.5-.75-.85-1.29-1l-.78-.21c.24-1.27.41-2.54.49-3.78h.81c1.17,0,2.13-.96,2.13-2.14s-.96-2.13-2.13-2.13h-.81c-.08-1.24-.25-2.52-.49-3.79l.78-.21c1.14-.3,1.81-1.47,1.51-2.61-.31-1.14-1.49-1.81-2.61-1.51l-.79.21c-.43-1.23-.91-2.42-1.45-3.53l.69-.4c1.01-.59,1.36-1.9.78-2.92-.28-.49-.74-.85-1.29-.99-.55-.15-1.13-.07-1.62.21l-.71.4c-.71-1.06-1.49-2.08-2.31-3.03l.57-.57c.83-.83.83-2.19,0-3.02-.83-.83-2.19-.83-3.02,0l-.58.58c-.47-.41-1.04-.9-1.67-1.38,5.65-4.58,12.74-7.1,20-7.1s14.35,2.52,19.99,7.1c-.62.47-1.2.96-1.67,1.38l-.58-.58c-.83-.83-2.18-.83-3.02,0-.4.4-.62.94-.62,1.51s.22,1.11.62,1.51l.57.57c-.82.94-1.6,1.96-2.32,3.03l-.7-.4c-.5-.28-1.07-.36-1.62-.21-.55.15-1.01.5-1.3,1-.58,1.02-.23,2.33.78,2.92l.7.4c-.54,1.09-1.03,2.28-1.46,3.53l-.78-.21c-.55-.15-1.13-.07-1.62.21-.49.28-.85.75-.99,1.3-.15.55-.07,1.12.21,1.62s.75.84,1.3.99l.77.21c-.24,1.23-.4,2.5-.49,3.79h-.8c-1.18,0-2.14.96-2.14,2.13s.96,2.14,2.14,2.14h.8c.09,1.3.25,2.57.49,3.78l-.77.21c-.55.15-1.01.5-1.3.99-.29.5-.36,1.07-.21,1.62.25.93,1.09,1.58,2.06,1.58.19,0,.37-.02.56-.07l.78-.21c.43,1.24.92,2.43,1.46,3.53l-.7.4c-.49.28-.85.74-.99,1.29-.15.55-.07,1.12.21,1.62.38.66,1.09,1.07,1.85,1.07.37,0,.74-.1,1.06-.29l.7-.4c.72,1.07,1.5,2.09,2.32,3.03l-.58.58c-.4.4-.62.94-.62,1.51s.22,1.1.62,1.51c.81.81,2.21.81,3.02,0l.58-.57c.6.52,1.14.97,1.67,1.37-5.64,4.58-12.72,7.1-19.99,7.1Zm23.17-10.06c-.62-.44-1.23-.92-1.83-1.42l.62-.63c.4-.4.62-.94.62-1.51s-.22-1.1-.62-1.5c-.4-.41-.94-.63-1.51-.63h0c-.57,0-1.1.22-1.5.63l-.63.63c-.58-.68-1.13-1.4-1.64-2.15l.77-.44c1.02-.59,1.37-1.9.78-2.92-.28-.49-.74-.85-1.3-1-.55-.15-1.13-.07-1.62.21l-.76.44c-.39-.82-.74-1.66-1.04-2.49l.86-.23c.55-.15,1.01-.5,1.3-.99.29-.5.36-1.07.21-1.62-.3-1.14-1.47-1.81-2.61-1.51l-.86.23c-.17-.91-.29-1.81-.36-2.68h.89c1.18,0,2.14-.96,2.14-2.14s-.96-2.13-2.14-2.13h-.89c.07-.87.19-1.75.36-2.68l.86.23c.17.05.35.07.55.07.96,0,1.81-.65,2.06-1.58.15-.55.07-1.12-.21-1.62-.28-.49-.75-.84-1.3-.99l-.86-.23c.31-.86.66-1.69,1.04-2.49l.76.44c.32.19.69.3,1.07.3.76,0,1.47-.41,1.85-1.07.28-.49.36-1.06.21-1.62-.15-.55-.5-1.01-.99-1.29l-.77-.45c.5-.73,1.05-1.45,1.64-2.14l.63.62c.81.81,2.21.8,3.01,0,.4-.4.62-.94.62-1.51s-.22-1.11-.62-1.51l-.62-.62c.56-.48,1.16-.95,1.83-1.42,5.55,5.92,8.6,13.62,8.6,21.7s-3.05,15.79-8.6,21.71Z"/>
  </g>
</svg>