<?xml version="1.0" encoding="UTF-8"?>
<svg xmlns="http://www.w3.org/2000/svg" viewBox="0 0 80 80">
  <defs>
    <style>
      .cls-1 {
        fill: none;
      }

      .cls-1, .cls-2 {
        stroke-width: 0px;
      }

      .cls-2 {
        fill: #e2d0af;
      }
    </style>
  </defs>
  <g id="board">
    <rect class="cls-1" width="80" height="80"/>
    <rect class="cls-1" width="80" height="80"/>
  </g>
  <g id="sport_icon">
    <path class="cls-2" d="m39.9,0C17.92.03.02,17.98,0,40.01c0,10.67,4.12,20.67,11.62,28.18,7.62,7.62,17.84,11.81,28.78,11.81h.03c10.54,0,20.47-4.21,27.97-11.84,7.5-7.62,11.62-17.7,11.6-28.37C79.97,17.85,61.98,0,39.9,0Zm35.01,38.58c-7.57-.98-14.01-4.01-19.68-9.26l12.03-11.19c4.78,6.05,7.29,12.74,7.65,20.45Zm-11.09-24.13l-12.01,11.14c-4.71-6.1-7.18-12.75-7.56-20.31,7.7,1.04,14.1,4.04,19.56,9.17Zm-24.58-9.38c.37,8.98,3.35,17.04,8.87,23.97l-7.97,7.41L18.13,12.76c6.19-4.9,13.1-7.42,21.11-7.69Zm-24.79,11.14l21.99,23.67-7.72,7.18c-6.61-6.16-14.5-9.78-23.47-10.77-.17-5.14,4.68-15.75,9.2-20.08Zm-9.36,25.14h.1c5.35,0,16.07,4.95,19.86,9.16l-12.29,11.38c-4.81-6.03-7.32-12.75-7.67-20.54Zm11.1,24.24l12.28-11.43c4.81,6.21,7.3,12.95,7.63,20.58-7.68-.93-14.2-3.92-19.91-9.15Zm24.99,9.36c-.37-9.17-3.33-17.09-9.06-24.21l7.75-7.16,22.01,23.68c-6.1,4.83-12.87,7.34-20.7,7.68Zm24.4-11.11l-22.01-23.69,7.95-7.38c6.51,6.14,14.33,9.81,23.25,10.91-.89,7.8-3.9,14.4-9.19,20.16Z"/>
  </g>
</svg>