<?xml version="1.0" encoding="UTF-8"?>
<svg xmlns="http://www.w3.org/2000/svg" viewBox="0 0 80 80">
  <defs>
    <style>
      .cls-1 {
        fill: none;
      }

      .cls-1, .cls-2 {
        stroke-width: 0px;
      }

      .cls-2 {
        fill: #e2d0af;
      }
    </style>
  </defs>
  <g id="board">
    <rect class="cls-1" x="0" width="80" height="80"/>
  </g>
  <g id="sport_icon">
    <path class="cls-2" d="m58.57,10.25c-5.79,0-10.5,4.71-10.5,10.5s4.71,10.5,10.5,10.5,10.5-4.71,10.5-10.5-4.71-10.5-10.5-10.5Zm0,16c-3.03,0-5.5-2.47-5.5-5.5s2.47-5.5,5.5-5.5,5.5,2.47,5.5,5.5-2.47,5.5-5.5,5.5Zm-18.45,41.13c0-1.1-.9-2-2-2-4.04,0-7.32-3.28-7.32-7.32,0-1.1-.9-2-2-2s-2,.9-2,2c0,6.24,5.08,11.32,11.32,11.32,1.1,0,2-.9,2-2Zm38.55-46.62c0-11.08-9.02-20.1-20.1-20.1s-20.1,9.02-20.1,20.1c0,8.61,5.45,15.95,13.07,18.81-.35,1.36-1.09,2.79-1.88,4.03-2.9-4.2-7.5-7.13-12.79-7.82-.86-9-8.48-16.06-17.73-16.06-1.38,0-2.5,1.12-2.5,2.5s1.12,2.5,2.5,2.5c7.06,0,12.81,5.73,12.81,12.77,0,2-.45,3.9-1.33,5.68-.62,1.24-.11,2.74,1.12,3.35.36.18.74.26,1.11.26.92,0,1.8-.51,2.24-1.38.73-1.47,1.25-3.01,1.54-4.59,6.39,1.05,11.29,6.6,11.29,13.28,0,1.38,1.12,2.5,2.5,2.5s2.5-1.12,2.5-2.5c0-1.86-.28-3.66-.8-5.35,1.28-1.62,3.45-4.71,4.27-7.97.71.08,1.43.12,2.16.12,2.83,0,5.52-.6,7.97-1.66v12.2c0,6.66-7.06,13.83-10.86,17.69-.69.7-1.3,1.32-1.78,1.84-.43.46-.66,1.07-.66,1.7,0,.59-.8,1.75-1.48,1.75h-6.66c-13.14,0-23.25-7.6-25.85-19.14,2-.01,3.96-.35,5.83-1.01,1.3-.46,1.99-1.89,1.53-3.19-.46-1.3-1.89-1.98-3.19-1.53-1.37.48-2.81.73-4.28.73-7.06,0-12.81-5.73-12.81-12.77,0-1.38-1.12-2.5-2.5-2.5s-2.5,1.12-2.5,2.5c0,8.02,5.36,14.81,12.69,17.01,2.39,14.69,15.05,24.89,31.08,24.89h6.66c3.22,0,5.8-2.82,6.36-5.63.33-.35.71-.73,1.12-1.14,4.6-4.67,12.3-12.49,12.3-21.19v-14.66c0-.2-.03-.39-.08-.58,4.4-3.69,7.21-9.22,7.21-15.4Zm-20.1,15.1c-8.33,0-15.1-6.77-15.1-15.1s6.77-15.1,15.1-15.1,15.1,6.77,15.1,15.1-6.77,15.1-15.1,15.1Z"/>
  </g>
</svg>