<?xml version="1.0" encoding="UTF-8"?>
<svg xmlns="http://www.w3.org/2000/svg" viewBox="0 0 80 80">
  <defs>
    <style>
      .cls-1 {
        fill: none;
      }

      .cls-1, .cls-2 {
        stroke-width: 0px;
      }

      .cls-2 {
        fill: #e2d0af;
      }
    </style>
  </defs>
  <g id="board">
    <rect class="cls-1" width="80" height="80"/>
  </g>
  <g id="sport_icon">
    <path class="cls-2" d="m73.81,16.69c-1.22-1.27-2.44-2.53-3.66-3.78-1.62-1.66-3.24-3.33-4.84-5.02C58.36.57,46.15-.67,38.09,5.13c-2.42,1.74-4.44,3.76-6.3,5.75-1.56-.42-3.13-.46-4.59-.44-2.69.04-5.19,1.12-7.24,3.11-1.36,1.32-2.74,2.61-4.13,3.9-3.26,3.03-6.63,6.16-9.59,9.7-3.43,4.1-3.37,9.89.11,14.51-1.87,1.61-3.7,3.41-5.19,5.58-1.9,2.78-1.43,7.74.98,10.2,5.81,5.93,11.68,12.02,17.35,17.91l.73.76c1.62,1.68,3.83,2.42,6,2.42s4.16-.71,5.57-1.95c1.64-1.45,3.31-2.95,4.84-4.66.46.21.94.42,1.47.58,1.33.42,2.62.63,3.86.63,2.94,0,5.65-1.16,8.1-3.46,3.29-3.09,6.57-6.28,9.75-9.37,1.6-1.55,3.19-3.11,4.8-4.65.79-.76,1.34-1.59,1.68-2.47.02-.02.04-.03.07-.04,5.05-3.65,10.17-7.77,12.4-14.53,2.69-8.15.97-15.72-4.96-21.91Zm-55.7,49.22c-3.97-4.11-7.99-8.27-12-12.36-.63-.65-.71-2.64-.37-3.19,1.16-1.69,2.63-3.15,4.42-4.67.08.08.16.15.25.23.99.92,1.92,1.8,2.75,2.74,1.43,1.63,2.96,3.17,4.43,4.66.64.65,1.29,1.3,1.92,1.96l4.53,4.68-5.94,5.94Zm9.98,6.55c-.57.51-2.73.97-3.86-.2l-.73-.76c-.51-.53-1.03-1.07-1.54-1.6l5.96-5.96c1.48,1.49,2.88,2.9,4.17,4.41.05.06.11.12.16.18-1.25,1.35-2.66,2.61-4.16,3.93Zm27.87-16.13c-3.16,3.07-6.42,6.25-9.68,9.3-2.01,1.88-4.01,2.37-6.5,1.58-1.33-.42-2.31-1.12-3.49-2.49-1.44-1.67-2.99-3.23-4.49-4.74-.63-.63-1.26-1.26-1.88-1.91l-6.42-6.64c-.65-.67-1.31-1.34-1.97-2-1.48-1.5-2.89-2.91-4.21-4.42-1.01-1.15-2.09-2.16-3.13-3.13-1.2-1.12-2.32-2.17-3.27-3.35-1.65-2.07-2.63-5.2-.44-7.82,2.74-3.27,5.83-6.15,9.11-9.19,1.39-1.29,2.83-2.63,4.23-3.99,1.03-1,2.19-1.52,3.46-1.54,2.43-.04,3.81.17,4.98,1.44,4.1,4.47,8.42,8.85,12.59,13.08l1.08,1.1c.74.75,1.17,1.66,1.44,3.04.49,2.48-.14,4.71-1.68,5.96-3.17,2.59-6.99,2.34-9.73-.62-2.99-3.24-6.12-6.43-9.14-9.52-1.33-1.36-2.66-2.72-3.99-4.09-1.06-1.1-2.82-1.13-3.92-.06-1.1,1.06-1.13,2.82-.06,3.92,1.33,1.38,2.67,2.74,4.01,4.11,2.99,3.06,6.09,6.23,9.03,9.41,4.2,4.55,10.29,5.42,15.42,2.44.4.4.79.82,1.2,1.26.65.71,1.33,1.43,2.1,2.14,2.29,2.08,5.03,3.32,8.38,3.8-1.02.98-2.03,1.97-3.04,2.95Zm17.54-19.46c-1.62,4.91-5.45,8.17-9.67,11.26-1.06-.28-2.05-.24-2.84-.21-.41.02-.81.03-1.08,0-2.3-.31-4.07-1.08-5.56-2.43-.59-.54-1.16-1.15-1.76-1.8-.39-.42-.79-.85-1.21-1.28,1.53-2.45,2.08-5.55,1.44-8.83-.48-2.46-1.41-4.32-2.93-5.86l-1.08-1.1c-4.07-4.13-8.27-8.39-12.25-12.71,1.46-1.53,3.03-3.02,4.77-4.28,5.89-4.24,14.84-3.31,19.95,2.08,1.61,1.7,3.25,3.39,4.89,5.07,1.21,1.25,2.43,2.5,3.63,3.76,4.55,4.74,5.76,10.09,3.7,16.34Z"/>
  </g>
</svg>