<?xml version="1.0" encoding="UTF-8"?>
<svg xmlns="http://www.w3.org/2000/svg" viewBox="0 0 80 80">
  <defs>
    <style>
      .cls-1 {
        fill: none;
      }

      .cls-1, .cls-2 {
        stroke-width: 0px;
      }

      .cls-2 {
        fill: #e2d0af;
      }
    </style>
  </defs>
  <g id="board">
    <rect class="cls-1" x="0" width="80" height="80"/>
  </g>
  <g id="sport_icon">
    <path class="cls-2" d="m66.78,0H13.22C5.92,0,0,5.89,0,13.16v53.67C0,74.11,5.92,80,13.22,80h53.56c7.3,0,13.22-5.89,13.22-13.16V13.16c0-7.27-5.92-13.16-13.22-13.16Zm-6.58,19.31c1.61-.88,4.87-2.45,7.64-2.45,1.17,0,2.25.28,3.09,1,1.56,1.36,1.71,3.71.44,6.96-1.7,4.36-4.6,4.99-6.13,4.99-.15,0-.3,0-.42-.01-3.3-.26-6.13-3.23-6.69-5.84-.42-1.98.35-3.72,2.08-4.66Zm-4.2,23.34c-1.75,2.1-4.18,3.01-6.48,3.01-1.63,0-3.21-.46-4.42-1.28-2.29-1.54-3.88-4.75-1.47-9.13,1.33-2.43,3.43-3.71,5.86-3.62,2.87.11,5.86,2.25,7.13,5.08.96,2.15.74,4.32-.61,5.94Zm-34.98,27.42c-.72,1.78-2.62,3.03-5.09,3.32-.4.05-.8.07-1.19.07-2.6,0-4.98-1.04-6.26-2.81-.75-1.04-1.77-3.29-.17-6.67,1.5-3.17,5.74-3.62,8.96-2.21,3.6,1.57,5.11,4.9,3.74,8.29Zm-8.91-23.67c-.08,0-.15,0-.23,0-3.33-.09-4.55-1.95-4.57-3.65v-.07c0-2.32,1.68-9.93,5.54-10.83,2.2-.51,4.57,1.13,5.78,2.16,2.16,1.83,4.28,4.68,4.13,6.91-.22,3.26-7,5.49-10.65,5.49Zm8.83-29.72c-1.81,1.6-3.36,2.09-4.58,2.09s-2.2-.53-2.69-.9c-2.66-2.02-3.11-6.85-1.72-9.66,0,0,0-.01,0-.02.81-1.59,2.33-2.44,4.17-2.31,2.69.19,5.5,2.41,6.4,5.05.72,2.11.14,4.2-1.59,5.74Zm2.56,8.89c.77-3.89,4.42-5.89,7.59-5.89.13,0,.26,0,.39,0,3.37.17,5.75,2.47,6.06,5.83.41,4.43-1.82,6.39-3.18,7.17-1.05.6-2.28.89-3.53.89-1.65,0-3.34-.51-4.72-1.5-2.14-1.53-3.12-3.96-2.62-6.5Zm14.37,34.36c-.85.84-2.37,1.21-4.06,1.21-2.59,0-5.63-.85-7.44-2.17-2.34-1.7-2.96-4.23-1.66-6.76,2.36-4.56,5.02-5.6,6.93-5.6.1,0,.21,0,.31,0,3.33.19,5.67,3.31,6.67,5.93,1.13,2.99.85,5.82-.74,7.39Zm4.11-53.79c1.52-1.6,3.28-2.44,5.09-2.44.5,0,1.01.07,1.52.2,2.77.72,5.25,3.5,6.05,6.75.62,2.52.08,4.78-1.49,6.19-.7.64-1.56.95-2.51.95-1.82,0-3.99-1.14-6.14-3.32-2.44-2.47-4.57-6.14-2.51-8.33Zm18.66,62.48c-.29,1.33-1.48,2.2-3.71,3.42-1.19.65-2.81.93-4.56.93-3.78,0-8.17-1.33-10.13-3.17-.45-.42-.58-.93-.58-1.42,0-.59.19-1.16.33-1.55.79-2.27,3.87-8.28,8.55-8.7,2.94-.27,5.61,1.66,7.93,5.72.36.64.74,1.15,1.07,1.6.68.93,1.38,1.88,1.1,3.17Zm12.53-10.09c-1.31,1.98-3.15,3.05-5.16,3.05-.38,0-.77-.03-1.17-.12-2.41-.48-4.47-2.47-4.88-4.73-.35-1.89.49-3.69,2.26-4.81,1.85-1.17,4.1-1.95,6.08-1.95,1.39,0,2.64.39,3.53,1.29.93.94,2.08,3.14-.66,7.27Z"/>
  </g>
</svg>