<?xml version="1.0" encoding="UTF-8"?>
<svg xmlns="http://www.w3.org/2000/svg" viewBox="0 0 80 80">
  <defs>
    <style>
      .cls-1 {
        fill: none;
      }

      .cls-1, .cls-2 {
        stroke-width: 0px;
      }

      .cls-2 {
        fill: #e2d0af;
      }
    </style>
  </defs>
  <g id="board">
    <rect class="cls-1" x="0" width="80" height="80"/>
  </g>
  <g id="sport_icon">
    <path class="cls-2" d="m33.13,28.1h.06c3.72,0,7.22-1.44,9.85-4.05,2.64-2.62,4.1-6.13,4.11-9.87.02-7.68-6.25-13.95-13.96-13.97h-.03c-7.63,0-13.86,6.2-13.89,13.83-.02,7.72,6.19,14.02,13.86,14.05Zm.02-21.9h.02c4.42.01,8,3.58,7.99,7.97,0,2.14-.84,4.14-2.34,5.63-1.51,1.5-3.51,2.3-5.66,2.31-4.45-.02-7.92-3.56-7.9-8.05.01-4.34,3.56-7.86,7.9-7.86Zm43.61,7.28c-1.65,0-2.99,1.34-2.99,2.99v16.79c0,2.99-2.43,5.42-5.42,5.42h-21.91c-6.48,0-11.74,5.27-11.74,11.74v26.57c0,1.65,1.34,2.99,2.99,2.99s2.99-1.34,2.99-2.99v-26.57c0-3.18,2.58-5.76,5.76-5.76h21.91c6.29,0,11.41-5.12,11.41-11.41v-16.79c0-1.65-1.34-2.99-2.99-2.99Zm-40.59,24.13c6.51,0,12.54-3.24,16.12-8.67l16.05-24.29c.91-1.38.53-3.24-.85-4.15-1.38-.91-3.24-.53-4.15.85l-16.05,24.29c-2.48,3.75-6.64,5.99-11.13,5.99H3.24c-1.65,0-2.99,1.34-2.99,2.99s1.34,2.99,2.99,2.99h32.93Zm-11.18,6.35c-.93-.93-2.32-1.21-3.54-.7-1.22.5-2,1.68-2,3v10.62c-1.7-.98-3.71-1.56-5.88-1.56-5.99,0-10.87,4.38-10.87,9.76s4.87,9.76,10.87,9.76,10.87-4.38,10.87-9.76v-14.61l2.62,2.62c.97.97,2.55.97,3.53,0,.97-.97.97-2.55,0-3.53l-5.6-5.6Zm-11.42,25.88c-3.24,0-5.88-2.14-5.88-4.77s2.64-4.77,5.88-4.77,5.88,2.14,5.88,4.77-2.64,4.77-5.88,4.77Z"/>
  </g>
</svg>