<?xml version="1.0" encoding="UTF-8"?>
<svg xmlns="http://www.w3.org/2000/svg" viewBox="0 0 80 80">
  <defs>
    <style>
      .cls-1 {
        fill: none;
      }

      .cls-1, .cls-2 {
        stroke-width: 0px;
      }

      .cls-2 {
        fill: #e2d0af;
      }
    </style>
  </defs>
  <g id="board">
    <rect class="cls-1" x="0" width="80" height="80"/>
  </g>
  <g id="sport_icon">
    <path class="cls-2" d="m68.2,54.61c0-2.06-1.67-3.73-3.73-3.73s-3.73,1.67-3.73,3.73,1.67,3.73,3.73,3.73,3.73-1.67,3.73-3.73Zm0,5.72c-1.7,0-3.08,1.38-3.08,3.08s1.38,3.08,3.08,3.08,3.08-1.38,3.08-3.08-1.38-3.08-3.08-3.08Zm-6.7-50.7H28.18c-7.3,0-13.16,3.82-15.87,9.74,0,0,0,0,0,0h-1.1c-1.83,0-3.35,1.33-3.66,3.08,0,0,0,0,0,0-3.93,1.51-6.54,5.15-6.54,9.19v14.65c0,11.64,9.48,21.12,21.13,21.12h10.81c2.27,4.25,6.75,7.14,11.9,7.14,7.43,0,13.47-6.04,13.47-13.46s-6.05-13.47-13.47-13.47-13.47,6.04-13.47,13.47c0,.36.01.72.05,1.06h-9.29c-8.75,0-15.87-7.12-15.87-15.86v-14.65c0-1.23.53-2.36,1.42-3.21,0,0,0,0,.01,0,.48,1.43,1.8,2.47,3.38,2.53,1.76,8.34,9.17,14.62,18.04,14.62,3.54,0,6.89-.99,9.74-2.76,1.78,1.24,3.81,1.94,5.95,1.94s4.19-.71,5.98-1.96c2.86,1.79,6.22,2.78,9.78,2.78,10.17,0,18.44-8.28,18.44-18.44s-7.36-17.5-17.5-17.5Zm-16.66,42.54c4.92,0,8.92,4,8.92,8.92s-4,8.91-8.92,8.91c-2.69,0-5.12-1.2-6.75-3.09-1.15-1.33-1.92-3-2.11-4.84-.04-.32-.06-.65-.06-.98,0-4.92,4-8.92,8.92-8.92Zm15.72-11.86c-5.48,0-10.3-3.3-12.28-8.41l-.09-.25c-.24-.65-.97-2.63-3.37-2.63-1.63,0-2.75.86-3.31,2.58-.03.09-.06.19-.11.3-1.99,5.11-6.8,8.41-12.28,8.41-7.27,0-13.18-5.91-13.18-13.18s4.92-12.24,12.24-12.24h33.32c7.32,0,12.24,4.92,12.24,12.24s-5.91,13.18-13.18,13.18Zm-15.72,26.17c.85,0,1.65-.19,2.37-.55,1.79-.87,3.03-2.71,3.03-4.84,0-2.99-2.42-5.4-5.4-5.4s-5.4,2.41-5.4,5.4c0,.36.03.72.11,1.06.49,2.46,2.67,4.32,5.29,4.32Zm23.91-39.5c-1.13-.31-2.28.36-2.58,1.48-1.03,3.84-4.78,4.41-4.96,4.44-1.15.15-1.96,1.19-1.82,2.35.13,1.06,1.04,1.84,2.08,1.84.08,0,.18,0,.26-.01.27-.03,6.73-.89,8.5-7.53.31-1.11-.37-2.27-1.48-2.57Z"/>
  </g>
</svg>