<?xml version="1.0" encoding="UTF-8"?>
<svg xmlns="http://www.w3.org/2000/svg" viewBox="0 0 80 80">
  <defs>
    <style>
      .cls-1 {
        fill: none;
      }

      .cls-1, .cls-2 {
        stroke-width: 0px;
      }

      .cls-2 {
        fill: #e2d0af;
      }
    </style>
  </defs>
  <g id="board">
    <rect class="cls-1" x="0" width="80" height="80"/>
  </g>
  <g id="sport_icon">
    <path class="cls-2" d="m79.85,25.26l-3.45-18.23c-.76-4.01-4.27-6.92-8.36-6.92h0c-.53,0-1.06.05-1.58.15l-6.1,1.15c-2.23.42-4.16,1.69-5.44,3.57-1.28,1.88-1.75,4.14-1.33,6.37l.54,2.84-16.24,3.07-.54-2.84c-.76-4.01-4.27-6.92-8.36-6.92h0c-.53,0-1.06.05-1.58.15l-6.1,1.15c-2.23.42-4.16,1.69-5.44,3.57-1.28,1.88-1.75,4.14-1.33,6.37l3.45,18.23c.76,4.01,4.27,6.92,8.36,6.92.53,0,1.06-.05,1.58-.15l6.09-1.15c4.61-.87,7.64-5.33,6.77-9.94l-.25-1.34,16.24-3.07.25,1.34c.76,4.01,4.27,6.92,8.36,6.92.53,0,1.06-.05,1.58-.15l6.1-1.15c2.23-.42,4.16-1.69,5.44-3.57s1.75-4.14,1.33-6.37Zm-46.76,12.36l-6.09,1.15c-.21.04-.43.06-.64.06-1.62,0-3.07-1.16-3.39-2.8l-3.45-18.23c-.35-1.86.88-3.67,2.74-4.02l6.09-1.15c.21-.04.43-.06.64-.06,1.62,0,3.07,1.16,3.39,2.8l3.45,18.23c.35,1.86-.88,3.67-2.74,4.02Zm6.52-11.28l-.78-4.11,16.24-3.07.78,4.11-16.24,3.07Zm32.52,3.88l-6.09,1.15c-.21.04-.43.06-.64.06-1.62,0-3.07-1.16-3.39-2.8l-3.45-18.23c-.35-1.86.88-3.67,2.74-4.02l6.09-1.15c.21-.04.43-.06.64-.06,1.62,0,3.07,1.16,3.39,2.8l3.45,18.23c.35,1.86-.88,3.67-2.74,4.02Zm-10.14,12.79c-.76-4.01-4.27-6.92-8.36-6.92h0c-.53,0-1.06.05-1.58.15l-6.1,1.15c-2.23.42-4.16,1.69-5.44,3.57s-1.75,4.14-1.33,6.37l.54,2.84-16.24,3.08-.54-2.84c-.76-4.01-4.27-6.92-8.36-6.92-.53,0-1.06.05-1.58.15l-6.09,1.15c-2.23.42-4.16,1.69-5.44,3.57-1.28,1.88-1.75,4.14-1.33,6.37l3.45,18.23c.76,4.01,4.27,6.92,8.36,6.92.53,0,1.06-.05,1.58-.15l6.09-1.15c4.61-.87,7.64-5.33,6.77-9.94l-.25-1.34,16.24-3.08.25,1.34c.76,4.01,4.27,6.92,8.36,6.92.53,0,1.06-.05,1.58-.15l6.1-1.15c4.61-.87,7.64-5.33,6.77-9.94l-3.45-18.23Zm-43.3,30.59l-6.09,1.15c-.21.04-.43.06-.64.06-1.62,0-3.07-1.16-3.39-2.8l-3.45-18.23c-.35-1.86.88-3.67,2.74-4.02l6.09-1.15c.21-.04.43-.06.64-.06,1.62,0,3.07,1.16,3.39,2.8l3.45,18.23c.35,1.86-.88,3.67-2.74,4.02Zm6.52-11.28l-.78-4.11,16.24-3.08.78,4.11-16.24,3.08Zm32.52,3.88l-6.09,1.15c-.21.04-.43.06-.64.06-1.62,0-3.07-1.16-3.39-2.8l-3.45-18.23c-.35-1.86.88-3.67,2.74-4.02l6.09-1.15c.21-.04.43-.06.64-.06,1.62,0,3.07,1.16,3.39,2.8l3.45,18.23c.35,1.86-.88,3.67-2.74,4.02Z"/>
  </g>
</svg>