<?xml version="1.0" encoding="UTF-8"?>
<svg xmlns="http://www.w3.org/2000/svg" viewBox="0 0 100 80">
  <defs>
    <style>
      .cls-1 {
        fill: none;
      }

      .cls-1, .cls-2 {
        stroke-width: 0px;
      }

      .cls-2 {
        fill: #e4d2b1;
      }
    </style>
  </defs>
  <g id="board">
    <rect class="cls-1" width="100" height="80"/>
  </g>
  <g id="sport_icon">
    <path class="cls-2" d="m20.79,4.71c3.09.87,10.9,3.8,16.78,12.12,4.17,5.89,8.64,7.24,11.65,7.33.11,0,.23,0,.34,0,.81,0,1.61-.09,2.38-.25.73-.16,1.33-.64,1.65-1.31.32-.67.3-1.43-.06-2.13-.49-.95-1.58-1.46-2.65-1.21-1.84.41-5.52.28-9.4-5.2C34.67,4.43,25.65,1.08,22.09.09c-.64-.18-1.33-.08-1.89.27-.56.35-.95.93-1.08,1.66-.21,1.2.51,2.36,1.67,2.68Zm78.74,29.73c-.11-.73-.53-1.36-1.17-1.72l-.5.87.45-.9c-.95-.54-2.14-.36-2.91.44-1.07,1.11-3.03,2.24-6.23,1.32-3.4-.97-4.17-3.03-5.24-5.87-1.21-3.22-2.72-7.22-8.54-8.85-6.39-1.79-10.68,1.6-12.57,5.37-.03.06-.11.06-.13.06-3.28-.17-6.75.3-10.02,1.34-4.2,1.35-10.86.55-15.81-6.11-7.99-10.76-16.12-13.46-20.73-14.06l.22-.4c.29-.53.36-1.14.2-1.72-.17-.58-.55-1.06-1.08-1.35-.53-.29-1.14-.36-1.72-.2-.58.17-1.06.55-1.35,1.08l-1.89,3.42c-.18.22-.33.48-.42.76L.72,24.78c-.56,1.01-.23,2.28.76,2.89l3.86,2.38c1.08.66,2.48.53,3.42-.33,2.43-2.23,4.69-3.78,6.21-4.26.09-.03.17-.05.26-.08.69,1.05,1.5,2.84,1.5,5.44,0,1.29-.02,2.41-.05,3.51-.07,3.32-.12,5.71.66,9.1.11.49-.09,1-.5,1.26l-10.19,6.52c-1.37.88-1.85,2.63-1.11,4.09l4.67,9.22c.78,1.55,2.21,2.65,3.91,3.01l3.73.8c.63.13,1.27.02,1.81-.33.54-.35.91-.88,1.04-1.51s.02-1.27-.33-1.81c-.35-.54-.88-.91-1.51-1.04l-2.43-.52c-1.1-.24-2.03-.95-2.54-1.96l-2.39-4.72c-.16-.31-.17-.67-.03-.98.14-.32.42-.55.75-.65,7.46-2.05,11.8-2.74,12.45-2.6.74.28,1.06.49,1.49.79.57.39,1.28.88,2.71,1.4.15.05.27.18.34.33l2.71,6.7c.27.68.37,1.41.29,2.13l-.92,8.11c-.09.8-.42,1.54-.96,2.13l-1.95,2.19c-.64.71-.79,1.7-.4,2.58.39.87,1.23,1.42,2.19,1.42.68,0,1.34-.29,1.79-.8l2.54-2.85c.81-.91,1.31-2.03,1.45-3.24l1.11-9.7c.12-1.05-.03-2.13-.42-3.11l-3.4-8.4c-.33-.81-.99-1.46-1.81-1.77-2.11-.79-2.51-1.05-2.56-1.08-.55-.38-1.23-.84-2.52-1.32-.7-.26-2.04-.47-5.68.17,1.42-1.17,2.11-3.02,1.79-4.87-.66-3.77-1.01-6.82-.97-8.6.02-1.07.05-2.26.05-3.61,0-3.68-1.18-6.35-2.27-8.03,1.97-2.21,2.19-4.85,2.15-6.26-.02-.67-.34-1.3-.87-1.7-.52-.4-1.19-.55-1.83-.4l-.11.02c-1.03.24-1.75,1.19-1.71,2.26.05,1.53-.47,3.55-3.27,4.43-2.6.82-5.2,2.79-6.91,4.29-.06.05-.13.06-.19.02l-.61-.37c-.07-.04-.1-.14-.05-.21l7.28-13.13c.28-.5.81-.78,1.34-.76,3.66.18,10.93,2.01,18.54,12.26,6.46,8.7,15.41,9.65,21.12,7.82,5.97-1.91,12.44-1.4,16.1,1.28,2.07,1.51,3.12,3.63,3.12,6.32,0,4.12-.98,6.5-1.85,8.61-.67,1.64-1.37,3.33-1.37,5.4,0,1.76.29,3.61.87,5.5-2.74-1.28-6.34-3.44-8.83-6.72-3.34-4.4-3.65-8.43-3.55-10.43.06-1.08-.62-2.08-1.64-2.42-.71-.24-1.48-.14-2.1.28-.62.41-1.01,1.07-1.06,1.82-.11,1.41-.06,3.63.69,6.29-2.92,1.63-8.84,4.38-15.75,4.52-1.28.03-2.31,1.06-2.35,2.36-.02.68.24,1.31.72,1.78.48.47,1.12.73,1.83.7,8.24-.33,13.87-2.89,17.38-4.79.08-.05.17-.02.22.06.26.45.53.91.84,1.38.3.45.61.9.95,1.35,4.14,5.45,10.36,8.27,13.81,9.49l-.84,8.19c-.09.84-.42,1.62-.95,2.26l-1.49,1.77c-.6.72-.73,1.7-.34,2.56.4.85,1.23,1.38,2.17,1.38.71,0,1.38-.31,1.84-.86l2.04-2.43c.8-.95,1.29-2.11,1.41-3.34l1.07-10.48c.12-1.21-.07-2.46-.56-3.61-.6-1.4-1.59-4.13-1.59-6.6,0-1.12.42-2.15,1.01-3.58.98-2.39,2.21-5.36,2.21-10.43,0-4.24-1.76-7.77-5.09-10.19-1.37-1-2.99-1.79-4.81-2.36-.12-.04-.16-.13-.17-.17-.03-.09.02-.14.03-.16,1.48-1.65,3.49-2.14,5.98-1.44,3.48.98,4.26,3.05,5.35,5.92,1.2,3.19,2.7,7.16,8.41,8.79,1.2.34,2.39.52,3.53.52,3.93,0,6.4-1.98,7.53-3.16.5-.53.73-1.25.63-1.97Zm-40.09,26.01h0c-1.22-.57-2.98-1.79-4.46-4.41-.32-.59-.87-1.02-1.5-1.19-.62-.17-1.26-.08-1.81.26-1.08.66-1.45,2.05-.83,3.16,1.35,2.43,3.14,4.3,5.49,5.71.28.17.43.5.39.82l-1.3,7.81c-.08.57-.32,1.1-.69,1.55l-1.59,1.9c-.6.72-.73,1.7-.34,2.56.4.85,1.23,1.38,2.17,1.38.71,0,1.38-.31,1.84-.86l2.17-2.59c.56-.67.92-1.48,1.05-2.32l1.58-9.68c.25-1.71-.64-3.39-2.16-4.1Z"/>
  </g>
</svg>