<?xml version="1.0" encoding="UTF-8"?>
<svg xmlns="http://www.w3.org/2000/svg" viewBox="0 0 80 80">
  <defs>
    <style>
      .cls-1 {
        fill: none;
      }

      .cls-1, .cls-2 {
        stroke-width: 0px;
      }

      .cls-2 {
        fill: #e4d2b1;
      }
    </style>
  </defs>
  <g id="board">
    <rect class="cls-1" width="80" height="80"/>
  </g>
  <g id="sport_icon">
    <path class="cls-2" d="m78.39,11.74c-.73-5.3-4.96-9.5-10.27-10.21-3.49-.46-9-.83-15.44.05-11.56,1.58-21.95,6.5-30.88,14.64C16.75,20.82,1.38,34.81,1.06,66.87c-.03,3.3,1.32,6.49,3.71,8.77,2.22,2.12,5.19,3.3,8.24,3.3.23,0,.45,0,.68-.02,5.4-.31,10.73-1.02,15.82-2.1,16.21-3.45,28.38-10.34,36.19-20.47,1.16-1.27,9.89-11.29,12.51-27.46.92-5.64.98-11.42.19-17.17ZM13.34,72.94c-1.66.1-3.23-.49-4.43-1.64-1.21-1.15-1.87-2.71-1.85-4.37.03-3.22.19-6.82.69-10.65l15.57,15.57c-3.27.52-6.6.89-9.97,1.08Zm47.88-20.57c-.07.08-.14.15-.2.24-6.75,8.82-17.44,14.91-31.76,18.13l-20.47-20.47c2.15-9.72,6.85-20.32,17.05-29.6,7.78-7.08,16.77-11.44,26.73-12.99l19.57,21.08c-2.61,14.58-10.83,23.54-10.91,23.62Zm11.67-30.16l-14.05-15.13c.61-.02,1.2-.03,1.78-.03,2.69,0,4.98.2,6.72.43,2.65.35,4.75,2.44,5.12,5.08.44,3.22.59,6.45.44,9.65Zm-23.91-.15c-.98-.98-2.56-.98-3.54,0-.49.49-.73,1.13-.73,1.77s.24,1.28.73,1.77l1.83,1.83-7.27,7.27-1.83-1.83c-.98-.98-2.56-.98-3.54,0-.49.49-.73,1.13-.73,1.77s.24,1.28.73,1.77l1.83,1.83-7.26,7.26-1.84-1.84c-.98-.98-2.56-.98-3.54,0-.49.49-.73,1.13-.73,1.77s.24,1.28.73,1.77l1.84,1.83-3.63,3.64c-.49.49-.73,1.13-.73,1.77s.24,1.28.73,1.77c.49.49,1.13.73,1.77.73s1.28-.24,1.77-.73l3.63-3.63,1.83,1.83c.98.98,2.56.98,3.54,0,.49-.49.73-1.13.73-1.77s-.24-1.28-.73-1.77l-1.83-1.83,7.26-7.26,1.83,1.83c.98.98,2.56.98,3.54,0,.49-.49.73-1.13.73-1.77s-.24-1.28-.73-1.77l-1.83-1.83,7.27-7.27,1.83,1.83c.97.98,2.56.98,3.54,0,.49-.49.73-1.13.73-1.77s-.24-1.28-.73-1.77l-1.83-1.83,3.63-3.63c.49-.49.73-1.13.73-1.77s-.24-1.28-.73-1.77c-.98-.98-2.56-.98-3.54,0l-3.63,3.63-1.84-1.84Z"/>
  </g>
</svg>