<?xml version="1.0" encoding="UTF-8"?>
<svg xmlns="http://www.w3.org/2000/svg" viewBox="0 0 80 80">
  <defs>
    <style>
      .cls-1 {
        fill: none;
      }

      .cls-1, .cls-2 {
        stroke-width: 0px;
      }

      .cls-2 {
        fill: #e2d0af;
      }
    </style>
  </defs>
  <g id="board">
    <rect class="cls-1" width="80" height="80"/>
  </g>
  <g id="sport_icon">
    <path class="cls-2" d="m31.78,34.23c-.96-.25-1.97-.1-2.82.41-.86.51-1.46,1.32-1.71,2.28-.25.96-.1,1.97.41,2.82s1.32,1.46,2.28,1.71c.31.08.62.12.93.12.66,0,1.31-.18,1.9-.52,1.77-1.05,2.35-3.34,1.3-5.11-.51-.86-1.32-1.46-2.28-1.71Zm-10.58-5.74h0c-1.77,1.05-2.35,3.34-1.3,5.11.7,1.17,1.94,1.82,3.21,1.82.65,0,1.3-.17,1.9-.52.86-.51,1.46-1.32,1.71-2.28.25-.96.1-1.97-.41-2.82-1.05-1.77-3.34-2.35-5.11-1.3Zm17.13-9.56c-1.77,1.05-2.35,3.34-1.3,5.11.51.86,1.32,1.46,2.28,1.71.31.08.62.12.93.12.66,0,1.31-.18,1.9-.52,1.76-1.05,2.35-3.34,1.3-5.11-.51-.86-1.32-1.46-2.28-1.71-.96-.25-1.97-.1-2.82.41Zm-15.18,6.75c.86-.51,1.46-1.32,1.71-2.28.24-.96.1-1.97-.41-2.82-1.05-1.77-3.34-2.35-5.11-1.3-.86.51-1.46,1.32-1.71,2.28-.25.96-.1,1.97.41,2.82.7,1.17,1.94,1.82,3.21,1.82.65,0,1.3-.17,1.9-.52Zm8.26-5.71h0c1.77-1.05,2.35-3.34,1.3-5.11-1.05-1.77-3.34-2.35-5.11-1.3-.86.51-1.46,1.32-1.71,2.28-.25.96-.1,1.97.41,2.82.7,1.17,1.94,1.82,3.21,1.82.65,0,1.3-.17,1.9-.52Zm39.59,1.02c-3.33-8.29-9.67-14.78-17.87-18.28-8.19-3.5-17.27-3.6-25.56-.27-8.29,3.33-14.78,9.67-18.28,17.87-3.5,8.19-3.59,17.27-.27,25.56s9.67,14.78,17.87,18.28c.29.12.57.24.86.35,1,.39,1.81,1.14,2.29,2.12l5.09,10.52c.84,1.74,2.63,2.86,4.56,2.86h1.11c2.03,0,3.86-1.21,4.66-3.08l4.32-10.11c.45-1.05,1.32-1.9,2.39-2.31,8.44-3.3,15.03-9.67,18.57-17.96,3.5-8.19,3.59-17.27.27-25.56Zm-4.92,23.72c-6.14,14.37-22.83,21.07-37.2,14.93-14.38-6.14-21.07-22.83-14.93-37.21,4.47-10.46,14.71-17.21,26.11-17.21,3.82,0,7.56.77,11.1,2.28,14.37,6.14,21.07,22.83,14.93,37.21Zm-16.32-30.95c-.96-.25-1.97-.1-2.82.41-1.77,1.05-2.35,3.34-1.3,5.11.7,1.17,1.94,1.82,3.21,1.82.65,0,1.3-.17,1.9-.52,1.77-1.05,2.35-3.34,1.3-5.11-.51-.86-1.32-1.46-2.28-1.71Zm-19.99,10.23h0c-1.77,1.05-2.35,3.34-1.3,5.11.51.86,1.32,1.46,2.28,1.71.31.08.62.12.93.12.66,0,1.31-.18,1.9-.52.86-.51,1.46-1.32,1.71-2.28.25-.96.1-1.97-.41-2.82-1.05-1.77-3.34-2.35-5.11-1.3Zm8.56-8.52c.66,0,1.31-.18,1.9-.52.86-.51,1.46-1.32,1.71-2.28.25-.96.1-1.97-.41-2.82-1.05-1.77-3.34-2.35-5.11-1.3-1.77,1.05-2.35,3.34-1.3,5.11.51.86,1.32,1.46,2.28,1.71.31.08.62.12.93.12Zm2.83,13.05c-.96-.25-1.97-.1-2.82.41-.86.51-1.46,1.32-1.71,2.28-.25.96-.1,1.97.41,2.82.7,1.17,1.94,1.82,3.21,1.82.65,0,1.3-.17,1.9-.52,1.77-1.05,2.35-3.34,1.3-5.11-.51-.86-1.32-1.46-2.28-1.71Z"/>
  </g>
</svg>