<?xml version="1.0" encoding="UTF-8"?>
<svg xmlns="http://www.w3.org/2000/svg" viewBox="0 0 80 80">
  <defs>
    <style>
      .cls-1 {
        fill: none;
      }

      .cls-1, .cls-2 {
        stroke-width: 0px;
      }

      .cls-2 {
        fill: #e2d0af;
      }
    </style>
  </defs>
  <g id="board">
    <rect class="cls-1" x="0" width="80" height="80"/>
  </g>
  <g id="sport_icon">
    <path class="cls-2" d="m39.98,49.77h-.03c-7.65,0-13.9,6.21-13.92,13.86-.03,7.73,6.21,14.05,13.9,14.09h.06c3.73,0,7.23-1.44,9.87-4.06,2.65-2.63,4.11-6.14,4.12-9.89.02-7.7-6.26-13.98-14-14Zm5.65,19.63c-1.5,1.49-3.51,2.31-5.64,2.31h-.04c-4.46-.02-7.94-3.56-7.92-8.07.01-4.35,3.56-7.88,7.92-7.88h.02c4.43.01,8.02,3.59,8.01,7.98,0,2.14-.84,4.15-2.35,5.65Zm33.59-47.54c-.39-1.61-2.01-2.6-3.63-2.2l-19.99,4.89c-5.1,1.25-10.36,1.88-15.61,1.88h-.02c-5.26,0-10.51-.64-15.62-1.89l-19.94-4.89c-1.61-.4-3.23.59-3.63,2.2s.59,3.23,2.2,3.63l19.94,4.89c5.57,1.37,11.31,2.06,17.05,2.06h.02c5.74,0,11.47-.69,17.04-2.06l19.99-4.89c1.61-.39,2.59-2.02,2.2-3.63Zm-21.03,25.34c-2.34-4.76-7.27-7.84-12.58-7.84h-12.17c-5.5,0-10.52,3.25-12.78,8.27l-10.5,23.36c-.68,1.51,0,3.29,1.51,3.97.4.18.82.26,1.23.26,1.15,0,2.24-.66,2.74-1.77l10.5-23.36c1.29-2.87,4.16-4.73,7.3-4.73h12.17c3.03,0,5.86,1.76,7.19,4.48l11.61,23.7c.73,1.49,2.53,2.1,4.01,1.37,1.49-.73,2.1-2.53,1.37-4.01l-11.61-23.7Z"/>
  </g>
</svg>