<?xml version="1.0" encoding="UTF-8"?>
<svg xmlns="http://www.w3.org/2000/svg" viewBox="0 0 80 80">
  <defs>
    <style>
      .cls-1 {
        fill: none;
      }

      .cls-1, .cls-2 {
        stroke-width: 0px;
      }

      .cls-2 {
        fill: #e2d0af;
      }
    </style>
  </defs>
  <g id="board">
    <rect class="cls-1" x="0" width="80" height="80"/>
  </g>
  <g id="sport_icon">
    <path class="cls-2" d="m26.6,30.61c.84,5.51,5.5,9.52,11.08,9.52h4.6s0,0,0,0c5.57,0,10.23-3.99,11.08-9.5l4.2-27.22c.25-1.62-.86-3.13-2.48-3.38-1.62-.25-3.13.86-3.38,2.48l-4.2,27.22c-.4,2.59-2.59,4.47-5.22,4.47h-4.6c-2.63,0-4.82-1.89-5.22-4.48L28.31,2.52c-.25-1.62-1.76-2.73-3.38-2.48-1.62.25-2.73,1.76-2.48,3.38l4.15,27.2Zm13.38,21.77h-.03c-7.56,0-13.73,6.14-13.75,13.7-.02,7.64,6.14,13.89,13.73,13.92h.06c3.69,0,7.15-1.42,9.75-4.01,2.62-2.6,4.06-6.07,4.07-9.77.02-7.61-6.19-13.81-13.83-13.83Zm5.58,19.4c-1.49,1.48-3.47,2.31-5.61,2.29-4.4-.02-7.84-3.52-7.83-7.97.01-4.3,3.52-7.79,7.82-7.79h.02c4.37.01,7.92,3.55,7.91,7.89,0,2.12-.83,4.1-2.32,5.58Zm23.89,1.48l-11.48-23.42c-2.31-4.71-7.19-7.75-12.43-7.75h-12.03c-5.44,0-10.4,3.21-12.63,8.17l-10.37,23.09c-.67,1.49,0,3.25,1.49,3.92.39.18.81.26,1.21.26,1.13,0,2.21-.65,2.71-1.75l10.37-23.09c1.27-2.84,4.11-4.67,7.22-4.67h12.03c3,0,5.79,1.74,7.1,4.43l11.48,23.42c.72,1.47,2.5,2.08,3.97,1.36,1.47-.72,2.08-2.5,1.36-3.97Z"/>
  </g>
</svg>