<?xml version="1.0" encoding="UTF-8"?>
<svg xmlns="http://www.w3.org/2000/svg" viewBox="0 0 80 80">
  <defs>
    <style>
      .cls-1 {
        fill: none;
      }

      .cls-1, .cls-2 {
        stroke-width: 0px;
      }

      .cls-2 {
        fill: #e2d0af;
      }
    </style>
  </defs>
  <g id="board">
    <rect class="cls-1" width="80" height="80"/>
  </g>
  <g id="sport_icon">
    <path class="cls-2" d="m51.35,22.16c1.31,0,2.38-1.07,2.38-2.38s-1.07-2.37-2.38-2.37-2.37,1.07-2.37,2.37,1.07,2.38,2.37,2.38Zm-23.25,36c-1.31,0-2.37,1.07-2.37,2.37s1.07,2.38,2.37,2.38,2.38-1.07,2.38-2.38-1.07-2.37-2.38-2.37Zm35.9-20.54c-1.31,0-2.37,1.07-2.37,2.37s1.07,2.38,2.37,2.38,2.38-1.07,2.38-2.38-1.07-2.37-2.38-2.37Zm-35.35-15.73c1.31,0,2.38-1.07,2.38-2.38s-1.07-2.37-2.38-2.37-2.38,1.07-2.38,2.37,1.07,2.38,2.38,2.38ZM49.8,1.21s-.09-.02-.11-.03c-6.34-1.59-13.05-1.58-19.47.02C12.43,5.7,0,21.65,0,40s12.45,34.31,30.29,38.8c3.18.8,6.45,1.2,9.71,1.2s6.55-.41,9.77-1.21c17.8-4.48,30.23-20.44,30.23-38.79S67.58,5.7,49.8,1.21Zm11.06,10.39l-5.97.77-.99-4.77c2.47,1.06,4.8,2.4,6.96,3.99Zm-34.89-3.94l-1.52,4.71-5.33-.76c2.13-1.57,4.43-2.9,6.85-3.95ZM4.75,40c0-.99.05-2.01.13-3.03l2.44,3.02-2.45,2.97c-.09-1-.13-2-.13-2.96Zm14.43,28.43l4.81-.46,1.84,4.3c-2.35-1.03-4.58-2.32-6.66-3.84Zm34.92,3.87l1.77-4.62,5,.7c-2.11,1.55-4.38,2.87-6.78,3.92Zm11.88-8.52l-12.57-.89h-.15s-.27.14-.27.14l-5.4,11.38c-5.04,1.12-10.15,1.11-15.19,0l-5.5-11.32-12.89.7c-3.67-4.01-6.39-8.85-7.89-14.04.1-.11.18-.22.25-.33l6.29-9.04.23-.39-6.49-9.49c-.07-.12-.15-.24-.25-.35,1.5-5.15,4.21-9.95,7.85-13.93l12.9.97h.15s.28-.14.28-.14l5.07-11.46c5.03-1.11,10.12-1.11,15.15,0l4.36,11.44.29.17,13.77-.98c3.8,4.15,6.58,9.18,8.04,14.56l-6.73,9.23,6.76,9.12c-1.45,5.42-4.24,10.47-8.07,14.65Zm6.98-23.8l2.21-2.23c.05.76.08,1.52.08,2.25s-.02,1.45-.07,2.19l-2.22-2.2Zm-14.33-2.28h-2.91l-5.87-10.17,1.28-1.97c.31-.53.39-1.15.23-1.74s-.54-1.08-1.07-1.39c-1.09-.63-2.49-.25-3.11.82l-1.28,1.98h-11.78l-1.23-2.13c-.31-.53-.8-.91-1.39-1.07-.59-.16-1.21-.08-1.73.23-.53.3-.91.8-1.07,1.39-.16.59-.08,1.21.23,1.74l1.23,2.13-5.88,10.18h-2.81c-1.26,0-2.29,1.03-2.29,2.29s1.03,2.29,2.29,2.29h2.81l5.86,10.15-1.31,1.72c-.17.2-.3.42-.38.64l-.06.1c-.31.53-.39,1.14-.23,1.74.16.59.54,1.08,1.06,1.39,1.05.61,2.53.2,3.1-.79l1.76-2.46h11.78l1.28,2.42c.41.71,1.17,1.14,1.98,1.14.4,0,.8-.11,1.14-.31.53-.3.91-.8,1.07-1.39.16-.59.08-1.21-.22-1.72l-1.28-2.43,5.89-10.2h2.91c1.26,0,2.29-1.03,2.29-2.29s-1.03-2.29-2.29-2.29Zm-12.75,12.47h-11.76l-5.88-10.18,5.88-10.18h11.76l5.88,10.18-5.88,10.18Zm5.61,7.98c-1.31,0-2.38,1.07-2.38,2.37s1.07,2.38,2.38,2.38,2.38-1.07,2.38-2.38-1.07-2.37-2.38-2.37ZM16,37.62c-1.31,0-2.38,1.07-2.38,2.37s1.07,2.38,2.38,2.38,2.38-1.07,2.38-2.38-1.07-2.37-2.38-2.37Z"/>
  </g>
</svg>