<?xml version="1.0" encoding="UTF-8"?>
<svg xmlns="http://www.w3.org/2000/svg" viewBox="0 0 110 80">
  <defs>
    <style>
      .cls-1 {
        fill: none;
      }

      .cls-1, .cls-2 {
        stroke-width: 0px;
      }

      .cls-2 {
        fill: #e2d0af;
      }
    </style>
  </defs>
  <g id="board">
    <rect class="cls-1" x="0" width="110" height="80"/>
  </g>
  <g id="sport_icon">
    <path class="cls-2" d="m108.9,75.81l-25.11-30.21c-.48-.58-1.2-.92-1.95-.92h-.02c-.75,0-1.46.33-1.95.9l-9.75,11.42-25.03-30.05v-7.34h14.44c.55,0,1.06-.29,1.33-.77.27-.48.27-1.06,0-1.54l-3.35-5.75,3.35-5.68c.28-.47.28-1.06,0-1.54-.27-.48-.78-.77-1.33-.77h-14.44v-.98c0-1.41-1.15-2.56-2.56-2.56s-2.56,1.15-2.56,2.56v24.41L1.07,75.85c-.88,1.11-.7,2.72.41,3.6.47.37,1.03.56,1.59.56.75,0,1.5-.33,2-.96l20.42-25.66,4.79,4.79c1.05,1.05,2.43,1.57,3.81,1.57s2.76-.53,3.81-1.57l4.74-4.74c.1-.1.27-.1.38,0l4.19,4.19c2.1,2.1,5.51,2.1,7.61,0l5.01-5.01,6.93,8.32-2.54,2.98c-2.41,2.83-2.46,6.97-.04,9.92,1.47,1.8,3.63,2.82,5.95,2.82.02,0,.04,0,.06,0,2.34-.02,4.51-1.08,5.97-2.92,2.24-2.83,2.19-6.91-.12-9.68l-2.57-3.09,8.34-9.78,23.17,27.88c.9,1.09,2.52,1.23,3.6.33,1.09-.9,1.24-2.52.33-3.6Zm-57.7-21.81c-.1.1-.27.1-.38,0l-4.19-4.19c-1.02-1.02-2.37-1.58-3.81-1.58s-2.79.56-3.81,1.58l-4.74,4.74c-.1.1-.27.1-.38,0l-5.2-5.2,13.88-17.44,13.95,16.75-5.34,5.34Zm20.94,16.57c-.48.61-1.21.97-1.99.97-.79-.02-1.51-.34-2.07-1.02-.79-.96-.77-2.34.03-3.29l1.97-2.31,2.01,2.42c.77.93.79,2.29.04,3.23Z"/>
  </g>
</svg>