<?xml version="1.0" encoding="UTF-8"?>
<svg xmlns="http://www.w3.org/2000/svg" viewBox="0 0 110 80">
  <defs>
    <style>
      .cls-1 {
        fill: none;
      }

      .cls-1, .cls-2 {
        stroke-width: 0px;
      }

      .cls-2 {
        fill: #e2d0af;
      }
    </style>
  </defs>
  <g id="board">
    <rect class="cls-1" width="110" height="80"/>
  </g>
  <g id="sport_icon">
    <path class="cls-2" d="m76.07,27.15h.06c3.62,0,7.02-1.4,9.59-3.94,2.57-2.55,3.99-5.97,4-9.61.02-7.48-6.08-13.58-13.59-13.6-7.43.03-13.53,6.02-13.55,13.46-.02,7.51,6.03,13.65,13.5,13.68Zm.02-21.32h.02c4.3.01,7.79,3.49,7.78,7.76,0,2.08-.81,4.03-2.28,5.49-1.46,1.45-3.41,2.25-5.48,2.25-.01,0-.03,0-.04,0-4.33-.02-7.71-3.46-7.69-7.84.01-4.22,3.46-7.65,7.69-7.65ZM23.27,38.64c-11.4,0-20.68,9.28-20.68,20.68s9.28,20.68,20.68,20.68,20.68-9.28,20.68-20.68-9.28-20.68-20.68-20.68Zm0,35.53c-8.19,0-14.85-6.66-14.85-14.85s6.66-14.85,14.85-14.85,14.85,6.66,14.85,14.85-6.66,14.85-14.85,14.85Zm30.3-43.66c1.28-1.32,2.99-2.05,4.83-2.06,1.85.01,3.56.69,4.86,1.99l4.81,4.81c4.88,4.88,12.85,4.91,17.77.09l8.91-8.74c1.15-1.13,1.17-2.97.04-4.12-1.13-1.15-2.97-1.17-4.12-.04l-8.91,8.74c-2.65,2.6-6.94,2.58-9.57-.05l-4.81-4.81c-2.41-2.41-5.63-3.74-9.02-3.7-3.41.02-6.59,1.38-8.96,3.82l-3.83,3.94c-2.09,2.09-3.24,4.87-3.24,7.83s1.15,5.74,3.24,7.83l5.93,5.93c2.65,2.65,2.65,6.97,0,9.62l-8.24,8.24c-1.14,1.14-1.14,2.98,0,4.12.57.57,1.31.85,2.06.85s1.49-.28,2.06-.85l8.24-8.24c4.92-4.92,4.92-12.93,0-17.86l-5.93-5.93c-.99-.99-1.54-2.31-1.54-3.71s.55-2.72,1.57-3.74l3.86-3.97Zm34.16,8.12c-11.4,0-20.68,9.28-20.68,20.68s9.28,20.68,20.68,20.68,20.68-9.28,20.68-20.68-9.28-20.68-20.68-20.68Zm0,35.53c-8.19,0-14.85-6.66-14.85-14.85s6.66-14.85,14.85-14.85,14.85,6.66,14.85,14.85-6.66,14.85-14.85,14.85Z"/>
  </g>
</svg>