<?xml version="1.0" encoding="UTF-8"?>
<svg xmlns="http://www.w3.org/2000/svg" viewBox="0 0 80 80">
  <defs>
    <style>
      .cls-1 {
        fill: none;
      }

      .cls-1, .cls-2 {
        stroke-width: 0px;
      }

      .cls-2 {
        fill: #e2d0af;
      }
    </style>
  </defs>
  <g id="board">
    <rect class="cls-1" width="80" height="80"/>
  </g>
  <g id="sport_icon">
    <path class="cls-2" d="m66.87,4.27l-8.31-3.68c-3.04-1.35-6.62-.34-8.51,2.38l-10.14,14.61L29.78,3c-1.91-2.74-5.5-3.74-8.55-2.36l-8.1,3.64C5.74,7.55.98,14.87.98,22.94v45.61c0,1.37,1.11,2.47,2.47,2.47h9.17l-.77,6.21c-.09.7.13,1.41.6,1.94.47.52,1.15.83,1.85.83h51.19c.71,0,1.39-.31,1.85-.83.47-.53.69-1.24.6-1.94l-.76-6.21h9.35c1.37,0,2.47-1.11,2.47-2.47V22.94c0-8.06-4.77-15.39-12.14-18.66ZM16.78,25.41c-.13-1.37-1.35-2.36-2.7-2.23-1.36.13-2.36,1.35-2.23,2.7l2.79,28.83-1.41,11.35h-7.3V22.94c0-6.12,3.61-11.66,9.21-14.14l8.11-3.65c.88-.4,1.91-.11,2.45.67l11.18,16.12-2.57,3.71-15.39,22.15-2.14-22.15-.02-.24Zm.34,49.64l.73-6.02c.02-.09.03-.18.04-.27l.93-7.53h16.72l-3.48,6.41c-.52.96-.17,2.16.79,2.68.3.16.62.24.94.24.7,0,1.39-.38,1.74-1.03l4.47-8.22,4.47,8.22c.36.65,1.03,1.03,1.73,1.03.33,0,.64-.08.95-.24.96-.52,1.32-1.72.79-2.68l-3.48-6.41h16.53l.87,7.05v.02c0,.08,0,.16,0,.24,0,.29.05.56.14.81l.7,5.7H17.11Zm56.96-8.98h-7.49l-1.4-11.35,2.78-28.83c.13-1.36-.87-2.57-2.23-2.7-1.36-.13-2.57.86-2.7,2.23l-.02.24-2.62,27.13H21.5l18.84-27.13,1.6-2.31s.02-.02.03-.04l12.14-17.49c.54-.79,1.57-1.08,2.44-.69l8.31,3.69c5.59,2.47,9.2,8.01,9.2,14.13v43.13ZM28.38,23.44c.39.55,1,.85,1.62.85.4,0,.78-.11,1.13-.35.9-.62,1.12-1.86.49-2.76l-7.44-10.72c-.61-.9-1.85-1.12-2.75-.49-.9.62-1.12,1.85-.49,2.75l7.44,10.72Zm28.92-13.52c-.9-.63-2.13-.4-2.75.5l-7.51,10.82c-.62.9-.4,2.13.5,2.75.34.24.74.35,1.13.35.63,0,1.24-.3,1.63-.85l7.51-10.82c.62-.9.4-2.13-.5-2.75Z"/>
  </g>
</svg>