<?xml version="1.0" encoding="UTF-8"?>
<svg xmlns="http://www.w3.org/2000/svg" viewBox="0 0 80 80">
  <defs>
    <style>
      .cls-1 {
        fill: none;
      }

      .cls-1, .cls-2 {
        stroke-width: 0px;
      }

      .cls-2 {
        fill: #e2d0af;
      }
    </style>
  </defs>
  <g id="board">
    <rect class="cls-1" x="0" width="80" height="80"/>
  </g>
  <g id="sport_icon">
    <path class="cls-2" d="m28.11,38.42c-1.1-.82-2.65-.59-3.47.51-2.53,3.41-3.93,7.68-3.93,12.03,0,1.37,1.11,2.48,2.48,2.48h0c1.37,0,2.48-1.11,2.48-2.48,0-3.29,1.05-6.51,2.95-9.07.82-1.1.59-2.65-.51-3.47Zm37.06-7.31c-.57-.8-.69-1.83-.33-2.76.95-2.41,1.55-4.72,1.82-7.07.64-5.52-.74-10.2-4.11-13.93-2.42-2.68-5.66-4.57-9.89-5.8C48.35.31,43.71-.16,37.63.05c-5.28.18-9.5.99-13.29,2.56-7.58,3.14-11.63,9.52-11.12,17.53.17,2.7.79,5.36,1.9,8.15.39.97.27,2.04-.32,2.86-4.14,5.81-6.1,12.66-5.67,19.83.93,15.45,13.26,27.89,28.69,28.95.74.05,1.48.08,2.21.08,7.87,0,15.28-2.91,21.07-8.32,6.24-5.83,9.83-14.07,9.83-22.61,0-6.49-1.99-12.7-5.75-17.96Zm-7.73,36.65c-5.23,4.89-12.07,7.3-19.26,6.81-12.75-.88-22.94-11.16-23.71-23.93-.36-5.93,1.27-11.6,4.69-16.4,1.64-2.31,1.99-5.28.94-7.95-.89-2.25-1.4-4.38-1.53-6.51-.36-5.73,2.34-9.96,7.82-12.23,3.17-1.31,6.8-2,11.42-2.15.86-.03,1.68-.04,2.47-.04,4.3,0,7.73.43,10.91,1.35,3.29.95,5.65,2.3,7.4,4.24,2.32,2.56,3.22,5.74,2.76,9.71-.22,1.88-.71,3.75-1.48,5.72-1.04,2.63-.69,5.56.95,7.85t0,0c3.11,4.35,4.75,9.48,4.75,14.84,0,7.16-2.89,13.8-8.12,18.69Zm-5.31-53.8c-.78-.41-1.6-.76-2.44-1.02-3.15-.99-6.41-1.14-10.32-1.21-1.01.06-2.67.12-4.31.28-2.47.25-4.89.71-7.12,1.88-2.2,1.16-3.22,2.98-3.01,5.46.21,2.46,1.08,4.71,2.19,6.88.31.6.83.9,1.42.9.13,0,.27-.02.41-.05,3.33-1.6,7.07-2.5,11.02-2.5s7.6.88,10.91,2.45c.21.06.41.09.6.09.61,0,1.1-.33,1.43-.98,1.06-2.09,1.89-4.26,2.13-6.62.26-2.52-.68-4.39-2.91-5.57Zm-1.04,5.16c-.11,1.06-.38,2.13-.86,3.33-3.27-1.22-6.71-1.84-10.26-1.84s-6.97.61-10.23,1.83c-.49-1.24-.77-2.34-.86-3.42-.07-.82.05-1.16.91-1.61,1.44-.76,3.13-1.19,5.66-1.45,1.09-.11,2.23-.17,3.14-.21.31-.02.6-.03.85-.05,3.37.06,6.39.19,9.05,1.03.61.19,1.2.44,1.76.74.72.38.92.66.82,1.65Z"/>
  </g>
</svg>