<?xml version="1.0" encoding="UTF-8"?>
<svg xmlns="http://www.w3.org/2000/svg" viewBox="0 0 80 80">
  <defs>
    <style>
      .cls-1 {
        fill: none;
      }

      .cls-1, .cls-2 {
        stroke-width: 0px;
      }

      .cls-2 {
        fill: #e2d0af;
      }
    </style>
  </defs>
  <g id="board">
    <rect class="cls-1" x="0" width="80" height="80"/>
  </g>
  <g id="sport_icon">
    <path class="cls-2" d="m25.17,13.45c-9.34,4.78-15.14,14.38-15.14,25.06,0,1.11.9,2.02,2,2.02s2-.91,2-2.02c0-9.14,4.96-17.36,12.95-21.45.47-.24.83-.66,1-1.17.17-.51.13-1.06-.11-1.54-.48-.97-1.71-1.39-2.69-.9Zm54.73,6.93h0c-.33-1.65-1.46-3.01-3-3.63l-22.78-9.16c-5.63-3.63-12.13-5.56-18.82-5.56C15.84,2.03,0,18.23,0,38.14c0,5.21,1.52,8.9,4.54,16.26l.33.8c1.06,2.59,3.3,4.55,5.98,5.25,6.47,1.68,19.74,5.18,40.58,10.69l1.86.49c2.13.56,3.47,2.12,4.79,3.66l.69.75c1.13,1.23,2.73,1.93,4.39,1.93,1.15,0,2.28-.34,3.25-.97l6.04-3.96c2.05-1.3,3.28-3.54,3.28-6v-8.56c0-1.45-.59-2.86-1.63-3.86l-5.56-5.41c-.61-.6-1.51-.9-2.32-.8-.85.09-1.61.56-2.06,1.24-.06.08-1.39,1.9-3.83,1.9-.57,0-1.17-.09-1.79-.28-4.13-1.23-8.63-2.65-10.96-3.39-.69-.22-1.21-.81-1.34-1.53-.54-2.81-1.35-7.15-2.18-12.13l32.19-8.01c2.57-.64,4.18-3.2,3.65-5.83Zm-33.98,31.91c3.08,1.03,7.54,2.5,11.27,3.61,3.47,1.03,6.7.4,9.4-1.88l3.7,3.59c.41.4.65.97.65,1.56v7.1c0,1.3-.65,2.48-1.73,3.15-1.51.94-3.42,2.13-5.02,3.1-.8.48-1.9.3-2.53-.43-1.52-1.77-3.6-4.19-7.16-5.13l-1.61-.43c-20.02-5.3-33.5-8.85-40.05-10.55-1.73-.45-3.18-1.73-3.88-3.44-2.87-6.97-4.17-10.15-4.17-14.4,0-17.24,13.69-31.27,30.51-31.27,4.89,0,9.74,1.2,14.05,3.48-1,.77-2.88,2.23-4.76,3.77-6.6.08-9.08,4.69-9.84,6.68-.77,2.01-.03,4.33,1.76,5.51l4.55,2.99c.14.09.2.24.17.4s-.14.28-.29.32c-1.3.33-2.15,1.63-1.93,2.97.91,5.61,1.88,10.85,2.54,14.26.45,2.36,2.12,4.29,4.37,5.05Zm29.2-30.78l-28.17,7c-.07,0-.14-.02-.21-.06l-6.93-4.56c-.55-.36-.91-.92-1.03-1.58-.11-.65.05-1.33.44-1.86,1.23-1.65,3.1-2.49,5.55-2.49.17,0,.33,0,.58.01.46,0,.91-.18,1.28-.5,2.1-1.85,4.8-3.91,6.49-5.1l9.9,3.98-8.26,2.04c-.98.24-1.64,1.14-1.53,2.09.12,1.13,1.14,1.96,2.34,1.67l13.6-3.32,5.96,2.36c.09.04.1.11.1.16,0,.04-.02.12-.11.14Z"/>
  </g>
</svg>