<?xml version="1.0" encoding="UTF-8"?>
<svg xmlns="http://www.w3.org/2000/svg" viewBox="0 0 80 80">
  <defs>
    <style>
      .cls-1 {
        fill: none;
      }

      .cls-1, .cls-2 {
        stroke-width: 0px;
      }

      .cls-2 {
        fill: #e2d0af;
      }
    </style>
  </defs>
  <g id="board">
    <rect class="cls-1" x="0" width="80" height="80"/>
  </g>
  <g id="sport_icon">
    <path class="cls-2" d="m40,2.79C19.48,2.79,2.79,19.48,2.79,40s16.69,37.21,37.21,37.21,37.21-16.69,37.21-37.21S60.52,2.79,40,2.79Zm23.8,57.46l-1.64-.72c-.76-.34-1.63-.17-2.22.42-.59.59-.75,1.46-.41,2.22l.72,1.64c-5.65,4.81-12.81,7.45-20.25,7.45s-14.6-2.64-20.25-7.45l.72-1.64c.34-.76.17-1.63-.41-2.22-.59-.59-1.46-.75-2.22-.42l-1.64.72c-4.81-5.65-7.45-12.81-7.45-20.25s2.64-14.6,7.45-20.25l1.64.72c.76.33,1.63.17,2.22-.42.59-.59.75-1.46.41-2.22l-.72-1.64c5.65-4.81,12.81-7.45,20.25-7.45s14.6,2.64,20.25,7.45l-.72,1.64c-.34.76-.17,1.63.41,2.22.59.59,1.46.75,2.22.42l1.64-.72c4.81,5.65,7.45,12.81,7.45,20.25s-2.64,14.6-7.45,20.25Zm-24.1-17.16l-2.8-2.8c-.89-.89-2.37-.75-3.07.29l-7.9,11.66c-.82,1.2.63,2.65,1.83,1.83l11.65-7.91c1.04-.71,1.18-2.18.29-3.07Zm12.54-17.16l-12.38,8.29c-1.05.7-1.19,2.19-.3,3.08l3.14,3.13c.89.89,2.37.74,3.07-.3l8.3-12.37c.82-1.2-.63-2.65-1.83-1.83Zm-15.06-4.46h1.49c.21,0,.38-.17.38-.38v-3.7c0-.2,0-.46-.02-.78l2.68,4.66c.07.12.19.19.33.19h2.12c.21,0,.38-.17.38-.38v-7.85c0-.21-.17-.38-.38-.38h-1.5c-.21,0-.38.17-.38.38v3.72c0,.18,0,.43.01.72l-2.68-4.63c-.07-.12-.19-.19-.32-.19h-2.1c-.21,0-.38.17-.38.38v7.85c0,.21.17.38.38.38Zm-14.49,14.84h-1.64c-.18,0-.33.12-.37.29l-1.08,4.94-1.09-3.6c-.05-.16-.19-.27-.36-.27h-1.57c-.17,0-.31.11-.36.27l-1.09,3.6-1.08-4.94c-.04-.17-.19-.29-.37-.29h-1.64c-.12,0-.22.05-.3.14-.07.09-.1.21-.07.32l2,7.86c.04.17.19.28.36.28h1.89c.16,0,.31-.11.36-.26l1.06-3.44,1.07,3.44c.05.16.19.26.36.26h1.9c.17,0,.32-.12.36-.28l2-7.86c.03-.11,0-.23-.07-.32-.07-.09-.18-.14-.3-.14Zm18.78,26.72h0c-.7-.33-.93-.47-1-.52-.11-.08-.18-.14-.22-.21-.03-.05-.04-.11-.04-.18,0-.13.04-.22.12-.29.2-.17.72-.15,1.2-.04.26.06.59.18.99.34.11.05.25.03.35-.04.1-.07.17-.19.17-.31v-1.51c0-.16-.1-.3-.25-.35-.22-.08-.44-.15-.66-.2-.4-.11-.82-.16-1.26-.16-.92,0-1.66.23-2.2.68-.56.47-.84,1.12-.84,1.93,0,.43.09.81.26,1.14.16.32.39.6.66.84.27.23.66.47,1.17.71.61.29.86.43.97.5.13.09.22.17.28.26.04.05.06.11.06.19,0,.19-.07.27-.14.32-.25.18-.87.18-1.53,0-.35-.09-.78-.25-1.29-.48-.12-.05-.25-.04-.36.03-.11.07-.17.19-.17.31v1.55c0,.14.08.27.21.34.69.34,1.5.51,2.39.51,1,0,1.79-.23,2.36-.7.6-.48.91-1.14.91-1.97,0-.59-.16-1.11-.49-1.53-.31-.4-.85-.78-1.64-1.17Zm26.15-24.61c.21,0,.38-.17.38-.38v-1.36c0-.21-.17-.38-.38-.38h-5.38c-.21,0-.38.17-.38.38v7.86c0,.21.17.38.38.38h5.38c.21,0,.38-.17.38-.38v-1.38c0-.21-.17-.38-.38-.38h-3.34v-1.27h2.97c.21,0,.38-.17.38-.38v-1.36c0-.21-.17-.38-.38-.38h-2.97v-.98h3.34Z"/>
  </g>
</svg>