<?xml version="1.0" encoding="UTF-8"?>
<svg xmlns="http://www.w3.org/2000/svg" viewBox="0 0 85 80">
  <defs>
    <style>
      .cls-1 {
        fill: none;
      }

      .cls-1, .cls-2 {
        stroke-width: 0px;
      }

      .cls-2 {
        fill: #e2d0af;
      }
    </style>
  </defs>
  <g id="board">
    <rect class="cls-1" width="85" height="80"/>
  </g>
  <g id="sport_icon">
    <path class="cls-2" d="m49.25,36.02h.06c3.73,0,7.23-1.44,9.87-4.06,2.65-2.63,4.11-6.14,4.12-9.89.02-7.7-6.26-13.98-13.99-14h-.03c-7.65,0-13.89,6.21-13.92,13.86-.02,7.73,6.21,14.05,13.9,14.09Zm.02-21.95h.02c4.43.01,8.02,3.59,8.01,7.98,0,2.14-.84,4.15-2.35,5.65-1.5,1.49-3.51,2.31-5.64,2.31h-.04c-4.46-.02-7.94-3.56-7.92-8.07.01-4.35,3.56-7.88,7.92-7.88Zm33.94,44.24c-.87-1.94-2.73-3.15-4.86-3.15h-25l10.79-14.82,5.43-2.98c1.45-.8,1.98-2.62,1.19-4.07s-2.62-1.98-4.07-1.19l-16.37,8.98c-.09.05-.18.1-.26.16-.52.36-1.2.37-1.74.03l-7.4-4.77c-4.88-3.15-11.32-1.89-14.67,2.85l-6.03,8.54c-.96,1.35-.63,3.23.72,4.18.53.37,1.13.55,1.73.55.94,0,1.87-.44,2.45-1.27l6.03-8.54c1.49-2.11,4.35-2.67,6.52-1.27l7.4,4.77c2.53,1.63,5.75,1.61,8.25-.03l.53-.29-6.68,9.17H4.31c-1.66,0-3,1.34-3,3s1.34,3,3,3h38.49l-2.83,3.89c-.81,1.12-.57,2.68.55,3.49.44.32.96.48,1.47.48.77,0,1.53-.36,2.02-1.03l4.97-6.83h27.97l-4.62,5.91c-1.02,1.31-.79,3.19.52,4.21.55.43,1.2.64,1.84.64.89,0,1.77-.4,2.37-1.15l5.33-6.82c1.35-1.58,1.67-3.72.82-5.63Z"/>
  </g>
</svg>