<?xml version="1.0" encoding="UTF-8"?>
<svg xmlns="http://www.w3.org/2000/svg" viewBox="0 0 90 80">
  <defs>
    <style>
      .cls-1 {
        fill: none;
      }

      .cls-1, .cls-2 {
        stroke-width: 0px;
      }

      .cls-2 {
        fill: #e2d0af;
      }
    </style>
  </defs>
  <g id="board">
    <rect class="cls-1" x="0" width="90" height="80"/>
  </g>
  <g id="sport_icon">
    <path class="cls-2" d="m59.4,27.56h.06c3.68,0,7.13-1.42,9.73-4,2.61-2.59,4.05-6.06,4.06-9.75.02-7.59-6.17-13.79-13.8-13.81h-.03c-7.55,0-13.7,6.12-13.73,13.67-.03,7.63,6.12,13.86,13.7,13.89Zm.02-21.64h.02c4.37.01,7.91,3.54,7.9,7.87,0,2.11-.83,4.09-2.32,5.57-1.49,1.48-3.43,2.29-5.6,2.28-4.4-.02-7.83-3.51-7.81-7.96.01-4.29,3.51-7.77,7.81-7.77Zm29.38,19.45c-1.16-1.16-3.03-1.16-4.18,0l-13.6,13.6c-1.39,1.39-3.23,2.15-5.2,2.15s-3.81-.76-5.2-2.15l-10.44-10.44c-5.17-5.17-13.59-5.17-18.76,0l-13.36,13.36c-1.16,1.16-1.16,3.03,0,4.18,1.15,1.16,3.03,1.16,4.18,0l13.36-13.36c2.86-2.86,7.53-2.86,10.39,0l10.44,10.44c2.51,2.51,5.84,3.89,9.38,3.89s6.87-1.38,9.38-3.88l13.6-13.6c1.16-1.16,1.16-3.03,0-4.18Zm-35.64,21.61c-5.17-5.17-13.59-5.17-18.76,0l-9.69,9.69c-3.28,3.28-8.62,3.28-11.9,0l-7.44-7.44c-1.15-1.16-3.03-1.16-4.18,0-1.16,1.16-1.16,3.03,0,4.18l7.44,7.44c5.59,5.59,14.68,5.59,20.27,0l9.69-9.69c1.39-1.39,3.23-2.15,5.2-2.15s3.81.76,5.2,2.15l27.97,27.97c.58.58,1.33.87,2.09.87s1.51-.29,2.09-.87c1.16-1.15,1.16-3.03,0-4.18l-27.97-27.97Z"/>
  </g>
</svg>