<?xml version="1.0" encoding="UTF-8"?>
<svg xmlns="http://www.w3.org/2000/svg" viewBox="0 0 80 80">
  <defs>
    <style>
      .cls-1 {
        fill: none;
      }

      .cls-1, .cls-2 {
        stroke-width: 0px;
      }

      .cls-2 {
        fill: #e2d0af;
      }
    </style>
  </defs>
  <g id="board">
    <rect class="cls-1" x="0" width="80" height="80"/>
  </g>
  <g id="sport_icon">
    <path class="cls-2" d="m77.5.73h-35.6c-.19-.05-.39-.08-.6-.08s-.41.03-.6.08H2.5C1.12.73,0,1.85,0,3.23s1.12,2.5,2.5,2.5h36.3v5.55l-10.54,13.19c-2.2,1.15-3.7,3.45-3.7,6.09v35.45c0,7.23,5.88,13.17,13.1,13.25l6.81.08c.05,0,.11,0,.16,0,3.51,0,6.81-1.36,9.32-3.83,2.54-2.51,3.94-5.86,3.94-9.43V30.57c0-2.53-1.38-4.74-3.41-5.93-.02-.03-.04-.06-.06-.09l-10.61-13.29v-5.53h33.7c1.38,0,2.5-1.12,2.5-2.5s-1.12-2.5-2.5-2.5Zm-38.7,18.56v4.4h-3.51l3.51-4.4Zm14.09,46.81c0,2.22-.87,4.31-2.45,5.87-1.56,1.54-3.61,2.39-5.8,2.39-.03,0-.07,0-.1,0l-6.81-.08c-4.5-.05-8.16-3.76-8.16-8.26v-1.09h23.33v1.17Zm0-6.17h-23.33v-18.49h23.33v18.49Zm0-29.36v5.87h-23.33v-5.87c0-1.04.84-1.88,1.88-1.88h19.57c1.04,0,1.88.84,1.88,1.88Zm-5.55-6.88h-3.54v-4.43l3.54,4.43Z"/>
  </g>
</svg>