<?xml version="1.0" encoding="UTF-8"?>
<svg xmlns="http://www.w3.org/2000/svg" viewBox="0 0 80 80">
  <defs>
    <style>
      .cls-1 {
        fill: none;
      }

      .cls-1, .cls-2 {
        stroke-width: 0px;
      }

      .cls-2 {
        fill: #e2d0af;
      }
    </style>
  </defs>
  <g id="board">
    <rect class="cls-1" x="0" width="80" height="80"/>
  </g>
  <g id="sport_icon">
    <path class="cls-2" d="m79.15,58.4c1.24-3.19,1.12-6.66-.34-9.76-1.46-3.1-4.05-5.41-7.3-6.5l-28.29-9.49c-1.52-.51-2.55-1.94-2.55-3.54V7.57c0-2.18-1.06-4.23-2.84-5.49-1.78-1.26-4.07-1.58-6.13-.85l-10.35,3.65c-.79.28-1.62.42-2.46.42H6.73c-3.71,0-6.73,3.02-6.73,6.73v41.14c0,4.63,2.41,8.71,6.03,11.06-2.01,1.74-3.55,4.27-4.25,7.27l-1.07,4.6c-.17.74,0,1.52.48,2.12.47.6,1.2.95,1.96.95h71.19c.81,0,1.57-.39,2.04-1.05.47-.66.59-1.51.33-2.27l-2.05-5.91c-.6-1.72-1.47-3.22-2.53-4.47,3.16-1.26,5.75-3.79,7.02-7.06ZM6.31,74.16l.36-1.53c.81-3.49,3.21-5.93,5.85-5.93h51.88c2.34,0,4.52,1.91,5.54,4.87l.9,2.59H6.31Zm68.18-17.56c-1.1,2.84-3.88,4.74-6.92,4.74H13.18c-4.51,0-8.18-3.67-8.18-8.18v-14.58c9.86.05,17.86,8.08,17.86,17.95,0,1.11.9,2,2,2s2-.9,2-2c0-12.08-9.8-21.91-21.87-21.96V12.02c0-.95.77-1.72,1.72-1.72h12.17c1.41,0,2.8-.24,4.13-.71l10.35-3.65c.76-.27,1.35.06,1.57.22.22.16.73.6.73,1.41v7.09h-16.23c-3.51,0-6.37,2.86-6.37,6.37s2.86,6.37,6.37,6.37h16.23v1.7c0,3.76,2.39,7.09,5.96,8.29l3.9,1.31-2.71,6.07c-.45,1.01,0,2.19,1.01,2.64.26.12.54.17.82.17.77,0,1.5-.44,1.83-1.19l2.87-6.42,5.21,1.75-2.38,5.33c-.45,1.01,0,2.19,1.01,2.64.26.12.54.17.82.17.77,0,1.5-.44,1.83-1.19l2.54-5.68,11.56,3.88c1.94.65,3.49,2.03,4.36,3.88.87,1.85.94,3.92.2,5.83ZM35.67,18.66v4.74h-16.23c-1.31,0-2.37-1.06-2.37-2.37s1.06-2.37,2.37-2.37h16.23Z"/>
  </g>
</svg>