<?xml version="1.0" encoding="UTF-8"?>
<svg xmlns="http://www.w3.org/2000/svg" viewBox="0 0 80 80">
  <defs>
    <style>
      .cls-1 {
        fill: none;
      }

      .cls-1, .cls-2 {
        stroke-width: 0px;
      }

      .cls-2 {
        fill: #e2d0af;
      }
    </style>
  </defs>
  <g id="board">
    <rect class="cls-1" x="0" width="80" height="80"/>
  </g>
  <g id="sport_icon">
    <path class="cls-2" d="m13.86,62.53c-.77-.77-2.02-.77-2.79,0-.77.77-.77,2.02,0,2.79l3.73,3.74c.38.38.89.58,1.39.58s1.01-.19,1.39-.58c.77-.77.77-2.02,0-2.79l-3.73-3.74Zm50.82-43.35c.38.38.89.58,1.39.58s1.01-.19,1.39-.58c.77-.77.77-2.02,0-2.79l-3.74-3.73c-.77-.77-2.02-.77-2.79,0-.77.77-.77,2.02,0,2.79l3.74,3.73Zm9.73,10.65l.6-.6c3.22-3.22,4.99-7.53,4.99-12.11s-1.77-8.89-4.99-12.12c-6.68-6.68-17.54-6.68-24.22,0l-.6.6-.42-.42c-.91-.9-2.1-1.39-3.38-1.39s-2.47.49-3.38,1.39l-6.37,6.37c-.9.9-1.39,2.1-1.39,3.38s.49,2.47,1.39,3.38l.42.42-18.52,18.52-.42-.42c-.91-.9-2.1-1.39-3.38-1.39s-2.48.49-3.38,1.39l-6.37,6.37c-.9.91-1.39,2.1-1.39,3.38s.49,2.47,1.39,3.38l.42.42-.39.39c-3.22,3.23-5,7.53-5,12.12,0,2.29.44,4.51,1.29,6.56.86,2.05,2.1,3.94,3.71,5.55,3.22,3.22,7.53,4.99,12.11,4.99s8.89-1.77,12.12-4.99l.39-.39.42.42c.91.9,2.1,1.39,3.38,1.39s2.47-.49,3.38-1.39l6.36-6.37c1.86-1.86,1.86-4.9,0-6.76l-.41-.41,18.53-18.53.41.41c.91.91,2.1,1.4,3.38,1.4s2.48-.49,3.38-1.4l6.37-6.36c1.86-1.86,1.86-4.9,0-6.76l-.42-.42Zm-21.76-11.42l1.79-1.79c1.86-1.86,1.86-4.9,0-6.76l-.42-.42.6-.6c2.29-2.28,5.28-3.42,8.27-3.42s6,1.14,8.28,3.42c2.2,2.21,3.41,5.14,3.41,8.28s-1.21,6.08-3.41,8.27l-.6.6-.42-.42c-.91-.9-2.1-1.39-3.38-1.39s-2.48.49-3.38,1.39l-1.79,1.79-8.93-8.93s-.02-.01-.02-.02h0Zm-13.23-4.07l6.37-6.37c.21-.21.46-.24.59-.24s.38.03.59.24l.42.42,3.83,3.83.42.42c.32.33.32.86,0,1.18l-6.37,6.37c-.21.21-.45.24-.59.24-.13,0-.37-.03-.59-.24l-.42-.42-3.83-3.83-.42-.42c-.21-.22-.24-.46-.24-.59s.03-.38.24-.59ZM7.76,46l6.37-6.37c.21-.21.46-.24.59-.24s.37.03.59.24l.42.42,3.83,3.83.42.42c.32.33.32.87,0,1.18l-6.37,6.37c-.21.21-.46.24-.59.24s-.38-.03-.59-.24l-.42-.42-3.83-3.83-.42-.42c-.21-.21-.24-.46-.24-.59s.03-.38.24-.59Zm17.6,24.36l.42.42-.39.39c-2.21,2.2-5.14,3.41-8.28,3.41-1.57,0-3.08-.31-4.49-.88-1.4-.58-2.69-1.43-3.78-2.53-2.21-2.2-3.42-5.14-3.42-8.27s1.21-6.09,3.42-8.28l.39-.39.42.42c.91.9,2.1,1.39,3.38,1.39s2.48-.49,3.38-1.39l1.8-1.8h0c.05.05.09.12.15.17l8.79,8.79-1.79,1.79c-.9.9-1.39,2.1-1.39,3.38s.49,2.47,1.39,3.38Zm15.02-4.48l-6.37,6.37c-.21.21-.46.24-.59.24s-.38-.03-.59-.24l-.42-.42-3.83-3.83-.42-.42c-.21-.22-.24-.46-.24-.59s.03-.38.24-.59l6.37-6.37c.21-.21.45-.24.59-.24.13,0,.37.03.59.24l.42.42,3.83,3.83.42.42c.32.33.32.87,0,1.18Zm16.63-27.18l.43.43-18.53,18.53-.43-.43c-.9-.9-2.1-1.39-3.37-1.39s-2.48.49-3.38,1.39l-1.79,1.8-8.8-8.8c-.06-.06-.12-.1-.18-.15l1.81-1.81c1.86-1.86,1.86-4.89,0-6.75l-.42-.43,18.52-18.52.43.42c.9.9,2.1,1.39,3.37,1.39s2.48-.49,3.38-1.39l1.8-1.8s.01.02.02.02l8.93,8.93-1.79,1.79c-.9.9-1.39,2.1-1.39,3.38s.49,2.47,1.39,3.37Zm15.02-4.47l-6.37,6.37c-.21.21-.46.24-.59.24s-.38-.03-.59-.24l-.42-.42-3.83-3.83-.42-.42c-.21-.22-.24-.46-.24-.59,0-.14.03-.38.24-.59l6.37-6.37c.21-.21.46-.24.59-.24s.37.03.59.24l.42.42,3.83,3.83.42.42c.32.33.32.86,0,1.18Z"/>
  </g>
</svg>