<?xml version="1.0" encoding="UTF-8"?>
<svg xmlns="http://www.w3.org/2000/svg" viewBox="0 0 85 80">
  <defs>
    <style>
      .cls-1 {
        fill: none;
      }

      .cls-1, .cls-2 {
        stroke-width: 0px;
      }

      .cls-2 {
        fill: #e2d0af;
      }
    </style>
  </defs>
  <g id="board">
    <rect class="cls-1" x="0" width="85" height="80"/>
  </g>
  <g id="sport_icon">
    <path class="cls-2" d="m8.48,30.52c-1.1,0-2,.89-2,2s.89,2,2,2h6.88c1.1,0,2-.89,2-2s-.89-2-2-2h-6.88Zm71.05,28.69V2.5c0-1.38-1.12-2.5-2.5-2.5s-2.5,1.12-2.5,2.5v56.71c-2.98.14-5.36,2.62-5.36,5.64s2.38,5.5,5.36,5.65v6.46c0,1.38,1.12,2.5,2.5,2.5s2.5-1.12,2.5-2.5v-6.46c2.98-.15,5.36-2.63,5.36-5.65s-2.38-5.49-5.36-5.64Zm0,7.29c-.1.02-.2.03-.31.03h-4.38c-.1,0-.2-.01-.3-.03-.78-.14-1.37-.82-1.37-1.65s.59-1.5,1.37-1.64c.1-.02.2-.03.3-.03h4.38c.11,0,.21.01.31.03.78.14,1.37.82,1.37,1.64s-.59,1.51-1.37,1.65ZM15.36,47.05h-6.88c-1.1,0-2,.89-2,2s.89,2,2,2h6.88c1.1,0,2-.89,2-2s-.89-2-2-2Zm46.76,12.16V2.5c0-1.38-1.12-2.5-2.5-2.5s-2.5,1.12-2.5,2.5v56.71c-2.98.15-5.36,2.62-5.36,5.64s2.38,5.5,5.36,5.65v6.46c0,1.38,1.12,2.5,2.5,2.5s2.5-1.12,2.5-2.5v-6.46c2.98-.15,5.36-2.63,5.36-5.65s-2.38-5.5-5.36-5.64Zm0,7.29c-.1.02-.2.03-.3.03h-4.38c-.11,0-.21-.01-.31-.03-.78-.14-1.37-.83-1.37-1.65s.59-1.5,1.37-1.64c.1-.02.2-.03.31-.03h4.38c.1,0,.2.01.3.03.78.14,1.37.82,1.37,1.64s-.59,1.51-1.37,1.65ZM11.74,0C5.33,0,.11,5.22.11,11.63v56.74c0,6.41,5.22,11.63,11.63,11.63s11.63-5.22,11.63-11.63V11.63C23.36,5.22,18.15,0,11.74,0Zm6.64,68.37c0,3.66-2.97,6.64-6.64,6.64s-6.64-2.97-6.64-6.64V11.63c0-3.66,2.98-6.64,6.64-6.64s6.64,2.97,6.64,6.64v56.74ZM38.63,0c-6.41,0-11.63,5.22-11.63,11.63v56.74c0,6.41,5.22,11.63,11.63,11.63s11.63-5.22,11.63-11.63V11.63c0-6.41-5.21-11.63-11.63-11.63Zm6.64,68.37c0,3.66-2.97,6.64-6.64,6.64s-6.64-2.97-6.64-6.64V11.63c0-3.66,2.97-6.64,6.64-6.64s6.64,2.97,6.64,6.64v56.74Zm-10.08-37.85c-1.1,0-2,.89-2,2s.89,2,2,2h6.88c1.1,0,2-.89,2-2s-.89-2-2-2h-6.88Zm6.88,16.53h-6.88c-1.1,0-2,.89-2,2s.89,2,2,2h6.88c1.1,0,2-.89,2-2s-.89-2-2-2Z"/>
  </g>
</svg>