<?xml version="1.0" encoding="UTF-8"?>
<svg xmlns="http://www.w3.org/2000/svg" viewBox="0 0 80 80">
  <defs>
    <style>
      .cls-1 {
        fill: none;
      }

      .cls-1, .cls-2 {
        stroke-width: 0px;
      }

      .cls-2 {
        fill: #e2d0af;
      }
    </style>
  </defs>
  <g id="board">
    <rect class="cls-1" width="80" height="80"/>
  </g>
  <g id="sport_icon">
    <path class="cls-2" d="m40,0C17.94,0,0,17.94,0,40s17.94,40,40,40,40-17.94,40-40S62.06,0,40,0Zm19.27,11.56l6.36,10.44-6.42,5.84-14.68-3.56-4.82-11.12,6.23-6.1c2.27.34,9.35,1.59,13.34,4.5Zm2.53,33.32l-10.81,11.29c-2.34-.23-7.03-.95-12.99-3.25l-4.11-14.53c1.56-1.51,8.04-7.79,10.39-10.6l14.04,3.4c.88,2.21,2.87,7.7,3.47,13.67ZM21.46,8.9c.91-.58,8.69-5.35,17.77-5.4.96.4,2.42,1.08,3.57,1.76l-6.34,6.2c-2.34.34-8.29,1.4-14.93,3.96l-3.44-2.83c.63-.99,1.71-2.38,3.36-3.69ZM5.13,36.78c-.03-1.36-.03-5.63.94-8.85l.03-.08c.32-.89,1.15-3.12,2.02-4.69.41-.5,4.1-4.91,7.76-7.91l3.32,2.73c-.57,1.99-1.57,6.25-2.11,13.26l-8.71,8.76c-.74-.51-1.87-1.47-3.25-3.23Zm26.49,38.01c-3.03-.66-12.78-3.44-19.97-12.96l1.89-2.01,13.68,6.42c1.3,1.42,3.87,4.08,6.84,6.41l-2.45,2.15Zm-5.18-12.77l-12.26-5.75c-.96-2.1-3.1-7.46-3.34-13.81l8.09-8.14,11.54,4.7,4.18,14.76-8.2,8.24Zm14.04,13.83c-1.41,0-2.91-.1-4.46-.3l1.63-1.43c2.12-.07,7.47-.47,13.41-2.56l3.77.09c.67.04,1.35.08,1.92.05h.12s.25,0,.25,0c-3.77,1.99-9.51,4.15-16.63,4.15Zm31.17-19.2c-.06.34-.12.68-.19,1.03-.67,1.23-4.05,7.12-9.1,10.59-.07.02-.17.04-.28.07l-8.7-.2c.26-2.24.41-5.56.42-9.85l.13-.14c1.09-.98,4.96-4.54,8.73-9.12l1.49-1.56,7.51.68v8.5Zm-2.09-34.9l-2.73-4.49c-.46-.87-1.02-1.78-1.64-2.69l-1.43-2.34c2.63,2.32,6.98,6.85,9.81,13.5-1.08-1.52-2.45-3.06-4-3.98Zm5.57,25.03c.26-1.06.77-3.32,1.18-6.05-.05,2.57-.36,5.59-1.18,8.75v-2.7Z"/>
  </g>
</svg>