<?xml version="1.0" encoding="UTF-8"?>
<svg xmlns="http://www.w3.org/2000/svg" viewBox="0 0 80 80">
  <defs>
    <style>
      .cls-1 {
        fill: none;
      }

      .cls-1, .cls-2 {
        stroke-width: 0px;
      }

      .cls-2 {
        fill: #e2d0af;
      }
    </style>
  </defs>
  <g id="board">
    <rect class="cls-1" x="0" width="80" height="80"/>
  </g>
  <g id="sport_icon">
    <path class="cls-2" d="m43.7,75.36h-23.63c-1.09,0-1.97.89-1.97,1.97s.88,1.97,1.97,1.97h23.63c1.08,0,1.97-.88,1.97-1.97s-.89-1.97-1.97-1.97Zm-36.23,0H2.71c-1.09,0-1.97.88-1.97,1.97s.88,1.97,1.97,1.97h4.76c1.09,0,1.97-.88,1.97-1.97s-.88-1.97-1.97-1.97Zm48.93,0c-.13,0-.26,0-.38.04-.13.03-.26.07-.37.11-.12.05-.23.12-.33.19s-.21.16-.3.25c-.36.36-.57.87-.57,1.39s.21,1.02.57,1.4c.37.36.87.57,1.4.57.13,0,.26,0,.38-.04.13-.02.25-.06.36-.11s.24-.11.34-.18c.11-.08.21-.16.3-.25.37-.37.58-.87.58-1.4s-.22-1.02-.58-1.39c-.36-.37-.87-.58-1.39-.58Zm20.9-7.59h-16.86c-.66,0-1.28-.28-1.76-.78-.37-.4-.8-.76-1.24-1.07,22.44-32.16,7.78-57.68,7.11-58.82-.72-1.2-2.23-1.66-3.5-1.05-.32.16-7.35,3.59-14.21,12C42.38,7.26,36.21,1.65,35.94,1.4c-1.04-.93-2.63-.91-3.65.04-.29.26-6.91,6.52-11.34,18.28-3.65,9.72-6.37,25.04-.14,44.8H2.7c-1.49,0-2.7,1.21-2.7,2.7s1.21,2.7,2.7,2.7h50.29c.42,0,.84.12,1.2.33.21.12.39.27.56.44.49.52,1.04.96,1.64,1.32,1.22.75,2.62,1.15,4.04,1.15h16.86c1.49,0,2.7-1.21,2.7-2.7s-1.21-2.7-2.7-2.7ZM34.16,7.35c2.03,2.33,5.34,6.73,7.94,13.17-1.75,2.28-3.63,4.42-5.62,6.43l-.08-11.1c0-1.08-.89-1.95-1.97-1.95h-.01c-1.09,0-1.96.9-1.95,1.98l.11,14.73c-3.11,2.67-6.46,5.03-10.03,7.08.98-15.99,8.16-26.27,11.61-30.35Zm-11.71,34.9s0,0,0-.02c8.17-4.34,15.29-10.14,21.2-17.32,0,0,0,0,0,0,.51,1.67.96,3.43,1.32,5.31-6.05,7.85-13.46,14.17-22.06,18.83-.29-2.36-.44-4.64-.47-6.81Zm19.53,22.28h-15.47c-1.36-3.96-2.32-7.74-2.97-11.32,0,0,0,0,0,0,3.21-1.66,6.26-3.55,9.16-5.64l.09,12.65c0,1.08.89,1.95,1.97,1.95h.01c1.09,0,1.96-.9,1.95-1.98l-.11-15.28c0-.11-.02-.22-.03-.32,3.29-2.72,6.35-5.74,9.16-9.04,0,0,0,.01,0,.02.78,8.06,0,17.73-3.77,28.96Zm9.8,0h-4.13c5.33-17.08,4.1-30.74,1.34-40.36,4.42-6.25,9.3-10.03,12.11-11.87,2.95,6.87,9,27.34-9.31,52.24Zm13.32,11.17c-.1-.07-.22-.14-.33-.19-.12-.04-.25-.08-.37-.11-.25-.05-.51-.05-.77,0-.12.03-.25.07-.36.11-.12.05-.24.12-.34.19-.11.07-.21.16-.3.25-.36.36-.58.87-.58,1.39s.21,1.02.58,1.4c.37.36.87.57,1.39.57.14,0,.27-.01.39-.04.12-.02.25-.06.36-.11s.23-.11.33-.18c.11-.08.21-.16.3-.25.37-.37.57-.88.57-1.4s-.21-1.02-.57-1.39c-.09-.09-.2-.18-.3-.25Z"/>
  </g>
</svg>