<?xml version="1.0" encoding="UTF-8"?>
<svg xmlns="http://www.w3.org/2000/svg" viewBox="0 0 85 80">
  <defs>
    <style>
      .cls-1 {
        fill: none;
      }

      .cls-1, .cls-2 {
        stroke-width: 0px;
      }

      .cls-2 {
        fill: #e2d0af;
      }
    </style>
  </defs>
  <g id="board">
    <rect class="cls-1" width="85" height="80"/>
  </g>
  <g id="sport_icon">
    <path class="cls-2" d="m54.73,20.06c-7.57,0-13.74,6.14-13.77,13.71-.03,7.65,6.14,13.9,13.74,13.93h.06c3.69,0,7.15-1.42,9.76-4.01,2.62-2.6,4.07-6.08,4.07-9.78.02-7.62-6.19-13.83-13.84-13.85h-.03Zm7.94,13.83c0,2.12-.83,4.1-2.32,5.59-1.49,1.48-3.47,2.29-5.58,2.29h-.04c-4.41-.02-7.85-3.52-7.84-7.98.01-4.3,3.53-7.79,7.83-7.79h.02c4.38.01,7.93,3.55,7.92,7.9Zm-28.19,15.61c.58.83,1.5,1.27,2.44,1.27.58,0,1.18-.17,1.69-.53,1.35-.94,1.68-2.78.74-4.13l-1.77-2.55c-2.89-4.16-3.91-9.18-2.86-14.14,1.05-4.96,4-9.14,8.33-11.78l17.43-10.63c1.4-.85,1.84-2.68.99-4.08-.85-1.4-2.68-1.84-4.08-.99l-17.43,10.63c-5.74,3.5-9.66,9.05-11.04,15.62-1.39,6.57-.04,13.23,3.8,18.75l1.77,2.55Zm47.55,23.05c-3.9,0-5.72-1.46-8.03-3.31-2.56-2.05-5.75-4.61-11.74-4.61s-9.17,2.55-11.74,4.61c-2.31,1.85-4.13,3.31-8.03,3.31s-5.72-1.46-8.03-3.31c-2.56-2.05-5.75-4.61-11.74-4.61s-9.17,2.55-11.74,4.61c-2.31,1.85-4.13,3.31-8.03,3.31-1.64,0-2.97,1.33-2.97,2.97s1.33,2.97,2.97,2.97c5.98,0,9.17-2.55,11.74-4.61,2.31-1.85,4.13-3.31,8.03-3.31s5.72,1.46,8.03,3.31c2.56,2.05,5.75,4.61,11.74,4.61s9.17-2.55,11.74-4.61c2.31-1.85,4.13-3.31,8.03-3.31s5.72,1.46,8.03,3.31c2.56,2.05,5.75,4.61,11.74,4.61,1.64,0,2.97-1.33,2.97-2.97s-1.33-2.97-2.97-2.97ZM2.97,63.03c5.98,0,9.17-2.55,11.74-4.61,2.31-1.85,4.13-3.31,8.03-3.31s5.72,1.46,8.03,3.31c2.56,2.05,5.75,4.61,11.74,4.61s9.17-2.55,11.74-4.61c2.31-1.85,4.13-3.31,8.03-3.31s5.72,1.46,8.03,3.31c2.56,2.05,5.75,4.61,11.74,4.61,1.64,0,2.97-1.33,2.97-2.97s-1.33-2.97-2.97-2.97c-3.9,0-5.72-1.46-8.03-3.31-2.56-2.05-5.75-4.61-11.74-4.61s-9.17,2.55-11.74,4.61c-2.31,1.85-4.13,3.31-8.03,3.31s-5.72-1.46-8.03-3.31c-2.56-2.05-5.75-4.61-11.74-4.61s-9.17,2.55-11.74,4.61c-2.31,1.85-4.13,3.31-8.03,3.31-1.64,0-2.97,1.33-2.97,2.97s1.33,2.97,2.97,2.97Z"/>
  </g>
</svg>