<?xml version="1.0" encoding="UTF-8"?>
<svg xmlns="http://www.w3.org/2000/svg" viewBox="0 0 80 80">
  <defs>
    <style>
      .cls-1 {
        fill: none;
      }

      .cls-1, .cls-2 {
        stroke-width: 0px;
      }

      .cls-2 {
        fill: #e2d0af;
      }
    </style>
  </defs>
  <g id="board">
    <rect class="cls-1" width="80" height="80"/>
  </g>
  <g id="sport_icon">
    <path class="cls-2" d="m45.25.12C26.1.12,10.51,15.71,10.51,34.87c0,1.67.12,3.36.37,5.04l-.27-.27.45,1.74c1.35,5.2,2.98,14.77.57,17.62l-10.41,10.41c-1.72,1.72-1.61,4.65.26,6.52l2.46,2.46c.99.98,2.26,1.48,3.51,1.48,1.12,0,2.2-.4,3.02-1.22l10.38-10.38c1.86-1.57,6.76-1.69,13.75-.33,3.45,1.11,7.03,1.67,10.66,1.67,19.16,0,34.75-15.59,34.75-34.74S64.41.12,45.25.12Zm2.44,64.36c-4.8.39-9.46-.35-13.86-2.19-.64-.27-1.24-.68-1.79-1.23l-13-13c-.55-.55-.96-1.15-1.23-1.78-1.84-4.4-2.58-9.07-2.19-13.86,1.18-14.62,13.11-26.32,27.75-27.22.61-.04,1.22-.06,1.83-.06,7.87,0,15.45,3.12,21.05,8.71,6.03,6.02,9.18,14.36,8.66,22.87-.9,14.64-12.6,26.57-27.22,27.75Zm13.26-40.27c-6.04,0-10.96,4.91-10.96,10.96s4.92,10.96,10.96,10.96,10.96-4.91,10.96-10.96-4.92-10.96-10.96-10.96Zm0,17.77c-3.76,0-6.81-3.06-6.81-6.81s3.06-6.81,6.81-6.81,6.81,3.06,6.81,6.81-3.06,6.81-6.81,6.81Z"/>
  </g>
</svg>