<?xml version="1.0" encoding="UTF-8"?>
<svg xmlns="http://www.w3.org/2000/svg" viewBox="0 0 80 80">
  <defs>
    <style>
      .cls-1 {
        fill: none;
      }

      .cls-1, .cls-2 {
        stroke-width: 0px;
      }

      .cls-2 {
        fill: #e2d0af;
      }
    </style>
  </defs>
  <g id="board">
    <rect class="cls-1" x="0" width="80" height="80"/>
  </g>
  <g id="sport_icon">
    <path class="cls-2" d="m75.71,11.81c-2.11-3.26-5.15-5.9-8.84-7.54l-6.46-2.86-1.85-.82c-3.04-1.35-6.62-.34-8.51,2.38l-10.14,14.61L29.78,3c-1.9-2.74-5.5-3.74-8.54-2.36l-1.7.76-6.41,2.88C5.75,7.55.98,14.87.98,22.94v45.61c0,1.37,1.11,2.47,2.47,2.47h9.17l-.76,6.21c-.09.7.13,1.41.59,1.94.47.52,1.15.83,1.86.83h51.18c.71,0,1.39-.31,1.86-.83.47-.53.68-1.24.6-1.94l-.77-6.21h9.35c1.37,0,2.47-1.11,2.47-2.47V22.94c0-4.04-1.19-7.88-3.3-11.12Zm-58.6,63.24l.49-4.04.61-4.95.6-4.83h16.72l-2.63,4.83-.86,1.58c-.52.96-.17,2.16.79,2.68.31.16.62.24.95.24.7,0,1.38-.38,1.74-1.03l1.89-3.47,2.58-4.75,2.57,4.75,1.89,3.47c.36.65,1.04,1.03,1.74,1.03.32,0,.64-.08.94-.24.96-.52,1.32-1.72.79-2.68l-.86-1.58-2.62-4.83h16.53l.6,4.83.61,4.95.49,4.04H17.11Zm56.96-8.98h-7.48l-1.41-11.35,2.78-28.83c.14-1.36-.86-2.57-2.23-2.7-1.35-.13-2.56.86-2.69,2.23l-.02.24-2.57,26.64H19.37l-2.57-26.64-.02-.24c-.13-1.37-1.35-2.36-2.69-2.23-1.37.13-2.36,1.35-2.23,2.7l2.78,28.83-1.4,11.35h-7.31V22.94c0-6.12,3.61-11.66,9.21-14.14l4.54-2.05,13.12,18.9,3.84,5.53h-.94c-1.06,0-1.91.85-1.91,1.91v4.06c0,1.06.85,1.91,1.91,1.91h8.59c1.06,0,1.92-.85,1.92-1.91v-4.06c0-1.06-.86-1.91-1.92-1.91h-.95l3.83-5.53h0l13.1-18.88,4.59,2.04c5.58,2.47,9.19,8.01,9.19,14.13v43.13Z"/>
  </g>
</svg>