<?xml version="1.0" encoding="UTF-8"?>
<svg xmlns="http://www.w3.org/2000/svg" viewBox="0 0 80 80">
  <defs>
    <style>
      .cls-1 {
        fill: none;
      }

      .cls-1, .cls-2 {
        stroke-width: 0px;
      }

      .cls-2 {
        fill: #e2d0af;
      }
    </style>
  </defs>
  <g id="board">
    <rect class="cls-1" width="80" height="80"/>
  </g>
  <g id="sport_icon">
    <path class="cls-2" d="m64.21,17l.12-.1-3.32-2.91-.65-.47c-5.51-4.22-12.36-6.54-19.29-6.54s-13.96,2.38-19.45,6.67l-.43.28-2.34,2.06-.7.79c-5.7,5.95-8.83,13.74-8.83,21.95s3.07,15.81,8.64,21.75l-.12.11,3.29,2.89.69.5c5.51,4.2,12.34,6.52,19.25,6.52s13.96-2.38,19.44-6.67l.43-.28,2.34-2.06.69-.78c5.7-5.95,8.84-13.75,8.84-21.96s-3.06-15.8-8.62-21.73ZM25.44,52.16c-.13.23-.28.45-.47.75l-.12.19h0c-.05.08-.1.16-.13.2-.24.35-.48.7-.77,1.11-.27.36-.54.71-.83,1.06-.06.07-.26.31-.3.35-.19.23-.38.45-.59.68-.06.07-.23.26-.27.3l-.05.04c-4.66-4.92-7.22-11.34-7.22-18.12s2.56-13.18,7.21-18.11c0,0,.02.02.03.03.09.09.25.26.3.31.18.2.35.4.58.67l.06.07c.07.08.2.24.25.29.29.35.56.7.87,1.12.25.34.5.69.74,1.05.03.04.12.18.19.3l.15.24c.13.2.25.39.37.59l.43.77c.08.14.15.27.22.4l.32.64c.09.19.19.38.28.58.08.17.15.33.24.54.1.23.2.46.29.7.07.18.14.37.21.55.09.23.17.47.25.7.06.19.13.38.19.57.08.24.15.48.22.72.06.19.11.38.16.57.06.23.11.45.17.67l.05.22c.03.14.07.28.09.42.05.25.1.51.15.77l.04.21c.02.12.04.23.06.36.04.27.08.54.12.85.01.09.05.39.06.5.03.28.05.55.08.93,0,.06.03.34.03.42.02.45.04.91.04,1.36s-.01.91-.04,1.36c0,.09-.03.4-.03.45-.02.3-.04.61-.07.91-.01.12-.06.52-.07.58-.03.25-.06.5-.1.76-.02.1-.06.36-.08.48v.08c-.06.26-.11.51-.16.77-.04.18-.08.37-.13.58-.06.25-.12.49-.18.74-.05.19-.1.38-.16.56-.07.24-.14.49-.22.73-.06.19-.12.37-.19.56-.08.24-.17.47-.26.71-.07.19-.14.37-.21.55-.09.23-.2.47-.31.74-.07.17-.15.33-.22.5-.11.23-.22.46-.34.7l-.08.16c-.06.12-.11.23-.17.34-.12.22-.24.44-.4.72-.01.02-.2.36-.26.46Zm15.63,12.94c-5.42,0-10.63-1.64-15.09-4.75.1-.11.2-.22.3-.33.22-.24.43-.49.64-.74l.42-.5c.22-.27.43-.54.63-.8,0,0,.29-.38.37-.48.24-.33.47-.66.69-.98l.24-.35c.3-.46.59-.92.87-1.39l.16-.29c.21-.36.41-.72.6-1.09.04-.09.19-.37.25-.5l.06-.11c.14-.27.27-.55.4-.83.16-.35.23-.51.26-.59h0c.13-.29.25-.58.37-.88.07-.19.14-.37.24-.63.11-.29.21-.58.32-.88.07-.21.14-.43.22-.66.09-.29.18-.59.27-.88.07-.23.13-.45.19-.67.08-.3.15-.6.23-.93.05-.22.1-.43.15-.65.06-.31.12-.62.18-.93,0,0,.09-.5.12-.67.05-.32.09-.65.13-.97l.03-.2c.02-.15.04-.29.05-.44.04-.36.06-.72.09-1.07,0,0,.04-.45.04-.55.03-.56.04-1.11.04-1.64s-.01-1.08-.04-1.63c0-.07-.02-.26-.03-.41v-.14c-.04-.36-.06-.72-.1-1.08-.01-.11-.05-.45-.08-.65v-.09c-.05-.29-.09-.58-.13-.87-.02-.14-.05-.29-.09-.52l-.03-.15c-.06-.31-.11-.62-.18-.93-.04-.21-.09-.43-.15-.67-.07-.3-.14-.6-.22-.9-.06-.22-.12-.45-.18-.67-.09-.29-.17-.59-.27-.88-.07-.22-.14-.44-.22-.65-.1-.29-.21-.59-.37-1.03-.06-.16-.12-.32-.19-.48-.12-.3-.25-.59-.37-.88l-.26-.6c-.14-.31-.3-.62-.45-.92l-.26-.53c-.19-.37-.4-.73-.6-1.08l-.18-.33c-.27-.46-.56-.92-.87-1.39l-.21-.31c-.23-.33-.46-.67-.69-.99-.08-.1-.34-.45-.41-.54-.19-.25-.38-.5-.58-.74-.09-.11-.18-.22-.32-.38l-.15-.17c-.2-.23-.39-.46-.6-.69-.05-.05-.17-.18-.3-.32,4.39-3.06,9.74-4.75,15.09-4.75s10.68,1.69,15.09,4.75c-.1.11-.2.21-.3.32-.22.24-.44.49-.64.74,0,0-.33.38-.42.5-.22.27-.43.54-.64.81l-.36.47c-.24.33-.47.66-.69.99l-.23.33c-.3.46-.58.91-.87,1.39l-.16.29c-.21.36-.41.72-.6,1.09-.15.29-.23.45-.27.54-.15.3-.3.6-.44.91-.06.14-.26.59-.26.59-.13.29-.25.59-.38.89-.07.18-.14.36-.2.53l-.04.1c-.11.29-.22.58-.32.88-.08.22-.15.44-.22.66-.09.29-.18.58-.27.88-.06.22-.13.45-.19.67-.08.3-.15.6-.23.92-.05.22-.1.44-.15.66-.06.31-.12.62-.18.92l-.02.14c-.03.18-.06.35-.09.54-.05.33-.09.65-.13.97,0,0-.06.5-.08.64-.04.35-.06.7-.09,1.08,0,0-.04.45-.04.55-.03.57-.04,1.1-.04,1.63s.01,1.08.04,1.63c0,.07.02.28.03.43v.18c.04.34.06.68.1,1.01.01.15.08.63.08.63.04.33.08.65.13.98.03.18.12.66.12.66.05.31.11.62.18.93.05.22.1.44.15.68.07.3.14.6.22.9.06.23.12.45.19.68.08.29.17.59.27.88.07.22.14.44.22.66.07.19.14.39.21.58h0s.39,1.02.39,1.02h0c.11.26.22.53.33.79,0,0,.2.46.26.6.14.31.29.62.44.91,0,0,.21.43.27.54.19.37.4.73.59,1.07l.19.33c.27.46.56.92.87,1.39l.21.31c.23.33.45.67.69.99.07.1.36.47.36.47.21.27.42.54.64.82.08.09.28.34.37.44l.04.05c.21.25.42.49.64.74.09.1.18.2.3.33-4.44,3.11-9.65,4.75-15.09,4.75Zm19.17-8.27c-.08-.08-.26-.28-.33-.34-.19-.21-.37-.42-.56-.64l-.06-.07h0s-.03-.03-.04-.05c-.07-.08-.19-.22-.23-.27-.57-.69-1.11-1.42-1.61-2.17l-.3-.47c-.14-.22-.28-.44-.42-.68-.04-.06-.12-.21-.21-.37l-.09-.15c-.12-.22-.24-.43-.35-.64l-.26-.52c-.12-.23-.23-.46-.34-.7-.08-.16-.15-.33-.23-.53-.1-.23-.2-.47-.3-.7-.07-.16-.13-.32-.19-.48l-.02-.06c-.09-.24-.18-.48-.26-.71-.06-.19-.13-.38-.19-.57-.08-.24-.15-.48-.22-.72-.05-.19-.11-.38-.16-.57-.07-.25-.13-.5-.18-.75l-.03-.14c-.03-.13-.08-.33-.1-.43l-.07-.34c-.03-.13-.05-.25-.07-.33l-.02-.14c-.02-.1-.07-.41-.09-.53-.04-.26-.07-.51-.11-.81l-.07-.59c-.03-.28-.05-.57-.07-.88,0-.06-.03-.34-.03-.42-.02-.45-.04-.91-.04-1.37s.01-.91.04-1.37c0-.08.03-.4.03-.45.02-.3.04-.6.07-.9,0-.06.03-.21.04-.33l.02-.2h0c.03-.27.07-.54.11-.81.02-.14.05-.28.07-.42l.03-.14c.05-.26.09-.51.15-.76.03-.13.06-.26.11-.47l.02-.1c.06-.25.12-.49.18-.74.04-.17.09-.34.16-.57.07-.24.14-.48.22-.72.06-.19.12-.37.19-.57.08-.23.16-.45.27-.74l.04-.11c.05-.13.1-.27.16-.4.1-.24.2-.47.33-.77l.21-.46c.11-.23.22-.47.34-.7l.02-.03s.03-.06.05-.09l.19-.38c.12-.24.26-.47.39-.71l.11-.19c.05-.09.1-.18.16-.27.15-.26.31-.5.48-.77l.23-.37c.5-.75,1.04-1.48,1.61-2.17.05-.06.24-.28.28-.32.2-.24.4-.47.61-.7.06-.07.25-.26.33-.34,4.65,4.92,7.21,11.34,7.21,18.11s-2.56,13.18-7.21,18.11Z"/>
  </g>
</svg>