<?xml version="1.0" encoding="UTF-8"?>
<svg xmlns="http://www.w3.org/2000/svg" viewBox="0 0 80 80">
  <defs>
    <style>
      .cls-1 {
        fill: none;
      }

      .cls-1, .cls-2 {
        stroke-width: 0px;
      }

      .cls-2 {
        fill: #e2d0af;
      }
    </style>
  </defs>
  <g id="board">
    <rect class="cls-1" width="80" height="80"/>
  </g>
  <g id="sport_icon">
    <path class="cls-2" d="m40,0C17.94,0,0,17.94,0,40s17.94,40,40,40,40-17.94,40-40S62.06,0,40,0Zm35,39.4c-1.5,1.73-5.42,5.71-11.65,8.32-7.96,3.34-16.76,3.31-26.14-.09,1.02-1.78,2.23-3.48,3.61-5.07,4.96.95,19.43,2.29,33.42-9.84.46,2.19.72,4.43.76,6.67Zm-2.2-11.63c-2.28,2.17-4.7,4.04-7.22,5.56-1.41-5.93-5.7-18.77-17.6-27.42,11.34,2.65,20.69,10.84,24.82,21.85ZM36.95,5.13c18.55,7.32,23.43,25.82,24.37,30.41-2.35,1.03-4.79,1.8-7.26,2.3-.81-6.31-4.94-24.39-25.57-30.9,2.73-.95,5.57-1.56,8.47-1.81Zm-15.12,4.95c10.22,1.85,17.86,6.66,22.7,14.28,3.61,5.68,4.65,11.43,4.95,14.08-3.46.22-6.15-.13-7.63-.4-4.57-15.09-18.22-22.05-24.69-24.57,1.45-1.25,3.02-2.39,4.67-3.39ZM4.98,40c0-8.41,3.03-16.52,8.55-22.89,1.77.6,4.92,1.82,8.43,3.89-2.56,1.7-6,4.63-8.98,9.41-3.56,5.71-5.62,12.7-6.15,20.81-1.23-3.61-1.85-7.37-1.85-11.22Zm6.52,20.31c-.78-11.38,1.12-20.73,5.64-27.79,3.37-5.26,7.29-7.74,9.07-8.67,1.81,1.39,3.45,2.9,4.89,4.5-2.2,2.19-5.24,5.74-7.87,10.65-3.3,6.19-6.66,16.16-4.26,28.97-2.87-2.16-5.38-4.73-7.48-7.67Zm13.05,11.1c-3.08-10.74-2.17-20.86,2.72-30.09h0c2.21-4.17,4.79-7.28,6.71-9.25,1.49,2.28,2.64,4.74,3.43,7.34-10.76,12.23-9.94,27.06-8.87,33.67-1.34-.47-2.68-1.03-3.98-1.67Zm15.44,3.6c-2.16,0-4.34-.2-6.47-.6-.37-1.71-1.19-6.33-.73-12.03,2.23,1.28,5.6,2.87,9.91,3.91,6.98,1.68,14.46,1.29,21.67-1.19-6.52,6.33-15.29,9.92-24.38,9.92Zm30.5-17.85c-8.33,4.88-16.79,6.55-25.14,4.98-6.09-1.15-10.34-3.75-11.83-4.77.41-1.94.97-3.8,1.66-5.55,5.29,1.96,10.51,2.96,15.52,2.96,11.21,0,19.38-5,23.74-8.54-.69,3.84-2.02,7.5-3.95,10.92Z"/>
  </g>
</svg>