<?xml version="1.0" encoding="UTF-8"?>
<svg xmlns="http://www.w3.org/2000/svg" viewBox="0 0 100 80">
  <defs>
    <style>
      .cls-1 {
        fill: none;
      }

      .cls-1, .cls-2 {
        stroke-width: 0px;
      }

      .cls-2 {
        fill: #e2d0af;
      }
    </style>
  </defs>
  <g id="board">
    <rect class="cls-1" x="0" width="100" height="80"/>
  </g>
  <g id="sport_icon">
    <path class="cls-2" d="m93.95,33.95h-2.04v-7.34c0-3.62-2.89-6.57-6.44-6.57-.47,0-.93.05-1.37.15h0c0-5.27-5.78-9.35-10.75-9.35s-10.74,4.08-10.74,9.34v12.29h-25.2v-12.29c0-5.26-5.78-9.34-10.75-9.34s-10.75,4.08-10.75,9.34h0c-.44-.08-.9-.14-1.37-.14-3.55,0-6.44,2.95-6.44,6.57v7.34h-2.04c-3.34,0-6.06,2.72-6.06,6.05s2.72,6.05,6.06,6.05h2.04v7.33c0,3.63,2.89,6.58,6.44,6.58.47,0,.93-.05,1.37-.15v.02c0,5.26,5.78,9.34,10.75,9.34s10.75-4.08,10.75-9.34v-12.29h25.2v12.29c0,5.26,5.78,9.34,10.74,9.34s10.75-4.08,10.75-9.34v-.02c.44.1.9.15,1.37.15,3.55,0,6.44-2.95,6.44-6.58v-7.33h2.04c3.34,0,6.05-2.72,6.05-6.05s-2.72-6.05-6.05-6.05ZM14.53,54.98c-.79,0-1.47-.74-1.47-1.6v-9.81c0-1.37-1.11-2.49-2.49-2.49h-4.52c-.6,0-1.09-.49-1.09-1.08s.49-1.08,1.09-1.08h4.52c1.37,0,2.49-1.11,2.49-2.49v-9.82c0-.87.67-1.6,1.47-1.6.62,0,1.15.44,1.37,1.03v27.9c-.22.6-.75,1.04-1.37,1.04Zm17.9,4.84c0,2.21-3.31,4.37-5.78,4.37s-5.78-2.16-5.78-4.37v-5.3c.06-.37.1-.75.1-1.14v-26.77c0-.39-.04-.77-.1-1.13v-5.3c0-2.21,3.31-4.37,5.78-4.37s5.78,2.16,5.78,4.37v39.64Zm4.97-17.26v-5.12h25.2v5.12h-25.2Zm35.95,21.63c-2.47,0-5.77-2.16-5.77-4.37V20.18c0-2.21,3.31-4.37,5.77-4.37s5.78,2.16,5.78,4.37v5.31c-.06.36-.1.74-.1,1.12v26.77c0,.38.04.75.1,1.12v5.32c0,2.21-3.31,4.37-5.78,4.37Zm20.6-23.11h-4.52c-1.37,0-2.49,1.11-2.49,2.49v9.81c0,.87-.67,1.6-1.47,1.6-.62,0-1.16-.44-1.37-1.05v-27.89c.21-.6.75-1.04,1.37-1.04.79,0,1.47.73,1.47,1.6v9.82c0,1.37,1.11,2.49,2.49,2.49h4.52c.6,0,1.08.49,1.08,1.08s-.49,1.08-1.08,1.08Z"/>
  </g>
</svg>