<?xml version="1.0" encoding="UTF-8"?>
<svg xmlns="http://www.w3.org/2000/svg" viewBox="0 0 80 80">
  <defs>
    <style>
      .cls-1 {
        fill: none;
      }

      .cls-1, .cls-2 {
        stroke-width: 0px;
      }

      .cls-2 {
        fill: #e2d0af;
      }
    </style>
  </defs>
  <g id="board">
    <rect class="cls-1" x="0" width="80" height="80"/>
  </g>
  <g id="sport_icon">
    <path class="cls-2" d="m39.93,26.53h.06c3.54,0,6.87-1.37,9.37-3.85,2.51-2.5,3.9-5.83,3.91-9.39.02-7.31-5.94-13.27-13.29-13.29h-.03c-7.27,0-13.19,5.9-13.21,13.16-.02,7.34,5.89,13.34,13.19,13.37Zm.02-20.64h.02c4.09.01,7.41,3.32,7.4,7.38,0,1.98-.78,3.83-2.17,5.22-1.39,1.38-3.24,2.14-5.21,2.14h-.03c-4.12-.02-7.34-3.29-7.32-7.46.01-4.02,3.29-7.28,7.32-7.28Zm12.5,44.75l-.14-.02c-1.61-.25-3.11.85-3.36,2.46-.25,1.61.85,3.11,2.46,3.36l.14.02c4.34.67,9.26,1.43,12.14,4.28,1.96,1.94,2.66,5.14,1.74,7.94-.93,2.82-3.52,4.8-6.94,5.31-3.25.49-7.36-.82-10.46-3.32-1.43-1.15-2.82-2.47-4.18-3.92.81-1.05,1.6-2.15,2.37-3.3.91-1.35.55-3.18-.81-4.09-1.35-.91-3.18-.55-4.09.81-.44.65-.88,1.28-1.33,1.9-.45-.62-.89-1.24-1.33-1.9-.91-1.35-2.74-1.72-4.09-.81-1.35.91-1.71,2.74-.81,4.09.77,1.15,1.56,2.25,2.37,3.3-1.35,1.45-2.75,2.77-4.18,3.92-3.11,2.5-7.2,3.81-10.46,3.32-3.42-.51-6.01-2.49-6.94-5.31-.92-2.81-.22-6,1.74-7.94,2.88-2.85,7.8-3.61,12.14-4.28l.14-.02c1.61-.25,2.71-1.76,2.46-3.36-.25-1.61-1.75-2.71-3.36-2.46l-.14.02c-4.97.77-11.15,1.72-15.39,5.92-3.57,3.53-4.82,9.02-3.19,13.98,1.64,4.98,6,8.46,11.67,9.3.73.11,1.48.16,2.24.16,4.33,0,9.05-1.72,12.79-4.73,1.49-1.2,2.93-2.54,4.34-4,1.4,1.47,2.85,2.81,4.34,4,3.74,3.01,8.46,4.73,12.79,4.73.76,0,1.51-.05,2.24-.16,5.67-.84,10.03-4.32,11.67-9.3,1.63-4.96.38-10.44-3.19-13.98-4.24-4.2-10.42-5.15-15.39-5.92Zm-38.62-1.2c2.22-8.73,8.49-16.06,16.78-19.59,1.5-.64,2.19-2.37,1.56-3.87-.64-1.5-2.37-2.19-3.87-1.56-9.97,4.25-17.51,13.06-20.18,23.56-.54,2.11-2.42,3.58-4.59,3.58-1.63,0-2.95,1.32-2.95,2.95s1.32,2.95,2.95,2.95c4.87,0,9.11-3.3,10.31-8.02Zm62.64,2.13c-2.17,0-4.06-1.47-4.59-3.58-2.67-10.51-10.21-19.31-20.18-23.56-1.5-.64-3.23.06-3.87,1.56-.64,1.5.06,3.23,1.56,3.87,8.29,3.53,14.56,10.86,16.78,19.59,1.2,4.72,5.44,8.02,10.31,8.02,1.63,0,2.95-1.32,2.95-2.95s-1.32-2.95-2.95-2.95Z"/>
  </g>
</svg>