<?xml version="1.0" encoding="UTF-8"?>
<svg xmlns="http://www.w3.org/2000/svg" version="1.1" viewBox="0 0 160 171.3">
  <defs>
    <style>
      .cls-1, .cls-2 {
        isolation: isolate;
      }

      .cls-3 {
        fill: #282828;
      }

      .cls-2 {
        fill: #555;
        font-family: "Poppins", "微軟正黑體", "新細明體", sans-serif !important;
        font-size: 24px;
        font-weight: 500;
        letter-spacing: .2em;
      }

      .cls-4 {
        fill: #81d8d0;
      }
    </style>
  </defs>
  <!-- Generator: Adobe Illustrator 28.6.0, SVG Export Plug-In . SVG Version: 1.2.0 Build 709)  -->
  <g>
    <g id="_圖層_1" data-name="圖層_1">
      <g id="_圖層_1-2" data-name="_圖層_1">
        <g id="_圖層_1-2">
          <circle class="cls-4" cx="99.3" cy="48.4" r="22"/>
          <g>
            <path class="cls-3" d="M135.8,77.5l-15.4-15.4c2.7-4,4.1-8.8,4.1-13.7s-.7-6.6-1.9-9.7c-1.2-3-3.1-5.8-5.5-8.2s-5.2-4.2-8.2-5.5v-10.5c0-3.5-2.8-6.3-6.3-6.3H37c-6.8,0-12.4,5.5-12.4,12.4v74.3c0,6.8,5.5,12.4,12.4,12.4h7v.5c0,1.1.5,2.2,1.2,3,.9.9,2.1,1.4,3.4,1.4s1.9-.3,2.8-.8l1-.7,1,.7c2,1.3,4.6,1.1,6.2-.6.8-.8,1.2-1.9,1.2-3v-.5h41.8c3.5,0,6.3-2.8,6.3-6.3v-29.3c1.4-.6,2.8-1.3,4.1-2.2l15.4,15.4c1,1,2.4,1.5,3.7,1.5s2.7-.5,3.7-1.5c2.1-2.1,2.1-5.4,0-7.4h0ZM56.6,107.8h0c-.2.2-.6.2-.9,0l-.8-.6-.8-.6c-1-.6-2.3-.6-3.2,0l-.8.6-.8.6c-.3.2-.7.2-.9,0h0v-12.2h8.5v12.2h-.3ZM60.8,100.8v-5.1h19.6c1.2,0,2.1-.9,2.1-2.1s-.9-2.1-2.1-2.1h-39.9c-1.2,0-2.1.9-2.1,2.1s.9,2.1,2.1,2.1h3.4v5.1h-6c-3.7,0-6.7-3-6.7-6.7s3-6.7,6.7-6.7h64.4v11.6c0,1-.8,1.7-1.7,1.7,0,0-39.8,0-39.7,0h-.1ZM102.3,80.8H37.9c-2.4,0-4.7.7-6.7,1.8V20.7c0-3.2,2.6-5.8,5.7-5.8h65.3v8.4c-1,0-2-.2-3-.2-6.7,0-13.1,2.6-17.8,7.4-4.8,4.8-7.4,11.1-7.4,17.8s2.6,13.1,7.4,17.8,11.1,7.4,17.8,7.4,2,0,3-.2v7.4h0ZM112.7,61.8c-.9.9-1.9,1.8-3,2.5-.2.2-.5.3-.7.5-2,1.2-4.3,2-6.6,2.4-1,.2-2,.2-3,.2-5,0-9.8-2-13.4-5.5s-5.5-8.3-5.5-13.4,2-9.8,5.5-13.4c3.5-3.6,8.3-5.5,13.4-5.5s2,0,3,.2c1.5.2,2.9.6,4.2,1.2.8.3,1.6.7,2.4,1.2,1.4.8,2.6,1.8,3.8,2.9,3.6,3.6,5.5,8.3,5.5,13.4s-1.1,7.3-3.1,10.3c-.7,1.1-1.5,2.1-2.5,3Z"/>
            <path class="cls-3" d="M99.3,43.2c-1.7,0-3.1,1.4-3.1,3.2v11.6c0,1.7,1.4,3.2,3.1,3.2s2.6-.9,3-2.2c0-.3.2-.6.2-1v-11.6c0-.3,0-.7-.2-1-.4-1.3-1.6-2.2-3-2.2Z"/>
            <path class="cls-3" d="M101.4,40c1.2-1.2,1.2-3,0-4.2s-3-1.2-4.2,0-1.2,3,0,4.2,3,1.2,4.2,0Z"/>
          </g>
        </g>
        <g class="cls-1">
          <text class="cls-2" transform="translate(24.8 166.2)"><tspan x="0" y="0">玩家週期</tspan></text>
        </g>
      </g>
    </g>
  </g>
</svg>