<?xml version="1.0" encoding="UTF-8"?>
<svg xmlns="http://www.w3.org/2000/svg" version="1.1" viewBox="0 0 290.2 290.2">
  <defs>
    <style>
      .cls-1, .cls-2 {
        isolation: isolate;
      }

      .cls-3 {
        fill: #fff;
      }

      .cls-2 {
        fill: #555;
        font-family: "Poppins", "微軟正黑體", "新細明體", sans-serif !important;
        font-size: 36px;
        font-weight: 500;
        letter-spacing: .2em;
      }

      .cls-4 {
        fill: #282828;
      }

      .cls-5 {
        fill: #a98a75;
      }

      .cls-6 {
        fill: #f8b8b4;
      }

      .cls-7 {
        fill: #211715;
      }
    </style>
  </defs>
  <!-- Generator: Adobe Illustrator 28.6.0, SVG Export Plug-In . SVG Version: 1.2.0 Build 709)  -->
  <g>
    <g id="_圖層_1" data-name="圖層_1">
      <g id="_圖層_1-2" data-name="_圖層_1">
        <g id="_圖層_1-2">
          <g id="_圖層_1-2-2" data-name="_圖層_1-2">
            <g id="_圖層_1-2-2">
              <g>
                <path class="cls-5" d="M163.1,18.4c9.4,0,18.9,7.1,18.9,15.9s-7.6,15.9-17,15.9-17-7.1-17-15.9,5.6-15.9,15-15.9h.1Z"/>
                <g>
                  <path class="cls-5" d="M152.9,20.9c3-2.3,8.3-2.7,12.2-2.1,3.9.6,6.5,1.8,9.6,4.1,3.5,2.6,7.9,5.9,9.3,9.8,1.2,3.3,1.3,7.3-.3,10.5"/>
                  <path class="cls-7" d="M183.8,44.8c-.2,0-.5,0-.7,0-.9-.3-1.2-1.3-.8-2.1,1.2-2.6,1.3-6,.2-9.4-1.2-3.6-5.5-6.7-8.8-9.1-3-2.2-5.4-3.3-8.8-3.8-3.5-.5-8.3-.1-10.9,1.8-.7.5-1.8.4-2.4-.3s-.4-1.7.3-2.2c3.7-2.7,9.6-3.1,13.5-2.4,4.1.6,7,1.8,10.4,4.4,3.8,2.8,8.4,6.4,9.8,10.6,1.4,4,1.3,8.3-.4,11.7-.3.5-.9,1-1.5,1h0Z"/>
                </g>
                <path class="cls-5" d="M186.2,74.6c.2-5.6-.2-12.4-.4-15.1-.7-9.7-5.4-20.6-12.2-26.7-2.7-2.4-5.6-3.7-8.2-5l-6-2.8c-6.2-2.4-12.9-3.6-19.6-3.5-13.5,0-23.5,6.5-28.9,11.3-8.8,7.9-14.5,22.5-13.8,42.4,0,2.4,0,4.8,0,7.1h89.5c-.2-2.5-.3-5-.3-7.6h0Z"/>
                <path class="cls-3" d="M112.1,69.8c6.4-4.9,13.3-11.1,19.6-16.8-.3,2.1-1.2,5.8-1.4,7.9,0,.9.1,1.2.9,1.5.7,0,1.3,0,1.9,0,9.1-2.8,17.1-8.3,22.8-15.5,1.2,4.5,3,10.1,4.6,12.8,3.8,6.7,10.3,12.4,16,14,1-.9,2.5-1.4,3.8-1.3,1.8,0,3.5.8,4.4,2.3,1.5,2.4,1.4,7,.4,9.8-.7,2-1.9,5-4.8,7.2-1.3,1-2.9,1.4-4.6,1.2h-.4c-.4,1.3-.9,2.6-1.6,3.9-1.2,2.9-7.4,12.9-15.3,17,0,1.6,0,2.1.1,4.1,0,.9.2,1.8.5,2.6.4,1.1,1.2,2.1,2.1,2.9,2.1,1.6,4.3,2.4,7,3.3l2.8,1c8.5,4.8-18.8,11.5-28.8,11.7-9.8-.2-40.9-4.7-28.5-11.5l3.3-1.2c2.7-1,4.9-1.7,7-3.3.9-.7,1.7-1.8,2.1-2.9.3-.9.4-1.8.5-2.6,0-1.8,0-2.4,0-3.7-3.7-1.7-7-4.3-10.1-7.9-3.5-4-6.1-8.7-7.7-13.6-1.7.3-3.5,0-4.9-1.2-2.8-2.2-4-5.2-4.7-7.2-1-2.8-1-7.3.5-9.8.9-1.5,2.6-2.4,4.5-2.3,1.2,0,2.4.3,3.4,1,1.4-1,2.9-2.1,4.4-3.3h0,.2Z"/>
                <path class="cls-3" d="M110,217.8h-14.7c-3.2,5.2-10.4,7.8-15.9,6.7-5.6-1.3-10.4-4.5-13.3-9.2-5.1-8-9-25.7-9.3-40.9l18.8-11.3c3-10.8,8-20.8,18-27,4.4-2.7,12.7-6.2,18-8.1,3.5,1.8,7.9,4,7.9,4,14.7,5.4,31.1,5.4,45.8,0l6.5-3.8h.2c7.1,2.4,14,5.4,20.5,8.8,5.4,2.9,10,6.9,13.6,11.6,2.2,2.9,5.2,9.8,7,16.6l13.8,8.8c-2.6,11.7-2.8,33.2-7.8,41.3-3,4.6-7.8,7.9-13.3,9.2-5.4,1.2-13.1-.3-19-9.6l-76.8,3.1h0v-.2Z"/>
                <path class="cls-4" d="M174.4,89.9c-.6,2.2-1.4,4.5-2.4,6.7.2-.5,0,0,0,0,0,0-.1.3-.2.4-.1.3-.4.6-.5,1-.4.7-.9,1.5-1.4,2.2-2.5,3.9-5.6,7.3-9.2,10.2-2,1.6-4.3,2.6-6.8,3.3-2.2.5-1.3,3.7.9,3.2,5.2-1.1,9.6-4.7,13-8.3,2.9-3.1,5.4-6.5,7.2-10.2.1-.3.2-.5.4-.7,0,0,.2-.5,0-.2-.1.3,0,0,0,0,0-.2.2-.4.3-.6.1-.3.3-.7.4-1,.7-1.6,1.2-3.1,1.5-4.8.4-2.1-3-3-3.4-.9h0l.2-.2Z"/>
                <path class="cls-4" d="M106.6,90.5c1.2,4.8,3.1,9.3,6,13.4,3,4.3,7.1,8.4,12,11,2.5,1.4,5.3,2.2,8.1,2.6.9.2,1.9-.3,2.2-1.2.3-.9-.3-1.8-1.2-2-10.1-1.4-17.6-9.6-21.4-18.1-.9-2.1-1.7-4.3-2.2-6.6-.5-2.1-3.9-1.2-3.4.9h0Z"/>
                <path class="cls-4" d="M135.8,100.5c2.1,1,4.4,1.5,6.7,1.5,2.4,0,4.8-.5,6.8-1.8.7-.7.7-1.7,0-2.4-.7-.6-1.8-.6-2.5,0,.6-.4.1,0,0,0l-.4.2s-.1,0-.2,0c-.3,0,0,0,0,0-.2,0-.4,0-.6.2-.5,0-1.1.3-1.6.3.3,0,0,0-.1,0h-3c-.6,0,.3,0-.2,0s-1-.2-1.5-.3c-.2,0-.4,0-.7-.2-.4,0,.3,0-.1,0-.3,0-.5-.2-.8-.3-.9-.5-2-.2-2.5.6s-.2,1.8.7,2.2h0q0,0,0,0Z"/>
                <path class="cls-4" d="M141.7,85.7c.3,1,.6,2.1.7,3.2v-.5.5-.5.2-.4c.1,0,.1,0,.1,0l.2-.3h0c0,0,.4-.2.4-.2,0,0-.1,0-.3,0h.4c-.1,0-.3,0-.4,0h.4-.4.4-1.2c-.2,0-.4,0-.7.2-.9.5-1.2,1.5-.7,2.2h0c.2.4.6.7,1.1.7s.7,0,1.1,0c.6,0,1.2,0,1.6-.3.7-.3,1.2-.8,1.3-1.4.1-.5,0-1,0-1.6-.1-1-.4-2-.7-3.1-.3-.9-1.2-1.4-2.2-1.2s-1.5,1.2-1.2,2h0c0,0,0,.2,0,.2Z"/>
                <path class="cls-4" d="M123.8,76.6c-.6,1.7-.2,5.7,3.3,6,4.6,0,4.9-4.8,3.3-7.1-1.3-1.8-5-2.6-6.6,1h0Z"/>
                <path class="cls-4" d="M160.7,76.7c.6,1.7.1,5.7-3.3,6-4.6,0-4.9-4.8-3.3-7.1,1.3-1.8,5-2.6,6.6,1.1Z"/>
                <path class="cls-4" d="M177.7,74.8c.9-.7,2.2-1,3.3-.7.5,0,1,.3,1.4.6-.1,0,.2.2.3.3,0,0,.4.5.1.2,1.3,1.7,1.3,4.1,1.2,6.1-.2,2.1-.9,4.1-2,5.9s-3.1,4.5-5.7,4.1c-.9-.2-1.9.3-2.2,1.2-.3.9.3,1.8,1.2,2,6.2.8,9.8-4.8,11.5-9.6.8-2.5,1-5.1.6-7.7-.3-2.1-1.2-4.1-3.1-5.4-2.8-1.8-6.6-1.5-9.1.6-1.7,1.4.8,3.8,2.5,2.4h0Z"/>
                <path class="cls-4" d="M109.4,72.2c-2.3-1.9-5.6-2.4-8.3-1.2-2,1-3.3,2.7-3.8,4.8-1.1,4.8,0,9.8,2.8,13.8,1.9,2.6,4.9,5,8.5,4.5.9,0,1.7-.7,1.7-1.6s-.8-1.8-1.7-1.6c-2.9.3-4.9-1.8-6.1-4-1.2-1.8-1.8-3.9-2-6,0-2,0-4.4,1.2-6.1-.2.3,0,0,0,0s.4-.4.4-.3c.4-.3.9-.5,1.5-.6,1.2-.2,2.4,0,3.3.8,1.7,1.4,4.2-.9,2.5-2.4h0Z"/>
                <path class="cls-4" d="M154.3,47.6c1.2,4.4,2.5,9.2,4.9,13.2,2.5,4.3,5.9,8.1,10.1,11.1,2,1.5,4.3,2.6,6.7,3.4,2.2.6,3.1-2.6.9-3.2-5.2-1.6-9.6-5.7-12.7-9.8-3.5-4.6-5-10-6.5-15.5-.6-2-4-1.2-3.4.9h0Z"/>
                <path class="cls-4" d="M154.3,46c-3,3.9-6.7,7.1-10.9,9.8-2.2,1.4-4.4,2.5-6.8,3.5-1.2.5-2.3.9-3.5,1.3-.3,0-.7.2-.9.3h-.2c-.4,0,0,0,0,0,0,0,.1.5.2.4v-.7c.2-2.5,1-5,1.3-7.5.2-1.5-2-2.1-3-1.2-6.4,5.8-12.8,11.6-19.7,16.9-.7.7-.7,1.7,0,2.4.7.6,1.8.6,2.5,0,6.9-5.3,13.3-11.1,19.7-16.9l-3-1.2c-.3,2.4-1.1,5-1.3,7.5-.1,1.4.2,2.6,1.6,3.3,1.5.7,3.3.2,4.8-.3,5.7-1.9,11-4.9,15.5-8.7,2.5-2.2,4.9-4.5,6.9-7.1.5-.8.2-1.8-.7-2.2-.9-.5-1.9-.2-2.5.6h0v-.2h0Z"/>
                <path class="cls-4" d="M164.6,29.2c1.3.7,4.4,1.6,5.4,2.6,1.3,1.2,2.6,2.3,3.8,3.6,2.3,2.5,4.2,5.3,5.7,8.3,1.6,3.2,2.8,6.5,3.5,10,.7,2.9,1,5.9,1.2,8.9.2,4,.4,8.1.2,12.1,0,2.2,3.5,2.2,3.5,0,.1-3.8,0-7.6-.2-11.4-.1-3.1-.4-6.2-1-9.4-1.4-7.1-4.6-14.2-9.6-19.9-1.3-1.5-2.8-2.8-4.3-4.2-1.4-1.4-4.9-2.5-6.5-3.5-2-1.1-3.8,1.8-1.8,2.9h.1Z"/>
                <path class="cls-4" d="M159.9,23.4c-6.9-2.6-14.3-3.8-21.7-3.5-7.7.4-15.2,2.4-21.9,6-5,2.5-7.3,6-10.7,10.2-3.5,4.6-6,9.7-7.5,15.1-2.3,7.8-3,15.9-2.7,24,0,2.1,3.6,2.2,3.5,0-.4-12.1,1.2-25.3,8.4-35.7,2.8-3.9,6.4-7.2,10.6-9.6,5.9-3.5,10.6-5.7,17.5-6.5,8-.7,16.1.3,23.5,3.3.9.3,1.9-.3,2.2-1.2.2-.9-.3-1.8-1.2-2h0Z"/>
                <path class="cls-4" d="M125,114.6v2.5c0,1,0,2-.4,2.9-.8,1.8-2.5,2.9-4.3,3.7-2.3,1.1-4.8,1.8-7.2,2.7-.9.3-1.4,1.2-1.2,2,.3.9,1.2,1.4,2.2,1.2,2.9-1.1,5.9-2,8.6-3.3,1.2-.5,2.2-1.2,3.2-2,.9-.9,1.7-2,2.1-3.1.9-2,.7-4.4.7-6.5s-3.5-2.1-3.5,0h-.2Z"/>
                <path class="cls-4" d="M156.8,114.6c0,2.1,0,4.5.7,6.5.4,1.2,1.2,2.2,2.1,3.1.9.8,2,1.5,3.2,2,2.8,1.4,5.7,2.2,8.6,3.3.9.3,1.9-.3,2.2-1.2.2-.9-.3-1.8-1.2-2-2.4-.9-4.9-1.6-7.2-2.7-1.9-.8-3.6-1.8-4.3-3.7-.3-1-.4-2-.4-2.9v-2.5c0-2.1-3.5-2.2-3.5,0h-.2Z"/>
                <path class="cls-4" d="M169.7,129.2c7.2,2.6,14.4,5.2,21.1,8.8,6.4,3.5,12.4,8.3,15.7,14.7,2.1,4.2,3.8,8.6,4.9,13.1.5,2.1,3.9,1.2,3.4-.9-1.1-4.3-2.6-8.5-4.5-12.5-1.5-3.2-3.6-6.1-6.2-8.7-5.7-5.9-13.3-9.7-20.9-13-4.1-1.7-8.3-3.2-12.5-4.7-.9-.3-1.9.3-2.2,1.2-.2.9.3,1.8,1.2,2h0Z"/>
                <path class="cls-4" d="M111.9,126c-3.4,1.2-6.7,2.6-10,4-3.2,1.3-6.2,2.9-9.2,4.6-6.4,4-11.2,9.8-14.4,16.3-1.8,3.8-3.3,7.7-4.4,11.7-.6,2.1,2.8,2.9,3.4.9,1.9-6.5,4.5-13,8.8-18.5,2.1-2.6,4.6-5,7.5-6.9,2.8-1.8,5.8-3.3,8.8-4.6,3.5-1.6,7-3,10.5-4.3.9-.3,1.4-1.2,1.2-2-.3-.9-1.2-1.4-2.2-1.2h0Z"/>
                <path class="cls-3" d="M51.1,159.5c-.7-1.4-1.5-2.8-2.5-4.1-1.4-1.8-2-3.9-2-6,0-1.3.5-2.5,1.1-3.7,2.4-3.3,4.5-6.2,7-9.1.6-.7,1.2-1.3,1.9-1.9,1.1-1,2.5-1.5,4.1-1.5,1.4,0,2.6.8,3.5,1.9,3.2,1,3.8-.8,5.3-1.8,1.6-1,3.7-1.1,5.4-.3,1.7.8,3.2,1.9,4.4,3.3,1,1,1.7,2.3,1.9,3.7,0,.9-.2,1.8-.9,2.4-1,.9-2.3,1.3-3.6,1.2,1,2,1.7,3.5,1.7,3.5.3.7.4,1.4.4,2.1v.9c0,.3-.2.6-.4.8-1.5,2.5-4.2,5.5-3,8.6,2.8,8.2,2.3,12.3-.6,14.5-2.3,1.8-4.9,3-7.8,3.7-.8.1-4.4.6-5.1.3-1.4-.7-2.8-1-3.8-2.2-.8-1-1.4-2.2-1.7-3.5-.4-1.5-1.7-5.2-2.6-7.7-.7-1.8-1.5-3.5-2.4-5.2h-.3Z"/>
                <path class="cls-4" d="M75.1,165.9c.2,1.2.2,2.3,0,3.5,1.2,0,2.4-.2,3.5-.2v-1c0-2-.4-4.1-.9-6.1-.4-1.2-.9-2.4-1.1-3.6,0-1,0-1.9.5-2.7.9-2,2.9-3.8,3.3-6,.4-2.6-.9-5.2-3.6-6-2.2-.6-3.1,2.6-.9,3.2,1.6.5,1.2,2.3.6,3.3-1.1,1.5-2,3.1-2.8,4.8-.7,1.8-.7,3.7,0,5.4.6,1.8,1.1,3.5,1.4,5.4h0Z"/>
                <path class="cls-4" d="M54.9,174.4c0,.4.4.8.6,1.2,1.1-.5,2.1.4,3.1-.1.4-1.4-.9-3.7-1.2-5-.5-1.6-1-3.1-1.6-4.6-1.1-3.1-2.5-6-4.1-8.8-.7-1.3-1.7-2.5-2.5-3.8-.7-1.3-.9-2.7-.8-4.2,0-.8.4-1.6.7-2.4.3-.5,1.2-1.6,1.7-2.3,1.3-1.8,2.5-3.5,3.9-5.2.7-.8,1.4-1.6,2.2-2.4.6-.7,1.4-1.3,2.2-1.6,1.3-.5,3-.3,3.7,1.2.5.8,1.6,1.1,2.5.6.8-.5,1.1-1.5.7-2.3-.9-1.6-2.6-2.7-4.5-3-2.4-.3-4.7.7-6.4,2.2-3.3,3.1-6,7-8.6,10.7-2.2,3.2-1.9,7.7,0,10.9.9,1.4,1.9,2.8,2.7,4.3s1.6,3.1,2.2,4.6c.7,1.7,1.3,3.5,1.9,5.2.6,1.6.9,3.3,1.5,4.8h0Z"/>
                <path class="cls-4" d="M59.5,145.2l.3-.3c-.4.4,0,0,0,0,.2-.3.4-.5.7-.7.4-.5.9-1.1,1.4-1.6.9-1,1.7-2,2.6-3,.2-.3.5-.5.7-.8,0-.1.3-.3.4-.3h.4c.2,0,0,0,0,0h.8c0,0,.2,0,.3.1.3.1.5.3.7.6,0-.2,0,.3.2.3h0v.5h0v.6c0,1,.8,1.6,1.8,1.6s1.7-.7,1.8-1.6c0-1.9-.8-3.7-2.4-4.8s-3.8-1.2-5.6-.3c-.8.5-1.5,1.2-2.1,1.9-.9,1-1.7,1.9-2.5,2.9-.9,1.1-1.9,2.2-2.8,3.3-.5.8-.2,1.8.7,2.3.9.4,1.9.2,2.5-.6h0c0-.1,0-.1,0-.1Z"/>
                <path class="cls-4" d="M73.4,143.6c0,.1,0,0,0-.1v.6c0-.2,0,0,0,0,0,.2-.2.3-.3.5-.2.3-.4.6-.7,1,0,0,0,.1-.2.3-.2.3,0-.2,0,0-.2.2-.4.5-.6.7-.9,1.1-1.9,2.2-2.8,3.3-.7.7-.7,1.7,0,2.4s1.8.6,2.5,0h0c.9-1.1,2-2.2,2.9-3.3,1.1-1.3,2.4-2.7,2.8-4.4.4-2-.6-4.1-2.5-5-1-.5-2.2-.7-3.4-.5-1,.2-1.9.7-2.5,1.4-1.7,1.6-3.3,3.1-4.7,4.9-.7.7-.7,1.7,0,2.4.7.6,1.8.6,2.5,0h0c1.2-1.3,2.4-2.6,3.6-3.8.6-.5,1.1-1.1,1.7-1.6.2-.2,0,0,0,0,0,0,.4-.1,0,0h.4c-.4,0,0,0,.2,0s-.3,0,0,0h.3c0,0,.5.3.2.1,0,0,.3.2.5.3s-.2,0,0,0h0c0,.1-.2-.2,0,.1,0,0,0,.1,0,.2s0,.1,0,.3c0,0,0-.3,0,0s0,.3,0,.5c0,0,0,.3,0,0"/>
                <path class="cls-4" d="M68.4,136.4c.8-.5,1.5-1.4,2.2-1.8s1.4-.5,2.2-.4c.8,0,1.5.3,2.2.7.8.5,1.4,1,2.1,1.6,1.2,1.1,2.5,2.5,2.3,4.1h0c0,.1,0,.2,0,.4h0l-.3.3c.3-.3,0,0,0,0-.3.2-.6.3-.9.4-.4,0-.9.1-1.3,0-.9,0-1.7.7-1.8,1.6,0,.9.8,1.6,1.8,1.6,1.9.1,3.8-.5,5.1-1.8,1.6-1.6,1.5-3.7.7-5.7-.9-1.8-2.2-3.4-3.9-4.5-1.7-1.4-3.7-2.2-5.9-2.3-1.2,0-2.4.2-3.4.7s-1.7,1.4-2.5,2c-.8.5-1.1,1.5-.7,2.3.5.8,1.6,1.1,2.4.6h0v-.2.4Z"/>
                <path class="cls-3" d="M232.2,159.1c.7-1.4,1.5-2.8,2.5-4.1,1.4-1.8,2-3.9,2-6-.1-1.3-.5-2.5-1.1-3.7-2.4-3.3-4.5-6.2-7-9.1-.6-.7-1.2-1.3-1.9-1.9-1.1-1-2.6-1.5-4.1-1.5-1.4,0-2.6.8-3.5,1.9-3.2,1-3.8-.8-5.3-1.8-1.6-1-3.7-1.1-5.4-.3-1.7.8-3.2,1.9-4.4,3.3-1,1-1.7,2.3-1.9,3.7-.1.9.2,1.8.9,2.4,1,.9,2.3,1.3,3.7,1.2-1,2-1.7,3.5-1.7,3.5-.3.7-.4,1.4-.4,2.1v.9c0,.3.2.6.4.8,1.5,2.5,4.2,5.5,3,8.6-2.8,8.2-2.3,12.3.6,14.5,2.3,1.8,5,3,7.8,3.7.8.1,4.4.6,5.1.3,1.4-.7,2.8-1,3.8-2.2.8-1,1.4-2.2,1.7-3.5.4-1.5,1.7-5.2,2.6-7.7.7-1.8,1.5-3.5,2.4-5.2h0c0,.1.2,0,.2,0Z"/>
                <path class="cls-4" d="M84.5,226.7c-4.1,0-8.5-1.4-12.7-4-14.9-9.3-16.5-46.6-16.6-48.2,0-.9.7-1.6,1.6-1.6s1.7.7,1.7,1.5,1.6,37.3,15.1,45.7c5.8,3.6,11.7,4.5,16.3,2.4,3.3-1.6,5.4-4.5,5.7-8.1,0-.9.9-1.6,1.8-1.4.9,0,1.6.8,1.6,1.7-.4,4.7-3.2,8.6-7.6,10.7-2.1,1-4.5,1.4-6.9,1.4h0Z"/>
                <path class="cls-4" d="M84.4,185.6c-.7,0-1.2-.3-1.5-1l-7.4-14.9c-.4-.8,0-1.8.8-2.1.9-.3,1.8,0,2.2.7l7.4,14.9c.4.8,0,1.8-.8,2.1-.2,0-.5.1-.7.1h0v.2Z"/>
                <g>
                  <path class="cls-6" d="M172.8,155.6c-15.1-1-23.1,1.5-26.9,3.5-1.8,1-4.1,1-5.9,0-10.4-5.6-29.5-2.6-29.5-2.6l.7-26.7c0-1.6-1.7-2.7-3.3-2.1l-4.7,1.8c-.9.3-1.4,1.1-1.4,1.9l-1.6,29.3-3.3,16.8c-.9,4.3-1.2,8.8-.9,13.2l1.3,23.7h88.8l1.5-24.4c.3-4,0-8-.6-11.9l-2.8-17.4-1-28.5c0-1-.7-1.8-1.6-2l-5.1-1.6c-1.5-.5-3,.5-3,2l-.7,24.9h0Z"/>
                  <path class="cls-4" d="M186.1,216h-88.8c-.9,0-1.7-.7-1.7-1.5l-1.3-23.7c-.2-4.5,0-9.1.9-13.6l3.3-16.7,1.6-29.2c0-1.4,1-2.7,2.5-3.3l4.7-1.8c1.3-.5,2.7-.3,3.8.3,1.2.7,1.8,1.9,1.7,3.2l-.6,24.8c5.3-.6,19.8-1.7,28.6,3.1,1.3.7,2.9.7,4.2,0,4.2-2.1,12-4.5,26.1-3.7l.7-23.3c0-1.2.7-2.3,1.7-3s2.3-.9,3.5-.5l5.1,1.6c1.6.5,2.8,1.9,2.8,3.5l1,28.4,2.8,17.3c.7,4.1.9,8.2.6,12.3l-1.5,24.4c0,.8-.8,1.5-1.7,1.5h0c0,.1,0-.1,0-.1ZM98.9,212.8h85.5l1.4-22.9c.2-3.9,0-7.8-.6-11.6l-2.8-17.4v-.2l-1-28.5c0-.3-.2-.5-.4-.5l-5.1-1.6h-.6c-.1,0-.3.2-.3.5l-.7,24.9c0,.4-.2.8-.6,1.2s-.8.4-1.2.4c-15.1-1-22.7,1.6-26,3.3-2.3,1.2-5.2,1.2-7.5,0-9.7-5.2-28.2-2.4-28.4-2.4-.5,0-1,0-1.4-.3s-.6-.7-.6-1.2l.7-26.7c0-.3,0-.5-.3-.5s-.4,0-.6,0l-4.7,1.8c-.2,0-.4.3-.4.5l-1.6,29.3v.2l-3.3,16.8c-.8,4.2-1.2,8.6-.9,12.8l1.2,22.2h.2Z"/>
                </g>
                <path class="cls-3" d="M230.4,164.3c-.9,2.4-2.2,6.2-2.6,7.7-.3,1.3-.9,2.4-1.7,3.5-1,1.2-2.5,1.6-3.8,2.2-.7.3-4.4-.2-5.1-.3-2.8-.7-5.5-2-7.8-3.7-2.9-2.2-3.4-6.3-.6-14.5,1.2-3.1-1.5-6.1-3-8.6-.1-.3-.3-.5-.4-.8v-.9c0-.7,0-1.4.4-2.1,0,0,.7-1.5,1.7-3.5-1.4.1-2.7-.3-3.7-1.2-.7-.6-1.1-1.5-.9-2.4.2-1.4.9-2.6,1.9-3.7,1.2-1.4,2.8-2.4,4.4-3.3,1.7-.8,3.8-.7,5.4.3,1.4,1,2.1,2.9,5.3,1.8.8-1.1,2.1-1.8,3.5-1.9,1.5,0,3,.5,4.1,1.5.7.6,1.3,1.2,1.9,1.9,2.5,2.9,4.6,5.8,7,9.1.6,1.2.9,2.4,1.1,3.7,0,2.2-.6,4.3-2,6-.9,1.3-1.7,2.6-2.5,4.1-.9,1.7-1.7,3.5-2.4,5.2h-.2Z"/>
                <path class="cls-4" d="M208.8,165.6c-.2,1.2-.2,2.3-.1,3.5-1.2,0-2.4-.2-3.5-.2v-1c0-2,.4-4.1,1-6.1.3-1.2.9-2.4,1.1-3.6.1-1,0-1.9-.5-2.7-.9-2-2.9-3.8-3.3-6-.4-2.6.9-5.2,3.6-6,2.2-.6,3.1,2.6.9,3.2-1.6.5-1.2,2.3-.6,3.3,1.1,1.5,2,3.1,2.8,4.8.7,1.8.7,3.7,0,5.4-.6,1.8-1.1,3.5-1.4,5.4h0Z"/>
                <path class="cls-4" d="M229,174c-.1.4-.4.8-.6,1.2-1.1-.5-2.1.4-3.1-.1-.4-1.4.9-3.7,1.2-5,.5-1.6,1-3.1,1.6-4.6,1.1-3.1,2.5-6,4.1-8.8.7-1.3,1.7-2.5,2.5-3.8.7-1.3.9-2.7.8-4.2-.1-.8-.4-1.6-.7-2.4-.3-.5-1.2-1.6-1.7-2.3-1.3-1.8-2.5-3.5-3.9-5.2-.7-.8-1.4-1.6-2.2-2.4-.6-.7-1.4-1.3-2.2-1.6-1.3-.5-3-.3-3.7,1.2-.5.8-1.6,1.1-2.5.6-.8-.5-1.1-1.5-.7-2.3.9-1.6,2.6-2.7,4.5-3,2.4-.3,4.7.7,6.4,2.2,3.3,3.1,6,7,8.6,10.7,2.2,3.2,1.9,7.7,0,10.9-.9,1.4-1.9,2.8-2.7,4.3s-1.6,3.1-2.2,4.6c-.7,1.7-1.3,3.5-1.9,5.2-.6,1.6-.9,3.3-1.5,4.8h-.1Z"/>
                <path class="cls-4" d="M224.4,145c.5.7,1.6,1,2.5.6.9-.5,1.1-1.5.7-2.3-.9-1.1-1.8-2.2-2.8-3.3-.8-1-1.7-1.9-2.5-2.9-.6-.7-1.3-1.4-2.1-1.9-1.7-1-3.9-.8-5.6.3-1.6,1.1-2.5,2.9-2.4,4.8,0,.9.8,1.6,1.7,1.6s1.7-.7,1.7-1.6v-.6h0v-.6q0,.1,0,0s.4-.5.2-.3c.1-.3.4-.5.7-.6,0,0,.2,0,.3-.1s0,0,0,0h.7c-.2,0-.1,0,0,0h.3q0,0,0,0c.1,0,.4.2.4.3.3.3.5.5.7.8.9,1,1.7,2,2.6,3,.4.5.9,1.1,1.4,1.6.2.3.4.5.7.7,0,0,.4.5,0,0l.3.3h.2c0,.1.3.2.3.2Z"/>
                <path class="cls-4" d="M210.5,143.2c0,.2,0,0,0,0,0-.1,0-.3.1-.5,0-.2,0,0,0,0,0,0,0-.1.1-.3s0-.1.1-.2c.1-.3,0,0,0,0,0,0,0-.1.1-.1.2,0-.3.1,0,0,.1,0,.3-.2.5-.3-.3.1.1,0,.2,0h.3c.3,0-.3,0,0,0s.6,0,.2,0h.4c-.4-.1,0,0,0,0,0,0-.3-.3,0,0,.6.5,1.2,1,1.7,1.6,1.2,1.2,2.5,2.4,3.6,3.8h0c.7.6,1.8.6,2.5,0,.7-.7.7-1.7,0-2.4-1.4-1.7-3-3.3-4.7-4.9-.7-.7-1.6-1.2-2.6-1.4-1.2-.1-2.3,0-3.4.5-2,1-3,3.1-2.5,5,.4,1.7,1.7,3.1,2.8,4.4.9,1.1,1.9,2.2,2.9,3.3h0c.7.7,1.8.7,2.5,0s.7-1.7,0-2.4c-.9-1.1-1.9-2.2-2.8-3.3-.2-.2-.4-.5-.6-.7-.2-.3.2.3,0,0,0,0-.1-.1-.2-.3-.2-.3-.4-.6-.7-1,0-.1-.2-.3-.3-.5,0,0-.1-.3,0,0v-.2s-.1-.3,0-.4c0,0,0,.3,0,.1"/>
                <path class="cls-4" d="M215.5,136.1c.9.5,2,.2,2.5-.6.4-.8.2-1.8-.7-2.3-.9-.6-1.5-1.5-2.5-2s-2.2-.7-3.4-.7c-2.2,0-4.3,1-5.9,2.3-1.7,1.2-3,2.8-3.9,4.5-.9,2-.9,4.1.7,5.7s3.2,2,5.1,1.8c.9,0,1.7-.7,1.7-1.6s-.8-1.6-1.7-1.6h-1.3c-.3,0-.7-.2-.9-.4,0,0-.4-.3-.1,0l-.3-.3c-.1-.1-.1-.2,0,0,0,0,0-.1-.1-.3,0,0,0-.3,0-.1-.1-1.6,1.2-3.1,2.3-4.1.7-.6,1.4-1.2,2.1-1.6.7-.4,1.4-.6,2.2-.7s1.5,0,2.2.4c.8.5,1.4,1.3,2.2,1.8h0v.2h0l-.2-.4Z"/>
                <path class="cls-4" d="M199.4,226.4c-2.5,0-4.8-.5-6.9-1.4-4.4-2-7.2-6-7.6-10.7,0-.9.7-1.6,1.5-1.7.9,0,1.7.6,1.8,1.4.3,3.6,2.4,6.5,5.7,8.1,4.6,2.1,10.6,1.3,16.3-2.4,13.5-8.4,15.1-45.3,15.1-45.7,0-.9.8-1.6,1.7-1.5.9,0,1.7.7,1.6,1.6,0,1.6-1.7,38.9-16.6,48.2-4.3,2.6-8.7,4-12.7,4h0Z"/>
                <path class="cls-4" d="M199.5,185.4c-.2,0-.5,0-.7-.1-.9-.3-1.2-1.3-.8-2.1l7.4-14.9c.4-.8,1.4-1.2,2.2-.7.9.3,1.2,1.3.8,2.1l-7.4,14.9c-.3.6-.9,1-1.5,1h0v-.2Z"/>
              </g>
              <g>
                <g>
                  <path d="M223.3,125.9h-.1c-1,0-1.7-.9-1.7-1.8l.7-7.6c0-1,.9-1.6,2-1.6s1.7.9,1.7,1.8l-.7,7.6c0,.9-.9,1.6-1.8,1.6h0Z"/>
                  <path d="M234,129.2c-.3,0-.6,0-.9-.2-.9-.5-1.2-1.5-.7-2.3l4.9-8.3c.5-.8,1.6-1.2,2.5-.7s1.2,1.5.7,2.3l-4.9,8.3c-.4.5-.9.9-1.6.9h0Z"/>
                  <path d="M242.5,134.7c-.5,0-1-.2-1.4-.6-.7-.7-.6-1.8.2-2.4l5.9-4.7c.7-.6,1.9-.5,2.5.2s.6,1.8-.2,2.4l-5.9,4.7c-.4.3-.7.4-1.2.4h0Z"/>
                </g>
                <g>
                  <path d="M66.9,122.4c-.9,0-1.7-.7-1.8-1.6l-.7-7.6c0-1,.7-1.8,1.7-1.8s1.9.6,2,1.6l.7,7.6c0,1-.7,1.8-1.7,1.8h-.2Z"/>
                  <path d="M56.1,125.6c-.7,0-1.3-.3-1.6-.9l-4.9-8.3c-.5-.8,0-1.8.7-2.3s2,0,2.5.7l4.9,8.3c.5.8,0,1.8-.7,2.3-.3,0-.6.2-.9.2Z"/>
                  <path d="M47.7,131.1c-.4,0-.8,0-1.2-.4l-5.9-4.7c-.7-.6-.9-1.7-.2-2.4.7-.7,1.8-.8,2.5-.2l5.9,4.7c.8.6.9,1.7.2,2.4-.4.4-.9.6-1.4.6h.1Z"/>
                </g>
              </g>
            </g>
          </g>
        </g>
        <g class="cls-1">
          <text class="cls-2" transform="translate(62.3 280.3)"><tspan x="0" y="0">會員相關</tspan></text>
        </g>
      </g>
    </g>
  </g>
</svg>