<?xml version="1.0" encoding="UTF-8"?>
<svg xmlns="http://www.w3.org/2000/svg" version="1.1" viewBox="0 0 293.2 293.2">
  <defs>
    <style>
      .cls-1 {
        fill: #febe69;
      }

      .cls-2, .cls-3 {
        isolation: isolate;
      }

      .cls-3 {
        fill: #555;
        font-family: "Poppins", "微軟正黑體", "新細明體", sans-serif !important;
        font-size: 36px;
        font-weight: 500;
        letter-spacing: .2em;
      }

      .cls-4 {
        fill: #282828;
      }
    </style>
  </defs>
  <!-- Generator: Adobe Illustrator 28.6.0, SVG Export Plug-In . SVG Version: 1.2.0 Build 709)  -->
  <g>
    <g id="_圖層_1" data-name="圖層_1">
      <g id="_圖層_1-2" data-name="_圖層_1">
        <g id="_圖層_1-2">
          <path class="cls-1" d="M181.4,154.8c0,17.8-15.7,32.3-34.8,32.3s-34.8-14.5-34.8-32.3,15.7-32.3,34.8-32.3,34.8,14.5,34.8,32.3Z"/>
          <g>
            <path class="cls-4" d="M212.7,90.7h-29c4.3-4.1,7-9.7,7-15.8,0-12.4-10.9-22.6-24.4-22.6s-15.3,3.7-19.7,9.3c-4.4-5.6-11.6-9.3-19.7-9.3-13.4,0-24.3,10.1-24.3,22.6s2.7,11.7,7,15.8h-29c-6.4,0-11.6,4.8-11.6,10.7v15.9c0,4.1,2.5,7.7,6.1,9.5v65.8c0,12.3,10.7,22.2,23.9,22.2h95.2c13.1,0,23.9-9.9,23.9-22.2v-65.8c3.7-1.8,6.1-5.4,6.1-9.5v-15.9c0-6-5.2-10.7-11.6-10.7h0ZM212.7,99.4c1.3,0,2.3.9,2.3,2.1v15.9c0,1.1-1,2.1-2.3,2.1h-46.5c-4.6-2.2-9.7-3.6-15.1-4.1v-16h61.6ZM165,128.1c9.5,5.6,15.9,15.5,15.9,26.7,0,16.1-13,29.4-29.8,31.3-1.4.2-2.9.3-4.3.3s-3.4,0-5-.3c-16.4-2.2-29-15.4-29-31.3s6.3-21.1,15.8-26.7c3.9-2.3,8.4-3.9,13.1-4.6,1.6-.3,3.3-.3,5-.3s2.9,0,4.3.3c5,.6,9.8,2.2,13.9,4.7h0ZM166.2,60.9c8.3,0,15,6.2,15,13.9s-6.8,13.9-15,13.9h-15v-13.9c0-7.7,6.8-13.9,15-13.9ZM126.9,60.9c8.3,0,15,6.2,15,13.9v13.9h-15c-8.3,0-15-6.2-15-13.9s6.8-13.9,15-13.9ZM78.3,101.4c0-1.1,1-2.1,2.3-2.1h61.2v16c-5.1.5-10,2-14.4,4.1h-46.9c-1.3,0-2.3-.9-2.3-2.1v-15.9h0ZM84.4,192.6v-64.5h30.7c-6.9,7.1-11.2,16.4-11.2,26.7,0,20.3,16.6,37.1,37.7,39.4v11.9h-42.8c-8,0-14.6-6-14.6-13.5h0ZM208.7,192.6c0,7.4-6.6,13.5-14.6,13.5h-43.1v-11.8c21.6-2,38.5-18.9,38.5-39.5s-4.2-19.7-11.2-26.7h30.3v64.5h0Z"/>
            <path class="cls-4" d="M145,130.8c-1.1,0-2.2.2-3.2.4-2.3.4-4.2,1.2-6.1,2.2-4.7,2.8-7.2,7.2-7.2,12.3s1.6,3.4,3.7,3.4,3.7-1.6,3.7-3.4c0-2.8,1.3-5.1,3.8-6.6.6-.3,1.4-.7,2.2-.9,3-1,6.7-1,9.4.2h0c2.8,1.2,4.1,3.6,3.2,6v.2c-.6,1.2-1.8,2.2-3.2,2.5-.4,0-.7,0-1.1,0h-3.2l.2-1c.2-.9,0-1.8-.6-2.5-.5-.7-1.4-1.2-2.4-1.4-.7,0-1.4,0-2.2.3-.2,0-.4.2-.5.3-.8.5-1.4,1.3-1.4,2.2l-2.7,16c-.2.9,0,1.8.6,2.5.5.8,1.4,1.2,2.4,1.4.6,0,1.3,0,1.7-.2,1.3-.3,2.3-1.4,2.4-2.7l1.4-7.9h6.8c3.8,0,6.7,1.6,8,4.6.7,1.5.9,3.2.5,4.9-.4,1.8-1.3,3.5-2.6,4.7s-4.2,2.9-7.2,3.5h0c-2.9.6-6,.4-8.7-.3-.2,0-.4,0-.6-.2-2.4-.9-6-2.8-6.8-7.2-.2-.9-.6-1.7-1.4-2.2-.8-.5-1.7-.8-2.7-.6-2,.3-3.4,2-3.1,3.9,1,6.1,5.5,10.8,12.3,12.9.5.2,1.1.3,1.6.4,1.8.4,3.7.6,5.7.6s2.4,0,3.7-.3c.5,0,1-.2,1.4-.3,4.4-.9,8.2-2.8,11-5.4,2.4-2.3,4-5.2,4.5-8.3.5-3,.2-6-1.1-8.7-1.4-3.1-3.9-5.5-7-7.1.5-.6.8-1.2,1.1-1.8,0,0,0-.2,0-.3,1.1-2.8,1-5.8-.3-8.4-1.3-2.6-3.6-4.7-6.7-6.1-1-.4-2.1-.8-3.2-1-2-.4-4.1-.6-6.1-.5h0l.2-.2h0Z"/>
          </g>
        </g>
        <g class="cls-2">
          <text class="cls-3" transform="translate(63.8 282.3)"><tspan x="0" y="0">點數相關</tspan></text>
        </g>
      </g>
    </g>
  </g>
</svg>