<?xml version="1.0" encoding="UTF-8"?>
<svg xmlns="http://www.w3.org/2000/svg" version="1.1" viewBox="0 0 160 171.3">
  <defs>
    <style>
      .cls-1, .cls-2 {
        isolation: isolate;
      }

      .cls-3 {
        fill: #fff;
      }

      .cls-4 {
        fill: #282828;
      }

      .cls-2 {
        fill: #555;
        font-family: "Poppins", "微軟正黑體", "新細明體", sans-serif !important;
        font-size: 24px;
        font-weight: 500;
        letter-spacing: .2em;
      }

      .cls-5 {
        fill: #81d8d0;
      }
    </style>
  </defs>
  <!-- Generator: Adobe Illustrator 28.6.0, SVG Export Plug-In . SVG Version: 1.2.0 Build 709)  -->
  <g>
    <g id="_圖層_1" data-name="圖層_1">
      <g id="_圖層_1-2" data-name="_圖層_1">
        <g id="_圖層_1-2">
          <path class="cls-5" d="M114.3,31.9h5.2c9,0,16.4,7.4,16.4,16.4v32.5c0,9-7.4,16.4-16.4,16.4h-5.1c-.7,0-1.3.6-1.3,1.3v7c0,2.6-3,4-5,2.4l-12.7-10.3c-.2-.2-.5-.3-.8-.3h-28.4c-9,0-16.4-7.4-16.4-16.4v-32.5c0-9,7.4-16.4,16.4-16.4h34.6"/>
          <g>
            <path class="cls-3" d="M124.3,70.6l-7.2,1.3c-2.2.4-3.9-1.3-3.5-3.5l1.3-7.2c.2-.8.6-1.6,1.2-2.3l28.9-28.9c1.3-1.3,3.2-1.5,4.3-.4l6.5,6.5c1.1,1.1.9,3-.4,4.3l-28.9,28.9c-.6.6-1.4,1.1-2.3,1.2h0Z"/>
            <g>
              <path class="cls-4" d="M70.1,67.5h28.7c1.9,0,3.5-1.6,3.5-3.5s-1.6-3.5-3.5-3.5h-28.7c-1.9,0-3.5,1.6-3.5,3.5s1.6,3.5,3.5,3.5Z"/>
              <path class="cls-4" d="M70.4,52.5h15.9c1.9,0,3.5-1.6,3.5-3.5s-1.6-3.5-3.5-3.5h-15.9c-1.9,0-3.5,1.6-3.5,3.5s1.6,3.5,3.5,3.5Z"/>
              <path class="cls-4" d="M67,80c0,1.9,1.6,3.5,3.5,3.5h35.5c1.9,0,3.5-1.6,3.5-3.5s-1.6-3.5-3.5-3.5h-35.5c-1.9,0-3.5,1.6-3.5,3.5Z"/>
              <path class="cls-4" d="M158.1,33.9l-6.5-6.5c-2.4-2.4-6.4-2.2-9,.4l-7.8,7.8c-3.6-4.4-9.1-7.2-15.3-7.2h-5.2c-1.9,0-3.5,1.6-3.5,3.5s1.6,3.5,3.5,3.5h5.2c4.2,0,7.9,2,10.3,5.1l-16.1,16.1c-1.1,1.1-1.9,2.5-2.1,4l-1.3,7.2c-.4,2.1.2,4.2,1.7,5.6,1.2,1.2,2.7,1.8,4.4,1.8s.8,0,1.2,0l7.2-1.3c1.5-.3,2.9-1,4-2.1l3.6-3.6v12.7c0,7.1-5.8,12.9-12.9,12.9h-5.1c-2.6,0-4.8,2.1-4.8,4.8v6l-11.9-9.7c-.8-.7-1.9-1.1-3-1.1h-28.4c-7.1,0-12.9-5.8-12.9-12.9v-32.5c0-7.1,5.8-12.9,12.9-12.9h34.6c1.9,0,3.5-1.6,3.5-3.5s-1.6-3.5-3.5-3.5h-17.3v-2.3c0-10.1-8.2-18.3-18.3-18.3h-6.6c-1.9,0-3.5,1.6-3.5,3.5s1.6,3.5,3.5,3.5h6.6c6.2,0,11.3,5.1,11.3,11.3v2.3h-10.3c-11,0-19.9,8.9-19.9,19.9v18.6c-.4,0-.8-.2-1.2-.2h-4.5c-1.1,0-2.1.4-2.9,1l-10.2,8.3v-4.7c0-2.6-2.1-4.6-4.6-4.6h-4.6c-6.2,0-11.3-5.1-11.3-11.3v-29.3c0-6.2,5.1-11.3,11.3-11.3h26.3c1.9,0,3.5-1.6,3.5-3.5s-1.6-3.5-3.5-3.5h-26.3C8.2,7.8,0,16,0,26.1v29.3c0,10.1,8.2,18.3,18.3,18.3h2.3v3.9c0,2.4,1.4,4.6,3.6,5.7.9.4,1.8.6,2.7.6,1.4,0,2.8-.5,3.9-1.4l10.8-8.8h3.7c.4,0,.8,0,1.2-.2v7.3c0,11,8.9,19.9,19.9,19.9h27.6l12.1,9.8c1.2,1,2.7,1.5,4.1,1.5s1.9-.2,2.8-.6c2.3-1.1,3.7-3.4,3.7-5.9v-4.8h2.9c11,0,19.9-8.9,19.9-19.9v-19.7l18.3-18.3c2.6-2.6,2.7-6.6.4-9h0ZM139.4,51.8l-7,7-8.2,8.2c-.2.2-.4.3-.5.3l-6.7,1.2,1.2-6.7s0-.3.3-.5l14-14,5.8-5.8,9.1-9.1,5.8,5.8-13.6,13.6h-.2Z"/>
            </g>
          </g>
        </g>
        <g class="cls-1">
          <text class="cls-2" transform="translate(24.8 162)"><tspan x="0" y="0">玩家權益</tspan></text>
        </g>
      </g>
    </g>
  </g>
</svg>