<?xml version="1.0" encoding="UTF-8"?>
<svg xmlns="http://www.w3.org/2000/svg" version="1.1" viewBox="0 0 198.5 198.5">
  <defs>
    <style>
      .cls-1 {
        fill: #555;
        font-family: "Poppins", "微軟正黑體", "新細明體", sans-serif !important;
        font-size: 30px;
        font-weight: 700;
      }

      .cls-1, .cls-2 {
        isolation: isolate;
      }

      .cls-3 {
        fill: #282828;
      }

      .cls-4 {
        fill: #81d8d0;
      }
    </style>
  </defs>
  <!-- Generator: Adobe Illustrator 28.6.0, SVG Export Plug-In . SVG Version: 1.2.0 Build 709)  -->
  <g>
    <g id="_圖層_1" data-name="圖層_1">
      <g id="_圖層_1-2" data-name="_圖層_1">
        <g id="_圖層_1-2">
          <g id="_圖層_1-2-2" data-name="_圖層_1-2">
            <g id="_圖層_1-2-2">
              <g id="_圖層_1-2-2-2" data-name="_圖層_1-2-2">
                <g id="_圖層_1-2-2-2">
                  <path class="cls-4" d="M120.7,101.6c0,13-10.6,23.5-23.5,23.5s-23.5-10.6-23.5-23.5,10.5-23.5,23.5-23.5,23.5,10.6,23.5,23.5Z"/>
                  <g>
                    <path class="cls-3" d="M141.7,55h-19.6c2.9-3,4.7-7,4.7-11.5,0-9.1-7.4-16.4-16.4-16.4s-10.3,2.7-13.3,6.8c-3-4.1-7.8-6.8-13.3-6.8-9,0-16.4,7.4-16.4,16.4s1.8,8.5,4.7,11.5h-19.6c-4.3,0-7.8,3.5-7.8,7.8v11.6c0,3,1.7,5.6,4.1,6.9v47.8c0,8.9,7.2,16.1,16.1,16.1h64.2c8.9,0,16.1-7.2,16.1-16.1v-47.8c2.5-1.3,4.1-3.9,4.1-6.9v-11.6c0-4.3-3.5-7.8-7.8-7.8h.2ZM141.7,61.3c.8,0,1.5.7,1.5,1.5v11.6c0,.8-.7,1.5-1.5,1.5h-31.3c-3.1-1.6-6.6-2.6-10.2-3v-11.6s41.5,0,41.5,0ZM109.5,82.2c6.4,4.1,10.7,11.3,10.7,19.4,0,11.7-8.8,21.4-20.1,22.8-.9,0-1.9.2-2.9.2s-2.3,0-3.4-.3c-11.1-1.6-19.6-11.2-19.6-22.7s4.3-15.3,10.7-19.4c2.6-1.7,5.7-2.8,8.9-3.3,1.1-.2,2.2-.3,3.4-.3s2,0,2.9.2c3.4.4,6.6,1.6,9.4,3.4h0ZM110.4,33.4c5.6,0,10.1,4.5,10.1,10.1s-4.5,10.1-10.1,10.1h-10.1v-10.1c0-5.6,4.6-10.1,10.1-10.1ZM83.8,33.4c5.6,0,10.1,4.5,10.1,10.1v10.1h-10.1c-5.6,0-10.1-4.5-10.1-10.1s4.5-10.1,10.1-10.1ZM51,62.8c0-.8.7-1.5,1.5-1.5h41.3v11.6c-3.5.4-6.7,1.4-9.7,2.9h-31.6c-.8,0-1.5-.7-1.5-1.5v-11.6h0ZM55.2,129.2v-46.9h20.7c-4.7,5.1-7.5,12-7.5,19.4,0,14.8,11.2,27,25.5,28.7v8.7h-28.8c-5.4,0-9.8-4.4-9.8-9.8h-.1ZM139,129.2c0,5.4-4.4,9.8-9.8,9.8h-29.1v-8.6c14.6-1.4,26-13.8,26-28.7s-2.9-14.3-7.5-19.4h20.5v46.9h-.1Z"/>
                    <path class="cls-3" d="M52.2,20.9c.8,0,1.6-.3,2.2-.9l4.5-4.5c1.2-1.2,1.2-3.2,0-4.4s-3.2-1.2-4.4,0l-4.5,4.5c-1.2,1.2-1.2,3.2,0,4.4.6.6,1.4.9,2.2.9h0Z"/>
                    <path class="cls-3" d="M41.8,20c.6.6,1.4.9,2.2.9s1.6-.3,2.2-.9c1.2-1.2,1.2-3.2,0-4.5l-4.5-4.5c-1.2-1.2-3.2-1.2-4.4,0s-1.2,3.2,0,4.4l4.5,4.5h0Z"/>
                    <path class="cls-3" d="M41.8,23.8l-4.5,4.5c-1.2,1.2-1.2,3.2,0,4.5.6.6,1.4.9,2.2.9s1.6-.3,2.2-.9l4.5-4.5c1.2-1.2,1.2-3.2,0-4.5-1.2-1.2-3.2-1.2-4.5,0h.1Z"/>
                    <path class="cls-3" d="M56.7,33.6c.8,0,1.6-.3,2.2-.9,1.2-1.2,1.2-3.2,0-4.5l-4.5-4.5c-1.2-1.2-3.2-1.2-4.5,0-1.2,1.2-1.2,3.2,0,4.5l4.5,4.5c.6.6,1.4.9,2.2.9h.1Z"/>
                    <path class="cls-3" d="M158.7,41.9c-2.9,0-5.2,2.3-5.2,5.2s2.4,5.2,5.2,5.2,5.2-2.4,5.2-5.2-2.4-5.2-5.2-5.2ZM158.7,49.3c-1.2,0-2.1-.9-2.1-2.1s.9-2.1,2.1-2.1,2.1.9,2.1,2.1-.9,2.1-2.1,2.1Z"/>
                    <path class="cls-3" d="M178.6,35.9c1.1-.9,1.3-2.6.4-3.7-.9-1.1-2.6-1.3-3.7-.4s-1.3,2.6-.4,3.7c.9,1.1,2.6,1.3,3.7.4Z"/>
                    <path class="cls-3" d="M166.4,31.9c-1.1.9-1.3,2.6-.4,3.7.9,1.1,2.6,1.3,3.7.4s1.3-2.6.4-3.7c-.9-1.1-2.6-1.3-3.7-.4Z"/>
                    <path class="cls-3" d="M179.1,41.3c-.9-1.1-2.6-1.3-3.7-.4s-1.3,2.6-.4,3.7c.9,1.1,2.6,1.3,3.7.4s1.3-2.6.4-3.7Z"/>
                    <path class="cls-3" d="M96,84.2c-.7,0-1.5.2-2.2.3-1.5.3-2.9.9-4.1,1.7-3.1,2-4.9,5.2-4.9,9s1.1,2.5,2.5,2.5,2.5-1.1,2.5-2.5c0-2.1.9-3.7,2.6-4.8.5-.3.9-.5,1.5-.7,2-.7,4.5-.7,6.3,0h0c1.9.9,2.8,2.7,2.1,4.4h0c-.4,1-1.2,1.7-2.2,1.9h-2.9v-.8c.2-.7,0-1.3-.3-1.8-.4-.5-1-.9-1.6-1-.5,0-1,0-1.5.2,0,0-.3,0-.4.2-.5.4-.9,1-1,1.6l-1.8,11.6c0,.7,0,1.3.4,1.8s1,.9,1.6,1h1.2c.8-.3,1.5-1,1.7-1.9l.9-5.8h4.5c2.5,0,4.5,1.2,5.4,3.3.5,1.1.6,2.3.4,3.6-.2,1.3-.8,2.5-1.8,3.5s-2.9,2.1-4.8,2.5h0c-2,.4-4.1.3-5.9-.3,0,0-.3,0-.4-.2-1.7-.6-4-2-4.5-5.2,0-.7-.5-1.2-1-1.6s-1.2-.6-1.8-.4c-1.3.2-2.3,1.5-2.1,2.8.7,4.5,3.7,7.9,8.3,9.3.3,0,.7.2,1.1.3,1.2.3,2.5.4,3.8.4s1.7,0,2.5-.2c.3,0,.7,0,1-.2,3-.6,5.6-2,7.4-3.9,1.6-1.7,2.7-3.8,3.1-6s0-4.4-.7-6.4c-1-2.3-2.6-4-4.8-5.1.3-.4.5-.9.7-1.3v-.2c.7-2,.7-4.2-.2-6.1-.8-1.9-2.4-3.5-4.5-4.4-.7-.3-1.4-.6-2.2-.8-1.3-.3-2.7-.4-4.1-.3h.2Z"/>
                  </g>
                </g>
              </g>
            </g>
          </g>
        </g>
        <g class="cls-2">
          <text class="cls-1" transform="translate(76 193.9)"><tspan x="0" y="0">S.R</tspan></text>
        </g>
      </g>
    </g>
  </g>
</svg>