<?xml version="1.0" encoding="UTF-8"?>
<svg xmlns="http://www.w3.org/2000/svg" viewBox="0 0 90 90">
  <defs>
    <style>
      .cls-1 {
        fill: none;
      }

      .cls-1, .cls-2 {
        stroke-width: 0px;
      }

      .cls-2 {
        fill: #e2d0af;
      }
    </style>
  </defs>
  <g id="board">
    <rect class="cls-1" y="0" width="90" height="90"/>
  </g>
  <g id="professional_training_icon">
    <path class="cls-2" d="m57.17,75.19c-1.24,0-2.25,1.01-2.25,2.25v10.15c0,1.24,1.01,2.25,2.25,2.25s2.25-1.01,2.25-2.25v-10.15c0-1.24-1.01-2.25-2.25-2.25ZM4.13.82C3.25-.06,1.82-.06.94.82.06,1.7.06,3.12.94,4l28.75,28.75c3.27,3.27,5.07,7.62,5.07,12.25v42.6c0,1.24,1.01,2.25,2.25,2.25s2.25-1.01,2.25-2.25v-42.6c0-5.83-2.27-11.31-6.39-15.43L4.13.82Zm84.93,45.51l-13.95-13.95c-3.28-3.28-7.64-5.09-12.28-5.09h-16.43c-1.24,0-2.25,1.01-2.25,2.25s1.01,2.25,2.25,2.25h16.43c3.44,0,6.67,1.34,9.1,3.77l13.95,13.95c.44.44,1.02.66,1.59.66s1.15-.22,1.59-.66c.88-.88.88-2.3,0-3.18Zm-31.91-4.43h-.03c-7.16,0-12.99,5.81-13.02,12.96-.02,7.24,5.81,13.15,13,13.18h.06c3.49,0,6.77-1.35,9.23-3.8,2.48-2.46,3.85-5.75,3.85-9.25,0-3.5-1.35-6.79-3.82-9.26-2.47-2.46-5.76-3.83-9.28-3.83Zm6.07,19.15c-1.62,1.61-3.77,2.49-6.06,2.49h-.04c-4.79-.02-8.53-3.83-8.52-8.67.02-4.68,3.83-8.48,8.52-8.48h.02c2.32,0,4.49.9,6.11,2.52,1.62,1.62,2.5,3.77,2.5,6.07,0,2.3-.9,4.46-2.52,6.07Z"/>
  </g>
</svg>