<?xml version="1.0" encoding="UTF-8"?>
<svg xmlns="http://www.w3.org/2000/svg" viewBox="0 0 90 90">
  <defs>
    <style>
      .cls-1 {
        fill: none;
      }

      .cls-1, .cls-2 {
        stroke-width: 0px;
      }

      .cls-2 {
        fill: #e2d0af;
      }
    </style>
  </defs>
  <g id="board">
    <rect class="cls-1" y="0" width="90" height="90"/>
  </g>
  <g id="professional_training_icon">
    <path class="cls-2" d="m24.27,46.52c.57,0,1.14-.21,1.57-.64l7.61-7.45c2.66-2.6,6.98-2.58,9.62.04l3.99,4.01c1.71,1.74,3.99,2.7,6.43,2.71h.04c2.42,0,4.7-.94,6.41-2.66l15.21-15.21c.88-.88.88-2.3,0-3.18-.88-.88-2.3-.88-3.18,0l-15.21,15.21c-.86.86-2.01,1.34-3.23,1.34h-.02c-1.23,0-2.38-.49-3.24-1.37l-4.03-4.04c-4.38-4.35-11.53-4.39-15.94-.07l-7.61,7.45c-.89.87-.9,2.29-.04,3.18.44.45,1.02.68,1.61.68Zm26.25-17.16h.06c3.49,0,6.77-1.35,9.23-3.8,2.48-2.46,3.85-5.75,3.85-9.25.02-7.2-5.86-13.08-13.09-13.09h-.03c-7.16,0-12.99,5.81-13.02,12.96-.02,7.24,5.81,13.15,13,13.18Zm.02-21.64h.02c4.76.01,8.62,3.86,8.6,8.58,0,2.3-.9,4.46-2.52,6.07-1.62,1.61-3.77,2.49-6.06,2.49h-.04c-4.79-.02-8.53-3.83-8.52-8.67.02-4.68,3.83-8.48,8.52-8.48Zm-20.98,52l5.96-5.96.48-.49c.86-.88,2.01-1.38,3.25-1.38,1.24,0,2.39.47,3.27,1.34l26.4,26.45c.44.44,1.02.66,1.59.66s1.15-.22,1.59-.66c.88-.88.88-2.3,0-3.18l-26.4-26.45c-1.73-1.73-4.05-2.67-6.48-2.66-2.45.02-4.74.99-6.44,2.75l-6.4,6.41c-2.67,2.67-7.01,2.67-9.68,0l-12.76-12.76c-.88-.88-2.3-.88-3.18,0-.88.88-.88,2.3,0,3.18l12.76,12.76c4.42,4.42,11.62,4.42,16.05,0Zm53.43-17.68h-4.7c-1.24,0-2.25,1.01-2.25,2.25s1.01,2.25,2.25,2.25h4.7c1.14,0,2.07.93,2.07,2.07v26.6c0,5.04-4.1,9.15-9.15,9.15H4.34c-1.24,0-2.25,1.01-2.25,2.25s1.01,2.25,2.25,2.25h71.58c7.52,0,13.65-6.12,13.65-13.65v-26.6c0-3.62-2.95-6.57-6.57-6.57Z"/>
  </g>
</svg>