<?xml version="1.0" encoding="UTF-8"?>
<svg xmlns="http://www.w3.org/2000/svg" viewBox="0 0 90 90">
  <defs>
    <style>
      .cls-1 {
        fill: none;
      }

      .cls-1, .cls-2 {
        stroke-width: 0px;
      }

      .cls-2 {
        fill: #e2d0af;
      }
    </style>
  </defs>
  <g id="board">
    <rect class="cls-1" y="0" width="90" height="90"/>
  </g>
  <g id="professional_training_icon">
    <path class="cls-2" d="m63.42,60.28H26.58c-3.48,0-6.78,1.51-9.06,4.15s-3.29,6.12-2.77,9.57l1.99,13.4c.18,1.23,1.32,2.08,2.56,1.9,1.23-.18,2.08-1.33,1.9-2.56l-1.99-13.4c-.32-2.15.31-4.32,1.73-5.97,1.42-1.64,3.48-2.59,5.65-2.59h36.83c2.17,0,4.23.94,5.65,2.59,1.42,1.65,2.05,3.82,1.73,5.97l-1.99,13.4c-.18,1.23.67,2.37,1.9,2.56.11.02.22.02.33.02,1.1,0,2.06-.8,2.22-1.92l1.99-13.4c.51-3.44-.5-6.93-2.77-9.57-2.27-2.64-5.58-4.15-9.06-4.15Zm23.62-51.33h-4.97c-1.63,0-2.96,1.33-2.96,2.96v10.68h-6.52s0,0,0,0c-.25-.96-1.13-1.67-2.17-1.67s-1.92.71-2.17,1.67c0,0,0,0,0,0H20.51s0,0,0,0c-.25-.96-1.13-1.67-2.17-1.67s-1.92.71-2.17,1.67c0,0,0,0,0,0h-5.27v-10.68c0-1.63-1.33-2.96-2.96-2.96H2.96c-1.63,0-2.96,1.33-2.96,2.96v22.27c0,1.63,1.33,2.96,2.96,2.96h4.97c1.63,0,2.96-1.33,2.96-2.96v-9.59h5.19v17.65c0,5.25,4.27,9.53,9.53,9.53h9.06c2.38,3.02,6.05,4.96,10.17,4.98h.05c3.49,0,6.77-1.34,9.24-3.79.38-.38.73-.77,1.06-1.19h7.92c5.26,0,9.54-4.28,9.54-9.53v-17.65h6.44v9.59c0,1.63,1.33,2.96,2.96,2.96h4.97c1.63,0,2.96-1.33,2.96-2.96V11.91c0-1.63-1.33-2.96-2.96-2.96Zm-34.33,38.32c-.42.92-1,1.76-1.74,2.49-.37.36-.76.69-1.18.97-1.42.99-3.11,1.52-4.89,1.52h-.03c-2.19-.01-4.15-.8-5.64-2.13-.89-.78-1.61-1.75-2.1-2.85-.51-1.11-.79-2.36-.78-3.68.01-4.68,3.83-8.48,8.51-8.48h.03c4.75.01,8.61,3.86,8.6,8.58,0,1.26-.27,2.47-.78,3.58Zm15.45-5.03c0,2.77-2.26,5.03-5.04,5.03h-5.63c.32-1.14.49-2.34.5-3.57.02-7.2-5.86-13.07-13.09-13.09h-.04c-7.15,0-12.99,5.81-13.01,12.96v.04c0,1.27.18,2.5.52,3.66h-6.75c-2.78,0-5.03-2.26-5.03-5.03v-17.65h47.57v17.65Z"/>
  </g>
</svg>