<?xml version="1.0" encoding="UTF-8"?>
<svg xmlns="http://www.w3.org/2000/svg" viewBox="0 0 90 90">
  <defs>
    <style>
      .cls-1 {
        fill: none;
      }

      .cls-1, .cls-2 {
        stroke-width: 0px;
      }

      .cls-2 {
        fill: #e2d0af;
      }
    </style>
  </defs>
  <g id="board">
    <rect class="cls-1" y="0" width="90" height="90"/>
  </g>
  <g id="professional_training_icon">
    <path class="cls-2" d="m59.78,28.95c-1.1-.57-2.46-.14-3.03.96l-2.32,4.47c-1.14,2.2-3.39,3.57-5.87,3.57h-10.28c-5.85,0-10.61,4.76-10.61,10.61v8.5c0,3.33-1.19,6.55-3.35,9.08l-17.27,20.04c-.81.94-.71,2.36.24,3.17.42.37.95.55,1.47.55.63,0,1.26-.26,1.71-.78l17.27-20.04c2.86-3.34,4.44-7.61,4.44-12.01v-8.5c0-3.37,2.74-6.11,6.11-6.11h10.28c4.17,0,7.94-2.3,9.86-5.99l2.32-4.47c.57-1.1.14-2.46-.96-3.03Zm-26.55,5.78h.06c3.68,0,7.14-1.42,9.74-4.01,2.61-2.6,4.06-6.06,4.07-9.76.02-7.6-6.18-13.8-13.82-13.82h-.03c-7.55,0-13.71,6.13-13.74,13.68-.02,7.64,6.13,13.88,13.72,13.91Zm.02-23.09h.02c5.16.01,9.34,4.19,9.33,9.31,0,2.5-.98,4.83-2.74,6.58-1.75,1.74-4.08,2.7-6.57,2.7h-.04c-5.2-.02-9.25-4.15-9.24-9.4.02-5.07,4.16-9.19,9.24-9.19ZM69.55.35c-7.71,0-13.96,6.25-13.96,13.96s6.25,13.96,13.96,13.96,13.96-6.25,13.96-13.96S77.26.35,69.55.35Zm-20.41,57.92h-10.48c-1.24,0-2.25,1.01-2.25,2.25s1.01,2.25,2.25,2.25h10.48c2.25,0,4.07,1.83,4.07,4.07v20.84c0,1.24,1.01,2.25,2.25,2.25s2.25-1.01,2.25-2.25v-20.84c0-4.73-3.85-8.57-8.57-8.57Z"/>
  </g>
</svg>