<?xml version="1.0" encoding="UTF-8"?>
<svg xmlns="http://www.w3.org/2000/svg" viewBox="0 0 90 90">
  <defs>
    <style>
      .cls-1 {
        fill: none;
      }

      .cls-1, .cls-2 {
        stroke-width: 0px;
      }

      .cls-2 {
        fill: #e2d0af;
      }
    </style>
  </defs>
  <g id="board">
    <rect class="cls-1" y="0" width="90" height="90"/>
  </g>
  <g id="professional_training_icon">
    <path class="cls-2" d="m19.75,80.53H5.63c-.55,0-1,.45-1,1s.45,1,1,1h14.12c.55,0,1-.45,1-1s-.45-1-1-1Zm-2.75-72.28h14.12c.55,0,1-.45,1-1s-.45-1-1-1h-14.12c-.55,0-1,.45-1,1s.45,1,1,1Zm24.25,38.63c-1.24,0-2.25,1.01-2.25,2.25s1.01,2.25,2.25,2.25h23.1c1.24,0,2.25-1.01,2.25-2.25s-1.01-2.25-2.25-2.25h-23.1Zm-21.5,21.27H5.63c-.55,0-1,.45-1,1s.45,1,1,1h14.12c.55,0,1-.45,1-1s-.45-1-1-1Zm53.52-40.08c0-3.5-1.35-6.79-3.82-9.26-2.47-2.46-5.76-3.83-9.28-3.83h-.03c-7.16,0-12.99,5.81-13.02,12.96-.02,7.24,5.81,13.15,13,13.18h.06c3.49,0,6.77-1.35,9.23-3.8,2.48-2.46,3.85-5.75,3.85-9.25Zm-7.02,6.06c-1.62,1.61-3.77,2.49-6.06,2.49h-.04c-4.79-.02-8.53-3.83-8.52-8.67.02-4.68,3.83-8.48,8.52-8.48h.02c2.32,0,4.49.9,6.11,2.52,1.62,1.61,2.5,3.77,2.5,6.07,0,2.3-.9,4.46-2.52,6.07Zm10.05,22.64h-6.76c-2.48,0-4.88,1.03-6.59,2.84l-24.81,26.22c-.85.9-.81,2.33.09,3.18.44.41.99.62,1.55.62.6,0,1.19-.24,1.64-.7l24.81-26.22c.86-.91,2.07-1.43,3.32-1.43h6.76c2.52,0,4.57,2.05,4.57,4.57v21.53c0,1.24,1.01,2.25,2.25,2.25s2.25-1.01,2.25-2.25v-21.53c0-5-4.07-9.07-9.07-9.07ZM46.17.92c-.94-.81-2.36-.7-3.17.24l-15.8,18.4c-2.07,2.41-3.21,5.49-3.21,8.68v59.14c0,1.24,1.01,2.25,2.25,2.25s2.25-1.01,2.25-2.25V28.24c0-2.11.76-4.15,2.13-5.74l15.8-18.4c.81-.94.7-2.36-.24-3.17Zm16.48,5.12h-9.85c-1.24,0-2.25,1.01-2.25,2.25s1.01,2.25,2.25,2.25h9.85c10.04,0,18.22,8.17,18.22,18.22v1.74c0,1.24,1.01,2.25,2.25,2.25s2.25-1.01,2.25-2.25v-1.74c0-12.53-10.19-22.72-22.72-22.72ZM19.75,55.77H5.63c-.55,0-1,.45-1,1s.45,1,1,1h14.12c.55,0,1-.45,1-1s-.45-1-1-1Zm3.08-37.89h-14.12c-.55,0-1,.45-1,1s.45,1,1,1h14.12c.55,0,1-.45,1-1s-.45-1-1-1Zm-3.08,25.51H5.63c-.55,0-1,.45-1,1s.45,1,1,1h14.12c.55,0,1-.45,1-1s-.45-1-1-1Zm0-12.38H5.63c-.55,0-1,.45-1,1s.45,1,1,1h14.12c.55,0,1-.45,1-1s-.45-1-1-1Z"/>
  </g>
</svg>