<?xml version="1.0" encoding="UTF-8"?>
<svg xmlns="http://www.w3.org/2000/svg" viewBox="0 0 90 90">
  <defs>
    <style>
      .cls-1 {
        fill: none;
      }

      .cls-1, .cls-2 {
        stroke-width: 0px;
      }

      .cls-2 {
        fill: #e4d2b1;
      }
    </style>
  </defs>
  <g id="board">
    <rect class="cls-1" y="0" width="90" height="90"/>
  </g>
  <g id="professional_training_icon">
    <path class="cls-2" d="m41.81,68.11c0-1.24-1.01-2.25-2.25-2.25h-4.88c-5.36,0-9.72-4.36-9.72-9.72v-17.91c0-1.24-1.01-2.25-2.25-2.25s-2.25,1.01-2.25,2.25v17.91c0,7.84,6.38,14.22,14.22,14.22h4.88c1.24,0,2.25-1.01,2.25-2.25Zm-15.65-37.9c2.09,1.2,4.42,1.82,6.77,1.82,1.2,0,2.41-.16,3.6-.48,3.53-.95,6.47-3.22,8.27-6.38,1.8-3.16,2.27-6.85,1.31-10.39-1.95-7.22-9.41-11.52-16.63-9.58-7.29,1.96-11.64,9.46-9.7,16.7.95,3.54,3.21,6.49,6.37,8.31Zm4.5-20.67c.79-.21,1.57-.31,2.35-.31,4,0,7.67,2.67,8.76,6.72.64,2.39.33,4.87-.88,6.99-1.21,2.12-3.17,3.63-5.54,4.27-2.37.64-4.84.32-6.95-.89-2.12-1.22-3.63-3.2-4.27-5.58-1.32-4.93,1.54-9.85,6.52-11.19Zm14.45,52.12l.02.03c.22.36.5.73.84,1.13l.09.1.02.02.02.02.02.02s.04.04.06.06c.17.19.37.39.63.64.74.7,1.5,1.38,2.27,2.07l.27.24c.11.09.27.24.46.4.19.16.4.35.61.53.34.29.77.45,1.22.45s.88-.16,1.22-.44l.49-.43c.9-.79,1.81-1.59,2.71-2.4.68-.6,1.29-1.27,1.8-1.97.7-.97,1.05-1.86,1.08-2.81.04-1.14-.29-2.17-.98-2.97-.65-.76-1.59-1.19-2.58-1.19-.76,0-1.48.26-2.07.75-.6.49-1.04,1.14-1.4,2.03l-.06.16c-.05.14-.08.22-.12.29-.02.04-.02.04-.09.05-.03,0-.05,0-.05,0,0,0-.01-.01-.03-.05,0,0,0,0,0,0v-.02s-.03-.07-.03-.07l-.03-.07-.02-.06-.03-.09v-.04s-.01,0-.01,0v-.03c-.19-.47-.41-.89-.67-1.25-.03-.04-.06-.1-.12-.16-.02-.03-.05-.06-.07-.09-.02-.02-.03-.05-.05-.06v-.02s-.02,0-.02,0c-.63-.77-1.45-1.21-2.36-1.26-.07,0-.14,0-.21,0-1.42,0-2.66.84-3.23,2.2-.54,1.3-.46,2.66.21,3.96v.14l.19.2Zm1.56-24.39h-7.09c-1.24,0-2.25,1.01-2.25,2.25s1.01,2.25,2.25,2.25h7.09c10.75,0,19.5,8.75,19.5,19.5s-8.75,19.5-19.5,19.5h-8.8c-1.24,0-2.25,1.01-2.25,2.25s1.01,2.25,2.25,2.25h8.8c13.23,0,24-10.76,24-24s-10.76-24-24-24Z"/>
  </g>
</svg>