<?xml version="1.0" encoding="UTF-8"?>
<svg xmlns="http://www.w3.org/2000/svg" viewBox="0 0 90 90">
  <defs>
    <style>
      .cls-1 {
        fill: none;
      }

      .cls-1, .cls-2 {
        stroke-width: 0px;
      }

      .cls-2 {
        fill: #e2d0af;
      }
    </style>
  </defs>
  <g id="board">
    <rect class="cls-1" y="0" width="90" height="90"/>
  </g>
  <g id="professional_training_icon">
    <path class="cls-2" d="m44.89,20.19c.14.42.53.69.95.69.1,0,.21-.02.31-.05l35.6-11.48c.53-.17.81-.73.65-1.26s-.73-.81-1.26-.65l-35.6,11.48c-.53.17-.81.73-.65,1.26Zm-22.78,2.83c1.15,0,2.07-.93,2.07-2.07v-9.63c0-1.15-.93-2.07-2.07-2.07s-2.07.93-2.07,2.07v9.63c0,1.15.93,2.07,2.07,2.07Zm6.4-10.48c.1,0,.21-.02.31-.05L57.26,3.33c.53-.17.81-.73.65-1.26-.17-.53-.73-.82-1.26-.65l-28.44,9.17c-.53.17-.81.73-.65,1.26.14.42.53.69.95.69Zm-11.46,7.06c.25.03.47-.19.47-.44v-6.79c0-.25-.22-.47-.47-.44-1.91.23-3.4,1.86-3.4,3.83s1.48,3.6,3.4,3.83Zm66.37,62.82h-21.22c-2.53,0-4.93-1.22-6.43-3.25l-12.74-17.34c-1.01-1.38-1.55-3.01-1.55-4.73V19.56c0-1.24-1.01-2.25-2.25-2.25s-2.25,1.01-2.25,2.25v37.54c0,2.68.84,5.24,2.42,7.39l12.74,17.34c2.34,3.19,6.1,5.09,10.06,5.09h21.22c1.24,0,2.25-1.01,2.25-2.25s-1.01-2.25-2.25-2.25Zm-54.13-21.16h-11.67c-5,0-9.07,4.07-9.07,9.07v17.29c0,1.24,1.01,2.25,2.25,2.25s2.25-1.01,2.25-2.25v-17.29c0-2.52,2.05-4.57,4.57-4.57h11.67c1.24,0,2.25-1.01,2.25-2.25s-1.01-2.25-2.25-2.25Zm4.48-41.02c-1.91.23-3.4,1.86-3.4,3.83s1.48,3.6,3.4,3.83c.25.03.47-.19.47-.44v-6.79c0-.25-.22-.47-.47-.44Zm-13.75,8.98h-.03c-7.16,0-12.99,5.81-13.02,12.96-.02,7.24,5.81,13.15,13,13.18-.01-.02.04,0,.06,0,3.49,0,6.77-1.35,9.23-3.8,2.48-2.46,3.85-5.75,3.85-9.25.02-7.2-5.86-13.08-13.09-13.1Zm6.07,19.15c-1.63,1.62-3.84,2.5-6.1,2.49-4.79-.02-8.53-3.83-8.52-8.67.02-4.68,3.83-8.48,8.52-8.48h.02c4.76.01,8.62,3.86,8.6,8.58,0,2.3-.9,4.46-2.52,6.07Z"/>
  </g>
</svg>