<?xml version="1.0" encoding="UTF-8"?>
<svg id="uuid-ad0b14ae-bd12-48c7-b9e6-35ca6436061d" data-name="圖層 1" xmlns="http://www.w3.org/2000/svg" viewBox="0 0 55 55">
  <defs>
    <style>
      .uuid-85721c5c-c4dc-40eb-b669-f603eff841e5 {
        fill: #e86652;
        stroke-width: 0px;
      }
    </style>
  </defs>
  <path class="uuid-85721c5c-c4dc-40eb-b669-f603eff841e5" d="m27.5,9.66c-9.84,0-17.84,8-17.84,17.84s8,17.84,17.84,17.84,17.84-8,17.84-17.84-8-17.84-17.84-17.84m0,39.18c-11.77,0-21.34-9.57-21.34-21.34S15.73,6.16,27.5,6.16s21.34,9.57,21.34,21.34-9.58,21.34-21.34,21.34"/>
  <path class="uuid-85721c5c-c4dc-40eb-b669-f603eff841e5" d="m36.11,33.5c-.25,0-.51-.06-.76-.17l-7.49-3.6c-1.33-.64-2.18-2-2.18-3.47v-10.32c0-.97.78-1.75,1.75-1.75s1.75.78,1.75,1.75v10.32c0,.13.08.26.2.32l7.49,3.6c.87.42,1.24,1.46.82,2.33-.3.63-.93.99-1.58.99"/>
</svg>