<?xml version="1.0" encoding="UTF-8"?>
<svg id="uuid-889191a2-ecfa-45b9-ac79-5e48406ce1d1" data-name="圖層 1" xmlns="http://www.w3.org/2000/svg" viewBox="0 0 55 55">
  <defs>
    <style>
      .uuid-05966ebb-17c1-440f-8924-2d01537f3a8e {
        fill: #e76751;
        stroke-width: 0px;
      }
    </style>
  </defs>
  <path class="uuid-05966ebb-17c1-440f-8924-2d01537f3a8e" d="m12.03,18.82c-.02-2.25.84-4.37,2.42-5.98,1.54-1.57,3.58-2.44,5.73-2.46h.07c4.64,0,8.32,3.64,8.37,8.3.05,4.5-3.68,8.22-8.32,8.3h-.13c-4.37,0-8.1-3.74-8.15-8.16m8.15,11.56h.18c6.5-.11,11.73-5.38,11.66-11.74-.07-6.54-5.24-11.66-11.77-11.66h-.09c-3.06.02-5.95,1.26-8.13,3.47-2.22,2.26-3.42,5.24-3.39,8.4.06,6.25,5.35,11.53,11.54,11.53"/>
  <path class="uuid-05966ebb-17c1-440f-8924-2d01537f3a8e" d="m53.04,22.02c-.16-.5-.55-.88-1.06-1.02-.58-.16-1.12,0-1.61.49-2.55,2.56-3.15,3.15-3.78,3.78-.6.6-1.23,1.22-3.72,3.72-.14.14-.28.29-.46.5l-.05.05c-.06-.07-.1-.13-.16-.18l-.7-.71c-.61-.62-1.24-1.25-1.87-1.86-.62-.61-1.64-.62-2.22-.02-.61.63-.6,1.55.03,2.19l.16.17c1.04,1.06,2.12,2.15,3.21,3.2.27.26.63.47.98.57.2.06.4.09.59.09.57,0,1.09-.25,1.59-.75,2.67-2.67,3.32-3.33,4.02-4.02.68-.67,1.38-1.37,3.93-3.92l.22-.22c.2-.19.4-.39.58-.61.35-.41.46-.96.31-1.46"/>
  <path class="uuid-05966ebb-17c1-440f-8924-2d01537f3a8e" d="m20.31,33.7c-1.24,0-2.51.11-3.75.33-6.31,1.11-11.9,5.24-14.95,11.07-.51.98-.14,2.19.84,2.7.3.15.61.23.93.23.72,0,1.41-.39,1.77-1.07,2.48-4.73,7.01-8.09,12.1-8.98,1.02-.18,2.05-.27,3.06-.27,6.43,0,12.25,3.54,15.18,9.23.51.98,1.72,1.37,2.69.86.98-.51,1.37-1.71.86-2.69-3.62-7.03-10.8-11.4-18.74-11.4"/>
</svg>