<?xml version="1.0" encoding="UTF-8"?>
<svg id="uuid-066861df-cb43-4db1-9da2-e05a5ba5490b" data-name="圖層 1" xmlns="http://www.w3.org/2000/svg" viewBox="0 0 39.06 31.5">
  <defs>
    <style>
      .uuid-c7102e16-d9db-41ba-ab04-4e2a8f2d8a3c {
        fill: #e76751;
        stroke-width: 0px;
      }
    </style>
  </defs>
  <path class="uuid-c7102e16-d9db-41ba-ab04-4e2a8f2d8a3c" d="m37.46,0c-5.46,1.79-16.39,7.29-16.39,20.77,0,2.2,0,10.73,7.06,10.73,3.6,0,7.06-2.89,7.06-7.29,0-3.44-2.27-7.02-7.06-7.02-1.2,0-1.87-.69-1.87-2.06,0-1.24.8-3.03,2.27-4.95,2-2.89,5.46-5.23,10.53-7.15l-1.6-3.03Zm-21.07,0C10.93,1.79,0,7.29,0,20.77c0,2.2,0,10.73,7.06,10.73,3.6,0,7.06-2.89,7.06-7.29,0-3.44-2.27-7.02-7.06-7.02-1.2,0-1.87-.69-1.87-2.06,0-1.24.8-3.03,2.27-4.95,2-2.89,5.46-5.23,10.53-7.15l-1.6-3.03Z"/>
</svg>