<?xml version="1.0" encoding="UTF-8"?>
<svg id="uuid-7e640d98-3a3c-475c-89b5-710869ff7825" data-name="圖層 1" xmlns="http://www.w3.org/2000/svg" viewBox="0 0 55 55">
  <defs>
    <style>
      .uuid-202f9331-857b-443c-90d6-9c18e1acdd8a {
        fill: #e86652;
        stroke-width: 0px;
      }
    </style>
  </defs>
  <path class="uuid-202f9331-857b-443c-90d6-9c18e1acdd8a" d="m41.65,24.36c-.02.33-.05.63-.1.95-.02.28-.07.58-.15.85-.1.47-.2.98-.35,1.45l-.15.52c-.13.53-.27,1.03-.45,1.53-.98,2.63-2.45,5.2-4.66,8.06-.4.55-.85,1.08-1.3,1.63-.6.7-1.23,1.38-1.88,2.05-1.3,1.35-2.75,2.7-4.48,4.1-.2.15-.4.23-.62.23-.33,0-.55-.18-.78-.35-1.13-.82-2.13-1.8-3.08-2.75l-.7-.68c-.88-.83-1.7-1.7-2.48-2.63-1.08-1.23-2.08-2.53-3-3.9-1.03-1.5-1.88-3.08-2.55-4.68-.65-1.55-1.1-3.13-1.35-4.71-.05-.25-.1-.5-.13-.75-.05-.5-.1-1.03-.12-1.53-.02-.35-.02-.7-.02-1.05.02-.15.02-.28.02-.43-.02-.1,0-.2,0-.27.05-.3.08-.6.12-.88.08-.83.28-1.63.53-2.38.1-.3.2-.57.32-.88.08-.2.18-.4.28-.6.27-.6.6-1.18.95-1.73v-.03c.35-.5.73-1,1.1-1.45.05-.05.07-.1.12-.15.35-.4.73-.78,1.1-1.15.18-.15.35-.3.53-.45.3-.25.62-.52.95-.75.58-.4,1.15-.78,1.75-1.08,1.93-1,4.11-1.55,6.41-1.55,7.86,0,14.24,6.36,14.24,14.22,0,.4-.02.8-.08,1.2M27.49,5.19c-9.81,0-17.8,7.96-17.8,17.8,0,.75.05,1.5.18,2.25,0,.07.03.13.03.2.05.53.12,1.05.22,1.53.4,2.2,1.15,4.38,2.28,6.66.95,1.93,2.13,3.83,3.65,5.86.78,1.03,1.63,2.03,2.38,2.85,1.28,1.48,2.68,2.85,4.13,4.15,1,.89,2.47,2.03,3.55,2.85.79.61,1.88.64,2.71.08l.57-.43c1.35-1,2.73-2.2,4.26-3.63,1.8-1.75,3.45-3.58,4.95-5.48,1.28-1.65,2.4-3.35,3.36-5.05,1.12-2.05,1.98-4.2,2.58-6.43.18-.63.3-1.23.4-1.83.1-.48.2-.98.22-1.48.03-.23.05-.42.08-.65v-.18c.05-.43.08-.85.08-1.28,0-9.84-7.98-17.8-17.82-17.8"/>
  <path class="uuid-202f9331-857b-443c-90d6-9c18e1acdd8a" d="m27.41,25.94c-1.55-.02-2.7-1.22-2.7-2.8s1.23-2.75,2.68-2.75h.02c1.58,0,2.83,1.2,2.83,2.7-.03,1.7-1.15,2.85-2.83,2.85m-.02-9.11c-3.53.08-6.11,2.68-6.28,6.33.05,3.53,2.83,6.33,6.33,6.33,1.75,0,3.36-.65,4.53-1.83,1.2-1.2,1.83-2.78,1.83-4.48s-.7-3.35-1.83-4.51c-1.15-1.15-2.75-1.85-4.58-1.85"/>
</svg>