<?xml version="1.0" encoding="UTF-8"?>
<svg id="uuid-4549f614-a7ec-4351-8368-48b96c0df989" data-name="圖層 1" xmlns="http://www.w3.org/2000/svg" viewBox="0 0 55 55">
  <defs>
    <style>
      .uuid-054cf8f6-6e7f-40e6-bf1a-4a2caa18e874 {
        fill: #e86652;
        stroke-width: 0px;
      }
    </style>
  </defs>
  <path class="uuid-054cf8f6-6e7f-40e6-bf1a-4a2caa18e874" d="m29.42,19.48c1.37.55,2.07,1.53,2.08,2.91,0,.54.3.96.88,1.23.7.34,1.49.19,2-.34.34-.36.51-.85.48-1.39-.06-1.03-.34-1.95-.84-2.76-.94-1.52-2.32-2.54-4.2-3.12l-.64-.2v-.63c0-.5.01-1.14,0-1.44-.05-1-1.03-1.75-2.05-1.47-.82.22-1.3.82-1.33,1.69,0,.24,0,.77,0,1.21v.68s-.14.03-.14.03c-1.37.34-2.49.91-3.42,1.73-2.16,1.91-2.71,4.84-1.37,7.27.78,1.42,1.99,2.43,3.68,3.09.93.36,1.96.54,3.25.57,1.06.02,1.98.37,2.73,1.04.61.54.95,1.23.96,1.92,0,.7-.32,1.39-.92,1.95-.23.21-.49.4-.76.55-1.12.6-2.36.74-3.63.39-1.67-.46-2.44-1.37-2.68-3.17-.03-.24-.14-.51-.3-.73-.37-.52-1.17-.76-1.81-.56-.73.23-1.16.75-1.2,1.47-.06.93.13,1.83.55,2.67.85,1.69,2.26,2.85,4.31,3.52l.76.25v.63c0,.48,0,1.08,0,1.37.03.75.45,1.3,1.14,1.5.18.05.37.08.56.08.93,0,1.64-.7,1.68-1.67.01-.25,0-.79,0-1.34v-.59s.13-.04.13-.04c0,0,.51-.15.66-.2,1.32-.42,2.41-1.1,3.32-2.08,1.69-1.83,2.04-4.43.9-6.62-.67-1.29-1.7-2.26-3.15-2.95-1.09-.52-2.25-.78-3.55-.79-1.33-.01-2.41-.43-3.19-1.25-.54-.56-.82-1.24-.78-1.93.03-.66.36-1.3.93-1.78,1.41-1.21,3.12-1.46,4.97-.72"/>
  <path class="uuid-054cf8f6-6e7f-40e6-bf1a-4a2caa18e874" d="m27.5,46.41c-10.43,0-18.91-8.48-18.91-18.91S17.07,8.59,27.5,8.59s18.91,8.48,18.91,18.91-8.48,18.91-18.91,18.91m0-41.32C15.15,5.09,5.09,15.14,5.09,27.5s10.05,22.41,22.41,22.41,22.41-10.05,22.41-22.41S39.85,5.09,27.5,5.09"/>
</svg>