<?xml version="1.0" encoding="UTF-8"?>
<svg id="uuid-78f6847f-ceef-44f7-afd0-afe42beaf84e" data-name="圖層 1" xmlns="http://www.w3.org/2000/svg" viewBox="0 0 55 55">
  <defs>
    <style>
      .uuid-6f4de9c6-3ba4-402a-97db-189c4948d536 {
        fill: #e86652;
        stroke-width: 0px;
      }
    </style>
  </defs>
  <path class="uuid-6f4de9c6-3ba4-402a-97db-189c4948d536" d="m34.88,26.06c1.49-1.5,2.21-3.4,2.01-5.34-.21-2.02-1.37-3.9-3.09-5.04-1.6-1.05-3.43-1.54-5.75-1.54h-.16c-2,0-3.88.61-5.45,1.76-2.1,1.54-3.19,3.42-3.31,5.76-.05.8.32,1.42,1.13,1.87.31.18.64.27.97.27.73,0,1.35-.41,1.69-1.13.23-.48.42-.99.63-1.52.14-.36.28-.72.44-1.08.81-1.9,2.44-2.81,4.64-2.64,1.71.13,3.01,1.01,3.64,2.47.65,1.49.33,2.99-.92,4.33-.27.29-.56.57-.83.82l-.29.28c-.31.3-.62.6-.95.9-.65.61-1.32,1.24-1.93,1.89-1.18,1.27-1.74,2.88-1.66,4.8.03.85.31,1.22.55,1.45.38.37.79.54,1.29.54.22,0,.45-.03.71-.1.24-.07.98-.26,1.13-1.37.24-1.81,1.1-3.33,2.62-4.63,1.02-.88,2-1.84,2.9-2.74"/>
  <path class="uuid-6f4de9c6-3ba4-402a-97db-189c4948d536" d="m27.63,36.74c-.67,0-1.27.24-1.69.66-.43.42-.66,1.02-.66,1.67,0,1.34.98,2.31,2.32,2.32h0c.66,0,1.25-.23,1.67-.66.43-.43.66-1.02.66-1.69,0-1.36-.95-2.31-2.3-2.31"/>
  <path class="uuid-6f4de9c6-3ba4-402a-97db-189c4948d536" d="m45.98,40.4c2.65-3.79,4.06-8.24,4.06-12.9,0-7.58-3.77-14.6-10.1-18.79-6.47-4.29-14.51-4.92-22.06-1.73-4.81,2.03-8.76,5.93-10.82,10.7-3.41,7.89-2.66,16.23,2.06,22.86,4.22,5.95,11.1,9.49,18.38,9.49,4.1,0,8.11-1.11,11.6-3.21.89-.53,1.17-1.68.64-2.57-.53-.89-1.69-1.18-2.57-.64-2.91,1.75-6.25,2.67-9.67,2.67-6.07,0-11.8-2.96-15.32-7.92-3.94-5.54-4.55-12.54-1.67-19.2,1.68-3.89,4.9-7.07,8.83-8.73,6.37-2.69,13.12-2.18,18.52,1.4,5.27,3.49,8.42,9.35,8.42,15.67,0,4.02-1.25,7.85-3.62,11.08-.93,1.27-.81,3,.29,4.1l2.78,2.78c.73.73,1.92.73,2.65,0,.73-.73.73-1.92,0-2.65l-2.41-2.42Z"/>
</svg>