<?xml version="1.0" encoding="UTF-8"?>
<svg xmlns="http://www.w3.org/2000/svg" viewBox="0 0 56.7 40.41">
  <defs>
    <style>
      .youtube-1 {
        fill: #282828;
      }

      .youtube-1, .cls-2 {
        stroke-width: 0px;
      }

      .cls-2 {
        fill: #e4d2b1;
      }
    </style>
  </defs>
  <path class="youtube-1" d="m22.7,28.84c4.91-2.89,9.77-5.75,14.66-8.63-4.9-2.89-9.77-5.75-14.66-8.63v17.26Zm-9.6,11.18c-2.23-.16-4.47-.22-6.65-.76-2.78-.69-4.56-2.5-5.26-5.3-.35-1.39-.53-2.84-.69-4.28-.18-1.63-.25-3.27-.36-4.91-.04-.57-.06-1.13-.07-1.7-.03-1.58-.09-3.17-.06-4.75.03-1.58.15-3.16.24-4.74.04-.79.07-1.58.16-2.36.22-1.85.33-3.74.97-5.5C2.37,3.04,4.3,1.46,7.06,1.02c1.76-.28,3.54-.41,5.31-.57.91-.08,1.83-.1,2.75-.14,1.19-.05,2.37-.1,3.56-.14.93-.03,1.86-.05,2.79-.07,1.22-.03,2.44-.06,3.66-.07C27.11.02,29.08,0,31.06,0c1.02,0,2.04.02,3.06.04,1.13.02,2.26.04,3.39.07,1.2.04,2.4.07,3.59.14,2.05.12,4.09.24,6.13.42,1.3.11,2.62.23,3.85.71,2.46.96,4,2.77,4.52,5.39.32,1.6.5,3.24.69,4.87.12,1.04.15,2.1.2,3.15.06,1.27.1,2.55.14,3.82.03.84.05,1.69.05,2.53,0,.83-.02,1.67-.06,2.5-.1,1.82-.19,3.64-.34,5.46-.15,1.78-.32,3.57-.87,5.28-.85,2.69-2.68,4.35-5.38,4.93-1.23.27-2.5.4-3.76.49-2.54.18-5.08.29-7.62.42-.77.04-1.54.06-2.31.07-1.56.03-3.12.05-4.67.06-2.05.02-4.11.04-6.16.04-1.57,0-3.14-.02-4.7-.04-.82-.01-1.63-.03-2.45-.07-1.76-.09-3.51-.19-5.27-.28"/>
  <path class="cls-2" d="m22.7,28.83V11.57c4.9,2.88,9.76,5.74,14.66,8.63-4.89,2.88-9.76,5.74-14.66,8.63"/>
</svg>