<?xml version="1.0" encoding="UTF-8"?>
<svg id="_圖層_1" data-name="圖層 1" xmlns="http://www.w3.org/2000/svg" viewBox="0 0 427.9 429.87">
  <defs>
    <style>
      .cls-1, .cls-2 {
        stroke: #fff;
        stroke-width: .75px;
      }

      .cls-1, .cls-3 {
        fill: #fff;
      }

      .cls-2, .cls-4 {
        fill: #282828;
      }

      .cls-5 {
        fill: none;
        stroke: #e76751;
      }

      .cls-4, .cls-3, .cls-6 {
        stroke-width: 0px;
      }

      .cls-6 {
        fill: #e4d2b1;
      }
    </style>
  </defs>
  <g id="_songshan_block_" data-name="&amp;lt;songshan_block&amp;gt;">
    <path class="cls-6" d="m285.1,110.05V14.29c0-7.89-6.33-14.29-14.14-14.29h-125.74c-7.81,0-14.14,6.4-14.14,14.29v141.94c0,7.89,6.33,14.29,14.14,14.29h171.64c7.81,0,14.14-6.4,14.14-14.29v-17.6c0-7.89-6.33-14.29-14.14-14.29h-17.62c-7.81,0-14.14-6.4-14.14-14.29"/>
    <g id="_songshan_dist_" data-name="&amp;lt;songshan_dist&amp;gt;">
      <g>
        <path class="cls-4" d="m179.62,43.43c.5.67,1.89,2.7,2.2,3.21l-.97,1.17c-.25-.58-.76-1.55-1.22-2.41v8.57h-1.53v-7.65c-.56,1.76-1.28,3.4-2.02,4.48-.16-.49-.54-1.22-.83-1.66,1.13-1.44,2.2-4.14,2.72-6.46h-2.39v-1.55h2.52v-3.66h1.53v3.66h2.2v1.55h-2.2v.76Zm6.03-5.06c-.52,2.97-1.44,5.85-2.77,7.74-.2-.32-.79-.99-1.12-1.3,1.15-1.62,1.87-4.14,2.29-6.73l1.6.29Zm3.55,9.08c.86,1.76,1.98,4.12,2.48,5.49l-1.53.74c-.14-.45-.36-.99-.58-1.58-5.83.79-6.63.92-7.18,1.17-.07-.34-.34-1.15-.56-1.58.41-.11.74-.65,1.17-1.51.45-.83,1.82-3.98,2.54-6.91l1.69.45c-.81,2.66-1.91,5.38-3.04,7.53l4.77-.54c-.4-.92-.81-1.86-1.19-2.67l1.42-.58Zm-.22-9.49c.5,2.61,1.51,5.31,2.74,6.82-.36.27-.95.9-1.24,1.3-1.21-1.66-2.16-4.21-2.74-6.72h-1.58v-1.4h2.83Z"/>
        <path class="cls-4" d="m215.28,41.18v12.75h-1.73v-1.3h-12.5v-11.4h1.73v9.69h4.47v-13.29h1.76v13.29h4.54v-9.74h1.73Z"/>
        <path class="cls-4" d="m237.38,51.68c1.04,0,2.43-.07,3.12-.22.05.43.16,1.21.25,1.58-.56.14-2.02.18-3.42.18h-7.54c-2.93,0-4.3-.92-4.3-3.82v-9.72h-.72v-1.48h15.11v1.48h-12.75v9.85c0,1.53.61,2.14,2.5,2.14h7.76Zm-9.11-5.85h4.77v4.7h-4.77v-4.7Zm1.37,3.51h1.96v-2.32h-1.96v2.32Zm7.35-4.54h-6.81v-4.09h6.81v4.09Zm-1.66-2.95h-3.6v1.8h3.6v-1.8Zm3.69,8.68h-4.92v-4.7h4.92v4.7Zm-1.46-3.51h-2.07v2.32h2.07v-2.32Z"/>
      </g>
      <g>
        <path class="cls-4" d="m177.63,84.22c-.81-.35-1.44-.85-1.9-1.5-.46-.65-.69-1.4-.69-2.27h2.64c.06.65.31,1.18.77,1.6.45.42,1.09.63,1.91.63s1.51-.21,1.99-.62c.48-.41.71-.94.71-1.59,0-.5-.15-.91-.44-1.23-.3-.32-.66-.56-1.1-.73-.44-.17-1.05-.36-1.83-.56-.98-.26-1.77-.52-2.39-.79-.61-.27-1.13-.68-1.57-1.24-.43-.56-.65-1.31-.65-2.25,0-.86.22-1.62.65-2.27.43-.65,1.04-1.14,1.81-1.49.78-.35,1.68-.52,2.7-.52,1.45,0,2.65.36,3.57,1.09.93.73,1.44,1.72,1.54,2.99h-2.72c-.04-.55-.3-1.02-.78-1.4-.48-.39-1.1-.58-1.88-.58-.71,0-1.28.18-1.73.54-.45.36-.67.88-.67,1.56,0,.46.14.84.42,1.13s.64.53,1.07.7,1.02.36,1.77.56c.99.27,1.8.55,2.43.82s1.16.69,1.6,1.26c.44.57.66,1.33.66,2.28,0,.76-.21,1.48-.62,2.16-.41.68-1.01,1.22-1.79,1.63-.78.41-1.71.62-2.78.62-1.01,0-1.92-.18-2.72-.53Z"/>
        <path class="cls-4" d="m193.6,83.77c-1.17-.66-2.1-1.57-2.79-2.74-.68-1.17-1.03-2.5-1.03-3.96s.34-2.79,1.03-3.95c.68-1.17,1.61-2.08,2.79-2.73,1.17-.66,2.46-.98,3.86-.98s2.7.33,3.88.98,2.1,1.57,2.78,2.73c.68,1.17,1.02,2.48,1.02,3.95s-.34,2.79-1.02,3.96c-.68,1.17-1.6,2.09-2.78,2.74s-2.47.98-3.88.98-2.68-.33-3.86-.98Zm6.51-1.84c.78-.45,1.39-1.1,1.83-1.94.44-.84.66-1.82.66-2.93s-.22-2.08-.66-2.92c-.44-.83-1.05-1.48-1.83-1.92-.78-.45-1.66-.67-2.66-.67s-1.88.22-2.66.67c-.78.45-1.39,1.09-1.83,1.92-.44.84-.66,1.81-.66,2.92s.22,2.08.66,2.93c.44.84,1.05,1.49,1.83,1.94.78.45,1.66.68,2.66.68s1.88-.23,2.66-.68Z"/>
        <path class="cls-4" d="m222.04,84.6h-2.46l-7.41-11.21v11.21h-2.46v-15.03h2.46l7.41,11.19v-11.19h2.46v15.03Z"/>
        <path class="cls-4" d="m238.3,73.9c-.39-.75-.93-1.31-1.62-1.7-.69-.38-1.49-.57-2.4-.57-.99,0-1.88.22-2.66.67-.78.45-1.39,1.08-1.83,1.9-.44.82-.66,1.77-.66,2.85s.22,2.03.66,2.86c.44.83,1.05,1.47,1.83,1.91.78.45,1.66.67,2.66.67,1.34,0,2.43-.37,3.26-1.12s1.35-1.76,1.53-3.05h-5.64v-1.97h8.27v1.92c-.16,1.17-.57,2.24-1.24,3.22-.67.98-1.54,1.76-2.61,2.34-1.07.58-2.26.87-3.58.87-1.41,0-2.7-.33-3.87-.98s-2.09-1.57-2.78-2.73c-.68-1.17-1.03-2.48-1.03-3.95s.34-2.79,1.03-3.95c.68-1.17,1.61-2.08,2.79-2.73s2.46-.98,3.86-.98c1.6,0,3.02.39,4.27,1.18,1.25.79,2.15,1.9,2.71,3.34h-2.96Z"/>
        <path class="cls-4" d="m179.3,104.14c-.81-.35-1.44-.85-1.9-1.5-.46-.65-.69-1.4-.69-2.27h2.64c.06.65.31,1.18.77,1.6.45.42,1.09.63,1.91.63s1.51-.21,1.99-.62c.48-.41.71-.94.71-1.59,0-.5-.15-.91-.44-1.23-.3-.32-.66-.56-1.1-.73-.44-.17-1.05-.36-1.83-.56-.98-.26-1.77-.52-2.39-.79-.61-.27-1.13-.68-1.57-1.24-.43-.56-.65-1.31-.65-2.25,0-.86.22-1.62.65-2.27.43-.65,1.04-1.14,1.81-1.49.78-.35,1.68-.52,2.7-.52,1.45,0,2.65.36,3.57,1.09.93.73,1.44,1.72,1.54,2.99h-2.72c-.04-.55-.3-1.02-.78-1.4-.48-.39-1.1-.58-1.88-.58-.71,0-1.28.18-1.73.54-.45.36-.67.88-.67,1.56,0,.46.14.84.42,1.13s.64.53,1.07.7,1.02.36,1.77.56c.99.27,1.8.55,2.43.82s1.16.69,1.6,1.26c.44.57.66,1.33.66,2.28,0,.76-.21,1.48-.62,2.16-.41.68-1.01,1.22-1.79,1.63-.78.41-1.71.62-2.78.62-1.01,0-1.92-.18-2.72-.53Z"/>
        <path class="cls-4" d="m204.27,89.5v15.01h-2.46v-6.57h-7.06v6.57h-2.46v-15.01h2.46v6.44h7.06v-6.44h2.46Z"/>
        <path class="cls-4" d="m218.72,101.45h-6.29l-1.08,3.07h-2.57l5.38-15.03h2.85l5.38,15.03h-2.59l-1.08-3.07Zm-.69-2.01l-2.44-6.98-2.46,6.98h4.9Z"/>
        <path class="cls-4" d="m239.22,104.52h-2.46l-7.41-11.21v11.21h-2.46v-15.03h2.46l7.41,11.19v-11.19h2.46v15.03Z"/>
      </g>
      <g>
        <path class="cls-4" d="m179.27,115.27c.9.46,1.59,1.12,2.07,1.97.48.85.72,1.86.72,3.01s-.24,2.16-.72,3.01c-.48.85-1.17,1.5-2.07,1.94-.9.45-1.97.67-3.2.67h-3.52v-11.29h3.52c1.23,0,2.3.23,3.2.69Zm.14,8.23c.77-.77,1.15-1.85,1.15-3.25s-.39-2.5-1.16-3.29c-.77-.79-1.88-1.18-3.33-1.18h-2.04v8.88h2.04c1.46,0,2.57-.39,3.34-1.16Z"/>
        <path class="cls-4" d="m186.65,115.26c-.19-.19-.29-.43-.29-.71s.1-.52.29-.71.43-.29.71-.29.5.1.69.29.28.43.28.71-.09.52-.28.71-.42.29-.69.29-.52-.1-.71-.29Zm1.43,1.73v8.88h-1.47v-8.88h1.47Z"/>
        <path class="cls-4" d="m194.49,125.67c-.54-.23-.97-.56-1.28-.97-.31-.42-.49-.89-.52-1.43h1.52c.04.44.25.8.62,1.09.37.28.86.42,1.47.42.56,0,1-.12,1.33-.37.32-.25.49-.56.49-.94s-.17-.68-.52-.87-.88-.38-1.6-.56c-.66-.17-1.2-.35-1.61-.53-.42-.18-.77-.44-1.07-.79-.3-.35-.45-.81-.45-1.39,0-.45.14-.87.41-1.25.27-.38.65-.68,1.15-.9.5-.22,1.06-.33,1.7-.33.98,0,1.78.25,2.38.75.6.5.93,1.18.97,2.04h-1.47c-.03-.46-.22-.84-.56-1.12-.34-.28-.8-.42-1.37-.42-.53,0-.95.11-1.26.34-.31.23-.47.52-.47.89,0,.29.09.53.28.72s.43.34.71.45c.29.11.68.24,1.19.38.64.17,1.16.34,1.56.51.4.17.74.42,1.03.75.29.33.43.77.45,1.31,0,.49-.14.92-.41,1.31s-.65.69-1.14.92c-.49.22-1.06.33-1.69.33-.68,0-1.29-.12-1.83-.35Z"/>
        <path class="cls-4" d="m206.03,118.21v5.23c0,.43.09.74.28.92s.5.27.96.27h1.08v1.25h-1.33c-.82,0-1.44-.19-1.85-.57-.41-.38-.62-1-.62-1.86v-5.23h-1.15v-1.21h1.15v-2.24h1.47v2.24h2.32v1.21h-2.32Z"/>
        <path class="cls-4" d="m215.3,117.25c.48-.28,1.07-.42,1.76-.42v1.52h-.39c-1.65,0-2.48.9-2.48,2.69v4.83h-1.47v-8.88h1.47v1.44c.26-.51.63-.9,1.11-1.18Z"/>
        <path class="cls-4" d="m221.4,115.26c-.19-.19-.29-.43-.29-.71s.1-.52.29-.71.43-.29.71-.29.5.1.69.29c.19.19.28.43.28.71s-.09.52-.28.71c-.19.19-.42.29-.69.29s-.52-.1-.71-.29Zm1.43,1.73v8.88h-1.47v-8.88h1.47Z"/>
        <path class="cls-4" d="m227.93,119.01c.37-.69.88-1.22,1.53-1.6.65-.38,1.4-.57,2.24-.57,1.09,0,1.99.26,2.7.79.71.53,1.17,1.26,1.4,2.2h-1.59c-.15-.54-.45-.97-.88-1.28-.44-.31-.98-.47-1.63-.47-.84,0-1.52.29-2.04.87-.52.58-.78,1.4-.78,2.45s.26,1.9.78,2.48c.52.58,1.2.88,2.04.88.65,0,1.19-.15,1.62-.45.43-.3.73-.73.89-1.3h1.59c-.24.91-.71,1.63-1.43,2.18s-1.6.82-2.67.82c-.84,0-1.59-.19-2.24-.57-.65-.38-1.16-.91-1.53-1.6-.37-.69-.55-1.5-.55-2.43s.18-1.72.55-2.41Z"/>
        <path class="cls-4" d="m242.13,118.21v5.23c0,.43.09.74.28.92s.5.27.96.27h1.09v1.25h-1.33c-.82,0-1.44-.19-1.85-.57s-.62-1-.62-1.86v-5.23h-1.15v-1.21h1.15v-2.24h1.47v2.24h2.32v1.21h-2.32Z"/>
      </g>
    </g>
  </g>
  <g id="_daan_block_" data-name="&amp;lt;daan_block&amp;gt;">
    <path class="cls-6" d="m197,275.31l23.91-41.3c1.27-2.19,1.94-4.68,1.94-7.22v-21.08c0-7.89-6.33-14.29-14.14-14.29H72.69c-5.02,0-9.66,2.69-12.2,7.07l-44.47,76.81c-2.23,3.85-2.55,8.52-.88,12.65l32.13,79.13c2.18,5.36,7.34,8.86,13.08,8.86h150.42c10.06,0,16.9-10.31,13.08-19.72l-27.73-68.28c-1.67-4.12-1.35-8.8.88-12.65"/>
    <g id="_daan_dist_" data-name="&amp;lt;daan_dist&amp;gt;">
      <g>
        <path class="cls-4" d="m92.72,260.35c1.22,3.75,3.49,6.79,6.9,8.21-.41.36-.97,1.06-1.24,1.57-3.37-1.57-5.55-4.48-6.95-8.3-.92,3.26-2.86,6.37-6.95,8.3-.27-.45-.81-1.04-1.28-1.4,4.29-1.87,6.03-5.11,6.75-8.37h-6.39v-1.73h6.7c.22-1.8.2-3.53.22-4.97h1.82c-.02,1.46-.04,3.19-.25,4.97h7.26v1.73h-6.57Z"/>
        <path class="cls-4" d="m122.71,262.36c-.47,1.48-1.08,2.68-1.91,3.69,2.03.86,3.92,1.8,5.24,2.63l-1.26,1.48c-1.26-.86-3.17-1.87-5.29-2.81-1.84,1.48-4.36,2.32-7.74,2.84-.16-.43-.68-1.24-1.04-1.67,2.97-.34,5.22-.94,6.88-2-1.64-.67-3.31-1.26-4.83-1.75.49-.68,1.04-1.51,1.57-2.41h-3.71v-1.58h4.61c.54-1.01,1.01-2.05,1.35-2.99l1.91.36c-.32.85-.74,1.75-1.19,2.63h3.84c.11-.52.2-1.12.27-1.71l2.03.16c-.09.54-.18,1.06-.29,1.55h3.08v1.58h-3.51Zm-9.99-2.95h-1.69v-3.78h6.54c-.23-.54-.52-1.19-.76-1.69l1.84-.45c.34.67.77,1.51,1.04,2.14h6.1v3.78h-1.78v-2.21h-11.29v2.21Zm3.71,2.95c-.34.59-.67,1.15-.99,1.66,1.17.4,2.39.83,3.58,1.3.76-.79,1.3-1.76,1.69-2.95h-4.29Z"/>
        <path class="cls-4" d="m150.14,267.86c1.04,0,2.43-.07,3.11-.22.05.43.16,1.21.25,1.58-.56.14-2.02.18-3.42.18h-7.54c-2.93,0-4.3-.92-4.3-3.82v-9.72h-.72v-1.48h15.11v1.48h-12.75v9.85c0,1.53.61,2.14,2.5,2.14h7.76Zm-9.11-5.85h4.77v4.7h-4.77v-4.7Zm1.37,3.51h1.96v-2.32h-1.96v2.32Zm7.35-4.54h-6.81v-4.09h6.81v4.09Zm-1.66-2.95h-3.6v1.8h3.6v-1.8Zm3.69,8.68h-4.92v-4.7h4.92v4.7Zm-1.46-3.51h-2.07v2.32h2.07v-2.32Z"/>
      </g>
      <g>
        <path class="cls-4" d="m94.33,284.7c1.2.61,2.13,1.49,2.79,2.63.66,1.15.98,2.48.98,4.01s-.33,2.85-.98,3.97-1.58,1.98-2.79,2.58c-1.2.6-2.6.9-4.2.9h-4.9v-15.01h4.9c1.6,0,3,.31,4.2.92Zm-.16,10.66c.94-.95,1.4-2.29,1.4-4.02s-.47-3.1-1.4-4.08c-.94-.98-2.28-1.47-4.04-1.47h-2.44v10.99h2.44c1.76,0,3.1-.47,4.04-1.43Z"/>
        <path class="cls-4" d="m111.73,295.72h-6.29l-1.08,3.07h-2.57l5.38-15.03h2.85l5.38,15.03h-2.59l-1.08-3.07Zm-.69-2.01l-2.44-6.98-2.46,6.98h4.9Z"/>
        <path class="cls-4" d="m128.92,295.72h-6.29l-1.08,3.07h-2.57l5.38-15.03h2.85l5.38,15.03h-2.59l-1.08-3.07Zm-.69-2.01l-2.44-6.98-2.46,6.98h4.9Z"/>
        <path class="cls-4" d="m149.4,298.79h-2.46l-7.41-11.21v11.21h-2.46v-15.03h2.46l7.41,11.19v-11.19h2.46v15.03Z"/>
      </g>
      <g>
        <path class="cls-4" d="m89.51,308.64c.9.46,1.59,1.12,2.07,1.97.48.85.72,1.86.72,3.01s-.24,2.16-.72,3.01c-.48.85-1.17,1.5-2.07,1.94-.9.45-1.97.67-3.2.67h-3.52v-11.29h3.52c1.23,0,2.3.23,3.2.69Zm.14,8.23c.77-.77,1.15-1.85,1.15-3.25s-.39-2.5-1.16-3.29-1.88-1.18-3.33-1.18h-2.04v8.88h2.04c1.46,0,2.57-.39,3.34-1.16Z"/>
        <path class="cls-4" d="m96.89,308.63c-.19-.19-.29-.43-.29-.71s.1-.52.29-.71.43-.29.71-.29.5.1.69.29.28.43.28.71-.09.52-.28.71-.42.29-.69.29-.52-.1-.71-.29Zm1.43,1.73v8.88h-1.47v-8.88h1.47Z"/>
        <path class="cls-4" d="m104.73,319.04c-.54-.23-.97-.56-1.28-.97-.31-.42-.49-.89-.52-1.43h1.52c.04.44.25.8.62,1.08.37.28.86.42,1.47.42.56,0,1-.12,1.33-.37.32-.25.49-.56.49-.94s-.17-.68-.52-.87c-.35-.19-.88-.38-1.6-.56-.66-.17-1.2-.35-1.61-.53-.42-.18-.77-.44-1.07-.79-.3-.35-.45-.81-.45-1.38,0-.45.14-.87.41-1.25.27-.38.65-.68,1.15-.9s1.06-.33,1.7-.33c.98,0,1.78.25,2.38.75s.93,1.18.97,2.04h-1.47c-.03-.46-.22-.84-.56-1.12-.34-.28-.8-.42-1.37-.42-.53,0-.95.11-1.26.34-.31.23-.47.52-.47.89,0,.29.09.53.28.72.19.19.43.34.71.45.29.11.68.24,1.19.38.64.17,1.16.34,1.56.51.4.17.74.42,1.03.75.29.33.43.77.45,1.31,0,.49-.14.92-.41,1.31s-.65.69-1.14.92c-.49.22-1.06.33-1.69.33-.68,0-1.29-.12-1.83-.35Z"/>
        <path class="cls-4" d="m116.26,311.58v5.23c0,.43.09.74.28.92.18.18.5.27.96.27h1.09v1.25h-1.33c-.82,0-1.44-.19-1.85-.57-.41-.38-.62-1-.62-1.86v-5.23h-1.15v-1.21h1.15v-2.24h1.47v2.24h2.32v1.21h-2.32Z"/>
        <path class="cls-4" d="m125.54,310.62c.48-.28,1.07-.42,1.76-.42v1.52h-.39c-1.65,0-2.48.9-2.48,2.69v4.83h-1.47v-8.88h1.47v1.44c.26-.51.63-.9,1.11-1.18Z"/>
        <path class="cls-4" d="m131.64,308.63c-.19-.19-.29-.43-.29-.71s.1-.52.29-.71.43-.29.71-.29.5.1.69.29.28.43.28.71-.09.52-.28.71-.42.29-.69.29-.52-.1-.71-.29Zm1.43,1.73v8.88h-1.47v-8.88h1.47Z"/>
        <path class="cls-4" d="m138.16,312.38c.37-.69.88-1.22,1.53-1.6.65-.38,1.4-.57,2.24-.57,1.09,0,1.99.26,2.7.79s1.17,1.26,1.4,2.2h-1.59c-.15-.54-.45-.97-.88-1.28-.44-.31-.98-.47-1.63-.47-.84,0-1.52.29-2.04.87-.52.58-.78,1.4-.78,2.45s.26,1.9.78,2.48c.52.58,1.2.88,2.04.88.65,0,1.19-.15,1.62-.45.43-.3.73-.73.89-1.3h1.59c-.24.91-.71,1.63-1.43,2.18-.71.55-1.6.82-2.67.82-.84,0-1.59-.19-2.24-.57-.65-.38-1.16-.91-1.53-1.6-.37-.69-.55-1.5-.55-2.43s.18-1.72.55-2.41Z"/>
        <path class="cls-4" d="m152.37,311.58v5.23c0,.43.09.74.28.92.18.18.5.27.96.27h1.09v1.25h-1.33c-.82,0-1.44-.19-1.85-.57-.41-.38-.62-1-.62-1.86v-5.23h-1.15v-1.21h1.15v-2.24h1.47v2.24h2.32v1.21h-2.32Z"/>
      </g>
    </g>
  </g>
  <g id="_nanjing_line_" data-name="&amp;lt;nanjing_line&amp;gt;">
    <path class="cls-5" d="m202.9,150.62h156.24c4.42,0,8-3.58,8-8v-28.44"/>
    <circle class="cls-4" cx="202.9" cy="150.62" r="3.66"/>
  </g>
  <g id="_dongmen_line_" data-name="&amp;lt;dongmen_line&amp;gt;">
    <path class="cls-5" d="m50.71,263h-10.42c-4.42,0-8-3.58-8-8v-84.1"/>
    <circle class="cls-4" cx="50.71" cy="263" r="3.66"/>
  </g>
  <g id="_zhongxiao_line_" data-name="&amp;lt;zhongxiao_line&amp;gt;">
    <line class="cls-5" x1="172.12" y1="220.43" x2="241.71" y2="220.43"/>
    <circle class="cls-4" cx="172.12" cy="220.43" r="3.66"/>
  </g>
  <g id="_xinyianhe_line_" data-name="&amp;lt;xinyianhe_line&amp;gt;">
    <line class="cls-5" x1="184.11" y1="332.57" x2="184.11" y2="388.28"/>
    <circle class="cls-4" cx="184.11" cy="332.57" r="3.66"/>
  </g>
  <g id="uuid-26f080f5-6198-4c62-96ef-b0b7db03da94">
    <rect class="cls-1" x="305.13" y="73.64" width="122.39" height="40.54" rx="20.27" ry="20.27"/>
    <g id="_nanjing_button_o_" data-name="&amp;lt;nanjing_button_o&amp;gt;">
      <g>
        <path class="cls-4" d="m340.01,82.73c-.06.49-.14.96-.21,1.39h5.62v8.34c0,.77-.2,1.12-.73,1.32-.54.21-1.42.21-2.63.21-.09-.35-.31-.89-.51-1.22.87.05,1.81.03,2.07.02.28,0,.35-.08.35-.32v-7.02h-9.09v8.56h-1.42v-9.87h4.97c.05-.41.12-.9.17-1.39h-5.86v-1.33h6c.05-.51.08-1,.09-1.42l1.56.15c-.05.41-.11.84-.17,1.27h5.89v1.33h-6.09Zm.03,8.42v2.51h-1.35v-2.51h-3.08v-1.15h3.08v-1.32h-2.75v-1.12h1.41c-.12-.5-.43-1.19-.72-1.7l1.12-.29c.34.54.66,1.27.8,1.75l-.81.24h2.51c.26-.61.58-1.45.73-2.04l1.29.29c-.26.6-.52,1.21-.78,1.74h1.45v1.12h-2.89v1.32h3.18v1.15h-3.18Z"/>
        <path class="cls-4" d="m363.55,90.16c-.8,1.21-1.97,2.56-3.03,3.46-.25-.29-.74-.69-1.03-.9.98-.81,2.11-2.05,2.66-3.05l1.39.49Zm9.43-8.36v1.39h-13.29v-1.39h6.09c-.25-.49-.54-1.06-.81-1.5l1.38-.44c.4.58.87,1.38,1.12,1.94h5.51Zm-5.83,6.98v3.69c0,.78-.17,1.16-.75,1.38-.58.21-1.47.21-2.75.21-.08-.41-.29-.99-.46-1.38.9.03,1.85.03,2.13.02.26,0,.34-.06.34-.26v-3.66h-4.13v-4.56h9.78v4.56h-4.15Zm-4.22-1.22h6.87v-2.1h-6.87v2.1Zm7.25,2.08c.95.96,2.19,2.31,2.77,3.18l-1.25.83c-.54-.86-1.71-2.28-2.69-3.29l1.18-.72Z"/>
        <path class="cls-4" d="m400.04,81.77v1.35h-11.08v2.56c0,2.4-.23,6.03-1.62,8.37-.26-.25-.92-.69-1.26-.83,1.3-2.19,1.41-5.34,1.41-7.56v-3.89h5.85c-.18-.49-.43-1.03-.69-1.45l1.41-.32c.37.54.69,1.22.89,1.78h5.1Zm-5.23,3.47h4.81v1.3h-4.81v1.76h4.09v5.51h-1.45v-.57h-5.95v.6h-1.39v-5.54h3.24v-4.7h1.47v1.64Zm2.63,4.38h-5.95v2.36h5.95v-2.36Z"/>
      </g>
    </g>
    <g>
      <path class="cls-4" d="m346.61,106.7h-.82l-3.29-5v5h-.82v-6.28h.82l3.29,4.99v-4.99h.82v6.28Z"/>
      <path class="cls-4" d="m353.87,105.31h-2.74l-.5,1.4h-.86l2.27-6.24h.94l2.26,6.24h-.86l-.5-1.4Zm-.23-.67l-1.13-3.17-1.13,3.17h2.27Z"/>
      <path class="cls-4" d="m363.32,106.7h-.82l-3.29-5v5h-.82v-6.28h.82l3.29,4.99v-4.99h.82v6.28Z"/>
      <path class="cls-4" d="m370.04,100.43v4.63c0,.52-.16.93-.48,1.24s-.74.46-1.26.46-.95-.16-1.27-.47c-.32-.31-.48-.75-.48-1.29h.82c0,.31.08.56.24.75.15.19.38.29.69.29s.53-.09.68-.27c.15-.18.23-.42.23-.7v-4.63h.83Z"/>
      <path class="cls-4" d="m374.63,100.43v6.27h-.82v-6.27h.82Z"/>
      <path class="cls-4" d="m383.11,106.7h-.82l-3.29-5v5h-.82v-6.28h.82l3.29,4.99v-4.99h.82v6.28Z"/>
      <path class="cls-4" d="m391.42,102.25c-.17-.37-.43-.65-.76-.85-.33-.2-.71-.3-1.15-.3s-.83.1-1.18.3c-.35.2-.63.49-.83.86s-.3.81-.3,1.3.1.92.3,1.3c.2.37.48.66.83.86s.75.3,1.18.3c.61,0,1.12-.18,1.51-.55.4-.37.63-.86.69-1.48h-2.5v-.67h3.38v.63c-.05.52-.21.99-.49,1.42s-.64.77-1.09,1.02-.95.37-1.5.37c-.58,0-1.11-.14-1.59-.41-.48-.27-.86-.65-1.14-1.14-.28-.49-.42-1.03-.42-1.65s.14-1.16.42-1.65c.28-.49.66-.87,1.14-1.14.48-.27,1.01-.41,1.59-.41.67,0,1.26.17,1.77.5.51.33.89.8,1.12,1.4h-.98Z"/>
    </g>
  </g>
  <g id="uuid-eb426cad-712d-495b-b874-167a6eaedf5c">
    <rect class="cls-1" x="242.36" y="199.16" width="122.39" height="40.54" rx="20.27" ry="20.27"/>
    <g id="_nanjing_button_o_-2" data-name="&amp;lt;nanjing_button_o&amp;gt;">
      <g>
        <path class="cls-4" d="m269.52,218.91c.67-1.01,1.3-2.53,1.67-3.72l1.26.49c-.4,1.19-.98,2.8-1.59,3.83l-1.33-.6Zm6.29-5.63h-4.9v-5h4.9v-1.78h1.42v1.78h5v5h-5v1.38h-.6c.72.6,1.54,1.33,1.99,1.85l-1.13.89c-.49-.61-1.47-1.55-2.26-2.2l.73-.54h-.15v-1.38Zm0-1.27v-2.48h-3.52v2.48h3.52Zm2.5,6.87c.72,0,.84-.26.92-1.91.34.23.95.46,1.35.55-.18,2.16-.61,2.69-2.14,2.69h-2.89c-1.82,0-2.3-.41-2.3-1.87v-3.15h1.49v3.14c0,.47.14.55.96.55h2.62Zm-1.07-9.35v2.48h3.58v-2.48h-3.58Zm3.93,5.56c.78,1.07,1.84,2.56,2.31,3.46l-1.32.72c-.44-.92-1.42-2.43-2.22-3.57l1.22-.61Z"/>
        <path class="cls-4" d="m304.83,211.95c-.57.41-1.16.8-1.76,1.18h4.09l.32-.06.87.78c-1.03.73-2.39,1.48-3.7,2.04v.17h5.42v1.24h-5.42v1.75c0,.72-.17,1.09-.75,1.27-.55.2-1.41.21-2.65.21-.08-.37-.32-.93-.54-1.27.93.03,1.93.03,2.19.02.26,0,.34-.06.34-.26v-1.71h-5.36v-1.24h5.36v-.69c.75-.28,1.59-.67,2.3-1.1h-4.45c-1.27.67-2.59,1.27-3.89,1.76-.18-.31-.63-.89-.9-1.16,2.14-.73,4.29-1.71,6.2-2.91h-5.88v-1.24h5.16v-1.41h-3.84v-1.22h3.84v-1.58h1.41v1.58h3.23v.92c.66-.61,1.25-1.25,1.81-1.93l1.18.66c-.87,1.07-1.85,2.07-2.95,2.98h3.84v1.24h-5.45Zm-.49-1.24c.61-.46,1.18-.92,1.73-1.41h-2.89v1.41h1.16Z"/>
        <path class="cls-4" d="m337.15,208.29v1.35h-11.08v2.56c0,2.4-.23,6.03-1.62,8.37-.26-.25-.92-.69-1.26-.83,1.3-2.19,1.41-5.34,1.41-7.56v-3.89h5.85c-.18-.49-.43-1.03-.69-1.45l1.41-.32c.37.54.69,1.22.89,1.78h5.1Zm-5.23,3.47h4.81v1.3h-4.81v1.76h4.09v5.51h-1.45v-.57h-5.95v.6h-1.39v-5.54h3.24v-4.7h1.47v1.64Zm2.63,4.38h-5.95v2.36h5.95v-2.36Z"/>
      </g>
    </g>
    <g>
      <path class="cls-4" d="m268.72,231.8h3.06v.71h-4.03v-.65l3.04-4.91h-3.01v-.71h3.98v.65l-3.04,4.91Z"/>
      <path class="cls-4" d="m279.89,226.23v6.27h-.82v-2.84h-3.2v2.84h-.82v-6.27h.82v2.75h3.2v-2.75h.82Z"/>
      <path class="cls-4" d="m284.7,232.16c-.48-.27-.86-.65-1.14-1.14s-.42-1.04-.42-1.65.14-1.16.42-1.65c.28-.49.66-.87,1.14-1.14.48-.27,1.01-.41,1.59-.41s1.12.14,1.6.41c.48.27.86.65,1.13,1.14.28.49.41,1.04.41,1.66s-.14,1.17-.41,1.66c-.28.49-.65.87-1.13,1.14-.48.27-1.01.41-1.6.41s-1.11-.14-1.59-.41Zm2.78-.61c.35-.2.63-.5.83-.87.2-.38.3-.82.3-1.31s-.1-.94-.3-1.32c-.2-.37-.48-.66-.82-.87-.35-.2-.74-.31-1.19-.31s-.84.1-1.19.31c-.35.2-.62.49-.82.87-.2.38-.3.82-.3,1.32s.1.94.3,1.31.48.67.83.87.75.31,1.18.31.83-.1,1.18-.31Z"/>
      <path class="cls-4" d="m297.61,232.51h-.82l-3.29-5v5h-.82v-6.28h.82l3.29,4.99v-4.99h.82v6.28Z"/>
      <path class="cls-4" d="m305.92,228.05c-.17-.37-.43-.65-.76-.85-.33-.2-.71-.3-1.15-.3s-.83.1-1.18.3-.63.49-.83.86-.3.81-.3,1.3.1.92.3,1.3.48.66.83.86.75.3,1.18.3c.61,0,1.12-.18,1.51-.55.4-.37.63-.86.69-1.48h-2.5v-.67h3.38v.63c-.05.52-.21.99-.49,1.42-.28.43-.64.77-1.09,1.02s-.95.37-1.5.37c-.58,0-1.11-.14-1.59-.41-.48-.27-.86-.65-1.14-1.14s-.42-1.04-.42-1.65.14-1.16.42-1.65c.28-.49.66-.87,1.14-1.14.48-.27,1.01-.41,1.59-.41.67,0,1.26.17,1.77.5s.89.79,1.12,1.39h-.98Z"/>
      <path class="cls-4" d="m317.46,229.38l1.93,3.13h-.93l-1.5-2.45-1.43,2.45h-.91l1.92-3.13-1.93-3.14h.92l1.51,2.46,1.44-2.46h.92l-1.94,3.14Z"/>
      <path class="cls-4" d="m323.46,226.23v6.27h-.82v-6.27h.82Z"/>
      <path class="cls-4" d="m330.72,231.11h-2.74l-.5,1.39h-.86l2.27-6.24h.94l2.26,6.24h-.86l-.5-1.39Zm-.23-.67l-1.13-3.17-1.13,3.17h2.27Z"/>
      <path class="cls-4" d="m336.49,232.16c-.48-.27-.86-.65-1.14-1.14s-.42-1.04-.42-1.65.14-1.16.42-1.65c.28-.49.66-.87,1.14-1.14.48-.27,1.01-.41,1.59-.41s1.12.14,1.6.41c.48.27.86.65,1.13,1.14.28.49.41,1.04.41,1.66s-.14,1.17-.41,1.66c-.28.49-.65.87-1.13,1.14-.48.27-1.01.41-1.6.41s-1.11-.14-1.59-.41Zm2.78-.61c.35-.2.63-.5.83-.87.2-.38.3-.82.3-1.31s-.1-.94-.3-1.32c-.2-.37-.48-.66-.82-.87-.35-.2-.74-.31-1.19-.31s-.84.1-1.19.31c-.35.2-.62.49-.82.87-.2.38-.3.82-.3,1.32s.1.94.3,1.31.48.67.83.87.75.31,1.18.31.83-.1,1.18-.31Z"/>
    </g>
  </g>
  <g id="uuid-a2ba7300-6c8b-4a97-98bb-021e025e6927">
    <rect class="cls-1" x="114.49" y="388.95" width="161.78" height="40.54" rx="20.27" ry="20.27"/>
    <g id="_nanjing_button_o_-3" data-name="&amp;lt;nanjing_button_o&amp;gt;">
      <g>
        <path class="cls-4" d="m142.69,396.83c-.35.96-.78,1.96-1.24,2.89v10.74h-1.3v-8.48c-.41.64-.86,1.21-1.29,1.71-.14-.31-.54-1.04-.77-1.36,1.33-1.44,2.56-3.67,3.31-5.89l1.29.38Zm9.4,2v1.16h-9.7v-1.16h4.48c-.21-.55-.64-1.38-1.03-1.99l1.22-.47c.41.61.87,1.44,1.1,1.99l-1.1.47h5.02Zm-8.83,6.63h7.84v4.91h-1.26v-.5h-5.37v.55h-1.21v-4.96Zm7.67-3.28h-7.45v-1.13h7.45v1.13Zm-7.45,1.03h7.45v1.13h-7.45v-1.13Zm1,3.4v2.11h5.37v-2.11h-5.37Z"/>
        <path class="cls-4" d="m176.03,406.6c-.5.67-1.18,1.26-1.94,1.78.5.49,1.06.77,1.62.75.4,0,.51-.32.58-1.3.28.23.72.46,1.07.55-.21,1.65-.66,2.05-1.73,2.05s-1.97-.49-2.72-1.33c-1.03.54-2.16.98-3.26,1.32-.14-.28-.49-.87-.73-1.13,1.13-.26,2.28-.64,3.29-1.15-.35-.58-.64-1.27-.87-2.02h-3.29v.83c.83-.06,1.68-.12,2.53-.18v1c-.84.08-1.7.15-2.53.21v1.15c0,.69-.15.99-.66,1.15-.49.17-1.24.18-2.39.18-.08-.34-.26-.8-.41-1.12.77.05,1.58.05,1.78.03.25,0,.31-.06.31-.28v-.99l-3.06.24-.12-1.1c.87-.05,1.97-.11,3.18-.2v-.92h-3.12v-1.09h3.12v-.86c-.89.09-1.78.15-2.6.18-.05-.25-.17-.64-.31-.89,2.02-.11,4.41-.37,5.75-.7l.84.86c-.67.17-1.47.29-2.31.41v.99h3.02c-.14-.66-.23-1.38-.28-2.11h1.38c.03.75.12,1.45.28,2.11h3.06c-.52-.44-1.59-1.04-2.46-1.41l.8-.83c.87.32,1.96.87,2.51,1.35l-.81.89h1.61v1.09h-4.38c.17.5.38.96.63,1.36.58-.38,1.07-.81,1.44-1.29l1.21.41Zm1.04-3.9h-13.51v-1.12h6v-.78h-4.51v-1.03h4.51v-.78h-5.33v-1.07h2.94c-.18-.37-.46-.78-.73-1.12l1.24-.41c.43.43.83,1.07,1.01,1.5l-.08.03h3.4c.28-.46.63-1.12.81-1.56l1.55.34c-.31.44-.6.87-.87,1.22h2.92v1.07h-5.4v.78h4.59v1.03h-4.59v.78h6.06v1.12Z"/>
        <path class="cls-4" d="m199.05,403.81c-.4,1.25-.92,2.28-1.62,3.14,1.73.73,3.34,1.53,4.45,2.23l-1.07,1.25c-1.07-.73-2.69-1.59-4.5-2.39-1.56,1.25-3.7,1.97-6.58,2.42-.14-.37-.58-1.06-.89-1.42,2.53-.29,4.44-.8,5.85-1.7-1.39-.57-2.82-1.07-4.1-1.48.41-.58.89-1.29,1.33-2.05h-3.15v-1.35h3.92c.46-.86.86-1.75,1.15-2.54l1.62.31c-.28.72-.63,1.48-1.01,2.23h3.26c.09-.44.17-.95.23-1.45l1.73.14c-.08.46-.15.9-.25,1.32h2.62v1.35h-2.98Zm-8.49-2.51h-1.44v-3.21h5.56c-.2-.46-.44-1.01-.64-1.44l1.56-.38c.29.57.66,1.29.89,1.82h5.19v3.21h-1.51v-1.88h-9.6v1.88Zm3.15,2.51c-.29.5-.57.98-.84,1.41.99.34,2.04.7,3.05,1.1.64-.67,1.1-1.5,1.44-2.51h-3.64Z"/>
        <path class="cls-4" d="m217.89,400.89h2.46v1.32h-2.46v.35c.6.6,2.11,2.34,2.46,2.8l-.86,1.16c-.31-.55-1.01-1.53-1.61-2.34v6.23h-1.42v-6.15c-.69,1.62-1.56,3.18-2.46,4.15-.15-.4-.49-.95-.75-1.32,1.12-1.12,2.22-3.08,2.86-4.88h-2.49v-1.32h2.85v-2.28c-.8.14-1.61.23-2.36.32-.06-.31-.25-.78-.4-1.1,2-.28,4.32-.75,5.68-1.29l.95,1.1c-.72.28-1.56.51-2.45.67v2.57Zm8.77-3.08v11.81h-1.45v-1.13h-2.98v1.24h-1.38v-11.92h5.82Zm-1.45,9.32v-7.96h-2.98v7.96h2.98Z"/>
        <path class="cls-4" d="m252.33,398.18v1.35h-11.08v2.56c0,2.4-.23,6.03-1.62,8.37-.26-.25-.92-.69-1.26-.83,1.3-2.19,1.41-5.34,1.41-7.56v-3.89h5.85c-.18-.49-.43-1.03-.69-1.45l1.41-.32c.37.54.69,1.22.89,1.78h5.1Zm-5.23,3.47h4.81v1.3h-4.81v1.76h4.09v5.51h-1.45v-.57h-5.95v.6h-1.39v-5.54h3.24v-4.7h1.47v1.64Zm2.63,4.38h-5.95v2.36h5.95v-2.36Z"/>
      </g>
    </g>
    <g>
      <path class="cls-4" d="m165.3,419.01l1.93,3.13h-.93l-1.5-2.45-1.43,2.45h-.91l1.92-3.13-1.93-3.14h.92l1.51,2.46,1.44-2.46h.92l-1.94,3.14Z"/>
      <path class="cls-4" d="m171.3,415.87v6.27h-.82v-6.27h.82Z"/>
      <path class="cls-4" d="m179.79,422.14h-.82l-3.29-5v5h-.82v-6.28h.82l3.29,4.99v-4.99h.82v6.28Z"/>
      <path class="cls-4" d="m187.73,415.87l-2.04,3.91v2.37h-.82v-2.37l-2.05-3.91h.91l1.55,3.18,1.55-3.18h.91Z"/>
      <path class="cls-4" d="m191.58,415.87v6.27h-.82v-6.27h.82Z"/>
      <path class="cls-4" d="m203.4,420.74h-2.74l-.5,1.39h-.86l2.27-6.24h.94l2.26,6.24h-.86l-.5-1.39Zm-.23-.67l-1.13-3.17-1.13,3.17h2.27Z"/>
      <path class="cls-4" d="m212.85,422.14h-.82l-3.29-5v5h-.82v-6.28h.82l3.29,4.99v-4.99h.82v6.28Z"/>
      <path class="cls-4" d="m221.24,415.87v6.27h-.82v-2.84h-3.2v2.84h-.82v-6.27h.82v2.75h3.2v-2.75h.82Z"/>
      <path class="cls-4" d="m225.61,416.53v2.1h2.29v.67h-2.29v2.16h2.56v.67h-3.38v-6.28h3.38v.67h-2.56Z"/>
    </g>
  </g>
  <g id="uuid-696e3865-abb3-4e9b-8316-760032d0169b">
    <rect class="cls-1" x=".38" y="130.35" width="122.39" height="40.54" rx="20.27" ry="20.27"/>
    <g id="_nanjing_button_o_-4" data-name="&amp;lt;nanjing_button_o&amp;gt;">
      <g>
        <path class="cls-4" d="m36.48,146.35c1.35,1.33,3.38,2.54,5.26,3.17-.35.29-.8.86-1.03,1.22-1.88-.77-3.92-2.16-5.36-3.73v3.92h-1.48v-3.86c-1.42,1.55-3.4,2.89-5.26,3.66-.23-.37-.66-.9-.98-1.19,1.84-.66,3.83-1.85,5.14-3.18h-3.44v-5.66h4.55v-1.12h-5.85v-1.32h5.85v-1.36h1.48v1.36h5.98v1.32h-5.98v1.12h4.77v5.66h-3.66Zm-5.75-3.35h3.15v-1.22h-3.15v1.22Zm0,2.27h3.15v-1.24h-3.15v1.24Zm4.64-3.49v1.22h3.34v-1.22h-3.34Zm3.34,2.25h-3.34v1.24h3.34v-1.24Z"/>
        <path class="cls-4" d="m60.9,143.24h-4.18v7.68h-1.41v-13.38h5.59v5.69Zm-4.18-4.5v1.09h2.85v-1.09h-2.85Zm2.85,3.34v-1.19h-2.85v1.19h2.85Zm8.36,7.02c0,.89-.2,1.32-.78,1.56-.6.23-1.53.26-2.95.26-.05-.4-.29-1.07-.51-1.47,1.01.05,2.08.03,2.39.03.31-.02.4-.11.4-.38v-5.85h-4.32v-5.71h5.77v11.56Zm-4.41-10.36v1.09h2.95v-1.09h-2.95Zm2.95,3.37v-1.22h-2.95v1.22h2.95Z"/>
        <path class="cls-4" d="m95.28,138.68v1.35h-11.08v2.56c0,2.4-.23,6.03-1.62,8.37-.26-.25-.92-.69-1.25-.83,1.3-2.19,1.41-5.34,1.41-7.56v-3.89h5.85c-.18-.49-.43-1.03-.69-1.45l1.41-.32c.37.54.69,1.22.89,1.78h5.1Zm-5.23,3.47h4.81v1.3h-4.81v1.76h4.09v5.51h-1.45v-.57h-5.95v.6h-1.39v-5.54h3.24v-4.7h1.47v1.64Zm2.63,4.38h-5.95v2.36h5.95v-2.36Z"/>
      </g>
    </g>
    <g>
      <path class="cls-4" d="m25.81,163.19h3.06v.71h-4.03v-.65l3.04-4.91h-3.01v-.71h3.98v.65l-3.04,4.91Z"/>
      <path class="cls-4" d="m36.98,157.63v6.27h-.82v-2.84h-3.19v2.84h-.82v-6.27h.82v2.75h3.19v-2.75h.82Z"/>
      <path class="cls-4" d="m41.79,163.55c-.48-.27-.86-.65-1.14-1.14-.28-.49-.42-1.04-.42-1.65s.14-1.16.42-1.65c.28-.49.66-.87,1.14-1.14s1.01-.41,1.59-.41,1.12.14,1.6.41c.48.27.86.65,1.13,1.14.28.49.41,1.04.41,1.66s-.14,1.17-.41,1.66c-.28.49-.65.87-1.13,1.14-.48.27-1.01.41-1.6.41s-1.11-.14-1.59-.41Zm2.78-.61c.35-.2.63-.5.83-.87s.3-.82.3-1.31-.1-.94-.3-1.32-.48-.66-.82-.87c-.35-.2-.74-.31-1.19-.31s-.84.1-1.19.31c-.35.2-.62.49-.82.87s-.3.81-.3,1.32.1.94.3,1.31.48.67.83.87c.35.2.75.31,1.18.31s.83-.1,1.18-.31Z"/>
      <path class="cls-4" d="m54.7,163.9h-.82l-3.29-5v5h-.82v-6.28h.82l3.29,4.99v-4.99h.82v6.28Z"/>
      <path class="cls-4" d="m63.01,159.44c-.17-.37-.43-.65-.76-.85-.33-.2-.71-.3-1.15-.3s-.83.1-1.18.3c-.35.2-.63.49-.83.86s-.3.81-.3,1.3.1.92.3,1.3c.2.37.48.66.83.86s.75.3,1.18.3c.61,0,1.12-.18,1.51-.55.4-.37.63-.86.69-1.48h-2.5v-.67h3.38v.63c-.05.52-.21.99-.49,1.42s-.64.77-1.09,1.02-.95.37-1.5.37c-.58,0-1.11-.14-1.59-.41s-.86-.65-1.14-1.14c-.28-.49-.42-1.03-.42-1.65s.14-1.16.42-1.65c.28-.49.66-.87,1.14-1.14s1.01-.41,1.59-.41c.67,0,1.26.17,1.77.5.51.33.89.8,1.12,1.4h-.98Z"/>
      <path class="cls-4" d="m74.55,160.77l1.93,3.13h-.93l-1.5-2.45-1.43,2.45h-.91l1.92-3.13-1.93-3.14h.92l1.51,2.46,1.44-2.46h.92l-1.94,3.14Z"/>
      <path class="cls-4" d="m80.55,157.63v6.27h-.82v-6.27h.82Z"/>
      <path class="cls-4" d="m87.81,162.5h-2.74l-.5,1.4h-.86l2.27-6.24h.94l2.26,6.24h-.86l-.5-1.4Zm-.23-.67l-1.13-3.17-1.13,3.17h2.27Z"/>
      <path class="cls-4" d="m93.58,163.55c-.48-.27-.86-.65-1.14-1.14-.28-.49-.42-1.04-.42-1.65s.14-1.16.42-1.65c.28-.49.66-.87,1.14-1.14s1.01-.41,1.59-.41,1.12.14,1.6.41c.48.27.86.65,1.13,1.14.28.49.41,1.04.41,1.66s-.14,1.17-.41,1.66c-.28.49-.65.87-1.13,1.14-.48.27-1.01.41-1.6.41s-1.11-.14-1.59-.41Zm2.78-.61c.35-.2.63-.5.83-.87s.3-.82.3-1.31-.1-.94-.3-1.32-.48-.66-.82-.87c-.35-.2-.74-.31-1.19-.31s-.84.1-1.19.31c-.35.2-.62.49-.82.87s-.3.81-.3,1.32.1.94.3,1.31.48.67.83.87c.35.2.75.31,1.18.31s.83-.1,1.18-.31Z"/>
    </g>
  </g>
  <g id="nanjing" class="homemap-branch">
    <rect class="cls-2" x="305.13" y="73.64" width="122.39" height="40.54" rx="20.27" ry="20.27"/>
    <g id="_nanjing_button_o_-5" data-name="&amp;lt;nanjing_button_o&amp;gt;">
      <g>
        <path class="cls-3" d="m339.88,82.61c-.08.57-.17,1.13-.25,1.62h5.68v8.43c0,.67-.17.98-.66,1.15-.49.18-1.36.18-2.59.18-.08-.31-.26-.73-.41-1.03.96.05,1.9.05,2.16.03.28-.02.35-.09.35-.34v-7.38h-9.47v8.69h-1.12v-9.75h4.97c.08-.47.14-1.04.2-1.62h-6v-1.07h6.11c.05-.55.09-1.09.11-1.55l1.22.14c-.05.44-.11.93-.17,1.41h6.11v1.07h-6.24Zm.05,8.39v2.69h-1.09v-2.69h-3.29v-.95h3.29v-1.55h-2.97v-.93h1.61c-.14-.5-.49-1.27-.84-1.81l.9-.23c.37.54.75,1.29.89,1.78l-.83.26h2.74c.32-.64.67-1.5.87-2.1l1.03.23c-.29.64-.6,1.3-.89,1.87h1.73v.93h-3.15v1.55h3.41v.95h-3.41Z"/>
        <path class="cls-3" d="m363.41,90.08c-.77,1.19-1.96,2.54-3.03,3.43-.21-.2-.61-.54-.84-.7,1.03-.83,2.2-2.1,2.79-3.11l1.09.38Zm9.57-8.16v1.12h-13.25v-1.12h6.26c-.26-.52-.6-1.15-.93-1.67l1.07-.34c.43.6.92,1.42,1.19,2h5.66Zm-6,6.8v3.96c0,.67-.15.98-.67,1.16-.52.18-1.39.18-2.74.17-.06-.32-.23-.77-.38-1.09,1.04.03,1.99.03,2.26.02.29,0,.35-.08.35-.29v-3.93h-4.19v-4.45h9.61v4.45h-4.24Zm-4.25-1.01h7.32v-2.45h-7.32v2.45Zm7.35,1.97c.98.98,2.25,2.36,2.86,3.21l-1,.67c-.57-.87-1.78-2.31-2.8-3.32l.93-.57Z"/>
        <path class="cls-3" d="m399.98,81.88v1.1h-11.26v2.86c0,2.36-.23,5.85-1.59,8.16-.21-.18-.72-.52-.99-.64,1.3-2.2,1.44-5.31,1.44-7.51v-3.96h5.97c-.21-.5-.49-1.09-.8-1.55l1.09-.28c.4.55.77,1.27.98,1.82h5.17Zm-5.42,3.41h4.94v1.04h-4.94v2.05h4.21v5.39h-1.13v-.58h-6.46v.61h-1.1v-5.42h3.34v-4.9h1.15v1.81Zm3.08,4.15h-6.46v2.74h6.46v-2.74Z"/>
      </g>
    </g>
    <g>
      <path class="cls-3" d="m346.45,106.71h-.63l-3.48-5.29v5.29h-.63v-6.29h.63l3.48,5.28v-5.28h.63v6.29Z"/>
      <path class="cls-3" d="m353.69,105.22h-2.86l-.55,1.49h-.67l2.29-6.21h.71l2.29,6.21h-.67l-.55-1.49Zm-.19-.52l-1.24-3.4-1.24,3.4h2.48Z"/>
      <path class="cls-3" d="m362.81,106.71h-.63l-3.48-5.29v5.29h-.63v-6.29h.63l3.48,5.28v-5.28h.63v6.29Z"/>
      <path class="cls-3" d="m369.31,100.42v4.76c0,.48-.15.87-.44,1.16s-.69.44-1.18.44-.92-.15-1.22-.46c-.3-.31-.45-.73-.45-1.26h.64c0,.34.09.62.26.84.17.22.42.32.78.32s.58-.1.75-.3c.16-.2.24-.44.24-.74v-4.76h.63Z"/>
      <path class="cls-3" d="m373.68,100.42v6.29h-.63v-6.29h.63Z"/>
      <path class="cls-3" d="m382.02,106.71h-.63l-3.48-5.29v5.29h-.63v-6.29h.63l3.48,5.28v-5.28h.63v6.29Z"/>
      <path class="cls-3" d="m390.56,102.26c-.18-.41-.45-.74-.82-.98-.37-.24-.8-.36-1.3-.36-.47,0-.89.11-1.26.32-.37.22-.67.52-.88.92s-.32.86-.32,1.39.11.99.32,1.4.51.71.88.93c.37.22.79.32,1.26.32.44,0,.83-.09,1.18-.28s.63-.46.85-.81.33-.76.37-1.23h-2.65v-.51h3.31v.46c-.03.55-.18,1.05-.45,1.5-.27.45-.63.8-1.08,1.06-.45.26-.96.39-1.53.39s-1.11-.14-1.58-.41c-.47-.27-.85-.65-1.12-1.14-.27-.49-.41-1.04-.41-1.66s.14-1.17.41-1.66c.27-.49.65-.87,1.12-1.14.47-.27,1-.41,1.58-.41.67,0,1.26.17,1.76.5.5.34.87.8,1.1,1.4h-.74Z"/>
    </g>
  </g>
  <g id="zhongxiao" class="homemap-branch">
    <rect class="cls-2" x="242.36" y="199.16" width="122.39" height="40.54" rx="20.27" ry="20.27"/>
    <g id="_nanjing_button_o_-6" data-name="&amp;lt;nanjing_button_o&amp;gt;">
      <g>
        <path class="cls-3" d="m269.57,219.05c.77-.96,1.44-2.49,1.82-3.67l.98.38c-.41,1.18-1.03,2.77-1.76,3.79l-1.04-.5Zm6.38-5.86h-5v-4.82h5v-1.82h1.12v1.82h5.1v4.82h-5.1v1.55h-.81c.83.6,1.79,1.41,2.3,1.94l-.9.72c-.52-.61-1.61-1.56-2.5-2.2l.8-.57v-1.44Zm0-1.03v-2.77h-3.9v2.77h3.9Zm2.54,6.96c.77,0,.89-.26.96-1.97.28.2.75.37,1.09.46-.15,2.07-.52,2.6-1.96,2.6h-3.14c-1.67,0-2.1-.35-2.1-1.61v-3.29h1.16v3.28c0,.44.15.54,1.03.54h2.95Zm-1.42-9.73v2.77h3.98v-2.77h-3.98Zm4.03,5.91c.8,1.06,1.84,2.54,2.3,3.46l-1.03.57c-.44-.93-1.42-2.43-2.27-3.54l1-.49Z"/>
        <path class="cls-3" d="m304.82,211.81c-.67.47-1.38.93-2.08,1.36h4.5l.24-.06.74.61c-1.04.78-2.45,1.56-3.78,2.1v.32h5.68v1.01h-5.68v2.07c0,.63-.15.9-.66,1.07-.5.17-1.32.18-2.59.18-.06-.32-.26-.74-.43-1.03,1.01.03,1.96.03,2.23.01.25-.01.32-.06.32-.28v-2.04h-5.53v-1.01h5.53v-.77c.89-.31,1.87-.78,2.65-1.27h-4.88c-1.3.69-2.63,1.29-3.98,1.79-.14-.23-.52-.7-.75-.9,2.31-.8,4.58-1.88,6.63-3.18h-6.35v-1.01h5.25v-1.59h-3.95v-.99h3.95v-1.68h1.12v1.68h3.43v.99c.72-.66,1.41-1.38,1.99-2.1l.95.55c-.93,1.13-2.04,2.19-3.21,3.14h4.12v1.01h-5.45Zm-.37-1.01c.7-.5,1.36-1.04,1.97-1.59h-3.43v1.59h1.45Z"/>
        <path class="cls-3" d="m337.09,208.4v1.1h-11.26v2.86c0,2.36-.23,5.85-1.59,8.16-.21-.18-.72-.52-.99-.64,1.3-2.2,1.44-5.31,1.44-7.51v-3.96h5.97c-.21-.51-.49-1.09-.8-1.55l1.09-.28c.4.55.77,1.27.98,1.82h5.17Zm-5.42,3.41h4.94v1.04h-4.94v2.05h4.21v5.39h-1.13v-.58h-6.46v.61h-1.1v-5.42h3.34v-4.9h1.15v1.81Zm3.08,4.15h-6.46v2.74h6.46v-2.74Z"/>
      </g>
    </g>
    <g>
      <path class="cls-3" d="m268.46,231.96h3.21v.56h-3.95v-.5l3.17-5.23h-3.11v-.56h3.85v.5l-3.17,5.23Z"/>
      <path class="cls-3" d="m279.61,226.23v6.29h-.63v-2.94h-3.41v2.94h-.63v-6.29h.63v2.83h3.41v-2.83h.63Z"/>
      <path class="cls-3" d="m284.45,232.17c-.47-.27-.85-.65-1.12-1.14-.27-.49-.41-1.04-.41-1.66s.14-1.17.41-1.66c.27-.49.65-.87,1.12-1.14.47-.27,1-.41,1.58-.41s1.12.14,1.59.41c.47.27.85.65,1.12,1.14.27.49.41,1.04.41,1.66s-.13,1.17-.41,1.66c-.27.49-.64.87-1.12,1.14-.47.27-1,.41-1.59.41s-1.11-.14-1.58-.41Zm2.84-.46c.37-.22.67-.53.88-.93.22-.41.32-.88.32-1.41s-.11-1-.32-1.4c-.22-.4-.51-.71-.88-.93-.37-.22-.79-.32-1.26-.32s-.89.11-1.26.32c-.37.22-.67.53-.88.93-.22.4-.32.87-.32,1.4s.11,1,.32,1.41c.22.4.51.71.88.93.37.22.79.32,1.26.32s.89-.11,1.26-.32Z"/>
      <path class="cls-3" d="m297.21,232.52h-.63l-3.48-5.29v5.29h-.63v-6.29h.63l3.48,5.28v-5.28h.63v6.29Z"/>
      <path class="cls-3" d="m305.75,228.06c-.18-.41-.45-.74-.82-.98-.37-.24-.8-.36-1.3-.36-.47,0-.89.11-1.26.32s-.67.52-.88.92c-.22.4-.32.86-.32,1.39s.11.99.32,1.4.51.71.88.93.79.32,1.26.32c.44,0,.83-.09,1.18-.28.35-.19.63-.46.85-.81.21-.35.33-.76.37-1.23h-2.65v-.51h3.31v.46c-.03.55-.18,1.05-.45,1.5-.27.45-.63.8-1.08,1.06s-.96.39-1.53.39-1.11-.14-1.58-.41c-.47-.27-.85-.65-1.12-1.14-.27-.49-.41-1.04-.41-1.66s.14-1.17.41-1.66c.27-.49.65-.87,1.12-1.14.47-.27,1-.41,1.58-.41.67,0,1.26.17,1.76.5.5.34.87.8,1.1,1.4h-.74Z"/>
      <path class="cls-3" d="m316.89,229.38l1.91,3.14h-.7l-1.6-2.63-1.52,2.63h-.7l1.9-3.17-1.9-3.12h.7l1.59,2.62,1.54-2.62h.7l-1.92,3.15Z"/>
      <path class="cls-3" d="m322.67,226.23v6.29h-.63v-6.29h.63Z"/>
      <path class="cls-3" d="m329.91,231.02h-2.86l-.55,1.49h-.67l2.29-6.21h.71l2.29,6.21h-.67l-.55-1.49Zm-.19-.52l-1.24-3.4-1.24,3.4h2.48Z"/>
      <path class="cls-3" d="m335.54,232.17c-.47-.27-.85-.65-1.12-1.14-.27-.49-.41-1.04-.41-1.66s.14-1.17.41-1.66c.27-.49.65-.87,1.12-1.14.47-.27,1-.41,1.58-.41s1.12.14,1.59.41c.47.27.85.65,1.12,1.14.27.49.41,1.04.41,1.66s-.13,1.17-.41,1.66c-.27.49-.64.87-1.12,1.14-.47.27-1,.41-1.59.41s-1.11-.14-1.58-.41Zm2.84-.46c.37-.22.67-.53.88-.93.22-.41.32-.88.32-1.41s-.11-1-.32-1.4c-.22-.4-.51-.71-.88-.93-.37-.22-.79-.32-1.26-.32s-.89.11-1.26.32c-.37.22-.67.53-.88.93-.22.4-.32.87-.32,1.4s.11,1,.32,1.41c.22.4.51.71.88.93.37.22.79.32,1.26.32s.89-.11,1.26-.32Z"/>
    </g>
  </g>
  <g id="xinyianhe" class="homemap-branch">
    <rect class="cls-2" x="114.49" y="388.95" width="161.78" height="40.54" rx="20.27" ry="20.27"/>
    <g id="_nanjing_button_o_-7" data-name="&amp;lt;nanjing_button_o&amp;gt;">
      <g>
        <path class="cls-3" d="m142.55,396.79c-.35,1.03-.8,2.05-1.29,3.01v10.65h-1.06v-8.82c-.46.73-.96,1.39-1.45,1.97-.11-.24-.43-.8-.63-1.06,1.38-1.48,2.63-3.76,3.41-6.08l1.01.31Zm9.49,2.16v.96h-9.69v-.96h9.69Zm-8.8,6.55h7.74v4.87h-1.01v-.55h-5.74v.6h-1v-4.91Zm7.59-3.43h-7.38v-.93h7.38v.93Zm-7.38,1.21h7.38v.93h-7.38v-.93Zm.78,3.17v2.42h5.74v-2.42h-5.74Zm2.69-7.59c-.2-.54-.67-1.41-1.06-2.04l.96-.4c.44.64.9,1.45,1.12,1.99l-1.03.44Z"/>
        <path class="cls-3" d="m175.92,406.49c-.54.7-1.24,1.33-2.05,1.87.6.64,1.27,1.01,1.96.99.41-.01.54-.37.61-1.45.23.18.58.37.87.44-.17,1.62-.57,2.04-1.53,2.05-1.09,0-2.05-.54-2.85-1.47-1.07.58-2.25,1.06-3.41,1.42-.12-.21-.41-.69-.6-.9,1.19-.31,2.4-.75,3.46-1.3-.38-.63-.7-1.36-.95-2.19h-3.57v1.03l2.74-.21v.81c-.92.09-1.84.17-2.74.26v1.44c0,.58-.15.84-.58.96-.44.15-1.16.15-2.31.15-.06-.26-.23-.64-.35-.9.83.03,1.62.03,1.85.02.23,0,.31-.05.31-.26v-1.32l-3.2.29-.11-.92c.9-.06,2.05-.14,3.31-.23v-1.12h-3.24v-.89h3.24v-1.04c-.95.09-1.91.17-2.8.21-.03-.23-.15-.55-.26-.75,2.08-.12,4.58-.4,5.94-.75l.69.72c-.7.17-1.56.32-2.48.43v1.18h3.34c-.15-.7-.24-1.45-.29-2.23h1.1c.03.8.14,1.55.29,2.23h4.81v.89h-4.56c.21.63.47,1.18.77,1.65.66-.43,1.21-.92,1.64-1.45l.96.34Zm1.15-3.89h-13.51v-.9h6.15v-.98h-4.68v-.86h4.68v-.93h-5.49v-.89h3.14c-.21-.41-.54-.89-.84-1.27l.98-.34c.44.46.89,1.1,1.07,1.56l-.11.05h3.66c.29-.47.67-1.18.87-1.65l1.21.32c-.31.46-.64.95-.92,1.33h3.15v.89h-5.57v.93h4.76v.86h-4.76v.98h6.21v.9Zm-1.48,2.31c-.5-.46-1.56-1.06-2.43-1.42l.61-.67c.87.32,1.94.89,2.48,1.35l-.66.75Z"/>
        <path class="cls-3" d="m198.89,403.64c-.43,1.36-1.01,2.48-1.79,3.37,1.84.78,3.54,1.64,4.7,2.39l-.86,1c-1.13-.77-2.85-1.67-4.74-2.49-1.55,1.3-3.69,2.05-6.55,2.54-.11-.31-.47-.84-.72-1.13,2.63-.34,4.61-.92,6.03-1.94-1.42-.6-2.91-1.13-4.24-1.56.44-.6.93-1.35,1.42-2.16h-3.32v-1.09h3.92c.51-.92.95-1.84,1.27-2.66l1.27.23c-.31.78-.7,1.61-1.15,2.43h3.72c.11-.47.2-.98.28-1.51l1.33.12c-.08.49-.17.96-.28,1.39h2.8v1.09h-3.09Zm-8.56-2.39h-1.13v-3.06h5.69c-.21-.49-.49-1.09-.75-1.56l1.21-.31c.32.58.72,1.33.95,1.87h5.26v3.06h-1.18v-2h-10.06v2Zm3.2,2.39c-.35.6-.69,1.15-1.03,1.64,1.1.35,2.27.8,3.41,1.24.72-.77,1.25-1.71,1.65-2.88h-4.04Z"/>
        <path class="cls-3" d="m217.73,400.92h2.66v1.06h-2.66v.4c.58.61,2.17,2.48,2.56,2.95l-.69.93c-.35-.58-1.21-1.73-1.87-2.59v6.69h-1.12v-6.73c-.75,1.78-1.76,3.5-2.74,4.56-.12-.31-.41-.76-.63-1.04,1.16-1.16,2.39-3.26,3.08-5.17h-2.69v-1.06h2.98v-2.54c-.86.14-1.71.26-2.53.37-.06-.28-.18-.64-.32-.9,2.02-.28,4.41-.73,5.75-1.27l.77.89c-.7.26-1.61.5-2.56.7v2.75Zm8.85-3.08v11.77h-1.13v-1.15h-3.41v1.25h-1.12v-11.88h5.66Zm-1.13,9.52v-8.43h-3.41v8.43h3.41Z"/>
        <path class="cls-3" d="m252.27,398.29v1.1h-11.26v2.86c0,2.36-.23,5.85-1.59,8.16-.21-.18-.72-.52-.99-.64,1.3-2.2,1.44-5.31,1.44-7.51v-3.96h5.97c-.21-.51-.49-1.09-.8-1.55l1.09-.28c.4.55.77,1.27.98,1.82h5.17Zm-5.42,3.41h4.94v1.04h-4.94v2.05h4.21v5.39h-1.13v-.58h-6.46v.61h-1.1v-5.42h3.34v-4.9h1.15v1.81Zm3.08,4.15h-6.46v2.74h6.46v-2.74Z"/>
      </g>
    </g>
    <g>
      <path class="cls-3" d="m165.76,419.01l1.91,3.14h-.7l-1.6-2.63-1.52,2.63h-.7l1.9-3.17-1.9-3.12h.7l1.59,2.62,1.54-2.62h.7l-1.92,3.15Z"/>
      <path class="cls-3" d="m171.54,415.86v6.29h-.63v-6.29h.63Z"/>
      <path class="cls-3" d="m179.88,422.15h-.63l-3.48-5.29v5.29h-.63v-6.29h.63l3.48,5.28v-5.28h.63v6.29Z"/>
      <path class="cls-3" d="m187.63,415.86l-2.02,3.84v2.45h-.63v-2.45l-2.03-3.84h.71l1.64,3.27,1.63-3.27h.7Z"/>
      <path class="cls-3" d="m191.33,415.86v6.29h-.63v-6.29h.63Z"/>
      <path class="cls-3" d="m203.2,420.65h-2.86l-.55,1.49h-.67l2.29-6.21h.71l2.29,6.21h-.67l-.55-1.49Zm-.19-.52l-1.24-3.4-1.24,3.4h2.48Z"/>
      <path class="cls-3" d="m212.32,422.15h-.63l-3.48-5.29v5.29h-.63v-6.29h.63l3.48,5.28v-5.28h.63v6.29Z"/>
      <path class="cls-3" d="m220.58,415.86v6.29h-.63v-2.94h-3.41v2.94h-.63v-6.29h.63v2.83h3.41v-2.83h.63Z"/>
      <path class="cls-3" d="m224.81,416.37v2.35h2.39v.52h-2.39v2.38h2.66v.52h-3.29v-6.3h3.29v.52h-2.66Z"/>
    </g>
  </g>
  <g id="dongmen" class="homemap-branch">
    <rect class="cls-2" x=".38" y="130.35" width="122.39" height="40.54" rx="20.27" ry="20.27"/>
    <g id="_nanjing_button_o_-8" data-name="&amp;lt;nanjing_button_o&amp;gt;">
      <g>
        <path class="cls-3" d="m36.16,146.3c1.39,1.44,3.57,2.75,5.52,3.41-.28.23-.63.66-.8.98-1.99-.8-4.22-2.31-5.69-3.96v4.16h-1.15v-4.12c-1.45,1.64-3.63,3.09-5.57,3.89-.18-.29-.52-.72-.8-.95,1.93-.67,4.06-1.99,5.42-3.41h-3.7v-5.57h4.65v-1.29h-5.98v-1.07h5.98v-1.44h1.15v1.44h6.14v1.07h-6.14v1.29h4.91v5.57h-3.95Zm-5.66-3.21h3.55v-1.45h-3.55v1.45Zm0,2.33h3.55v-1.48h-3.55v1.48Zm4.7-3.78v1.45h3.76v-1.45h-3.76Zm3.76,2.3h-3.76v1.48h3.76v-1.48Z"/>
        <path class="cls-3" d="m60.81,143.23h-4.32v7.67h-1.12v-13.25h5.43v5.59Zm-4.32-4.62v1.33h3.24v-1.33h-3.24Zm3.24,3.67v-1.47h-3.24v1.47h3.24Zm8.13,7.06c0,.78-.2,1.15-.7,1.33-.54.18-1.44.21-2.82.21-.06-.32-.24-.86-.41-1.18,1.04.06,2.08.05,2.4.03.28-.02.38-.09.38-.4v-6.09h-4.48v-5.6h5.63v11.69Zm-4.55-10.73v1.33h3.4v-1.33h-3.4Zm3.4,3.69v-1.48h-3.4v1.48h3.4Z"/>
        <path class="cls-3" d="m95.22,138.79v1.1h-11.26v2.86c0,2.36-.23,5.85-1.59,8.16-.21-.18-.72-.52-.99-.64,1.3-2.2,1.44-5.31,1.44-7.51v-3.96h5.97c-.21-.5-.49-1.09-.8-1.55l1.09-.28c.4.55.77,1.27.98,1.82h5.17Zm-5.42,3.41h4.94v1.04h-4.94v2.05h4.21v5.39h-1.13v-.58h-6.46v.61h-1.1v-5.42h3.34v-4.9h1.15v1.81Zm3.08,4.15h-6.46v2.74h6.46v-2.74Z"/>
      </g>
    </g>
    <g>
      <path class="cls-3" d="m37,157.99c.5.25.88.62,1.14,1.09.26.47.4,1.04.4,1.69s-.13,1.21-.4,1.68c-.26.47-.65.83-1.14,1.08s-1.1.37-1.79.37h-1.86v-6.29h1.86c.7,0,1.29.13,1.79.38Zm.21,4.7c.46-.46.69-1.1.69-1.92s-.23-1.47-.69-1.94c-.46-.47-1.13-.7-2-.7h-1.23v5.25h1.23c.88,0,1.54-.23,2-.69Z"/>
      <path class="cls-3" d="m43.1,163.56c-.47-.27-.85-.65-1.12-1.14-.27-.49-.41-1.04-.41-1.66s.14-1.17.41-1.66c.27-.49.65-.87,1.12-1.14.47-.27,1-.41,1.58-.41s1.12.14,1.59.41c.47.27.85.65,1.12,1.14.27.49.41,1.04.41,1.66s-.14,1.17-.41,1.66c-.27.49-.64.87-1.12,1.14-.47.27-1.01.41-1.59.41s-1.11-.14-1.58-.41Zm2.84-.46c.37-.22.67-.53.88-.93.22-.4.32-.87.32-1.41s-.11-1-.32-1.4c-.22-.4-.51-.71-.88-.93-.37-.22-.79-.32-1.26-.32s-.89.11-1.26.32c-.37.22-.67.52-.88.93-.22.4-.32.87-.32,1.4s.11,1,.32,1.41c.22.41.51.72.88.93.37.22.79.32,1.26.32s.89-.11,1.26-.32Z"/>
      <path class="cls-3" d="m55.85,163.91h-.63l-3.48-5.29v5.29h-.63v-6.29h.63l3.48,5.28v-5.28h.63v6.29Z"/>
      <path class="cls-3" d="m64.39,159.45c-.18-.41-.45-.74-.82-.98-.37-.24-.8-.36-1.3-.36-.47,0-.89.11-1.26.32-.37.22-.67.52-.88.92-.22.4-.32.86-.32,1.39s.11.99.32,1.4c.22.4.51.71.88.93.37.22.79.32,1.26.32.44,0,.83-.09,1.18-.28s.63-.46.85-.81c.21-.35.33-.76.36-1.23h-2.65v-.51h3.31v.46c-.03.55-.18,1.05-.45,1.5-.27.45-.63.8-1.08,1.06-.45.26-.96.39-1.53.39s-1.11-.14-1.58-.41c-.47-.27-.85-.65-1.12-1.14-.27-.49-.41-1.04-.41-1.66s.14-1.17.41-1.66c.27-.49.65-.87,1.12-1.14.47-.27,1-.41,1.58-.41.67,0,1.26.17,1.76.5s.87.8,1.1,1.4h-.74Z"/>
      <path class="cls-3" d="m74.79,157.7v6.21h-.63v-4.96l-2.21,4.96h-.46l-2.21-4.94v4.94h-.63v-6.21h.67l2.4,5.38,2.4-5.38h.68Z"/>
      <path class="cls-3" d="m79.01,158.13v2.35h2.38v.52h-2.38v2.39h2.65v.52h-3.28v-6.3h3.28v.52h-2.65Z"/>
      <path class="cls-3" d="m89.81,163.91h-.63l-3.48-5.29v5.29h-.63v-6.29h.63l3.48,5.28v-5.28h.63v6.29Z"/>
    </g>
  </g>
</svg>