<?xml version="1.0" encoding="UTF-8"?>
<svg id="uuid-fffdbae2-78b3-4dd9-b540-ddd531ff03ad" data-name="圖層 1" xmlns="http://www.w3.org/2000/svg" viewBox="0 0 453.69 435.87">
  <defs>
    <style>
      .uuid-89d8381b-1c23-446a-a116-a37dfdfa1e01 {
        letter-spacing: .1em;
      }

      .uuid-3106475a-ed08-4c52-806f-83a266f1f639 {
        font-family: Poppins-Regular, Poppins;
        font-size: 16.2px;
      }

      .uuid-3106475a-ed08-4c52-806f-83a266f1f639, .uuid-0fab115f-672d-414e-b0f6-ff9f2fd6cc37, .uuid-89b5ad62-fc55-4cc9-a015-4291730c9939, .uuid-e9e93355-4901-4866-aa5d-0576498dc506, .uuid-507f04cb-4e37-4399-9e7b-570d84370616, .uuid-d88c69b9-f7af-445f-b8ae-22cbf8b13f0b, .uuid-81dc279f-8594-4340-9f63-aeb2d62939f4 {
        fill: #282828;
      }

      .uuid-b2aab2dd-7416-441d-bfe9-ceacc0a31311, .uuid-d88c69b9-f7af-445f-b8ae-22cbf8b13f0b {
        letter-spacing: .1em;
      }

      .uuid-31e56b9c-86e1-4303-a4d6-bc727750d511 {
        letter-spacing: .36em;
      }

      .uuid-0fab115f-672d-414e-b0f6-ff9f2fd6cc37, .uuid-89b5ad62-fc55-4cc9-a015-4291730c9939, .uuid-2faf94e0-4e65-45ac-a2a5-ae1035bf6fb2, .uuid-507f04cb-4e37-4399-9e7b-570d84370616, .uuid-46f901fd-8cb7-4059-9197-aa2f2fe819f4, .uuid-d88c69b9-f7af-445f-b8ae-22cbf8b13f0b {
        font-weight: 500;
      }

      .uuid-0fab115f-672d-414e-b0f6-ff9f2fd6cc37, .uuid-d88c69b9-f7af-445f-b8ae-22cbf8b13f0b {
        font-family: Poppins-Medium, Poppins, 微軟正黑體, 新細明體, Arial, sans-serif;
        font-size: 21.6px;
      }

      .uuid-89b5ad62-fc55-4cc9-a015-4291730c9939, .uuid-2faf94e0-4e65-45ac-a2a5-ae1035bf6fb2, .uuid-507f04cb-4e37-4399-9e7b-570d84370616, .uuid-46f901fd-8cb7-4059-9197-aa2f2fe819f4 {
        font-family: Poppins-Medium, Poppins, 微軟正黑體, 新細明體, Arial, sans-serif;
        font-size: 18px;
      }

      .uuid-89b5ad62-fc55-4cc9-a015-4291730c9939, .uuid-46f901fd-8cb7-4059-9197-aa2f2fe819f4, .uuid-4956a474-09e1-4661-8024-9d7b122a5bdb {
        letter-spacing: .76em;
      }

      .uuid-5e1b75a3-adca-46f0-85f0-8e9ca9547983, .uuid-e9e93355-4901-4866-aa5d-0576498dc506 {
        stroke: #fff;
        stroke-width: .75px;
      }

      .uuid-5e1b75a3-adca-46f0-85f0-8e9ca9547983, .uuid-2faf94e0-4e65-45ac-a2a5-ae1035bf6fb2, .uuid-46f901fd-8cb7-4059-9197-aa2f2fe819f4 {
        fill: #fff;
      }

      .uuid-b67d9e6b-45ef-4322-971e-f1972427abff {
        letter-spacing: .5em;
      }

      .uuid-fea7ad58-cc02-453d-9433-89f63bed7e59 {
        letter-spacing: .16em;
      }

      .uuid-82181d62-feef-473b-be02-0605c5c08ee9 {
        letter-spacing: .16em;
      }

      .uuid-1284dbed-50fe-43c6-86a2-83b59cf89646 {
        letter-spacing: .46em;
      }

      .uuid-e1a7d996-2cd4-4535-8d55-2692854877f9 {
        fill: none;
        stroke: #e76751;
      }

      .uuid-81dc279f-8594-4340-9f63-aeb2d62939f4, .uuid-85b030c6-0809-468e-8de4-abe9a03c5144 {
        stroke-width: 0px;
      }

      .uuid-85b030c6-0809-468e-8de4-abe9a03c5144 {
        fill: #e4d2b1;
      }
    </style>
  </defs>
  <g id="uuid-0f939082-fd08-4cfc-a69a-1b99e53b26b7" data-name="&amp;lt;songshan_block&amp;gt;">
    <path class="uuid-85b030c6-0809-468e-8de4-abe9a03c5144" d="m303.77,110.05V14.29c0-7.89-6.33-14.29-14.14-14.29h-125.74c-7.81,0-14.14,6.4-14.14,14.29v141.94c0,7.89,6.33,14.29,14.14,14.29h171.64c7.81,0,14.14-6.4,14.14-14.29v-17.6c0-7.89-6.33-14.29-14.14-14.29h-17.62c-7.81,0-14.14-6.4-14.14-14.29"/>
    <g id="uuid-82ed06b7-dd62-411e-a457-4398323c9b51" data-name="&amp;lt;songshan_dist&amp;gt;">
      <text class="uuid-507f04cb-4e37-4399-9e7b-570d84370616" transform="translate(193.34 52.56)"><tspan class="uuid-31e56b9c-86e1-4303-a4d6-bc727750d511" x="0" y="0">松山</tspan><tspan x="48.96" y="0">區</tspan></text>
      <text class="uuid-0fab115f-672d-414e-b0f6-ff9f2fd6cc37" transform="translate(192.45 84.6)"><tspan class="uuid-89d8381b-1c23-446a-a116-a37dfdfa1e01" x="0" y="0">SON</tspan><tspan x="52.03" y="0">G</tspan><tspan class="uuid-89d8381b-1c23-446a-a116-a37dfdfa1e01" x="1.67" y="19.92">SHA</tspan><tspan class="uuid-b2aab2dd-7416-441d-bfe9-ceacc0a31311" x="51.48" y="19.92">N</tspan></text>
      <text class="uuid-3106475a-ed08-4c52-806f-83a266f1f639" transform="translate(189.98 125.87)"><tspan class="uuid-fea7ad58-cc02-453d-9433-89f63bed7e59" x="0" y="0">Distri</tspan><tspan class="uuid-82181d62-feef-473b-be02-0605c5c08ee9" x="55.37" y="0">c</tspan><tspan x="67.78" y="0">t</tspan></text>
    </g>
  </g>
  <g id="uuid-0d2497c6-91c0-45f6-b3a6-175aae82ec91" data-name="&amp;lt;daan_block&amp;gt;">
    <path class="uuid-85b030c6-0809-468e-8de4-abe9a03c5144" d="m215.67,275.31l23.91-41.3c1.27-2.19,1.94-4.68,1.94-7.22v-21.08c0-7.89-6.33-14.29-14.14-14.29H91.36c-5.02,0-9.66,2.69-12.2,7.07l-44.47,76.81c-2.23,3.85-2.55,8.52-.88,12.65l32.13,79.13c2.18,5.36,7.34,8.86,13.08,8.86h150.42c10.06,0,16.9-10.31,13.08-19.72l-27.73-68.28c-1.67-4.12-1.35-8.8.88-12.65"/>
    <g id="uuid-2ada3037-e67a-4879-ba50-6e97d6509722" data-name="&amp;lt;daan_dist&amp;gt;">
      <text class="uuid-507f04cb-4e37-4399-9e7b-570d84370616" transform="translate(101.05 268.74)"><tspan class="uuid-b67d9e6b-45ef-4322-971e-f1972427abff" x="0" y="0">大安</tspan><tspan x="54" y="0">區</tspan></text>
      <text class="uuid-d88c69b9-f7af-445f-b8ae-22cbf8b13f0b" transform="translate(102.28 298.79)"><tspan x="0" y="0">DAAN</tspan></text>
      <text class="uuid-3106475a-ed08-4c52-806f-83a266f1f639" transform="translate(100.22 319.24)"><tspan class="uuid-fea7ad58-cc02-453d-9433-89f63bed7e59" x="0" y="0">Distri</tspan><tspan class="uuid-82181d62-feef-473b-be02-0605c5c08ee9" x="55.37" y="0">c</tspan><tspan x="67.78" y="0">t</tspan></text>
    </g>
  </g>
  <g id="uuid-d11551fb-d4f4-4d58-bc3b-582ca21dda0f" data-name="&amp;lt;nanjing_line&amp;gt;">
    <path class="uuid-e1a7d996-2cd4-4535-8d55-2692854877f9" d="m221.57,150.62h156.24c4.42,0,8-3.58,8-8v-29.08"/>
    <circle class="uuid-81dc279f-8594-4340-9f63-aeb2d62939f4" cx="221.57" cy="150.62" r="3.66"/>
  </g>
  <g id="uuid-26f080f5-6198-4c62-96ef-b0b7db03da94" data-name="&amp;lt;nanjing_button&amp;gt;">
    <path class="uuid-5e1b75a3-adca-46f0-85f0-8e9ca9547983" d="m337.42,75.32c-10.55,0-19.11,8.56-19.11,19.11s8.56,19.11,19.11,19.11h96.78c10.55,0,19.11-8.56,19.11-19.11s-8.56-19.11-19.11-19.11h-96.78Z"/>
    <text class="uuid-507f04cb-4e37-4399-9e7b-570d84370616" transform="translate(344.51 101.27)"><tspan class="uuid-4956a474-09e1-4661-8024-9d7b122a5bdb" x="0" y="0">南京</tspan><tspan x="63.32" y="0">店</tspan></text>
  </g>
  <g id="uuid-842ff9c9-efc5-4f00-a3f2-00ea68962fa9" data-name="&amp;lt;dongmen_line&amp;gt;">
    <path class="uuid-e1a7d996-2cd4-4535-8d55-2692854877f9" d="m69.38,263h-10.42c-4.42,0-8-3.58-8-8v-81.61"/>
    <circle class="uuid-81dc279f-8594-4340-9f63-aeb2d62939f4" cx="69.38" cy="263" r="3.66"/>
  </g>
  <g id="uuid-696e3865-abb3-4e9b-8316-760032d0169b" data-name="&amp;lt;dongmen_button&amp;gt;">
    <path class="uuid-5e1b75a3-adca-46f0-85f0-8e9ca9547983" d="m19.49,135.17c-10.55,0-19.11,8.56-19.11,19.11s8.56,19.11,19.11,19.11h96.78c10.55,0,19.11-8.56,19.11-19.11s-8.56-19.11-19.11-19.11H19.49Z"/>
    <text class="uuid-507f04cb-4e37-4399-9e7b-570d84370616" transform="translate(26.57 161.12)"><tspan class="uuid-4956a474-09e1-4661-8024-9d7b122a5bdb" x="0" y="0">東門</tspan><tspan x="63.32" y="0">店</tspan></text>
  </g>
  <g id="uuid-7fe7e0e8-4acb-41d2-bba8-2ebe6e1b0601" data-name="&amp;lt;zhongxiao_line&amp;gt;">
    <line class="uuid-e1a7d996-2cd4-4535-8d55-2692854877f9" x1="190.79" y1="220.43" x2="260.38" y2="220.43"/>
    <circle class="uuid-81dc279f-8594-4340-9f63-aeb2d62939f4" cx="190.79" cy="220.43" r="3.66"/>
  </g>
  <g id="uuid-eb426cad-712d-495b-b874-167a6eaedf5c" data-name="&amp;lt;zhongxiao_button&amp;gt;">
    <path class="uuid-5e1b75a3-adca-46f0-85f0-8e9ca9547983" d="m279.49,201.32c-10.55,0-19.11,8.56-19.11,19.11s8.56,19.11,19.11,19.11h96.78c10.55,0,19.11-8.56,19.11-19.11s-8.56-19.11-19.11-19.11h-96.78Z"/>
    <text class="uuid-89b5ad62-fc55-4cc9-a015-4291730c9939" transform="translate(288.12 226.94)"><tspan x="0" y="0">忠孝店</tspan></text>
  </g>
  <g id="uuid-2e334d3b-1ac5-4854-bcd4-6455ffa9b276" data-name="&amp;lt;xinyianhe_line&amp;gt;">
    <line class="uuid-e1a7d996-2cd4-4535-8d55-2692854877f9" x1="202.78" y1="332.57" x2="202.78" y2="391.07"/>
    <circle class="uuid-81dc279f-8594-4340-9f63-aeb2d62939f4" cx="202.78" cy="332.57" r="3.66"/>
  </g>
  <g id="uuid-a2ba7300-6c8b-4a97-98bb-021e025e6927" data-name="&amp;lt;xinyianhe_button&amp;gt;">
    <path class="uuid-5e1b75a3-adca-46f0-85f0-8e9ca9547983" d="m164.72,391.07c-10.55,0-19.11,8.56-19.11,19.11s8.56,19.11,19.11,19.11h125.8c10.55,0,19.11-8.56,19.11-19.11s-8.56-19.11-19.11-19.11h-125.8Z"/>
    <text class="uuid-507f04cb-4e37-4399-9e7b-570d84370616" transform="translate(165.42 417.02)"><tspan class="uuid-1284dbed-50fe-43c6-86a2-83b59cf89646" x="0" y="0">信義安和</tspan><tspan x="105.12" y="0">店</tspan></text>
  </g>
  <g id="nanjing" class="homemap-branch" data-name="&amp;lt;nanjing_button_o&amp;gt;">
    <path class="uuid-e9e93355-4901-4866-aa5d-0576498dc506" d="m337.42,75.32c-10.55,0-19.11,8.56-19.11,19.11s8.56,19.11,19.11,19.11h96.78c10.55,0,19.11-8.56,19.11-19.11s-8.56-19.11-19.11-19.11h-96.78Z"/>
    <text class="uuid-2faf94e0-4e65-45ac-a2a5-ae1035bf6fb2" transform="translate(344.51 101.27)"><tspan class="uuid-4956a474-09e1-4661-8024-9d7b122a5bdb" x="0" y="0">南京</tspan><tspan x="63.32" y="0">店</tspan></text>
  </g>
  <g id="zhongxiao" class="homemap-branch" data-name="&amp;lt;zhongxiao_button_o&amp;gt;">
    <path class="uuid-e9e93355-4901-4866-aa5d-0576498dc506" d="m279.49,201.32c-10.55,0-19.11,8.56-19.11,19.11s8.56,19.11,19.11,19.11h96.78c10.55,0,19.11-8.56,19.11-19.11s-8.56-19.11-19.11-19.11h-96.78Z"/>
    <text class="uuid-46f901fd-8cb7-4059-9197-aa2f2fe819f4" transform="translate(288.12 226.94)"><tspan x="0" y="0">忠孝店</tspan></text>
  </g>
  <g id="xinyianhe" class="homemap-branch" data-name="&amp;lt;xinyianhe_button_o&amp;gt;">
    <path class="uuid-e9e93355-4901-4866-aa5d-0576498dc506" d="m164.72,391.07c-10.55,0-19.11,8.56-19.11,19.11s8.56,19.11,19.11,19.11h125.8c10.55,0,19.11-8.56,19.11-19.11s-8.56-19.11-19.11-19.11h-125.8Z"/>
    <text class="uuid-2faf94e0-4e65-45ac-a2a5-ae1035bf6fb2" transform="translate(165.42 417.02)"><tspan class="uuid-1284dbed-50fe-43c6-86a2-83b59cf89646" x="0" y="0">信義安和</tspan><tspan x="105.12" y="0">店</tspan></text>
  </g>
  <g id="dongmen" class="homemap-branch" data-name="&amp;lt;dongmen_button_o&amp;gt;">
    <path class="uuid-e9e93355-4901-4866-aa5d-0576498dc506" d="m19.49,135.17c-10.55,0-19.11,8.56-19.11,19.11s8.56,19.11,19.11,19.11h96.78c10.55,0,19.11-8.56,19.11-19.11s-8.56-19.11-19.11-19.11H19.49Z"/>
    <text class="uuid-2faf94e0-4e65-45ac-a2a5-ae1035bf6fb2" transform="translate(26.57 161.12)"><tspan class="uuid-4956a474-09e1-4661-8024-9d7b122a5bdb" x="0" y="0">東門</tspan><tspan x="63.32" y="0">店</tspan></text>
  </g>
</svg>