<?xml version="1.0" encoding="UTF-8"?>
<svg id="uuid-2661c3d4-eba8-43d2-ab05-dcc677af77a3" data-name="圖層 1" xmlns="http://www.w3.org/2000/svg" viewBox="0 0 692.04 617.1">
  <defs>
    <style>
      .uuid-206cd79b-1def-40c2-b8f5-5645a4bb8519 {
        letter-spacing: .1em;
      }

      .uuid-f7b98fa9-baee-40b7-bb5f-dcfd4efb2ef9 {
        letter-spacing: .1em;
      }

      .uuid-cb1ea947-ce70-4a26-873c-ef1c744cbfba {
        font-family: Poppins-Regular, Poppins;
        font-size: 16.2px;
      }

      .uuid-cb1ea947-ce70-4a26-873c-ef1c744cbfba, .uuid-2bd85f99-2b15-4d62-80f1-4736f54d5869, .uuid-8582a76e-2d53-4024-8489-04c8864cf6d3, .uuid-ab71389c-a6ff-4e5c-a207-0e8390d87167, .uuid-fcef552b-fc3c-4b81-8c6c-f0d87223ec36, .uuid-db5a4d2a-4dfc-49f4-82fb-f12890c7c2dc, .uuid-c21a7e40-0e1e-44a8-925f-9445a2178721 {
        fill: #282828;
      }

      .uuid-65461332-7d58-466d-b661-281e6fbc1526 {
        letter-spacing: .1em;
      }

      .uuid-59b8fea2-ca52-4778-beb5-ce23139d2962, .uuid-db5a4d2a-4dfc-49f4-82fb-f12890c7c2dc {
        letter-spacing: .1em;
      }

      .uuid-7f96adcd-0e7d-4863-9938-d8b799787a14 {
        letter-spacing: .36em;
      }

      .uuid-2bd85f99-2b15-4d62-80f1-4736f54d5869, .uuid-8582a76e-2d53-4024-8489-04c8864cf6d3, .uuid-cc3e91c9-a357-4af3-be55-5467a83625fc, .uuid-fcef552b-fc3c-4b81-8c6c-f0d87223ec36, .uuid-38997a66-bf46-4e7b-9100-4afface2a2a8, .uuid-db5a4d2a-4dfc-49f4-82fb-f12890c7c2dc {
        font-weight: 500;
      }

      .uuid-2bd85f99-2b15-4d62-80f1-4736f54d5869, .uuid-db5a4d2a-4dfc-49f4-82fb-f12890c7c2dc {
        font-family: Poppins-Medium, Poppins, 微軟正黑體, 新細明體, Arial, sans-serif;
        font-size: 21.6px;
      }

      .uuid-8582a76e-2d53-4024-8489-04c8864cf6d3, .uuid-cc3e91c9-a357-4af3-be55-5467a83625fc, .uuid-fcef552b-fc3c-4b81-8c6c-f0d87223ec36, .uuid-38997a66-bf46-4e7b-9100-4afface2a2a8 {
        font-family: Poppins-Medium, Poppins, 微軟正黑體, 新細明體, Arial, sans-serif;
        font-size: 18px;
      }

      .uuid-8582a76e-2d53-4024-8489-04c8864cf6d3, .uuid-38997a66-bf46-4e7b-9100-4afface2a2a8, .uuid-3229734f-5480-4dc9-84ca-2a688245a09e {
        letter-spacing: .76em;
      }

      .uuid-cddd6d8e-557f-406f-be79-d24580c96574, .uuid-ab71389c-a6ff-4e5c-a207-0e8390d87167 {
        stroke: #fff;
        stroke-width: .75px;
      }

      .uuid-cddd6d8e-557f-406f-be79-d24580c96574, .uuid-cc3e91c9-a357-4af3-be55-5467a83625fc, .uuid-38997a66-bf46-4e7b-9100-4afface2a2a8 {
        fill: #fff;
      }

      .uuid-4e64ff34-25eb-4543-8799-f1db85ae2ede {
        letter-spacing: .5em;
      }

      .uuid-f4bbc310-7104-4a18-b997-18bf737fe380 {
        letter-spacing: .16em;
      }

      .uuid-d0d84b5c-ed64-4ab0-9234-dd820d5a97d9 {
        letter-spacing: .16em;
      }

      .uuid-912f5806-1542-43ec-879c-e7fcc23acc9a {
        letter-spacing: .46em;
      }

      .uuid-a11fea38-b342-49dd-a1ee-574bc0639e46 {
        fill: none;
        stroke: #e76751;
      }

      .uuid-c21a7e40-0e1e-44a8-925f-9445a2178721, .uuid-3fc5a857-9dbb-4128-bb06-ba59c84980c6, .uuid-86b38e64-8db0-4237-9259-39d483e1df7e {
        stroke-width: 0px;
      }

      .uuid-3fc5a857-9dbb-4128-bb06-ba59c84980c6 {
        fill: #3d3d3d;
      }

      .uuid-86b38e64-8db0-4237-9259-39d483e1df7e {
        fill: #e4d2b1;
      }

      .uuid-366dfc1b-1c14-4b2a-babb-d22a159819fd {
        letter-spacing: 0em;
      }
    </style>
  </defs>
  <g id="uuid-7c1534a5-3060-43bc-a2ee-3cbedf7fd5cb" data-name="&amp;lt;zhongshan_block&amp;gt;">
    <path class="uuid-3fc5a857-9dbb-4128-bb06-ba59c84980c6" d="m398.6,85.6l-37.26-72.87c-4-7.81-12.03-12.73-20.81-12.73h-170.54c-8.1,0-15.63,4.2-19.89,11.09l-48.76,78.99c-6.56,10.63-10.03,22.87-10.03,35.35v153.61c0,7.87,6.38,14.25,14.25,14.25h116.85c7.87,0,14.25-6.38,14.25-14.25v-147.07c0-14.16,11.48-25.65,25.64-25.65h123.61c10.65,0,17.54-11.25,12.69-20.74"/>
    <g id="uuid-c071abc4-8ebe-46aa-a4ce-d206d5581127" data-name="&amp;lt;zhongshan_dist&amp;gt;">
      <text class="uuid-fcef552b-fc3c-4b81-8c6c-f0d87223ec36" transform="translate(133.09 136.07)"><tspan class="uuid-7f96adcd-0e7d-4863-9938-d8b799787a14" x="0" y="0">中山</tspan><tspan x="48.96" y="0">區</tspan></text>
      <text class="uuid-2bd85f99-2b15-4d62-80f1-4736f54d5869" transform="translate(124.03 167.22)"><tspan class="uuid-65461332-7d58-466d-b661-281e6fbc1526" x="0" y="0">Z</tspan><tspan class="uuid-f7b98fa9-baee-40b7-bb5f-dcfd4efb2ef9" x="14.19" y="0">HO</tspan><tspan class="uuid-65461332-7d58-466d-b661-281e6fbc1526" x="50.67" y="0">N</tspan><tspan class="uuid-366dfc1b-1c14-4b2a-babb-d22a159819fd" x="68.39" y="0">G</tspan><tspan class="uuid-206cd79b-1def-40c2-b8f5-5645a4bb8519" x="9.85" y="23.92">SHA</tspan><tspan class="uuid-59b8fea2-ca52-4778-beb5-ce23139d2962" x="59.66" y="23.92">N</tspan></text>
      <text class="uuid-cb1ea947-ce70-4a26-873c-ef1c744cbfba" transform="translate(129.73 213.04)"><tspan class="uuid-f4bbc310-7104-4a18-b997-18bf737fe380" x="0" y="0">Distri</tspan><tspan class="uuid-d0d84b5c-ed64-4ab0-9234-dd820d5a97d9" x="55.37" y="0">c</tspan><tspan x="67.78" y="0">t</tspan></text>
    </g>
  </g>
  <g id="uuid-c3f66500-105e-4adf-841e-9b03e2e65b96" data-name="&amp;lt;songshan_block&amp;gt;">
    <path class="uuid-86b38e64-8db0-4237-9259-39d483e1df7e" d="m408.72,232.78v-95.76c0-7.89-6.33-14.29-14.14-14.29h-125.74c-7.81,0-14.14,6.4-14.14,14.29v141.94c0,7.89,6.33,14.29,14.14,14.29h171.64c7.81,0,14.14-6.4,14.14-14.29v-17.6c0-7.89-6.33-14.29-14.14-14.29h-17.62c-7.81,0-14.14-6.4-14.14-14.29"/>
    <g id="uuid-b2218719-8292-44d7-97dd-21472d3b384b" data-name="&amp;lt;songshan_dist&amp;gt;">
      <text class="uuid-fcef552b-fc3c-4b81-8c6c-f0d87223ec36" transform="translate(298.29 175.29)"><tspan class="uuid-7f96adcd-0e7d-4863-9938-d8b799787a14" x="0" y="0">松山</tspan><tspan x="48.96" y="0">區</tspan></text>
      <text class="uuid-2bd85f99-2b15-4d62-80f1-4736f54d5869" transform="translate(297.4 207.33)"><tspan class="uuid-206cd79b-1def-40c2-b8f5-5645a4bb8519" x="0" y="0">SON</tspan><tspan x="52.03" y="0">G</tspan><tspan class="uuid-206cd79b-1def-40c2-b8f5-5645a4bb8519" x="1.67" y="19.92">SHA</tspan><tspan class="uuid-59b8fea2-ca52-4778-beb5-ce23139d2962" x="51.48" y="19.92">N</tspan></text>
      <text class="uuid-cb1ea947-ce70-4a26-873c-ef1c744cbfba" transform="translate(294.93 248.6)"><tspan class="uuid-f4bbc310-7104-4a18-b997-18bf737fe380" x="0" y="0">Distri</tspan><tspan class="uuid-d0d84b5c-ed64-4ab0-9234-dd820d5a97d9" x="55.37" y="0">c</tspan><tspan x="67.78" y="0">t</tspan></text>
    </g>
  </g>
  <g id="uuid-41cf2ebc-479a-4d51-84b0-1a1abea5f6e9" data-name="&amp;lt;zhongzheng_block&amp;gt;">
    <path class="uuid-3fc5a857-9dbb-4128-bb06-ba59c84980c6" d="m144.37,313.19H14.25c-7.87,0-14.25,6.38-14.25,14.25v65.43c0,8.15,1.49,16.23,4.38,23.84l27.13,71.3c2.1,5.53,7.4,9.18,13.32,9.18h91.07c10.24,0,17.13-10.47,13.09-19.87l-26.82-62.44c-3.1-7.53-2.53-16.07,1.54-23.13l32.99-57.2c5.48-9.5-1.38-21.37-12.34-21.37"/>
    <g id="uuid-7b6f4b29-690e-4d16-b103-99fa16d599dd" data-name="&amp;lt;zhongzheng_dist&amp;gt;">
      <text class="uuid-fcef552b-fc3c-4b81-8c6c-f0d87223ec36" transform="translate(34.92 376.24)"><tspan class="uuid-7f96adcd-0e7d-4863-9938-d8b799787a14" x="0" y="0">中正</tspan><tspan x="48.96" y="0">區</tspan></text>
      <text class="uuid-2bd85f99-2b15-4d62-80f1-4736f54d5869" transform="translate(25.86 407.66)"><tspan class="uuid-65461332-7d58-466d-b661-281e6fbc1526" x="0" y="0">Z</tspan><tspan class="uuid-f7b98fa9-baee-40b7-bb5f-dcfd4efb2ef9" x="14.19" y="0">HO</tspan><tspan class="uuid-65461332-7d58-466d-b661-281e6fbc1526" x="50.67" y="0">N</tspan><tspan class="uuid-366dfc1b-1c14-4b2a-babb-d22a159819fd" x="68.39" y="0">G</tspan><tspan class="uuid-f7b98fa9-baee-40b7-bb5f-dcfd4efb2ef9"><tspan x="2.79" y="23.92">ZHENG</tspan></tspan></text>
      <text class="uuid-cb1ea947-ce70-4a26-873c-ef1c744cbfba" transform="translate(31.56 454.3)"><tspan class="uuid-f4bbc310-7104-4a18-b997-18bf737fe380" x="0" y="0">Distri</tspan><tspan class="uuid-d0d84b5c-ed64-4ab0-9234-dd820d5a97d9" x="55.37" y="0">c</tspan><tspan x="67.78" y="0">t</tspan></text>
    </g>
  </g>
  <g id="uuid-4fbf6f15-360a-4732-ab57-fd6e915e66bf" data-name="&amp;lt;daan_block&amp;gt;">
    <path class="uuid-86b38e64-8db0-4237-9259-39d483e1df7e" d="m320.62,398.04l23.91-41.3c1.27-2.19,1.94-4.68,1.94-7.22v-21.08c0-7.89-6.33-14.29-14.14-14.29h-136.02c-5.02,0-9.66,2.69-12.2,7.07l-44.47,76.81c-2.23,3.85-2.55,8.52-.88,12.65l32.13,79.13c2.18,5.36,7.34,8.86,13.08,8.86h150.42c10.06,0,16.9-10.31,13.08-19.72l-27.73-68.28c-1.67-4.12-1.35-8.8.88-12.65"/>
    <g id="uuid-5e1c1ee7-1538-4ddd-8d8d-f693425ac115" data-name="&amp;lt;daan_dist&amp;gt;">
      <text class="uuid-fcef552b-fc3c-4b81-8c6c-f0d87223ec36" transform="translate(206.01 391.47)"><tspan class="uuid-4e64ff34-25eb-4543-8799-f1db85ae2ede" x="0" y="0">大安</tspan><tspan x="54" y="0">區</tspan></text>
      <text class="uuid-db5a4d2a-4dfc-49f4-82fb-f12890c7c2dc" transform="translate(207.23 421.52)"><tspan x="0" y="0">DAAN</tspan></text>
      <text class="uuid-cb1ea947-ce70-4a26-873c-ef1c744cbfba" transform="translate(205.17 441.97)"><tspan class="uuid-f4bbc310-7104-4a18-b997-18bf737fe380" x="0" y="0">Distri</tspan><tspan class="uuid-d0d84b5c-ed64-4ab0-9234-dd820d5a97d9" x="55.37" y="0">c</tspan><tspan x="67.78" y="0">t</tspan></text>
    </g>
  </g>
  <g id="uuid-40e35318-9c7b-4ce3-a709-4c13c79dec8d" data-name="&amp;lt;xinyi_block&amp;gt;">
    <path class="uuid-3fc5a857-9dbb-4128-bb06-ba59c84980c6" d="m554.86,410.03l-44.48,79.85c-2.52,4.51-7.28,7.32-12.45,7.32h-114.78c-5.78,0-10.99-3.49-13.18-8.84l-32.39-78.91c-1.69-4.11-1.36-8.77.88-12.61l24.1-41.18c1.28-2.18,1.95-4.67,1.95-7.2v-21.01c0-7.87,6.38-14.25,14.25-14.25h119.37c5.06,0,9.74,2.68,12.3,7.05l44.28,75.65c2.55,4.35,2.6,9.73.15,14.13"/>
    <g id="uuid-d4e0c0a9-1d86-4a1b-ba94-bdeb334a72b7" data-name="&amp;lt;xinyi_dist&amp;gt;">
      <text class="uuid-2bd85f99-2b15-4d62-80f1-4736f54d5869" transform="translate(413.63 421.52)"><tspan class="uuid-206cd79b-1def-40c2-b8f5-5645a4bb8519" x="0" y="0">XI</tspan><tspan class="uuid-65461332-7d58-466d-b661-281e6fbc1526" x="24.28" y="0">NY</tspan><tspan x="57.2" y="0">I</tspan></text>
      <text class="uuid-fcef552b-fc3c-4b81-8c6c-f0d87223ec36" transform="translate(411.6 391.57)"><tspan class="uuid-7f96adcd-0e7d-4863-9938-d8b799787a14" x="0" y="0">信義</tspan><tspan x="48.96" y="0">區</tspan></text>
      <text class="uuid-cb1ea947-ce70-4a26-873c-ef1c744cbfba" transform="translate(408.24 442.12)"><tspan class="uuid-f4bbc310-7104-4a18-b997-18bf737fe380" x="0" y="0">Distri</tspan><tspan class="uuid-d0d84b5c-ed64-4ab0-9234-dd820d5a97d9" x="55.37" y="0">c</tspan><tspan x="67.78" y="0">t</tspan></text>
    </g>
  </g>
  <g id="uuid-0ffd3db5-fc0d-484a-9038-abb9f285a2c1" data-name="&amp;lt;nanjing_line&amp;gt;">
    <line class="uuid-a11fea38-b342-49dd-a1ee-574bc0639e46" x1="326.52" y1="273.35" x2="494.81" y2="273.35"/>
    <circle class="uuid-c21a7e40-0e1e-44a8-925f-9445a2178721" cx="326.52" cy="273.35" r="3.66"/>
  </g>
  <g id="uuid-35d32ce8-055a-427d-9736-e71fcd3f2a33" data-name="&amp;lt;nanjing_button&amp;gt;">
    <path class="uuid-cddd6d8e-557f-406f-be79-d24580c96574" d="m514.3,252.79c-10.55,0-19.11,8.56-19.11,19.11s8.56,19.11,19.11,19.11h96.78c10.55,0,19.11-8.56,19.11-19.11s-8.56-19.11-19.11-19.11h-96.78Z"/>
    <text class="uuid-fcef552b-fc3c-4b81-8c6c-f0d87223ec36" transform="translate(521.38 278.74)"><tspan class="uuid-3229734f-5480-4dc9-84ca-2a688245a09e" x="0" y="0">南京</tspan><tspan x="63.32" y="0">店</tspan></text>
  </g>
  <g id="uuid-7e45f8e0-935c-46f8-9fbe-203dc4c532cd" data-name="&amp;lt;dongmen_line&amp;gt;">
    <line class="uuid-a11fea38-b342-49dd-a1ee-574bc0639e46" x1="174.33" y1="385.73" x2="174.33" y2="526.3"/>
    <circle class="uuid-c21a7e40-0e1e-44a8-925f-9445a2178721" cx="174.33" cy="385.73" r="3.66"/>
  </g>
  <g id="uuid-3f55cbc7-c3b8-43c5-8f38-a2e78103fd20" data-name="&amp;lt;dongmen_button&amp;gt;">
    <path class="uuid-cddd6d8e-557f-406f-be79-d24580c96574" d="m124.44,526.7c-10.55,0-19.11,8.56-19.11,19.11s8.56,19.11,19.11,19.11h96.78c10.55,0,19.11-8.56,19.11-19.11s-8.56-19.11-19.11-19.11h-96.78Z"/>
    <text class="uuid-fcef552b-fc3c-4b81-8c6c-f0d87223ec36" transform="translate(131.52 552.65)"><tspan class="uuid-3229734f-5480-4dc9-84ca-2a688245a09e" x="0" y="0">東門</tspan><tspan x="63.32" y="0">店</tspan></text>
  </g>
  <g id="uuid-2a58da67-23f5-4178-a6f5-5e4aad5e0503" data-name="&amp;lt;zhongxiao_line&amp;gt;">
    <line class="uuid-a11fea38-b342-49dd-a1ee-574bc0639e46" x1="295.74" y1="343.16" x2="556.66" y2="343.16"/>
    <circle class="uuid-c21a7e40-0e1e-44a8-925f-9445a2178721" cx="295.74" cy="343.16" r="3.66"/>
  </g>
  <g id="uuid-54348c2b-2c95-4854-9cb3-8d6b6f81c1f3" data-name="&amp;lt;zhongxiao_button&amp;gt;">
    <path class="uuid-cddd6d8e-557f-406f-be79-d24580c96574" d="m575.77,324.05c-10.55,0-19.11,8.56-19.11,19.11s8.56,19.11,19.11,19.11h96.78c10.55,0,19.11-8.56,19.11-19.11s-8.56-19.11-19.11-19.11h-96.78Z"/>
    <text class="uuid-8582a76e-2d53-4024-8489-04c8864cf6d3" transform="translate(584.4 349.67)"><tspan x="0" y="0">忠孝店</tspan></text>
  </g>
  <g id="uuid-fb8be2d9-00c7-44ab-9335-59c6eba95944" data-name="&amp;lt;xinyianhe_line&amp;gt;">
    <line class="uuid-a11fea38-b342-49dd-a1ee-574bc0639e46" x1="307.73" y1="455.3" x2="307.73" y2="572.3"/>
    <circle class="uuid-c21a7e40-0e1e-44a8-925f-9445a2178721" cx="307.73" cy="455.3" r="3.66"/>
  </g>
  <g id="uuid-5d095a9b-bbd3-4504-af4a-311de6595479" data-name="&amp;lt;xinyianhe_button&amp;gt;">
    <path class="uuid-cddd6d8e-557f-406f-be79-d24580c96574" d="m269.67,572.3c-10.55,0-19.11,8.56-19.11,19.11s8.56,19.11,19.11,19.11h125.8c10.55,0,19.11-8.56,19.11-19.11s-8.56-19.11-19.11-19.11h-125.8Z"/>
    <text class="uuid-fcef552b-fc3c-4b81-8c6c-f0d87223ec36" transform="translate(270.38 598.25)"><tspan class="uuid-912f5806-1542-43ec-879c-e7fcc23acc9a" x="0" y="0">信義安和</tspan><tspan x="105.12" y="0">店</tspan></text>
  </g>
  <g id="nanjing" class="homemap-branch" data-name="&amp;lt;nanjing_button_o&amp;gt;">
    <path class="uuid-ab71389c-a6ff-4e5c-a207-0e8390d87167" d="m514.3,252.79c-10.55,0-19.11,8.56-19.11,19.11s8.56,19.11,19.11,19.11h96.78c10.55,0,19.11-8.56,19.11-19.11s-8.56-19.11-19.11-19.11h-96.78Z"/>
    <text class="uuid-cc3e91c9-a357-4af3-be55-5467a83625fc" transform="translate(521.38 278.74)"><tspan class="uuid-3229734f-5480-4dc9-84ca-2a688245a09e" x="0" y="0">南京</tspan><tspan x="63.32" y="0">店</tspan></text>
  </g>
  <g id="zhongxiao" class="homemap-branch" data-name="&amp;lt;zhongxiao_button_o&amp;gt;">
    <path class="uuid-ab71389c-a6ff-4e5c-a207-0e8390d87167" d="m575.77,324.05c-10.55,0-19.11,8.56-19.11,19.11s8.56,19.11,19.11,19.11h96.78c10.55,0,19.11-8.56,19.11-19.11s-8.56-19.11-19.11-19.11h-96.78Z"/>
    <text class="uuid-38997a66-bf46-4e7b-9100-4afface2a2a8" transform="translate(584.4 349.67)"><tspan x="0" y="0">忠孝店</tspan></text>
  </g>
  <g id="xinyianhe" class="homemap-branch" data-name="&amp;lt;xinyianhe_button_o&amp;gt;">
    <path class="uuid-ab71389c-a6ff-4e5c-a207-0e8390d87167" d="m269.67,572.3c-10.55,0-19.11,8.56-19.11,19.11s8.56,19.11,19.11,19.11h125.8c10.55,0,19.11-8.56,19.11-19.11s-8.56-19.11-19.11-19.11h-125.8Z"/>
    <text class="uuid-cc3e91c9-a357-4af3-be55-5467a83625fc" transform="translate(270.38 598.25)"><tspan class="uuid-912f5806-1542-43ec-879c-e7fcc23acc9a" x="0" y="0">信義安和</tspan><tspan x="105.12" y="0">店</tspan></text>
  </g>
  <g id="dongmen" class="homemap-branch" data-name="&amp;lt;dongmen_button_o&amp;gt;">
    <path class="uuid-ab71389c-a6ff-4e5c-a207-0e8390d87167" d="m124.44,526.7c-10.55,0-19.11,8.56-19.11,19.11s8.56,19.11,19.11,19.11h96.78c10.55,0,19.11-8.56,19.11-19.11s-8.56-19.11-19.11-19.11h-96.78Z"/>
    <text class="uuid-cc3e91c9-a357-4af3-be55-5467a83625fc" transform="translate(131.52 552.65)"><tspan class="uuid-3229734f-5480-4dc9-84ca-2a688245a09e" x="0" y="0">東門</tspan><tspan x="63.32" y="0">店</tspan></text>
  </g>
</svg>