<?xml version="1.0" encoding="UTF-8"?>
<svg id="_圖層_1" data-name="圖層 1" xmlns="http://www.w3.org/2000/svg" viewBox="0 0 685.93 609.74">
  <defs>
    <style>
      .cls-1, .cls-2 {
        stroke: #fff;
        stroke-width: .75px;
      }

      .cls-1, .cls-3 {
        fill: #fff;
      }

      .cls-2, .cls-4 {
        fill: #282828;
      }

      .cls-5 {
        fill: none;
        stroke: #e76751;
      }

      .cls-4, .cls-6, .cls-3, .cls-7 {
        stroke-width: 0px;
      }

      .cls-6 {
        fill: #3d3d3d;
      }

      .cls-7 {
        fill: #e4d2b1;
      }
    </style>
  </defs>
  <g id="_zhongshan_block_" data-name="&amp;lt;zhongshan_block&amp;gt;">
    <path class="cls-6" d="m398.6,85.6l-37.26-72.87c-4-7.81-12.03-12.73-20.81-12.73h-170.54c-8.1,0-15.63,4.2-19.89,11.09l-48.76,78.99c-6.56,10.63-10.03,22.87-10.03,35.35v153.61c0,7.87,6.38,14.25,14.25,14.25h116.85c7.87,0,14.25-6.38,14.25-14.25v-147.07c0-14.16,11.48-25.65,25.64-25.65h123.61c10.65,0,17.54-11.25,12.69-20.74"/>
    <g id="_zhongshan_dist_" data-name="&amp;lt;zhongshan_dist&amp;gt;">
      <g>
        <path class="cls-4" d="m149.35,124.11v8.61h-1.75v-.97h-4.68v5.73h-1.75v-5.73h-4.66v1.06h-1.67v-8.7h6.34v-3.13h1.75v3.13h6.43Zm-8.17,6v-4.36h-4.66v4.36h4.66Zm6.43,0v-4.36h-4.68v4.36h4.68Z"/>
        <path class="cls-4" d="m173.7,124.69v12.75h-1.73v-1.3h-12.5v-11.4h1.73v9.69h4.47v-13.29h1.76v13.29h4.54v-9.74h1.73Z"/>
        <path class="cls-4" d="m195.8,135.19c1.04,0,2.43-.07,3.11-.22.05.43.16,1.21.25,1.58-.56.14-2.02.18-3.42.18h-7.54c-2.93,0-4.3-.92-4.3-3.82v-9.72h-.72v-1.48h15.11v1.48h-12.75v9.85c0,1.53.61,2.14,2.5,2.14h7.76Zm-9.11-5.85h4.77v4.7h-4.77v-4.7Zm1.37,3.51h1.96v-2.32h-1.96v2.32Zm7.35-4.54h-6.81v-4.09h6.81v4.09Zm-1.66-2.95h-3.6v1.8h3.6v-1.8Zm3.69,8.68h-4.92v-4.7h4.92v4.7Zm-1.46-3.51h-2.07v2.32h2.07v-2.32Z"/>
      </g>
      <g>
        <path class="cls-4" d="m128.02,165.08h6.98v2.14h-9.89v-1.92l6.96-10.95h-6.96v-2.14h9.89v1.92l-6.98,10.95Z"/>
        <path class="cls-4" d="m151.83,152.21v15.01h-2.46v-6.57h-7.06v6.57h-2.46v-15.01h2.46v6.44h7.06v-6.44h2.46Z"/>
        <path class="cls-4" d="m160.22,166.39c-1.17-.66-2.1-1.57-2.79-2.74-.68-1.17-1.03-2.5-1.03-3.96s.34-2.79,1.03-3.95c.68-1.17,1.61-2.08,2.79-2.73,1.17-.66,2.46-.98,3.86-.98s2.7.33,3.88.98,2.1,1.57,2.78,2.73c.68,1.17,1.02,2.48,1.02,3.95s-.34,2.79-1.02,3.96c-.68,1.17-1.6,2.09-2.78,2.74s-2.47.98-3.88.98-2.68-.33-3.86-.98Zm6.51-1.84c.78-.45,1.39-1.1,1.83-1.94.44-.84.66-1.82.66-2.93s-.22-2.08-.66-2.92c-.44-.83-1.05-1.48-1.83-1.92-.78-.45-1.66-.67-2.66-.67s-1.88.22-2.66.67c-.78.45-1.39,1.09-1.83,1.92-.44.84-.66,1.81-.66,2.92s.22,2.08.66,2.93c.44.84,1.05,1.49,1.83,1.94.78.45,1.66.68,2.66.68s1.88-.23,2.66-.68Z"/>
        <path class="cls-4" d="m188.65,167.22h-2.46l-7.41-11.21v11.21h-2.46v-15.03h2.46l7.41,11.19v-11.19h2.46v15.03Z"/>
        <path class="cls-4" d="m204.9,156.53c-.39-.75-.93-1.31-1.62-1.7-.69-.38-1.49-.57-2.4-.57-.99,0-1.88.22-2.66.67-.78.45-1.39,1.08-1.83,1.9-.44.82-.66,1.77-.66,2.85s.22,2.03.66,2.86c.44.83,1.05,1.47,1.83,1.91.78.45,1.66.67,2.66.67,1.34,0,2.43-.37,3.26-1.12.83-.75,1.35-1.76,1.53-3.05h-5.64v-1.97h8.27v1.92c-.16,1.17-.57,2.24-1.24,3.22-.67.98-1.54,1.76-2.61,2.34-1.07.58-2.26.87-3.57.87-1.41,0-2.7-.33-3.87-.98-1.17-.66-2.09-1.57-2.78-2.73-.68-1.17-1.03-2.48-1.03-3.95s.34-2.79,1.03-3.95c.68-1.17,1.61-2.08,2.79-2.73,1.17-.66,2.46-.98,3.86-.98,1.6,0,3.02.39,4.27,1.18,1.25.79,2.15,1.9,2.71,3.34h-2.96Z"/>
        <path class="cls-4" d="m137.72,190.76c-.81-.35-1.44-.85-1.9-1.5-.46-.65-.69-1.4-.69-2.27h2.64c.06.65.31,1.18.77,1.6.45.42,1.09.63,1.91.63s1.51-.21,1.99-.62c.48-.41.71-.94.71-1.59,0-.5-.15-.91-.44-1.23-.3-.32-.66-.56-1.1-.73-.44-.17-1.05-.36-1.83-.56-.98-.26-1.77-.52-2.39-.79-.61-.27-1.13-.68-1.57-1.24-.43-.56-.65-1.31-.65-2.25,0-.86.22-1.62.65-2.27.43-.65,1.04-1.14,1.81-1.49.78-.35,1.68-.52,2.7-.52,1.45,0,2.65.36,3.57,1.09.93.73,1.44,1.72,1.54,2.99h-2.72c-.04-.55-.3-1.02-.78-1.4-.48-.39-1.1-.58-1.88-.58-.71,0-1.28.18-1.73.54-.45.36-.67.88-.67,1.56,0,.46.14.84.42,1.13s.64.53,1.07.7,1.02.36,1.77.56c.99.27,1.8.55,2.43.82s1.16.69,1.6,1.26c.44.57.66,1.33.66,2.28,0,.76-.21,1.48-.62,2.16-.41.68-1.01,1.22-1.79,1.63-.78.41-1.71.62-2.78.62-1.01,0-1.92-.18-2.72-.53Z"/>
        <path class="cls-4" d="m162.69,176.13v15.01h-2.46v-6.57h-7.06v6.57h-2.46v-15.01h2.46v6.44h7.06v-6.44h2.46Z"/>
        <path class="cls-4" d="m177.14,188.07h-6.29l-1.08,3.07h-2.57l5.38-15.03h2.85l5.38,15.03h-2.59l-1.08-3.07Zm-.69-2.01l-2.44-6.98-2.46,6.98h4.9Z"/>
        <path class="cls-4" d="m197.64,191.14h-2.46l-7.41-11.21v11.21h-2.46v-15.03h2.46l7.41,11.19v-11.19h2.46v15.03Z"/>
      </g>
      <g>
        <path class="cls-4" d="m137.69,202.44c.9.46,1.59,1.12,2.07,1.97.48.85.72,1.86.72,3.01s-.24,2.16-.72,3.01c-.48.85-1.17,1.5-2.07,1.94-.9.45-1.97.67-3.2.67h-3.52v-11.29h3.52c1.23,0,2.3.23,3.2.69Zm.14,8.23c.77-.77,1.15-1.85,1.15-3.25s-.39-2.5-1.16-3.29c-.77-.79-1.88-1.18-3.33-1.18h-2.04v8.88h2.04c1.46,0,2.57-.39,3.34-1.16Z"/>
        <path class="cls-4" d="m145.07,202.43c-.19-.19-.29-.43-.29-.71s.1-.52.29-.71.43-.29.71-.29.5.1.69.29.28.43.28.71-.09.52-.28.71-.42.29-.69.29-.52-.1-.71-.29Zm1.43,1.73v8.88h-1.47v-8.88h1.47Z"/>
        <path class="cls-4" d="m152.91,212.84c-.54-.23-.97-.56-1.28-.97-.31-.42-.49-.89-.52-1.43h1.52c.04.44.25.8.62,1.09.37.28.86.42,1.47.42.56,0,1-.12,1.33-.37.32-.25.49-.56.49-.94s-.17-.68-.52-.87-.88-.38-1.6-.56c-.66-.17-1.2-.35-1.61-.53-.42-.18-.77-.44-1.07-.79-.3-.35-.45-.81-.45-1.39,0-.45.14-.87.41-1.25.27-.38.65-.68,1.15-.9.5-.22,1.06-.33,1.7-.33.98,0,1.78.25,2.38.75.6.5.93,1.18.97,2.04h-1.47c-.03-.46-.22-.84-.56-1.12-.34-.28-.8-.42-1.37-.42-.53,0-.95.11-1.26.34-.31.23-.47.52-.47.89,0,.29.09.53.28.72s.43.34.71.45c.29.11.68.24,1.19.38.64.17,1.16.34,1.56.51.4.17.74.42,1.03.75.29.33.43.77.45,1.31,0,.49-.14.92-.41,1.31s-.65.69-1.14.92c-.49.22-1.06.33-1.69.33-.68,0-1.29-.12-1.83-.35Z"/>
        <path class="cls-4" d="m164.45,205.38v5.23c0,.43.09.74.28.92s.5.27.96.27h1.09v1.25h-1.33c-.82,0-1.44-.19-1.85-.57-.41-.38-.62-1-.62-1.86v-5.23h-1.15v-1.21h1.15v-2.24h1.47v2.24h2.32v1.21h-2.32Z"/>
        <path class="cls-4" d="m173.72,204.42c.48-.28,1.07-.42,1.76-.42v1.52h-.39c-1.65,0-2.48.9-2.48,2.69v4.83h-1.47v-8.88h1.47v1.44c.26-.51.63-.9,1.11-1.18Z"/>
        <path class="cls-4" d="m179.82,202.43c-.19-.19-.29-.43-.29-.71s.1-.52.29-.71.43-.29.71-.29.5.1.69.29.28.43.28.71-.09.52-.28.71-.42.29-.69.29-.52-.1-.71-.29Zm1.43,1.73v8.88h-1.47v-8.88h1.47Z"/>
        <path class="cls-4" d="m186.35,206.18c.37-.69.88-1.22,1.53-1.6.65-.38,1.4-.57,2.24-.57,1.09,0,1.99.26,2.7.79s1.17,1.26,1.4,2.2h-1.59c-.15-.54-.45-.97-.88-1.28-.44-.31-.98-.47-1.63-.47-.84,0-1.52.29-2.04.87-.52.58-.78,1.4-.78,2.45s.26,1.9.78,2.48c.52.58,1.2.88,2.04.88.65,0,1.19-.15,1.62-.45.43-.3.73-.73.89-1.3h1.59c-.24.91-.71,1.63-1.43,2.18-.71.55-1.6.82-2.67.82-.84,0-1.59-.19-2.24-.57-.65-.38-1.16-.91-1.53-1.6-.37-.69-.55-1.5-.55-2.43s.18-1.72.55-2.41Z"/>
        <path class="cls-4" d="m200.56,205.38v5.23c0,.43.09.74.28.92s.5.27.96.27h1.09v1.25h-1.33c-.82,0-1.44-.19-1.85-.57-.41-.38-.62-1-.62-1.86v-5.23h-1.15v-1.21h1.15v-2.24h1.47v2.24h2.32v1.21h-2.32Z"/>
      </g>
    </g>
  </g>
  <g id="_songshan_block_" data-name="&amp;lt;songshan_block&amp;gt;">
    <path class="cls-7" d="m408.72,232.78v-95.76c0-7.89-6.33-14.29-14.14-14.29h-125.74c-7.81,0-14.14,6.4-14.14,14.29v141.94c0,7.89,6.33,14.29,14.14,14.29h171.64c7.81,0,14.14-6.4,14.14-14.29v-17.6c0-7.89-6.33-14.29-14.14-14.29h-17.62c-7.81,0-14.14-6.4-14.14-14.29"/>
    <g id="_songshan_dist_" data-name="&amp;lt;songshan_dist&amp;gt;">
      <g>
        <path class="cls-4" d="m303.24,166.16c.5.67,1.89,2.7,2.2,3.21l-.97,1.17c-.25-.58-.76-1.55-1.22-2.41v8.57h-1.53v-7.65c-.56,1.76-1.28,3.4-2.02,4.48-.16-.49-.54-1.22-.83-1.66,1.13-1.44,2.2-4.14,2.72-6.46h-2.39v-1.55h2.52v-3.66h1.53v3.66h2.2v1.55h-2.2v.76Zm6.03-5.06c-.52,2.97-1.44,5.85-2.77,7.74-.2-.32-.79-.99-1.12-1.3,1.15-1.62,1.87-4.14,2.29-6.73l1.6.29Zm3.55,9.08c.86,1.76,1.98,4.12,2.48,5.49l-1.53.74c-.14-.45-.36-.99-.58-1.58-5.83.79-6.63.92-7.18,1.17-.07-.34-.34-1.15-.56-1.58.41-.11.74-.65,1.17-1.51.45-.83,1.82-3.98,2.54-6.91l1.69.45c-.81,2.66-1.91,5.38-3.04,7.53l4.77-.54c-.4-.92-.81-1.86-1.19-2.67l1.42-.58Zm-.22-9.49c.5,2.61,1.51,5.31,2.74,6.82-.36.27-.95.9-1.24,1.3-1.21-1.66-2.16-4.21-2.74-6.72h-1.58v-1.4h2.83Z"/>
        <path class="cls-4" d="m338.9,163.91v12.75h-1.73v-1.3h-12.5v-11.4h1.73v9.69h4.47v-13.29h1.76v13.29h4.54v-9.74h1.73Z"/>
        <path class="cls-4" d="m361,174.41c1.04,0,2.43-.07,3.12-.22.05.43.16,1.21.25,1.58-.56.14-2.02.18-3.42.18h-7.54c-2.93,0-4.3-.92-4.3-3.82v-9.72h-.72v-1.48h15.11v1.48h-12.75v9.85c0,1.53.61,2.14,2.5,2.14h7.76Zm-9.11-5.85h4.77v4.7h-4.77v-4.7Zm1.37,3.51h1.96v-2.32h-1.96v2.32Zm7.35-4.54h-6.81v-4.09h6.81v4.09Zm-1.66-2.95h-3.6v1.8h3.6v-1.8Zm3.69,8.68h-4.92v-4.7h4.92v4.7Zm-1.46-3.51h-2.07v2.32h2.07v-2.32Z"/>
      </g>
      <g>
        <path class="cls-4" d="m301.25,206.95c-.81-.35-1.44-.85-1.9-1.5-.46-.65-.69-1.4-.69-2.27h2.64c.06.65.31,1.18.77,1.6.45.42,1.09.63,1.91.63s1.51-.21,1.99-.62c.48-.41.71-.94.71-1.59,0-.5-.15-.91-.44-1.23-.3-.32-.66-.56-1.1-.73-.44-.17-1.05-.36-1.83-.56-.98-.26-1.77-.52-2.39-.79-.61-.27-1.13-.68-1.57-1.24-.43-.56-.65-1.31-.65-2.25,0-.86.22-1.62.65-2.27.43-.65,1.04-1.14,1.81-1.49.78-.35,1.68-.52,2.7-.52,1.45,0,2.65.36,3.57,1.09.93.73,1.44,1.72,1.54,2.99h-2.72c-.04-.55-.3-1.02-.78-1.4-.48-.39-1.1-.58-1.88-.58-.71,0-1.28.18-1.73.54-.45.36-.67.88-.67,1.56,0,.46.14.84.42,1.13s.64.53,1.07.7,1.02.36,1.77.56c.99.27,1.8.55,2.43.82s1.16.69,1.6,1.26c.44.57.66,1.33.66,2.28,0,.76-.21,1.48-.62,2.16-.41.68-1.01,1.22-1.79,1.63-.78.41-1.71.62-2.78.62-1.01,0-1.92-.18-2.72-.53Z"/>
        <path class="cls-4" d="m317.22,206.49c-1.17-.66-2.1-1.57-2.79-2.74-.68-1.17-1.03-2.5-1.03-3.96s.34-2.79,1.03-3.95c.68-1.17,1.61-2.08,2.79-2.73,1.17-.66,2.46-.98,3.86-.98s2.7.33,3.88.98c1.17.66,2.1,1.57,2.78,2.73s1.02,2.48,1.02,3.95-.34,2.79-1.02,3.96c-.68,1.17-1.6,2.09-2.78,2.74-1.17.66-2.47.98-3.88.98s-2.68-.33-3.86-.98Zm6.51-1.84c.78-.45,1.39-1.1,1.83-1.94.44-.84.66-1.82.66-2.93s-.22-2.08-.66-2.92c-.44-.83-1.05-1.48-1.83-1.92-.78-.45-1.66-.67-2.66-.67s-1.88.22-2.66.67c-.78.45-1.39,1.09-1.83,1.92-.44.84-.66,1.81-.66,2.92s.22,2.08.66,2.93c.44.84,1.05,1.49,1.83,1.94.78.45,1.66.68,2.66.68s1.88-.23,2.66-.68Z"/>
        <path class="cls-4" d="m345.66,207.32h-2.46l-7.41-11.21v11.21h-2.46v-15.03h2.46l7.41,11.19v-11.19h2.46v15.03Z"/>
        <path class="cls-4" d="m361.92,196.63c-.39-.75-.93-1.31-1.62-1.7-.69-.38-1.49-.57-2.4-.57-.99,0-1.88.22-2.66.67-.78.45-1.39,1.08-1.83,1.9-.44.82-.66,1.77-.66,2.85s.22,2.03.66,2.86c.44.83,1.05,1.47,1.83,1.91.78.45,1.66.67,2.66.67,1.34,0,2.43-.37,3.26-1.12s1.35-1.76,1.53-3.05h-5.64v-1.97h8.27v1.92c-.16,1.17-.57,2.24-1.24,3.22-.67.98-1.54,1.76-2.61,2.34-1.07.58-2.26.87-3.58.87-1.41,0-2.7-.33-3.87-.98s-2.09-1.57-2.78-2.73c-.68-1.17-1.03-2.48-1.03-3.95s.34-2.79,1.03-3.95c.68-1.17,1.61-2.08,2.79-2.73s2.46-.98,3.86-.98c1.6,0,3.02.39,4.27,1.18,1.25.79,2.15,1.9,2.71,3.34h-2.96Z"/>
        <path class="cls-4" d="m302.92,226.87c-.81-.35-1.44-.85-1.9-1.5-.46-.65-.69-1.4-.69-2.27h2.64c.06.65.31,1.18.77,1.6.45.42,1.09.63,1.91.63s1.51-.21,1.99-.62c.48-.41.71-.94.71-1.59,0-.5-.15-.91-.44-1.23-.3-.32-.66-.56-1.1-.73-.44-.17-1.05-.36-1.83-.56-.98-.26-1.77-.52-2.39-.79-.61-.27-1.13-.68-1.57-1.24-.43-.56-.65-1.31-.65-2.25,0-.86.22-1.62.65-2.27.43-.65,1.04-1.14,1.81-1.49.78-.35,1.68-.52,2.7-.52,1.45,0,2.65.36,3.57,1.09.93.73,1.44,1.72,1.54,2.99h-2.72c-.04-.55-.3-1.02-.78-1.4-.48-.39-1.1-.58-1.88-.58-.71,0-1.28.18-1.73.54-.45.36-.67.88-.67,1.56,0,.46.14.84.42,1.13s.64.53,1.07.7,1.02.36,1.77.56c.99.27,1.8.55,2.43.82s1.16.69,1.6,1.26c.44.57.66,1.33.66,2.28,0,.76-.21,1.48-.62,2.16-.41.68-1.01,1.22-1.79,1.63-.78.41-1.71.62-2.78.62-1.01,0-1.92-.18-2.72-.53Z"/>
        <path class="cls-4" d="m327.89,212.23v15.01h-2.46v-6.57h-7.06v6.57h-2.46v-15.01h2.46v6.44h7.06v-6.44h2.46Z"/>
        <path class="cls-4" d="m342.34,224.18h-6.29l-1.08,3.07h-2.57l5.38-15.03h2.85l5.38,15.03h-2.59l-1.08-3.07Zm-.69-2.01l-2.44-6.98-2.46,6.98h4.9Z"/>
        <path class="cls-4" d="m362.84,227.24h-2.46l-7.41-11.21v11.21h-2.46v-15.03h2.46l7.41,11.19v-11.19h2.46v15.03Z"/>
      </g>
      <g>
        <path class="cls-4" d="m302.89,238c.9.46,1.59,1.12,2.07,1.97.48.85.72,1.86.72,3.01s-.24,2.16-.72,3.01c-.48.85-1.17,1.5-2.07,1.94-.9.45-1.97.67-3.2.67h-3.52v-11.29h3.52c1.23,0,2.3.23,3.2.69Zm.14,8.23c.77-.77,1.15-1.85,1.15-3.25s-.39-2.5-1.16-3.29c-.77-.79-1.88-1.18-3.33-1.18h-2.04v8.88h2.04c1.46,0,2.57-.39,3.34-1.16Z"/>
        <path class="cls-4" d="m310.27,237.99c-.19-.19-.29-.43-.29-.71s.1-.52.29-.71.43-.29.71-.29.5.1.69.29.28.43.28.71-.09.52-.28.71-.42.29-.69.29-.52-.1-.71-.29Zm1.43,1.73v8.88h-1.47v-8.88h1.47Z"/>
        <path class="cls-4" d="m318.11,248.4c-.54-.23-.97-.56-1.28-.97-.31-.42-.49-.89-.52-1.43h1.52c.04.44.25.8.62,1.09.37.28.86.42,1.47.42.56,0,1-.12,1.33-.37.32-.25.49-.56.49-.94s-.17-.68-.52-.87-.88-.38-1.6-.56c-.66-.17-1.2-.35-1.61-.53-.42-.18-.77-.44-1.07-.79-.3-.35-.45-.81-.45-1.39,0-.45.14-.87.41-1.25.27-.38.65-.68,1.15-.9.5-.22,1.06-.33,1.7-.33.98,0,1.78.25,2.38.75.6.5.93,1.18.97,2.04h-1.47c-.03-.46-.22-.84-.56-1.12-.34-.28-.8-.42-1.37-.42-.53,0-.95.11-1.26.34-.31.23-.47.52-.47.89,0,.29.09.53.28.72s.43.34.71.45c.29.11.68.24,1.19.38.64.17,1.16.34,1.56.51.4.17.74.42,1.03.75.29.33.43.77.45,1.31,0,.49-.14.92-.41,1.31s-.65.69-1.14.92c-.49.22-1.06.33-1.69.33-.68,0-1.29-.12-1.83-.35Z"/>
        <path class="cls-4" d="m329.65,240.94v5.23c0,.43.09.74.28.92s.5.27.96.27h1.08v1.25h-1.33c-.82,0-1.44-.19-1.85-.57-.41-.38-.62-1-.62-1.86v-5.23h-1.15v-1.21h1.15v-2.24h1.47v2.24h2.32v1.21h-2.32Z"/>
        <path class="cls-4" d="m338.92,239.98c.48-.28,1.07-.42,1.76-.42v1.52h-.39c-1.65,0-2.48.9-2.48,2.69v4.83h-1.47v-8.88h1.47v1.44c.26-.51.63-.9,1.11-1.18Z"/>
        <path class="cls-4" d="m345.02,237.99c-.19-.19-.29-.43-.29-.71s.1-.52.29-.71.43-.29.71-.29.5.1.69.29c.19.19.28.43.28.71s-.09.52-.28.71c-.19.19-.42.29-.69.29s-.52-.1-.71-.29Zm1.43,1.73v8.88h-1.47v-8.88h1.47Z"/>
        <path class="cls-4" d="m351.55,241.74c.37-.69.88-1.22,1.53-1.6.65-.38,1.4-.57,2.24-.57,1.09,0,1.99.26,2.7.79.71.53,1.17,1.26,1.4,2.2h-1.59c-.15-.54-.45-.97-.88-1.28-.44-.31-.98-.47-1.63-.47-.84,0-1.52.29-2.04.87-.52.58-.78,1.4-.78,2.45s.26,1.9.78,2.48c.52.58,1.2.88,2.04.88.65,0,1.19-.15,1.62-.45.43-.3.73-.73.89-1.3h1.59c-.24.91-.71,1.63-1.43,2.18s-1.6.82-2.67.82c-.84,0-1.59-.19-2.24-.57-.65-.38-1.16-.91-1.53-1.6-.37-.69-.55-1.5-.55-2.43s.18-1.72.55-2.41Z"/>
        <path class="cls-4" d="m365.76,240.94v5.23c0,.43.09.74.28.92s.5.27.96.27h1.09v1.25h-1.33c-.82,0-1.44-.19-1.85-.57s-.62-1-.62-1.86v-5.23h-1.15v-1.21h1.15v-2.24h1.47v2.24h2.32v1.21h-2.32Z"/>
      </g>
    </g>
  </g>
  <g id="_zhongzheng_block_" data-name="&amp;lt;zhongzheng_block&amp;gt;">
    <path class="cls-6" d="m144.37,313.19H14.25c-7.87,0-14.25,6.38-14.25,14.25v65.43c0,8.15,1.49,16.23,4.38,23.84l27.13,71.3c2.1,5.53,7.4,9.18,13.32,9.18h91.07c10.24,0,17.13-10.47,13.09-19.87l-26.82-62.44c-3.1-7.53-2.53-16.07,1.54-23.13l32.99-57.2c5.48-9.5-1.38-21.37-12.34-21.37"/>
    <g id="_zhongzheng_dist_" data-name="&amp;lt;zhongzheng_dist&amp;gt;">
      <g>
        <path class="cls-4" d="m51.18,364.28v8.61h-1.75v-.97h-4.68v5.73h-1.75v-5.73h-4.66v1.06h-1.67v-8.7h6.34v-3.13h1.75v3.13h6.43Zm-8.17,6v-4.36h-4.66v4.36h4.66Zm6.43,0v-4.36h-4.68v4.36h4.68Z"/>
        <path class="cls-4" d="m76.47,375.28v1.62h-16.12v-1.62h2.34v-8.21h1.73v8.21h3.58v-11.27h-7v-1.64h14.91v1.64h-6.14v4.41h5.37v1.62h-5.37v5.24h6.7Z"/>
        <path class="cls-4" d="m97.63,375.36c1.04,0,2.43-.07,3.11-.22.05.43.16,1.21.25,1.58-.56.14-2.02.18-3.42.18h-7.54c-2.93,0-4.3-.92-4.3-3.82v-9.72h-.72v-1.48h15.11v1.48h-12.75v9.85c0,1.53.61,2.14,2.5,2.14h7.76Zm-9.11-5.85h4.77v4.7h-4.77v-4.7Zm1.37,3.51h1.96v-2.32h-1.96v2.32Zm7.35-4.54h-6.81v-4.09h6.81v4.09Zm-1.66-2.95h-3.6v1.8h3.6v-1.8Zm3.69,8.68h-4.92v-4.7h4.92v4.7Zm-1.46-3.51h-2.07v2.32h2.07v-2.32Z"/>
      </g>
      <g>
        <path class="cls-4" d="m29.85,405.52h6.98v2.14h-9.89v-1.92l6.96-10.95h-6.96v-2.14h9.89v1.92l-6.98,10.95Z"/>
        <path class="cls-4" d="m53.66,392.65v15.01h-2.46v-6.57h-7.06v6.57h-2.46v-15.01h2.46v6.44h7.06v-6.44h2.46Z"/>
        <path class="cls-4" d="m62.05,406.83c-1.17-.66-2.1-1.57-2.79-2.74-.68-1.17-1.03-2.5-1.03-3.96s.34-2.79,1.03-3.95c.68-1.17,1.61-2.08,2.79-2.73,1.17-.66,2.46-.98,3.86-.98s2.7.33,3.88.98,2.1,1.57,2.78,2.73c.68,1.17,1.02,2.48,1.02,3.95s-.34,2.79-1.02,3.96c-.68,1.17-1.6,2.09-2.78,2.74s-2.47.98-3.88.98-2.68-.33-3.86-.98Zm6.51-1.84c.78-.45,1.39-1.1,1.83-1.94.44-.84.66-1.82.66-2.93s-.22-2.08-.66-2.92c-.44-.83-1.05-1.48-1.83-1.92-.78-.45-1.66-.67-2.66-.67s-1.88.22-2.66.67c-.78.45-1.39,1.09-1.83,1.92-.44.83-.66,1.81-.66,2.92s.22,2.08.66,2.93c.44.84,1.05,1.49,1.83,1.94.78.45,1.66.68,2.66.68s1.88-.23,2.66-.68Z"/>
        <path class="cls-4" d="m90.48,407.66h-2.46l-7.41-11.21v11.21h-2.46v-15.03h2.46l7.41,11.19v-11.19h2.46v15.03Z"/>
        <path class="cls-4" d="m106.73,396.97c-.39-.75-.93-1.31-1.62-1.7-.69-.38-1.49-.57-2.4-.57-.99,0-1.88.22-2.66.67-.78.45-1.39,1.08-1.83,1.9-.44.82-.66,1.77-.66,2.85s.22,2.03.66,2.86c.44.83,1.05,1.46,1.83,1.91.78.45,1.66.67,2.66.67,1.34,0,2.43-.38,3.26-1.12.83-.75,1.35-1.76,1.53-3.05h-5.64v-1.97h8.27v1.92c-.16,1.17-.57,2.24-1.24,3.22-.67.98-1.54,1.76-2.61,2.34s-2.26.88-3.57.88c-1.41,0-2.7-.33-3.87-.98-1.17-.66-2.09-1.57-2.78-2.73-.68-1.17-1.03-2.48-1.03-3.95s.34-2.79,1.03-3.95c.68-1.17,1.61-2.08,2.79-2.73,1.17-.66,2.46-.98,3.86-.98,1.6,0,3.02.39,4.27,1.18,1.25.79,2.15,1.9,2.71,3.34h-2.96Z"/>
        <path class="cls-4" d="m32.64,429.44h6.98v2.14h-9.89v-1.92l6.96-10.95h-6.96v-2.14h9.89v1.92l-6.98,10.95Z"/>
        <path class="cls-4" d="m56.46,416.57v15.01h-2.46v-6.57h-7.06v6.57h-2.46v-15.01h2.46v6.44h7.06v-6.44h2.46Z"/>
        <path class="cls-4" d="m64.33,418.56v4.41h5.18v2.01h-5.18v4.6h5.83v2.01h-8.29v-15.03h8.29v2.01h-5.83Z"/>
        <path class="cls-4" d="m87.67,431.58h-2.46l-7.41-11.21v11.21h-2.46v-15.03h2.46l7.41,11.19v-11.19h2.46v15.03Z"/>
        <path class="cls-4" d="m103.94,420.89c-.39-.75-.93-1.31-1.62-1.7-.69-.38-1.49-.57-2.4-.57-.99,0-1.88.22-2.66.67-.78.45-1.39,1.08-1.83,1.9-.44.82-.66,1.77-.66,2.85s.22,2.03.66,2.86c.44.83,1.05,1.46,1.83,1.91.78.45,1.66.67,2.66.67,1.34,0,2.43-.38,3.26-1.12.83-.75,1.35-1.76,1.53-3.05h-5.64v-1.97h8.27v1.92c-.16,1.17-.57,2.24-1.24,3.22-.67.98-1.54,1.76-2.61,2.34s-2.26.88-3.57.88c-1.41,0-2.7-.33-3.87-.98-1.17-.66-2.09-1.57-2.78-2.73-.68-1.17-1.03-2.48-1.03-3.95s.34-2.79,1.03-3.95c.68-1.17,1.61-2.08,2.79-2.73,1.17-.66,2.46-.98,3.86-.98,1.6,0,3.02.39,4.27,1.18,1.25.79,2.15,1.9,2.71,3.34h-2.96Z"/>
      </g>
      <g>
        <path class="cls-4" d="m39.52,443.7c.9.46,1.59,1.12,2.07,1.97.48.85.72,1.86.72,3.01s-.24,2.16-.72,3c-.48.85-1.17,1.5-2.07,1.94-.9.45-1.97.67-3.2.67h-3.52v-11.29h3.52c1.23,0,2.3.23,3.2.69Zm.14,8.23c.77-.77,1.15-1.85,1.15-3.25s-.39-2.5-1.16-3.29c-.77-.79-1.88-1.18-3.33-1.18h-2.04v8.88h2.04c1.46,0,2.57-.39,3.34-1.16Z"/>
        <path class="cls-4" d="m46.9,443.69c-.19-.19-.29-.43-.29-.71s.1-.52.29-.71.43-.29.71-.29.5.1.69.29.28.43.28.71-.09.52-.28.71-.42.29-.69.29-.52-.1-.71-.29Zm1.43,1.73v8.88h-1.47v-8.88h1.47Z"/>
        <path class="cls-4" d="m54.74,454.1c-.54-.23-.97-.56-1.28-.97-.31-.42-.49-.89-.52-1.43h1.52c.04.44.25.8.62,1.09s.86.42,1.47.42c.56,0,1-.12,1.33-.37.32-.25.49-.56.49-.94s-.17-.68-.52-.87c-.35-.19-.88-.38-1.6-.56-.66-.17-1.2-.35-1.61-.53-.42-.18-.77-.44-1.07-.79-.3-.35-.45-.81-.45-1.39,0-.45.14-.87.41-1.25.27-.38.65-.68,1.15-.9.5-.22,1.06-.33,1.7-.33.98,0,1.78.25,2.38.75.6.5.93,1.18.97,2.04h-1.47c-.03-.46-.22-.84-.56-1.12s-.8-.42-1.37-.42c-.53,0-.95.11-1.26.34-.31.23-.47.52-.47.89,0,.29.09.53.28.72.19.19.43.34.71.45s.68.24,1.19.38c.64.17,1.16.34,1.56.51.4.17.74.42,1.03.75s.43.77.45,1.31c0,.49-.14.92-.41,1.31s-.65.69-1.14.92c-.49.22-1.06.33-1.69.33-.68,0-1.29-.12-1.83-.35Z"/>
        <path class="cls-4" d="m66.27,446.64v5.23c0,.43.09.74.28.92.18.18.5.27.96.27h1.09v1.25h-1.33c-.82,0-1.44-.19-1.85-.57-.41-.38-.62-1-.62-1.86v-5.23h-1.15v-1.21h1.15v-2.24h1.47v2.24h2.32v1.21h-2.32Z"/>
        <path class="cls-4" d="m75.55,445.68c.48-.28,1.07-.42,1.76-.42v1.52h-.39c-1.65,0-2.48.9-2.48,2.69v4.83h-1.47v-8.88h1.47v1.44c.26-.51.63-.9,1.11-1.18Z"/>
        <path class="cls-4" d="m81.65,443.69c-.19-.19-.29-.43-.29-.71s.1-.52.29-.71.43-.29.71-.29.5.1.69.29.28.43.28.71-.09.52-.28.71-.42.29-.69.29-.52-.1-.71-.29Zm1.43,1.73v8.88h-1.47v-8.88h1.47Z"/>
        <path class="cls-4" d="m88.18,447.44c.37-.69.88-1.22,1.53-1.6.65-.38,1.4-.57,2.24-.57,1.09,0,1.99.26,2.7.79s1.17,1.26,1.4,2.2h-1.59c-.15-.54-.45-.97-.88-1.28-.44-.31-.98-.47-1.63-.47-.84,0-1.52.29-2.04.87-.52.58-.78,1.4-.78,2.45s.26,1.9.78,2.48c.52.58,1.2.88,2.04.88.65,0,1.19-.15,1.62-.45.43-.3.73-.73.89-1.3h1.59c-.24.91-.71,1.63-1.43,2.18-.71.54-1.6.82-2.67.82-.84,0-1.59-.19-2.24-.57-.65-.38-1.16-.91-1.53-1.6-.37-.69-.55-1.5-.55-2.43s.18-1.72.55-2.41Z"/>
        <path class="cls-4" d="m102.38,446.64v5.23c0,.43.09.74.28.92.18.18.5.27.96.27h1.09v1.25h-1.33c-.82,0-1.44-.19-1.85-.57-.41-.38-.62-1-.62-1.86v-5.23h-1.15v-1.21h1.15v-2.24h1.47v2.24h2.32v1.21h-2.32Z"/>
      </g>
    </g>
  </g>
  <g id="_daan_block_" data-name="&amp;lt;daan_block&amp;gt;">
    <path class="cls-7" d="m320.62,398.04l23.91-41.3c1.27-2.19,1.94-4.68,1.94-7.22v-21.08c0-7.89-6.33-14.29-14.14-14.29h-136.02c-5.02,0-9.66,2.69-12.2,7.07l-44.47,76.81c-2.23,3.85-2.55,8.52-.88,12.65l32.13,79.13c2.18,5.36,7.34,8.86,13.08,8.86h150.42c10.06,0,16.9-10.31,13.08-19.72l-27.73-68.28c-1.67-4.12-1.35-8.8.88-12.65"/>
    <g id="_daan_dist_" data-name="&amp;lt;daan_dist&amp;gt;">
      <g>
        <path class="cls-4" d="m216.34,383.08c1.22,3.75,3.49,6.79,6.9,8.21-.41.36-.97,1.06-1.24,1.57-3.37-1.57-5.55-4.48-6.95-8.3-.92,3.26-2.86,6.37-6.95,8.3-.27-.45-.81-1.04-1.28-1.4,4.29-1.87,6.03-5.11,6.75-8.37h-6.39v-1.73h6.7c.22-1.8.2-3.53.22-4.97h1.82c-.02,1.46-.04,3.19-.25,4.97h7.26v1.73h-6.57Z"/>
        <path class="cls-4" d="m246.33,385.09c-.47,1.48-1.08,2.68-1.91,3.69,2.03.86,3.92,1.8,5.24,2.63l-1.26,1.48c-1.26-.86-3.17-1.87-5.29-2.81-1.84,1.48-4.36,2.32-7.74,2.84-.16-.43-.68-1.24-1.04-1.67,2.97-.34,5.22-.94,6.88-2-1.64-.67-3.31-1.26-4.83-1.75.49-.68,1.04-1.51,1.57-2.41h-3.71v-1.58h4.61c.54-1.01,1.01-2.05,1.35-2.99l1.91.36c-.32.85-.74,1.75-1.19,2.63h3.84c.11-.52.2-1.12.27-1.71l2.03.16c-.09.54-.18,1.06-.29,1.55h3.08v1.58h-3.51Zm-9.99-2.95h-1.69v-3.78h6.54c-.23-.54-.52-1.19-.76-1.69l1.84-.45c.34.67.77,1.51,1.04,2.14h6.1v3.78h-1.78v-2.21h-11.29v2.21Zm3.71,2.95c-.34.59-.67,1.15-.99,1.66,1.17.4,2.39.83,3.58,1.3.76-.79,1.3-1.76,1.69-2.95h-4.29Z"/>
        <path class="cls-4" d="m273.76,390.58c1.04,0,2.43-.07,3.11-.22.05.43.16,1.21.25,1.58-.56.14-2.02.18-3.42.18h-7.54c-2.93,0-4.3-.92-4.3-3.82v-9.72h-.72v-1.48h15.11v1.48h-12.75v9.85c0,1.53.61,2.14,2.5,2.14h7.76Zm-9.11-5.85h4.77v4.7h-4.77v-4.7Zm1.37,3.51h1.96v-2.32h-1.96v2.32Zm7.35-4.54h-6.81v-4.09h6.81v4.09Zm-1.66-2.95h-3.6v1.8h3.6v-1.8Zm3.69,8.68h-4.92v-4.7h4.92v4.7Zm-1.46-3.51h-2.07v2.32h2.07v-2.32Z"/>
      </g>
      <g>
        <path class="cls-4" d="m217.95,407.42c1.2.61,2.13,1.49,2.79,2.63.66,1.15.98,2.48.98,4.01s-.33,2.85-.98,3.97-1.58,1.98-2.79,2.58c-1.2.6-2.6.9-4.2.9h-4.9v-15.01h4.9c1.6,0,3,.31,4.2.92Zm-.16,10.66c.94-.95,1.4-2.29,1.4-4.02s-.47-3.1-1.4-4.08c-.94-.98-2.28-1.47-4.04-1.47h-2.44v10.99h2.44c1.76,0,3.1-.47,4.04-1.43Z"/>
        <path class="cls-4" d="m235.35,418.45h-6.29l-1.08,3.07h-2.57l5.38-15.03h2.85l5.38,15.03h-2.59l-1.08-3.07Zm-.69-2.01l-2.44-6.98-2.46,6.98h4.9Z"/>
        <path class="cls-4" d="m252.55,418.45h-6.29l-1.08,3.07h-2.57l5.38-15.03h2.85l5.38,15.03h-2.59l-1.08-3.07Zm-.69-2.01l-2.44-6.98-2.46,6.98h4.9Z"/>
        <path class="cls-4" d="m273.02,421.52h-2.46l-7.41-11.21v11.21h-2.46v-15.03h2.46l7.41,11.19v-11.19h2.46v15.03Z"/>
      </g>
      <g>
        <path class="cls-4" d="m213.13,431.37c.9.46,1.59,1.12,2.07,1.97.48.85.72,1.86.72,3.01s-.24,2.16-.72,3.01c-.48.85-1.17,1.5-2.07,1.94-.9.45-1.97.67-3.2.67h-3.52v-11.29h3.52c1.23,0,2.3.23,3.2.69Zm.14,8.23c.77-.77,1.15-1.85,1.15-3.25s-.39-2.5-1.16-3.29-1.88-1.18-3.33-1.18h-2.04v8.88h2.04c1.46,0,2.57-.39,3.34-1.16Z"/>
        <path class="cls-4" d="m220.51,431.36c-.19-.19-.29-.43-.29-.71s.1-.52.29-.71.43-.29.71-.29.5.1.69.29.28.43.28.71-.09.52-.28.71-.42.29-.69.29-.52-.1-.71-.29Zm1.43,1.73v8.88h-1.47v-8.88h1.47Z"/>
        <path class="cls-4" d="m228.35,441.77c-.54-.23-.97-.56-1.28-.97-.31-.42-.49-.89-.52-1.43h1.52c.04.44.25.8.62,1.08.37.28.86.42,1.47.42.56,0,1-.12,1.33-.37.32-.25.49-.56.49-.94s-.17-.68-.52-.87c-.35-.19-.88-.38-1.6-.56-.66-.17-1.2-.35-1.61-.53-.42-.18-.77-.44-1.07-.79-.3-.35-.45-.81-.45-1.38,0-.45.14-.87.41-1.25.27-.38.65-.68,1.15-.9s1.06-.33,1.7-.33c.98,0,1.78.25,2.38.75s.93,1.18.97,2.04h-1.47c-.03-.46-.22-.84-.56-1.12-.34-.28-.8-.42-1.37-.42-.53,0-.95.11-1.26.34-.31.23-.47.52-.47.89,0,.29.09.53.28.72.19.19.43.34.71.45.29.11.68.24,1.19.38.64.17,1.16.34,1.56.51.4.17.74.42,1.03.75.29.33.43.77.45,1.31,0,.49-.14.92-.41,1.31s-.65.69-1.14.92c-.49.22-1.06.33-1.69.33-.68,0-1.29-.12-1.83-.35Z"/>
        <path class="cls-4" d="m239.88,434.31v5.23c0,.43.09.74.28.92.18.18.5.27.96.27h1.09v1.25h-1.33c-.82,0-1.44-.19-1.85-.57-.41-.38-.62-1-.62-1.86v-5.23h-1.15v-1.21h1.15v-2.24h1.47v2.24h2.32v1.21h-2.32Z"/>
        <path class="cls-4" d="m249.16,433.35c.48-.28,1.07-.42,1.76-.42v1.52h-.39c-1.65,0-2.48.9-2.48,2.69v4.83h-1.47v-8.88h1.47v1.44c.26-.51.63-.9,1.11-1.18Z"/>
        <path class="cls-4" d="m255.26,431.36c-.19-.19-.29-.43-.29-.71s.1-.52.29-.71.43-.29.71-.29.5.1.69.29.28.43.28.71-.09.52-.28.71-.42.29-.69.29-.52-.1-.71-.29Zm1.43,1.73v8.88h-1.47v-8.88h1.47Z"/>
        <path class="cls-4" d="m261.79,435.11c.37-.69.88-1.22,1.53-1.6.65-.38,1.4-.57,2.24-.57,1.09,0,1.99.26,2.7.79s1.17,1.26,1.4,2.2h-1.59c-.15-.54-.45-.97-.88-1.28-.44-.31-.98-.47-1.63-.47-.84,0-1.52.29-2.04.87-.52.58-.78,1.4-.78,2.45s.26,1.9.78,2.48c.52.58,1.2.88,2.04.88.65,0,1.19-.15,1.62-.45.43-.3.73-.73.89-1.3h1.59c-.24.91-.71,1.63-1.43,2.18-.71.55-1.6.82-2.67.82-.84,0-1.59-.19-2.24-.57-.65-.38-1.16-.91-1.53-1.6-.37-.69-.55-1.5-.55-2.43s.18-1.72.55-2.41Z"/>
        <path class="cls-4" d="m275.99,434.31v5.23c0,.43.09.74.28.92.18.18.5.27.96.27h1.09v1.25h-1.33c-.82,0-1.44-.19-1.85-.57-.41-.38-.62-1-.62-1.86v-5.23h-1.15v-1.21h1.15v-2.24h1.47v2.24h2.32v1.21h-2.32Z"/>
      </g>
    </g>
  </g>
  <g id="_xinyi_block_" data-name="&amp;lt;xinyi_block&amp;gt;">
    <path class="cls-6" d="m554.86,410.03l-44.48,79.85c-2.52,4.51-7.28,7.32-12.45,7.32h-114.78c-5.78,0-10.99-3.49-13.18-8.84l-32.39-78.91c-1.69-4.11-1.36-8.77.88-12.61l24.1-41.18c1.28-2.18,1.95-4.67,1.95-7.2v-21.01c0-7.87,6.38-14.25,14.25-14.25h119.37c5.06,0,9.74,2.68,12.3,7.05l44.28,75.65c2.55,4.35,2.6,9.73.15,14.13"/>
    <g id="_xinyi_dist_" data-name="&amp;lt;xinyi_dist&amp;gt;">
      <g>
        <path class="cls-4" d="m422.14,414.02l4.67,7.5h-2.76l-3.39-5.44-3.18,5.44h-2.74l4.67-7.5-4.69-7.52h2.76l3.41,5.49,3.2-5.49h2.74l-4.69,7.52Z"/>
        <path class="cls-4" d="m434.13,406.51v15.01h-2.46v-15.01h2.46Z"/>
        <path class="cls-4" d="m451.86,421.52h-2.46l-7.41-11.21v11.21h-2.46v-15.03h2.46l7.41,11.19v-11.19h2.46v15.03Z"/>
        <path class="cls-4" d="m468.37,406.51l-4.97,9.57v5.44h-2.46v-5.44l-4.99-9.57h2.74l3.48,7.37,3.48-7.37h2.72Z"/>
        <path class="cls-4" d="m474.91,406.51v15.01h-2.46v-15.01h2.46Z"/>
      </g>
      <g>
        <path class="cls-4" d="m417.61,376.99c-.41,1.13-.92,2.3-1.46,3.4v12.64h-1.53v-9.97c-.49.76-1.01,1.42-1.51,2.02-.16-.36-.63-1.22-.9-1.6,1.57-1.69,3.01-4.32,3.89-6.93l1.51.45Zm11.05,2.36v1.37h-11.42v-1.37h5.28c-.25-.65-.76-1.62-1.21-2.34l1.44-.56c.49.72,1.03,1.69,1.3,2.34l-1.3.56h5.91Zm-10.39,7.8h9.22v5.78h-1.48v-.59h-6.32v.65h-1.42v-5.83Zm9.02-3.85h-8.77v-1.33h8.77v1.33Zm-8.77,1.21h8.77v1.33h-8.77v-1.33Zm1.17,4v2.49h6.32v-2.49h-6.32Z"/>
        <path class="cls-4" d="m451.82,388.48c-.59.79-1.39,1.48-2.29,2.09.59.58,1.24.9,1.91.88.47,0,.59-.38.68-1.53.32.27.85.54,1.26.65-.25,1.95-.77,2.41-2.04,2.41s-2.32-.58-3.21-1.57c-1.21.63-2.54,1.15-3.83,1.55-.16-.32-.58-1.03-.86-1.33,1.33-.31,2.68-.76,3.87-1.35-.41-.68-.76-1.5-1.03-2.38h-3.87v.97c.97-.07,1.98-.14,2.97-.22v1.17c-.99.09-2,.18-2.97.25v1.35c0,.81-.18,1.17-.77,1.35-.58.2-1.46.22-2.81.22-.09-.4-.31-.94-.49-1.31.9.05,1.85.05,2.09.04.29,0,.36-.07.36-.32v-1.17l-3.6.29-.14-1.3c1.03-.05,2.32-.13,3.75-.23v-1.08h-3.67v-1.28h3.67v-1.01c-1.04.11-2.09.18-3.06.22-.05-.29-.2-.76-.36-1.04,2.38-.13,5.19-.43,6.77-.83l.99,1.01c-.79.2-1.73.34-2.72.49v1.17h3.55c-.16-.77-.27-1.62-.32-2.49h1.62c.04.88.14,1.71.32,2.49h3.6c-.61-.52-1.87-1.22-2.9-1.66l.94-.97c1.03.38,2.3,1.03,2.95,1.58l-.95,1.04h1.89v1.28h-5.15c.2.59.45,1.13.74,1.6.68-.45,1.26-.95,1.69-1.51l1.42.49Zm1.22-4.59h-15.9v-1.31h7.06v-.92h-5.31v-1.21h5.31v-.92h-6.27v-1.26h3.46c-.22-.43-.54-.92-.86-1.31l1.46-.49c.5.5.97,1.26,1.19,1.76l-.09.04h4c.32-.54.74-1.31.95-1.84l1.82.4c-.36.52-.7,1.03-1.03,1.44h3.44v1.26h-6.36v.92h5.4v1.21h-5.4v.92h7.13v1.31Z"/>
        <path class="cls-4" d="m474.32,390.69c1.04,0,2.43-.07,3.12-.22.05.43.16,1.21.25,1.58-.56.14-2.02.18-3.42.18h-7.54c-2.93,0-4.3-.92-4.3-3.82v-9.72h-.72v-1.48h15.11v1.48h-12.75v9.85c0,1.53.61,2.14,2.5,2.14h7.76Zm-9.11-5.85h4.77v4.7h-4.77v-4.7Zm1.37,3.51h1.96v-2.32h-1.96v2.32Zm7.35-4.54h-6.81v-4.09h6.81v4.09Zm-1.66-2.95h-3.6v1.8h3.6v-1.8Zm3.69,8.68h-4.92v-4.7h4.92v4.7Zm-1.46-3.51h-2.07v2.32h2.07v-2.32Z"/>
      </g>
      <g>
        <path class="cls-4" d="m416.21,431.51c.9.46,1.59,1.12,2.07,1.97.48.85.72,1.86.72,3.01s-.24,2.16-.72,3-1.17,1.5-2.07,1.94c-.9.45-1.97.67-3.2.67h-3.51v-11.29h3.51c1.23,0,2.3.23,3.2.69Zm.14,8.23c.77-.77,1.15-1.85,1.15-3.25s-.39-2.5-1.16-3.29c-.77-.79-1.88-1.18-3.33-1.18h-2.04v8.88h2.04c1.46,0,2.57-.39,3.34-1.16Z"/>
        <path class="cls-4" d="m423.58,431.51c-.19-.19-.29-.43-.29-.71s.1-.52.29-.71.43-.29.71-.29.5.1.69.29c.19.19.28.43.28.71s-.09.52-.28.71c-.19.19-.42.29-.69.29s-.52-.1-.71-.29Zm1.43,1.73v8.88h-1.47v-8.88h1.47Z"/>
        <path class="cls-4" d="m431.42,441.91c-.54-.23-.97-.56-1.28-.97-.31-.42-.49-.89-.52-1.43h1.52c.04.44.25.8.62,1.09.37.28.86.42,1.47.42.56,0,1-.12,1.33-.37.32-.25.49-.56.49-.94s-.17-.68-.52-.87c-.35-.19-.88-.38-1.6-.56-.66-.17-1.2-.35-1.61-.53-.42-.18-.77-.44-1.07-.79-.3-.35-.45-.81-.45-1.39,0-.45.14-.87.41-1.25s.65-.68,1.15-.9c.5-.22,1.06-.33,1.7-.33.98,0,1.78.25,2.38.75.61.5.93,1.18.97,2.04h-1.47c-.03-.46-.22-.84-.56-1.12-.34-.28-.8-.42-1.37-.42-.53,0-.95.11-1.26.34s-.47.52-.47.89c0,.29.09.53.28.72.19.19.43.34.71.45s.68.24,1.19.38c.64.17,1.16.34,1.56.51.4.17.74.42,1.03.75s.43.77.45,1.31c0,.49-.14.92-.41,1.31-.27.39-.65.69-1.14.92-.49.22-1.06.33-1.69.33-.68,0-1.29-.12-1.83-.35Z"/>
        <path class="cls-4" d="m442.96,434.45v5.23c0,.43.09.74.28.92.18.18.5.27.96.27h1.09v1.25h-1.33c-.82,0-1.44-.19-1.85-.57s-.62-1-.62-1.86v-5.23h-1.15v-1.21h1.15v-2.24h1.47v2.24h2.32v1.21h-2.32Z"/>
        <path class="cls-4" d="m452.23,433.5c.48-.28,1.07-.42,1.76-.42v1.52h-.39c-1.65,0-2.48.9-2.48,2.69v4.83h-1.47v-8.88h1.47v1.44c.26-.51.63-.9,1.11-1.18Z"/>
        <path class="cls-4" d="m458.33,431.51c-.19-.19-.29-.43-.29-.71s.1-.52.29-.71.43-.29.71-.29.5.1.69.29c.19.19.28.43.28.71s-.09.52-.28.71c-.19.19-.42.29-.69.29s-.52-.1-.71-.29Zm1.43,1.73v8.88h-1.47v-8.88h1.47Z"/>
        <path class="cls-4" d="m464.86,435.26c.37-.69.88-1.22,1.53-1.6.65-.38,1.4-.57,2.24-.57,1.09,0,1.99.26,2.7.79.71.53,1.17,1.26,1.4,2.2h-1.59c-.15-.54-.45-.97-.88-1.28-.44-.31-.98-.47-1.63-.47-.84,0-1.52.29-2.04.87-.52.58-.78,1.4-.78,2.45s.26,1.9.78,2.48c.52.58,1.2.88,2.04.88.65,0,1.19-.15,1.62-.45.43-.3.73-.73.89-1.3h1.59c-.24.91-.71,1.63-1.43,2.18-.71.54-1.6.82-2.67.82-.84,0-1.59-.19-2.24-.57-.65-.38-1.16-.91-1.53-1.6s-.55-1.5-.55-2.43.18-1.72.55-2.41Z"/>
        <path class="cls-4" d="m479.07,434.45v5.23c0,.43.09.74.28.92.18.18.5.27.96.27h1.08v1.25h-1.33c-.82,0-1.44-.19-1.85-.57-.41-.38-.62-1-.62-1.86v-5.23h-1.15v-1.21h1.15v-2.24h1.47v2.24h2.32v1.21h-2.32Z"/>
      </g>
    </g>
  </g>
  <g id="_nanjing_line_" data-name="&amp;lt;nanjing_line&amp;gt;">
    <line class="cls-5" x1="326.52" y1="273.35" x2="494.81" y2="273.35"/>
    <circle class="cls-4" cx="326.52" cy="273.35" r="3.66"/>
  </g>
  <g id="_dongmen_line_" data-name="&amp;lt;dongmen_line&amp;gt;">
    <line class="cls-5" x1="174.33" y1="385.73" x2="174.33" y2="517.57"/>
    <circle class="cls-4" cx="174.33" cy="385.73" r="3.66"/>
  </g>
  <g id="_zhongxiao_line_" data-name="&amp;lt;zhongxiao_line&amp;gt;">
    <line class="cls-5" x1="295.67" y1="343.16" x2="550.93" y2="343.16"/>
    <ellipse class="cls-4" cx="295.67" cy="343.16" rx="3.58" ry="3.66"/>
  </g>
  <g id="_xinyianhe_line_" data-name="&amp;lt;xinyianhe_line&amp;gt;">
    <line class="cls-5" x1="307.73" y1="455.53" x2="307.73" y2="564.77"/>
    <ellipse class="cls-4" cx="307.73" cy="455.53" rx="3.66" ry="3.89"/>
  </g>
  <g id="uuid-35d32ce8-055a-427d-9736-e71fcd3f2a33">
    <rect class="cls-1" x="494.81" y="251.05" width="134.63" height="44.6" rx="22.3" ry="22.3"/>
    <g id="_nanjing_button_o_" data-name="&amp;lt;nanjing_button_o&amp;gt;">
      <g>
        <path class="cls-4" d="m533.18,261.06c-.07.54-.15,1.06-.24,1.53h6.18v9.17c0,.84-.22,1.23-.81,1.45-.59.24-1.57.24-2.9.24-.1-.39-.34-.98-.55-1.35.96.05,1.99.03,2.27.02.3,0,.39-.08.39-.35v-7.73h-10v9.41h-1.57v-10.86h5.47c.05-.45.13-.99.19-1.53h-6.45v-1.46h6.6c.05-.56.08-1.09.1-1.56l1.72.17c-.05.45-.12.93-.19,1.4h6.48v1.46h-6.7Zm.03,9.26v2.76h-1.48v-2.76h-3.38v-1.26h3.38v-1.45h-3.03v-1.23h1.55c-.13-.56-.47-1.31-.79-1.87l1.23-.32c.37.59.72,1.4.88,1.92l-.89.27h2.76c.29-.67.64-1.6.81-2.24l1.41.32c-.29.66-.57,1.33-.86,1.92h1.6v1.23h-3.18v1.45h3.5v1.26h-3.5Z"/>
        <path class="cls-4" d="m559.06,269.22c-.88,1.33-2.17,2.81-3.33,3.8-.27-.32-.81-.76-1.13-.99,1.08-.89,2.32-2.26,2.93-3.35l1.53.54Zm10.37-9.19v1.53h-14.61v-1.53h6.7c-.27-.54-.59-1.16-.89-1.65l1.51-.49c.44.64.96,1.51,1.23,2.14h6.06Zm-6.41,7.67v4.06c0,.86-.19,1.28-.83,1.51-.64.24-1.62.24-3.03.24-.08-.45-.32-1.09-.5-1.51.99.03,2.04.03,2.34.02.29,0,.37-.07.37-.29v-4.02h-4.54v-5.02h10.75v5.02h-4.56Zm-4.65-1.35h7.56v-2.31h-7.56v2.31Zm7.98,2.29c1.04,1.06,2.41,2.54,3.05,3.5l-1.38.91c-.59-.94-1.88-2.51-2.96-3.62l1.3-.79Z"/>
        <path class="cls-4" d="m599.2,260v1.48h-12.18v2.81c0,2.64-.25,6.63-1.78,9.21-.29-.27-1.01-.76-1.38-.91,1.43-2.41,1.55-5.87,1.55-8.31v-4.27h6.43c-.2-.54-.47-1.13-.76-1.6l1.55-.35c.4.59.76,1.35.98,1.95h5.6Zm-5.76,3.82h5.29v1.43h-5.29v1.94h4.49v6.06h-1.6v-.62h-6.55v.66h-1.53v-6.09h3.57v-5.17h1.62v1.8Zm2.89,4.81h-6.55v2.59h6.55v-2.59Z"/>
      </g>
    </g>
    <g>
      <path class="cls-4" d="m540.44,287.42h-.9l-3.62-5.49v5.49h-.9v-6.91h.9l3.62,5.48v-5.48h.9v6.91Z"/>
      <path class="cls-4" d="m548.43,285.89h-3.01l-.55,1.53h-.95l2.49-6.86h1.04l2.48,6.86h-.95l-.55-1.53Zm-.26-.73l-1.25-3.48-1.25,3.48h2.5Z"/>
      <path class="cls-4" d="m558.82,287.42h-.9l-3.62-5.49v5.49h-.9v-6.91h.9l3.62,5.48v-5.48h.9v6.91Z"/>
      <path class="cls-4" d="m566.21,280.52v5.1c0,.57-.17,1.02-.52,1.36-.35.34-.81.51-1.39.51s-1.05-.17-1.4-.52c-.35-.35-.52-.82-.52-1.42h.9c0,.34.09.61.26.82.17.21.42.32.76.32s.59-.1.75-.3c.17-.2.25-.46.25-.77v-5.1h.91Z"/>
      <path class="cls-4" d="m571.26,280.52v6.9h-.9v-6.9h.9Z"/>
      <path class="cls-4" d="m580.59,287.42h-.9l-3.62-5.49v5.49h-.9v-6.91h.9l3.62,5.48v-5.48h.9v6.91Z"/>
      <path class="cls-4" d="m589.73,282.52c-.19-.4-.47-.71-.83-.94-.36-.22-.79-.33-1.27-.33s-.92.11-1.3.33-.69.54-.91.95c-.22.41-.33.89-.33,1.43s.11,1.02.33,1.43c.22.41.53.72.91.95s.82.33,1.3.33c.67,0,1.23-.2,1.66-.6.44-.4.69-.95.76-1.63h-2.75v-.73h3.71v.69c-.05.57-.23,1.09-.53,1.56-.3.47-.7.84-1.2,1.12s-1.05.41-1.65.41c-.64,0-1.22-.15-1.75-.45-.53-.3-.95-.72-1.25-1.25-.31-.53-.46-1.14-.46-1.81s.15-1.28.46-1.82c.31-.54.72-.96,1.25-1.26.53-.3,1.11-.45,1.75-.45.73,0,1.38.18,1.95.54.56.36.98.87,1.23,1.53h-1.08Z"/>
    </g>
  </g>
  <g id="uuid-54348c2b-2c95-4854-9cb3-8d6b6f81c1f3">
    <rect class="cls-1" x="550.93" y="320.86" width="134.63" height="44.6" rx="22.3" ry="22.3"/>
    <g id="_nanjing_button_o_-2" data-name="&amp;lt;nanjing_button_o&amp;gt;">
      <g>
        <path class="cls-4" d="m580.81,342.59c.74-1.11,1.43-2.78,1.83-4.09l1.38.54c-.44,1.31-1.08,3.08-1.75,4.21l-1.46-.66Zm6.92-6.19h-5.39v-5.5h5.39v-1.95h1.57v1.95h5.5v5.5h-5.5v1.51h-.66c.79.66,1.7,1.46,2.19,2.04l-1.25.98c-.54-.67-1.62-1.7-2.49-2.42l.81-.59h-.17v-1.51Zm0-1.4v-2.73h-3.87v2.73h3.87Zm2.74,7.56c.79,0,.93-.29,1.01-2.1.37.25,1.04.5,1.48.61-.2,2.37-.67,2.96-2.36,2.96h-3.18c-2,0-2.52-.45-2.52-2.05v-3.47h1.63v3.45c0,.52.15.61,1.06.61h2.88Zm-1.18-10.28v2.73h3.94v-2.73h-3.94Zm4.33,6.11c.86,1.18,2.02,2.81,2.54,3.8l-1.45.79c-.49-1.01-1.56-2.68-2.44-3.92l1.35-.67Z"/>
        <path class="cls-4" d="m619.65,334.93c-.62.45-1.28.88-1.94,1.3h4.49l.35-.07.96.86c-1.13.81-2.62,1.63-4.07,2.24v.19h5.96v1.36h-5.96v1.92c0,.79-.19,1.2-.83,1.4-.61.22-1.55.24-2.91.24-.08-.4-.35-1.03-.59-1.4,1.03.03,2.12.03,2.41.02.29,0,.37-.07.37-.29v-1.88h-5.89v-1.36h5.89v-.76c.83-.3,1.75-.74,2.52-1.21h-4.9c-1.4.74-2.84,1.4-4.27,1.94-.2-.34-.69-.98-.99-1.28,2.36-.81,4.71-1.88,6.82-3.2h-6.46v-1.36h5.67v-1.55h-4.22v-1.35h4.22v-1.73h1.55v1.73h3.55v1.01c.72-.67,1.38-1.38,1.99-2.12l1.3.72c-.96,1.18-2.04,2.27-3.25,3.28h4.22v1.36h-5.99Zm-.54-1.36c.67-.5,1.3-1.01,1.9-1.55h-3.18v1.55h1.28Z"/>
        <path class="cls-4" d="m655.2,330.91v1.48h-12.18v2.81c0,2.64-.25,6.63-1.78,9.21-.29-.27-1.01-.76-1.38-.91,1.43-2.41,1.55-5.87,1.55-8.31v-4.27h6.43c-.2-.54-.47-1.13-.76-1.6l1.55-.35c.4.59.76,1.35.98,1.95h5.6Zm-5.76,3.82h5.29v1.43h-5.29v1.94h4.49v6.06h-1.6v-.62h-6.55v.66h-1.53v-6.09h3.57v-5.17h1.62v1.8Zm2.89,4.81h-6.55v2.59h6.55v-2.59Z"/>
      </g>
    </g>
    <g>
      <path class="cls-4" d="m579.93,356.76h3.37v.78h-4.44v-.71l3.35-5.41h-3.31v-.78h4.38v.71l-3.35,5.41Z"/>
      <path class="cls-4" d="m592.21,350.64v6.9h-.9v-3.13h-3.51v3.13h-.9v-6.9h.9v3.03h3.51v-3.03h.9Z"/>
      <path class="cls-4" d="m597.5,357.16c-.53-.3-.95-.72-1.25-1.26-.31-.54-.46-1.14-.46-1.82s.15-1.28.46-1.82c.31-.54.72-.96,1.25-1.26.53-.3,1.11-.45,1.75-.45s1.23.15,1.76.45c.53.3.94.72,1.25,1.25.3.53.46,1.14.46,1.82s-.15,1.29-.46,1.82c-.3.54-.72.95-1.25,1.25-.53.3-1.12.45-1.76.45s-1.22-.15-1.75-.45Zm3.05-.67c.39-.22.69-.54.91-.96.22-.42.33-.9.33-1.45s-.11-1.04-.33-1.45c-.22-.41-.52-.73-.91-.96-.38-.22-.82-.34-1.31-.34s-.92.11-1.31.34c-.38.22-.68.54-.91.96-.22.41-.33.9-.33,1.45s.11,1.03.33,1.45c.22.42.53.74.91.96.39.22.82.34,1.3.34s.92-.11,1.3-.34Z"/>
      <path class="cls-4" d="m611.71,357.54h-.9l-3.62-5.49v5.49h-.9v-6.91h.9l3.62,5.48v-5.48h.9v6.91Z"/>
      <path class="cls-4" d="m620.84,352.64c-.19-.4-.47-.71-.83-.94-.36-.22-.79-.33-1.27-.33s-.92.11-1.3.33-.69.54-.91.95c-.22.41-.33.89-.33,1.43s.11,1.02.33,1.43c.22.41.53.72.91.95s.82.33,1.3.33c.67,0,1.23-.2,1.66-.6s.69-.95.76-1.63h-2.75v-.73h3.71v.69c-.05.57-.23,1.09-.53,1.56-.3.47-.7.84-1.2,1.12-.5.27-1.05.41-1.65.41-.64,0-1.22-.15-1.75-.45-.53-.3-.95-.72-1.25-1.25-.31-.53-.46-1.14-.46-1.81s.15-1.28.46-1.82c.31-.54.72-.96,1.25-1.26.53-.3,1.11-.45,1.75-.45.73,0,1.38.18,1.95.54.56.36.98.87,1.23,1.53h-1.08Z"/>
      <path class="cls-4" d="m633.54,354.1l2.12,3.45h-1.02l-1.65-2.69-1.57,2.69h-1l2.11-3.45-2.12-3.46h1.01l1.66,2.7,1.58-2.7h1.01l-2.13,3.46Z"/>
      <path class="cls-4" d="m640.14,350.64v6.9h-.9v-6.9h.9Z"/>
      <path class="cls-4" d="m648.13,356.01h-3.01l-.55,1.53h-.95l2.49-6.86h1.04l2.48,6.86h-.95l-.55-1.53Zm-.26-.73l-1.25-3.48-1.25,3.48h2.5Z"/>
      <path class="cls-4" d="m654.48,357.16c-.53-.3-.95-.72-1.25-1.26-.31-.54-.46-1.14-.46-1.82s.15-1.28.46-1.82c.31-.54.72-.96,1.25-1.26.53-.3,1.11-.45,1.75-.45s1.23.15,1.76.45c.53.3.94.72,1.25,1.25.3.53.46,1.14.46,1.82s-.15,1.29-.46,1.82c-.3.54-.72.95-1.25,1.25-.53.3-1.12.45-1.76.45s-1.22-.15-1.75-.45Zm3.05-.67c.39-.22.69-.54.91-.96.22-.42.33-.9.33-1.45s-.11-1.04-.33-1.45c-.22-.41-.52-.73-.91-.96-.38-.22-.82-.34-1.31-.34s-.92.11-1.31.34c-.38.22-.68.54-.91.96-.22.41-.33.9-.33,1.45s.11,1.03.33,1.45c.22.42.53.74.91.96.39.22.82.34,1.3.34s.92-.11,1.3-.34Z"/>
    </g>
  </g>
  <g id="uuid-5d095a9b-bbd3-4504-af4a-311de6595479">
    <rect class="cls-1" x="231.53" y="564.77" width="177.96" height="44.6" rx="22.3" ry="22.3"/>
    <g id="_nanjing_button_o_-3" data-name="&amp;lt;nanjing_button_o&amp;gt;">
      <g>
        <path class="cls-4" d="m262.55,573.44c-.39,1.06-.86,2.15-1.36,3.18v11.82h-1.43v-9.32c-.45.71-.94,1.33-1.41,1.88-.15-.34-.59-1.14-.84-1.5,1.46-1.58,2.81-4.04,3.64-6.48l1.41.42Zm10.33,2.21v1.28h-10.67v-1.28h4.93c-.24-.61-.71-1.51-1.13-2.19l1.35-.52c.45.67.96,1.58,1.21,2.19l-1.21.52h5.52Zm-9.71,7.29h8.62v5.4h-1.38v-.56h-5.91v.61h-1.33v-5.45Zm8.43-3.6h-8.2v-1.25h8.2v1.25Zm-8.2,1.13h8.2v1.25h-8.2v-1.25Zm1.09,3.74v2.32h5.91v-2.32h-5.91Z"/>
        <path class="cls-4" d="m299.22,584.18c-.56.74-1.3,1.38-2.14,1.95.56.54,1.16.84,1.78.82.44,0,.56-.35.64-1.43.3.25.79.5,1.18.61-.24,1.82-.72,2.25-1.9,2.25s-2.17-.54-3-1.46c-1.13.59-2.37,1.08-3.58,1.45-.15-.3-.54-.96-.81-1.25,1.25-.29,2.51-.71,3.62-1.26-.39-.64-.71-1.4-.96-2.22h-3.62v.91c.91-.07,1.85-.13,2.78-.2v1.09c-.93.08-1.87.17-2.78.24v1.26c0,.76-.17,1.09-.72,1.26-.54.18-1.36.2-2.63.2-.08-.37-.29-.88-.45-1.23.84.05,1.73.05,1.95.03.27,0,.34-.07.34-.3v-1.09l-3.37.27-.13-1.21c.96-.05,2.17-.12,3.5-.22v-1.01h-3.43v-1.19h3.43v-.94c-.98.1-1.95.17-2.86.2-.05-.27-.19-.71-.34-.98,2.22-.12,4.85-.4,6.33-.77l.93.94c-.74.19-1.62.32-2.54.45v1.09h3.32c-.15-.72-.25-1.52-.3-2.32h1.51c.03.83.13,1.6.3,2.32h3.37c-.57-.49-1.75-1.14-2.71-1.55l.88-.91c.96.35,2.15.96,2.76,1.48l-.89.98h1.77v1.19h-4.81c.19.56.42,1.06.69,1.5.64-.42,1.18-.89,1.58-1.41l1.33.46Zm1.14-4.29h-14.86v-1.23h6.6v-.86h-4.96v-1.13h4.96v-.86h-5.86v-1.18h3.23c-.2-.4-.5-.86-.81-1.23l1.36-.46c.47.47.91,1.18,1.11,1.65l-.08.03h3.74c.3-.5.69-1.23.89-1.72l1.7.37c-.34.49-.66.96-.96,1.35h3.21v1.18h-5.94v.86h5.05v1.13h-5.05v.86h6.67v1.23Z"/>
        <path class="cls-4" d="m324.55,581.12c-.44,1.38-1.01,2.51-1.78,3.45,1.9.81,3.67,1.68,4.9,2.46l-1.18,1.38c-1.18-.81-2.96-1.75-4.95-2.63-1.72,1.38-4.07,2.17-7.24,2.66-.15-.4-.64-1.16-.98-1.57,2.78-.32,4.88-.88,6.43-1.87-1.53-.62-3.1-1.18-4.51-1.63.45-.64.98-1.41,1.46-2.25h-3.47v-1.48h4.31c.5-.94.94-1.92,1.26-2.79l1.78.34c-.3.79-.69,1.63-1.11,2.46h3.58c.1-.49.19-1.04.25-1.6l1.9.15c-.08.5-.17.99-.27,1.45h2.88v1.48h-3.28Zm-9.34-2.76h-1.58v-3.54h6.11c-.22-.5-.49-1.11-.71-1.58l1.72-.42c.32.62.72,1.41.98,2h5.71v3.54h-1.67v-2.07h-10.55v2.07Zm3.47,2.76c-.32.56-.62,1.08-.93,1.55,1.09.37,2.24.77,3.35,1.21.71-.74,1.21-1.65,1.58-2.76h-4.01Z"/>
        <path class="cls-4" d="m345.27,577.9h2.71v1.45h-2.71v.39c.66.66,2.32,2.58,2.71,3.08l-.94,1.28c-.34-.61-1.11-1.68-1.77-2.58v6.85h-1.57v-6.77c-.76,1.78-1.72,3.5-2.71,4.56-.17-.44-.54-1.04-.82-1.45,1.23-1.23,2.44-3.38,3.15-5.37h-2.74v-1.45h3.13v-2.51c-.88.15-1.77.25-2.59.35-.07-.34-.27-.86-.44-1.21,2.21-.3,4.75-.82,6.24-1.41l1.04,1.21c-.79.3-1.72.55-2.69.74v2.83Zm9.64-3.38v12.99h-1.6v-1.25h-3.28v1.36h-1.51v-13.11h6.4Zm-1.6,10.25v-8.75h-3.28v8.75h3.28Z"/>
        <path class="cls-4" d="m383.15,574.92v1.48h-12.18v2.81c0,2.64-.25,6.63-1.78,9.21-.29-.27-1.01-.76-1.38-.91,1.43-2.41,1.55-5.87,1.55-8.31v-4.27h6.43c-.2-.54-.47-1.13-.76-1.6l1.55-.35c.4.59.76,1.35.98,1.95h5.6Zm-5.76,3.82h5.29v1.43h-5.29v1.94h4.49v6.06h-1.6v-.62h-6.55v.66h-1.53v-6.09h3.57v-5.17h1.62v1.8Zm2.89,4.81h-6.55v2.59h6.55v-2.59Z"/>
      </g>
    </g>
    <g>
      <path class="cls-4" d="m287.42,597.83l2.12,3.45h-1.02l-1.65-2.69-1.57,2.69h-1l2.11-3.45-2.12-3.46h1.01l1.66,2.7,1.58-2.7h1.01l-2.13,3.46Z"/>
      <path class="cls-4" d="m294.02,594.38v6.9h-.9v-6.9h.9Z"/>
      <path class="cls-4" d="m303.36,601.28h-.9l-3.62-5.49v5.49h-.9v-6.91h.9l3.62,5.48v-5.48h.9v6.91Z"/>
      <path class="cls-4" d="m312.1,594.38l-2.25,4.3v2.6h-.9v-2.6l-2.26-4.3h1l1.7,3.5,1.7-3.5h1Z"/>
      <path class="cls-4" d="m316.33,594.38v6.9h-.9v-6.9h.9Z"/>
      <path class="cls-4" d="m329.34,599.74h-3.01l-.55,1.53h-.95l2.49-6.86h1.04l2.48,6.86h-.95l-.55-1.53Zm-.26-.73l-1.25-3.48-1.25,3.48h2.5Z"/>
      <path class="cls-4" d="m339.73,601.28h-.9l-3.62-5.49v5.49h-.9v-6.91h.9l3.62,5.48v-5.48h.9v6.91Z"/>
      <path class="cls-4" d="m348.96,594.38v6.9h-.9v-3.13h-3.51v3.13h-.9v-6.9h.9v3.03h3.51v-3.03h.9Z"/>
      <path class="cls-4" d="m353.77,595.11v2.31h2.51v.74h-2.51v2.38h2.81v.74h-3.71v-6.91h3.71v.74h-2.81Z"/>
    </g>
  </g>
  <g id="uuid-3f55cbc7-c3b8-43c5-8f38-a2e78103fd20">
    <rect class="cls-1" x="107.02" y="518.29" width="134.63" height="44.6" rx="22.3" ry="22.3"/>
    <g id="_nanjing_button_o_-4" data-name="&amp;lt;nanjing_button_o&amp;gt;">
      <g>
        <path class="cls-4" d="m146.73,535.88c1.48,1.46,3.72,2.79,5.79,3.48-.39.32-.88.94-1.13,1.35-2.07-.84-4.31-2.37-5.89-4.11v4.31h-1.63v-4.24c-1.56,1.7-3.74,3.18-5.79,4.02-.25-.4-.72-.99-1.08-1.31,2.02-.72,4.21-2.04,5.66-3.5h-3.79v-6.23h5v-1.23h-6.43v-1.45h6.43v-1.5h1.63v1.5h6.58v1.45h-6.58v1.23h5.25v6.23h-4.02Zm-6.33-3.69h3.47v-1.35h-3.47v1.35Zm0,2.49h3.47v-1.36h-3.47v1.36Zm5.1-3.84v1.35h3.67v-1.35h-3.67Zm3.67,2.47h-3.67v1.36h3.67v-1.36Z"/>
        <path class="cls-4" d="m173.59,532.47h-4.59v8.45h-1.55v-14.71h6.14v6.26Zm-4.59-4.95v1.19h3.13v-1.19h-3.13Zm3.13,3.67v-1.31h-3.13v1.31h3.13Zm9.19,7.72c0,.98-.22,1.45-.86,1.72-.66.25-1.68.29-3.25.29-.05-.44-.32-1.18-.56-1.62,1.11.05,2.29.03,2.63.03.34-.02.44-.12.44-.42v-6.43h-4.75v-6.28h6.35v12.71Zm-4.85-11.39v1.19h3.25v-1.19h-3.25Zm3.25,3.7v-1.35h-3.25v1.35h3.25Z"/>
        <path class="cls-4" d="m211.41,527.45v1.48h-12.19v2.81c0,2.64-.25,6.63-1.78,9.21-.29-.27-1.01-.76-1.38-.91,1.43-2.41,1.55-5.87,1.55-8.31v-4.27h6.43c-.2-.54-.47-1.13-.76-1.6l1.55-.35c.4.59.76,1.35.98,1.95h5.6Zm-5.76,3.82h5.28v1.43h-5.28v1.94h4.49v6.06h-1.6v-.62h-6.55v.66h-1.53v-6.09h3.57v-5.17h1.62v1.8Zm2.9,4.81h-6.55v2.59h6.55v-2.59Z"/>
      </g>
    </g>
    <g>
      <path class="cls-4" d="m147.07,548.71c.55.28.97.68,1.27,1.2.29.52.44,1.13.44,1.84s-.15,1.32-.44,1.84c-.29.52-.72.91-1.27,1.19-.55.27-1.2.41-1.96.41h-2.15v-6.9h2.15c.75,0,1.4.14,1.96.42Zm.08,5.03c.47-.47.7-1.13.7-1.99s-.24-1.53-.71-2.01c-.47-.48-1.15-.72-2.03-.72h-1.25v5.43h1.25c.89,0,1.57-.24,2.04-.71Z"/>
      <path class="cls-4" d="m153.71,554.81c-.53-.3-.95-.72-1.25-1.26-.31-.54-.46-1.14-.46-1.82s.15-1.28.46-1.82c.31-.54.72-.96,1.25-1.26.53-.3,1.11-.45,1.75-.45s1.23.15,1.76.45c.53.3.94.72,1.25,1.25.3.53.46,1.14.46,1.82s-.15,1.29-.46,1.82c-.3.54-.72.95-1.25,1.25-.53.3-1.12.45-1.76.45s-1.22-.15-1.75-.45Zm3.05-.67c.39-.22.69-.54.91-.96.22-.42.33-.9.33-1.45s-.11-1.04-.33-1.45c-.22-.41-.52-.73-.91-.96-.38-.22-.82-.34-1.31-.34s-.92.11-1.31.34c-.38.22-.69.54-.91.96-.22.41-.33.9-.33,1.45s.11,1.03.33,1.45c.22.42.52.74.91.96.39.22.82.34,1.3.34s.92-.11,1.3-.34Z"/>
      <path class="cls-4" d="m167.92,555.19h-.9l-3.62-5.49v5.49h-.9v-6.91h.9l3.62,5.48v-5.48h.9v6.91Z"/>
      <path class="cls-4" d="m177.06,550.29c-.19-.4-.47-.71-.83-.94-.36-.22-.79-.33-1.27-.33s-.92.11-1.3.33-.69.54-.91.95c-.22.41-.33.89-.33,1.43s.11,1.02.33,1.43c.22.41.52.72.91.95s.82.33,1.3.33c.67,0,1.23-.2,1.66-.6s.69-.95.76-1.63h-2.75v-.73h3.71v.69c-.05.57-.23,1.09-.53,1.56-.3.47-.7.84-1.2,1.12-.5.27-1.05.41-1.65.41-.64,0-1.22-.15-1.75-.45-.53-.3-.95-.72-1.25-1.25-.31-.53-.46-1.14-.46-1.81s.15-1.28.46-1.82c.31-.54.72-.96,1.25-1.26.53-.3,1.11-.45,1.75-.45.73,0,1.38.18,1.95.54.56.36.98.87,1.23,1.53h-1.08Z"/>
      <path class="cls-4" d="m188.91,548.34v6.85h-.9v-5.11l-2.28,5.11h-.63l-2.29-5.12v5.12h-.9v-6.85h.97l2.53,5.66,2.53-5.66h.96Z"/>
      <path class="cls-4" d="m193.71,549.02v2.31h2.51v.74h-2.51v2.38h2.81v.74h-3.71v-6.91h3.71v.74h-2.81Z"/>
      <path class="cls-4" d="m205.69,555.19h-.9l-3.62-5.49v5.49h-.9v-6.91h.9l3.62,5.48v-5.48h.9v6.91Z"/>
    </g>
  </g>
  <g id="nanjing" class="homemap-branch">
    <rect class="cls-2" x="494.81" y="251.05" width="134.63" height="44.6" rx="22.3" ry="22.3"/>
    <g id="_nanjing_button_o_-5" data-name="&amp;lt;nanjing_button_o&amp;gt;">
      <g>
        <path class="cls-3" d="m533.03,260.92c-.08.62-.18,1.25-.27,1.78h6.24v9.27c0,.74-.18,1.08-.72,1.26-.54.2-1.5.2-2.84.2-.08-.34-.29-.81-.46-1.13,1.06.05,2.09.05,2.37.03.3-.02.39-.1.39-.37v-8.11h-10.42v9.56h-1.23v-10.72h5.47c.08-.52.15-1.14.22-1.78h-6.6v-1.18h6.72c.05-.61.1-1.2.12-1.7l1.35.15c-.05.49-.12,1.03-.19,1.55h6.72v1.18h-6.87Zm.05,9.22v2.96h-1.2v-2.96h-3.62v-1.04h3.62v-1.7h-3.26v-1.03h1.77c-.15-.56-.54-1.4-.92-1.99l.99-.25c.4.59.83,1.41.98,1.95l-.91.29h3.01c.35-.71.74-1.65.96-2.31l1.13.25c-.32.71-.66,1.43-.98,2.05h1.9v1.03h-3.47v1.7h3.75v1.04h-3.75Z"/>
        <path class="cls-3" d="m558.91,269.14c-.84,1.31-2.15,2.79-3.33,3.77-.24-.22-.67-.59-.93-.77,1.13-.91,2.42-2.31,3.06-3.42l1.19.42Zm10.52-8.97v1.23h-14.58v-1.23h6.88c-.29-.57-.66-1.26-1.03-1.83l1.18-.37c.47.66,1.01,1.56,1.31,2.2h6.23Zm-6.6,7.47v4.36c0,.74-.17,1.08-.74,1.28-.57.2-1.53.2-3.01.19-.07-.35-.25-.84-.42-1.2,1.14.03,2.19.03,2.49.02.32,0,.39-.08.39-.32v-4.33h-4.61v-4.9h10.57v4.9h-4.66Zm-4.68-1.11h8.04v-2.69h-8.04v2.69Zm8.08,2.17c1.08,1.08,2.47,2.59,3.15,3.53l-1.09.74c-.62-.96-1.95-2.54-3.08-3.65l1.03-.62Z"/>
        <path class="cls-3" d="m599.14,260.11v1.21h-12.39v3.15c0,2.59-.25,6.43-1.75,8.97-.24-.2-.79-.57-1.09-.71,1.43-2.42,1.58-5.84,1.58-8.26v-4.36h6.56c-.24-.56-.54-1.19-.88-1.7l1.2-.3c.44.61.84,1.4,1.08,2h5.69Zm-5.96,3.75h5.44v1.14h-5.44v2.26h4.63v5.92h-1.25v-.64h-7.1v.67h-1.21v-5.96h3.67v-5.39h1.26v1.99Zm3.38,4.56h-7.1v3.01h7.1v-3.01Z"/>
      </g>
    </g>
    <g>
      <path class="cls-3" d="m540.26,287.43h-.69l-3.83-5.82v5.82h-.69v-6.92h.69l3.83,5.81v-5.81h.69v6.92Z"/>
      <path class="cls-3" d="m548.22,285.79h-3.15l-.6,1.64h-.73l2.52-6.83h.78l2.51,6.83h-.73l-.6-1.64Zm-.21-.57l-1.37-3.74-1.37,3.74h2.73Z"/>
      <path class="cls-3" d="m558.26,287.43h-.69l-3.83-5.82v5.82h-.69v-6.92h.69l3.83,5.81v-5.81h.69v6.92Z"/>
      <path class="cls-3" d="m565.4,280.51v5.24c0,.53-.16.95-.48,1.27-.32.32-.76.48-1.3.48s-1.01-.17-1.34-.51-.5-.8-.5-1.38h.7c0,.38.1.68.28.92s.47.36.86.36c.37,0,.64-.11.82-.33.18-.22.27-.49.27-.81v-5.24h.69Z"/>
      <path class="cls-3" d="m570.22,280.51v6.92h-.69v-6.92h.69Z"/>
      <path class="cls-3" d="m579.38,287.43h-.69l-3.83-5.82v5.82h-.69v-6.92h.69l3.83,5.81v-5.81h.69v6.92Z"/>
      <path class="cls-3" d="m588.78,282.53c-.2-.46-.5-.81-.91-1.07s-.88-.39-1.43-.39c-.51,0-.98.12-1.39.36s-.73.58-.97,1.01c-.24.44-.36.95-.36,1.53s.12,1.09.36,1.53c.24.44.56.78.97,1.02.41.24.87.36,1.39.36.48,0,.92-.1,1.3-.31.39-.21.7-.5.93-.89s.37-.84.4-1.35h-2.91v-.56h3.64v.5c-.03.61-.2,1.16-.5,1.65s-.69.88-1.19,1.16c-.5.28-1.06.43-1.68.43s-1.22-.15-1.74-.45c-.52-.3-.93-.72-1.23-1.26-.3-.54-.45-1.15-.45-1.83s.15-1.29.45-1.83c.3-.54.71-.96,1.23-1.26s1.1-.45,1.74-.45c.74,0,1.39.19,1.94.55s.96.88,1.21,1.54h-.81Z"/>
    </g>
  </g>
  <g id="zhongxiao" class="homemap-branch">
    <rect class="cls-2" x="550.93" y="320.86" width="134.63" height="44.6" rx="22.3" ry="22.3"/>
    <g id="_nanjing_button_o_-6" data-name="&amp;lt;nanjing_button_o&amp;gt;">
      <g>
        <path class="cls-3" d="m580.86,342.74c.84-1.06,1.58-2.74,2-4.04l1.08.42c-.45,1.3-1.13,3.05-1.94,4.17l-1.14-.55Zm7.02-6.45h-5.5v-5.3h5.5v-2h1.23v2h5.6v5.3h-5.6v1.7h-.89c.91.66,1.97,1.55,2.52,2.14l-.99.79c-.57-.67-1.77-1.72-2.74-2.42l.88-.62v-1.58Zm0-1.13v-3.05h-4.29v3.05h4.29Zm2.79,7.66c.84,0,.98-.29,1.06-2.17.3.22.82.4,1.2.51-.17,2.27-.57,2.86-2.15,2.86h-3.45c-1.83,0-2.31-.39-2.31-1.77v-3.62h1.28v3.6c0,.49.17.59,1.13.59h3.25Zm-1.57-10.7v3.05h4.38v-3.05h-4.38Zm4.43,6.5c.88,1.16,2.02,2.79,2.52,3.8l-1.13.62c-.49-1.03-1.56-2.68-2.49-3.89l1.09-.54Z"/>
        <path class="cls-3" d="m619.64,334.78c-.74.52-1.51,1.03-2.29,1.5h4.95l.27-.07.81.67c-1.14.86-2.69,1.72-4.16,2.31v.35h6.24v1.11h-6.24v2.27c0,.69-.17.99-.72,1.18-.55.18-1.45.2-2.84.2-.07-.35-.29-.81-.47-1.13,1.11.03,2.15.03,2.46.02.27-.02.35-.07.35-.3v-2.24h-6.08v-1.11h6.08v-.84c.98-.34,2.05-.86,2.91-1.4h-5.37c-1.43.76-2.89,1.41-4.38,1.97-.15-.25-.57-.77-.82-.99,2.54-.88,5.03-2.07,7.29-3.5h-6.98v-1.11h5.77v-1.75h-4.34v-1.09h4.34v-1.85h1.23v1.85h3.77v1.09c.79-.72,1.55-1.51,2.19-2.31l1.04.61c-1.03,1.25-2.24,2.41-3.53,3.45h4.53v1.11h-5.99Zm-.4-1.11c.77-.56,1.5-1.14,2.17-1.75h-3.77v1.75h1.6Z"/>
        <path class="cls-3" d="m655.13,331.02v1.21h-12.39v3.15c0,2.59-.25,6.43-1.75,8.97-.24-.2-.79-.57-1.09-.71,1.43-2.42,1.58-5.84,1.58-8.26v-4.36h6.56c-.24-.55-.54-1.19-.88-1.7l1.2-.3c.44.61.84,1.4,1.08,2h5.69Zm-5.96,3.75h5.44v1.14h-5.44v2.25h4.63v5.92h-1.25v-.64h-7.1v.67h-1.21v-5.96h3.67v-5.39h1.26v1.99Zm3.38,4.56h-7.1v3.01h7.1v-3.01Z"/>
      </g>
    </g>
    <g>
      <path class="cls-3" d="m579.64,356.94h3.53v.61h-4.35v-.55l3.48-5.75h-3.42v-.61h4.24v.55l-3.49,5.75Z"/>
      <path class="cls-3" d="m591.91,350.63v6.92h-.69v-3.24h-3.75v3.24h-.69v-6.92h.69v3.11h3.75v-3.11h.69Z"/>
      <path class="cls-3" d="m597.23,357.17c-.52-.3-.93-.72-1.23-1.26-.3-.54-.45-1.15-.45-1.83s.15-1.29.45-1.83c.3-.54.71-.96,1.23-1.26.52-.3,1.1-.45,1.74-.45s1.23.15,1.75.45c.52.3.93.72,1.23,1.26.3.54.45,1.15.45,1.83s-.15,1.29-.45,1.83-.71.96-1.23,1.26c-.52.3-1.11.45-1.75.45s-1.22-.15-1.74-.45Zm3.13-.51c.41-.24.73-.58.97-1.03.24-.45.36-.96.36-1.55s-.12-1.1-.36-1.54c-.24-.44-.56-.78-.97-1.02-.41-.24-.87-.36-1.39-.36s-.98.12-1.39.36c-.41.24-.73.58-.97,1.02-.24.44-.36.96-.36,1.54s.12,1.1.36,1.55c.24.45.56.79.97,1.03.41.24.87.36,1.39.36s.98-.12,1.39-.36Z"/>
      <path class="cls-3" d="m611.26,357.55h-.69l-3.83-5.82v5.82h-.69v-6.92h.69l3.83,5.81v-5.81h.69v6.92Z"/>
      <path class="cls-3" d="m620.66,352.65c-.2-.46-.5-.81-.91-1.07s-.88-.39-1.43-.39c-.51,0-.98.12-1.39.36-.41.24-.73.58-.97,1.02-.24.44-.36.95-.36,1.53s.12,1.09.36,1.53c.24.44.56.78.97,1.02.41.24.87.36,1.39.36.48,0,.92-.1,1.3-.31.39-.21.7-.5.93-.89.23-.39.37-.84.4-1.35h-2.91v-.56h3.64v.5c-.03.61-.2,1.16-.5,1.65-.3.49-.69.88-1.19,1.16-.5.28-1.06.43-1.68.43s-1.22-.15-1.74-.45c-.52-.3-.93-.72-1.23-1.26-.3-.54-.45-1.15-.45-1.83s.15-1.29.45-1.83c.3-.54.71-.96,1.23-1.26.52-.3,1.1-.45,1.74-.45.74,0,1.39.18,1.94.55.55.37.96.88,1.21,1.54h-.81Z"/>
      <path class="cls-3" d="m632.91,354.1l2.1,3.46h-.77l-1.76-2.89-1.67,2.89h-.77l2.09-3.48-2.09-3.44h.77l1.75,2.88,1.69-2.88h.77l-2.11,3.46Z"/>
      <path class="cls-3" d="m639.28,350.63v6.92h-.69v-6.92h.69Z"/>
      <path class="cls-3" d="m647.24,355.91h-3.15l-.6,1.64h-.73l2.52-6.83h.78l2.51,6.83h-.73l-.6-1.64Zm-.21-.57l-1.37-3.74-1.37,3.74h2.73Z"/>
      <path class="cls-3" d="m653.42,357.17c-.52-.3-.93-.72-1.23-1.26-.3-.54-.45-1.15-.45-1.83s.15-1.29.45-1.83c.3-.54.71-.96,1.23-1.26.52-.3,1.1-.45,1.74-.45s1.23.15,1.75.45c.52.3.93.72,1.23,1.26.3.54.45,1.15.45,1.83s-.15,1.29-.45,1.83-.71.96-1.23,1.26c-.52.3-1.11.45-1.75.45s-1.22-.15-1.74-.45Zm3.13-.51c.41-.24.73-.58.97-1.03.24-.45.36-.96.36-1.55s-.12-1.1-.36-1.54c-.24-.44-.56-.78-.97-1.02-.41-.24-.87-.36-1.39-.36s-.98.12-1.39.36c-.41.24-.73.58-.97,1.02-.24.44-.36.96-.36,1.54s.12,1.1.36,1.55c.24.45.56.79.97,1.03.41.24.87.36,1.39.36s.98-.12,1.39-.36Z"/>
    </g>
  </g>
  <g id="xinyianhe" class="homemap-branch">
    <rect class="cls-2" x="231.53" y="564.77" width="177.96" height="44.6" rx="22.3" ry="22.3"/>
    <g id="_nanjing_button_o_-7" data-name="&amp;lt;nanjing_button_o&amp;gt;">
      <g>
        <path class="cls-3" d="m262.4,573.39c-.39,1.13-.88,2.26-1.41,3.32v11.71h-1.16v-9.69c-.5.81-1.06,1.53-1.6,2.17-.12-.27-.47-.88-.69-1.16,1.51-1.63,2.89-4.14,3.75-6.68l1.11.34Zm10.44,2.37v1.06h-10.65v-1.06h10.65Zm-9.68,7.2h8.52v5.35h-1.11v-.61h-6.31v.66h-1.09v-5.4Zm8.35-3.77h-8.11v-1.03h8.11v1.03Zm-8.11,1.33h8.11v1.03h-8.11v-1.03Zm.86,3.48v2.66h6.31v-2.66h-6.31Zm2.96-8.35c-.22-.59-.74-1.55-1.16-2.24l1.06-.44c.49.71.99,1.6,1.23,2.19l-1.13.49Z"/>
        <path class="cls-3" d="m299.1,584.06c-.59.77-1.36,1.46-2.25,2.05.66.71,1.4,1.11,2.15,1.09.45-.02.59-.4.67-1.6.25.2.64.4.96.49-.19,1.78-.62,2.24-1.68,2.26-1.19,0-2.26-.59-3.13-1.62-1.18.64-2.47,1.16-3.75,1.57-.13-.24-.45-.76-.66-.99,1.31-.34,2.64-.82,3.8-1.43-.42-.69-.77-1.5-1.04-2.41h-3.92v1.13l3.01-.24v.89c-1.01.1-2.02.18-3.01.29v1.58c0,.64-.17.93-.64,1.06-.49.17-1.28.17-2.54.17-.07-.29-.25-.71-.39-.99.91.03,1.78.03,2.04.02.25,0,.34-.05.34-.29v-1.45l-3.52.32-.12-1.01c.99-.07,2.26-.15,3.64-.25v-1.23h-3.57v-.98h3.57v-1.14c-1.04.1-2.1.19-3.08.24-.03-.25-.17-.61-.29-.83,2.29-.13,5.03-.44,6.53-.82l.76.79c-.77.18-1.72.35-2.73.47v1.3h3.67c-.17-.77-.27-1.6-.32-2.46h1.21c.03.88.15,1.7.32,2.46h5.28v.98h-5.02c.24.69.52,1.3.84,1.82.72-.47,1.33-1.01,1.8-1.6l1.06.37Zm1.26-4.27h-14.86v-.99h6.77v-1.08h-5.15v-.94h5.15v-1.03h-6.04v-.98h3.45c-.24-.46-.59-.98-.93-1.4l1.08-.37c.49.5.98,1.21,1.18,1.72l-.12.05h4.02c.32-.52.74-1.3.96-1.82l1.33.35c-.34.5-.71,1.04-1.01,1.46h3.47v.98h-6.13v1.03h5.23v.94h-5.23v1.08h6.83v.99Zm-1.63,2.54c-.56-.5-1.72-1.16-2.68-1.57l.67-.74c.96.35,2.14.98,2.73,1.48l-.72.83Z"/>
        <path class="cls-3" d="m324.36,580.93c-.47,1.5-1.11,2.73-1.97,3.7,2.02.86,3.89,1.8,5.17,2.63l-.94,1.09c-1.25-.84-3.13-1.83-5.22-2.74-1.7,1.43-4.06,2.25-7.2,2.79-.12-.34-.52-.93-.79-1.25,2.89-.37,5.07-1.01,6.63-2.14-1.56-.66-3.2-1.25-4.66-1.72.49-.66,1.03-1.48,1.57-2.37h-3.65v-1.19h4.31c.56-1.01,1.04-2.02,1.4-2.93l1.4.25c-.34.86-.77,1.77-1.26,2.68h4.09c.12-.52.22-1.08.3-1.67l1.46.13c-.08.54-.19,1.06-.3,1.53h3.08v1.19h-3.4Zm-9.41-2.62h-1.25v-3.37h6.26c-.24-.54-.54-1.2-.82-1.72l1.33-.34c.35.64.79,1.46,1.04,2.05h5.79v3.37h-1.3v-2.21h-11.06v2.21Zm3.52,2.62c-.39.66-.76,1.26-1.13,1.8,1.21.39,2.49.88,3.75,1.36.79-.84,1.38-1.89,1.82-3.17h-4.44Z"/>
        <path class="cls-3" d="m345.1,577.94h2.93v1.16h-2.93v.44c.64.67,2.39,2.73,2.81,3.25l-.76,1.03c-.39-.64-1.33-1.9-2.05-2.84v7.35h-1.23v-7.41c-.82,1.95-1.94,3.85-3.01,5.02-.13-.34-.45-.84-.69-1.14,1.28-1.28,2.62-3.58,3.38-5.69h-2.96v-1.16h3.28v-2.79c-.94.15-1.88.29-2.78.4-.07-.3-.2-.71-.35-.99,2.22-.3,4.85-.81,6.33-1.4l.84.98c-.77.29-1.77.55-2.81.77v3.03Zm9.73-3.38v12.94h-1.25v-1.26h-3.75v1.38h-1.23v-13.06h6.23Zm-1.25,10.47v-9.27h-3.75v9.27h3.75Z"/>
        <path class="cls-3" d="m383.08,575.04v1.21h-12.39v3.15c0,2.59-.25,6.43-1.75,8.97-.24-.2-.79-.57-1.09-.71,1.43-2.42,1.58-5.84,1.58-8.26v-4.36h6.56c-.24-.55-.54-1.19-.88-1.7l1.2-.3c.44.61.84,1.4,1.08,2h5.69Zm-5.96,3.75h5.44v1.14h-5.44v2.25h4.63v5.92h-1.25v-.64h-7.1v.67h-1.21v-5.96h3.67v-5.39h1.26v1.99Zm3.38,4.56h-7.1v3.01h7.1v-3.01Z"/>
      </g>
    </g>
    <g>
      <path class="cls-3" d="m287.92,597.83l2.1,3.46h-.77l-1.76-2.89-1.67,2.89h-.77l2.09-3.48-2.09-3.44h.77l1.75,2.88,1.69-2.88h.77l-2.11,3.46Z"/>
      <path class="cls-3" d="m294.29,594.37v6.92h-.69v-6.92h.69Z"/>
      <path class="cls-3" d="m303.46,601.29h-.69l-3.83-5.82v5.82h-.69v-6.92h.69l3.83,5.81v-5.81h.69v6.92Z"/>
      <path class="cls-3" d="m311.98,594.37l-2.22,4.23v2.69h-.69v-2.69l-2.24-4.23h.78l1.8,3.59,1.79-3.59h.77Z"/>
      <path class="cls-3" d="m316.06,594.37v6.92h-.69v-6.92h.69Z"/>
      <path class="cls-3" d="m329.11,599.64h-3.15l-.6,1.64h-.73l2.52-6.83h.78l2.51,6.83h-.73l-.6-1.64Zm-.21-.57l-1.37-3.74-1.37,3.74h2.73Z"/>
      <path class="cls-3" d="m339.15,601.29h-.69l-3.83-5.82v5.82h-.69v-6.92h.69l3.83,5.81v-5.81h.69v6.92Z"/>
      <path class="cls-3" d="m348.24,594.37v6.92h-.69v-3.24h-3.75v3.24h-.69v-6.92h.69v3.11h3.75v-3.11h.69Z"/>
      <path class="cls-3" d="m352.89,594.93v2.58h2.62v.57h-2.62v2.62h2.92v.57h-3.61v-6.93h3.61v.57h-2.92Z"/>
    </g>
  </g>
  <g id="dongmen" class="homemap-branch">
    <rect class="cls-2" x="107.02" y="518.29" width="134.63" height="44.6" rx="22.3" ry="22.3"/>
    <g id="_nanjing_button_o_-8" data-name="&amp;lt;nanjing_button_o&amp;gt;">
      <g>
        <path class="cls-3" d="m146.38,535.83c1.53,1.58,3.92,3.03,6.08,3.75-.3.25-.69.72-.88,1.08-2.19-.88-4.65-2.54-6.26-4.36v4.58h-1.26v-4.53c-1.6,1.8-3.99,3.4-6.13,4.27-.2-.32-.57-.79-.88-1.04,2.12-.74,4.46-2.19,5.96-3.75h-4.07v-6.13h5.12v-1.41h-6.58v-1.18h6.58v-1.58h1.26v1.58h6.75v1.18h-6.75v1.41h5.4v6.13h-4.34Zm-6.23-3.53h3.9v-1.6h-3.9v1.6Zm0,2.56h3.9v-1.63h-3.9v1.63Zm5.17-4.16v1.6h4.14v-1.6h-4.14Zm4.14,2.52h-4.14v1.63h4.14v-1.63Z"/>
        <path class="cls-3" d="m173.49,532.45h-4.75v8.43h-1.23v-14.58h5.97v6.14Zm-4.75-5.08v1.46h3.57v-1.46h-3.57Zm3.57,4.04v-1.62h-3.57v1.62h3.57Zm8.94,7.76c0,.86-.22,1.26-.77,1.46-.59.2-1.58.24-3.1.24-.07-.35-.27-.94-.45-1.3,1.14.07,2.29.05,2.64.03.3-.02.42-.1.42-.44v-6.7h-4.93v-6.16h6.19v12.86Zm-5-11.8v1.46h3.74v-1.46h-3.74Zm3.74,4.06v-1.63h-3.74v1.63h3.74Z"/>
        <path class="cls-3" d="m211.34,527.57v1.21h-12.39v3.15c0,2.59-.25,6.43-1.75,8.97-.24-.2-.79-.57-1.09-.71,1.43-2.42,1.58-5.84,1.58-8.26v-4.36h6.56c-.24-.55-.54-1.19-.88-1.7l1.19-.3c.44.61.84,1.4,1.08,2h5.69Zm-5.96,3.75h5.44v1.14h-5.44v2.25h4.63v5.92h-1.25v-.64h-7.1v.67h-1.21v-5.96h3.67v-5.39h1.26v1.99Zm3.38,4.56h-7.1v3.01h7.1v-3.01Z"/>
      </g>
    </g>
    <g>
      <path class="cls-3" d="m147.3,548.69c.55.28.97.68,1.26,1.2.29.52.44,1.14.44,1.86s-.15,1.33-.44,1.85c-.29.52-.71.91-1.26,1.19-.55.27-1.2.41-1.97.41h-2.05v-6.92h2.05c.77,0,1.42.14,1.97.42Zm.23,5.17c.5-.5.76-1.21.76-2.11s-.25-1.62-.76-2.13c-.5-.51-1.24-.77-2.2-.77h-1.36v5.77h1.36c.96,0,1.7-.25,2.2-.76Z"/>
      <path class="cls-3" d="m154.01,554.82c-.52-.3-.93-.72-1.23-1.26s-.45-1.15-.45-1.83.15-1.29.45-1.83c.3-.54.71-.96,1.23-1.26.52-.3,1.1-.45,1.74-.45s1.23.15,1.75.45c.52.3.93.72,1.23,1.26.3.54.45,1.15.45,1.83s-.15,1.29-.45,1.83c-.3.54-.71.96-1.23,1.26-.52.3-1.11.45-1.75.45s-1.22-.15-1.74-.45Zm3.13-.51c.41-.24.73-.58.97-1.03.24-.45.36-.96.36-1.55s-.12-1.1-.36-1.54c-.24-.44-.56-.78-.97-1.02-.41-.24-.87-.36-1.39-.36s-.98.12-1.39.36c-.41.24-.73.58-.97,1.02-.24.44-.36.96-.36,1.54s.12,1.1.36,1.55c.24.45.56.79.97,1.03.41.24.87.36,1.39.36s.98-.12,1.39-.36Z"/>
      <path class="cls-3" d="m168.04,555.2h-.69l-3.83-5.82v5.82h-.69v-6.92h.69l3.83,5.81v-5.81h.69v6.92Z"/>
      <path class="cls-3" d="m177.43,550.3c-.2-.46-.5-.81-.91-1.07s-.88-.39-1.43-.39c-.51,0-.98.12-1.39.36-.41.24-.73.58-.97,1.02-.24.44-.36.95-.36,1.53s.12,1.09.36,1.53.56.78.97,1.02c.41.24.87.36,1.39.36.48,0,.92-.1,1.3-.31.39-.21.7-.5.93-.89.23-.39.37-.84.4-1.35h-2.91v-.56h3.64v.5c-.03.61-.2,1.16-.5,1.65-.3.49-.69.88-1.19,1.16-.5.28-1.06.43-1.68.43s-1.22-.15-1.74-.45c-.52-.3-.93-.72-1.23-1.26s-.45-1.15-.45-1.83.15-1.29.45-1.83c.3-.54.71-.96,1.23-1.26.52-.3,1.1-.45,1.74-.45.74,0,1.39.18,1.94.55.55.37.96.88,1.21,1.54h-.81Z"/>
      <path class="cls-3" d="m188.87,548.37v6.83h-.69v-5.46l-2.44,5.46h-.5l-2.44-5.44v5.44h-.69v-6.83h.73l2.64,5.92,2.64-5.92h.74Z"/>
      <path class="cls-3" d="m193.51,548.84v2.58h2.62v.57h-2.62v2.62h2.92v.57h-3.61v-6.93h3.61v.57h-2.92Z"/>
      <path class="cls-3" d="m205.39,555.2h-.69l-3.83-5.82v5.82h-.69v-6.92h.69l3.83,5.81v-5.81h.69v6.92Z"/>
    </g>
  </g>
</svg>