<?xml version="1.0" encoding="UTF-8"?>
<svg id="uuid-ae7693dc-fe3b-429a-b4d0-c4972c5337d7" data-name="圖層 1" xmlns="http://www.w3.org/2000/svg" viewBox="0 0 100 100">
  <defs>
    <style>
      .uuid-0eef4110-0e72-460e-a90e-5f68919fa8bb {
        stroke-width: 0px;
      }
    </style>
  </defs>
  <g>
    <path class="uuid-0eef4110-0e72-460e-a90e-5f68919fa8bb" d="m37.72,65.18c-.05.45-.18.95-.36,1.51-.05.16-.11.31-.16.45h3.68s0-2.32,0-2.32c0-.32.09-.91.9-.92.81,0,.99.59.99.92v2.32s5.42,0,5.42,0c.32,0,.84.25.84.84s-.5.92-.84.92h-5.42s0,3.77,0,3.77h3.78c.45,0,.99.29.99.84,0,.61-.58.92-.88.92h-3.89s0,3.58,0,3.58h6.08c.53,0,.93.38.93.83,0,.61-.53.91-.83.91h-14.41c-.46,0-.96-.21-.96-.89s.67-.84.96-.84h6.35s0-3.58,0-3.58h-4.12c-.29,0-.95-.19-.95-.91s.66-.84.95-.84h4.12s0-3.77,0-3.77h-4.36c-.36.87-.72,1.6-1.04,2.18-.14.32-.71.7-1.31.35s-.43-.95-.24-1.37c.9-1.65,1.56-3.39,2.1-5.22.11-.32.6-.6,1.1-.44s.59.49.59.8Z"/>
    <path class="uuid-0eef4110-0e72-460e-a90e-5f68919fa8bb" d="m20.28,65.19c-.05.45-.18.95-.36,1.51-.05.16-.11.31-.16.45h3.68s0-2.32,0-2.32c0-.32.09-.91.9-.92.81,0,.99.59.99.92v2.32s5.42,0,5.42,0c.32,0,.84.25.84.84s-.5.92-.84.92h-5.42s0,3.77,0,3.77h3.78c.45,0,.99.29.99.84,0,.61-.58.92-.88.92h-3.89s0,3.58,0,3.58h6.08c.53,0,.93.38.93.83,0,.61-.53.91-.83.91h-14.41c-.46,0-.96-.21-.96-.89s.67-.84.96-.84h6.35s0-3.58,0-3.58h-4.12c-.29,0-.95-.19-.95-.91s.66-.84.95-.84h4.12s0-3.77,0-3.77h-4.36c-.36.87-.72,1.6-1.04,2.18-.14.32-.71.7-1.31.35-.59-.35-.43-.95-.24-1.37.9-1.65,1.56-3.39,2.1-5.22.11-.32.6-.6,1.1-.44s.59.49.59.8Z"/>
    <path class="uuid-0eef4110-0e72-460e-a90e-5f68919fa8bb" d="m54.2,64.23c.22.11.34.32.34.63-.04.27-.07.52-.13.75-.21.9-.54,1.85-.93,2.89v10.95c0,.29-.24.84-.89.84s-.84-.56-.84-.84v-7.73c-.06.11-.54,1.85-1.68,1.18-.19-.11-.53-.61-.01-1.4,1.26-2.19,2.22-4.49,2.87-6.92.11-.29.31-.47.56-.5.29,0,.54.05.72.14Zm10.65.14c.22,0,.72.12.75.63s-.53.7-.75.7h-5.33s-.23.56-.23.56h4.09c.79,0,1.2.28,1.2.84v3.57c0,.07-.01.11-.01.14h.36c.75,0,1.13.3,1.13.91v.84c0,.29-.27.77-.84.77-.13,0-.23,0-.32-.04.52.57.79,1,.81,1.29,0,.2-.02.29-.18.47s-.64.32-1.08-.18c-.32-.4-.68-.79-1.06-1.18v.05c0,.32-.09.64-.29.9-.23.29-.61.43-1.26.45h-3.21c-.07,0-.11,0-.14-.02,0,.26-.16.43-.29.57h5.48c.29,0,.5.05.65.16.22.16.34.34.34.54,0,.32-.16.61-.49.86-.5.43-1.18.84-2.05,1.24.09-.04.38.06.48.08.15.02.31.05.46.07.3.04.59.07.89.1.52.04,1.11.16,1.59-.11.15-.08.3-.19.46-.15.16.04.24.22.28.38.09.35.08,1.02-.24,1.26-.18.13-.45.2-.68.2-1.13,0-2.1-.09-2.89-.25-.92-.18-1.76-.41-2.55-.72-.17.05-2.11.72-4.24.95-.18.02-.38.03-.53.15-.08.07-.15.16-.25.19-.07.02-.14,0-.21-.02-.16-.07-.3-.2-.39-.35-.17-.27-.32-.67-.15-.98.15-.27.47-.38.75-.41,1.04-.09,1.76-.21,3.1-.47-.04-.02-.95-.49-1.49-.9-.15.13-.41.34-.66.52-.2.16-.39.23-.59.23-.23,0-.43-.09-.61-.27-.16-.18-.3-.69.13-1.03.14-.11,1.18-.84,2.49-2.35.13-.11.25-.18.38-.2-.05-.18-.07-.39-.07-.65v-.79c0-.47.25-.8.77-.8.5,0,.77.34.77.8v.67c0,.23.11.34.34.34h2.12c.36,0,.41-.24.45-.38.09-.32.21-.47.59-.47.07,0,.14.02.2.04-.13-.11-.2-.22-.2-.31,0-.22.09-.39.27-.52.11-.07.42-.2.79-.05s.6.43.72.54c-.02-.07-.02-.14-.02-.25v-.48c0-.09-.07-.14-.22-.14h-3.34c.11.15.29.34.57.67s.16.71-.13.89-.72-.03-.91-.24c-.22-.25-.47-.52-.94-1.02-.17-.14-.12-.31-.12-.31h-3.13c-.14,0-.22.06-.22.15v.5s.33-.15.67.05c.19.11.3.42.17.82-.07.21-.48,1.03-.62,1.2-.18.29-.66.67-1.09.43-.35-.19-.47-.59-.22-.95.14-.18.27-.38.38-.59h-.13c-.63,0-.84-.48-.84-.77v-1.06c0-.61.38-.92,1.13-.92h.36c-.02-.07-.02-.13-.02-.2v-3.52c0-.56.37-.84,1.13-.84h.61s.23-.56.23-.56h-2.07c-.22,0-.74-.17-.71-.7s.5-.63.71-.63h9.22Zm-2.03,3.16c0-.09-.11-.21-.29-.21h-4.83c-.14,0-.22.12-.22.21l-.02,3.29h5.35s0-3.29,0-3.29Zm-2.94,10.38c.92-.27,1.7-.51,2.4-.87.26-.13.15-.2.06-.2h-4.5c.5.36,1.08.72,2.05,1.06Z"/>
    <path class="uuid-0eef4110-0e72-460e-a90e-5f68919fa8bb" d="m76.83,78.09c.07.07.13.13.16.2.63-1.22,1.11-2.66,1.47-4.29.32-1.58.48-3.7.48-5.66h-.65c-.29,0-.84-.18-.84-.91s.66-.84.94-.84h.55s0-1.73,0-1.73c0-.25.16-.93.89-.93s.87.68.87.93c0,.83-.02,1.04-.02,1.73h1.42c1.15,0,1.74.66,1.76,1.97,0,4.78-.08,8.1-.23,9.27-.09.86-.29,1.45-.61,1.8-.38.4-.97.63-1.76.67-.66-.02-2.03-.25-2.03-1.35,0-.62.63-.88,1.11-.67.36.18.51.23.92.18s.68-.43.72-1.11c.07-1.17.12-4.22.12-8.44,0-.23-.05-.39-.14-.47-.07-.05-.18-.09-.34-.09h-.95v.16c.02,1.4-.09,3.23-.32,4.81-.39,2.55-.98,4.53-1.99,6.4-.21.38-.95.77-1.6.26-.18-.14-.25-.36-.25-.61v-.02s-.07.02-.07.02l-7.53.71c-.29-.02-.75-.25-.77-.77s.47-.77.7-.77l2.96-.25v-1.15s-2.61,0-2.61,0c-.25,0-.7-.15-.7-.7s.45-.7.7-.7h2.6s0-.77,0-.77h-2.26c-.79,0-1.18-.39-1.19-1.2v-3.64c0-.79.39-1.19,1.18-1.19h2.26s0-.77,0-.77h-3.11c-.25,0-.77-.2-.77-.77s.52-.77.77-.77h3.11s0-.74,0-.74c-.93.07-1.85.12-2.89.11-.57,0-.77-.36-.77-.92.04-.36.3-.63.7-.63,2.64,0,4.82-.18,7.07-.42.18,0,.31-.03.4-.02.57.06.7.57.7.77,0,.32-.19.64-.56.7-.59.1-1.39.22-2.81.29v.84s2.74,0,2.74,0c.27,0,.77.16.77.77s-.5.77-.77.77h-2.74s0,.77,0,.77h2.31c.79,0,1.2.39,1.2,1.18v3.64c0,.81-.41,1.2-1.2,1.2h-2.31s0,.77,0,.77h2.52c.25,0,.7.16.7.7s-.45.7-.7.7h-2.52s0,1.01,0,1.01l2.59-.24c.29,0,.49.07.61.2Zm-5.04-7.77h-1.28c-.25,0-.36.13-.36.34v2.53c0,.25.11.36.36.36h1.28s0-3.23,0-3.23Zm3.51.34c0-.22-.13-.34-.34-.34h-1.34s0,3.23,0,3.23h1.34c.22,0,.34-.11.34-.36v-2.53Z"/>
    <path class="uuid-0eef4110-0e72-460e-a90e-5f68919fa8bb" d="m74.33,71.17h-3.24c-.25,0-.77.2-.77.77s.52.77.77.77h3.23c.25,0,.77-.2.77-.77s-.52-.77-.77-.77Z"/>
    <path class="uuid-0eef4110-0e72-460e-a90e-5f68919fa8bb" d="m61.65,67.84h-4.27c-.17,0-.51.13-.51.51s.34.51.51.51h4.27c.17,0,.51-.13.51-.51s-.34-.51-.51-.51Z"/>
    <path class="uuid-0eef4110-0e72-460e-a90e-5f68919fa8bb" d="m61.65,69.27h-4.27c-.17,0-.51.13-.51.51s.34.51.51.51h4.27c.17,0,.51-.13.51-.51s-.34-.51-.51-.51Z"/>
  </g>
  <g>
    <path class="uuid-0eef4110-0e72-460e-a90e-5f68919fa8bb" d="m69.65,31.66c-.75,1.25-1.73,2.35-2.88,3.24-.39.3-.3.89.16,1.06.89.33,1.68.88,2.23,1.67,2.16,3.12,1.63,6.73-.78,8.85-.36.31-.74.58-1.16.79-.46.24-.67.78-.46,1.25l1.79,4c.23.52.83.72,1.34.47,2.09-1.05,3.9-2.71,5.21-4.87.52-.85.91-1.76,1.19-2.72,1.63-5.72-.75-11.22-5.11-14.11-.52-.34-1.21-.17-1.53.36Z"/>
    <path class="uuid-0eef4110-0e72-460e-a90e-5f68919fa8bb" d="m60.73,19.38c-3.96,0-7.18,3.21-7.18,7.18s3.21,7.18,7.18,7.18,7.18-3.21,7.18-7.18-3.21-7.18-7.18-7.18Zm0,9.84c-1.47,0-2.66-1.19-2.66-2.66s1.19-2.66,2.66-2.66,2.66,1.19,2.66,2.66-1.19,2.66-2.66,2.66Z"/>
    <path class="uuid-0eef4110-0e72-460e-a90e-5f68919fa8bb" d="m60.79,48.04c-.63,0-1.19-.37-1.45-.94l-10.66-23.76c-.45-1.01-2.4-3.96-5.68-3.96-3.89,0-7.67,1.17-10.82,5.07-1.79,2.22-2.78,4.79-2.83,7.18-3.85,2.32-6.16,6.05-6.16,10.16,0,4.56,2.42,8.75,6.64,11.1,1.8,1,3.85,1.46,5.91,1.45h.03s14.3,0,14.3,0c.64,0,1.08-.66.81-1.25l-3.86-8.7c-.18-.41-.77-.4-.93.02l-1,2.51c-.28.69-.95,1.14-1.69,1.15h-7.63s0,0,0,0c-1.05,0-2.1-.23-3.01-.75-2.08-1.18-3.26-3.26-3.26-5.52,0-2.67,2.3-4.56,4.45-5.43,1.55-.63,1.89-2.27,1.79-3.93-.11-1.79.69-3.13,1.36-4.03.6-.81,2.18-2.35,4.73-2.82.53-.1,1.07.19,1.29.69l11.76,26.21c.51,1.13,1.63,1.86,2.87,1.86h6.53c.22,0,.45-.01.67-.02.56-.03.91-.63.68-1.14l-1.91-4.25c-.24-.53-.77-.87-1.35-.87h-1.56Z"/>
  </g>
</svg>