<?xml version="1.0" encoding="UTF-8"?>
<svg id="uuid-1c65508a-299f-4cc3-a792-7ed63b9e8153" data-name="圖層 1" xmlns="http://www.w3.org/2000/svg" viewBox="0 0 100 100">
  <defs>
    <style>
      .uuid-e87a67ca-f429-4bde-9779-f5b626550bc4 {
        fill: #4d4d4d;
        stroke-width: 0px;
      }
    </style>
  </defs>
  <path class="uuid-e87a67ca-f429-4bde-9779-f5b626550bc4" d="m92.86,51.36c.18,23.34-18.83,42.14-41.14,42.8-12.66.38-23.52-3.87-32.38-12.88-8.31-8.45-12.27-18.74-12.2-30.59.13-22.64,18.84-42.27,42.92-42.26,23.79.01,43.03,19.58,42.8,42.93ZM50.01,11.01c-22.66.02-40.13,18.49-40.31,39.9-.19,22.61,18.25,40.73,40.27,40.74,22.01,0,40.3-17.91,40.34-40.24.04-22.33-18.09-40.41-40.3-40.4Z"/>
  <path class="uuid-e87a67ca-f429-4bde-9779-f5b626550bc4" d="m49.77,85.21c-2.58-.08-5.14-.35-7.67-.94-6.14-1.42-11.34-4.51-15.82-8.88-3.42-3.33-6.06-7.23-7.92-11.63-.66-1.56-1.15-3.16-1.57-4.81-.71-2.83-1.01-5.69-.93-8.59.07-2.3.37-4.57.93-6.82.67-2.71,1.64-5.28,2.97-7.72,1.66-3.06,3.69-5.84,6.15-8.32,2.16-2.19,4.56-4.06,7.19-5.64,2.62-1.57,5.41-2.73,8.37-3.47,2.01-.51,4.05-.83,6.13-.97,2.06-.14,4.12-.08,6.16.17,1.25.15,2.48.44,3.71.69,2.25.44,4.38,1.26,6.44,2.24,3.56,1.7,6.71,3.99,9.51,6.77,2.12,2.1,3.92,4.46,5.48,7.01,1.64,2.69,2.88,5.56,3.69,8.61.7,2.63,1.06,5.31,1.09,8.02.03,2.57-.25,5.12-.83,7.63-.66,2.85-1.68,5.57-3.08,8.14-3.36,6.16-8.06,11.01-14.19,14.44-2.55,1.43-5.26,2.45-8.12,3.12-2.53.6-5.09.86-7.69.94Zm-.75-67.04c-2.41.01-5.53.42-8.57,1.35-2.42.73-4.73,1.71-6.9,3.01-2.84,1.71-5.43,3.74-7.7,6.17-2.01,2.15-3.75,4.52-5.17,7.09-1.41,2.53-2.47,5.22-3.15,8.04-.44,1.81-.68,3.63-.83,5.48-.14,1.69-.04,3.37.1,5.06.16,1.89.51,3.75,1.04,5.57.75,2.59,1.79,5.06,3.17,7.38,1.9,3.21,4.17,6.12,6.97,8.6,1.91,1.69,3.95,3.22,6.18,4.46,2.48,1.38,5.11,2.42,7.87,3.08,2.04.49,4.12.79,6.22.88,3.71.16,7.35-.27,10.91-1.35,2.17-.66,4.26-1.52,6.23-2.64,3.09-1.77,5.89-3.93,8.31-6.56,2.09-2.27,3.9-4.74,5.35-7.47,1.23-2.29,2.16-4.69,2.82-7.19.5-1.9.81-3.83.93-5.78.24-3.96-.2-7.84-1.42-11.63-.66-2.06-1.49-4.05-2.56-5.93-2.58-4.54-5.92-8.4-10.17-11.48-3.17-2.3-6.63-3.98-10.39-5.02-2.78-.77-5.62-1.11-9.27-1.12Z"/>
  <path class="uuid-e87a67ca-f429-4bde-9779-f5b626550bc4" d="m66.82,48.18c.48-.17.95-.35,1.45-.53v-1.37h-3.12c-.02-.25-.03-.42-.05-.67h3.17v-.96h-3.62v-.71h3.6v-.85h-3c-.01-.23-.02-.42-.04-.67h3.06v-.92h-3.95c0,.25,0,.47,0,.69-.01,1.34,0,2.69-.06,4.03-.06,1.26-.27,2.51-.74,3.7-.09.24-.22.47-.35.73-.27-.18-.49-.32-.67-.44.23-.79.49-1.54.67-2.31.31-1.34.28-2.71.31-4.07.03-1.02,0-2.03,0-3.08.51-.15,1.01-.05,1.51-.07.53-.02,1.06,0,1.59,0,.51,0,1.02,0,1.63,0-.17-.33-.31-.59-.48-.92.26-.1.51-.19.83-.3.26.4.52.79.79,1.21h4.06v.79h-4.17v.95h3.16v1.46h1.17c.02.28.04.5.06.78-.39.02-.75.03-1.17.05-.02.52-.05,1.01-.07,1.58h-3.19c.25.66.67,1.05,1.12,1.49.66-.44,1.28-.85,1.96-1.31.19.15.41.31.69.53-.69.44-1.31.82-1.98,1.25.8.58,1.69.88,2.69,1.14-.2.28-.36.5-.53.74-1.52-.39-2.79-1.13-3.93-2.24,0,.44,0,.88,0,1.32,0,.18,0,.37,0,.55-.03.56-.24.83-.8.88-.56.05-1.14.01-1.76.01-.08-.2-.17-.42-.3-.73h1.83c.24-.5.1-.94.15-1.49-1.25.52-2.42,1.01-3.65,1.53-.13-.24-.25-.47-.39-.73.88-.36,1.72-.7,2.56-1.04l-.02.02Zm2.43-3.52v.88h2.26v-.88h-2.26Zm2.32-.78c-.02-.3-.03-.52-.04-.75h-2.28v.75h2.32Z"/>
  <path class="uuid-e87a67ca-f429-4bde-9779-f5b626550bc4" d="m63.33,64.34c-.22-.24-.38-.42-.6-.66.79-1.04,1.24-2.24,1.36-3.66-.49.27-.92.51-1.41.79-.11-.27-.2-.51-.32-.81.62-.31,1.21-.61,1.84-.93v-4.79c1.42-.04,2.8,0,4.23-.03-.08-.32-.15-.58-.24-.92.29-.06.57-.12.88-.19.16.39.29.72.45,1.12h4.08v.75h-4.64c.28.09.45.15.65.22-.08.29-.15.55-.24.88h4.04v.73h-2.54c.32.39.56.67.84,1.01.34-.31.64-.59.97-.9.17.13.33.24.55.4-.33.29-.63.56-.95.84.39.49.93.6,1.4.9-.17.2-.32.38-.5.59-.33-.15-.63-.29-1.02-.47v2.29h-2.31c0,.62,0,1.19,0,1.75,0,.77-.2.98-.96,1.04-.34.02-.69,0-1.06,0-.06-.11-.12-.21-.16-.32-.05-.11-.08-.23-.14-.42h1.37c.01-.38.03-.69.04-1.01,0-.32,0-.65,0-1.05h-2.24v-2.27c-.39.18-.7.31-1,.45-.19-.15-.36-.29-.62-.49-.19,1.87-.49,3.62-1.75,5.13Zm2.32-8.23h2.73c.13-.33.26-.64.41-1.01h-3.67v4.02c.55-.23,1.03-.46,1.44-.87-.3-.27-.57-.51-.87-.78.17-.16.32-.29.48-.44.34.24.65.46,1.01.72.22-.27.43-.53.74-.9h-2.27v-.73Zm2.23,2.18h3.13c-.35-.48-.68-.93-1.02-1.39h-1.06c-.35.46-.67.89-1.05,1.39Zm-.38,2.55c1.06.11,3.4.07,3.85-.07-.01-.18-.03-.38-.04-.56-1.09-.1-3.39-.06-3.8.06v.57Zm3.8-1.87h-3.82c.01.21.02.38.04.56h3.79v-.56Z"/>
  <path class="uuid-e87a67ca-f429-4bde-9779-f5b626550bc4" d="m49.34,63.81h-7.78v-.84h3.61v-1.57h-2.66v-.87h2.66v-1.43h-2.42c-.16-.49-.19-4.69-.05-5.41h6.09c.04,1.78.02,3.56.02,5.39h-2.6v1.42h2.73v.87h-2.69c-.15.55-.08,1.04-.05,1.6h3.15v.84Zm-5.84-5.55h1.75v-1.48h-1.75v1.48Zm2.59,0h1.79v-1.49h-1.79v1.49Zm-2.6-3.79v1.45h1.75v-1.45h-1.75Zm4.38-.02c-.62-.02-1.2-.04-1.78,0v1.47h1.78v-1.47Z"/>
  <path class="uuid-e87a67ca-f429-4bde-9779-f5b626550bc4" d="m59.17,49v-1.68h1.78v-.84h-1.77v-1.51h1.77v-.87h-1.77v-1.56h1.99v-.85h-4.37c.25-.65.47-1.23.71-1.86-.34-.09-.61-.16-.9-.24-.52,1.59-1.21,3.03-2.15,4.34.16.28.29.52.44.8.26-.31.47-.55.78-.91v6.89h.78c.02-.29.05-.55.07-.85h4.8v-.87h-2.17Zm-2.64-6.4h1.71v1.5h-1.71v-1.5Zm1.71,6.36h-1.7v-1.61h1.7v1.61Zm.06-2.47h-1.76v-.02h0v-1.46h0v-.04h1.76v1.51Z"/>
  <path class="uuid-e87a67ca-f429-4bde-9779-f5b626550bc4" d="m36.97,55.12c.02.24.04.39.03.52-.16,2.11-.31,4.22-.49,6.33-.04.42-.16.84-.28,1.25-.2.63-.64.97-1.31.98-.37,0-.73,0-1.15,0-.07-.3-.13-.56-.21-.89.38,0,.7,0,1.02,0,.49,0,.67-.11.81-.58.13-.43.24-.87.28-1.31.16-1.7.29-3.41.43-5.11,0-.08-.02-.16-.03-.27h-.5c-.7,2.98-1.55,5.88-3.95,8.06-.26-.18-.49-.34-.78-.54,2.3-1.99,3.22-4.65,3.9-7.49-.21-.03-.34-.05-.48-.06-.14,0-.28.01-.46.02-.65,2.02-1.4,3.99-2.99,5.53-.16-.1-.27-.17-.39-.25-.1-.07-.2-.14-.36-.26,1.46-1.36,2.29-3.08,2.88-4.99h-1c-.4.77-.76,1.58-1.41,2.27-.23-.18-.44-.33-.69-.52,1.15-1.37,1.7-2.98,2.15-4.68.29.06.54.11.84.17-.17.63-.32,1.19-.49,1.82h4.64Z"/>
  <path class="uuid-e87a67ca-f429-4bde-9779-f5b626550bc4" d="m30.99,48.16c-1.11-.41-2.1-.78-3.13-1.16.4-.6.79-1.18,1.24-1.86h-2.72v-.88h3.25c.34-.67.67-1.3,1-1.95.31.06.6.12.98.2-.29.59-.54,1.11-.84,1.71h6.03v.89h-2.15c-.6.98-1.16,1.88-1.73,2.8,1.18.57,2.47,1.07,3.64,1.88-.26.28-.48.51-.7.74-1.28-.66-2.52-1.3-3.8-1.95-1.49,1.06-3.14,1.67-4.94,2.04-.18-.24-.37-.5-.61-.83,1.55-.35,3.05-.67,4.48-1.63Zm-1.69-1.58c.9.32,1.74.62,2.57.91.72-.67,1.2-1.43,1.56-2.33h-3.21c-.3.46-.58.9-.91,1.42Z"/>
  <path class="uuid-e87a67ca-f429-4bde-9779-f5b626550bc4" d="m48.36,42.12v-1.56h-1.78v-.94h-.85v.98h-1.5v.7h1.5v.9h-2.09v.73h2.1v.97h-1.57c.03.27.04.46.07.72h1.5v.85h-1.73v.77h1.71v.94h-2.01v.76h2.03c.02.51.04.95.06,1.4h.75v-1.41h2.45v-.76h-2.43v-.96h2.05c-.02-.29-.03-.5-.04-.77h-2v-.82c.61-.02,1.18-.04,1.81-.07v-1.59s0,0,0,0h.84v-.85h-.88Zm-1.78.02v-.79h1.03v.79h-1.03Zm1.04,1.71h-1.03v-.88h1.03v.88Z"/>
  <path class="uuid-e87a67ca-f429-4bde-9779-f5b626550bc4" d="m29.08,56.5v2.45c.46-.14.88-.26,1.37-.41.04.29.08.54.13.83-.5.18-.98.34-1.52.53v4.39h-.84v-4.12c-.71.21-1.35.4-2.03.6-.08-.31-.16-.57-.24-.88.77-.23,1.48-.44,2.22-.66v-2.68h-1.02c-.18.59-.36,1.16-.55,1.79-.28-.17-.49-.29-.63-.37.28-1.39.54-2.71.82-4.09.21.02.43.04.71.07-.06.56-.11,1.07-.16,1.63h.86v-2.38c.29-.01.52-.02.84-.04v2.44h1.24v.89h-1.19Z"/>
  <path class="uuid-e87a67ca-f429-4bde-9779-f5b626550bc4" d="m49.28,49.74c-.12.33-.2.54-.29.77-1.32-.02-2.62.11-3.91-.15-.95-.19-1.81-.59-2.55-1.24-.48.54-.93,1.05-1.42,1.62-.25-.23-.43-.41-.65-.61.57-.53,1.12-1.01,1.39-1.65-.36-.78-.7-1.51-1.06-2.3.28-.12.47-.2.69-.3.24.54.46,1.05.68,1.56.48-.85.58-1.72.7-2.67h-1.79c.47-1.18.91-2.29,1.39-3.48-.48-.04-.86-.07-1.28-.1v-.71h2.44c-.47,1.19-.91,2.32-1.37,3.48.51.03.97.06,1.48.09-.08,1.52-.37,2.9-.87,4.25.75.79,1.68,1.19,2.7,1.3.95.11,1.91.1,2.86.13.26,0,.52,0,.87,0Z"/>
  <path class="uuid-e87a67ca-f429-4bde-9779-f5b626550bc4" d="m60.42,59.45v4.74h-.79c-.05-.14-.09-.29-.15-.45h-4.2c-.05.14-.1.28-.17.46h-.7c-.13-.44-.16-4-.03-4.75h6.03Zm-5.19,3.37h4.29v-2.5c-1.22-.1-3.84-.06-4.29.07v2.43Z"/>
  <path class="uuid-e87a67ca-f429-4bde-9779-f5b626550bc4" d="m41.97,54.81h-1.3v2.61c.39.02.75.03,1.16.05v.83c-.38.02-.75.04-1.16.07v2.89c.44-.13.83-.24,1.29-.37.06.29.11.54.17.86-1.25.42-2.47.84-3.77,1.28-.08-.33-.15-.61-.23-.93.56-.19,1.07-.36,1.61-.54v-3.19c-.42-.02-.86-.04-1.34-.06v-.83c.44-.02.87-.04,1.34-.06v-2.62h-1.45v-.81c.43-.12,2.99-.15,3.69-.03v.84Z"/>
  <path class="uuid-e87a67ca-f429-4bde-9779-f5b626550bc4" d="m56.59,53.13c.33.1.59.19.91.29-.69,1.4-1.5,2.63-2.44,3.92,1.52-.09,2.93-.18,4.44-.27-.52-.68-.99-1.29-1.5-1.95.26-.14.48-.25.75-.39.99,1.06,1.85,2.17,2.57,3.48-.28.16-.52.3-.79.46-.16-.24-.3-.45-.5-.74-2.01.15-4.05.29-6.15.45-.03-.07-.1-.2-.15-.32-.05-.13-.09-.27-.13-.4,1.31-1.29,2.12-2.89,2.99-4.52Z"/>
  <path class="uuid-e87a67ca-f429-4bde-9779-f5b626550bc4" d="m52.15,43.81c-.5.07-1,.14-1.54.22-.08-.23-.16-.46-.24-.67,1.02-1.09,1.58-2.43,2.23-3.8.24.09.48.18.77.28-.45,1.19-1.12,2.2-1.78,3.28.42-.04.78-.08,1.21-.13.29-.51.61-1.06.95-1.66.23.13.45.25.71.4-.71,1.46-1.6,2.76-2.64,4.08.71-.09,1.34-.18,2.02-.26-.14-.41-.26-.76-.41-1.17.18-.1.35-.19.51-.27.41.5.83,1.63.92,2.44-.18.08-.38.16-.61.26-.08-.2-.15-.36-.24-.57-.56.09-1.12.17-1.67.26-.54.09-1.07.21-1.65.32-.08-.23-.16-.45-.22-.62.62-.78,1.2-1.53,1.79-2.27-.04-.04-.07-.07-.11-.11Z"/>
  <path class="uuid-e87a67ca-f429-4bde-9779-f5b626550bc4" d="m32.19,40.96h4.26v2.42h-.89v-1.52h-8v1.51h-.83c-.14-.41-.16-1.63-.04-2.39h4.35c-.19-.45-.35-.81-.52-1.22.32-.07.61-.14.93-.21.25.47.47.9.74,1.41Z"/>
  <path class="uuid-e87a67ca-f429-4bde-9779-f5b626550bc4" d="m40.24,50.62h-.79v-6.6c-.31.43-.55.76-.8,1.1-.31-.21-.32-.57-.56-.82,1.09-1.41,1.71-3.01,2.23-4.7.27.07.5.13.82.22-.14.44-.22.86-.4,1.23-.42.87-.49,1.78-.47,2.73.03,2.06.01,4.11.01,6.17,0,.22-.02.44-.03.69Z"/>
  <path class="uuid-e87a67ca-f429-4bde-9779-f5b626550bc4" d="m52.98,59.63c.22.19.42.36.65.56-.66,1.32-1.38,2.58-2.2,3.88-.27-.21-.5-.38-.76-.58.77-1.29,1.52-2.55,2.31-3.86Z"/>
  <path class="uuid-e87a67ca-f429-4bde-9779-f5b626550bc4" d="m53.35,55.29c-.76-.45-1.49-.88-2.27-1.34.18-.23.34-.43.53-.67.76.41,1.49.8,2.21,1.19q-.09.41-.47.83Z"/>
  <path class="uuid-e87a67ca-f429-4bde-9779-f5b626550bc4" d="m50.36,57.28c.17-.23.32-.44.48-.67.81.35,1.55.74,2.27,1.25-.19.26-.33.47-.51.72-.74-.43-1.47-.85-2.24-1.3Z"/>
  <path class="uuid-e87a67ca-f429-4bde-9779-f5b626550bc4" d="m65.81,64.06c-.24-.19-.45-.35-.67-.52.62-.59,1.21-1.16,1.86-1.79.19.07.43.16.73.27-.57.79-1.19,1.46-1.93,2.04Z"/>
  <path class="uuid-e87a67ca-f429-4bde-9779-f5b626550bc4" d="m70.87,62.18c.06-.07.08-.13.13-.16.13-.09.27-.17.49-.3.62.62,1.24,1.24,1.91,1.92-.25.17-.45.31-.7.48-.62-.65-1.22-1.29-1.83-1.94Z"/>
  <path class="uuid-e87a67ca-f429-4bde-9779-f5b626550bc4" d="m51.01,50.43c-.25-.09-.45-.16-.63-.22.19-.97.37-1.88.56-2.85.21.03.42.06.68.09-.1,1.02-.25,1.99-.61,2.97Z"/>
  <path class="uuid-e87a67ca-f429-4bde-9779-f5b626550bc4" d="m64.08,57.65c-.27.14-.47.23-.74.37-.27-.84-.52-1.63-.79-2.46.24-.08.45-.15.71-.25.28.79.53,1.53.81,2.33Z"/>
  <path class="uuid-e87a67ca-f429-4bde-9779-f5b626550bc4" d="m52.22,47.46c.22-.06.39-.11.63-.18.24.88.3,1.74.38,2.64-.24.06-.43.11-.68.17-.11-.87-.21-1.71-.33-2.62Z"/>
  <path class="uuid-e87a67ca-f429-4bde-9779-f5b626550bc4" d="m53.55,47.18c.23-.07.42-.12.65-.19.24.79.47,1.54.73,2.36-.24.09-.43.16-.67.24-.24-.82-.46-1.57-.71-2.41Z"/>
  <path class="uuid-e87a67ca-f429-4bde-9779-f5b626550bc4" d="m66.84,48.16c-.3-.2-.6-.39-.9-.6-.32-.22-.63-.44-.99-.69.17-.18.31-.33.51-.54.6.41,1.19.8,1.8,1.21-.17.25-.29.44-.42.63l.02-.02Z"/>
  <path class="uuid-e87a67ca-f429-4bde-9779-f5b626550bc4" d="m57.86,39.89c.28-.11.5-.2.8-.32.28.56.56,1.09.85,1.68-.29.14-.52.25-.8.38-.28-.58-.55-1.12-.85-1.74Z"/>
</svg>