<?xml version="1.0" encoding="UTF-8"?>
<svg id="uuid-22c4a66f-f5f9-4f1d-ab53-6b6ca24678e2" data-name="圖層 1" xmlns="http://www.w3.org/2000/svg" viewBox="0 0 100 100">
  <defs>
    <style>
      .uuid-48895092-e1d5-4a01-baaa-ce88f61c9490 {
        stroke-width: 0px;
      }
    </style>
  </defs>
  <path class="uuid-48895092-e1d5-4a01-baaa-ce88f61c9490" d="m41.96,59.59c-.46.13-.85.24-1.29.37v-2.89c.41-.02.78-.04,1.16-.07v-.83c-.41-.02-.77-.04-1.16-.05v-2.61h1.3v-.84c-.7-.12-3.25-.09-3.69.03v.81h1.45v2.62c-.47.02-.9.04-1.34.06v.83c.48.02.92.04,1.34.06v3.19c-.54.18-1.05.35-1.61.54.08.32.15.6.23.93,1.3-.44,2.52-.86,3.77-1.28-.06-.33-.11-.57-.17-.86Zm40.62-17.98c-.81-3.05-2.05-5.91-3.69-8.61-1.55-2.55-3.35-4.91-5.48-7.01-2.8-2.77-5.95-5.07-9.51-6.77-2.06-.98-4.19-1.8-6.44-2.24-1.23-.24-2.46-.53-3.71-.69-2.04-.25-4.09-.31-6.16-.17-2.08.14-4.12.46-6.13.97-2.96.75-5.75,1.9-8.37,3.47-2.63,1.58-5.03,3.45-7.19,5.64-2.45,2.48-4.48,5.27-6.15,8.32-1.33,2.44-2.3,5.02-2.97,7.72-.56,2.25-.86,4.52-.93,6.82-.08,2.9.22,5.76.93,8.59.41,1.64.91,3.25,1.57,4.81,1.86,4.4,4.5,8.3,7.92,11.63,4.48,4.36,9.68,7.45,15.82,8.88,2.53.59,5.09.86,7.67.94,2.6-.08,5.16-.35,7.69-.94,2.85-.67,5.56-1.7,8.12-3.12,6.13-3.43,10.83-8.28,14.19-14.44,1.4-2.57,2.42-5.29,3.08-8.14.58-2.51.86-5.06.83-7.63-.03-2.72-.4-5.4-1.09-8.02Zm.23,10.44c-.12,1.95-.43,3.88-.93,5.78-.66,2.51-1.6,4.91-2.82,7.19-1.46,2.72-3.26,5.2-5.35,7.47-2.42,2.63-5.22,4.79-8.31,6.56-1.97,1.13-4.06,1.98-6.23,2.64-3.56,1.08-7.2,1.51-10.91,1.35-2.1-.09-4.17-.39-6.22-.88-2.76-.66-5.39-1.7-7.87-3.08-2.23-1.24-4.27-2.76-6.18-4.46-2.8-2.48-5.07-5.39-6.97-8.6-1.38-2.32-2.42-4.8-3.17-7.38-.52-1.81-.88-3.67-1.04-5.57-.14-1.69-.24-3.37-.1-5.06.15-1.85.39-3.68.83-5.48.69-2.83,1.74-5.51,3.15-8.04,1.43-2.57,3.16-4.94,5.17-7.09,2.27-2.43,4.85-4.46,7.7-6.17,2.17-1.3,4.49-2.28,6.9-3.01,3.04-.92,6.16-1.33,8.57-1.35,3.64,0,6.49.35,9.27,1.12,3.76,1.04,7.22,2.72,10.39,5.02,4.25,3.08,7.59,6.94,10.17,11.48,1.07,1.88,1.9,3.87,2.56,5.93,1.22,3.79,1.66,7.67,1.42,11.63Zm-9.56,4.02c-.22-.16-.37-.28-.55-.4-.33.3-.63.58-.97.9-.28-.34-.52-.62-.84-1.01h2.54v-.73h-4.04c.09-.33.16-.59.24-.88-.21-.07-.37-.13-.65-.22h4.64v-.75h-4.08c-.16-.4-.3-.73-.45-1.12-.31.07-.59.13-.88.19.09.34.16.61.24.92-1.44.03-2.81-.01-4.23.03v4.79c-.63.32-1.22.62-1.84.93.12.3.21.53.32.81.49-.27.92-.51,1.41-.79-.12,1.42-.57,2.62-1.36,3.66.21.24.38.42.6.66,1.26-1.51,1.57-3.26,1.75-5.13.26.21.43.34.62.49.3-.14.61-.27,1-.45v2.27h2.24c0,.4,0,.73,0,1.05,0,.32-.02.63-.04,1.01h-1.37c.06.19.09.31.14.42.05.11.11.21.16.32.37,0,.72.02,1.06,0,.76-.05.95-.27.96-1.04,0-.56,0-1.13,0-1.75h2.31v-2.29c.39.18.69.32,1.02.47.18-.21.34-.39.5-.59-.47-.31-1.01-.41-1.4-.9.32-.28.62-.54.95-.84Zm-3.26-.47c.34.46.67.91,1.02,1.39h-3.13c.38-.5.71-.94,1.05-1.39h1.06Zm-3.82.14c-.17.15-.31.28-.48.44.31.27.57.51.87.78-.41.41-.89.64-1.44.87v-4.02h3.67c-.15.37-.27.68-.41,1.01h-2.73v.73h2.27c-.31.38-.52.63-.74.9-.36-.26-.67-.48-1.01-.72Zm5.14,1.94v.57h-3.79c-.01-.18-.02-.35-.04-.57h3.82Zm-3.8,1.87v-.57c.41-.12,2.71-.16,3.8-.06.01.18.03.38.04.56-.45.14-2.78.19-3.85.07Zm-28.86-15.72c.25-.35.49-.67.8-1.1v6.6h.79c.01-.25.03-.47.03-.69,0-2.06.02-4.11-.01-6.17-.01-.95.06-1.86.47-2.73.18-.37.26-.79.4-1.23-.32-.08-.54-.14-.82-.22-.52,1.69-1.14,3.3-2.23,4.7.23.26.24.62.56.82Zm-10.8,1.88c1.04.38,2.02.75,3.13,1.16-1.43.96-2.93,1.28-4.48,1.63.24.33.43.59.61.83,1.8-.37,3.45-.98,4.94-2.04,1.28.66,2.52,1.3,3.8,1.95.21-.23.43-.46.7-.74-1.17-.81-2.46-1.31-3.64-1.88.57-.93,1.12-1.82,1.73-2.8h2.15v-.89h-6.03c.29-.6.55-1.12.84-1.71-.38-.08-.67-.14-.98-.2-.34.65-.66,1.28-1,1.95h-3.25v.88h2.72c-.45.68-.84,1.26-1.24,1.86Zm2.35-1.84h3.21c-.36.9-.83,1.66-1.56,2.33-.83-.29-1.66-.59-2.57-.91.33-.51.62-.96.91-1.42Zm15.53-1.26h-1.57c.03.27.04.46.07.72h1.5v.85h-1.73v.77h1.71v.94h-2.01v.76h2.03c.02.51.04.95.06,1.4h.75v-1.41h2.45v-.76h-2.43v-.96h2.05c-.02-.29-.03-.5-.04-.77h-2v-.82c.61-.02,1.18-.04,1.81-.07v-1.59s0,0,0,0h.84v-.85h-.88v-1.56h-1.78v-.94h-.85v.98h-1.5v.7h1.5v.9h-2.09v.73h2.1v.97Zm1.88-.05h-1.03v-.88h1.03v.88Zm-1.04-2.5h1.03v.79h-1.03v-.79Zm-5.53,3.42h1.79c-.11.95-.22,1.82-.7,2.67-.22-.51-.44-1.02-.68-1.56-.22.09-.41.18-.69.3.37.79.7,1.52,1.06,2.3-.27.64-.82,1.13-1.39,1.65.22.2.4.37.65.61.5-.57.95-1.08,1.42-1.62.74.65,1.6,1.05,2.55,1.24,1.29.26,2.59.13,3.91.15.09-.23.16-.44.29-.77-.35,0-.61,0-.87,0-.95-.04-1.91-.03-2.86-.13-1.03-.11-1.96-.51-2.7-1.3.5-1.36.78-2.74.87-4.25-.51-.03-.97-.06-1.48-.09.46-1.16.9-2.29,1.37-3.48h-2.44v.71c.42.03.81.06,1.28.1-.48,1.19-.92,2.29-1.39,3.48ZM50.06,7.12c-24.08-.01-42.79,19.62-42.92,42.26-.07,11.86,3.89,22.14,12.2,30.59,8.86,9.02,19.72,13.26,32.38,12.88,22.31-.67,41.33-19.46,41.14-42.8.23-23.36-19.01-42.92-42.8-42.93Zm-.09,83.22c-22.02,0-40.46-18.13-40.27-40.74.18-21.4,17.65-39.88,40.31-39.9,22.21-.01,40.34,18.07,40.3,40.4-.04,22.32-18.33,40.24-40.34,40.24Zm-22.41-48.27v-1.51h8v1.52h.89v-2.42h-4.26c-.27-.51-.49-.94-.74-1.41-.32.07-.61.14-.93.21.17.41.33.77.52,1.22h-4.35c-.13.76-.1,1.98.04,2.39h.83Zm4.77,11.75c.17-.63.32-1.19.49-1.82-.3-.06-.55-.11-.84-.17-.45,1.7-1,3.31-2.15,4.68.25.19.45.35.69.52.65-.68,1.01-1.5,1.41-2.27h1c-.59,1.91-1.42,3.63-2.88,4.99.17.12.26.19.36.26.11.08.23.15.39.25,1.59-1.54,2.34-3.51,2.99-5.53.18,0,.32-.02.46-.02.13,0,.27.03.48.06-.67,2.85-1.59,5.5-3.9,7.49.29.2.51.36.78.54,2.4-2.19,3.26-5.08,3.95-8.06h.5c.01.11.03.19.03.27-.14,1.7-.27,3.41-.43,5.11-.04.44-.15.88-.28,1.31-.14.47-.31.57-.81.58-.32,0-.64,0-1.02,0,.08.33.14.59.21.89.42,0,.78,0,1.15,0,.68,0,1.12-.35,1.31-.98.13-.41.25-.83.28-1.25.18-2.11.33-4.22.49-6.33.01-.14-.02-.28-.03-.52h-4.64Zm26.84-7.81h1.78v-.84h-1.77v-1.51h1.77v-.87h-1.77v-1.56h1.99v-.85h-4.37c.25-.65.47-1.23.71-1.86-.34-.09-.61-.16-.9-.24-.52,1.59-1.21,3.03-2.15,4.34.16.28.29.52.44.8.26-.31.47-.55.78-.91v6.89h.78c.02-.29.05-.55.07-.85h4.8v-.87h-2.17v-1.68Zm-2.64-4.71h1.71v1.5h-1.71v-1.5Zm1.71,6.36h-1.7v-1.61h1.7v1.61Zm.06-2.47h-1.76v-.02h0v-1.46h0v-.04h1.76v1.51Zm-12.05,14.87h2.69v-.87h-2.73v-1.42h2.6c0-1.83.02-3.61-.02-5.39h-6.09c-.14.73-.11,4.92.05,5.41h2.42v1.43h-2.66v.87h2.66v1.57h-3.61v.84h7.78v-.84h-3.15c-.03-.56-.09-1.06.05-1.6Zm-.14-6.9c.58-.04,1.16-.03,1.78,0v1.47h-1.78v-1.47Zm-.85,3.79h-1.75v-1.48h1.75v1.48Zm0-2.33h-1.75v-1.45h1.75v1.45Zm.84.85h1.79v1.49h-1.79v-1.49Zm-15.65,1.75c-.49.15-.91.27-1.37.41v-2.45h1.19v-.89h-1.24v-2.44c-.31.01-.55.02-.84.04v2.38h-.86c.05-.55.1-1.07.16-1.63-.29-.03-.5-.05-.71-.07-.27,1.37-.54,2.7-.82,4.09.14.08.35.21.63.37.19-.63.37-1.2.55-1.79h1.02v2.68c-.74.22-1.45.43-2.22.66.08.31.16.58.24.88.68-.2,1.31-.39,2.03-.6v4.12h.84v-4.39c.54-.19,1.02-.36,1.52-.53-.04-.29-.08-.54-.13-.83Zm40.55,3.48s-.08.09-.13.16c.61.64,1.21,1.29,1.83,1.94.25-.17.44-.31.7-.48-.67-.68-1.3-1.3-1.91-1.92-.21.13-.35.21-.49.3Zm-5.55-15.67c-.19.2-.34.36-.51.54.36.25.68.47.99.69.3.2.6.4.9.59.13-.19.25-.37.41-.61-.61-.41-1.19-.8-1.8-1.21Zm-12.34,11.51c-.72-.51-1.46-.89-2.27-1.25-.17.23-.32.44-.48.67.77.45,1.5.87,2.24,1.3.18-.25.33-.46.51-.72Zm1.31,6.34h.7c.07-.18.12-.32.17-.46h4.2c.05.16.1.3.15.45h.79v-4.74h-6.03c-.13.75-.1,4.3.03,4.75Zm.8-3.81c.45-.13,3.07-.17,4.29-.07v2.5h-4.29v-2.43Zm11.78,1.37c-.65.63-1.24,1.2-1.86,1.79.22.17.43.33.67.52.74-.58,1.36-1.25,1.93-2.04-.31-.11-.54-.2-.73-.27Zm-9-6.64c.51.67.98,1.27,1.5,1.95-1.51.09-2.92.18-4.44.27.94-1.29,1.75-2.52,2.44-3.92-.32-.1-.58-.19-.91-.29-.87,1.63-1.68,3.23-2.99,4.52.04.13.08.27.13.4.05.13.11.25.15.32,2.1-.15,4.14-.3,6.15-.45.2.29.34.5.5.74.27-.16.51-.3.79-.46-.72-1.3-1.58-2.42-2.57-3.48-.26.14-.49.26-.75.39Zm-3.07-5.76c-.25-.82-.48-1.57-.73-2.36-.24.07-.42.12-.66.19.25.84.47,1.6.71,2.41.24-.09.43-.15.67-.24Zm-4.26,14.14c.26.19.49.37.76.58.81-1.3,1.54-2.55,2.2-3.88-.23-.2-.43-.37-.65-.56-.78,1.31-1.53,2.57-2.31,3.86Zm11.88-7.93c.27.83.52,1.62.79,2.46.27-.13.46-.23.74-.37-.28-.8-.53-1.54-.81-2.33-.27.09-.47.16-.71.25Zm-3.04-14.31c-.3-.59-.57-1.12-.85-1.68-.3.12-.52.21-.8.32.3.62.56,1.16.85,1.74.28-.13.51-.24.8-.38Zm4.01,8.66c.47-1.19.68-2.43.74-3.7.06-1.34.04-2.69.06-4.03,0-.22,0-.44,0-.69h3.95v.92h-3.06c.01.25.02.44.04.67h3v.85h-3.6v.71h3.62v.96h-3.17c.02.25.03.42.05.67h3.12v1.37c-.5.18-.97.35-1.45.53l.02-.02s0,0,0,0c0,0,0,0,0,0-.84.34-1.68.68-2.55,1.04.14.26.26.48.39.73,1.23-.52,2.4-1.01,3.65-1.53-.05.54.09.99-.15,1.49h-1.83c.13.31.22.53.3.73.62,0,1.19.04,1.76-.01.57-.05.78-.32.8-.88,0-.18,0-.37,0-.55,0-.44,0-.88,0-1.32,1.14,1.11,2.42,1.85,3.93,2.24.17-.24.33-.46.53-.74-1-.26-1.88-.56-2.69-1.14.68-.42,1.29-.81,1.98-1.25-.28-.22-.5-.38-.69-.53-.68.45-1.3.87-1.96,1.31-.45-.44-.87-.84-1.12-1.49h3.19c.03-.57.05-1.06.07-1.58.42-.02.77-.04,1.17-.05-.02-.29-.04-.5-.06-.78h-1.17v-1.46h-3.16v-.95h4.17v-.79h-4.06c-.28-.42-.53-.81-.79-1.21-.31.11-.56.21-.83.3.17.33.3.59.48.92-.62,0-1.13,0-1.63,0-.53,0-1.06-.01-1.59,0-.5.02-1-.08-1.51.07,0,1.05.02,2.07,0,3.08-.04,1.36,0,2.74-.31,4.07-.18.77-.43,1.52-.67,2.31.18.12.4.26.67.44.13-.27.26-.5.35-.73Zm8-4.38h-2.27v-.88h2.27v.88Zm-2.27-2.42h2.28c.01.23.03.45.04.75h-2.32v-.75Zm-17.09.69s.07.07.11.11c-.59.74-1.17,1.48-1.79,2.27.06.16.14.39.22.62.58-.11,1.11-.22,1.65-.32.56-.1,1.11-.18,1.67-.26.09.21.16.37.24.57.23-.1.43-.18.61-.26-.08-.8-.51-1.94-.92-2.44-.16.08-.33.17-.51.27.14.41.27.77.41,1.17-.68.09-1.31.17-2.02.26,1.03-1.32,1.93-2.62,2.64-4.08-.26-.14-.48-.27-.71-.4-.35.6-.66,1.15-.95,1.66-.43.04-.79.08-1.21.13.66-1.08,1.33-2.09,1.78-3.28-.29-.11-.52-.19-.77-.28-.65,1.37-1.21,2.7-2.23,3.8.08.22.16.44.24.67.54-.08,1.04-.15,1.54-.22Zm.7,3.46c-.24.07-.4.12-.63.18.11.91.22,1.75.33,2.62.25-.06.44-.11.68-.17-.08-.9-.14-1.76-.38-2.64Zm-1.91.09c-.19.97-.37,1.88-.56,2.85.18.06.38.13.63.22.36-.99.51-1.95.61-2.97-.27-.04-.47-.07-.68-.09Zm2.88,7.1c-.72-.39-1.45-.78-2.21-1.19-.19.24-.35.44-.53.67.78.46,1.51.89,2.27,1.34q.38-.42.47-.83Z"/>
</svg>