<?xml version="1.0" encoding="UTF-8"?>
<svg id="uuid-5b59e5b2-ac56-40e6-984f-b74fb054e648" data-name="圖層 1" xmlns="http://www.w3.org/2000/svg" viewBox="0 0 100 100">
  <defs>
    <style>
      .uuid-6cbaae45-b9f8-4f35-99e6-4607520f9e22 {
        stroke-width: 0px;
      }
    </style>
  </defs>
  <path class="uuid-6cbaae45-b9f8-4f35-99e6-4607520f9e22" d="m34.17,67.99c.25-.29.38-.68.38-1.17,0-.55-.15-.99-.46-1.31-.31-.32-.73-.49-1.27-.49h-4.05v5.71h.85v-2.18h2.59l1.39,2.18h.99l-1.38-2.22c.41-.07.73-.25.96-.52Zm-4.56-.28v-1.83h3c.71,0,1.06.32,1.06.95,0,.59-.33.88-.99.88h-3.07Zm-17.83.85h2.39c-.34.98-1.08,1.48-2.21,1.48-.72,0-1.31-.2-1.75-.6-.44-.4-.66-.92-.66-1.56s.26-1.21.77-1.62c.44-.36.99-.54,1.64-.54.84,0,1.52.32,2.06.95l.8-.44c-.72-.92-1.65-1.38-2.78-1.38-.94,0-1.71.26-2.32.77-.7.59-1.04,1.34-1.04,2.26s.34,1.69,1.03,2.26c.61.51,1.36.76,2.26.76.99,0,1.78-.29,2.38-.86.6-.57.9-1.32.9-2.25v-.09h-3.46v.85Zm39.24-3.71c-.89,0-1.64.26-2.26.77-.7.59-1.05,1.34-1.05,2.26s.35,1.69,1.04,2.26c.61.51,1.36.76,2.27.76s1.65-.25,2.26-.76c.69-.58,1.04-1.34,1.04-2.27s-.35-1.67-1.04-2.26c-.61-.52-1.36-.77-2.25-.77Zm1.75,4.59c-.44.4-1.02.6-1.75.6s-1.32-.2-1.76-.6c-.44-.4-.66-.92-.66-1.57s.22-1.14.67-1.55c.45-.41,1.03-.61,1.75-.61.65,0,1.2.18,1.64.54.51.42.77.96.77,1.62s-.22,1.16-.66,1.56Zm19.99-.77c0,.45-.17.79-.52,1.03-.35.24-.86.35-1.53.35s-1.18-.12-1.54-.35c-.35-.24-.53-.58-.53-1.03v-3.64h-.85v3.87c0,.59.26,1.07.78,1.44.54.38,1.25.58,2.14.58s1.59-.19,2.12-.58c.52-.37.78-.85.78-1.44v-3.87h-.85v3.64Zm14.02-39.53h-22.09l-11.55,14.5-11.5-14.5h-6.64v22.64h-15.9c-3.41,0-6.13-.8-8.09-2.39-1.92-1.55-2.86-3.54-2.86-6.08s.95-4.41,2.9-6c1.98-1.62,4.61-2.44,7.82-2.44h9.06v-5.77h-9.06c-4.55,0-8.43,1.19-11.53,3.55-3.63,2.74-5.47,6.32-5.47,10.66s1.82,8.01,5.4,10.73c3.08,2.33,6.99,3.51,11.6,3.51h22.25v-20.16l11.99,15.17,12.1-15.19v20.21h6.11v-5.83h15.47c6.26,0,11.34-5.08,11.34-11.34s-5.08-11.27-11.34-11.27Zm.3,16.2h-15.77v-9.86h15.77c2.72,0,4.93,2.21,4.93,4.93s-2.21,4.93-4.93,4.93Zm4.36,19.7h-4.08v5.71h.85v-2.18h3.06c.61,0,1.08-.15,1.4-.45.32-.3.48-.73.48-1.3s-.15-.97-.46-1.3c-.31-.32-.72-.49-1.25-.49Zm-.15,2.68h-3.07v-1.83h3.02c.7,0,1.04.32,1.04.95,0,.59-.33.88-.99.88Z"/>
</svg>