<?xml version="1.0" encoding="UTF-8"?>
<svg id="_圖層_1" data-name="圖層 1" xmlns="http://www.w3.org/2000/svg" viewBox="0 0 100 100">
  <defs>
    <style>
      .cls-1 {
        fill: #121212;
      }

      .cls-1, .cls-2, .cls-3, .cls-4 {
        stroke-width: 0px;
      }

      .cls-2 {
        fill: #fff;
      }

      .cls-3 {
        fill: #ea6165;
      }

      .cls-4 {
        fill: #f6b159;
      }
    </style>
  </defs>
  <g>
    <polygon class="cls-1" points="13.92 60.17 6.01 60.17 6.01 61.76 8.99 61.76 8.99 71.38 10.95 71.38 10.95 61.76 13.92 61.76 13.92 60.17"/>
    <path class="cls-1" d="m19.34,65.13c-.65-.68-1.39-1.02-2.21-1.02-.95,0-1.75.35-2.38,1.06-.63.71-.95,1.59-.95,2.65s.32,1.98.95,2.7c.64.71,1.45,1.06,2.42,1.06.77,0,1.5-.31,2.17-.94v.74h1.64v-7.07h-1.64v.82Zm-.46,4.37c-.37.42-.86.62-1.47.62-.57,0-1.04-.22-1.41-.65-.36-.43-.54-.98-.54-1.65,0-.63.19-1.17.56-1.6.38-.43.85-.64,1.41-.64.59,0,1.08.21,1.45.63.37.43.56.98.56,1.64s-.19,1.21-.56,1.64Z"/>
    <path class="cls-1" d="m23.85,60.32c-.29,0-.54.1-.75.31-.21.21-.31.45-.31.74,0,.3.1.55.31.76.21.21.46.31.75.31s.54-.1.75-.31c.21-.21.31-.46.31-.75s-.1-.54-.31-.75c-.21-.21-.46-.31-.75-.31Z"/>
    <rect class="cls-1" x="23.04" y="64.31" width="1.63" height="7.07"/>
    <path class="cls-1" d="m43.22,65.13c-.65-.68-1.39-1.02-2.21-1.02-.95,0-1.75.35-2.38,1.06-.63.71-.95,1.59-.95,2.65s.32,1.98.95,2.7c.64.71,1.45,1.06,2.42,1.06.77,0,1.5-.31,2.17-.94v.74h1.64v-7.07h-1.64v.82Zm-.46,4.37c-.37.42-.86.62-1.47.62-.57,0-1.04-.22-1.41-.65-.36-.43-.54-.98-.54-1.65,0-.63.19-1.17.56-1.6.38-.43.85-.64,1.41-.64.59,0,1.08.21,1.45.63.37.43.56.98.56,1.64s-.19,1.21-.56,1.64Z"/>
    <path class="cls-1" d="m52.41,64.89c-.46-.52-1.1-.78-1.92-.78-.72,0-1.36.28-1.93.85v-.65h-1.64v7.07h1.64v-3.41c0-.88.11-1.5.33-1.85.23-.36.61-.54,1.15-.54.5,0,.84.14,1.03.41.19.27.29.75.29,1.44v3.95h1.64v-4.33c0-1-.2-1.71-.6-2.16Z"/>
    <polygon class="cls-1" points="35.31 64.31 33.49 69.06 31.75 64.31 31.2 64.31 29.48 69.06 27.63 64.31 26.12 64.31 25.79 64.31 28.79 71.58 30.11 71.58 31.48 67.9 32.83 71.58 34.14 71.58 37.14 64.31 36.82 64.31 35.31 64.31"/>
  </g>
  <g>
    <polygon class="cls-1" points="65.65 60.17 63.08 64.65 60.52 60.17 58.58 60.17 62.23 66.54 62.23 71.38 63.93 71.38 63.93 66.54 67.6 60.17 65.65 60.17"/>
    <path class="cls-1" d="m70.15,64.11c-1.05,0-1.94.36-2.67,1.07-.73.72-1.1,1.58-1.1,2.61,0,1.08.36,1.98,1.07,2.7.72.73,1.6,1.09,2.66,1.09s1.97-.36,2.71-1.07c.73-.72,1.1-1.6,1.1-2.66s-.36-1.94-1.09-2.66c-.74-.72-1.63-1.08-2.69-1.08Zm1.53,5.39c-.38.41-.89.62-1.53.62s-1.14-.21-1.53-.62c-.38-.41-.57-.97-.57-1.68,0-.66.19-1.2.58-1.61.39-.42.89-.62,1.52-.62s1.14.21,1.53.62c.38.41.57.96.57,1.65s-.19,1.24-.57,1.65Z"/>
    <path class="cls-1" d="m80.06,68.37c0,1.17-.46,1.76-1.39,1.76s-1.39-.59-1.39-1.76v-4.06h-1.63v4.09c0,.65.07,1.14.2,1.47.14.37.38.7.72.99.55.48,1.25.72,2.1.72s1.55-.24,2.1-.72c.33-.29.57-.63.7-.99.14-.41.21-.9.21-1.47v-4.09h-1.63v4.06Z"/>
    <path class="cls-1" d="m94.44,64.89c-.48-.52-1.12-.78-1.92-.78-.7,0-1.34.26-1.92.78v-5.78h-1.63v12.26h1.63v-3.42c0-.87.11-1.49.34-1.84.23-.35.63-.53,1.2-.53.45,0,.77.13.97.38.2.25.3.66.3,1.23v4.18h1.63v-4.33c0-.99-.2-1.71-.61-2.16Z"/>
    <path class="cls-1" d="m85.86,69.43v-3.6h1.27v-1.52h-1.27v-2.59h-1.63v2.59h-.7v1.52h.7v4.47c0,.59.48,1.07,1.07,1.07h0s1.84,0,1.84,0v-1.63h-.96c-.18,0-.32-.14-.32-.32Z"/>
  </g>
  <g>
    <path class="cls-1" d="m6.76,76.68c-.45.54-.68,1.15-.68,1.84,0,.77.27,1.42.82,1.97.55.54,1.2.81,1.98.81.51,0,1-.13,1.47-.4v-.98c-.13.11-.26.21-.38.29-.12.08-.24.14-.35.19-.2.09-.44.14-.73.14-.56,0-1.02-.19-1.41-.58-.38-.39-.57-.87-.57-1.43s.19-1.06.57-1.46c.38-.4.85-.6,1.4-.6.5,0,.99.2,1.46.59v-.97c-.45-.26-.92-.4-1.41-.4-.89,0-1.61.33-2.17.99Z"/>
    <path class="cls-1" d="m12.39,77.78c-.11.06-.24.16-.38.31v-.3h-.79v3.41h.79v-1.77c0-.65.21-.97.64-.97.14,0,.29.05.44.16l.36-.72c-.23-.14-.44-.2-.65-.2-.16,0-.29.03-.41.09Z"/>
    <path class="cls-1" d="m15.89,80.45c-.13.09-.29.14-.49.14-.25,0-.46-.08-.62-.24-.16-.17-.25-.39-.27-.67h2.44v-.19c0-.56-.14-1-.43-1.32-.29-.32-.69-.48-1.19-.48s-.9.16-1.2.49c-.3.33-.45.77-.45,1.31s.15.98.46,1.31c.31.33.72.49,1.22.49.18,0,.34-.02.49-.06.15-.04.29-.1.42-.18.13-.08.25-.18.37-.31.11-.12.22-.27.33-.45l-.66-.37c-.16.25-.3.42-.43.52Zm-1.21-1.68c.05-.08.11-.14.18-.2.07-.05.15-.1.23-.13s.17-.04.27-.04c.42,0,.68.21.79.63h-1.58c.03-.1.06-.19.11-.26Z"/>
    <path class="cls-1" d="m20.32,78.18c-.31-.33-.67-.49-1.07-.49-.46,0-.84.17-1.15.51-.31.34-.46.77-.46,1.28s.15.95.46,1.3c.31.34.7.51,1.17.51.37,0,.72-.15,1.05-.45v.36h.79v-3.41h-.79v.4Zm-.22,2.11c-.18.2-.42.3-.71.3-.27,0-.5-.1-.68-.31-.18-.21-.26-.47-.26-.8,0-.31.09-.56.27-.77.18-.21.41-.31.68-.31.29,0,.52.1.7.3.18.21.27.47.27.79s-.09.58-.27.79Z"/>
    <path class="cls-1" d="m24.87,75.86c-.14,0-.26.05-.36.15-.1.1-.15.22-.15.36,0,.14.05.27.15.37.1.1.22.15.36.15s.26-.05.36-.15c.1-.1.15-.22.15-.36s-.05-.26-.15-.36c-.1-.1-.22-.15-.36-.15Z"/>
    <rect class="cls-1" x="24.48" y="77.79" width=".79" height="3.41"/>
    <path class="cls-1" d="m32.21,79.93c-.16.25-.3.42-.43.52-.13.09-.29.14-.49.14-.25,0-.46-.08-.62-.24-.16-.17-.25-.39-.27-.67h2.44v-.19c0-.56-.14-1-.43-1.32-.29-.32-.69-.48-1.19-.48s-.9.16-1.2.49c-.3.33-.45.77-.45,1.31s.15.98.46,1.31c.31.33.72.49,1.22.49.18,0,.34-.02.49-.06.15-.04.29-.1.42-.18.13-.08.25-.18.37-.31.11-.12.22-.27.33-.45l-.66-.37Zm-1.64-1.16c.05-.08.11-.14.18-.2.07-.05.15-.1.23-.13.08-.03.17-.04.27-.04.42,0,.68.21.79.63h-1.58c.03-.1.06-.19.11-.26Z"/>
    <polygon class="cls-1" points="27.56 80.12 26.68 77.79 25.8 77.79 27.15 81.19 27.97 81.19 29.33 77.79 28.44 77.79 27.56 80.12"/>
    <path class="cls-1" d="m22.99,80.25v-1.73h.61v-.73h-.61v-1.25h-.79v1.25h-.34v.73h.34v2.16c0,.29.23.52.52.52h0s.89,0,.89,0v-.78h-.46c-.09,0-.16-.07-.16-.16Z"/>
  </g>
  <g>
    <rect class="cls-1" x="46.97" y="77.79" width=".79" height="3.41"/>
    <path class="cls-1" d="m47.36,75.86c-.14,0-.26.05-.36.15-.1.1-.15.22-.15.36,0,.14.05.27.15.37.1.1.22.15.36.15s.26-.05.36-.15c.1-.1.15-.22.15-.36s-.05-.26-.15-.36c-.1-.1-.22-.15-.36-.15Z"/>
    <path class="cls-1" d="m50.37,77.69c-.51,0-.94.17-1.29.52-.35.35-.53.76-.53,1.26,0,.52.17.96.52,1.3.35.35.77.52,1.28.52s.95-.17,1.3-.51c.35-.34.53-.77.53-1.28s-.17-.93-.52-1.28c-.35-.35-.79-.52-1.29-.52Zm.74,2.6c-.18.2-.43.3-.74.3s-.55-.1-.74-.3c-.18-.2-.27-.47-.27-.81,0-.32.09-.58.28-.78.19-.2.43-.3.73-.3s.55.1.74.3c.18.2.28.46.28.79s-.09.6-.28.79Z"/>
    <path class="cls-1" d="m55.5,78.07c-.22-.25-.53-.37-.93-.37-.35,0-.66.14-.93.41v-.31h-.79v3.41h.79v-1.64c0-.42.05-.72.16-.89.11-.17.3-.26.56-.26.24,0,.41.07.5.2.09.13.14.36.14.7v1.9h.79v-2.09c0-.48-.1-.83-.29-1.04Z"/>
    <path class="cls-1" d="m37.72,75.86l-2.28,5.33h.88l.6-1.43h2.31l.57,1.43h.89l-2.2-5.33h-.78Zm-.46,3.07l.84-2,.8,2h-1.64Z"/>
    <path class="cls-1" d="m41.36,78.18c-.36.35-.54.78-.54,1.29s.18.93.53,1.28c.35.34.8.51,1.32.51.32,0,.64-.08.96-.25v-.7c-.46.31-.99.25-.99.25-.3,0-.54-.1-.73-.31-.19-.21-.28-.47-.28-.79s.1-.57.29-.78c.2-.21.44-.31.74-.31,0,0,.49-.05.98.24v-.71c-.3-.16-.62-.24-.95-.24-.52,0-.96.17-1.32.52Z"/>
    <path class="cls-1" d="m45.51,80.25v-1.73h.61v-.73h-.61v-1.25h-.79v1.25h-.34v.73h.34v2.16c0,.29.23.52.52.52h0s.89,0,.89,0v-.78h-.46c-.09,0-.16-.07-.16-.16Z"/>
  </g>
  <g>
    <path class="cls-1" d="m65.23,79.04c-.3-.13-.45-.26-.45-.39,0-.07.03-.14.08-.18.05-.05.11-.07.19-.07.15,0,.28.1.38.31l.65-.35c-.21-.45-.54-.68-.97-.68-.3,0-.55.1-.76.29-.2.19-.3.44-.3.73,0,.22.06.41.18.55.09.11.25.22.48.34.08.04.16.08.24.12.08.04.16.08.24.12.21.12.31.25.31.39,0,.24-.13.36-.4.36-.13,0-.25-.04-.34-.13-.05-.04-.12-.15-.21-.31l-.67.31c.24.56.64.84,1.21.84.33,0,.62-.1.85-.31.24-.22.36-.5.36-.83,0-.26-.07-.46-.22-.61-.14-.15-.43-.32-.84-.5Z"/>
    <path class="cls-1" d="m68.14,79.04c-.3-.13-.45-.26-.45-.39,0-.07.03-.14.08-.18.05-.05.11-.07.19-.07.15,0,.28.1.38.31l.65-.35c-.21-.45-.54-.68-.97-.68-.3,0-.55.1-.76.29-.2.19-.3.44-.3.73,0,.22.06.41.18.55.09.11.25.22.48.34.08.04.16.08.24.12.08.04.16.08.24.12.21.12.31.25.31.39,0,.24-.13.36-.4.36-.13,0-.25-.04-.34-.13-.05-.04-.12-.15-.21-.31l-.67.31c.24.56.64.84,1.21.84.33,0,.62-.1.85-.31.24-.22.36-.5.36-.83,0-.26-.07-.46-.22-.61-.14-.15-.43-.32-.84-.5Z"/>
    <path class="cls-1" d="m71.56,77.69c-.51,0-.94.17-1.29.52-.35.35-.53.76-.53,1.26,0,.52.17.96.52,1.3.35.35.77.52,1.28.52s.95-.17,1.3-.51c.35-.34.53-.77.53-1.28s-.17-.93-.52-1.28c-.35-.35-.79-.52-1.29-.52Zm.74,2.6c-.18.2-.43.3-.74.3s-.55-.1-.74-.3c-.18-.2-.27-.47-.27-.81,0-.32.09-.58.28-.78.19-.2.43-.3.73-.3s.55.1.74.3c.18.2.28.46.28.79s-.09.6-.28.79Z"/>
    <path class="cls-1" d="m74.59,78.22c-.36.35-.54.78-.54,1.29s.18.93.53,1.28c.35.34.8.51,1.32.51.32,0,.64-.08.96-.25v-.7c-.46.31-.99.25-.99.25-.3,0-.54-.1-.73-.31-.19-.21-.28-.47-.28-.79s.1-.57.29-.78c.2-.21.44-.31.74-.31,0,0,.49-.05.98.24v-.71c-.3-.16-.62-.24-.95-.24-.52,0-.96.17-1.32.52Z"/>
    <path class="cls-1" d="m78.02,75.86c-.14,0-.26.05-.36.15-.1.1-.15.22-.15.36,0,.14.05.27.15.37.1.1.22.15.36.15s.26-.05.36-.15c.1-.1.15-.22.15-.36s-.05-.26-.15-.36c-.1-.1-.22-.15-.36-.15Z"/>
    <rect class="cls-1" x="77.63" y="77.79" width=".79" height="3.41"/>
    <path class="cls-1" d="m81.92,78.18c-.31-.33-.67-.49-1.07-.49-.46,0-.84.17-1.15.51-.31.34-.46.77-.46,1.28s.15.95.46,1.3c.31.34.7.51,1.17.51.37,0,.72-.15,1.05-.45v.36h.79v-3.41h-.79v.4Zm-.22,2.11c-.18.2-.42.3-.71.3-.27,0-.5-.1-.68-.31-.18-.21-.26-.47-.26-.8,0-.31.09-.56.27-.77.18-.21.41-.31.68-.31.29,0,.52.1.7.3.18.21.27.47.27.79s-.09.58-.27.79Z"/>
    <path class="cls-1" d="m86.38,75.86c-.14,0-.26.05-.36.15-.1.1-.15.22-.15.36,0,.14.05.27.15.37.1.1.22.15.36.15s.26-.05.36-.15c.1-.1.15-.22.15-.36s-.05-.26-.15-.36c-.1-.1-.22-.15-.36-.15Z"/>
    <rect class="cls-1" x="85.99" y="77.79" width=".79" height="3.41"/>
    <path class="cls-1" d="m89.43,77.69c-.51,0-.93.17-1.29.52-.35.35-.53.76-.53,1.26,0,.52.17.96.52,1.3.34.35.77.52,1.28.52s.95-.17,1.3-.51c.35-.34.53-.77.53-1.28s-.17-.93-.52-1.28c-.35-.35-.79-.52-1.29-.52Zm.74,2.6c-.18.2-.43.3-.74.3s-.55-.1-.74-.3c-.18-.2-.27-.47-.27-.81,0-.32.09-.58.28-.78.19-.2.43-.3.73-.3s.55.1.74.3c.18.2.28.46.28.79s-.09.6-.28.79Z"/>
    <path class="cls-1" d="m94.73,78.07c-.22-.25-.53-.37-.93-.37-.35,0-.66.14-.93.41v-.31h-.79v3.41h.79v-1.64c0-.42.05-.72.16-.89.11-.17.29-.26.56-.26.24,0,.41.07.5.2.09.13.14.36.14.7v1.9h.79v-2.09c0-.48-.1-.83-.29-1.04Z"/>
    <path class="cls-1" d="m60.59,75.86l-2.28,5.33h.88l.6-1.43h2.31l.57,1.43h.89l-2.2-5.33h-.78Zm-.46,3.07l.84-2,.8,2h-1.64Z"/>
    <path class="cls-1" d="m84.59,80.25v-1.73h.61v-.73h-.61v-1.25h-.79v1.25h-.34v.73h.34v2.16c0,.29.23.52.52.52h0s.89,0,.89,0v-.78h-.46c-.09,0-.16-.07-.16-.16Z"/>
  </g>
  <g>
    <path class="cls-2" d="m44.59,15.88c0,.44-.36.8-.8.8s-.8-.36-.8-.8.36-.8.8-.8.8.36.8.8Z"/>
    <path class="cls-2" d="m49.61,15.25c0,.44-.36.8-.8.8s-.8-.36-.8-.8.36-.8.8-.8.8.36.8.8Z"/>
    <path class="cls-2" d="m45.51,17.81c-.42.07-.68.42-.49.66.43.56,1.35.85,2.34.67.99-.17,1.75-.76,1.97-1.43.1-.3-.27-.53-.68-.46l-3.14.55Z"/>
    <path class="cls-3" d="m76.12,44.99l-11.04-19.28c-.52-.9-1.14-1.74-1.87-2.48-2.14-2.56-5.75-2.99-5.75-2.99-1.46-.17-2.5.11-2.83.23h0s-3.29,1.11-3.29,1.11c-.63.2-.98.88-.78,1.52.03.1.08.19.14.28.01.02.02.04.04.05.06.08.12.16.2.22h0c.06.05.12.09.19.13,0,0,.02,0,.02.01.05.03.1.04.15.06.08.03.17.05.26.07,0,0,0,0,0,0,.02,0,.04,0,.05,0,.06,0,.13,0,.19,0,.08,0,.16-.02.23-.04l2.53-.78c.27-.08.56.07.65.34.09.28-.07.57-.34.65l-1.15.35-1.47.46c-.75.24-1.1,1.16-.6,1.87.26.38.73.54,1.18.46l3.63-1.17c.27-.08.56.07.65.34.09.28-.07.57-.34.65l-3.26,1.05c-.47.18-.82.61-.82,1.12,0,.87.82,1.41,1.58,1.17l1.41-.45c.35-.11.74.01.97.31,1.27,1.65,2.03,3.72,2.03,5.96,0,.23-.01.46-.03.69-.01.14-.02.28-.04.41,0,0,0,0,0,0-.03.27-.05.85.09,1.51h0c.17.61.59,1.16,1.02,1.7.85,1.06,1.15,1.66,2.02,2.2.12.07.26.07.39.02.63-.26,1.29-.16,1.56.29.32.52.09,1.25-1.1,1.95-.02.01-.05.02-.07.03-2.16,1.53-3.09.67-3.92-.27-.49-.41-2.09-2.6-2.09-2.6-.27-.32-.76-.32-1.05-.02,0,0,0,0,0,0-.22.23-.25.58-.08.85.04.02,1.53,2.23,2.15,2.76.02.02.05.02.08.04.1.05.21.07.32.04.66-.18,1.29,0,1.51.47.26.55-.06,1.26-1.32,1.81-.03.01-.05.02-.07.03-2.36,1.2-2.99.37-3.86-.73l-1.65-2.08c-1.12-1.24-2.67-2.09-4.42-2.28-.25-.03-.5-.04-.76-.04-.16,0-.31,0-.45.01-1.02.06-1.81.31-2.62.8-.07.04-.14.06-.21.06-.07,0-.14,0-.2-.04-.12-.06-.22-.17-.25-.32l-.02-.12s0,0,0,0c.07-.17.13-.35.19-.54,0-.02.02-.03.02-.05.09-.25.18-.49.28-.74.46-1.1.71-2.32.71-3.59,0-3.97-2.49-7.35-5.98-8.69-.01,0-.02,0-.03-.01-.22-.08-.44-.15-.67-.22-.09-.03-.18-.05-.28-.08-.14-.04-.28-.07-.42-.1-.18-.04-.37-.08-.55-.1-.08-.01-.16-.02-.24-.03-4.16-.57-8.28,1.79-9.84,5.81,0,0,0,0,0,0l-2.68,4.81-2.97,5.09c-2.72,4.67.65,10.54,6.06,10.54h42.86c5.39,0,8.76-5.82,6.08-10.5Zm-42.45-10.69c-.44,0-.8-.36-.8-.8s.36-.8.8-.8.8.36.8.8-.36.8-.8.8Zm6.24,1.45c-.39,1.01-1.33,1.68-2.41,1.72-.03,0-.06,0-.09,0-.87,0-1.68-.42-2.19-1.14-.13-.19-.09-.46.1-.59.19-.13.46-.09.59.1.36.51.94.8,1.55.78.73-.02,1.38-.48,1.64-1.17.08-.22.33-.33.55-.24.22.08.33.33.24.55Zm-.05-2.08c-.44,0-.8-.36-.8-.8s.36-.8.8-.8.8.36.8.8-.36.8-.8.8Z"/>
    <path class="cls-4" d="m63.68,43.04c-.27-.44-.93-.54-1.56-.29-.13.05-.27.05-.39-.02-.87-.54-1.17-1.14-2.02-2.2-.43-.54-.84-1.09-1.02-1.7-.14-.66-.11-1.23-.09-1.51.04-.36.07-.73.07-1.11,0-2.24-.76-4.31-2.03-5.96-.23-.29-.61-.42-.97-.31l-1.41.45c-.75.24-1.57-.3-1.58-1.17,0-.5.35-.94.82-1.12l3.26-1.05c.28-.09.43-.38.34-.65-.09-.27-.38-.42-.65-.34l-3.63,1.17c-.45.07-.92-.09-1.18-.46-.5-.71-.15-1.63.6-1.87l1.47-.46,1.15-.35c.28-.09.43-.38.34-.65-.09-.27-.38-.42-.65-.34l-2.46.76h-.04s-.01.01-.02.02h-.02c-.08.03-.16.04-.23.05-.06,0-.13,0-.19,0-.02,0-.04,0-.05,0-.23-.03-.45-.11-.63-.26,0,0,0,0,0-.01-.17-.14-.3-.33-.37-.55-.2-.63.15-1.31.78-1.52l.78-.26c.29-.92.4-1.92.31-2.95-.32-3.64-3.24-6.61-6.87-6.98-4.62-.47-8.52,3.15-8.52,7.67,0,1.7.56,3.27,1.49,4.54.3.41.34.95.09,1.39-.89,1.58-1.73,3.03-2.4,4.19,4.79.4,8.57,4.39,8.57,9.29,0,1.27-.25,2.48-.71,3.59-.12.29-.24.59-.34.89-.05.15-.1.29-.16.43,0,0,0,0,0,0l.02.12c.05.3.39.45.66.29.93-.56,1.82-.81,3.07-.81,2.06,0,3.91.9,5.18,2.32l1.65,2.08c.87,1.1,1.51,1.93,3.86.73.02-.01.05-.01.07-.03,1.26-.55,1.58-1.26,1.32-1.81-.22-.47-.85-.65-1.51-.47-.14.04-.29.02-.4-.07-.61-.53-2.11-2.74-2.15-2.76-.17-.27-.13-.62.08-.85,0,0,0,0,0,0,.29-.3.77-.3,1.05.02,0,0,1.6,2.19,2.09,2.6.84.94,1.76,1.8,3.92.27.02-.02.05-.02.07-.03,1.19-.7,1.42-1.43,1.1-1.95Zm-19.88-26.36c-.44,0-.8-.36-.8-.8s.36-.8.8-.8.8.36.8.8-.36.8-.8.8Zm5.54,1.05c-.22.67-.99,1.25-1.97,1.43-.99.17-1.91-.12-2.34-.67-.19-.25.07-.59.49-.66l3.14-.55c.42-.07.78.16.68.46Zm-.52-1.67c-.44,0-.8-.36-.8-.8s.36-.8.8-.8.8.36.8.8-.36.8-.8.8Z"/>
  </g>
</svg>