<?xml version="1.0" encoding="UTF-8"?>
<svg id="_圖層_1" data-name="圖層 1" xmlns="http://www.w3.org/2000/svg" viewBox="0 0 155 140">
  <defs>
    <style>
      .cls-1 {
        fill: #5e5e5e;
      }

      .cls-1, .cls-2 {
        stroke-width: 0px;
      }

      .cls-2 {
        fill: #b3b3b3;
      }
    </style>
  </defs>
  <g>
    <polygon class="cls-1" points="28.16 82.94 17.12 82.94 17.12 85.16 21.28 85.16 21.28 98.6 24.01 98.6 24.01 85.16 28.16 85.16 28.16 82.94"/>
    <path class="cls-1" d="m35.74,89.87c-.91-.95-1.94-1.42-3.09-1.42-1.33,0-2.44.49-3.33,1.48-.89.99-1.33,2.22-1.33,3.7s.44,2.77,1.33,3.77c.89.99,2.02,1.48,3.39,1.48,1.08,0,2.09-.44,3.03-1.32v1.03h2.29v-9.88h-2.29v1.15Zm-.64,6.11c-.52.58-1.2.87-2.05.87-.79,0-1.45-.3-1.97-.9-.51-.6-.76-1.37-.76-2.31,0-.89.26-1.63.78-2.23.53-.6,1.18-.89,1.97-.89.83,0,1.51.29,2.03.88.52.6.78,1.37.78,2.29s-.26,1.69-.78,2.29Z"/>
    <path class="cls-1" d="m42.05,83.14c-.41,0-.75.15-1.04.44-.29.29-.44.64-.44,1.03,0,.42.15.77.44,1.07.29.29.64.44,1.05.44s.76-.14,1.05-.44c.29-.29.44-.64.44-1.05s-.15-.76-.44-1.04c-.29-.29-.64-.44-1.05-.44Z"/>
    <rect class="cls-1" x="40.91" y="88.72" width="2.28" height="9.88"/>
    <path class="cls-1" d="m69.11,89.87c-.91-.95-1.94-1.42-3.09-1.42-1.33,0-2.44.49-3.33,1.48-.89.99-1.33,2.22-1.33,3.7s.44,2.77,1.33,3.77c.89.99,2.02,1.48,3.39,1.48,1.08,0,2.09-.44,3.03-1.32v1.03h2.29v-9.88h-2.29v1.15Zm-.64,6.11c-.52.58-1.2.87-2.05.87-.79,0-1.45-.3-1.97-.9-.51-.6-.76-1.37-.76-2.31,0-.89.26-1.63.78-2.23.53-.6,1.18-.89,1.97-.89.83,0,1.51.29,2.03.88.52.6.78,1.37.78,2.29s-.26,1.69-.78,2.29Z"/>
    <path class="cls-1" d="m81.96,89.53c-.64-.72-1.54-1.09-2.69-1.09-1,0-1.9.4-2.7,1.19v-.91h-2.29v9.88h2.29v-4.77c0-1.23.16-2.09.47-2.59.32-.5.86-.75,1.61-.75.7,0,1.18.19,1.44.57.27.37.41,1.05.41,2.02v5.52h2.29v-6.06c0-1.39-.28-2.4-.83-3.01Z"/>
    <polygon class="cls-1" points="58.06 88.72 55.51 95.36 53.09 88.72 52.31 88.72 49.91 95.36 47.32 88.72 45.21 88.72 44.76 88.72 48.95 98.88 50.79 98.88 52.7 93.74 54.59 98.88 56.42 98.88 60.62 88.72 60.17 88.72 58.06 88.72"/>
  </g>
  <g>
    <polygon class="cls-1" points="100.46 82.94 96.87 89.2 93.29 82.94 90.57 82.94 95.68 91.83 95.68 98.6 98.04 98.6 98.04 91.83 103.18 82.94 100.46 82.94"/>
    <path class="cls-1" d="m106.75,88.45c-1.47,0-2.71.5-3.73,1.5-1.02,1-1.53,2.21-1.53,3.64,0,1.51.5,2.77,1.5,3.77,1,1.01,2.24,1.52,3.72,1.52s2.76-.5,3.78-1.49c1.02-1,1.53-2.24,1.53-3.72s-.51-2.7-1.52-3.71c-1.03-1.01-2.28-1.51-3.75-1.51Zm2.14,7.54c-.53.57-1.25.86-2.14.86s-1.6-.29-2.14-.87c-.53-.57-.79-1.36-.79-2.34,0-.92.27-1.67.81-2.25.54-.58,1.25-.87,2.12-.87s1.6.29,2.14.87c.53.57.8,1.34.8,2.3s-.27,1.73-.8,2.3Z"/>
    <path class="cls-1" d="m120.59,94.39c0,1.64-.65,2.45-1.94,2.45s-1.94-.82-1.94-2.45v-5.67h-2.28v5.72c0,.91.09,1.59.28,2.05.2.51.53.98,1,1.39.77.67,1.75,1,2.93,1s2.17-.34,2.94-1c.47-.41.79-.88.98-1.39.2-.57.29-1.26.29-2.05v-5.72h-2.28v5.67Z"/>
    <path class="cls-1" d="m140.68,89.53c-.67-.72-1.56-1.09-2.68-1.09-.98,0-1.88.37-2.69,1.1v-8.07h-2.28v17.13h2.28v-4.78c0-1.22.16-2.08.48-2.58.32-.49.89-.74,1.68-.74.62,0,1.07.18,1.35.53.28.35.42.93.42,1.72v5.84h2.28v-6.06c0-1.38-.28-2.38-.85-3.01Z"/>
    <path class="cls-1" d="m128.7,95.87v-5.02h1.78v-2.13h-1.78v-3.62h-2.28v3.62h-.97v2.13h.97v6.25c0,.83.67,1.5,1.5,1.5h0s2.57,0,2.57,0v-2.28h-1.34c-.25,0-.45-.2-.45-.45Z"/>
  </g>
  <g>
    <path class="cls-1" d="m18.16,106c-.64.75-.95,1.61-.95,2.57,0,1.07.38,1.99,1.14,2.75.76.75,1.68,1.13,2.76,1.13.72,0,1.4-.18,2.05-.55v-1.37c-.19.16-.36.29-.53.4-.17.11-.33.2-.49.26-.28.13-.62.2-1.02.2-.78,0-1.43-.27-1.97-.82-.53-.54-.8-1.21-.8-2s.27-1.48.8-2.03c.53-.56,1.18-.84,1.96-.84.7,0,1.38.28,2.04.83v-1.35c-.63-.37-1.29-.55-1.97-.55-1.24,0-2.25.46-3.04,1.38Z"/>
    <path class="cls-1" d="m26.03,107.54c-.16.08-.34.22-.54.43v-.43h-1.1v4.76h1.1v-2.47c0-.91.3-1.36.9-1.36.2,0,.4.08.61.22l.5-1.01c-.32-.19-.62-.28-.91-.28-.22,0-.41.04-.57.12Z"/>
    <path class="cls-1" d="m30.92,111.27c-.18.13-.41.2-.68.2-.35,0-.64-.11-.87-.34-.23-.23-.35-.54-.38-.93h3.41v-.26c0-.79-.2-1.4-.6-1.84-.41-.45-.96-.67-1.66-.67s-1.25.23-1.67.69c-.42.47-.63,1.08-.63,1.83s.22,1.37.65,1.83c.43.46,1,.68,1.71.68.25,0,.48-.03.69-.08.21-.05.41-.13.59-.25.18-.11.35-.26.51-.43.16-.17.31-.38.45-.63l-.93-.52c-.22.35-.43.59-.6.72Zm-1.7-2.35c.07-.11.15-.2.25-.28.1-.08.2-.14.32-.18s.24-.06.38-.06c.59,0,.96.29,1.11.88h-2.21c.04-.14.09-.26.16-.37Z"/>
    <path class="cls-1" d="m37.12,108.11c-.44-.46-.94-.68-1.49-.68-.64,0-1.18.24-1.6.71-.43.48-.64,1.07-.64,1.78s.21,1.33.64,1.82c.43.48.97.71,1.63.71.52,0,1.01-.21,1.46-.64v.5h1.1v-4.76h-1.1v.55Zm-.31,2.94c-.25.28-.58.42-.99.42-.38,0-.7-.14-.95-.43-.24-.29-.37-.66-.37-1.11,0-.43.13-.79.38-1.08.25-.29.57-.43.95-.43.4,0,.73.14.98.43.25.29.38.66.38,1.1s-.13.81-.38,1.1Z"/>
    <path class="cls-1" d="m43.47,104.87c-.2,0-.36.07-.5.21-.14.14-.21.31-.21.5,0,.2.07.37.21.51.14.14.31.21.51.21s.37-.07.5-.21c.14-.14.21-.31.21-.51s-.07-.37-.21-.5c-.14-.14-.31-.21-.51-.21Z"/>
    <rect class="cls-1" x="42.92" y="107.55" width="1.1" height="4.76"/>
    <path class="cls-1" d="m53.72,110.55c-.22.35-.43.59-.6.72-.18.13-.41.2-.68.2-.35,0-.64-.11-.87-.34-.23-.23-.35-.54-.38-.93h3.41v-.26c0-.79-.2-1.4-.6-1.84-.41-.45-.96-.67-1.66-.67s-1.25.23-1.67.69c-.42.47-.63,1.08-.63,1.83s.22,1.37.65,1.83c.43.46,1,.68,1.71.68.25,0,.48-.03.69-.08.21-.05.41-.13.59-.25.18-.11.35-.26.51-.43.16-.17.31-.38.45-.63l-.93-.52Zm-2.3-1.62c.07-.11.15-.2.25-.28.1-.08.2-.14.32-.18.12-.04.24-.06.38-.06.59,0,.96.29,1.11.88h-2.21c.04-.14.09-.26.16-.37Z"/>
    <polygon class="cls-1" points="47.23 110.82 46 107.55 44.77 107.55 46.65 112.31 47.8 112.31 49.7 107.55 48.46 107.55 47.23 110.82"/>
    <path class="cls-1" d="m40.84,111v-2.42h.86v-1.03h-.86v-1.75h-1.1v1.75h-.47v1.03h.47v3.01c0,.4.32.72.72.72h0s1.24,0,1.24,0v-1.1h-.65c-.12,0-.22-.1-.22-.22Z"/>
  </g>
  <g>
    <rect class="cls-1" x="74.35" y="107.55" width="1.1" height="4.76"/>
    <path class="cls-1" d="m74.89,104.87c-.2,0-.36.07-.5.21-.14.14-.21.31-.21.5,0,.2.07.37.21.51.14.14.31.21.51.21s.37-.07.5-.21c.14-.14.21-.31.21-.51s-.07-.37-.21-.5c-.14-.14-.31-.21-.51-.21Z"/>
    <path class="cls-1" d="m79.1,107.42c-.71,0-1.31.24-1.8.72-.49.48-.74,1.07-.74,1.76,0,.73.24,1.34.72,1.82.48.49,1.08.73,1.79.73s1.33-.24,1.82-.72c.49-.48.74-1.08.74-1.79s-.24-1.3-.73-1.79c-.5-.49-1.1-.73-1.81-.73Zm1.03,3.63c-.26.28-.6.42-1.03.42s-.77-.14-1.03-.42c-.25-.28-.38-.65-.38-1.13,0-.44.13-.8.39-1.09.26-.28.6-.42,1.02-.42s.77.14,1.03.42c.26.28.39.65.39,1.11s-.13.83-.39,1.11Z"/>
    <path class="cls-1" d="m86.27,107.94c-.31-.35-.74-.52-1.3-.52-.48,0-.92.19-1.3.57v-.44h-1.1v4.76h1.1v-2.3c0-.59.07-1.01.22-1.25.15-.24.41-.36.78-.36.34,0,.57.09.69.27.13.18.2.5.2.97v2.66h1.1v-2.92c0-.67-.13-1.16-.4-1.45Z"/>
    <path class="cls-1" d="m61.42,104.87l-3.18,7.45h1.23l.84-2h3.23l.79,2h1.25l-3.07-7.45h-1.09Zm-.64,4.28l1.17-2.8,1.12,2.8h-2.29Z"/>
    <path class="cls-1" d="m66.51,108.11c-.5.49-.75,1.09-.75,1.8s.25,1.31.74,1.78c.5.48,1.11.71,1.85.71.45,0,.89-.12,1.34-.35v-.98c-.65.44-1.39.35-1.39.35-.41,0-.75-.14-1.02-.43-.26-.29-.4-.65-.4-1.1s.14-.8.41-1.09c.27-.29.62-.43,1.03-.43,0,0,.69-.07,1.36.33v-.99c-.42-.22-.86-.34-1.33-.34-.73,0-1.35.24-1.85.73Z"/>
    <path class="cls-1" d="m72.31,111v-2.42h.86v-1.03h-.86v-1.75h-1.1v1.75h-.47v1.03h.47v3.01c0,.4.32.72.72.72h0s1.24,0,1.24,0v-1.1h-.65c-.12,0-.22-.1-.22-.22Z"/>
  </g>
  <g>
    <path class="cls-1" d="m99.87,109.31c-.42-.18-.64-.36-.64-.54,0-.1.04-.19.11-.26.07-.07.16-.1.26-.1.21,0,.39.15.53.44l.91-.48c-.3-.63-.75-.94-1.36-.94-.41,0-.77.14-1.06.41-.28.27-.43.61-.43,1.03,0,.31.08.57.25.77.13.16.36.31.67.47.11.06.23.11.34.16.11.05.22.11.33.16.29.17.43.35.43.55,0,.34-.19.51-.56.51-.19,0-.35-.06-.48-.19-.07-.06-.17-.21-.3-.43l-.94.43c.33.78.9,1.17,1.7,1.17.47,0,.86-.15,1.19-.44.34-.31.51-.69.51-1.15,0-.36-.1-.64-.3-.86-.2-.21-.59-.44-1.18-.69Z"/>
    <path class="cls-1" d="m103.93,109.31c-.42-.18-.64-.36-.64-.54,0-.1.04-.19.11-.26.07-.07.16-.1.26-.1.21,0,.39.15.53.44l.91-.48c-.3-.63-.75-.94-1.36-.94-.41,0-.77.14-1.06.41-.28.27-.43.61-.43,1.03,0,.31.08.57.25.77.13.16.36.31.67.47.11.06.23.11.34.16.11.05.22.11.33.16.29.17.43.35.43.55,0,.34-.19.51-.56.51-.19,0-.35-.06-.48-.19-.07-.06-.17-.21-.3-.43l-.94.43c.33.78.9,1.17,1.7,1.17.47,0,.86-.15,1.19-.44.34-.31.51-.69.51-1.15,0-.36-.1-.64-.3-.86-.2-.21-.59-.44-1.18-.69Z"/>
    <path class="cls-1" d="m108.71,107.42c-.71,0-1.31.24-1.8.72-.49.48-.74,1.07-.74,1.76,0,.73.24,1.34.72,1.82.48.49,1.08.73,1.79.73s1.33-.24,1.82-.72c.49-.48.74-1.08.74-1.79s-.24-1.3-.73-1.79c-.5-.49-1.1-.73-1.81-.73Zm1.03,3.63c-.26.28-.6.42-1.03.42s-.77-.14-1.03-.42c-.25-.28-.38-.65-.38-1.13,0-.44.13-.8.39-1.09.26-.28.6-.42,1.02-.42s.77.14,1.03.42c.26.28.39.65.39,1.11s-.13.83-.39,1.11Z"/>
    <path class="cls-1" d="m112.95,108.15c-.5.49-.75,1.09-.75,1.8s.25,1.31.74,1.78c.5.48,1.11.71,1.85.71.45,0,.89-.12,1.34-.35v-.98c-.65.44-1.39.35-1.39.35-.41,0-.75-.14-1.02-.43-.26-.29-.4-.65-.4-1.1s.14-.8.41-1.09c.27-.29.62-.43,1.03-.43,0,0,.69-.07,1.36.33v-.99c-.42-.22-.86-.34-1.33-.34-.73,0-1.35.24-1.85.73Z"/>
    <path class="cls-1" d="m117.74,104.87c-.2,0-.36.07-.5.21-.14.14-.21.31-.21.5,0,.2.07.37.21.51.14.14.31.21.51.21s.37-.07.5-.21c.14-.14.21-.31.21-.51s-.07-.37-.21-.5c-.14-.14-.31-.21-.51-.21Z"/>
    <rect class="cls-1" x="117.19" y="107.55" width="1.1" height="4.76"/>
    <path class="cls-1" d="m123.19,108.11c-.44-.46-.94-.68-1.49-.68-.64,0-1.18.24-1.6.71-.43.48-.64,1.07-.64,1.78s.21,1.33.64,1.82c.43.48.97.71,1.63.71.52,0,1.01-.21,1.46-.64v.5h1.1v-4.76h-1.1v.55Zm-.31,2.94c-.25.28-.58.42-.99.42-.38,0-.7-.14-.95-.43-.24-.29-.37-.66-.37-1.11,0-.43.13-.79.38-1.08.25-.29.57-.43.95-.43.4,0,.73.14.98.43.25.29.38.66.38,1.1s-.13.81-.38,1.1Z"/>
    <path class="cls-1" d="m129.42,104.87c-.2,0-.36.07-.5.21-.14.14-.21.31-.21.5,0,.2.07.37.21.51.14.14.31.21.51.21s.37-.07.5-.21c.14-.14.21-.31.21-.51s-.07-.37-.21-.5c-.14-.14-.31-.21-.51-.21Z"/>
    <rect class="cls-1" x="128.88" y="107.55" width="1.1" height="4.76"/>
    <path class="cls-1" d="m133.68,107.42c-.71,0-1.31.24-1.8.72-.49.48-.74,1.07-.74,1.76,0,.73.24,1.34.72,1.82.48.49,1.08.73,1.79.73s1.33-.24,1.82-.72c.49-.48.74-1.08.74-1.79s-.24-1.3-.73-1.79c-.5-.49-1.1-.73-1.81-.73Zm1.03,3.63c-.26.28-.6.42-1.03.42s-.77-.14-1.03-.42c-.25-.28-.38-.65-.38-1.13,0-.44.13-.8.39-1.09.26-.28.6-.42,1.02-.42s.77.14,1.03.42c.26.28.39.65.39,1.11s-.13.83-.39,1.11Z"/>
    <path class="cls-1" d="m141.09,107.94c-.31-.35-.74-.52-1.3-.52-.48,0-.92.19-1.3.57v-.44h-1.1v4.76h1.1v-2.3c0-.59.07-1.01.22-1.25.15-.24.41-.36.78-.36.34,0,.57.09.69.27.13.18.2.5.2.97v2.66h1.1v-2.92c0-.67-.13-1.16-.4-1.45Z"/>
    <path class="cls-1" d="m93.39,104.87l-3.18,7.45h1.23l.84-2h3.23l.79,2h1.25l-3.07-7.45h-1.09Zm-.64,4.28l1.17-2.8,1.12,2.8h-2.29Z"/>
    <path class="cls-1" d="m126.93,111v-2.42h.86v-1.03h-.86v-1.75h-1.1v1.75h-.47v1.03h.47v3.01c0,.4.32.72.72.72h0s1.24,0,1.24,0v-1.1h-.65c-.12,0-.22-.1-.22-.22Z"/>
  </g>
  <g>
    <path class="cls-1" d="m115.09,61.73l-15.43-26.94c-.72-1.26-1.6-2.43-2.61-3.47-2.99-3.57-8.04-4.18-8.04-4.18-2.04-.24-3.49.16-3.96.31h0s-4.6,1.55-4.6,1.55c-.89.28-1.37,1.23-1.09,2.12.05.14.11.27.19.39.02.03.03.05.05.07.08.11.17.22.28.31h0c.08.07.17.13.27.18.01,0,.02.01.03.02.07.03.14.06.21.09.12.04.24.08.36.09,0,0,0,0,0,0,.02,0,.05,0,.07,0,.09,0,.18.01.27,0,.11,0,.22-.03.33-.06l3.54-1.09c.38-.12.78.09.9.47.12.38-.09.8-.48.91l-1.6.49-2.05.65c-1.05.34-1.54,1.62-.84,2.61.37.52,1.03.75,1.65.65l5.08-1.63c.38-.12.78.09.9.47.12.38-.09.8-.48.91l-4.56,1.47c-.66.25-1.15.85-1.14,1.56,0,1.22,1.15,1.97,2.21,1.63l1.96-.63c.5-.16,1.04.01,1.35.43,1.78,2.31,2.83,5.19,2.83,8.33,0,.33-.02.65-.05.97-.01.19-.03.39-.06.58,0,0,0,0,0,0-.04.38-.07,1.18.12,2.1h0c.24.86.82,1.62,1.42,2.38,1.19,1.49,1.6,2.33,2.82,3.07.16.1.36.1.54.03.89-.36,1.8-.22,2.19.4.45.72.12,1.75-1.53,2.72-.03.02-.07.03-.1.05-3.02,2.13-4.31.94-5.48-.38-.68-.58-2.92-3.64-2.91-3.64-.38-.45-1.06-.45-1.46-.03,0,0,0,0-.01.01-.3.32-.35.81-.12,1.18.05.02,2.14,3.11,3,3.85.03.03.07.03.11.05.14.07.29.09.44.05.92-.25,1.8,0,2.11.66.36.77-.09,1.76-1.85,2.52-.04.02-.07.02-.1.04-3.29,1.67-4.18.52-5.4-1.02l-2.3-2.91c-1.56-1.74-3.73-2.92-6.18-3.19-.35-.04-.7-.06-1.06-.06-.22,0-.43,0-.64.02-1.43.08-2.53.44-3.66,1.12-.09.06-.19.08-.29.09-.1,0-.19-.01-.28-.05-.17-.08-.31-.24-.35-.45l-.03-.16s0,0,0,0c.09-.24.18-.49.27-.75.01-.02.02-.04.03-.07.12-.35.25-.69.4-1.03.64-1.54,1-3.24,1-5.01,0-5.55-3.48-10.27-8.36-12.15-.01,0-.03-.01-.04-.02-.31-.12-.62-.21-.93-.31-.13-.04-.26-.08-.39-.11-.19-.05-.39-.09-.59-.14-.26-.05-.51-.11-.77-.14-.11-.02-.22-.03-.34-.04-5.82-.8-11.57,2.5-13.75,8.12,0,0,0,0,0,0l-3.74,6.72-4.15,7.12c-3.81,6.53.91,14.73,8.47,14.73h59.89c7.53,0,12.24-8.14,8.5-14.67Zm-59.31-14.94c-.62,0-1.12-.5-1.12-1.12s.5-1.12,1.12-1.12,1.12.5,1.12,1.12-.5,1.12-1.12,1.12Zm8.72,2.03c-.54,1.41-1.86,2.35-3.36,2.4-.04,0-.08,0-.12,0-1.22,0-2.35-.59-3.06-1.59-.19-.27-.12-.64.15-.83.27-.19.64-.12.83.15.5.71,1.31,1.12,2.17,1.09,1.03-.03,1.93-.68,2.3-1.64.12-.31.46-.46.77-.34.31.12.46.46.34.77Zm-.07-2.9c-.62,0-1.12-.5-1.12-1.12s.5-1.12,1.12-1.12,1.12.5,1.12,1.12-.5,1.12-1.12,1.12Z"/>
    <path class="cls-2" d="m97.7,59c-.39-.62-1.3-.76-2.19-.39-.18.07-.38.07-.54-.03-1.22-.75-1.63-1.59-2.82-3.08-.6-.75-1.18-1.51-1.42-2.37-.19-.92-.16-1.72-.12-2.11.06-.5.1-1.02.1-1.54,0-3.14-1.06-6.03-2.83-8.33-.32-.42-.86-.59-1.35-.43l-1.97.63c-1.05.34-2.19-.41-2.2-1.63-.01-.71.48-1.31,1.14-1.56l4.56-1.47c.39-.12.6-.53.48-.91-.12-.38-.53-.59-.91-.47l-5.07,1.63c-.63.1-1.29-.12-1.66-.65-.7-.99-.21-2.27.85-2.61l2.04-.65,1.61-.49c.38-.12.6-.53.47-.92-.12-.38-.52-.59-.9-.47l-3.44,1.06-.05.02h-.05c-.11.04-.22.06-.33.07-.09.01-.18,0-.27,0-.02-.01-.05-.01-.07-.01-.32-.04-.63-.16-.88-.36t.01-.02c-.24-.2-.42-.46-.52-.77-.29-.89.2-1.84,1.09-2.12l1.08-.37c.4-1.28.57-2.67.44-4.12-.45-5.08-4.53-9.24-9.6-9.76-6.46-.66-11.91,4.4-11.91,10.72,0,2.38.77,4.57,2.08,6.35.41.57.48,1.33.13,1.94-1.25,2.21-2.42,4.24-3.35,5.86,6.69.56,11.97,6.14,11.97,12.98,0,1.77-.35,3.47-.99,5.01-.18.41-.34.82-.48,1.24-.07.21-.15.41-.22.61l.02.17c.08.42.55.63.92.41,1.29-.78,2.54-1.14,4.3-1.14,2.88,0,5.46,1.26,7.24,3.25l2.3,2.91c1.22,1.54,2.11,2.69,5.4,1.02.04-.02.07-.02.1-.04,1.76-.76,2.21-1.75,1.85-2.52-.31-.66-1.19-.91-2.11-.66-.19.06-.4.03-.55-.1-.86-.74-2.95-3.83-3-3.85-.23-.38-.19-.87.11-1.19.01,0,.01-.01.02-.01.4-.43,1.08-.42,1.46.03,0,.01,2.23,3.06,2.91,3.64,1.17,1.32,2.46,2.51,5.49.38.03-.03.06-.03.09-.05,1.66-.97,1.98-2,1.54-2.73Zm-27.79-36.84c-.61,0-1.11-.5-1.11-1.11s.5-1.12,1.11-1.12,1.12.5,1.12,1.12-.5,1.11-1.12,1.11Zm7.74,1.47c-.3.93-1.38,1.75-2.76,1.99-1.38.24-2.66-.17-3.26-.94-.27-.35.09-.83.67-.93l4.4-.77c.58-.1,1.09.23.95.65Zm-.72-2.34c-.62,0-1.12-.5-1.12-1.12s.5-1.11,1.12-1.11,1.11.5,1.11,1.11-.5,1.12-1.11,1.12Z"/>
  </g>
</svg>