<?xml version="1.0" encoding="UTF-8"?>
<svg id="uuid-4125eee7-5fab-4f43-a554-19f2d52b9522" data-name="圖層 1" xmlns="http://www.w3.org/2000/svg" viewBox="0 0 100 100">
  <defs>
    <style>
      .uuid-9a730864-7865-4683-a053-a41d94f6e0e3 {
        stroke-width: 0px;
      }
    </style>
  </defs>
  <path class="uuid-9a730864-7865-4683-a053-a41d94f6e0e3" d="m25.75,50.59c0-.13,0-.26,0-.39,0-.52-.09-1.02-.26-1.51-.42-1.23-1.22-2.15-2.35-2.79-.85-.48-1.77-.71-2.75-.72-1.27-.02-2.54,0-3.8,0-.36,0-.72.04-1.07.09-.51.07-1.01.19-1.5.36-.04.02-.09.03-.14.04-.04.01-.1-.03-.1-.08,0-.05,0-.1-.01-.14,0-.06,0-.12-.01-.18,0-.05-.05-.09-.1-.09-.06,0-.12,0-.18,0-1.11,0-2.22,0-3.34,0-.06,0-.12,0-.18,0-.04,0-.09.05-.09.09,0,.13-.01.26-.01.39,0,2.02,0,4.04,0,6.06s0,4.07,0,6.1c0,.12,0,.24,0,.36,0,.04,0,.07.02.1,0,.02.03.05.05.05.07.01.14.02.21.02,1.11,0,2.22,0,3.34,0,.06,0,.12,0,.18,0,.04,0,.09-.05.09-.1,0-.13,0-.26,0-.39,0-2.33,0-4.67,0-7,0-.12,0-.24,0-.36.06-.72.42-1.23,1.1-1.5.2-.08.41-.11.63-.11,1.53,0,3.06,0,4.59,0,.17,0,.33.02.5.06.77.2,1.18.86,1.22,1.39.01.18.02.36.02.54,0,2.08,0,4.16,0,6.24,0,.3,0,.6,0,.9,0,.33,0,.33.35.33,1.03,0,2.06,0,3.09,0,.54,0,.47.06.47-.48,0-2.43,0-4.86,0-7.29Zm-17.19-13.39s-.06-.09-.1-.09c-.11,0-.21-.01-.32-.01-.99,0-1.99,0-2.98,0-.58,0-.51-.06-.51.52,0,3.36,0,6.72,0,10.09s0,6.75,0,10.12c0,.12,0,.24,0,.36,0,.04,0,.07.02.11,0,.02.03.05.05.05.09,0,.19.02.29.02,1.06,0,2.13,0,3.19,0,.08,0,.17,0,.25,0,.06,0,.11-.05.11-.12,0-.14,0-.29,0-.43,0-6.71,0-13.42,0-20.14,0-.12,0-.24,0-.36,0-.04,0-.07,0-.11Zm68.38,10.55v-10.08c0-.12,0-.24,0-.36,0-.04,0-.07,0-.11,0-.04-.06-.09-.1-.09-.11,0-.21-.01-.32-.01-1,0-2.01,0-3.01,0-.53,0-.47-.05-.47.49,0,2.43,0,4.86,0,7.29,0,.11,0,.22,0,.32,0,.04,0,.07-.01.11,0,.03-.05.06-.08.06-.05,0-.09-.02-.14-.03-.42-.09-.84-.17-1.28-.17-1.65,0-3.3,0-4.95,0-.43,0-.86.06-1.28.17-1.5.39-2.64,1.26-3.43,2.59-.41.69-.64,1.44-.71,2.24-.02.25-.03.5-.03.75,0,.57,0,1.15,0,1.72,0,.24.01.48.03.72.04.58.18,1.13.41,1.66.8,1.87,2.64,3.31,4.99,3.34,1.65.02,3.3,0,4.95,0,.17,0,.33-.02.5-.03.3-.03.59-.08.88-.16.07-.02.11,0,.13.08.02.08.07.12.15.12.11,0,.22,0,.32,0,.98,0,1.96,0,2.94,0,.58,0,.5.08.5-.52,0-3.36,0-6.72,0-10.08Zm-3.92,5.08c0,.62-.39,1.42-1.3,1.71-.18.06-.37.09-.56.09-.16,0-.31,0-.47,0-1.21,0-2.42,0-3.62,0-.18,0-.36-.01-.53-.04-.65-.11-1.42-.69-1.49-1.7,0-.04,0-.07,0-.11,0-.67,0-1.34,0-2.01,0-.17.02-.33.07-.5.21-.7.67-1.14,1.38-1.32.18-.04.35-.06.53-.05.01,0,.02,0,.04,0h1.97c.69,0,1.39,0,2.08,0,.21,0,.41.02.6.08.93.29,1.31,1.09,1.31,1.7,0,.43,0,.86,0,1.29,0,.29,0,.57,0,.86Zm22.29-7.65c-.07,0-.14,0-.21,0-1.3,0-2.61,0-3.91,0-.08,0-.17,0-.25,0-.09.1-.15.22-.21.34-.99,1.77-1.98,3.55-2.98,5.33-.39.7-.78,1.4-1.17,2.1-.05.08-.08.18-.16.23-.05,0-.08-.05-.1-.09-.08-.15-.16-.29-.25-.44-1.33-2.38-2.65-4.77-3.98-7.15-.05-.08-.09-.17-.14-.25-.03-.04-.07-.07-.12-.07-.08,0-.17,0-.25,0-1.26,0-2.51,0-3.77,0-.08,0-.17,0-.25,0-.05,0-.09.05-.06.1.05.11.11.21.17.32,2.11,3.78,4.21,7.57,6.32,11.35.05.09.1.19.15.28.04.07.03.14,0,.21-.26.47-.58.88-1.01,1.2-.35.27-.73.45-1.16.55-.29.07-.59.09-.89.1-.23,0-.45,0-.68,0-.08,0-.17,0-.25,0-.08,0-.14.05-.14.13,0,.1,0,.19,0,.29,0,.47,0,.93,0,1.4,0,.5,0,1.01,0,1.51,0,.07,0,.14.02.21,0,.02.03.04.05.05.05.01.09.02.14.02.69,0,1.39,0,2.08,0,.29,0,.57-.05.85-.11.81-.18,1.53-.52,2.19-1.03.47-.36.88-.78,1.25-1.23.54-.64,1.01-1.34,1.42-2.07,1.66-2.97,3.31-5.93,4.97-8.9.75-1.34,1.49-2.67,2.24-4.01.05-.09.1-.19.15-.29.02-.03,0-.08-.04-.08Zm-40.73,0c-1.73-.02-3.47,0-5.2,0-.61,0-1.21.12-1.79.32-2,.71-3.61,2.64-3.64,5.15,0,.74,0,1.48,0,2.23,0,.37.04.74.12,1.1.36,1.67,1.29,2.91,2.78,3.73.8.44,1.67.65,2.58.66.85,0,1.7,0,2.55,0h0c.84,0,1.68,0,2.51,0,.52,0,1.03-.07,1.52-.21,2.38-.66,3.99-2.83,4.01-5.19,0-.8,0-1.6,0-2.41,0-.37-.05-.74-.13-1.1-.5-2.31-2.57-4.25-5.3-4.28Zm1.52,7.42c0,.13,0,.26-.01.39-.04.64-.54,1.41-1.43,1.59-.16.03-.33.05-.5.05-1.45,0-2.89,0-4.34,0-.25,0-.5-.04-.74-.12-.71-.25-1.2-.95-1.2-1.67,0-.72,0-1.44,0-2.15.01-.84.64-1.57,1.45-1.74.17-.03.33-.05.5-.05.01,0,.02,0,.04,0h2.15c.72,0,1.44,0,2.15,0,.17,0,.33.02.5.05.84.17,1.4.92,1.43,1.63,0,.12.01.24.01.36,0,.55,0,1.1,0,1.65Zm-14.02-4.04c-.36-.59-.83-1.08-1.42-1.44-.05-.03-.11-.06-.15-.09-.02-.02-.03-.06-.05-.08.01-.02.02-.03.02-.04.03-.02.05-.05.08-.07.55-.47.93-1.06,1.19-1.72.23-.6.35-1.22.37-1.86,0-.26,0-.53,0-.79,0-.3-.04-.6-.09-.89-.22-1.16-.76-2.16-1.62-2.97-.97-.91-2.12-1.41-3.45-1.48-.2-.01-.41-.01-.61-.01-2.9,0-5.79,0-8.69,0-.63,0-.55-.08-.55.56,0,6.72,0,13.45,0,20.17,0,.11,0,.22,0,.32,0,.04,0,.07.01.11,0,.05.05.09.09.09.08,0,.17,0,.25,0,3.31,0,6.63,0,9.94,0,.32,0,.65-.03.96-.08.95-.16,1.81-.53,2.56-1.14,1.29-1.05,1.97-2.41,1.99-4.08,0-.47,0-.93,0-1.4,0-.47-.05-.93-.16-1.39-.14-.61-.36-1.19-.69-1.72Zm-11.07-7.57c0-.1.06-.14.16-.15.07,0,.14,0,.22,0,1.5,0,2.99,0,4.49,0,.25,0,.5,0,.74.09.84.29,1.35.87,1.51,1.75.19,1.04-.5,2.17-1.64,2.44-.19.04-.38.06-.57.06-.75,0-1.51,0-2.26,0h0c-.75,0-1.51,0-2.26,0-.1,0-.19,0-.29,0-.05,0-.09-.05-.1-.09,0-.07-.01-.14-.01-.21,0-1.23,0-2.47,0-3.7,0-.06,0-.12,0-.18Zm7.83,11.72c-.32.97-1,1.58-1.98,1.85-.25.07-.52.08-.78.08-1.2,0-2.39,0-3.59,0-.35,0-.69,0-1.04,0-.08,0-.17,0-.25,0-.13,0-.18-.05-.18-.17,0-.11,0-.22,0-.32,0-.78,0-1.56,0-2.33s0-1.63,0-2.44c0-.11,0-.22,0-.32,0-.04.05-.09.09-.1.04,0,.07-.01.11-.01.1,0,.19,0,.29,0,1.5,0,2.99,0,4.49,0,.19,0,.38.01.57.03.89.08,2.02.75,2.34,2.09.13.56.13,1.12-.05,1.67Z"/>
</svg>