<?xml version="1.0" encoding="UTF-8"?>
<svg id="uuid-062f774f-8c83-4572-81f5-d3969340fddb" data-name="圖層 1" xmlns="http://www.w3.org/2000/svg" viewBox="0 0 126.01 100">
  <defs>
    <style>
      .uuid-c96887de-13bb-40b9-9ef9-4b41d948d18a {
        stroke-width: 0px;
      }
    </style>
  </defs>
  <g>
    <path class="uuid-c96887de-13bb-40b9-9ef9-4b41d948d18a" d="m62.29,35.87c.57-.66,1.21-1.25,1.95-1.73.78-.5,1.62-.8,2.51-.99.52-.11,1.06-.19,1.59-.2.48-.01.97.06,1.44.14,1.92.28,2.23.9,3.1.8.5-.06.77-.28,1.84-1.21,2.8-2.42,3.03-2.74,3.96-3.37.13-.09,1.4-.93,3.21-1.44.79-.22,1.16-.23,1.45-.04.8.52.45,2.29.41,2.48-.34,1.66-1.58,2.96-2.49,3.91-.02.02-.03.04-.06.06-.95.97-2.14,1.57-3.48,1.75-.67.09-1.2.04-2.05-.05-1.41-.14-1.69-.34-2.14-.11-.37.19-.5.94-1.01,1.91-1.05,1.96-.63,1.13-1.29,2.63-.45,1.02-.65,1.1-.3,2.18.31.94,1.85.11,2.83-.44.77-.43,1.55-.9,1.98-1.47.93-1.26,0,0,1.29-1.78.56-.77.76-1.13,1.15-1.45.44-.36,1.08-.38,1.45-.09.04.03.21.15.32.4.45,1.02.52,2.25-.7,3.41-.8.75-1.03,1.14-1.93,1.52-.26.11-.25.41-.47,1.1-.28.87-.35,1.23-.53,1.88-.02.07,0,.15,0,.3.27-.17.48-.32.71-.44,1.48-.83,2.96-1.65,4.44-2.48,1.05-.59,2.09-1.21,3.16-1.76.42-.22.9-.39,1.38-.46.91-.12,1.85.46,1.88,1.55,0,.37,0,.73,0,1.18.33-.12.57-.2.81-.29.76-.31,1.53-.6,2.28-.93.6-.26,1.17-.57,1.76-.87.36-.18.71-.37,1.14-.36.53.02.91.49.72.99-.2.53-.47,1.04-.73,1.55-.23.45-.19.56.02,1.07.12.3.46.4.97.23.57-.18.94-.48,1.91-1.37.61-.55,1.19-1.14,1.8-1.69.58-.53,1.23-.99,1.91-1.37.42-.24.91-.16,1.19.2.08.11.14.31.14.44,0,.33-.03.66-.05,1.02.29-.08.48-.28.69-.45.48-.4,1-.71,1.65-.8.48-.06.94.21,1.12.67.14.34.21.7.17,1.09-.11.73-.17,1.08-.16,1.3,0,.7.09.74.11.97,0,.03.02.04.05.03.19-.08.25-.07.43-.17.05-.03.09-.06.13-.1.34-.31,2.6-2.58,4.2-3.49,1.07-.61,2.21-1.05,3.43-1.23.33-.05.66-.08.99-.11.29-.03.52.09.72.29.2.21.32.43.18.72-.02.04-.01.1-.01.15-.03,1.07-.07,2.14-.1,3.22,0,.13.01.26.03.46.3-.15,1.75-1.11,2.01-1.25,1.36-.77,1.45-.85,2.89-1.45.32-.13.68-.13,1.11-.08.09.01.2.08.3.13.41.2-.5,1.01-.86,1.24-1.55.96-2.72,1.74-4.25,2.74-.54.35-1.26.73-1.74,1.17-.07.06-.09.18-.12.27-.61,1.61-1.19,3.24-1.82,4.84-.6,1.5-1.34,2.93-2.36,4.2-.52.65-1.17,1.19-1.88,1.65-.87.56-1.83.8-2.82.98-.08.02-.17.02-.25.04-.93.24-1.66-.16-1.93-1.18-.15-.59-.06-1.17.31-1.66.48-.64.98-1.27,1.49-1.89.33-.42.68-.83,1.03-1.23.53-.61,1.06-1.21,1.6-1.8.52-.57,1.04-1.14,1.59-1.68.49-.49,1-.95,1.5-1.41.59-.54,1.19-1.08,1.79-1.62.06-.06.13-.11.16-.19.15-.4.29-.81.43-1.21-.23-.11-.29.04-.38.12-.35.31-.66.68-1.06.92-.84.51-1.73.68-2.67.16-.48-.27-.7-.66-.75-1.17-.02-.26.04-.53.06-.8,0-.06,0-.13,0-.29-.18.14-.29.22-.39.32-.55.54-1.09,1.1-1.65,1.64-.2.2-.43.39-.68.51-.97.5-2.21.21-2.58-1.04-.2-.69-.12-1.36.04-2.03.12-.52.13-.52.06-.86-.1.07-.2.12-.28.2-.55.54-1.12,1.07-1.64,1.65-.51.57-.98,1.19-1.44,1.8-.58.77-1.28,1.42-1.96,2.09-.15.15-.36.29-.59.18-.2-.1-.32-.29-.34-.34-.16-.36.02-.77.1-.95.39-.84.58-1.27,1.13-2.01.37-.5.85-1.25,1.27-2.29-.28.03-.38.21-.5.33-.76.75-1.25,1.68-2.16,2.25-.49.31-1.22.7-1.76.91-.61.23-1.51.28-2.13.09-.67-.2-.9-1.08-.91-1.8,0-.3.05-.6.08-.9.01-.15,0-.3,0-.51-.08.03-.22.03-.34.12-.93.7-1.11,1.3-2.12,1.77-.58.27-1.28.25-1.28.25-.53.03-.72-.09-1.11.03-.3.1-.5.25-.64.56-.15.33-.29.65-.47.96-.69,1.17-1.42,2.34-2.63,3.04-.33.19-.7.36-1.07.41-.73.1-1.5-.34-1.62-1.35-.13-1.08.05-2.11.34-3.15,0,0,.06-.12.18-.4.24-.58.98-1.07.67-1.56-.16-.25-.63.29-.6.26-.39.33-1.03.96-1.3,1.12-1.94,1.19-.43.33-2.44,1.51-.77.45-1.47.36-1.74,1.05-.6,1.52-1.13,2.23-1.91,3.77-.7,1.41-2.32,3.84-3.51,4.87-.73.63-1.6,1.03-2.6,1.07-.28.01-.56.02-.84,0-.8-.07-1.43-.73-1.5-1.53-.07-.87,0-1.85.46-2.57.55-.88,1.2-1.73,1.98-2.39,1.17-.99,2.44-1.95,3.66-2.89.47-.37,1.09-.76,1.57-1.11.35-.25.24-.13.62-.37.09-.29.17-.5.19-.58.07-.4.25-1.07.71-2.32-.74.4-1.38.72-1.87.96-1.15.56-1.51.62-1.86.74-.54.18-1.11.17-1.67.03-.93-.24-1.61-1.15-1.77-2.05-.17-.95.05-1.82.29-2.71.26-.97.76-1.82,1.29-2.66.52-.82,1.12-1.59,1.78-2.31.24-.27.46-.56.72-.88-.12-.07-.09-.03-.52-.04-.67-.07-1.13-.16-1.77-.21-.75-.05-1.39-.11-2.15-.13-1.22-.02-3.11.39-4.21.91-.04.02-.08.04-.12.06m13.06-1.59c.74.16.99,0,1.71-.19.29-.08.57-.11,1.52-.8.98-.71.78-.51,1.48-1.19.39-.38,1.65-1.84,1.22-2.33-.55-.63-1.46.3-2.01.69-.14.1-.7.59-1.5,1.31m-6.94,19.26c-.71.39-2.98,2.35-3.8,3.26-.22.24-.33.57-.29.89,0,.03,0,.05,0,.06.05.23.21.42.42.52.14.07.25.04.51.04.78-.25,1.26-.63,1.64-.89.5-.35.94-1.23,1.35-1.82.76-1.49.43-.78,1.12-2.21.41-.71.35-.68.32-.71m36.87,4.02c.29-.47.95-1.84,1.48-3.06.06-.19.07-.28.13-.51-.3.15-.44.33-.6.5-.3.32-.58.65-.87.97-.38.42-.78.83-1.15,1.26-.6.69,0,0-.6.69-.48.56-1.06,1.22-1.58,1.75-.17.16-.74.68-.79,1.05.14.62,1.91-.07,2.64-.97m2.13-11.12c.41.19.91-.15,1.09-.28.58-.45.37-.26.89-.77.46-.45.81-1.01,1.03-1.64.02-.07,0-.15,0-.26-.14.03-.24.04-.32.08-.24.12-.47.25-.7.4-.73.47-1.02.73-1.62,1.22-.28.28-.7,1-.37,1.25Zm-25.45,1.12c-.26-.12-.52-.2-.85-.24-.28-.05-.35-.04-.61-.12-.39.68-.86,2.43-.6,2.74.11.05,1.1-.89,1.26-1.12m.06-3.24c.46.08.91.16,1.36.23.03,0,.08,0,.13-.01.37-.14.34-1.49.26-1.54-.06-.03-.11-.04-.14-.04-.4-.05-.83.28-1.26.78-.04.04-.01.01-.04.04-.03.04-.1.17-.31.53Zm-7.04-2.89c.78-.44,1.37-.71,1.57-1.23.24-.62.08-.85.05-.91-.07-.14-.23-.27-.43-.22-.19.07-.53.23-.86.68-.52.72-1.65,2.41-.33,1.67Z"/>
    <path class="uuid-c96887de-13bb-40b9-9ef9-4b41d948d18a" d="m24.45,38.06c-.14.16-3.61,3.09-3.76,3.25-.74.76-1.52,1.47-2.43,2.01-.33.2.12.29.42.51.61.44.87.44,1.48.89.31.23,1.91,1.24,2.22,1.47,1.12.82,1.5.79,2.79,1.32.71.29.25.11,1.24.39.92.26,1.66-.19,2.48-.42.01-.07.01.09,0,0-.18-1.32.42-2.42,1.08-3.53.35-.58.77-1.11,1.27-1.57.37-.34.76-.67,1.24-.87.62-.25,1.34-.61,1.94-.38.64.26,1.19,1.09,1.24,1.82.07,1.09-.34,2.14-.86,3.11-.49.91-1.13,1.7-2.02,2.26-.15.1-.29.21-.44.32.11.1.74.38,1,.41.75.08.77.1,1.29.09.86-.02,1.08-.02,1.92-.49.92-.52.55-.33,1.49-.85.16-.09.28-.23.42-.34-.13-.29-.24-.54-.35-.8-.07-.18-.17-.67-.08-1.43.16-1.38.84-2.38,1.13-2.8.22-.31.66-.83,1.29-1.33.6-.47,1.27-.75,1.96-.64.65.1,1.52.94,1.62,1.55.13.73.05,1.52-.22,2.21-.29.75-.93,1.4-1.41,2.05-.28.38-.59.73-.89,1.1.16.12.43.28.78.31.39.03.73-.09,1.22-.43.49-.35.97-.71,1.41-1.12.82-.75,1.59-1.54,2.41-2.29.37-.34.78-.63,1.2-.9.35-.23.76-.33,1.13-.03.17.14.27.37.43.6.07-.03.2-.07.3-.14.65-.44,1.37-.71,2.14-.82,1.32-.19,3.14.8,3.11,2.26-.02,1.09-.42,2.4-1.03,3.27-.71,1-1.86,1.65-3.06,1.89-.82.17-1.77.04-2.58-.17-.1-.03-.5-.21-.59-.24-.39-.15-.41.71-.58,1.1-.25.58-.35.97-.6,1.56-.39.91-.48,1.47-.87,2.38-.32.75-.6,1.49-.92,2.24-.36.87-.8,1.62-1.4,2.36-.14.17-.44.31-.6.46-.24.22-.49.01-.79-.13-.29-.14-.43-.37-.44-.72-.03-.79.09-1.67.41-2.36.55-1.19,1.04-2.29,1.58-3.48.69-1.51,1.41-2.95,2.08-4.46.27-.61.74-1.19,1.01-1.8.02-.05.03-.12.06-.26-.77.79-1.45,1.41-1.96,1.86-.58.52-.86.95-1.27,1.15-.56.27-1.13.5-1.74.56-.61.05-1.25-.36-1.77-.68-.3-.19-.27-.26-.44-.33-.67-.26-1.07,1.2-2.24,1.84-1.38.75-3.03.84-4.26.82-.85-.01-1.73-.29-2.22-.53-.73-.36-.78-.33-1.06-.86-.14-.27-.16-.53-.3-.55-.19-.03-.34.04-.39.05-.48.19-2.44,1.03-4.11.98-.96-.03-1.82-.31-2.02-.37-.83-.23-1.64-.65-1.93-.92-1.91-1.78-1.67-1.62-1.88-1.81-.93-.85-1.04-1.11-1.61-1.6-.67-.57-.94-.81-1.51-1.24-.49-.37-.49-.69-1.23-.35-.35.16-.61.38-1.16.85-.44.61-.97,1.13-1.44,1.73-.47.61-1.46,1.66-1.99,2.22-1.01,1.05-1.67,1.46-2.23,1.81-1.03.64-2.73.6-3.71-.26-.48-.42-.58-1.07-.62-1.86-.05-1.14.2-2.21.66-3.22.33-.73.7-1.45,1.33-1.99.37-.32.75-.64,1.34-.45,0,.38,0,.66-.17.92-.61.94-.95,1.9-1.32,3.01,0,0-.51.93-.09,1.49.13.18.05.1.2.2,0,0,.33.19.7.06.87-.3,1.63-1.29,1.93-1.57.48-.44,1.17-1.23,1.41-1.54.61-.78.42-.46,1.57-2.03.46-.62.92-1.24,1.35-1.88.71-1.06,1.4-2.12,2.08-3.2.7-1.11,1.37-2.23,2.05-3.34.34-.55.67-1.11,1.05-1.76-.19.05-.3.06-.39.11-.57.31-1.34.99-1.96,1.13-.59.13-1.14.19-1.73.04-.84-.22-1.07-1.33-.86-2.17.08-.34.2-.67.3-1.01.16-.54-.28-.27-.84-.15-.51.11-.71.24-1.21.4-.89.28-.8.27-1.64.24-.39-.01-.57.05-.66-.13-.06-.14.08-.35.13-.39.18-.13.36-.25.55-.36.62-.36,1.17-.85,1.87-1.07.41-.13.82-.3,1.24-.37,1.08-.17,2.42.64,2.09,1.8-.1.33.1.86.44.97.86.27.75.26,1.07.12,1.12-.49.34-.15,1.12-.49s1.49-.84,2.14-1.4c.33-.28.62-.61.93-.92.16-.17.3-.36.48-.51.26-.21.55-.19.77.01.19.18.23.48.07.74-.18.3-.39.59-.58.88-.86,1.32-1.04,2.88-1.75,4.29-.98,1.96-1.35,3.2-2.53,4.87-.58.83.02.03-.69.97-.04.06-.13.25-.23.42-.06.09-.05.08-.13.19-.16.22-.53.78-.44.76,1.03-.21,1.28-.7,2.11-1.45,1.04-.94.43-.44,1.42-1.29,1.09-.94,2.14-2.07,2.6-2.53.39-.39.74-.69,1.13-1.09.8-.82,1.52-1.29,2.51-1.86.49-.28,1.02-.51,1.55-.71.09-.04.28-.14.39-.06.17.12.04.56.02.65-.23.79,0,.65-.82,1.42m22.2,11.94c.23.13.45.12.68.13.67.03,1.29-.16,1.89-.43.64-.29,1.15-.74,1.53-1.34.23-.37.37-.79.34-1.24-.01-.23-.07-.4-.32-.43-.14-.02-.29-.05-.43-.02-.76.17-1.45.53-2.11.93-.96.59-.96.44-1.36,1.47-.05.12-.17.37-.24.54-.03.07-.03.19.03.39Zm-18.13-1.2c.06.14.23.21.38.17.87-.28,1.37-.52,2-1.22.48-.53.8-1.16.97-1.85.05-.21.04-.44.01-.65-.05-.39-.43-.6-.82-.51-.54.13-.92.47-1.25.88-.64.82-1.1,1.72-1.37,2.72-.06.24,0,.29.07.45Zm9.12-.9c.35.31.85-.13,1.06-.38.61-.71,1.18-1.33,1.45-2.22.04-.13.08-.42.04-.55-.05-.16-.09-.24-.16-.29-.21-.18-.43-.39-.64-.37-.18.01-.31.13-.4.22-.3.33-.64.65-.85,1.05-.41.75-.71,1.35-.6,2.15"/>
    <path class="uuid-c96887de-13bb-40b9-9ef9-4b41d948d18a" d="m97.65,37.45c-.7.98-2.75,2.79-4.11,2.13-.35-.17-.89-.61-1.15-1.2-.23-.5-.3-.9-.37-1.52-.1-.9-.19-1.78.21-2.76.34-.83.81-1.17.94-1.26.15-.1.32-.19.52-.26.73-.24,1.77.19,1.89,1.14l.18.84c.37-.17.68-.46,1.12-.5.4,0,.58,0,.9.23.65.48.52,1.48.49,1.74-.05.44-.24.88-.61,1.41Z"/>
  </g>
  <g>
    <path class="uuid-c96887de-13bb-40b9-9ef9-4b41d948d18a" d="m50.49,68.6h-1.27v-.76h2.15c.16,1.26-.53,2.47-1.87,2.75-1.47.31-2.75-.67-3.09-1.9-.41-1.52.51-3.14,2.16-3.4,1.03-.16,1.93.16,2.58,1.04-.17.16-.36.33-.62.57-.07-.1-.14-.23-.24-.33-.92-.94-2.63-.59-3.06.8-.32,1.04.27,2.13,1.28,2.43.94.28,1.85-.35,1.98-1.19Z"/>
    <path class="uuid-c96887de-13bb-40b9-9ef9-4b41d948d18a" d="m34.59,70.52v-5.19c.79,0,1.55-.06,2.28.17.97.3,1.52.98,1.69,1.99.12.72,0,1.38-.41,1.96-.48.69-1.16,1.06-2.02,1.07-.51,0-1.03,0-1.55,0Zm.82-.73c.83-.02,1.64-.07,2.11-.89.39-.68.37-1.37-.05-2.01-.48-.73-1.26-.77-2.06-.78v3.67Z"/>
    <path class="uuid-c96887de-13bb-40b9-9ef9-4b41d948d18a" d="m91,67.51c0-.09.02-.17.02-.25h.79c0,.11,0,.21,0,.32,0,1.02-.04,2.03,0,3.05.04.93-.58,1.6-1.37,1.68-.63.07-1.32-.18-1.62-.73-.1-.19-.15-.41-.24-.66.28,0,.49-.01.7,0,.06,0,.15.09.18.16.17.39.49.57.92.5.37-.06.61-.36.62-.78,0-.18,0-.35,0-.57-.49.38-1,.52-1.56.28-.49-.2-.77-.57-.89-1.07-.17-.68-.09-1.32.42-1.84.52-.53,1.21-.6,1.85-.2.05.03.09.06.17.1Zm-.84,2.39c.44.06.89-.34.9-.99.02-.57-.42-1.07-.9-1.05-.56.03-.85.52-.86.99-.02.65.41,1.11.86,1.04Z"/>
    <path class="uuid-c96887de-13bb-40b9-9ef9-4b41d948d18a" d="m28.61,67.08v-.53c.19,0,.37,0,.54,0,.14,0,.19-.03.2-.18.02-.3.05-.61.1-.9,0-.06.11-.13.16-.14.13,0,.26.03.39.05-.05.39-.1.77-.15,1.17.24,0,.45,0,.66,0,.05,0,.14-.08.15-.13.05-.28.1-.56.09-.83,0-.25.11-.28.3-.25.09.01.18.04.26.07-.05.39-.09.76-.14,1.16h.61v.52h-.67c-.03.26-.05.49-.08.77.16,0,.3,0,.44,0,.13,0,.18.04.19.17.02.39.02.39-.37.39h-.33c-.06.44-.11.87-.17,1.31-.17-.02-.32-.03-.52-.05.05-.42.09-.83.14-1.25h-.78c-.05.37-.1.74-.14,1.12-.01.14-.03.18-.21.17-.3,0-.39-.09-.32-.39.07-.3.08-.61.12-.95h-.62v-.51h.69c.04-.26.07-.5.11-.76h-.65Zm1.17,0c-.02.26-.05.49-.07.74h.77c.03-.25.06-.49.1-.74h-.79Z"/>
    <path class="uuid-c96887de-13bb-40b9-9ef9-4b41d948d18a" d="m67.16,64.89h.83v5.61h-.8c0-.06-.02-.12-.03-.19-.04.02-.08.02-.11.04-.88.69-2.21.11-2.37-1.11-.09-.66.04-1.22.52-1.68.43-.42,1.13-.51,1.65-.21.1.05.19.11.32.19v-2.65Zm.06,3.97s0-.05,0-.11c-.03-.49-.51-.94-.94-.88-.4.06-.7.32-.8.72-.11.42.06.94.37,1.17.28.2.59.2.88.06.36-.18.51-.5.5-.97Z"/>
    <path class="uuid-c96887de-13bb-40b9-9ef9-4b41d948d18a" d="m77.9,70.51h-.79v-1.54c0-.18,0-.36,0-.54-.01-.32-.17-.5-.52-.54-.24-.02-.51.04-.61.37-.06.19-.1.4-.11.6-.01.54,0,1.09,0,1.65h-.77v-5.61h.75v2.57c.35-.21.68-.33,1.07-.28.69.1.94.49.97,1.03.04.75.01,1.51.01,2.29Z"/>
    <path class="uuid-c96887de-13bb-40b9-9ef9-4b41d948d18a" d="m56.99,68.92c.07.98-.86,1.74-1.77,1.72-.93-.02-1.72-.72-1.72-1.75,0-.96.66-1.7,1.75-1.73,1.03-.02,1.82.81,1.75,1.76Zm-2.66-.05c0,.65.33,1,.91,1.04.5.03.97-.4.96-1-.01-.65-.38-1-.93-1.04-.53-.04-.93.41-.93,1Z"/>
    <path class="uuid-c96887de-13bb-40b9-9ef9-4b41d948d18a" d="m62.53,68.92c.07.99-.86,1.74-1.77,1.72-.94-.02-1.72-.72-1.73-1.75,0-.94.64-1.7,1.74-1.73,1.03-.03,1.82.81,1.75,1.75Zm-2.66-.04c0,.65.33.99.91,1.03.48.03.97-.39.95-1.01-.01-.67-.4-1.02-.94-1.02-.48,0-.93.28-.93,1Z"/>
    <path class="uuid-c96887de-13bb-40b9-9ef9-4b41d948d18a" d="m44.22,68.92c.07,1-.87,1.74-1.76,1.72-.92-.02-1.72-.7-1.73-1.75,0-1,.72-1.73,1.77-1.73,1.07,0,1.8.88,1.72,1.75Zm-2.66-.04c0,.65.33.99.91,1.03.48.03.97-.38.95-1.01-.02-.68-.41-1.02-.94-1.02-.48,0-.93.28-.93,1Z"/>
    <path class="uuid-c96887de-13bb-40b9-9ef9-4b41d948d18a" d="m71.13,66.11h-1.18v-.76h3.13v.77h-1.12v4.39h-.83v-4.39Z"/>
    <path class="uuid-c96887de-13bb-40b9-9ef9-4b41d948d18a" d="m86.26,70.51h-.79c0-.68,0-1.34,0-2.01,0-.5-.36-.75-.83-.57-.22.08-.34.27-.35.5-.03.48-.04.95-.06,1.43,0,.21,0,.43,0,.66h-.77v-3.24h.75c.01.06.03.13.05.23.45-.38.93-.41,1.43-.21.38.15.56.49.57.86.03.78,0,1.56,0,2.36Z"/>
    <path class="uuid-c96887de-13bb-40b9-9ef9-4b41d948d18a" d="m96.17,67.84c-.14.07-.27.13-.39.21-.16.1-.29.15-.42-.05-.08-.12-.23-.19-.35-.04-.12.15-.03.28.09.35.24.14.5.26.75.38.41.21.59.55.52.99-.07.44-.34.75-.76.89-.7.23-1.29-.06-1.6-.76.21-.1.43-.21.55-.26.28.14.48.27.69.34.07.02.23-.07.26-.14.03-.1.02-.27-.05-.33-.16-.14-.35-.24-.54-.34-.29-.16-.57-.3-.7-.67-.18-.53.25-1.29,1.06-1.23.44.03.7.26.89.67Z"/>
    <path class="uuid-c96887de-13bb-40b9-9ef9-4b41d948d18a" d="m80.29,67.25c.22,0,.41,0,.61,0,.04,0,.09,0,.15.01v3.24h-.76v-3.25Z"/>
    <path class="uuid-c96887de-13bb-40b9-9ef9-4b41d948d18a" d="m80.68,65.44c.29,0,.49.2.49.48,0,.28-.23.53-.5.53-.27,0-.51-.25-.51-.52,0-.29.22-.49.52-.49Z"/>
  </g>
</svg>