<?xml version="1.0" encoding="UTF-8"?>
<svg id="uuid-df519a81-7ab6-48be-84b5-b651fecce6eb" data-name="圖層 1" xmlns="http://www.w3.org/2000/svg" viewBox="0 0 100 100">
  <defs>
    <style>
      .uuid-4ef7a381-5a0a-4028-8ab9-e8d319b09f10 {
        stroke-width: 0px;
      }
    </style>
  </defs>
  <g>
    <path class="uuid-4ef7a381-5a0a-4028-8ab9-e8d319b09f10" d="m50,78.46c-19.81,0-35.92-16.12-35.92-35.92S30.2,6.63,50,6.63s35.92,16.11,35.92,35.92-16.11,35.92-35.92,35.92Zm0-70.22c-18.92,0-34.31,15.39-34.31,34.3s15.39,34.3,34.31,34.3,34.3-15.39,34.3-34.3S68.91,8.24,50,8.24Z"/>
    <g>
      <path class="uuid-4ef7a381-5a0a-4028-8ab9-e8d319b09f10" d="m56.06,29.2c-.63.3-1.06,1.09-1.44,1.64-.43.63-.84,1.39-1.46,1.85-.94.71-1.37-.8-1.54-1.46-.14-.56,0-1.25.09-1.81.14-.98.31-1.95.47-2.93.28-1.77.78-3.85.35-5.63-.44-1.87-2.57-.39-3.34.45-1.58,1.73-2.45,4.09-3.2,6.26-.39,1.13-.72,2.27-1.13,3.39.04-3.49,1.65-6.82,2.58-10.14.16-.58.32-1.24.19-1.85-.1-.45-.58-1.15-1.13-.99-.88.27-.98,2.03-1.1,2.75-.15.89-.31,1.79-.49,2.68h0s-.01.05-.03.13c-.07.35-.15.7-.24,1.05-.48,2.1-1.42,6.43-1.39,8.31.16.61.42,1.21.85,1.58,1.24,1.07,1.96-1.11,2.21-1.93,1.02-3.35,2.03-7.18,4.54-9.75-.19,3.6-2.22,6.94-.55,10.49.42.9,1.14,1.82,2.22,1.83.96,0,1.83-.64,2.48-1.3.75-.76,1.42-1.68,1.64-2.74.08-.41.38-2.32-.57-1.88Z"/>
      <path class="uuid-4ef7a381-5a0a-4028-8ab9-e8d319b09f10" d="m56.06,61.2c-.63.29-1.06,1.09-1.44,1.64-.43.63-.84,1.39-1.46,1.85-.94.71-1.37-.8-1.54-1.46-.14-.56,0-1.25.09-1.81.14-.98.31-1.95.47-2.93.28-1.76.78-3.85.35-5.63-.44-1.87-2.57-.4-3.34.45-1.58,1.72-2.45,4.09-3.2,6.26-.39,1.13-.72,2.27-1.13,3.4.04-3.49,1.65-6.82,2.58-10.14.16-.58.32-1.24.19-1.85-.1-.45-.58-1.16-1.13-.99-.88.26-.98,2.03-1.1,2.75-.15.9-.31,1.79-.49,2.68h0s-.01.05-.03.13c-.07.35-.15.7-.24,1.05-.48,2.09-1.42,6.43-1.39,8.31.16.61.42,1.21.85,1.58,1.24,1.07,1.96-1.11,2.21-1.93,1.02-3.35,2.03-7.17,4.54-9.75-.19,3.6-2.22,6.94-.55,10.49.42.9,1.14,1.82,2.22,1.83.96,0,1.83-.64,2.48-1.3.75-.77,1.42-1.68,1.64-2.74.08-.41.38-2.32-.57-1.88Z"/>
      <rect class="uuid-4ef7a381-5a0a-4028-8ab9-e8d319b09f10" x="33.25" y="41.74" width="33.49" height="1.61"/>
    </g>
  </g>
  <g>
    <path class="uuid-4ef7a381-5a0a-4028-8ab9-e8d319b09f10" d="m32.05,84.92l-1.09.17-.03,8.18h-.61l-5.25-7.29.04,6.62,1.44.18v.43h-3.12v-.43l1.09-.17.05-7.35-.17-.21-.91-.12v-.43h2.21l4.72,6.56-.02-5.96-1.45-.18v-.43h3.11v.43Z"/>
    <path class="uuid-4ef7a381-5a0a-4028-8ab9-e8d319b09f10" d="m35.91,92.82v.38h-3.08v-.38l.92-.13c.01-.67.02-1.62.02-2.23v-.76c0-.73-.01-1.18-.04-1.75l-1-.1v-.37l2.16-.67.17.12-.02,1.76v1.76c0,.63.01,1.57.02,2.23l.85.13Zm-2.41-8.26c0-.48.39-.82.87-.82s.86.33.86.82-.39.83-.86.83-.87-.34-.87-.83Z"/>
    <path class="uuid-4ef7a381-5a0a-4028-8ab9-e8d319b09f10" d="m43.82,92.82v.38h-3.08v-.38l.92-.13c.01-.66.02-1.58.02-2.23v-1.35c0-1.11-.33-1.49-1.03-1.49-.51,0-1.06.25-1.71.84v1.99c0,.63.01,1.57.02,2.23l.85.13v.38h-3.08v-.38l.92-.13c.02-.67.03-1.62.03-2.23v-.76c0-.74-.02-1.19-.05-1.74l-.99-.09v-.35l1.99-.7.18.12.1,1.06c.71-.79,1.51-1.19,2.3-1.19,1.1,0,1.71.68,1.71,2.31v1.33c0,.65.01,1.57.02,2.23l.86.13Z"/>
    <path class="uuid-4ef7a381-5a0a-4028-8ab9-e8d319b09f10" d="m46.01,90.04c.03,1.76.92,2.57,2.14,2.57.84,0,1.36-.34,1.81-.91l.24.17c-.47.93-1.33,1.5-2.48,1.5-1.78,0-3.04-1.19-3.04-3.27s1.46-3.29,3.07-3.29c1.5,0,2.49,1.01,2.49,2.51,0,.29-.02.53-.08.72h-4.13Zm2.32-.46c.54,0,.67-.27.67-.77,0-.87-.56-1.55-1.36-1.55s-1.53.7-1.63,2.31h2.31Z"/>
    <path class="uuid-4ef7a381-5a0a-4028-8ab9-e8d319b09f10" d="m58.29,92.82v.38h-3.08v-.38l.92-.13c.01-.66.02-1.58.02-2.23v-1.35c0-1.11-.33-1.49-1.03-1.49-.51,0-1.06.25-1.71.84v1.99c0,.63.01,1.57.02,2.23l.85.13v.38h-3.08v-.38l.92-.13c.02-.67.03-1.62.03-2.23v-.76c0-.74-.02-1.19-.05-1.74l-.99-.09v-.35l1.99-.7.18.12.09,1.06c.71-.79,1.51-1.19,2.3-1.19,1.1,0,1.71.68,1.71,2.31v1.33c0,.65.01,1.57.02,2.23l.86.13Z"/>
    <path class="uuid-4ef7a381-5a0a-4028-8ab9-e8d319b09f10" d="m62.15,92.82v.38h-3.08v-.38l.92-.13c.01-.67.02-1.62.02-2.23v-.76c0-.73-.01-1.18-.03-1.75l-1-.1v-.37l2.16-.67.17.12-.02,1.76v1.76c0,.63.01,1.57.02,2.23l.85.13Zm-2.41-8.26c0-.48.39-.82.87-.82s.86.33.86.82-.39.83-.86.83-.87-.34-.87-.83Z"/>
    <path class="uuid-4ef7a381-5a0a-4028-8ab9-e8d319b09f10" d="m70.06,92.82v.38h-3.08v-.38l.92-.13c.01-.66.02-1.58.02-2.23v-1.35c0-1.11-.33-1.49-1.03-1.49-.51,0-1.06.25-1.71.84v1.99c0,.63.01,1.57.02,2.23l.85.13v.38h-3.08v-.38l.92-.13c.02-.67.04-1.62.04-2.23v-.76c0-.74-.02-1.19-.05-1.74l-.99-.09v-.35l2-.7.18.12.1,1.06c.71-.79,1.51-1.19,2.3-1.19,1.1,0,1.71.68,1.71,2.31v1.33c0,.65.01,1.57.02,2.23l.86.13Z"/>
    <path class="uuid-4ef7a381-5a0a-4028-8ab9-e8d319b09f10" d="m72.25,90.04c.03,1.76.92,2.57,2.14,2.57.84,0,1.36-.34,1.81-.91l.23.17c-.47.93-1.33,1.5-2.48,1.5-1.78,0-3.05-1.19-3.05-3.27s1.46-3.29,3.07-3.29c1.5,0,2.49,1.01,2.49,2.51,0,.29-.02.53-.08.72h-4.13Zm2.33-.46c.54,0,.67-.27.67-.77,0-.87-.56-1.55-1.36-1.55s-1.53.7-1.63,2.31h2.31Z"/>
  </g>
</svg>