<?xml version="1.0" encoding="UTF-8"?>
<svg id="uuid-6e53e06b-3edc-413d-9010-9d93d0a88c80" data-name="圖層 1" xmlns="http://www.w3.org/2000/svg" viewBox="0 0 100 100">
  <defs>
    <style>
      .uuid-fe1982f1-a8fb-428e-80ca-dd5ddfada99c, .uuid-3c67152e-b0bd-412c-a6c7-a46b9446aa90 {
        stroke-width: 0px;
      }

      .uuid-3c67152e-b0bd-412c-a6c7-a46b9446aa90 {
        fill: #4ca4da;
      }
    </style>
  </defs>
  <g>
    <path class="uuid-3c67152e-b0bd-412c-a6c7-a46b9446aa90" d="m17.51,52.23l-.05-1.2-1.67.06.04,1.21c.01.4.1.68.25.85.16.16.37.24.64.23.2-.01.37-.06.5-.17.14-.1.23-.24.27-.4.02-.11.03-.3.02-.58Zm0,0l-.05-1.2-1.67.06.04,1.21c.01.4.1.68.25.85.16.16.37.24.64.23.2-.01.37-.06.5-.17.14-.1.23-.24.27-.4.02-.11.03-.3.02-.58Zm0,0l-.05-1.2-1.67.06.04,1.21c.01.4.1.68.25.85.16.16.37.24.64.23.2-.01.37-.06.5-.17.14-.1.23-.24.27-.4.02-.11.03-.3.02-.58Zm0,0l-.05-1.2-1.67.06.04,1.21c.01.4.1.68.25.85.16.16.37.24.64.23.2-.01.37-.06.5-.17.14-.1.23-.24.27-.4.02-.11.03-.3.02-.58Zm0,0l-.05-1.2-1.67.06.04,1.21c.01.4.1.68.25.85.16.16.37.24.64.23.2-.01.37-.06.5-.17.14-.1.23-.24.27-.4.02-.11.03-.3.02-.58Zm0,0l-.05-1.2-1.67.06.04,1.21c.01.4.1.68.25.85.16.16.37.24.64.23.2-.01.37-.06.5-.17.14-.1.23-.24.27-.4.02-.11.03-.3.02-.58Zm0,0l-.05-1.2-1.67.06.04,1.21c.01.4.1.68.25.85.16.16.37.24.64.23.2-.01.37-.06.5-.17.14-.1.23-.24.27-.4.02-.11.03-.3.02-.58Zm12.36,24.43c-.09-.28-.26-.52-.5-.71-.34-.28-.73-.4-1.17-.37-.43.04-.88.33-1.32.88-.36.44-.52.88-.49,1.33.03.44.23.81.58,1.1.37.29.77.41,1.21.34.44-.06.86-.33,1.24-.8.24-.3.4-.6.48-.9.08-.3.07-.59-.03-.87Zm-12.36-24.43l-.05-1.2-1.67.06.04,1.21c.01.4.1.68.25.85.16.16.37.24.64.23.2-.01.37-.06.5-.17.14-.1.23-.24.27-.4.02-.11.03-.3.02-.58Zm12.36,24.43c-.09-.28-.26-.52-.5-.71-.34-.28-.73-.4-1.17-.37-.43.04-.88.33-1.32.88-.36.44-.52.88-.49,1.33.03.44.23.81.58,1.1.37.29.77.41,1.21.34.44-.06.86-.33,1.24-.8.24-.3.4-.6.48-.9.08-.3.07-.59-.03-.87Zm-12.36-24.43l-.05-1.2-1.67.06.04,1.21c.01.4.1.68.25.85.16.16.37.24.64.23.2-.01.37-.06.5-.17.14-.1.23-.24.27-.4.02-.11.03-.3.02-.58Zm12.36,24.43c-.09-.28-.26-.52-.5-.71-.34-.28-.73-.4-1.17-.37-.43.04-.88.33-1.32.88-.36.44-.52.88-.49,1.33.03.44.23.81.58,1.1.37.29.77.41,1.21.34.44-.06.86-.33,1.24-.8.24-.3.4-.6.48-.9.08-.3.07-.59-.03-.87Zm4.97,3.12c-.15-.26-.35-.46-.63-.61-.38-.21-.79-.25-1.21-.14-.43.12-.8.48-1.14,1.11-.27.49-.35.96-.24,1.39.12.43.38.76.78.98.41.22.83.26,1.25.11.42-.14.78-.48,1.07-1.01.18-.34.28-.67.3-.98.02-.31-.04-.59-.18-.85Zm-17.33-27.55l-.05-1.2-1.67.06.04,1.21c.01.4.1.68.25.85.16.16.37.24.64.23.2-.01.37-.06.5-.17.14-.1.23-.24.27-.4.02-.11.03-.3.02-.58Zm12.36,24.43c-.09-.28-.26-.52-.5-.71-.34-.28-.73-.4-1.17-.37-.43.04-.88.33-1.32.88-.36.44-.52.88-.49,1.33.03.44.23.81.58,1.1.37.29.77.41,1.21.34.44-.06.86-.33,1.24-.8.24-.3.4-.6.48-.9.08-.3.07-.59-.03-.87Zm4.97,3.12c-.15-.26-.35-.46-.63-.61-.38-.21-.79-.25-1.21-.14-.43.12-.8.48-1.14,1.11-.27.49-.35.96-.24,1.39.12.43.38.76.78.98.41.22.83.26,1.25.11.42-.14.78-.48,1.07-1.01.18-.34.28-.67.3-.98.02-.31-.04-.59-.18-.85Zm-17.33-27.55l-.05-1.2-1.67.06.04,1.21c.01.4.1.68.25.85.16.16.37.24.64.23.2-.01.37-.06.5-.17.14-.1.23-.24.27-.4.02-.11.03-.3.02-.58Zm12.36,24.43c-.09-.28-.26-.52-.5-.71-.34-.28-.73-.4-1.17-.37-.43.04-.88.33-1.32.88-.36.44-.52.88-.49,1.33.03.44.23.81.58,1.1.37.29.77.41,1.21.34.44-.06.86-.33,1.24-.8.24-.3.4-.6.48-.9.08-.3.07-.59-.03-.87Zm4.97,3.12c-.15-.26-.35-.46-.63-.61-.38-.21-.79-.25-1.21-.14-.43.12-.8.48-1.14,1.11-.27.49-.35.96-.24,1.39.12.43.38.76.78.98.41.22.83.26,1.25.11.42-.14.78-.48,1.07-1.01.18-.34.28-.67.3-.98.02-.31-.04-.59-.18-.85Zm9.62,5.3c-.07-.14-.17-.25-.32-.33-.15-.08-.37-.15-.66-.2l-1.08-.18-.27,1.59,1.15.2c.2.03.34.05.42.05.15,0,.27-.02.38-.07.1-.04.2-.11.28-.21.08-.11.13-.23.16-.38.03-.17.01-.33-.06-.47Zm.17-2.02c-.05-.13-.14-.22-.27-.29s-.36-.13-.69-.19l-.93-.16-.24,1.4,1,.17c.27.05.47.07.59.05.17-.02.3-.07.4-.17.09-.09.16-.22.18-.38.03-.16.02-.3-.04-.43Zm4.55.92c-.15-.4-.26-.73-.33-.98-.06.3-.14.6-.26.89l-.52,1.38h1.59s-.48-1.29-.48-1.29Zm0,0c-.15-.4-.26-.73-.33-.98-.06.3-.14.6-.26.89l-.52,1.38h1.59s-.48-1.29-.48-1.29Zm-31.67-31.75l-.05-1.2-1.67.06.04,1.21c.01.4.1.68.25.85.16.16.37.24.64.23.2-.01.37-.06.5-.17.14-.1.23-.24.27-.4.02-.11.03-.3.02-.58Zm12.36,24.43c-.09-.28-.26-.52-.5-.71-.34-.28-.73-.4-1.17-.37-.43.04-.88.33-1.32.88-.36.44-.52.88-.49,1.33.03.44.23.81.58,1.1.37.29.77.41,1.21.34.44-.06.86-.33,1.24-.8.24-.3.4-.6.48-.9.08-.3.07-.59-.03-.87Zm4.97,3.12c-.15-.26-.35-.46-.63-.61-.38-.21-.79-.25-1.21-.14-.43.12-.8.48-1.14,1.11-.27.49-.35.96-.24,1.39.12.43.38.76.78.98.41.22.83.26,1.25.11.42-.14.78-.48,1.07-1.01.18-.34.28-.67.3-.98.02-.31-.04-.59-.18-.85Zm9.79,3.28c-.05-.13-.14-.22-.27-.29s-.36-.13-.69-.19l-.93-.16-.24,1.4,1,.17c.27.05.47.07.59.05.17-.02.3-.07.4-.17.09-.09.16-.22.18-.38.03-.16.02-.3-.04-.43Zm-.17,2.02c-.07-.14-.17-.25-.32-.33-.15-.08-.37-.15-.66-.2l-1.08-.18-.27,1.59,1.15.2c.2.03.34.05.42.05.15,0,.27-.02.38-.07.1-.04.2-.11.28-.21.08-.11.13-.23.16-.38.03-.17.01-.33-.06-.47Zm-26.95-32.85l-.05-1.2-1.67.06.04,1.21c.01.4.1.68.25.85.16.16.37.24.64.23.2-.01.37-.06.5-.17.14-.1.23-.24.27-.4.02-.11.03-.3.02-.58Zm12.36,24.43c-.09-.28-.26-.52-.5-.71-.34-.28-.73-.4-1.17-.37-.43.04-.88.33-1.32.88-.36.44-.52.88-.49,1.33.03.44.23.81.58,1.1.37.29.77.41,1.21.34.44-.06.86-.33,1.24-.8.24-.3.4-.6.48-.9.08-.3.07-.59-.03-.87Zm4.97,3.12c-.15-.26-.35-.46-.63-.61-.38-.21-.79-.25-1.21-.14-.43.12-.8.48-1.14,1.11-.27.49-.35.96-.24,1.39.12.43.38.76.78.98.41.22.83.26,1.25.11.42-.14.78-.48,1.07-1.01.18-.34.28-.67.3-.98.02-.31-.04-.59-.18-.85Zm9.62,5.3c-.07-.14-.17-.25-.32-.33-.15-.08-.37-.15-.66-.2l-1.08-.18-.27,1.59,1.15.2c.2.03.34.05.42.05.15,0,.27-.02.38-.07.1-.04.2-.11.28-.21.08-.11.13-.23.16-.38.03-.17.01-.33-.06-.47Zm.17-2.02c-.05-.13-.14-.22-.27-.29s-.36-.13-.69-.19l-.93-.16-.24,1.4,1,.17c.27.05.47.07.59.05.17-.02.3-.07.4-.17.09-.09.16-.22.18-.38.03-.16.02-.3-.04-.43Zm4.55.92c-.15-.4-.26-.73-.33-.98-.06.3-.14.6-.26.89l-.52,1.38h1.59s-.48-1.29-.48-1.29Zm0,0c-.15-.4-.26-.73-.33-.98-.06.3-.14.6-.26.89l-.52,1.38h1.59s-.48-1.29-.48-1.29Zm-31.67-31.75l-.05-1.2-1.67.06.04,1.21c.01.4.1.68.25.85.16.16.37.24.64.23.2-.01.37-.06.5-.17.14-.1.23-.24.27-.4.02-.11.03-.3.02-.58Zm12.36,24.43c-.09-.28-.26-.52-.5-.71-.34-.28-.73-.4-1.17-.37-.43.04-.88.33-1.32.88-.36.44-.52.88-.49,1.33.03.44.23.81.58,1.1.37.29.77.41,1.21.34.44-.06.86-.33,1.24-.8.24-.3.4-.6.48-.9.08-.3.07-.59-.03-.87Zm4.97,3.12c-.15-.26-.35-.46-.63-.61-.38-.21-.79-.25-1.21-.14-.43.12-.8.48-1.14,1.11-.27.49-.35.96-.24,1.39.12.43.38.76.78.98.41.22.83.26,1.25.11.42-.14.78-.48,1.07-1.01.18-.34.28-.67.3-.98.02-.31-.04-.59-.18-.85Zm9.79,3.28c-.05-.13-.14-.22-.27-.29s-.36-.13-.69-.19l-.93-.16-.24,1.4,1,.17c.27.05.47.07.59.05.17-.02.3-.07.4-.17.09-.09.16-.22.18-.38.03-.16.02-.3-.04-.43Zm-.17,2.02c-.07-.14-.17-.25-.32-.33-.15-.08-.37-.15-.66-.2l-1.08-.18-.27,1.59,1.15.2c.2.03.34.05.42.05.15,0,.27-.02.38-.07.1-.04.2-.11.28-.21.08-.11.13-.23.16-.38.03-.17.01-.33-.06-.47Zm-26.95-32.85l-.05-1.2-1.67.06.04,1.21c.01.4.1.68.25.85.16.16.37.24.64.23.2-.01.37-.06.5-.17.14-.1.23-.24.27-.4.02-.11.03-.3.02-.58Zm12.36,24.43c-.09-.28-.26-.52-.5-.71-.34-.28-.73-.4-1.17-.37-.43.04-.88.33-1.32.88-.36.44-.52.88-.49,1.33.03.44.23.81.58,1.1.37.29.77.41,1.21.34.44-.06.86-.33,1.24-.8.24-.3.4-.6.48-.9.08-.3.07-.59-.03-.87Zm4.97,3.12c-.15-.26-.35-.46-.63-.61-.38-.21-.79-.25-1.21-.14-.43.12-.8.48-1.14,1.11-.27.49-.35.96-.24,1.39.12.43.38.76.78.98.41.22.83.26,1.25.11.42-.14.78-.48,1.07-1.01.18-.34.28-.67.3-.98.02-.31-.04-.59-.18-.85Zm9.62,5.3c-.07-.14-.17-.25-.32-.33-.15-.08-.37-.15-.66-.2l-1.08-.18-.27,1.59,1.15.2c.2.03.34.05.42.05.15,0,.27-.02.38-.07.1-.04.2-.11.28-.21.08-.11.13-.23.16-.38.03-.17.01-.33-.06-.47Zm.17-2.02c-.05-.13-.14-.22-.27-.29s-.36-.13-.69-.19l-.93-.16-.24,1.4,1,.17c.27.05.47.07.59.05.17-.02.3-.07.4-.17.09-.09.16-.22.18-.38.03-.16.02-.3-.04-.43Zm4.55.92c-.15-.4-.26-.73-.33-.98-.06.3-.14.6-.26.89l-.52,1.38h1.59s-.48-1.29-.48-1.29Zm15.89-4.17c-.33-.27-.58-.5-.76-.69.09.29.16.6.2.91l.22,1.46,1.39-.77-1.05-.91Zm-15.89,4.17c-.15-.4-.26-.73-.33-.98-.06.3-.14.6-.26.89l-.52,1.38h1.59s-.48-1.29-.48-1.29Zm-31.67-31.75l-.05-1.2-1.67.06.04,1.21c.01.4.1.68.25.85.16.16.37.24.64.23.2-.01.37-.06.5-.17.14-.1.23-.24.27-.4.02-.11.03-.3.02-.58Zm12.36,24.43c-.09-.28-.26-.52-.5-.71-.34-.28-.73-.4-1.17-.37-.43.04-.88.33-1.32.88-.36.44-.52.88-.49,1.33.03.44.23.81.58,1.1.37.29.77.41,1.21.34.44-.06.86-.33,1.24-.8.24-.3.4-.6.48-.9.08-.3.07-.59-.03-.87Zm4.97,3.12c-.15-.26-.35-.46-.63-.61-.38-.21-.79-.25-1.21-.14-.43.12-.8.48-1.14,1.11-.27.49-.35.96-.24,1.39.12.43.38.76.78.98.41.22.83.26,1.25.11.42-.14.78-.48,1.07-1.01.18-.34.28-.67.3-.98.02-.31-.04-.59-.18-.85Zm9.79,3.28c-.05-.13-.14-.22-.27-.29s-.36-.13-.69-.19l-.93-.16-.24,1.4,1,.17c.27.05.47.07.59.05.17-.02.3-.07.4-.17.09-.09.16-.22.18-.38.03-.16.02-.3-.04-.43Zm-.17,2.02c-.07-.14-.17-.25-.32-.33-.15-.08-.37-.15-.66-.2l-1.08-.18-.27,1.59,1.15.2c.2.03.34.05.42.05.15,0,.27-.02.38-.07.1-.04.2-.11.28-.21.08-.11.13-.23.16-.38.03-.17.01-.33-.06-.47Zm20.61-5.27c-.33-.27-.58-.5-.76-.69.09.29.16.6.2.91l.22,1.46,1.39-.77-1.05-.91Zm-47.56-27.58l-.05-1.2-1.67.06.04,1.21c.01.4.1.68.25.85.16.16.37.24.64.23.2-.01.37-.06.5-.17.14-.1.23-.24.27-.4.02-.11.03-.3.02-.58Zm12.36,24.43c-.09-.28-.26-.52-.5-.71-.34-.28-.73-.4-1.17-.37-.43.04-.88.33-1.32.88-.36.44-.52.88-.49,1.33.03.44.23.81.58,1.1.37.29.77.41,1.21.34.44-.06.86-.33,1.24-.8.24-.3.4-.6.48-.9.08-.3.07-.59-.03-.87Zm4.97,3.12c-.15-.26-.35-.46-.63-.61-.38-.21-.79-.25-1.21-.14-.43.12-.8.48-1.14,1.11-.27.49-.35.96-.24,1.39.12.43.38.76.78.98.41.22.83.26,1.25.11.42-.14.78-.48,1.07-1.01.18-.34.28-.67.3-.98.02-.31-.04-.59-.18-.85Zm9.62,5.3c-.07-.14-.17-.25-.32-.33-.15-.08-.37-.15-.66-.2l-1.08-.18-.27,1.59,1.15.2c.2.03.34.05.42.05.15,0,.27-.02.38-.07.1-.04.2-.11.28-.21.08-.11.13-.23.16-.38.03-.17.01-.33-.06-.47Zm.17-2.02c-.05-.13-.14-.22-.27-.29s-.36-.13-.69-.19l-.93-.16-.24,1.4,1,.17c.27.05.47.07.59.05.17-.02.3-.07.4-.17.09-.09.16-.22.18-.38.03-.16.02-.3-.04-.43Zm4.55.92c-.15-.4-.26-.73-.33-.98-.06.3-.14.6-.26.89l-.52,1.38h1.59s-.48-1.29-.48-1.29Zm15.89-4.17c-.33-.27-.58-.5-.76-.69.09.29.16.6.2.91l.22,1.46,1.39-.77-1.05-.91Zm8.48-6.83c-.4-.15-.71-.29-.95-.4.18.24.35.5.5.78l.68,1.31,1.06-1.19-1.29-.5Zm0,0c-.4-.15-.71-.29-.95-.4.18.24.35.5.5.78l.68,1.31,1.06-1.19-1.29-.5Zm-24.37,11c-.15-.4-.26-.73-.33-.98-.06.3-.14.6-.26.89l-.52,1.38h1.59s-.48-1.29-.48-1.29Zm-31.67-31.75l-.05-1.2-1.67.06.04,1.21c.01.4.1.68.25.85.16.16.37.24.64.23.2-.01.37-.06.5-.17.14-.1.23-.24.27-.4.02-.11.03-.3.02-.58Zm61.62,17.06c-.04-.2-.15-.4-.32-.61-.16-.2-.4-.39-.7-.58-.41-.26-.78-.4-1.09-.4s-.56.07-.76.21c-.14.11-.31.32-.51.63l-.52.84,3.03,1.91.54-.85c.16-.26.27-.48.31-.66.05-.18.06-.34.02-.49Zm-49.26,7.37c-.09-.28-.26-.52-.5-.71-.34-.28-.73-.4-1.17-.37-.43.04-.88.33-1.32.88-.36.44-.52.88-.49,1.33.03.44.23.81.58,1.1.37.29.77.41,1.21.34.44-.06.86-.33,1.24-.8.24-.3.4-.6.48-.9.08-.3.07-.59-.03-.87Zm4.97,3.12c-.15-.26-.35-.46-.63-.61-.38-.21-.79-.25-1.21-.14-.43.12-.8.48-1.14,1.11-.27.49-.35.96-.24,1.39.12.43.38.76.78.98.41.22.83.26,1.25.11.42-.14.78-.48,1.07-1.01.18-.34.28-.67.3-.98.02-.31-.04-.59-.18-.85Zm9.79,3.28c-.05-.13-.14-.22-.27-.29s-.36-.13-.69-.19l-.93-.16-.24,1.4,1,.17c.27.05.47.07.59.05.17-.02.3-.07.4-.17.09-.09.16-.22.18-.38.03-.16.02-.3-.04-.43Zm-.17,2.02c-.07-.14-.17-.25-.32-.33-.15-.08-.37-.15-.66-.2l-1.08-.18-.27,1.59,1.15.2c.2.03.34.05.42.05.15,0,.27-.02.38-.07.1-.04.2-.11.28-.21.08-.11.13-.23.16-.38.03-.17.01-.33-.06-.47Zm20.61-5.27c-.33-.27-.58-.5-.76-.69.09.29.16.6.2.91l.22,1.46,1.39-.77-1.05-.91Zm14.06-10.52c-.04-.2-.15-.4-.32-.61-.16-.2-.4-.39-.7-.58-.41-.26-.78-.4-1.09-.4s-.56.07-.76.21c-.14.11-.31.32-.51.63l-.52.84,3.03,1.91.54-.85c.16-.26.27-.48.31-.66.05-.18.06-.34.02-.49Zm-61.62-17.06l-.05-1.2-1.67.06.04,1.21c.01.4.1.68.25.85.16.16.37.24.64.23.2-.01.37-.06.5-.17.14-.1.23-.24.27-.4.02-.11.03-.3.02-.58Zm12.36,24.43c-.09-.28-.26-.52-.5-.71-.34-.28-.73-.4-1.17-.37-.43.04-.88.33-1.32.88-.36.44-.52.88-.49,1.33.03.44.23.81.58,1.1.37.29.77.41,1.21.34.44-.06.86-.33,1.24-.8.24-.3.4-.6.48-.9.08-.3.07-.59-.03-.87Zm4.97,3.12c-.15-.26-.35-.46-.63-.61-.38-.21-.79-.25-1.21-.14-.43.12-.8.48-1.14,1.11-.27.49-.35.96-.24,1.39.12.43.38.76.78.98.41.22.83.26,1.25.11.42-.14.78-.48,1.07-1.01.18-.34.28-.67.3-.98.02-.31-.04-.59-.18-.85Zm9.62,5.3c-.07-.14-.17-.25-.32-.33-.15-.08-.37-.15-.66-.2l-1.08-.18-.27,1.59,1.15.2c.2.03.34.05.42.05.15,0,.27-.02.38-.07.1-.04.2-.11.28-.21.08-.11.13-.23.16-.38.03-.17.01-.33-.06-.47Zm.17-2.02c-.05-.13-.14-.22-.27-.29s-.36-.13-.69-.19l-.93-.16-.24,1.4,1,.17c.27.05.47.07.59.05.17-.02.3-.07.4-.17.09-.09.16-.22.18-.38.03-.16.02-.3-.04-.43Zm4.55.92c-.15-.4-.26-.73-.33-.98-.06.3-.14.6-.26.89l-.52,1.38h1.59s-.48-1.29-.48-1.29Zm15.89-4.17c-.33-.27-.58-.5-.76-.69.09.29.16.6.2.91l.22,1.46,1.39-.77-1.05-.91Zm8.48-6.83c-.4-.15-.71-.29-.95-.4.18.24.35.5.5.78l.68,1.31,1.06-1.19-1.29-.5Zm0,0c-.4-.15-.71-.29-.95-.4.18.24.35.5.5.78l.68,1.31,1.06-1.19-1.29-.5Zm-24.37,11c-.15-.4-.26-.73-.33-.98-.06.3-.14.6-.26.89l-.52,1.38h1.59s-.48-1.29-.48-1.29Zm-31.67-31.75l-.05-1.2-1.67.06.04,1.21c.01.4.1.68.25.85.16.16.37.24.64.23.2-.01.37-.06.5-.17.14-.1.23-.24.27-.4.02-.11.03-.3.02-.58Zm61.62,17.06c-.04-.2-.15-.4-.32-.61-.16-.2-.4-.39-.7-.58-.41-.26-.78-.4-1.09-.4s-.56.07-.76.21c-.14.11-.31.32-.51.63l-.52.84,3.03,1.91.54-.85c.16-.26.27-.48.31-.66.05-.18.06-.34.02-.49Zm-49.26,7.37c-.09-.28-.26-.52-.5-.71-.34-.28-.73-.4-1.17-.37-.43.04-.88.33-1.32.88-.36.44-.52.88-.49,1.33.03.44.23.81.58,1.1.37.29.77.41,1.21.34.44-.06.86-.33,1.24-.8.24-.3.4-.6.48-.9.08-.3.07-.59-.03-.87Zm4.97,3.12c-.15-.26-.35-.46-.63-.61-.38-.21-.79-.25-1.21-.14-.43.12-.8.48-1.14,1.11-.27.49-.35.96-.24,1.39.12.43.38.76.78.98.41.22.83.26,1.25.11.42-.14.78-.48,1.07-1.01.18-.34.28-.67.3-.98.02-.31-.04-.59-.18-.85Zm9.79,3.28c-.05-.13-.14-.22-.27-.29s-.36-.13-.69-.19l-.93-.16-.24,1.4,1,.17c.27.05.47.07.59.05.17-.02.3-.07.4-.17.09-.09.16-.22.18-.38.03-.16.02-.3-.04-.43Zm-.49,1.69c-.15-.08-.37-.15-.66-.2l-1.08-.18-.27,1.59,1.15.2c.2.03.34.05.42.05.15,0,.27-.02.38-.07.1-.04.2-.11.28-.21.08-.11.13-.23.16-.38.03-.17.01-.33-.06-.47s-.17-.25-.32-.33Zm20.93-4.94c-.33-.27-.58-.5-.76-.69.09.29.16.6.2.91l.22,1.46,1.39-.77-1.05-.91Zm14.04-10.03c.05-.18.06-.34.02-.49-.04-.2-.15-.4-.32-.61-.16-.2-.4-.39-.7-.58-.41-.26-.78-.4-1.09-.4s-.56.07-.76.21c-.14.11-.31.32-.51.63l-.52.84,3.03,1.91.54-.85c.16-.26.27-.48.31-.66ZM49.09,10.49c-22.51,0-40.82,18.31-40.82,40.81s18.31,40.82,40.82,40.82,40.81-18.31,40.81-40.82S71.59,10.49,49.09,10.49Zm35.05,48.33l-.12.55-4.2.48,3.91.85-.13.58-4.59-1,.2-.91,3.49-.38c.32-.04.56-.06.72-.07-.15-.09-.38-.23-.68-.41l-2.95-1.79.17-.82,4.6,1-.13.59-3.85-.84,3.56,2.17Zm-19.1,24.69l-.58.32-.67-4.99.58-.32,3.95,3.19-.62.35-1.17-.99-1.72.95.23,1.49Zm-4.31,1.8l-2.82.82-1.32-4.51.6-.17,1.16,3.98,2.22-.65.16.53Zm-4.85,1.29l-2.91.42-.68-4.65.62-.09.6,4.1,2.29-.33.08.55Zm-10.83-1.68c.11.23.15.47.1.74-.04.22-.12.41-.24.58-.12.17-.26.3-.41.38-.16.07-.34.12-.55.14-.21.01-.47,0-.76-.05l-1.77-.31.8-4.63,1.74.3c.35.06.63.16.83.29.19.13.34.3.42.52.09.21.12.43.08.64-.03.2-.12.37-.26.53-.14.16-.32.27-.56.34.27.13.46.31.58.53Zm-7.8-4.14l.18-.52,3.52,1.2-.18.52-1.47-.5-1.34,3.92-.59-.2,1.34-3.92-1.46-.5Zm-1.61-.11c-.02.42-.14.83-.36,1.24-.23.42-.52.75-.86.99-.35.24-.73.36-1.13.36-.4.01-.78-.09-1.14-.28-.39-.21-.69-.5-.89-.85-.21-.35-.3-.74-.28-1.15.02-.41.12-.79.32-1.16.37-.68.85-1.12,1.42-1.31.58-.19,1.16-.13,1.75.19.38.21.67.48.88.83.21.35.3.73.29,1.14Zm-14.28-14.78c-.17-.32-.38-.54-.65-.68-.27-.13-.55-.17-.86-.12-.3.05-.59.15-.86.29-.36.19-.64.41-.84.65-.21.24-.32.51-.34.79-.01.29.05.56.18.81.16.31.39.52.68.64.29.12.63.12,1.02.01l.16.63c-.52.12-.97.1-1.37-.07-.39-.18-.7-.48-.93-.91-.24-.45-.35-.86-.31-1.24.03-.37.18-.73.45-1.06s.6-.6.99-.81c.43-.23.86-.35,1.27-.35.4-.01.77.09,1.1.31.33.22.59.51.79.87.22.42.3.82.24,1.22-.06.39-.25.75-.58,1.06l-.41-.47c.25-.26.39-.51.43-.77.04-.25-.01-.52-.16-.8Zm-1.55,4.96l-.57.33-.33-.57.57-.33.33.57Zm-5.02-11.99l.57,2.24-.54.14-.72-2.84,4.55-1.16.16.6-4.02,1.02Zm1.58,4.77l-.61.24-.23-.62.61-.23.23.61Zm-2.66-7.55l-.09-.66.65-.08.09.65-.65.09Zm26.34,9.4l2.96,1.86,1.81,4.46-1.04,1.2c-2.25-1.36-3.93-3.54-4.64-6.13l.91-1.39Zm4.48.67l-3.66-2.3-.71-4.83c.72-1.23,1.68-2.31,2.83-3.15l5.19,3.79v4.77c-.91.43-2.21,1.04-3.65,1.72Zm1.69,6.8h5.73l.75.87c-1.12.42-2.34.65-3.61.65s-2.49-.23-3.62-.65l.75-.87Zm3.78-8.52v-4.77l5.19-3.79c1.15.84,2.11,1.92,2.83,3.15l-.71,4.83-3.66,2.3-3.65-1.72Zm5.17,2.91l2.96-1.86.91,1.39c-.71,2.59-2.4,4.77-4.64,6.13l-1.04-1.2c.51-1.27,1.58-3.89,1.81-4.46Zm-25.46,8.19c.33.27.57.6.71.98.14.38.17.77.07,1.17-.09.41-.28.79-.58,1.16-.3.37-.64.64-1.03.81-.38.17-.78.22-1.17.15-.4-.07-.75-.24-1.07-.5-.34-.27-.58-.61-.72-.99-.13-.39-.16-.78-.06-1.18.09-.4.27-.76.53-1.08.49-.61,1.04-.95,1.64-1.03.6-.08,1.16.09,1.68.51Zm38.04,2.14c-.08-.4-.05-.79.11-1.15.15-.36.39-.67.71-.93.37-.29.76-.44,1.16-.45.4-.02.78.11,1.15.37l-.39.49c-.3-.2-.58-.29-.84-.29-.26.01-.51.11-.76.31-.28.22-.46.48-.54.76-.09.29-.08.58.03.87.1.29.25.55.44.79.25.32.51.56.79.72.28.16.56.22.84.18.29-.03.54-.14.76-.32.28-.22.45-.48.51-.79.07-.3,0-.64-.17-1l.58-.26c.22.48.28.93.18,1.35-.1.42-.34.78-.72,1.09-.4.31-.79.49-1.17.52-.37.04-.75-.05-1.12-.25-.37-.21-.7-.48-.98-.83-.3-.39-.49-.78-.57-1.18Zm7.54-9.43c.19-.31.36-.53.5-.67.2-.2.41-.33.65-.41.31-.09.64-.11.98-.04.34.07.69.22,1.04.44.3.19.55.39.74.61.19.22.32.43.41.64.08.2.12.4.13.59,0,.18-.03.38-.1.6-.07.21-.18.44-.33.68l-.91,1.43-3.97-2.5.86-1.37Zm1.89-3.3l1.3-3.14.52.21-1.07,2.57,1.33.55,1-2.4.51.21-1,2.4,1.47.62,1.11-2.67.51.22-1.34,3.23-4.34-1.8Zm5.69-11.96l-2.77,1.72.03-.76,1.44-.88c.27-.16.54-.31.81-.45-.24-.15-.51-.33-.81-.54l-1.35-.95.02-.73,2.65,1.97,1.99.06-.02.62-1.99-.06Zm-64.87-2.59l.06,1.77c.01.31,0,.55-.02.71-.03.23-.1.43-.2.59-.1.16-.25.29-.44.39-.19.1-.4.16-.63.17-.4.01-.75-.1-1.03-.35-.29-.24-.44-.7-.47-1.36l-.04-1.2-1.91.06-.02-.62,4.7-.16Zm6.92,20.48l2.09,2.38-.42.37-1.68-1.92-1.09.96,1.45,1.66-.41.36-1.46-1.66-1.6,1.41-.41-.47,3.53-3.09Zm22.44,16.32h-.66l1.84-4.69h.67s1.89,4.72,1.89,4.72h-.71s-.54-1.43-.54-1.43l-1.96-.02-.53,1.42Zm27.39-10.72l-.44.5-2.29-4.48.45-.5,4.78,1.7-.47.53-1.43-.54-1.31,1.46.71,1.33Zm-2.15-3.89c.18.24.35.5.5.78l.68,1.31,1.06-1.19-1.29-.5c-.4-.15-.71-.29-.95-.4Zm-8.29,6.54c.09.29.16.6.2.91l.22,1.46,1.39-.77-1.05-.91c-.33-.27-.58-.5-.76-.69Zm-15.46,3.88c-.06.3-.14.6-.26.89l-.52,1.38h1.59s-.48-1.29-.48-1.29c-.15-.4-.26-.73-.33-.98Zm-4.49-.23c-.13-.07-.36-.13-.69-.19l-.93-.16-.24,1.4,1,.17c.27.05.47.07.59.05.17-.02.3-.07.4-.17.09-.09.16-.22.18-.38.03-.16.02-.3-.04-.43-.05-.13-.14-.22-.27-.29Zm-.22,1.98c-.15-.08-.37-.15-.66-.2l-1.08-.18-.27,1.59,1.15.2c.2.03.34.05.42.05.15,0,.27-.02.38-.07.1-.04.2-.11.28-.21.08-.11.13-.23.16-.38.03-.17.01-.33-.06-.47s-.17-.25-.32-.33Zm-9.93-5.58c-.38-.21-.79-.25-1.21-.14-.43.12-.8.48-1.14,1.11-.27.49-.35.96-.24,1.39.12.43.38.76.78.98.41.22.83.26,1.25.11.42-.14.78-.48,1.07-1.01.18-.34.28-.67.3-.98.02-.31-.04-.59-.18-.85-.15-.26-.35-.46-.63-.61Zm-7.24-.28c.37.29.77.41,1.21.34.44-.06.86-.33,1.24-.8.24-.3.4-.6.48-.9.08-.3.07-.59-.03-.87-.09-.28-.26-.52-.5-.71-.34-.28-.73-.4-1.17-.37-.43.04-.88.33-1.32.88-.36.44-.52.88-.49,1.33.03.44.23.81.58,1.1Zm-10.89-25.74c.16.16.37.24.64.23.2-.01.37-.06.5-.17.14-.1.23-.24.27-.4.02-.11.03-.3.02-.58l-.05-1.2-1.67.06.04,1.21c.01.4.1.68.25.85Zm63.05,16.14c-.04-.2-.15-.4-.32-.61-.16-.2-.4-.39-.7-.58-.41-.26-.78-.4-1.09-.4s-.56.07-.76.21c-.14.11-.31.32-.51.63l-.52.84,3.03,1.91.54-.85c.16-.26.27-.48.31-.66.05-.18.06-.34.02-.49Zm-14.06,10.52c-.33-.27-.58-.5-.76-.69.09.29.16.6.2.91l.22,1.46,1.39-.77-1.05-.91Zm-20.61,5.27c-.07-.14-.17-.25-.32-.33-.15-.08-.37-.15-.66-.2l-1.08-.18-.27,1.59,1.15.2c.2.03.34.05.42.05.15,0,.27-.02.38-.07.1-.04.2-.11.28-.21.08-.11.13-.23.16-.38.03-.17.01-.33-.06-.47Zm.17-2.02c-.05-.13-.14-.22-.27-.29s-.36-.13-.69-.19l-.93-.16-.24,1.4,1,.17c.27.05.47.07.59.05.17-.02.3-.07.4-.17.09-.09.16-.22.18-.38.03-.16.02-.3-.04-.43Zm-9.79-3.28c-.15-.26-.35-.46-.63-.61-.38-.21-.79-.25-1.21-.14-.43.12-.8.48-1.14,1.11-.27.49-.35.96-.24,1.39.12.43.38.76.78.98.41.22.83.26,1.25.11.42-.14.78-.48,1.07-1.01.18-.34.28-.67.3-.98.02-.31-.04-.59-.18-.85Zm-4.97-3.12c-.09-.28-.26-.52-.5-.71-.34-.28-.73-.4-1.17-.37-.43.04-.88.33-1.32.88-.36.44-.52.88-.49,1.33.03.44.23.81.58,1.1.37.29.77.41,1.21.34.44-.06.86-.33,1.24-.8.24-.3.4-.6.48-.9.08-.3.07-.59-.03-.87Zm49.26-7.37c-.04-.2-.15-.4-.32-.61-.16-.2-.4-.39-.7-.58-.41-.26-.78-.4-1.09-.4s-.56.07-.76.21c-.14.11-.31.32-.51.63l-.52.84,3.03,1.91.54-.85c.16-.26.27-.48.31-.66.05-.18.06-.34.02-.49Zm-61.62-17.06l-.05-1.2-1.67.06.04,1.21c.01.4.1.68.25.85.16.16.37.24.64.23.2-.01.37-.06.5-.17.14-.1.23-.24.27-.4.02-.11.03-.3.02-.58Zm31.67,31.75c-.15-.4-.26-.73-.33-.98-.06.3-.14.6-.26.89l-.52,1.38h1.59s-.48-1.29-.48-1.29Zm24.37-11c-.4-.15-.71-.29-.95-.4.18.24.35.5.5.78l.68,1.31,1.06-1.19-1.29-.5Zm0,0c-.4-.15-.71-.29-.95-.4.18.24.35.5.5.78l.68,1.31,1.06-1.19-1.29-.5Zm-8.48,6.83c-.33-.27-.58-.5-.76-.69.09.29.16.6.2.91l.22,1.46,1.39-.77-1.05-.91Zm-15.89,4.17c-.15-.4-.26-.73-.33-.98-.06.3-.14.6-.26.89l-.52,1.38h1.59s-.48-1.29-.48-1.29Zm-4.55-.92c-.05-.13-.14-.22-.27-.29s-.36-.13-.69-.19l-.93-.16-.24,1.4,1,.17c.27.05.47.07.59.05.17-.02.3-.07.4-.17.09-.09.16-.22.18-.38.03-.16.02-.3-.04-.43Zm-.17,2.02c-.07-.14-.17-.25-.32-.33-.15-.08-.37-.15-.66-.2l-1.08-.18-.27,1.59,1.15.2c.2.03.34.05.42.05.15,0,.27-.02.38-.07.1-.04.2-.11.28-.21.08-.11.13-.23.16-.38.03-.17.01-.33-.06-.47Zm-9.62-5.3c-.15-.26-.35-.46-.63-.61-.38-.21-.79-.25-1.21-.14-.43.12-.8.48-1.14,1.11-.27.49-.35.96-.24,1.39.12.43.38.76.78.98.41.22.83.26,1.25.11.42-.14.78-.48,1.07-1.01.18-.34.28-.67.3-.98.02-.31-.04-.59-.18-.85Zm-4.97-3.12c-.09-.28-.26-.52-.5-.71-.34-.28-.73-.4-1.17-.37-.43.04-.88.33-1.32.88-.36.44-.52.88-.49,1.33.03.44.23.81.58,1.1.37.29.77.41,1.21.34.44-.06.86-.33,1.24-.8.24-.3.4-.6.48-.9.08-.3.07-.59-.03-.87Zm-12.36-24.43l-.05-1.2-1.67.06.04,1.21c.01.4.1.68.25.85.16.16.37.24.64.23.2-.01.37-.06.5-.17.14-.1.23-.24.27-.4.02-.11.03-.3.02-.58Zm61.62,17.06c-.04-.2-.15-.4-.32-.61-.16-.2-.4-.39-.7-.58-.41-.26-.78-.4-1.09-.4s-.56.07-.76.21c-.14.11-.31.32-.51.63l-.52.84,3.03,1.91.54-.85c.16-.26.27-.48.31-.66.05-.18.06-.34.02-.49Zm-14.06,10.52c-.33-.27-.58-.5-.76-.69.09.29.16.6.2.91l.22,1.46,1.39-.77-1.05-.91Zm-20.61,5.27c-.07-.14-.17-.25-.32-.33-.15-.08-.37-.15-.66-.2l-1.08-.18-.27,1.59,1.15.2c.2.03.34.05.42.05.15,0,.27-.02.38-.07.1-.04.2-.11.28-.21.08-.11.13-.23.16-.38.03-.17.01-.33-.06-.47Zm.17-2.02c-.05-.13-.14-.22-.27-.29s-.36-.13-.69-.19l-.93-.16-.24,1.4,1,.17c.27.05.47.07.59.05.17-.02.3-.07.4-.17.09-.09.16-.22.18-.38.03-.16.02-.3-.04-.43Zm-9.79-3.28c-.15-.26-.35-.46-.63-.61-.38-.21-.79-.25-1.21-.14-.43.12-.8.48-1.14,1.11-.27.49-.35.96-.24,1.39.12.43.38.76.78.98.41.22.83.26,1.25.11.42-.14.78-.48,1.07-1.01.18-.34.28-.67.3-.98.02-.31-.04-.59-.18-.85Zm-4.97-3.12c-.09-.28-.26-.52-.5-.71-.34-.28-.73-.4-1.17-.37-.43.04-.88.33-1.32.88-.36.44-.52.88-.49,1.33.03.44.23.81.58,1.1.37.29.77.41,1.21.34.44-.06.86-.33,1.24-.8.24-.3.4-.6.48-.9.08-.3.07-.59-.03-.87Zm-12.36-24.43l-.05-1.2-1.67.06.04,1.21c.01.4.1.68.25.85.16.16.37.24.64.23.2-.01.37-.06.5-.17.14-.1.23-.24.27-.4.02-.11.03-.3.02-.58Zm31.67,31.75c-.15-.4-.26-.73-.33-.98-.06.3-.14.6-.26.89l-.52,1.38h1.59s-.48-1.29-.48-1.29Zm24.37-11c-.4-.15-.71-.29-.95-.4.18.24.35.5.5.78l.68,1.31,1.06-1.19-1.29-.5Zm0,0c-.4-.15-.71-.29-.95-.4.18.24.35.5.5.78l.68,1.31,1.06-1.19-1.29-.5Zm-8.48,6.83c-.33-.27-.58-.5-.76-.69.09.29.16.6.2.91l.22,1.46,1.39-.77-1.05-.91Zm-15.89,4.17c-.15-.4-.26-.73-.33-.98-.06.3-.14.6-.26.89l-.52,1.38h1.59s-.48-1.29-.48-1.29Zm-4.55-.92c-.05-.13-.14-.22-.27-.29s-.36-.13-.69-.19l-.93-.16-.24,1.4,1,.17c.27.05.47.07.59.05.17-.02.3-.07.4-.17.09-.09.16-.22.18-.38.03-.16.02-.3-.04-.43Zm-.17,2.02c-.07-.14-.17-.25-.32-.33-.15-.08-.37-.15-.66-.2l-1.08-.18-.27,1.59,1.15.2c.2.03.34.05.42.05.15,0,.27-.02.38-.07.1-.04.2-.11.28-.21.08-.11.13-.23.16-.38.03-.17.01-.33-.06-.47Zm-9.62-5.3c-.15-.26-.35-.46-.63-.61-.38-.21-.79-.25-1.21-.14-.43.12-.8.48-1.14,1.11-.27.49-.35.96-.24,1.39.12.43.38.76.78.98.41.22.83.26,1.25.11.42-.14.78-.48,1.07-1.01.18-.34.28-.67.3-.98.02-.31-.04-.59-.18-.85Zm-4.97-3.12c-.09-.28-.26-.52-.5-.71-.34-.28-.73-.4-1.17-.37-.43.04-.88.33-1.32.88-.36.44-.52.88-.49,1.33.03.44.23.81.58,1.1.37.29.77.41,1.21.34.44-.06.86-.33,1.24-.8.24-.3.4-.6.48-.9.08-.3.07-.59-.03-.87Zm-12.36-24.43l-.05-1.2-1.67.06.04,1.21c.01.4.1.68.25.85.16.16.37.24.64.23.2-.01.37-.06.5-.17.14-.1.23-.24.27-.4.02-.11.03-.3.02-.58Zm47.56,27.58c-.33-.27-.58-.5-.76-.69.09.29.16.6.2.91l.22,1.46,1.39-.77-1.05-.91Zm-20.61,5.27c-.07-.14-.17-.25-.32-.33-.15-.08-.37-.15-.66-.2l-1.08-.18-.27,1.59,1.15.2c.2.03.34.05.42.05.15,0,.27-.02.38-.07.1-.04.2-.11.28-.21.08-.11.13-.23.16-.38.03-.17.01-.33-.06-.47Zm.17-2.02c-.05-.13-.14-.22-.27-.29s-.36-.13-.69-.19l-.93-.16-.24,1.4,1,.17c.27.05.47.07.59.05.17-.02.3-.07.4-.17.09-.09.16-.22.18-.38.03-.16.02-.3-.04-.43Zm-9.79-3.28c-.15-.26-.35-.46-.63-.61-.38-.21-.79-.25-1.21-.14-.43.12-.8.48-1.14,1.11-.27.49-.35.96-.24,1.39.12.43.38.76.78.98.41.22.83.26,1.25.11.42-.14.78-.48,1.07-1.01.18-.34.28-.67.3-.98.02-.31-.04-.59-.18-.85Zm-4.97-3.12c-.09-.28-.26-.52-.5-.71-.34-.28-.73-.4-1.17-.37-.43.04-.88.33-1.32.88-.36.44-.52.88-.49,1.33.03.44.23.81.58,1.1.37.29.77.41,1.21.34.44-.06.86-.33,1.24-.8.24-.3.4-.6.48-.9.08-.3.07-.59-.03-.87Zm-12.36-24.43l-.05-1.2-1.67.06.04,1.21c.01.4.1.68.25.85.16.16.37.24.64.23.2-.01.37-.06.5-.17.14-.1.23-.24.27-.4.02-.11.03-.3.02-.58Zm31.67,31.75c-.15-.4-.26-.73-.33-.98-.06.3-.14.6-.26.89l-.52,1.38h1.59s-.48-1.29-.48-1.29Zm15.89-4.17c-.33-.27-.58-.5-.76-.69.09.29.16.6.2.91l.22,1.46,1.39-.77-1.05-.91Zm-15.89,4.17c-.15-.4-.26-.73-.33-.98-.06.3-.14.6-.26.89l-.52,1.38h1.59s-.48-1.29-.48-1.29Zm-4.55-.92c-.05-.13-.14-.22-.27-.29s-.36-.13-.69-.19l-.93-.16-.24,1.4,1,.17c.27.05.47.07.59.05.17-.02.3-.07.4-.17.09-.09.16-.22.18-.38.03-.16.02-.3-.04-.43Zm-.17,2.02c-.07-.14-.17-.25-.32-.33-.15-.08-.37-.15-.66-.2l-1.08-.18-.27,1.59,1.15.2c.2.03.34.05.42.05.15,0,.27-.02.38-.07.1-.04.2-.11.28-.21.08-.11.13-.23.16-.38.03-.17.01-.33-.06-.47Zm-9.62-5.3c-.15-.26-.35-.46-.63-.61-.38-.21-.79-.25-1.21-.14-.43.12-.8.48-1.14,1.11-.27.49-.35.96-.24,1.39.12.43.38.76.78.98.41.22.83.26,1.25.11.42-.14.78-.48,1.07-1.01.18-.34.28-.67.3-.98.02-.31-.04-.59-.18-.85Zm-4.97-3.12c-.09-.28-.26-.52-.5-.71-.34-.28-.73-.4-1.17-.37-.43.04-.88.33-1.32.88-.36.44-.52.88-.49,1.33.03.44.23.81.58,1.1.37.29.77.41,1.21.34.44-.06.86-.33,1.24-.8.24-.3.4-.6.48-.9.08-.3.07-.59-.03-.87Zm-12.36-24.43l-.05-1.2-1.67.06.04,1.21c.01.4.1.68.25.85.16.16.37.24.64.23.2-.01.37-.06.5-.17.14-.1.23-.24.27-.4.02-.11.03-.3.02-.58Zm26.95,32.85c-.07-.14-.17-.25-.32-.33-.15-.08-.37-.15-.66-.2l-1.08-.18-.27,1.59,1.15.2c.2.03.34.05.42.05.15,0,.27-.02.38-.07.1-.04.2-.11.28-.21.08-.11.13-.23.16-.38.03-.17.01-.33-.06-.47Zm.17-2.02c-.05-.13-.14-.22-.27-.29s-.36-.13-.69-.19l-.93-.16-.24,1.4,1,.17c.27.05.47.07.59.05.17-.02.3-.07.4-.17.09-.09.16-.22.18-.38.03-.16.02-.3-.04-.43Zm-9.79-3.28c-.15-.26-.35-.46-.63-.61-.38-.21-.79-.25-1.21-.14-.43.12-.8.48-1.14,1.11-.27.49-.35.96-.24,1.39.12.43.38.76.78.98.41.22.83.26,1.25.11.42-.14.78-.48,1.07-1.01.18-.34.28-.67.3-.98.02-.31-.04-.59-.18-.85Zm-4.97-3.12c-.09-.28-.26-.52-.5-.71-.34-.28-.73-.4-1.17-.37-.43.04-.88.33-1.32.88-.36.44-.52.88-.49,1.33.03.44.23.81.58,1.1.37.29.77.41,1.21.34.44-.06.86-.33,1.24-.8.24-.3.4-.6.48-.9.08-.3.07-.59-.03-.87Zm-12.36-24.43l-.05-1.2-1.67.06.04,1.21c.01.4.1.68.25.85.16.16.37.24.64.23.2-.01.37-.06.5-.17.14-.1.23-.24.27-.4.02-.11.03-.3.02-.58Zm31.67,31.75c-.15-.4-.26-.73-.33-.98-.06.3-.14.6-.26.89l-.52,1.38h1.59s-.48-1.29-.48-1.29Zm0,0c-.15-.4-.26-.73-.33-.98-.06.3-.14.6-.26.89l-.52,1.38h1.59s-.48-1.29-.48-1.29Zm-4.55-.92c-.05-.13-.14-.22-.27-.29s-.36-.13-.69-.19l-.93-.16-.24,1.4,1,.17c.27.05.47.07.59.05.17-.02.3-.07.4-.17.09-.09.16-.22.18-.38.03-.16.02-.3-.04-.43Zm-.17,2.02c-.07-.14-.17-.25-.32-.33-.15-.08-.37-.15-.66-.2l-1.08-.18-.27,1.59,1.15.2c.2.03.34.05.42.05.15,0,.27-.02.38-.07.1-.04.2-.11.28-.21.08-.11.13-.23.16-.38.03-.17.01-.33-.06-.47Zm-9.62-5.3c-.15-.26-.35-.46-.63-.61-.38-.21-.79-.25-1.21-.14-.43.12-.8.48-1.14,1.11-.27.49-.35.96-.24,1.39.12.43.38.76.78.98.41.22.83.26,1.25.11.42-.14.78-.48,1.07-1.01.18-.34.28-.67.3-.98.02-.31-.04-.59-.18-.85Zm-4.97-3.12c-.09-.28-.26-.52-.5-.71-.34-.28-.73-.4-1.17-.37-.43.04-.88.33-1.32.88-.36.44-.52.88-.49,1.33.03.44.23.81.58,1.1.37.29.77.41,1.21.34.44-.06.86-.33,1.24-.8.24-.3.4-.6.48-.9.08-.3.07-.59-.03-.87Zm-12.36-24.43l-.05-1.2-1.67.06.04,1.21c.01.4.1.68.25.85.16.16.37.24.64.23.2-.01.37-.06.5-.17.14-.1.23-.24.27-.4.02-.11.03-.3.02-.58Zm26.95,32.85c-.07-.14-.17-.25-.32-.33-.15-.08-.37-.15-.66-.2l-1.08-.18-.27,1.59,1.15.2c.2.03.34.05.42.05.15,0,.27-.02.38-.07.1-.04.2-.11.28-.21.08-.11.13-.23.16-.38.03-.17.01-.33-.06-.47Zm.17-2.02c-.05-.13-.14-.22-.27-.29s-.36-.13-.69-.19l-.93-.16-.24,1.4,1,.17c.27.05.47.07.59.05.17-.02.3-.07.4-.17.09-.09.16-.22.18-.38.03-.16.02-.3-.04-.43Zm-9.79-3.28c-.15-.26-.35-.46-.63-.61-.38-.21-.79-.25-1.21-.14-.43.12-.8.48-1.14,1.11-.27.49-.35.96-.24,1.39.12.43.38.76.78.98.41.22.83.26,1.25.11.42-.14.78-.48,1.07-1.01.18-.34.28-.67.3-.98.02-.31-.04-.59-.18-.85Zm-4.97-3.12c-.09-.28-.26-.52-.5-.71-.34-.28-.73-.4-1.17-.37-.43.04-.88.33-1.32.88-.36.44-.52.88-.49,1.33.03.44.23.81.58,1.1.37.29.77.41,1.21.34.44-.06.86-.33,1.24-.8.24-.3.4-.6.48-.9.08-.3.07-.59-.03-.87Zm-12.36-24.43l-.05-1.2-1.67.06.04,1.21c.01.4.1.68.25.85.16.16.37.24.64.23.2-.01.37-.06.5-.17.14-.1.23-.24.27-.4.02-.11.03-.3.02-.58Zm27.12,30.83c-.05-.13-.14-.22-.27-.29s-.36-.13-.69-.19l-.93-.16-.24,1.4,1,.17c.27.05.47.07.59.05.17-.02.3-.07.4-.17.09-.09.16-.22.18-.38.03-.16.02-.3-.04-.43Zm-.17,2.02c-.07-.14-.17-.25-.32-.33-.15-.08-.37-.15-.66-.2l-1.08-.18-.27,1.59,1.15.2c.2.03.34.05.42.05.15,0,.27-.02.38-.07.1-.04.2-.11.28-.21.08-.11.13-.23.16-.38.03-.17.01-.33-.06-.47Zm-9.62-5.3c-.15-.26-.35-.46-.63-.61-.38-.21-.79-.25-1.21-.14-.43.12-.8.48-1.14,1.11-.27.49-.35.96-.24,1.39.12.43.38.76.78.98.41.22.83.26,1.25.11.42-.14.78-.48,1.07-1.01.18-.34.28-.67.3-.98.02-.31-.04-.59-.18-.85Zm-4.97-3.12c-.09-.28-.26-.52-.5-.71-.34-.28-.73-.4-1.17-.37-.43.04-.88.33-1.32.88-.36.44-.52.88-.49,1.33.03.44.23.81.58,1.1.37.29.77.41,1.21.34.44-.06.86-.33,1.24-.8.24-.3.4-.6.48-.9.08-.3.07-.59-.03-.87Zm-12.36-24.43l-.05-1.2-1.67.06.04,1.21c.01.4.1.68.25.85.16.16.37.24.64.23.2-.01.37-.06.5-.17.14-.1.23-.24.27-.4.02-.11.03-.3.02-.58Zm17.33,27.55c-.15-.26-.35-.46-.63-.61-.38-.21-.79-.25-1.21-.14-.43.12-.8.48-1.14,1.11-.27.49-.35.96-.24,1.39.12.43.38.76.78.98.41.22.83.26,1.25.11.42-.14.78-.48,1.07-1.01.18-.34.28-.67.3-.98.02-.31-.04-.59-.18-.85Zm-4.97-3.12c-.09-.28-.26-.52-.5-.71-.34-.28-.73-.4-1.17-.37-.43.04-.88.33-1.32.88-.36.44-.52.88-.49,1.33.03.44.23.81.58,1.1.37.29.77.41,1.21.34.44-.06.86-.33,1.24-.8.24-.3.4-.6.48-.9.08-.3.07-.59-.03-.87Zm-12.36-24.43l-.05-1.2-1.67.06.04,1.21c.01.4.1.68.25.85.16.16.37.24.64.23.2-.01.37-.06.5-.17.14-.1.23-.24.27-.4.02-.11.03-.3.02-.58Zm17.33,27.55c-.15-.26-.35-.46-.63-.61-.38-.21-.79-.25-1.21-.14-.43.12-.8.48-1.14,1.11-.27.49-.35.96-.24,1.39.12.43.38.76.78.98.41.22.83.26,1.25.11.42-.14.78-.48,1.07-1.01.18-.34.28-.67.3-.98.02-.31-.04-.59-.18-.85Zm-4.97-3.12c-.09-.28-.26-.52-.5-.71-.34-.28-.73-.4-1.17-.37-.43.04-.88.33-1.32.88-.36.44-.52.88-.49,1.33.03.44.23.81.58,1.1.37.29.77.41,1.21.34.44-.06.86-.33,1.24-.8.24-.3.4-.6.48-.9.08-.3.07-.59-.03-.87Zm-12.36-24.43l-.05-1.2-1.67.06.04,1.21c.01.4.1.68.25.85.16.16.37.24.64.23.2-.01.37-.06.5-.17.14-.1.23-.24.27-.4.02-.11.03-.3.02-.58Zm0,0l-.05-1.2-1.67.06.04,1.21c.01.4.1.68.25.85.16.16.37.24.64.23.2-.01.37-.06.5-.17.14-.1.23-.24.27-.4.02-.11.03-.3.02-.58Zm0,0l-.05-1.2-1.67.06.04,1.21c.01.4.1.68.25.85.16.16.37.24.64.23.2-.01.37-.06.5-.17.14-.1.23-.24.27-.4.02-.11.03-.3.02-.58Zm0,0l-.05-1.2-1.67.06.04,1.21c.01.4.1.68.25.85.16.16.37.24.64.23.2-.01.37-.06.5-.17.14-.1.23-.24.27-.4.02-.11.03-.3.02-.58Zm0,0l-.05-1.2-1.67.06.04,1.21c.01.4.1.68.25.85.16.16.37.24.64.23.2-.01.37-.06.5-.17.14-.1.23-.24.27-.4.02-.11.03-.3.02-.58Zm0,0l-.05-1.2-1.67.06.04,1.21c.01.4.1.68.25.85.16.16.37.24.64.23.2-.01.37-.06.5-.17.14-.1.23-.24.27-.4.02-.11.03-.3.02-.58Zm0,0l-.05-1.2-1.67.06.04,1.21c.01.4.1.68.25.85.16.16.37.24.64.23.2-.01.37-.06.5-.17.14-.1.23-.24.27-.4.02-.11.03-.3.02-.58Zm0,0l-.05-1.2-1.67.06.04,1.21c.01.4.1.68.25.85.16.16.37.24.64.23.2-.01.37-.06.5-.17.14-.1.23-.24.27-.4.02-.11.03-.3.02-.58Zm0,0l-.05-1.2-1.67.06.04,1.21c.01.4.1.68.25.85.16.16.37.24.64.23.2-.01.37-.06.5-.17.14-.1.23-.24.27-.4.02-.11.03-.3.02-.58Z"/>
    <path class="uuid-fe1982f1-a8fb-428e-80ca-dd5ddfada99c" d="m17.51,52.23l-.05-1.2-1.67.06.04,1.21c.01.4.1.68.25.85.16.16.37.24.64.23.2-.01.37-.06.5-.17.14-.1.23-.24.27-.4.02-.11.03-.3.02-.58Zm0,0l-.05-1.2-1.67.06.04,1.21c.01.4.1.68.25.85.16.16.37.24.64.23.2-.01.37-.06.5-.17.14-.1.23-.24.27-.4.02-.11.03-.3.02-.58Zm0,0l-.05-1.2-1.67.06.04,1.21c.01.4.1.68.25.85.16.16.37.24.64.23.2-.01.37-.06.5-.17.14-.1.23-.24.27-.4.02-.11.03-.3.02-.58Zm0,0l-.05-1.2-1.67.06.04,1.21c.01.4.1.68.25.85.16.16.37.24.64.23.2-.01.37-.06.5-.17.14-.1.23-.24.27-.4.02-.11.03-.3.02-.58Zm0,0l-.05-1.2-1.67.06.04,1.21c.01.4.1.68.25.85.16.16.37.24.64.23.2-.01.37-.06.5-.17.14-.1.23-.24.27-.4.02-.11.03-.3.02-.58Zm0,0l-.05-1.2-1.67.06.04,1.21c.01.4.1.68.25.85.16.16.37.24.64.23.2-.01.37-.06.5-.17.14-.1.23-.24.27-.4.02-.11.03-.3.02-.58Zm0,0l-.05-1.2-1.67.06.04,1.21c.01.4.1.68.25.85.16.16.37.24.64.23.2-.01.37-.06.5-.17.14-.1.23-.24.27-.4.02-.11.03-.3.02-.58Zm12.36,24.43c-.09-.28-.26-.52-.5-.71-.34-.28-.73-.4-1.17-.37-.43.04-.88.33-1.32.88-.36.44-.52.88-.49,1.33.03.44.23.81.58,1.1.37.29.77.41,1.21.34.44-.06.86-.33,1.24-.8.24-.3.4-.6.48-.9.08-.3.07-.59-.03-.87Zm0,0c-.09-.28-.26-.52-.5-.71-.34-.28-.73-.4-1.17-.37-.43.04-.88.33-1.32.88-.36.44-.52.88-.49,1.33.03.44.23.81.58,1.1.37.29.77.41,1.21.34.44-.06.86-.33,1.24-.8.24-.3.4-.6.48-.9.08-.3.07-.59-.03-.87Zm-12.36-24.43l-.05-1.2-1.67.06.04,1.21c.01.4.1.68.25.85.16.16.37.24.64.23.2-.01.37-.06.5-.17.14-.1.23-.24.27-.4.02-.11.03-.3.02-.58Zm0,0l-.05-1.2-1.67.06.04,1.21c.01.4.1.68.25.85.16.16.37.24.64.23.2-.01.37-.06.5-.17.14-.1.23-.24.27-.4.02-.11.03-.3.02-.58Zm12.36,24.43c-.09-.28-.26-.52-.5-.71-.34-.28-.73-.4-1.17-.37-.43.04-.88.33-1.32.88-.36.44-.52.88-.49,1.33.03.44.23.81.58,1.1.37.29.77.41,1.21.34.44-.06.86-.33,1.24-.8.24-.3.4-.6.48-.9.08-.3.07-.59-.03-.87Zm4.97,3.12c-.15-.26-.35-.46-.63-.61-.38-.21-.79-.25-1.21-.14-.43.12-.8.48-1.14,1.11-.27.49-.35.96-.24,1.39.12.43.38.76.78.98.41.22.83.26,1.25.11.42-.14.78-.48,1.07-1.01.18-.34.28-.67.3-.98.02-.31-.04-.59-.18-.85Zm0,0c-.15-.26-.35-.46-.63-.61-.38-.21-.79-.25-1.21-.14-.43.12-.8.48-1.14,1.11-.27.49-.35.96-.24,1.39.12.43.38.76.78.98.41.22.83.26,1.25.11.42-.14.78-.48,1.07-1.01.18-.34.28-.67.3-.98.02-.31-.04-.59-.18-.85Zm-4.97-3.12c-.09-.28-.26-.52-.5-.71-.34-.28-.73-.4-1.17-.37-.43.04-.88.33-1.32.88-.36.44-.52.88-.49,1.33.03.44.23.81.58,1.1.37.29.77.41,1.21.34.44-.06.86-.33,1.24-.8.24-.3.4-.6.48-.9.08-.3.07-.59-.03-.87Zm-12.36-24.43l-.05-1.2-1.67.06.04,1.21c.01.4.1.68.25.85.16.16.37.24.64.23.2-.01.37-.06.5-.17.14-.1.23-.24.27-.4.02-.11.03-.3.02-.58Zm0,0l-.05-1.2-1.67.06.04,1.21c.01.4.1.68.25.85.16.16.37.24.64.23.2-.01.37-.06.5-.17.14-.1.23-.24.27-.4.02-.11.03-.3.02-.58Zm12.36,24.43c-.09-.28-.26-.52-.5-.71-.34-.28-.73-.4-1.17-.37-.43.04-.88.33-1.32.88-.36.44-.52.88-.49,1.33.03.44.23.81.58,1.1.37.29.77.41,1.21.34.44-.06.86-.33,1.24-.8.24-.3.4-.6.48-.9.08-.3.07-.59-.03-.87Zm4.97,3.12c-.15-.26-.35-.46-.63-.61-.38-.21-.79-.25-1.21-.14-.43.12-.8.48-1.14,1.11-.27.49-.35.96-.24,1.39.12.43.38.76.78.98.41.22.83.26,1.25.11.42-.14.78-.48,1.07-1.01.18-.34.28-.67.3-.98.02-.31-.04-.59-.18-.85Zm9.62,5.3c-.07-.14-.17-.25-.32-.33-.15-.08-.37-.15-.66-.2l-1.08-.18-.27,1.59,1.15.2c.2.03.34.05.42.05.15,0,.27-.02.38-.07.1-.04.2-.11.28-.21.08-.11.13-.23.16-.38.03-.17.01-.33-.06-.47Zm.17-2.02c-.05-.13-.14-.22-.27-.29s-.36-.13-.69-.19l-.93-.16-.24,1.4,1,.17c.27.05.47.07.59.05.17-.02.3-.07.4-.17.09-.09.16-.22.18-.38.03-.16.02-.3-.04-.43Zm4.55.92c-.15-.4-.26-.73-.33-.98-.06.3-.14.6-.26.89l-.52,1.38h1.59s-.48-1.29-.48-1.29Zm0,0c-.15-.4-.26-.73-.33-.98-.06.3-.14.6-.26.89l-.52,1.38h1.59s-.48-1.29-.48-1.29Zm-4.55-.92c-.05-.13-.14-.22-.27-.29s-.36-.13-.69-.19l-.93-.16-.24,1.4,1,.17c.27.05.47.07.59.05.17-.02.3-.07.4-.17.09-.09.16-.22.18-.38.03-.16.02-.3-.04-.43Zm-.17,2.02c-.07-.14-.17-.25-.32-.33-.15-.08-.37-.15-.66-.2l-1.08-.18-.27,1.59,1.15.2c.2.03.34.05.42.05.15,0,.27-.02.38-.07.1-.04.2-.11.28-.21.08-.11.13-.23.16-.38.03-.17.01-.33-.06-.47Zm-9.62-5.3c-.15-.26-.35-.46-.63-.61-.38-.21-.79-.25-1.21-.14-.43.12-.8.48-1.14,1.11-.27.49-.35.96-.24,1.39.12.43.38.76.78.98.41.22.83.26,1.25.11.42-.14.78-.48,1.07-1.01.18-.34.28-.67.3-.98.02-.31-.04-.59-.18-.85Zm-4.97-3.12c-.09-.28-.26-.52-.5-.71-.34-.28-.73-.4-1.17-.37-.43.04-.88.33-1.32.88-.36.44-.52.88-.49,1.33.03.44.23.81.58,1.1.37.29.77.41,1.21.34.44-.06.86-.33,1.24-.8.24-.3.4-.6.48-.9.08-.3.07-.59-.03-.87Zm-12.36-24.43l-.05-1.2-1.67.06.04,1.21c.01.4.1.68.25.85.16.16.37.24.64.23.2-.01.37-.06.5-.17.14-.1.23-.24.27-.4.02-.11.03-.3.02-.58Zm0,0l-.05-1.2-1.67.06.04,1.21c.01.4.1.68.25.85.16.16.37.24.64.23.2-.01.37-.06.5-.17.14-.1.23-.24.27-.4.02-.11.03-.3.02-.58Zm12.36,24.43c-.09-.28-.26-.52-.5-.71-.34-.28-.73-.4-1.17-.37-.43.04-.88.33-1.32.88-.36.44-.52.88-.49,1.33.03.44.23.81.58,1.1.37.29.77.41,1.21.34.44-.06.86-.33,1.24-.8.24-.3.4-.6.48-.9.08-.3.07-.59-.03-.87Zm4.97,3.12c-.15-.26-.35-.46-.63-.61-.38-.21-.79-.25-1.21-.14-.43.12-.8.48-1.14,1.11-.27.49-.35.96-.24,1.39.12.43.38.76.78.98.41.22.83.26,1.25.11.42-.14.78-.48,1.07-1.01.18-.34.28-.67.3-.98.02-.31-.04-.59-.18-.85Zm9.62,5.3c-.07-.14-.17-.25-.32-.33-.15-.08-.37-.15-.66-.2l-1.08-.18-.27,1.59,1.15.2c.2.03.34.05.42.05.15,0,.27-.02.38-.07.1-.04.2-.11.28-.21.08-.11.13-.23.16-.38.03-.17.01-.33-.06-.47Zm.17-2.02c-.05-.13-.14-.22-.27-.29s-.36-.13-.69-.19l-.93-.16-.24,1.4,1,.17c.27.05.47.07.59.05.17-.02.3-.07.4-.17.09-.09.16-.22.18-.38.03-.16.02-.3-.04-.43Zm4.55.92c-.15-.4-.26-.73-.33-.98-.06.3-.14.6-.26.89l-.52,1.38h1.59s-.48-1.29-.48-1.29Zm0,0c-.15-.4-.26-.73-.33-.98-.06.3-.14.6-.26.89l-.52,1.38h1.59s-.48-1.29-.48-1.29Zm-4.55-.92c-.05-.13-.14-.22-.27-.29s-.36-.13-.69-.19l-.93-.16-.24,1.4,1,.17c.27.05.47.07.59.05.17-.02.3-.07.4-.17.09-.09.16-.22.18-.38.03-.16.02-.3-.04-.43Zm-.17,2.02c-.07-.14-.17-.25-.32-.33-.15-.08-.37-.15-.66-.2l-1.08-.18-.27,1.59,1.15.2c.2.03.34.05.42.05.15,0,.27-.02.38-.07.1-.04.2-.11.28-.21.08-.11.13-.23.16-.38.03-.17.01-.33-.06-.47Zm-9.62-5.3c-.15-.26-.35-.46-.63-.61-.38-.21-.79-.25-1.21-.14-.43.12-.8.48-1.14,1.11-.27.49-.35.96-.24,1.39.12.43.38.76.78.98.41.22.83.26,1.25.11.42-.14.78-.48,1.07-1.01.18-.34.28-.67.3-.98.02-.31-.04-.59-.18-.85Zm-4.97-3.12c-.09-.28-.26-.52-.5-.71-.34-.28-.73-.4-1.17-.37-.43.04-.88.33-1.32.88-.36.44-.52.88-.49,1.33.03.44.23.81.58,1.1.37.29.77.41,1.21.34.44-.06.86-.33,1.24-.8.24-.3.4-.6.48-.9.08-.3.07-.59-.03-.87Zm-12.36-24.43l-.05-1.2-1.67.06.04,1.21c.01.4.1.68.25.85.16.16.37.24.64.23.2-.01.37-.06.5-.17.14-.1.23-.24.27-.4.02-.11.03-.3.02-.58Zm0,0l-.05-1.2-1.67.06.04,1.21c.01.4.1.68.25.85.16.16.37.24.64.23.2-.01.37-.06.5-.17.14-.1.23-.24.27-.4.02-.11.03-.3.02-.58Zm12.36,24.43c-.09-.28-.26-.52-.5-.71-.34-.28-.73-.4-1.17-.37-.43.04-.88.33-1.32.88-.36.44-.52.88-.49,1.33.03.44.23.81.58,1.1.37.29.77.41,1.21.34.44-.06.86-.33,1.24-.8.24-.3.4-.6.48-.9.08-.3.07-.59-.03-.87Zm4.97,3.12c-.15-.26-.35-.46-.63-.61-.38-.21-.79-.25-1.21-.14-.43.12-.8.48-1.14,1.11-.27.49-.35.96-.24,1.39.12.43.38.76.78.98.41.22.83.26,1.25.11.42-.14.78-.48,1.07-1.01.18-.34.28-.67.3-.98.02-.31-.04-.59-.18-.85Zm9.62,5.3c-.07-.14-.17-.25-.32-.33-.15-.08-.37-.15-.66-.2l-1.08-.18-.27,1.59,1.15.2c.2.03.34.05.42.05.15,0,.27-.02.38-.07.1-.04.2-.11.28-.21.08-.11.13-.23.16-.38.03-.17.01-.33-.06-.47Zm.17-2.02c-.05-.13-.14-.22-.27-.29s-.36-.13-.69-.19l-.93-.16-.24,1.4,1,.17c.27.05.47.07.59.05.17-.02.3-.07.4-.17.09-.09.16-.22.18-.38.03-.16.02-.3-.04-.43Zm4.55.92c-.15-.4-.26-.73-.33-.98-.06.3-.14.6-.26.89l-.52,1.38h1.59s-.48-1.29-.48-1.29Zm15.89-4.17c-.33-.27-.58-.5-.76-.69.09.29.16.6.2.91l.22,1.46,1.39-.77-1.05-.91Zm0,0c-.33-.27-.58-.5-.76-.69.09.29.16.6.2.91l.22,1.46,1.39-.77-1.05-.91Zm-15.89,4.17c-.15-.4-.26-.73-.33-.98-.06.3-.14.6-.26.89l-.52,1.38h1.59s-.48-1.29-.48-1.29Zm-4.55-.92c-.05-.13-.14-.22-.27-.29s-.36-.13-.69-.19l-.93-.16-.24,1.4,1,.17c.27.05.47.07.59.05.17-.02.3-.07.4-.17.09-.09.16-.22.18-.38.03-.16.02-.3-.04-.43Zm-.17,2.02c-.07-.14-.17-.25-.32-.33-.15-.08-.37-.15-.66-.2l-1.08-.18-.27,1.59,1.15.2c.2.03.34.05.42.05.15,0,.27-.02.38-.07.1-.04.2-.11.28-.21.08-.11.13-.23.16-.38.03-.17.01-.33-.06-.47Zm-9.62-5.3c-.15-.26-.35-.46-.63-.61-.38-.21-.79-.25-1.21-.14-.43.12-.8.48-1.14,1.11-.27.49-.35.96-.24,1.39.12.43.38.76.78.98.41.22.83.26,1.25.11.42-.14.78-.48,1.07-1.01.18-.34.28-.67.3-.98.02-.31-.04-.59-.18-.85Zm-4.97-3.12c-.09-.28-.26-.52-.5-.71-.34-.28-.73-.4-1.17-.37-.43.04-.88.33-1.32.88-.36.44-.52.88-.49,1.33.03.44.23.81.58,1.1.37.29.77.41,1.21.34.44-.06.86-.33,1.24-.8.24-.3.4-.6.48-.9.08-.3.07-.59-.03-.87Zm-12.36-24.43l-.05-1.2-1.67.06.04,1.21c.01.4.1.68.25.85.16.16.37.24.64.23.2-.01.37-.06.5-.17.14-.1.23-.24.27-.4.02-.11.03-.3.02-.58Zm0,0l-.05-1.2-1.67.06.04,1.21c.01.4.1.68.25.85.16.16.37.24.64.23.2-.01.37-.06.5-.17.14-.1.23-.24.27-.4.02-.11.03-.3.02-.58Zm12.36,24.43c-.09-.28-.26-.52-.5-.71-.34-.28-.73-.4-1.17-.37-.43.04-.88.33-1.32.88-.36.44-.52.88-.49,1.33.03.44.23.81.58,1.1.37.29.77.41,1.21.34.44-.06.86-.33,1.24-.8.24-.3.4-.6.48-.9.08-.3.07-.59-.03-.87Zm4.97,3.12c-.15-.26-.35-.46-.63-.61-.38-.21-.79-.25-1.21-.14-.43.12-.8.48-1.14,1.11-.27.49-.35.96-.24,1.39.12.43.38.76.78.98.41.22.83.26,1.25.11.42-.14.78-.48,1.07-1.01.18-.34.28-.67.3-.98.02-.31-.04-.59-.18-.85Zm9.62,5.3c-.07-.14-.17-.25-.32-.33-.15-.08-.37-.15-.66-.2l-1.08-.18-.27,1.59,1.15.2c.2.03.34.05.42.05.15,0,.27-.02.38-.07.1-.04.2-.11.28-.21.08-.11.13-.23.16-.38.03-.17.01-.33-.06-.47Zm.17-2.02c-.05-.13-.14-.22-.27-.29s-.36-.13-.69-.19l-.93-.16-.24,1.4,1,.17c.27.05.47.07.59.05.17-.02.3-.07.4-.17.09-.09.16-.22.18-.38.03-.16.02-.3-.04-.43Zm4.55.92c-.15-.4-.26-.73-.33-.98-.06.3-.14.6-.26.89l-.52,1.38h1.59s-.48-1.29-.48-1.29Zm15.89-4.17c-.33-.27-.58-.5-.76-.69.09.29.16.6.2.91l.22,1.46,1.39-.77-1.05-.91Zm8.48-6.83c-.4-.15-.71-.29-.95-.4.18.24.35.5.5.78l.68,1.31,1.06-1.19-1.29-.5Zm5.58-3.69c-.04-.2-.15-.4-.32-.61-.16-.2-.4-.39-.7-.58-.41-.26-.78-.4-1.09-.4s-.56.07-.76.21c-.14.11-.31.32-.51.63l-.52.84,3.03,1.91.54-.85c.16-.26.27-.48.31-.66.05-.18.06-.34.02-.49Zm-5.58,3.69c-.4-.15-.71-.29-.95-.4.18.24.35.5.5.78l.68,1.31,1.06-1.19-1.29-.5Zm-8.48,6.83c-.33-.27-.58-.5-.76-.69.09.29.16.6.2.91l.22,1.46,1.39-.77-1.05-.91Zm-15.89,4.17c-.15-.4-.26-.73-.33-.98-.06.3-.14.6-.26.89l-.52,1.38h1.59s-.48-1.29-.48-1.29Zm-4.55-.92c-.05-.13-.14-.22-.27-.29s-.36-.13-.69-.19l-.93-.16-.24,1.4,1,.17c.27.05.47.07.59.05.17-.02.3-.07.4-.17.09-.09.16-.22.18-.38.03-.16.02-.3-.04-.43Zm-.17,2.02c-.07-.14-.17-.25-.32-.33-.15-.08-.37-.15-.66-.2l-1.08-.18-.27,1.59,1.15.2c.2.03.34.05.42.05.15,0,.27-.02.38-.07.1-.04.2-.11.28-.21.08-.11.13-.23.16-.38.03-.17.01-.33-.06-.47Zm-9.62-5.3c-.15-.26-.35-.46-.63-.61-.38-.21-.79-.25-1.21-.14-.43.12-.8.48-1.14,1.11-.27.49-.35.96-.24,1.39.12.43.38.76.78.98.41.22.83.26,1.25.11.42-.14.78-.48,1.07-1.01.18-.34.28-.67.3-.98.02-.31-.04-.59-.18-.85Zm-4.97-3.12c-.09-.28-.26-.52-.5-.71-.34-.28-.73-.4-1.17-.37-.43.04-.88.33-1.32.88-.36.44-.52.88-.49,1.33.03.44.23.81.58,1.1.37.29.77.41,1.21.34.44-.06.86-.33,1.24-.8.24-.3.4-.6.48-.9.08-.3.07-.59-.03-.87Zm-12.36-24.43l-.05-1.2-1.67.06.04,1.21c.01.4.1.68.25.85.16.16.37.24.64.23.2-.01.37-.06.5-.17.14-.1.23-.24.27-.4.02-.11.03-.3.02-.58Zm61.62,17.06c-.04-.2-.15-.4-.32-.61-.16-.2-.4-.39-.7-.58-.41-.26-.78-.4-1.09-.4s-.56.07-.76.21c-.14.11-.31.32-.51.63l-.52.84,3.03,1.91.54-.85c.16-.26.27-.48.31-.66.05-.18.06-.34.02-.49Zm-61.62-17.06l-.05-1.2-1.67.06.04,1.21c.01.4.1.68.25.85.16.16.37.24.64.23.2-.01.37-.06.5-.17.14-.1.23-.24.27-.4.02-.11.03-.3.02-.58Zm12.36,24.43c-.09-.28-.26-.52-.5-.71-.34-.28-.73-.4-1.17-.37-.43.04-.88.33-1.32.88-.36.44-.52.88-.49,1.33.03.44.23.81.58,1.1.37.29.77.41,1.21.34.44-.06.86-.33,1.24-.8.24-.3.4-.6.48-.9.08-.3.07-.59-.03-.87Zm4.97,3.12c-.15-.26-.35-.46-.63-.61-.38-.21-.79-.25-1.21-.14-.43.12-.8.48-1.14,1.11-.27.49-.35.96-.24,1.39.12.43.38.76.78.98.41.22.83.26,1.25.11.42-.14.78-.48,1.07-1.01.18-.34.28-.67.3-.98.02-.31-.04-.59-.18-.85Zm9.62,5.3c-.07-.14-.17-.25-.32-.33-.15-.08-.37-.15-.66-.2l-1.08-.18-.27,1.59,1.15.2c.2.03.34.05.42.05.15,0,.27-.02.38-.07.1-.04.2-.11.28-.21.08-.11.13-.23.16-.38.03-.17.01-.33-.06-.47Zm.17-2.02c-.05-.13-.14-.22-.27-.29s-.36-.13-.69-.19l-.93-.16-.24,1.4,1,.17c.27.05.47.07.59.05.17-.02.3-.07.4-.17.09-.09.16-.22.18-.38.03-.16.02-.3-.04-.43Zm4.55.92c-.15-.4-.26-.73-.33-.98-.06.3-.14.6-.26.89l-.52,1.38h1.59s-.48-1.29-.48-1.29Zm15.89-4.17c-.33-.27-.58-.5-.76-.69.09.29.16.6.2.91l.22,1.46,1.39-.77-1.05-.91Zm8.48-6.83c-.4-.15-.71-.29-.95-.4.18.24.35.5.5.78l.68,1.31,1.06-1.19-1.29-.5Zm5.58-3.69c-.04-.2-.15-.4-.32-.61-.16-.2-.4-.39-.7-.58-.41-.26-.78-.4-1.09-.4s-.56.07-.76.21c-.14.11-.31.32-.51.63l-.52.84,3.03,1.91.54-.85c.16-.26.27-.48.31-.66.05-.18.06-.34.02-.49Zm-5.58,3.69c-.4-.15-.71-.29-.95-.4.18.24.35.5.5.78l.68,1.31,1.06-1.19-1.29-.5Zm-8.48,6.83c-.33-.27-.58-.5-.76-.69.09.29.16.6.2.91l.22,1.46,1.39-.77-1.05-.91Zm-15.89,4.17c-.15-.4-.26-.73-.33-.98-.06.3-.14.6-.26.89l-.52,1.38h1.59s-.48-1.29-.48-1.29Zm-4.55-.92c-.05-.13-.14-.22-.27-.29s-.36-.13-.69-.19l-.93-.16-.24,1.4,1,.17c.27.05.47.07.59.05.17-.02.3-.07.4-.17.09-.09.16-.22.18-.38.03-.16.02-.3-.04-.43Zm-.49,1.69c-.15-.08-.37-.15-.66-.2l-1.08-.18-.27,1.59,1.15.2c.2.03.34.05.42.05.15,0,.27-.02.38-.07.1-.04.2-.11.28-.21.08-.11.13-.23.16-.38.03-.17.01-.33-.06-.47s-.17-.25-.32-.33Zm-9.3-4.97c-.15-.26-.35-.46-.63-.61-.38-.21-.79-.25-1.21-.14-.43.12-.8.48-1.14,1.11-.27.49-.35.96-.24,1.39.12.43.38.76.78.98.41.22.83.26,1.25.11.42-.14.78-.48,1.07-1.01.18-.34.28-.67.3-.98.02-.31-.04-.59-.18-.85Zm-4.97-3.12c-.09-.28-.26-.52-.5-.71-.34-.28-.73-.4-1.17-.37-.43.04-.88.33-1.32.88-.36.44-.52.88-.49,1.33.03.44.23.81.58,1.1.37.29.77.41,1.21.34.44-.06.86-.33,1.24-.8.24-.3.4-.6.48-.9.08-.3.07-.59-.03-.87Zm-12.36-24.43l-.05-1.2-1.67.06.04,1.21c.01.4.1.68.25.85.16.16.37.24.64.23.2-.01.37-.06.5-.17.14-.1.23-.24.27-.4.02-.11.03-.3.02-.58Zm61.3,16.45c-.16-.2-.4-.39-.7-.58-.41-.26-.78-.4-1.09-.4s-.56.07-.76.21c-.14.11-.31.32-.51.63l-.52.84,3.03,1.91.54-.85c.16-.26.27-.48.31-.66.05-.18.06-.34.02-.49-.04-.2-.15-.4-.32-.61ZM49.09,12.36c-21.47,0-38.94,17.47-38.94,38.94s17.47,38.94,38.94,38.94,38.94-17.47,38.94-38.94S70.56,12.36,49.09,12.36Zm-9.04,53.12l2.96,1.86,1.81,4.46-1.04,1.2c-2.25-1.36-3.93-3.54-4.64-6.13l.91-1.39Zm4.48.67l-3.66-2.3-.71-4.83c.72-1.23,1.68-2.31,2.83-3.15l5.19,3.79v4.77c-.91.43-2.21,1.04-3.65,1.72Zm1.69,6.8h5.73l.75.87c-1.12.42-2.34.65-3.61.65s-2.49-.23-3.62-.65l.75-.87Zm3.78-8.52v-4.77l5.19-3.79c1.15.84,2.11,1.92,2.83,3.15l-.71,4.83-3.66,2.3-3.65-1.72Zm5.17,2.91l2.96-1.86.91,1.39c-.71,2.59-2.4,4.77-4.64,6.13l-1.04-1.2c.51-1.27,1.58-3.89,1.81-4.46ZM13.3,50.55l4.7-.16.06,1.77c.01.31,0,.55-.02.71-.03.23-.1.43-.2.59-.1.16-.25.29-.44.39-.19.1-.4.16-.63.17-.4.01-.75-.1-1.03-.35-.29-.24-.44-.7-.47-1.36l-.04-1.2-1.91.06-.02-.62Zm.32,4.87l.65-.08.09.65-.65.09-.09-.66Zm1.2,5.82l-.72-2.84,4.55-1.16.16.6-4.02,1.02.57,2.24-.54.14Zm.94,2.63l-.23-.62.61-.23.23.61-.61.24Zm3.48,7.31l-.33-.57.57-.33.33.57-.57.33Zm2.12-5.29c-.17-.32-.38-.54-.65-.68-.27-.13-.55-.17-.86-.12-.3.05-.59.15-.86.29-.36.19-.64.41-.84.65-.21.24-.32.51-.34.79-.01.29.05.56.18.81.16.31.39.52.68.64.29.12.63.12,1.02.01l.16.63c-.52.12-.97.1-1.37-.07-.39-.18-.7-.48-.93-.91-.24-.45-.35-.86-.31-1.24.03-.37.18-.73.45-1.06s.6-.6.99-.81c.43-.23.86-.35,1.27-.35.4-.01.77.09,1.1.31.33.22.59.51.79.87.22.42.3.82.24,1.22-.06.39-.25.75-.58,1.06l-.41-.47c.25-.26.39-.51.43-.77.04-.25-.01-.52-.16-.8Zm3.5,8.79l-1.46-1.66-1.6,1.41-.41-.47,3.53-3.09,2.09,2.38-.42.37-1.68-1.92-1.09.96,1.45,1.66-.41.36Zm5.63,3c-.09.41-.28.79-.58,1.16-.3.37-.64.64-1.03.81-.38.17-.78.22-1.17.15-.4-.07-.75-.24-1.07-.5-.34-.27-.58-.61-.72-.99-.13-.39-.16-.78-.06-1.18.09-.4.27-.76.53-1.08.49-.61,1.04-.95,1.64-1.03.6-.08,1.16.09,1.68.51.33.27.57.6.71.98.14.38.17.77.07,1.17Zm4.79,4.23c-.23.42-.52.75-.86.99-.35.24-.73.36-1.13.36-.4.01-.78-.09-1.14-.28-.39-.21-.69-.5-.89-.85-.21-.35-.3-.74-.28-1.15.02-.41.12-.79.32-1.16.37-.68.85-1.12,1.42-1.31.58-.19,1.16-.13,1.75.19.38.21.67.48.88.83.21.35.3.73.29,1.14-.02.42-.14.83-.36,1.24Zm5.49.07l-1.47-.5-1.34,3.92-.59-.2,1.34-3.92-1.46-.5.18-.52,3.52,1.2-.18.52Zm4.52,1.54c-.03.2-.12.37-.26.53-.14.16-.32.27-.56.34.27.13.46.31.58.53.11.23.15.47.1.74-.04.22-.12.41-.24.58-.12.17-.26.3-.41.38-.16.07-.34.12-.55.14-.21.01-.47,0-.76-.05l-1.77-.31.8-4.63,1.74.3c.35.06.63.16.83.29.19.13.34.3.42.52.09.21.12.43.08.64Zm5.1,3.69l-.54-1.42-1.96-.02-.53,1.42h-.66l1.84-4.69h.67s1.89,4.72,1.89,4.72h-.71Zm2.58-.19l-.68-4.65.62-.09.6,4.1,2.29-.33.08.55-2.91.42Zm4.94-.89l-1.32-4.51.6-.17,1.16,3.98,2.22-.65.16.53-2.82.82Zm9.79-4.07l-1.17-.99-1.72.95.23,1.49-.58.32-.67-4.99.58-.32,3.95,3.19-.62.35Zm4.61-3.74c-.1.42-.34.78-.72,1.09-.4.31-.79.49-1.17.52-.37.04-.75-.05-1.12-.25-.37-.21-.7-.48-.98-.83-.3-.39-.49-.78-.57-1.18-.08-.4-.05-.79.11-1.15.15-.36.39-.67.71-.93.37-.29.76-.44,1.16-.45.4-.02.78.11,1.15.37l-.39.49c-.3-.2-.58-.29-.84-.29-.26.01-.51.11-.76.31-.28.22-.46.48-.54.76-.09.29-.08.58.03.87.1.29.25.55.44.79.25.32.51.56.79.72.28.16.56.22.84.18.29-.03.54-.14.76-.32.28-.22.45-.48.51-.79.07-.3,0-.64-.17-1l.58-.26c.22.48.28.93.18,1.35Zm4.47-4.1l-1.43-.54-1.31,1.46.71,1.33-.44.5-2.29-4.48.45-.5,4.78,1.7-.47.53Zm2.86-4.22c-.07.21-.18.44-.33.68l-.91,1.43-3.97-2.5.86-1.37c.19-.31.36-.53.5-.67.2-.2.41-.33.65-.41.31-.09.64-.11.98-.04.34.07.69.22,1.04.44.3.19.55.39.74.61.19.22.32.43.41.64.08.2.12.4.13.59,0,.18-.03.38-.1.6Zm1.88-3.26l-4.34-1.8,1.3-3.14.52.21-1.07,2.57,1.33.55,1-2.4.51.21-1,2.4,1.47.62,1.11-2.67.51.22-1.34,3.23Zm2.91-9.25l-3.85-.84,3.56,2.17-.12.55-4.2.48,3.91.85-.13.58-4.59-1,.2-.91,3.49-.38c.32-.04.56-.06.72-.07-.15-.09-.38-.23-.68-.41l-2.95-1.79.17-.82,4.6,1-.13.59Zm-1.56-4.51l-2.77,1.72.03-.76,1.44-.88c.27-.16.54-.31.81-.45-.24-.15-.51-.33-.81-.54l-1.35-.95.02-.73,2.65,1.97,1.99.06-.02.62-1.99-.06Zm-9.09,21.69l1.06-1.19-1.29-.5c-.4-.15-.71-.29-.95-.4.18.24.35.5.5.78l.68,1.31Zm-9.27,5.36l.22,1.46,1.39-.77-1.05-.91c-.33-.27-.58-.5-.76-.69.09.29.16.6.2.91Zm-15.66,2.97c-.06.3-.14.6-.26.89l-.52,1.38h1.59s-.48-1.29-.48-1.29c-.15-.4-.26-.73-.33-.98Zm-4.49-.23c-.13-.07-.36-.13-.69-.19l-.93-.16-.24,1.4,1,.17c.27.05.47.07.59.05.17-.02.3-.07.4-.17.09-.09.16-.22.18-.38.03-.16.02-.3-.04-.43-.05-.13-.14-.22-.27-.29Zm-.22,1.98c-.15-.08-.37-.15-.66-.2l-1.08-.18-.27,1.59,1.15.2c.2.03.34.05.42.05.15,0,.27-.02.38-.07.1-.04.2-.11.28-.21.08-.11.13-.23.16-.38.03-.17.01-.33-.06-.47s-.17-.25-.32-.33Zm-9.93-5.58c-.38-.21-.79-.25-1.21-.14-.43.12-.8.48-1.14,1.11-.27.49-.35.96-.24,1.39.12.43.38.76.78.98.41.22.83.26,1.25.11.42-.14.78-.48,1.07-1.01.18-.34.28-.67.3-.98.02-.31-.04-.59-.18-.85-.15-.26-.35-.46-.63-.61Zm-4.84-3.22c-.34-.28-.73-.4-1.17-.37-.43.04-.88.33-1.32.88-.36.44-.52.88-.49,1.33.03.44.23.81.58,1.1.37.29.77.41,1.21.34.44-.06.86-.33,1.24-.8.24-.3.4-.6.48-.9.08-.3.07-.59-.03-.87-.09-.28-.26-.52-.5-.71Zm-13.29-22.8c.16.16.37.24.64.23.2-.01.37-.06.5-.17.14-.1.23-.24.27-.4.02-.11.03-.3.02-.58l-.05-1.2-1.67.06.04,1.21c.01.4.1.68.25.85Zm63.05,16.14c-.04-.2-.15-.4-.32-.61-.16-.2-.4-.39-.7-.58-.41-.26-.78-.4-1.09-.4s-.56.07-.76.21c-.14.11-.31.32-.51.63l-.52.84,3.03,1.91.54-.85c.16-.26.27-.48.31-.66.05-.18.06-.34.02-.49Zm-61.62-17.06l-.05-1.2-1.67.06.04,1.21c.01.4.1.68.25.85.16.16.37.24.64.23.2-.01.37-.06.5-.17.14-.1.23-.24.27-.4.02-.11.03-.3.02-.58Zm12.36,24.43c-.09-.28-.26-.52-.5-.71-.34-.28-.73-.4-1.17-.37-.43.04-.88.33-1.32.88-.36.44-.52.88-.49,1.33.03.44.23.81.58,1.1.37.29.77.41,1.21.34.44-.06.86-.33,1.24-.8.24-.3.4-.6.48-.9.08-.3.07-.59-.03-.87Zm4.97,3.12c-.15-.26-.35-.46-.63-.61-.38-.21-.79-.25-1.21-.14-.43.12-.8.48-1.14,1.11-.27.49-.35.96-.24,1.39.12.43.38.76.78.98.41.22.83.26,1.25.11.42-.14.78-.48,1.07-1.01.18-.34.28-.67.3-.98.02-.31-.04-.59-.18-.85Zm9.62,5.3c-.07-.14-.17-.25-.32-.33-.15-.08-.37-.15-.66-.2l-1.08-.18-.27,1.59,1.15.2c.2.03.34.05.42.05.15,0,.27-.02.38-.07.1-.04.2-.11.28-.21.08-.11.13-.23.16-.38.03-.17.01-.33-.06-.47Zm.17-2.02c-.05-.13-.14-.22-.27-.29s-.36-.13-.69-.19l-.93-.16-.24,1.4,1,.17c.27.05.47.07.59.05.17-.02.3-.07.4-.17.09-.09.16-.22.18-.38.03-.16.02-.3-.04-.43Zm4.55.92c-.15-.4-.26-.73-.33-.98-.06.3-.14.6-.26.89l-.52,1.38h1.59s-.48-1.29-.48-1.29Zm15.89-4.17c-.33-.27-.58-.5-.76-.69.09.29.16.6.2.91l.22,1.46,1.39-.77-1.05-.91Zm8.48-6.83c-.4-.15-.71-.29-.95-.4.18.24.35.5.5.78l.68,1.31,1.06-1.19-1.29-.5Zm5.58-3.69c-.04-.2-.15-.4-.32-.61-.16-.2-.4-.39-.7-.58-.41-.26-.78-.4-1.09-.4s-.56.07-.76.21c-.14.11-.31.32-.51.63l-.52.84,3.03,1.91.54-.85c.16-.26.27-.48.31-.66.05-.18.06-.34.02-.49Zm-5.58,3.69c-.4-.15-.71-.29-.95-.4.18.24.35.5.5.78l.68,1.31,1.06-1.19-1.29-.5Zm-8.48,6.83c-.33-.27-.58-.5-.76-.69.09.29.16.6.2.91l.22,1.46,1.39-.77-1.05-.91Zm-15.89,4.17c-.15-.4-.26-.73-.33-.98-.06.3-.14.6-.26.89l-.52,1.38h1.59s-.48-1.29-.48-1.29Zm-4.55-.92c-.05-.13-.14-.22-.27-.29s-.36-.13-.69-.19l-.93-.16-.24,1.4,1,.17c.27.05.47.07.59.05.17-.02.3-.07.4-.17.09-.09.16-.22.18-.38.03-.16.02-.3-.04-.43Zm-.17,2.02c-.07-.14-.17-.25-.32-.33-.15-.08-.37-.15-.66-.2l-1.08-.18-.27,1.59,1.15.2c.2.03.34.05.42.05.15,0,.27-.02.38-.07.1-.04.2-.11.28-.21.08-.11.13-.23.16-.38.03-.17.01-.33-.06-.47Zm-9.62-5.3c-.15-.26-.35-.46-.63-.61-.38-.21-.79-.25-1.21-.14-.43.12-.8.48-1.14,1.11-.27.49-.35.96-.24,1.39.12.43.38.76.78.98.41.22.83.26,1.25.11.42-.14.78-.48,1.07-1.01.18-.34.28-.67.3-.98.02-.31-.04-.59-.18-.85Zm-4.97-3.12c-.09-.28-.26-.52-.5-.71-.34-.28-.73-.4-1.17-.37-.43.04-.88.33-1.32.88-.36.44-.52.88-.49,1.33.03.44.23.81.58,1.1.37.29.77.41,1.21.34.44-.06.86-.33,1.24-.8.24-.3.4-.6.48-.9.08-.3.07-.59-.03-.87Zm-12.36-24.43l-.05-1.2-1.67.06.04,1.21c.01.4.1.68.25.85.16.16.37.24.64.23.2-.01.37-.06.5-.17.14-.1.23-.24.27-.4.02-.11.03-.3.02-.58Zm61.62,17.06c-.04-.2-.15-.4-.32-.61-.16-.2-.4-.39-.7-.58-.41-.26-.78-.4-1.09-.4s-.56.07-.76.21c-.14.11-.31.32-.51.63l-.52.84,3.03,1.91.54-.85c.16-.26.27-.48.31-.66.05-.18.06-.34.02-.49Zm-61.62-17.06l-.05-1.2-1.67.06.04,1.21c.01.4.1.68.25.85.16.16.37.24.64.23.2-.01.37-.06.5-.17.14-.1.23-.24.27-.4.02-.11.03-.3.02-.58Zm12.36,24.43c-.09-.28-.26-.52-.5-.71-.34-.28-.73-.4-1.17-.37-.43.04-.88.33-1.32.88-.36.44-.52.88-.49,1.33.03.44.23.81.58,1.1.37.29.77.41,1.21.34.44-.06.86-.33,1.24-.8.24-.3.4-.6.48-.9.08-.3.07-.59-.03-.87Zm4.97,3.12c-.15-.26-.35-.46-.63-.61-.38-.21-.79-.25-1.21-.14-.43.12-.8.48-1.14,1.11-.27.49-.35.96-.24,1.39.12.43.38.76.78.98.41.22.83.26,1.25.11.42-.14.78-.48,1.07-1.01.18-.34.28-.67.3-.98.02-.31-.04-.59-.18-.85Zm9.62,5.3c-.07-.14-.17-.25-.32-.33-.15-.08-.37-.15-.66-.2l-1.08-.18-.27,1.59,1.15.2c.2.03.34.05.42.05.15,0,.27-.02.38-.07.1-.04.2-.11.28-.21.08-.11.13-.23.16-.38.03-.17.01-.33-.06-.47Zm.17-2.02c-.05-.13-.14-.22-.27-.29s-.36-.13-.69-.19l-.93-.16-.24,1.4,1,.17c.27.05.47.07.59.05.17-.02.3-.07.4-.17.09-.09.16-.22.18-.38.03-.16.02-.3-.04-.43Zm4.55.92c-.15-.4-.26-.73-.33-.98-.06.3-.14.6-.26.89l-.52,1.38h1.59s-.48-1.29-.48-1.29Zm15.89-4.17c-.33-.27-.58-.5-.76-.69.09.29.16.6.2.91l.22,1.46,1.39-.77-1.05-.91Zm8.48-6.83c-.4-.15-.71-.29-.95-.4.18.24.35.5.5.78l.68,1.31,1.06-1.19-1.29-.5Zm0,0c-.4-.15-.71-.29-.95-.4.18.24.35.5.5.78l.68,1.31,1.06-1.19-1.29-.5Zm-8.48,6.83c-.33-.27-.58-.5-.76-.69.09.29.16.6.2.91l.22,1.46,1.39-.77-1.05-.91Zm-15.89,4.17c-.15-.4-.26-.73-.33-.98-.06.3-.14.6-.26.89l-.52,1.38h1.59s-.48-1.29-.48-1.29Zm-4.55-.92c-.05-.13-.14-.22-.27-.29s-.36-.13-.69-.19l-.93-.16-.24,1.4,1,.17c.27.05.47.07.59.05.17-.02.3-.07.4-.17.09-.09.16-.22.18-.38.03-.16.02-.3-.04-.43Zm-.17,2.02c-.07-.14-.17-.25-.32-.33-.15-.08-.37-.15-.66-.2l-1.08-.18-.27,1.59,1.15.2c.2.03.34.05.42.05.15,0,.27-.02.38-.07.1-.04.2-.11.28-.21.08-.11.13-.23.16-.38.03-.17.01-.33-.06-.47Zm-9.62-5.3c-.15-.26-.35-.46-.63-.61-.38-.21-.79-.25-1.21-.14-.43.12-.8.48-1.14,1.11-.27.49-.35.96-.24,1.39.12.43.38.76.78.98.41.22.83.26,1.25.11.42-.14.78-.48,1.07-1.01.18-.34.28-.67.3-.98.02-.31-.04-.59-.18-.85Zm-4.97-3.12c-.09-.28-.26-.52-.5-.71-.34-.28-.73-.4-1.17-.37-.43.04-.88.33-1.32.88-.36.44-.52.88-.49,1.33.03.44.23.81.58,1.1.37.29.77.41,1.21.34.44-.06.86-.33,1.24-.8.24-.3.4-.6.48-.9.08-.3.07-.59-.03-.87Zm-12.36-24.43l-.05-1.2-1.67.06.04,1.21c.01.4.1.68.25.85.16.16.37.24.64.23.2-.01.37-.06.5-.17.14-.1.23-.24.27-.4.02-.11.03-.3.02-.58Zm0,0l-.05-1.2-1.67.06.04,1.21c.01.4.1.68.25.85.16.16.37.24.64.23.2-.01.37-.06.5-.17.14-.1.23-.24.27-.4.02-.11.03-.3.02-.58Zm12.36,24.43c-.09-.28-.26-.52-.5-.71-.34-.28-.73-.4-1.17-.37-.43.04-.88.33-1.32.88-.36.44-.52.88-.49,1.33.03.44.23.81.58,1.1.37.29.77.41,1.21.34.44-.06.86-.33,1.24-.8.24-.3.4-.6.48-.9.08-.3.07-.59-.03-.87Zm4.97,3.12c-.15-.26-.35-.46-.63-.61-.38-.21-.79-.25-1.21-.14-.43.12-.8.48-1.14,1.11-.27.49-.35.96-.24,1.39.12.43.38.76.78.98.41.22.83.26,1.25.11.42-.14.78-.48,1.07-1.01.18-.34.28-.67.3-.98.02-.31-.04-.59-.18-.85Zm9.62,5.3c-.07-.14-.17-.25-.32-.33-.15-.08-.37-.15-.66-.2l-1.08-.18-.27,1.59,1.15.2c.2.03.34.05.42.05.15,0,.27-.02.38-.07.1-.04.2-.11.28-.21.08-.11.13-.23.16-.38.03-.17.01-.33-.06-.47Zm.17-2.02c-.05-.13-.14-.22-.27-.29s-.36-.13-.69-.19l-.93-.16-.24,1.4,1,.17c.27.05.47.07.59.05.17-.02.3-.07.4-.17.09-.09.16-.22.18-.38.03-.16.02-.3-.04-.43Zm4.55.92c-.15-.4-.26-.73-.33-.98-.06.3-.14.6-.26.89l-.52,1.38h1.59s-.48-1.29-.48-1.29Zm15.89-4.17c-.33-.27-.58-.5-.76-.69.09.29.16.6.2.91l.22,1.46,1.39-.77-1.05-.91Zm0,0c-.33-.27-.58-.5-.76-.69.09.29.16.6.2.91l.22,1.46,1.39-.77-1.05-.91Zm-15.89,4.17c-.15-.4-.26-.73-.33-.98-.06.3-.14.6-.26.89l-.52,1.38h1.59s-.48-1.29-.48-1.29Zm-4.55-.92c-.05-.13-.14-.22-.27-.29s-.36-.13-.69-.19l-.93-.16-.24,1.4,1,.17c.27.05.47.07.59.05.17-.02.3-.07.4-.17.09-.09.16-.22.18-.38.03-.16.02-.3-.04-.43Zm-.17,2.02c-.07-.14-.17-.25-.32-.33-.15-.08-.37-.15-.66-.2l-1.08-.18-.27,1.59,1.15.2c.2.03.34.05.42.05.15,0,.27-.02.38-.07.1-.04.2-.11.28-.21.08-.11.13-.23.16-.38.03-.17.01-.33-.06-.47Zm-9.62-5.3c-.15-.26-.35-.46-.63-.61-.38-.21-.79-.25-1.21-.14-.43.12-.8.48-1.14,1.11-.27.49-.35.96-.24,1.39.12.43.38.76.78.98.41.22.83.26,1.25.11.42-.14.78-.48,1.07-1.01.18-.34.28-.67.3-.98.02-.31-.04-.59-.18-.85Zm-4.97-3.12c-.09-.28-.26-.52-.5-.71-.34-.28-.73-.4-1.17-.37-.43.04-.88.33-1.32.88-.36.44-.52.88-.49,1.33.03.44.23.81.58,1.1.37.29.77.41,1.21.34.44-.06.86-.33,1.24-.8.24-.3.4-.6.48-.9.08-.3.07-.59-.03-.87Zm-12.36-24.43l-.05-1.2-1.67.06.04,1.21c.01.4.1.68.25.85.16.16.37.24.64.23.2-.01.37-.06.5-.17.14-.1.23-.24.27-.4.02-.11.03-.3.02-.58Zm0,0l-.05-1.2-1.67.06.04,1.21c.01.4.1.68.25.85.16.16.37.24.64.23.2-.01.37-.06.5-.17.14-.1.23-.24.27-.4.02-.11.03-.3.02-.58Zm12.36,24.43c-.09-.28-.26-.52-.5-.71-.34-.28-.73-.4-1.17-.37-.43.04-.88.33-1.32.88-.36.44-.52.88-.49,1.33.03.44.23.81.58,1.1.37.29.77.41,1.21.34.44-.06.86-.33,1.24-.8.24-.3.4-.6.48-.9.08-.3.07-.59-.03-.87Zm4.97,3.12c-.15-.26-.35-.46-.63-.61-.38-.21-.79-.25-1.21-.14-.43.12-.8.48-1.14,1.11-.27.49-.35.96-.24,1.39.12.43.38.76.78.98.41.22.83.26,1.25.11.42-.14.78-.48,1.07-1.01.18-.34.28-.67.3-.98.02-.31-.04-.59-.18-.85Zm9.62,5.3c-.07-.14-.17-.25-.32-.33-.15-.08-.37-.15-.66-.2l-1.08-.18-.27,1.59,1.15.2c.2.03.34.05.42.05.15,0,.27-.02.38-.07.1-.04.2-.11.28-.21.08-.11.13-.23.16-.38.03-.17.01-.33-.06-.47Zm.17-2.02c-.05-.13-.14-.22-.27-.29s-.36-.13-.69-.19l-.93-.16-.24,1.4,1,.17c.27.05.47.07.59.05.17-.02.3-.07.4-.17.09-.09.16-.22.18-.38.03-.16.02-.3-.04-.43Zm4.55.92c-.15-.4-.26-.73-.33-.98-.06.3-.14.6-.26.89l-.52,1.38h1.59s-.48-1.29-.48-1.29Zm0,0c-.15-.4-.26-.73-.33-.98-.06.3-.14.6-.26.89l-.52,1.38h1.59s-.48-1.29-.48-1.29Zm-4.55-.92c-.05-.13-.14-.22-.27-.29s-.36-.13-.69-.19l-.93-.16-.24,1.4,1,.17c.27.05.47.07.59.05.17-.02.3-.07.4-.17.09-.09.16-.22.18-.38.03-.16.02-.3-.04-.43Zm-.17,2.02c-.07-.14-.17-.25-.32-.33-.15-.08-.37-.15-.66-.2l-1.08-.18-.27,1.59,1.15.2c.2.03.34.05.42.05.15,0,.27-.02.38-.07.1-.04.2-.11.28-.21.08-.11.13-.23.16-.38.03-.17.01-.33-.06-.47Zm-9.62-5.3c-.15-.26-.35-.46-.63-.61-.38-.21-.79-.25-1.21-.14-.43.12-.8.48-1.14,1.11-.27.49-.35.96-.24,1.39.12.43.38.76.78.98.41.22.83.26,1.25.11.42-.14.78-.48,1.07-1.01.18-.34.28-.67.3-.98.02-.31-.04-.59-.18-.85Zm-4.97-3.12c-.09-.28-.26-.52-.5-.71-.34-.28-.73-.4-1.17-.37-.43.04-.88.33-1.32.88-.36.44-.52.88-.49,1.33.03.44.23.81.58,1.1.37.29.77.41,1.21.34.44-.06.86-.33,1.24-.8.24-.3.4-.6.48-.9.08-.3.07-.59-.03-.87Zm-12.36-24.43l-.05-1.2-1.67.06.04,1.21c.01.4.1.68.25.85.16.16.37.24.64.23.2-.01.37-.06.5-.17.14-.1.23-.24.27-.4.02-.11.03-.3.02-.58Zm0,0l-.05-1.2-1.67.06.04,1.21c.01.4.1.68.25.85.16.16.37.24.64.23.2-.01.37-.06.5-.17.14-.1.23-.24.27-.4.02-.11.03-.3.02-.58Zm12.36,24.43c-.09-.28-.26-.52-.5-.71-.34-.28-.73-.4-1.17-.37-.43.04-.88.33-1.32.88-.36.44-.52.88-.49,1.33.03.44.23.81.58,1.1.37.29.77.41,1.21.34.44-.06.86-.33,1.24-.8.24-.3.4-.6.48-.9.08-.3.07-.59-.03-.87Zm4.97,3.12c-.15-.26-.35-.46-.63-.61-.38-.21-.79-.25-1.21-.14-.43.12-.8.48-1.14,1.11-.27.49-.35.96-.24,1.39.12.43.38.76.78.98.41.22.83.26,1.25.11.42-.14.78-.48,1.07-1.01.18-.34.28-.67.3-.98.02-.31-.04-.59-.18-.85Zm9.62,5.3c-.07-.14-.17-.25-.32-.33-.15-.08-.37-.15-.66-.2l-1.08-.18-.27,1.59,1.15.2c.2.03.34.05.42.05.15,0,.27-.02.38-.07.1-.04.2-.11.28-.21.08-.11.13-.23.16-.38.03-.17.01-.33-.06-.47Zm.17-2.02c-.05-.13-.14-.22-.27-.29s-.36-.13-.69-.19l-.93-.16-.24,1.4,1,.17c.27.05.47.07.59.05.17-.02.3-.07.4-.17.09-.09.16-.22.18-.38.03-.16.02-.3-.04-.43Zm0,0c-.05-.13-.14-.22-.27-.29s-.36-.13-.69-.19l-.93-.16-.24,1.4,1,.17c.27.05.47.07.59.05.17-.02.3-.07.4-.17.09-.09.16-.22.18-.38.03-.16.02-.3-.04-.43Zm-.17,2.02c-.07-.14-.17-.25-.32-.33-.15-.08-.37-.15-.66-.2l-1.08-.18-.27,1.59,1.15.2c.2.03.34.05.42.05.15,0,.27-.02.38-.07.1-.04.2-.11.28-.21.08-.11.13-.23.16-.38.03-.17.01-.33-.06-.47Zm-9.62-5.3c-.15-.26-.35-.46-.63-.61-.38-.21-.79-.25-1.21-.14-.43.12-.8.48-1.14,1.11-.27.49-.35.96-.24,1.39.12.43.38.76.78.98.41.22.83.26,1.25.11.42-.14.78-.48,1.07-1.01.18-.34.28-.67.3-.98.02-.31-.04-.59-.18-.85Zm-4.97-3.12c-.09-.28-.26-.52-.5-.71-.34-.28-.73-.4-1.17-.37-.43.04-.88.33-1.32.88-.36.44-.52.88-.49,1.33.03.44.23.81.58,1.1.37.29.77.41,1.21.34.44-.06.86-.33,1.24-.8.24-.3.4-.6.48-.9.08-.3.07-.59-.03-.87Zm-12.36-24.43l-.05-1.2-1.67.06.04,1.21c.01.4.1.68.25.85.16.16.37.24.64.23.2-.01.37-.06.5-.17.14-.1.23-.24.27-.4.02-.11.03-.3.02-.58Zm0,0l-.05-1.2-1.67.06.04,1.21c.01.4.1.68.25.85.16.16.37.24.64.23.2-.01.37-.06.5-.17.14-.1.23-.24.27-.4.02-.11.03-.3.02-.58Zm12.36,24.43c-.09-.28-.26-.52-.5-.71-.34-.28-.73-.4-1.17-.37-.43.04-.88.33-1.32.88-.36.44-.52.88-.49,1.33.03.44.23.81.58,1.1.37.29.77.41,1.21.34.44-.06.86-.33,1.24-.8.24-.3.4-.6.48-.9.08-.3.07-.59-.03-.87Zm4.97,3.12c-.15-.26-.35-.46-.63-.61-.38-.21-.79-.25-1.21-.14-.43.12-.8.48-1.14,1.11-.27.49-.35.96-.24,1.39.12.43.38.76.78.98.41.22.83.26,1.25.11.42-.14.78-.48,1.07-1.01.18-.34.28-.67.3-.98.02-.31-.04-.59-.18-.85Zm0,0c-.15-.26-.35-.46-.63-.61-.38-.21-.79-.25-1.21-.14-.43.12-.8.48-1.14,1.11-.27.49-.35.96-.24,1.39.12.43.38.76.78.98.41.22.83.26,1.25.11.42-.14.78-.48,1.07-1.01.18-.34.28-.67.3-.98.02-.31-.04-.59-.18-.85Zm-4.97-3.12c-.09-.28-.26-.52-.5-.71-.34-.28-.73-.4-1.17-.37-.43.04-.88.33-1.32.88-.36.44-.52.88-.49,1.33.03.44.23.81.58,1.1.37.29.77.41,1.21.34.44-.06.86-.33,1.24-.8.24-.3.4-.6.48-.9.08-.3.07-.59-.03-.87Zm-12.36-24.43l-.05-1.2-1.67.06.04,1.21c.01.4.1.68.25.85.16.16.37.24.64.23.2-.01.37-.06.5-.17.14-.1.23-.24.27-.4.02-.11.03-.3.02-.58Zm0,0l-.05-1.2-1.67.06.04,1.21c.01.4.1.68.25.85.16.16.37.24.64.23.2-.01.37-.06.5-.17.14-.1.23-.24.27-.4.02-.11.03-.3.02-.58Zm0,0l-.05-1.2-1.67.06.04,1.21c.01.4.1.68.25.85.16.16.37.24.64.23.2-.01.37-.06.5-.17.14-.1.23-.24.27-.4.02-.11.03-.3.02-.58Zm0,0l-.05-1.2-1.67.06.04,1.21c.01.4.1.68.25.85.16.16.37.24.64.23.2-.01.37-.06.5-.17.14-.1.23-.24.27-.4.02-.11.03-.3.02-.58Zm0,0l-.05-1.2-1.67.06.04,1.21c.01.4.1.68.25.85.16.16.37.24.64.23.2-.01.37-.06.5-.17.14-.1.23-.24.27-.4.02-.11.03-.3.02-.58Zm0,0l-.05-1.2-1.67.06.04,1.21c.01.4.1.68.25.85.16.16.37.24.64.23.2-.01.37-.06.5-.17.14-.1.23-.24.27-.4.02-.11.03-.3.02-.58Zm0,0l-.05-1.2-1.67.06.04,1.21c.01.4.1.68.25.85.16.16.37.24.64.23.2-.01.37-.06.5-.17.14-.1.23-.24.27-.4.02-.11.03-.3.02-.58Zm0,0l-.05-1.2-1.67.06.04,1.21c.01.4.1.68.25.85.16.16.37.24.64.23.2-.01.37-.06.5-.17.14-.1.23-.24.27-.4.02-.11.03-.3.02-.58Zm0,0l-.05-1.2-1.67.06.04,1.21c.01.4.1.68.25.85.16.16.37.24.64.23.2-.01.37-.06.5-.17.14-.1.23-.24.27-.4.02-.11.03-.3.02-.58Z"/>
  </g>
  <path class="uuid-3c67152e-b0bd-412c-a6c7-a46b9446aa90" d="m49.09,33.73c-7.83,0-14.91,3.25-19.96,8.48l3.21,3.41c4.22-4.44,10.17-7.21,16.76-7.21s12.54,2.78,16.76,7.21l3.21-3.41c-5.06-5.22-12.14-8.48-19.96-8.48Z"/>
  <path class="uuid-3c67152e-b0bd-412c-a6c7-a46b9446aa90" d="m49.09,43.08c-5.35,0-10.18,2.29-13.55,5.95l3.21,3.42c2.53-2.87,6.22-4.69,10.34-4.69s7.82,1.82,10.34,4.69l3.21-3.42c-3.37-3.65-8.2-5.95-13.55-5.95Z"/>
  <path class="uuid-3c67152e-b0bd-412c-a6c7-a46b9446aa90" d="m66.52,21.81c-1.38-.83-2.92-1.42-4.57-1.71-.8-.14-1.62-.22-2.45-.22-4.17,0-7.9,1.87-10.41,4.81-2.51-2.94-6.24-4.81-10.41-4.81-.84,0-1.66.08-2.45.22-1.64.3-3.18.89-4.57,1.71-3.99,2.39-6.67,6.76-6.67,11.75,0,1.83.36,3.57,1.01,5.16,5.33-5.4,12.53-8.94,20.54-9.57.84-.07,1.69-.1,2.55-.1s1.71.03,2.55.1c8.01.62,15.21,4.17,20.54,9.57.65-1.59,1.01-3.33,1.01-5.16,0-4.99-2.67-9.36-6.67-11.75Z"/>
  <path class="uuid-3c67152e-b0bd-412c-a6c7-a46b9446aa90" d="m74.83,39.35c-.2.39-.42.78-.64,1.17,1.47,3.41,2.22,7.03,2.22,10.78,0,15.07-12.26,27.33-27.33,27.33s-27.33-12.26-27.33-27.33c0-3.75.75-7.37,2.22-10.78-.22-.38-.43-.77-.64-1.17l-.1-.05c-1.76,3.78-2.65,7.81-2.65,11.99,0,15.71,12.78,28.5,28.5,28.5s28.5-12.78,28.5-28.5c0-4.18-.89-8.22-2.65-11.99l-.1.05Z"/>
  <path class="uuid-3c67152e-b0bd-412c-a6c7-a46b9446aa90" d="m49.09,52c-6.67,0-12.1,5.43-12.1,12.1s5.43,12.1,12.1,12.1,12.1-5.43,12.1-12.1-5.43-12.1-12.1-12.1Zm0,23.26c-6.16,0-11.16-5-11.16-11.16s5-11.16,11.16-11.16,11.16,5.01,11.16,11.16-5.01,11.16-11.16,11.16Z"/>
  <g>
    <path class="uuid-3c67152e-b0bd-412c-a6c7-a46b9446aa90" d="m33.29,63.11s-1.02,1.76-.67,3.56c-1.65-.79-3.61-.25-3.61-.25,0,0,.58,2.17,2.27,3.14,1.69.97,3.86.38,3.86.38h0s0,0,0,0c0,0,1.12-1.94.61-3.83-.51-1.88-2.46-3-2.46-3Z"/>
    <path class="uuid-3c67152e-b0bd-412c-a6c7-a46b9446aa90" d="m31.77,61.55c.09-1.95-1.43-3.61-1.43-3.61,0,0-1.51,1.37-1.73,3.18-1.33-1.25-3.36-1.34-3.36-1.34,0,0-.11,2.24,1.21,3.68,1.32,1.44,3.56,1.54,3.56,1.54,0,0,1.66-1.51,1.75-3.46Z"/>
    <path class="uuid-3c67152e-b0bd-412c-a6c7-a46b9446aa90" d="m27.3,58.86h0s2.01-1,2.63-2.85c.62-1.85-.39-3.86-.39-3.86,0,0-1.82.9-2.53,2.59-.94-1.57-2.87-2.21-2.87-2.21,0,0-.72,2.13.15,3.87.87,1.75,3,2.45,3,2.45h0Z"/>
    <path class="uuid-3c67152e-b0bd-412c-a6c7-a46b9446aa90" d="m28.73,49.5c.73-1.81-.16-3.87-.16-3.87,0,0-2.07.88-2.79,2.69-.73,1.81.16,3.87.16,3.87,0,0,2.07-.88,2.79-2.69Z"/>
    <path class="uuid-3c67152e-b0bd-412c-a6c7-a46b9446aa90" d="m65.56,66.67c.34-1.79-.67-3.56-.67-3.56,0,0-1.95,1.11-2.46,3-.51,1.88.61,3.83.61,3.83,0,0,2.16.59,3.86-.38,1.69-.97,2.27-3.14,2.27-3.14,0,0-1.96-.54-3.61.25Z"/>
    <path class="uuid-3c67152e-b0bd-412c-a6c7-a46b9446aa90" d="m69.56,61.12c-.22-1.81-1.73-3.18-1.73-3.18,0,0-1.52,1.65-1.43,3.61s1.75,3.46,1.75,3.46c0,0,2.24-.1,3.56-1.54,1.32-1.44,1.21-3.68,1.21-3.68,0,0-2.03.09-3.36,1.34Z"/>
    <path class="uuid-3c67152e-b0bd-412c-a6c7-a46b9446aa90" d="m74.03,52.54s-1.93.64-2.87,2.21c-.71-1.68-2.53-2.59-2.53-2.59,0,0-1.01,2.01-.39,3.86.62,1.85,2.63,2.85,2.63,2.85h0s2.13-.71,3-2.45c.87-1.75.15-3.87.15-3.87Z"/>
    <path class="uuid-3c67152e-b0bd-412c-a6c7-a46b9446aa90" d="m72.24,52.19s.89-2.06.16-3.87c-.73-1.81-2.79-2.69-2.79-2.69,0,0-.89,2.06-.16,3.87.73,1.81,2.79,2.69,2.79,2.69Z"/>
  </g>
</svg>