<?xml version="1.0" encoding="UTF-8"?>
<svg id="uuid-c7472453-b220-4562-aa7a-5229e1ce2a15" data-name="圖層 1" xmlns="http://www.w3.org/2000/svg" viewBox="0 0 100 100">
  <defs>
    <style>
      .uuid-a7a11d6a-8e90-46ef-906a-29a1593136cb {
        stroke-width: 0px;
      }
    </style>
  </defs>
  <path class="uuid-a7a11d6a-8e90-46ef-906a-29a1593136cb" d="m50,9.19c-22.51,0-40.81,18.31-40.81,40.81s18.31,40.81,40.81,40.81,40.81-18.31,40.81-40.81S72.51,9.19,50,9.19Zm0,79.14c-21.13,0-38.32-17.19-38.32-38.32S28.87,11.68,50,11.68s38.32,17.19,38.32,38.32-17.19,38.32-38.32,38.32Z"/>
  <g>
    <path class="uuid-a7a11d6a-8e90-46ef-906a-29a1593136cb" d="m35.44,77.29c-.61-.33-1.23-.4-1.84-.2-.61.2-1.11.66-1.5,1.37-.2.38-.32.79-.34,1.21-.02.43.08.84.3,1.21s.53.67.94.89c.37.2.77.3,1.19.3h.02c.43,0,.83-.13,1.19-.38.36-.25.67-.6.9-1.03.23-.43.36-.86.37-1.29.02-.44-.09-.84-.31-1.21-.22-.37-.53-.66-.93-.88Zm.37,2.03c-.02.29-.12.6-.29.92-.27.5-.61.82-1,.96-.39.13-.77.1-1.15-.11-.38-.2-.61-.5-.71-.9-.1-.4-.03-.84.22-1.3.32-.59.68-.94,1.06-1.04.14-.04.28-.06.41-.06.24,0,.48.06.71.19.25.14.44.32.58.56.13.23.19.5.17.78Z"/>
    <path class="uuid-a7a11d6a-8e90-46ef-906a-29a1593136cb" d="m30.7,74.13c-.54-.44-1.14-.62-1.77-.53-.63.08-1.21.44-1.72,1.07-.27.33-.46.71-.55,1.13-.1.42-.08.84.07,1.25.14.41.4.76.76,1.05.33.27.71.44,1.13.52.12.02.25.03.37.03.29,0,.59-.06.87-.19.4-.18.76-.46,1.08-.85.31-.38.51-.78.61-1.2.1-.43.07-.85-.08-1.25-.15-.4-.4-.75-.75-1.03Zm0,2.07c-.07.28-.23.57-.46.85-.36.44-.75.7-1.16.76-.41.06-.77-.04-1.11-.32-.33-.27-.51-.6-.54-1.01-.03-.41.13-.83.46-1.24.42-.52.84-.8,1.24-.83.05,0,.09,0,.14,0,.35,0,.66.11.94.34.22.18.38.4.46.65.09.25.09.52.02.8Z"/>
    <path class="uuid-a7a11d6a-8e90-46ef-906a-29a1593136cb" d="m16.06,51.01c.02.7.2,1.19.51,1.45.29.25.64.38,1.04.38.02,0,.05,0,.07,0,.25,0,.48-.07.69-.18.21-.11.37-.26.49-.44.11-.18.18-.39.22-.64.03-.17.03-.42.02-.74l-.06-1.77s-.02-.06-.04-.09c-.02-.02-.06-.03-.09-.03l-4.7.17c-.07,0-.12.06-.12.13l.02.62s.02.06.04.09c.02.02.05.02.09.03l1.78-.06.04,1.08Zm1.02.75c-.13-.14-.21-.4-.22-.77l-.04-1.09,1.43-.05.04,1.08c.01.33,0,.48-.02.55-.03.14-.1.25-.22.33-.12.09-.26.13-.43.14-.23.01-.41-.05-.55-.19Z"/>
    <path class="uuid-a7a11d6a-8e90-46ef-906a-29a1593136cb" d="m24.91,71.37l.91-.79,1.6,1.82c.05.05.12.06.18.01l.42-.36s.04-.05.04-.09c0-.03,0-.07-.03-.09l-2.09-2.38c-.05-.05-.12-.06-.18-.01l-3.53,3.1s-.04.05-.04.09c0,.03,0,.07.03.09l.41.47c.04.05.12.06.18.01l1.51-1.32,1.37,1.56s.05.04.09.04c0,0,0,0,0,0,.03,0,.06-.01.08-.03l.42-.37c.05-.05.06-.12.01-.18l-1.37-1.56Z"/>
    <path class="uuid-a7a11d6a-8e90-46ef-906a-29a1593136cb" d="m20.5,68.92c-.04-.06-.11-.08-.17-.05l-.57.33s-.05.04-.06.08c0,.03,0,.07.01.1l.33.57s.07.06.11.06c.02,0,.04,0,.06-.02l.57-.33c.06-.03.08-.11.05-.17l-.33-.57Z"/>
    <path class="uuid-a7a11d6a-8e90-46ef-906a-29a1593136cb" d="m17.01,61.6l-.61.23c-.06.02-.1.1-.07.16l.23.61s.04.06.07.07c.02,0,.03.01.05.01.02,0,.03,0,.04,0l.61-.23s.06-.04.07-.07c.01-.03.01-.06,0-.1l-.23-.61c-.02-.06-.1-.1-.16-.07Z"/>
    <path class="uuid-a7a11d6a-8e90-46ef-906a-29a1593136cb" d="m22.41,66.76s.07-.01.09-.04c.34-.33.55-.72.61-1.14s-.02-.86-.25-1.29c-.2-.38-.48-.69-.83-.92-.35-.23-.75-.34-1.18-.33-.43,0-.87.13-1.32.37-.41.22-.76.5-1.03.84-.28.35-.44.73-.48,1.13-.03.4.07.84.32,1.31.24.45.58.78,1,.96.24.11.51.16.8.16.2,0,.42-.03.64-.08.03,0,.06-.03.08-.06.02-.03.02-.06.01-.09l-.15-.62s-.03-.06-.06-.08c-.03-.02-.06-.02-.1-.01-.36.1-.67.1-.94,0-.26-.11-.47-.3-.62-.58-.12-.23-.18-.48-.17-.74.01-.26.11-.5.3-.72.2-.23.47-.44.81-.62.26-.14.54-.23.83-.28.28-.05.54,0,.78.11.24.12.44.33.6.62.13.25.18.49.15.72-.04.23-.17.47-.4.7-.05.05-.05.12,0,.17l.42.47s.05.04.09.04Z"/>
    <path class="uuid-a7a11d6a-8e90-46ef-906a-29a1593136cb" d="m16.39,59.77l-.54-2.12,3.9-.99c.07-.02.11-.08.09-.15l-.15-.6s-.03-.06-.06-.08c-.03-.02-.06-.02-.09-.01l-4.55,1.16s-.06.03-.08.06-.02.06-.01.09l.72,2.85s.03.06.06.08c.02.01.04.02.06.02.01,0,.02,0,.03,0l.54-.14c.07-.02.11-.08.09-.15Z"/>
    <path class="uuid-a7a11d6a-8e90-46ef-906a-29a1593136cb" d="m15.37,54.76s.03-.06.02-.09l-.09-.65c0-.07-.07-.11-.14-.11l-.65.09c-.07,0-.12.07-.11.14l.09.65s.02.06.05.08c.02.02.05.03.08.03,0,0,.01,0,.02,0l.65-.09s.06-.02.08-.05Z"/>
    <path class="uuid-a7a11d6a-8e90-46ef-906a-29a1593136cb" d="m80.2,66.79c-.2-.23-.45-.44-.76-.63-.36-.23-.73-.38-1.09-.46-.36-.07-.71-.06-1.04.05-.26.08-.49.23-.7.43-.15.15-.32.37-.52.69l-.86,1.37c-.04.06-.02.14.04.17l3.98,2.5s.04.02.07.02c0,0,.02,0,.03,0,.03,0,.06-.03.08-.06l.9-1.44c.16-.25.27-.48.35-.71.08-.23.11-.44.1-.64,0-.2-.05-.41-.14-.63-.09-.22-.23-.44-.43-.67Zm-.28,1.23c.03.12.02.27-.02.43h0c-.04.17-.14.38-.3.63l-.47.74-2.83-1.78.46-.73c.19-.3.35-.5.48-.6.17-.13.41-.19.69-.19.28,0,.63.13,1.02.38.29.18.51.37.67.56.15.19.25.37.29.56Z"/>
    <path class="uuid-a7a11d6a-8e90-46ef-906a-29a1593136cb" d="m73.42,70.57s-.1,0-.14.03l-.45.5s-.04.09-.02.14l2.29,4.48s.05.06.1.07c0,0,.01,0,.02,0,.04,0,.07-.02.09-.04l.44-.49s.04-.1.02-.14l-.67-1.26,1.2-1.33,1.35.51s.1,0,.14-.03l.47-.53s.04-.07.03-.11-.04-.07-.08-.09l-4.78-1.71Zm2.12,1.66l-.82.92-.6-1.15c-.08-.15-.16-.29-.25-.43.16.07.34.14.54.22l1.13.44Z"/>
    <path class="uuid-a7a11d6a-8e90-46ef-906a-29a1593136cb" d="m83.31,61.87c-.06-.03-.14,0-.16.07l-1.06,2.55-1.25-.52.95-2.28c.03-.06,0-.14-.07-.16l-.51-.21s-.07-.01-.1,0c-.03.01-.06.04-.07.07l-.95,2.28-1.1-.46,1.02-2.45s.01-.06,0-.1c-.01-.03-.04-.05-.07-.07l-.51-.21c-.06-.03-.14,0-.16.07l-1.31,3.14c-.03.06,0,.14.07.16l4.34,1.81s.03,0,.05,0,.03,0,.05,0c.03-.01.05-.04.07-.07l1.35-3.24s.01-.06,0-.1c-.01-.03-.04-.05-.07-.07l-.51-.21Z"/>
    <path class="uuid-a7a11d6a-8e90-46ef-906a-29a1593136cb" d="m73.09,75.55s-.07-.01-.1,0l-.58.26s-.05.04-.07.07c-.01.03,0,.07,0,.1.17.33.22.65.16.92-.06.28-.21.52-.46.71-.21.16-.44.26-.7.3-.26.03-.51-.02-.76-.17-.26-.15-.51-.38-.75-.68-.18-.23-.33-.49-.43-.76-.1-.27-.11-.52-.03-.79.07-.26.25-.5.51-.7.22-.18.45-.27.68-.28.23,0,.49.08.76.27.05.04.13.02.17-.03l.39-.49s.03-.06.03-.1c0-.03-.02-.06-.05-.08-.39-.28-.8-.42-1.23-.4-.43.01-.84.18-1.23.48-.34.27-.59.6-.75.98-.16.38-.2.79-.12,1.22.08.42.28.83.6,1.23.29.36.63.66,1.02.87.33.18.68.27,1.02.27.06,0,.12,0,.18,0,.4-.04.81-.22,1.23-.55.4-.32.66-.71.77-1.16.1-.45.04-.93-.18-1.43-.01-.03-.04-.05-.07-.07Z"/>
    <path class="uuid-a7a11d6a-8e90-46ef-906a-29a1593136cb" d="m85.79,51l-1.95-.06-2.61-1.94s-.09-.03-.13-.01c-.04.02-.07.06-.07.11l-.02.72s.02.08.05.11l1.35.96c.23.16.44.3.63.43-.21.11-.42.23-.63.35l-1.45.88s-.06.06-.06.1l-.03.76s.02.09.06.11c.02.01.04.02.06.02.02,0,.05,0,.07-.02l2.73-1.7,1.95.06s.06-.01.09-.03c.02-.02.04-.05.04-.09l.02-.62c0-.07-.05-.13-.12-.13Z"/>
    <path class="uuid-a7a11d6a-8e90-46ef-906a-29a1593136cb" d="m85.49,55.48l-4.59-1c-.07-.01-.13.03-.15.1l-.18.82c-.01.05.01.11.06.13l2.96,1.79c.13.08.25.15.35.21-.1.01-.21.02-.34.04l-3.49.38c-.05,0-.1.04-.11.1l-.2.91c-.01.07.03.13.1.15l4.59,1s.02,0,.03,0c.06,0,.11-.04.12-.1l.13-.59s0-.07-.02-.09c-.02-.03-.05-.05-.08-.05l-3.17-.69,3.45-.39c.05,0,.1-.05.11-.1l.12-.55c.01-.05-.01-.11-.06-.13l-2.92-1.78,3.12.68c.07.02.13-.03.15-.1l.13-.59s0-.07-.02-.09c-.02-.03-.05-.05-.08-.05Z"/>
    <path class="uuid-a7a11d6a-8e90-46ef-906a-29a1593136cb" d="m61.45,83.35l-2.1.62-1.13-3.86c-.02-.07-.09-.11-.16-.08l-.6.17s-.06.03-.07.06c-.02.03-.02.06-.01.1l1.32,4.51s.03.06.06.07c.02,0,.04.02.06.02.01,0,.02,0,.04,0l2.82-.83c.07-.02.1-.09.08-.16l-.16-.53c-.02-.07-.09-.1-.16-.08Z"/>
    <path class="uuid-a7a11d6a-8e90-46ef-906a-29a1593136cb" d="m65.36,77.12s-.1-.04-.14-.01l-.59.32s-.07.08-.06.13l.68,4.99s.03.08.07.1c.02,0,.04.01.06.01.02,0,.04,0,.06-.02l.58-.32s.07-.08.06-.13l-.22-1.41,1.57-.86,1.1.93s.1.04.14.01l.62-.34s.06-.06.06-.1-.01-.08-.05-.11l-3.95-3.2Zm.37,2.87l-.19-1.28c-.02-.17-.06-.33-.09-.49.13.12.28.25.44.39l.92.79-1.08.59Z"/>
    <path class="uuid-a7a11d6a-8e90-46ef-906a-29a1593136cb" d="m50.12,81.08h-.67s0,0,0,0c-.05,0-.1.03-.12.08l-1.83,4.69s-.01.08.01.12c.02.03.06.05.1.05h.66c.06,0,.1-.03.12-.08l.49-1.34h1.79s.51,1.36.51,1.36c.02.05.06.08.12.08h.71s0,0,0,0c.04,0,.08-.02.1-.05.02-.03.03-.08.01-.12l-1.89-4.71s-.06-.08-.12-.08Zm.28,2.77h-1.23s.46-1.21.46-1.21c.06-.16.11-.31.16-.47.06.17.12.35.2.55l.42,1.13Z"/>
    <path class="uuid-a7a11d6a-8e90-46ef-906a-29a1593136cb" d="m45.77,80.95c-.21-.14-.51-.24-.88-.31l-1.74-.3s-.07,0-.09.02c-.03.02-.05.05-.05.08l-.8,4.63c-.01.07.03.13.1.14l1.77.3c.23.04.44.06.62.06.06,0,.12,0,.17,0,.23-.02.43-.07.59-.15.17-.09.32-.22.46-.41.13-.19.22-.4.26-.63.05-.29.01-.57-.12-.82-.09-.18-.23-.33-.4-.45.15-.07.27-.17.37-.28.15-.17.25-.37.29-.59.04-.23.01-.47-.08-.71-.1-.24-.26-.43-.47-.58Zm-1.33,1.62l-.88-.15.2-1.15.8.14c.32.05.54.11.66.17.1.05.17.13.22.23.04.11.06.22.03.36-.02.13-.07.24-.15.31-.08.08-.18.12-.32.14-.08.01-.24,0-.56-.05Zm-.07.8c.28.05.49.11.63.18.12.07.21.16.27.27.06.12.07.25.05.4h0c-.02.13-.07.23-.13.32-.07.08-.14.15-.23.18-.09.04-.2.06-.33.06-.07.01-.21-.02-.4-.05l-1.03-.18.23-1.35.95.16Z"/>
    <path class="uuid-a7a11d6a-8e90-46ef-906a-29a1593136cb" d="m56.69,84.62l-2.17.32-.58-3.98s-.02-.06-.05-.08c-.03-.02-.06-.03-.09-.02l-.61.09c-.07,0-.12.07-.11.14l.68,4.65c0,.06.06.11.12.11,0,0,.01,0,.02,0l2.91-.43s.06-.02.08-.05c.02-.03.03-.06.02-.09l-.08-.55c0-.07-.07-.12-.14-.11Z"/>
    <path class="uuid-a7a11d6a-8e90-46ef-906a-29a1593136cb" d="m41.9,80.04l-3.53-1.2s-.07,0-.1,0c-.03.01-.05.04-.06.07l-.18.52c-.02.07.01.14.08.16l1.35.46-1.3,3.8c-.02.07.01.14.08.16l.59.2s.03,0,.04,0c.02,0,.04,0,.06-.01.03-.01.05-.04.06-.07l1.3-3.8,1.35.46c.07.02.14-.01.16-.08l.18-.52s0-.07,0-.1-.04-.05-.07-.06Z"/>
  </g>
  <path class="uuid-a7a11d6a-8e90-46ef-906a-29a1593136cb" d="m50,32.43c-7.83,0-14.91,3.25-19.96,8.48l3.21,3.41c4.22-4.44,10.17-7.21,16.76-7.21s12.54,2.78,16.76,7.21l3.21-3.41c-5.06-5.22-12.14-8.48-19.96-8.48Z"/>
  <path class="uuid-a7a11d6a-8e90-46ef-906a-29a1593136cb" d="m50,41.78c-5.35,0-10.18,2.29-13.55,5.95l3.21,3.42c2.53-2.87,6.22-4.69,10.34-4.69s7.82,1.82,10.34,4.69l3.21-3.42c-3.37-3.65-8.2-5.95-13.55-5.95Z"/>
  <path class="uuid-a7a11d6a-8e90-46ef-906a-29a1593136cb" d="m67.43,20.51c-1.38-.83-2.92-1.42-4.57-1.71-.8-.14-1.62-.22-2.45-.22-4.17,0-7.9,1.87-10.41,4.81-2.51-2.94-6.24-4.81-10.41-4.81-.84,0-1.66.08-2.45.22-1.64.3-3.18.89-4.57,1.71-3.99,2.39-6.67,6.76-6.67,11.75,0,1.83.36,3.57,1.01,5.16,5.33-5.4,12.53-8.94,20.54-9.57.84-.07,1.69-.1,2.55-.1s1.71.03,2.55.1c8.01.62,15.21,4.17,20.54,9.57.65-1.59,1.01-3.33,1.01-5.16,0-4.99-2.67-9.36-6.67-11.75Z"/>
  <path class="uuid-a7a11d6a-8e90-46ef-906a-29a1593136cb" d="m75.96,37.95l-.05-.11-.25.12-.02.04c-.21.4-.42.79-.64,1.16l-.03.05.02.06c1.47,3.39,2.21,7,2.21,10.73,0,15-12.2,27.2-27.2,27.2s-27.2-12.2-27.2-27.2c0-3.73.74-7.33,2.21-10.73l.02-.06-.03-.05c-.22-.37-.43-.77-.64-1.16l-.02-.04-.25-.12-.05.11c-1.77,3.79-2.66,7.84-2.66,12.05,0,15.78,12.84,28.62,28.62,28.62s28.62-12.84,28.62-28.62c0-4.2-.9-8.26-2.66-12.05Z"/>
  <path class="uuid-a7a11d6a-8e90-46ef-906a-29a1593136cb" d="m50,50.7c-6.67,0-12.1,5.43-12.1,12.1s5.43,12.1,12.1,12.1,12.1-5.43,12.1-12.1-5.43-12.1-12.1-12.1Zm.91,7.66l5.19-3.8c1.15.85,2.11,1.93,2.83,3.16l-.71,4.83-3.66,2.3-3.65-1.72v-4.77Zm-7.01-3.8l5.19,3.8v4.77c-.9.43-2.21,1.04-3.65,1.72l-3.65-2.3-.71-4.83c.71-1.23,1.67-2.31,2.82-3.16Zm.79,17.14c-2.24-1.36-3.93-3.55-4.63-6.14l.9-1.38,2.96,1.86,1.81,4.46-1.04,1.2Zm5.31,1.47c-1.27,0-2.49-.23-3.61-.65l.75-.87h5.73l.75.87c-1.13.42-2.35.65-3.62.65Zm5.31-1.47l-1.04-1.2c.52-1.27,1.58-3.89,1.81-4.46l2.96-1.86.91,1.38c-.7,2.59-2.39,4.78-4.64,6.14Z"/>
  <path class="uuid-a7a11d6a-8e90-46ef-906a-29a1593136cb" d="m34.21,61.81s-1.02,1.76-.67,3.56c-1.65-.79-3.61-.25-3.61-.25,0,0,.58,2.17,2.27,3.14,1.69.97,3.86.38,3.86.38,0,0,1.12-1.94.61-3.83-.51-1.88-2.46-3-2.46-3Z"/>
  <path class="uuid-a7a11d6a-8e90-46ef-906a-29a1593136cb" d="m32.68,60.25c.09-1.95-1.43-3.61-1.43-3.61,0,0-1.51,1.37-1.73,3.18-1.33-1.25-3.36-1.34-3.36-1.34,0,0-.11,2.24,1.21,3.68,1.32,1.44,3.56,1.54,3.56,1.54,0,0,1.66-1.51,1.75-3.46Z"/>
  <path class="uuid-a7a11d6a-8e90-46ef-906a-29a1593136cb" d="m30.84,54.71c.62-1.85-.39-3.86-.39-3.86,0,0-1.82.9-2.53,2.59-.94-1.57-2.87-2.21-2.87-2.21,0,0-.72,2.13.15,3.87.87,1.75,3,2.45,3,2.45,0,0,2.01-1,2.63-2.85Z"/>
  <path class="uuid-a7a11d6a-8e90-46ef-906a-29a1593136cb" d="m29.64,48.2c.73-1.81-.16-3.87-.16-3.87,0,0-2.07.88-2.79,2.69-.73,1.81.16,3.87.16,3.87,0,0,2.07-.88,2.79-2.69Z"/>
  <path class="uuid-a7a11d6a-8e90-46ef-906a-29a1593136cb" d="m66.47,65.37c.34-1.79-.67-3.56-.67-3.56,0,0-1.95,1.11-2.46,3-.51,1.88.61,3.83.61,3.83,0,0,2.16.59,3.86-.38,1.69-.97,2.27-3.14,2.27-3.14,0,0-1.96-.54-3.61.25Z"/>
  <path class="uuid-a7a11d6a-8e90-46ef-906a-29a1593136cb" d="m70.47,59.82c-.22-1.81-1.73-3.18-1.73-3.18,0,0-1.52,1.65-1.43,3.61.09,1.95,1.75,3.46,1.75,3.46,0,0,2.24-.1,3.56-1.54,1.32-1.44,1.21-3.68,1.21-3.68,0,0-2.03.09-3.36,1.34Z"/>
  <path class="uuid-a7a11d6a-8e90-46ef-906a-29a1593136cb" d="m74.94,51.24s-1.93.64-2.87,2.21c-.71-1.68-2.53-2.59-2.53-2.59,0,0-1.01,2.01-.39,3.86.62,1.85,2.63,2.85,2.63,2.85,0,0,2.13-.71,3-2.45.87-1.75.15-3.87.15-3.87Z"/>
  <path class="uuid-a7a11d6a-8e90-46ef-906a-29a1593136cb" d="m73.15,50.89s.89-2.06.16-3.87c-.73-1.81-2.79-2.69-2.79-2.69,0,0-.89,2.06-.16,3.87.73,1.81,2.79,2.69,2.79,2.69Z"/>
</svg>