<?xml version="1.0" encoding="UTF-8"?>
<svg id="uuid-399c5608-6182-4c9b-9e5a-7c43e477a5a6" data-name="圖層 1" xmlns="http://www.w3.org/2000/svg" viewBox="0 0 100 100">
  <defs>
    <style>
      .uuid-27a8652a-71ba-42a3-a322-d6cb157f55b5 {
        fill: #808030;
        stroke-width: 0px;
      }
    </style>
  </defs>
  <path class="uuid-27a8652a-71ba-42a3-a322-d6cb157f55b5" d="m83.14,77.27l-.62.18v.89h-.73v.46h.73v2.18c0,.69.36,1.04,1.07,1.04.25,0,.45-.03.61-.11v-.47c-.11.08-.26.12-.43.12-.22,0-.39-.05-.49-.15-.1-.1-.14-.28-.14-.52v-2.08h1.06v-.46h-1.06v-1.07Zm-7.93-19.69c1.75.18,3.55-.71,3.09-3.25,3.37-.76,6.66-1.67,9.78-.18,1.21-.48,1.34-2.48,0-2.91-4.72.26-6.09.27-10.63.86-.32-5.41-.69-12.25-.51-18.34-2.87-3.03-6.82,2.33-9.09,3.6.61-5.67,6.36-7.54,11.15-9.61,1.72-4.15-2.33-5.94-4.99-3.6-.75-1.83-1.02-4.13-2.56-5.14h-1.37c-2.01.8-.66,3.02-.85,4.63-.21,1.43-1.66,3.17-2.6,3.77-1.83,1.19-4.54-.4-6.16,1.73.67,1.77,3.87,1.03,4.97,2.4.18,2.8-1.08,5.39-1.37,8.23-.09.8.4,1.62.34,2.41-.05.63-.46,1.28-.51,1.88-.26,2.88.46,6.3-.35,8.4-.73.35-1.71.48-2.23,1.02.44.15.8-.66,1.03-.16-1.21,1.42-3.83,1.43-5.83,2.05,5.81-.46,9.33-3.02,14.24-3.95.21.65.98,1.65.85,2.05-1.37,1.17-3.44.91-5.49,1.37-3.71.86-7.26,2.74-10.81,1.56-.52-.29-.57-1.03-1.36-1.03-.82-.04-1.58,1.1-1.89.51-.57.27-.06.95-.35,1.21-.02-.34-.11-.58-.35-.69-.16,2.49,6.01,3.8,8.43,3.09,3.99-1.19,9.11-3.01,12.67-4.12.8.79,1.14,2.07,2.76,2.23Zm-.85-11.14c.51-.26.51,1.12,0,.85v-.85Zm-7.03,2.74c-.5-1.32.21-4.55,1.01-6.52,2.11,1.77,1.26,5.54-1.01,6.52Zm3.25-11.83c.54-1.28,1.87-1.78,2.74-2.74.78,2.14.07,5.76.68,8.06-1.81-1.1-1.33-4.49-3.42-5.32Zm3.42,9.61c.33,1.63.18,3.38.36,4.79-.81-.11-.93-.91-1.38-1.37.54-.93.48-2.49,1.02-3.42Zm.87,31.3c-.56,0-1,.19-1.38.54-.37.36-.54.81-.54,1.36,0,.6.17,1.06.51,1.39.33.33.79.49,1.38.49s1.08-.12,1.44-.35v-.52c-.4.27-.83.41-1.3.41-.42,0-.74-.11-.99-.33-.24-.22-.38-.54-.39-.96h2.96v-.29c0-.54-.15-.97-.45-1.28-.3-.31-.71-.46-1.24-.46Zm-1.26,1.55c.07-.34.21-.6.44-.79.22-.19.49-.27.8-.27.33,0,.6.08.78.27.19.19.29.45.29.79h-2.31Zm6-1.55c-.6,0-1.06.23-1.37.69h-.01v-.6h-.64v3.61h.64v-2.06c0-.33.1-.61.33-.83.22-.22.51-.33.85-.33.67,0,.99.38.99,1.17v2.06h.63v-2.21c0-.48-.12-.85-.36-1.11-.24-.26-.59-.39-1.05-.39Zm-53.36,0c-.61,0-1.06.23-1.37.69h-.01v-.6h-.63v3.61h.63v-2.06c0-.33.11-.61.33-.83.21-.22.51-.33.85-.33.66,0,.99.38.99,1.17v2.06h.63v-2.21c0-.48-.12-.85-.36-1.11-.24-.26-.59-.39-1.06-.39Zm1.09-7.37c0,.93-.3,1.39-.91,1.39-.23,0-.41-.04-.56-.14v.56c.14.05.31.08.54.08.48,0,.87-.15,1.15-.46.29-.31.43-.78.43-1.43v-3.26h-.65v3.26Zm-10.52,6.01h-.64v5.06h3v-.51h-2.36v-4.55Zm62.5-19.99c-.2,3.23,3.19,2.88,3.44,5.65,1.82.46,2.51,2.82,4.64,2.06.74-.26,1.5-1.59,1.53-2.39.13-3.25-6.06-8.15-9.61-5.32Zm-60.12,11.13c-.35-.27-.83-.4-1.44-.4h-1.58v5.06h.64v-1.92h.78c.6.01,1.1-.13,1.5-.43.41-.31.61-.71.61-1.2s-.17-.85-.51-1.11Zm-.54,1.94c-.26.19-.62.28-1.1.28h-.73v-2.1h.82c.92,0,1.39.34,1.39,1.01,0,.36-.13.63-.38.81Zm2.84,8.29c-.53,0-1,.12-1.41.35v.57c.4-.3.85-.44,1.36-.44.58,0,.87.31.87.93l-1.26.16c-.93.12-1.38.51-1.38,1.17,0,.31.12.57.36.76.24.19.55.28.97.28.58,0,1.01-.21,1.29-.65h.02v.57h.63v-2.35c0-.89-.48-1.35-1.45-1.35Zm.82,2.23c0,.31-.11.57-.34.78-.22.2-.49.31-.83.31-.24,0-.44-.06-.59-.17-.15-.11-.22-.26-.22-.44,0-.23.07-.39.21-.5.14-.11.38-.18.74-.22l1.02-.12v.37Zm-1.57-12.86v3.1c0,1.36.71,2.04,2.11,2.04,1.47,0,2.22-.71,2.22-2.12v-3.03h-.65v3.11c0,1.02-.49,1.53-1.49,1.53s-1.54-.53-1.54-1.58v-3.07h-.65Zm17.61,5.06v-5.06h-.64v3.63c0,.34,0,.59.04.76h-.02s-.08-.13-.24-.34l-2.97-4.04h-.85v5.06h.65v-3.71c0-.35,0-.57-.03-.68h.03c.05.11.11.21.17.31l3.06,4.08h.8Zm13.19,5.56c-.54,0-.99.19-1.35.54-.37.36-.55.81-.55,1.36,0,.6.17,1.06.51,1.39.33.33.79.49,1.37.49s1.09-.12,1.44-.35v-.52c-.39.27-.83.41-1.29.41-.43,0-.76-.11-.99-.33-.25-.22-.38-.54-.39-.96h2.97v-.29c0-.54-.15-.97-.45-1.28-.3-.31-.72-.46-1.26-.46Zm-1.24,1.55c.06-.34.21-.6.44-.79.23-.19.5-.27.79-.27.34,0,.6.08.78.27.19.19.28.45.28.79h-2.3Zm12.97-1.55c-.64,0-1.12.25-1.44.73h-.03v-.64h-.63v5.27h.63v-2.19h.03c.28.41.7.61,1.25.61.59,0,1.05-.18,1.39-.54.35-.36.51-.85.51-1.45,0-.55-.15-.98-.45-1.3-.3-.32-.72-.48-1.25-.48Zm.71,2.91c-.24.27-.56.41-.97.41-.34,0-.63-.1-.87-.32-.23-.21-.35-.46-.35-.77v-.52c0-.36.12-.66.38-.89.24-.24.57-.35.94-.35s.67.12.89.35c.22.23.33.54.33.95,0,.48-.12.87-.36,1.14Zm-16.58-.15c-.05.12-.09.28-.13.48h-.01c-.02-.13-.07-.29-.15-.49l-1.08-2.65h-.7l1.59,3.61h.6l1.67-3.61h-.66l-1.14,2.66Zm6.89.94h.62v-5.34h-.62v5.34Zm7.7-21.11c-1.22.86-3.78,1.34-5.15.52-.08-.55.85-.06.67-.68-.63-.43-1.64-.03-2.38,0-3.16,4.08,9.39,6.52,6.86.16Zm-18.76,17.41c-.55,0-1.01.19-1.36.54-.37.36-.55.81-.55,1.36,0,.6.17,1.06.5,1.39.34.33.8.49,1.39.49s1.08-.12,1.45-.35v-.52c-.4.27-.83.41-1.3.41-.43,0-.75-.11-.99-.33-.25-.22-.37-.54-.39-.96h2.97v-.29c0-.54-.15-.97-.44-1.28-.31-.31-.73-.46-1.27-.46Zm-1.25,1.55c.06-.34.21-.6.44-.79.24-.19.49-.27.8-.27.33,0,.59.08.78.27.19.19.28.45.29.79h-2.31Zm-11.87-9.43h2.13v-.51h-2.13v-1.72h2.31v-.51h-2.94v5.06h3.08v-.51h-2.44v-1.81Zm1.72,8.48h-.01c-.26-.4-.69-.6-1.26-.6s-1.04.19-1.39.55c-.34.36-.52.84-.52,1.43,0,.56.16.99.46,1.32.31.32.74.48,1.27.48.65,0,1.13-.23,1.44-.7h.01v.62h.64v-5.34h-.64v2.23Zm0,1.49c0,.36-.11.65-.36.88-.25.23-.55.36-.93.36s-.69-.13-.91-.38c-.23-.25-.34-.57-.34-.99,0-.46.11-.82.36-1.08.23-.27.57-.4.98-.4.33,0,.62.1.85.31.23.2.34.45.34.75v.56Zm-2.29-18.15c-.12.61.44.55.67.82.02-.26-.03-.58.33-.5-.03.18-.26.37.16.32,1.69-.17,2.12-3.1,3.93-5.24.42-.49,1.2-.75,1.48-1.14.71-.95.42-2.76.82-3.6,2.88-2.07,6.55-2.48,8.03-6.06-.36-.56-1.31-.55-1.8-.98-.04-.64.59-.6.49-1.3-1.5-1.28-2.9,1.49-4.27.32.52-1.99,3.69-2.19,3.93-3.93-1.28-1.09-2.81.6-3.76.67-.14-1.99,2.11-2.31,2.77-3.44.23-.02.38.07.5.16.65-1.26,3.18-1.15,3.43-2.29.39.58,1.2-.35,2.12-.49,1.22-.21,2.36.05,2.62-1.17-1.06-.95-2.64-1.58-4.1-1.46-.55.05-1.01.57-1.63.82-1.74.72-3.46,1.01-5.07,1.15.26-.6,1.02-1.26,1.8-1.8.63-.43,1.47-1.25,1.97-1.48.15-.05.29.31.48.17.73-.52.8-1.16,1.65-1.48,1.09-.4,1.47-.91,2.29-1.48.47-.32,1.18-.46,1.63-.8,4.16-3.11-2.28-5.27-5.72-3.94-.2-1.98-1.42-2.94-3.27-3.27-.38,2.79-.86,6.76-4.1,7.22-.05.45.3.97-.82.97-.04-.29.77-.51.33-.65-.3.26-.5.59-1.16.48-.27-2.45,0-5.45-1.62-6.54-.15,2.55-.13,5.46-.82,8.35-2.17.79-4.58,3.17-7.2,1.96-.14.95-.42,1.6,0,2.3,2.03,1.62,3.5-.55,5.07-.99-.4-.56,1.3-1.9,1.63-1.8,1.3.45-.61,4.34-.14,6.22-.73.11-1.41,1.1-2.3.49.13-1.67.47-2.34.65-3.76-.91,1.26-1.27,3.09-1.96,4.57-.69.24-1.34.51-1.81,1-.39,3.03-2.14,6-4.57,7.53.21-2.09,1.02-3.58.98-5.91,1.16-.68,2.1-3.51,0-3.92.04-3.59.14-7.57,1.3-10.48-1.34-.96-2.9-1.71-4.75-1.31-.72,1.31-3.47,3.4-4.74,1.64-.82.35.08,1.18,0,1.95-.07.66-.56.98-.5,1.48.38,2.79,3.42.71,4.91,0,.48,1.45.03,4.42,0,6.4-1.64.97-2.92,2.32-3.94,3.92-.53,2.74.1,5.24,1.17,6.89-.26.51-.75.79-.83,1.46.41.22.79-.36.83,0v.66c-.5-.05-.84-.26-1.17-.48-1.22,3.02-4.85,3.65-4.08,8.67.62-.24.31.45.82.33,2.28-1.22,3.84-3.24,5.9-4.75.69-.5,1.58-.65,2.28-1.15,1.24-.9,1.58-2.92,3.28-3.28,1.57-1.81,2.91-3.84,4.09-6.05.08-.51-.49-.37-.32-.98.46-.13.42.23.82.17-.1-.5.15-.52.34-.66,1.77-1.28,6.44-2.4,7.2-3.27,1.66,4.05-5.43,2.94-3.93,7.37,1.25.1,2.38-.77,3.43-.34-.43,1.04-1.73,1.2-2.29,2.14.09.79.1,1.37.16,1.81.35.43,1.36-.41,1.65,0-1.09,2.56-4.62,2.69-5.57,5.41.22.26.46.5.66.81,1.81-.22,2.38-1.32,3.76-1.63-1.29,2.14-2.61,4.25-4.11,6.22-.24-.35-.39.11-.8-.17.18.77-.67,1.07-.17,1.63.43-.05.77-.21.97-.48Zm13.11-13.93c-.72.93-1.65,1.64-3.11,1.81.63-1.01,2.09-3.64,3.11-1.81Zm1.63-23.06c1.11-.46,2.39-.58,3.44,0-.22,1.88-1.86,3.17-3.11,4.25-1.23,1.06-2.54,2.57-4.1,2.78,1.26-2.34,2.68-4.52,3.76-7.03Zm-2.79,11.94c-.27,1.14-.85,1.99-1.95,2.29-.94-1.38.56-2.26,1.95-2.29Zm-24.05,8.18c.21.06.26.29.48.34.21,1.02-.56,1.06-.82,1.63-.96-.34-.31-1.77.34-1.96Zm-.18,6.87c-.12-2.93,2.62-3.26,4.43-3.43-1.13,1.49-2.51,2.72-4.43,3.43Zm17.35-15.05c.59-2.66.14-4.46.82-7.05,1.11-.53,1.94-.9,2.79-1.95.71,2.21-1.86,3.92-2.62,5.72.16.89.71,1.39.97,2.14-.11.92-1.12.93-1.96,1.14Zm4.92,18.67c-1.01-.03-1.62.34-2.63.33,1,.81,3.08,2.77,4.42,3.76.21.15.57,0,.81.16.59.37,1.05,1.06,1.32,1.15,1.57.49,3.07.03,3.27-1.31.41-2.86-2.85-5.67-6.55-4.25-.3.58.22,1.02-.16,1.46-.59,0-.13-1.07-.48-1.29Zm31.05,22.45c-.63,0-1.09.26-1.4.76-.08-.22-.22-.41-.44-.54-.22-.13-.46-.21-.73-.21-.57,0-1,.22-1.29.66h-.02v-.57h-.63v3.61h.63v-2.06c0-.34.09-.61.29-.83.2-.22.44-.33.74-.33.65,0,.97.36.97,1.08v2.15h.63v-2.06c0-.32.11-.59.31-.82.21-.23.45-.35.73-.35.34,0,.58.09.73.26.15.18.22.48.22.89v2.08h.64v-2.22c0-.98-.47-1.48-1.38-1.48Zm-12.46,0c-.66,0-1.17.18-1.54.52-.38.35-.57.82-.57,1.41s.19,1.01.56,1.34c.37.34.86.5,1.46.5s1.12-.17,1.49-.52c.38-.35.57-.81.57-1.37s-.17-1.05-.52-1.38c-.35-.34-.83-.51-1.44-.51Zm.97,2.95c-.24.24-.57.37-1.02.37s-.77-.13-1.04-.39c-.26-.25-.39-.59-.39-1.02,0-.45.12-.8.38-1.07.26-.26.6-.38,1.04-.38s.78.12,1.02.37c.24.25.36.6.36,1.07s-.12.79-.36,1.05Zm-21.65-4.31h-1.58v5.06h1.52c.99,0,1.76-.23,2.32-.7.55-.48.82-1.1.82-1.89,0-1.64-1.03-2.47-3.09-2.47Zm1.76,4.01c-.43.36-1.02.55-1.81.55h-.89v-4.04h.92c1.63,0,2.44.66,2.44,1.97,0,.65-.22,1.17-.67,1.52Z"/>
</svg>