<?xml version="1.0" encoding="UTF-8"?>
<svg id="uuid-0ab08d8a-d379-4c99-84d3-314f3b408a42" data-name="圖層 1" xmlns="http://www.w3.org/2000/svg" viewBox="0 0 122.67 100">
  <defs>
    <style>
      .uuid-1072d439-561e-40b5-bc8d-df199d19992d {
        stroke-width: 0px;
      }
    </style>
  </defs>
  <path class="uuid-1072d439-561e-40b5-bc8d-df199d19992d" d="m114.19,51.26c-1.51-.43-6.14-.72-9.4,1.15l-.09-1.4-4.59.54c.17.76.18,1.44.04,2.19-.29-1.07-1.22-1.78-2.15-2.14-1.08-.43-2.77-.76-5.38-.64-5.2.24-8.11,2.1-9.54,3.21-.05.04-.1.08-.15.13-1.84-1.33-1.92-2.57-2.16-3.05h-6.97s-1.66,3.86-4.19,7.6c-1.54,2.28-2.83,3-3.38,3.14-.72.19-1.25-.03-1.71-.32-.31-.37-.58-.8-.78-1.26-.24-.55-.42-1.11-.55-1.6-.23-.84-.26-1.43-.24-1.46,0,0,0,0,0,0,.44-.58,2.61-2.41,4.9-5.72.82-1.18,1.66-2.52,2.53-4.08.7-1.26,1.32-2.52,1.82-3.71h0c.64-1.53,1.09-2.94,1.28-4.08.12-.7.1-1.31-.03-1.81-.36-1.47-1.7-1.89-2.89-1.46-.27.1-.53.23-.78.38-.66.39-1.32.93-1.93,1.45-1.21,1.02-2.11,2.32-2.88,3.64-.23.4-.46.8-.68,1.2-2.35,4.3-3.65,11.68-3.29,14.3.02.11.03.21.05.31-.02-.1-.04-.19-.05-.3,0,0,0,0,0,0-2.1,2.26-3.92,4.02-6.06,5.87l4.04-8.45c.8-1.88-.67-3.21-2.44-3.72-1.51-.43-6.14-.72-9.4,1.15l-.09-1.39-4.59.54c.18.83.18,1.56,0,2.39l-4.54,9.48s-.14-1.19-.05-2.31c.1-1.42.57-2.12,1.09-3.31,1.23-2.79,3.03-6.27,3.03-6.27,0,0-5.35-.78-9.3-.48-3.02.23-6.98,2.06-9.24,4.26-1.56,1.52-1.85,3.06-1.99,3.35-.02-.08-.04-.17-.14-.34-.66-1.1-1.49-1.52-3.65-2.1-.25-.07-.51-.15-.79-.22-1.35-.34-3.27-1.47-1.34-2.2,1.87-.71,4.83-.25,6.05.86l2.73-2.7s-3.34-1.22-7.39-.99c-4.56.25-9.42,3.44-5.97,5.96,1,.73,2.88,1.18,4.21,1.64,1.31.45,1.52.78,1.35,1.3-.19.58-1.31,1.18-2.98,1.27-1.61.09-3.48-.27-4.86-1.29l-2.89,2.7s3.2,1.32,7.87,1.1c.3-.01.87-.05,1.57-.17,3.78-.61,5.41-2.41,5.97-3.21l.15.55c.16.73.6,1.47,1.51,2.03,1.68,1.03,5.45.95,7.51.55,1.06-.21,1.96-.64,3-1.09.07-.03.28.87,1.4,1.12h3.15s4.66,0,4.66,0l4.15-8.73c1.56-1.03,5.42-1.72,6.98-.73.58.37.26,1.55-.12,2.31l-3.45,7.15h4.79s3.47-1.9,5.64-3.9c.22-.2.44-.41.67-.64-.02-.11-.04-.21-.06-.32.02.1.04.2.06.32l.02-.02c.35,2,1.45,4.15,3.09,4.56,1.33.32,2.64-.23,3.46-.97h0s0,0,0,0c0,0,0,0,0,0,0,0,0,0,0,0,.54-.45,1.09-1.07,1.64-1.72.62-.73,1.36-1.76,1.94-2.7.32-.53,1.2-1.64,1.64-2.19.44-.55,1.8-1.93,1.8-1.93l-4.59,9.53h4.68l4.38-9.09s.76,1.4,1.91,1.98c-1.07,1.79-1.11,3.81-.26,5.02.69.98,1.62,1.77,3.77,2.14,2.24.39,5.64.46,8.63-.29.24-.14,1.93-3.37,1.93-3.37,0,0-3.09,1.49-6.59,1.43-2.42-.04-3.34-.79-3.5-1.56-.13-.64,0-1.4.01-1.4.49.06,3.16.53,6.22.34,2.29-.14,5.42-.87,7.43-2.46.14-.11.26-.21.36-.31l-3.68,7.66h4.66s4.17-8.74,4.17-8.74c1.56-1.03,5.42-1.72,6.98-.73.58.37.26,1.55-.12,2.31l-3.45,7.15h4.79l4.04-8.45c.8-1.88-.67-3.21-2.44-3.72Zm-79.07,5c-.99,1.81-2.12,3.61-4.02,4.45-1.57.69-3.86.54-4.7-.14-.75-.61-.23-2.72,1-4.14,1.18-1.36,2.68-2.86,6.17-3.07,1.22-.08,2.27.04,2.75.22.15-.27-.31,1.07-1.19,2.68Zm27.75-.84l-.04.05c.03-1.77.26-3.15.49-4.03.87-3.33,2.06-5.94,3.36-8.09.65-1.09,1.19-1.85,1.68-2.41.12-.14.76-.7.84-.74.03-.02.07-.04.1-.06.3-.16.52-.15.66-.13.01,0,.02,0,.03,0,.01,0,.03,0,.04.01,0,0,0,0,.01,0,.51.25.47,1.92.06,3.07-.26.72-.67,1.68-1.3,3.01-.31.65-1.38,2.64-2.59,4.59-1.41,2.26-2.11,3.25-2.58,3.82l-.74.89h0Zm32.51-.76c-.16.37-.53.77-2.43,1.23-2.86.7-6.22.05-6.39.02.27-.32.68-.63,1.14-.91,1.32-.81,2.56-1.59,5.09-1.49,1.69.06,2.39.3,2.6.62.09.13.08.33-.01.52Z"/>
  <path class="uuid-1072d439-561e-40b5-bc8d-df199d19992d" d="m77.14,50.67c1,.73,2.61.21,3.6-1.15.99-1.36.97-3.05-.03-3.78-1-.73-2.61-.21-3.6,1.15-.99,1.36-.97,3.05.03,3.78Z"/>
</svg>