<?xml version="1.0" encoding="UTF-8"?>
<svg id="_圖層_1" data-name="圖層 1" xmlns="http://www.w3.org/2000/svg" viewBox="0 0 126 100">
  <defs>
    <style>
      .cls-1 {
        stroke-width: 0px;
      }
    </style>
  </defs>
  <path class="cls-1" d="m27.44,74.05c.02-.12.05-.23.04-.35,0-.08-.06-.17-.09-.25-.05.06-.12.1-.16.17-.12.18-.25.35-.35.54-.28.5-.76.59-1.26.63-.61.04-1.23.02-1.83-.12-.22-.05-.33-.15-.34-.39,0-.25,0-.5,0-.74.01-.43-.09-.88.24-1.26.08-.1.05-.24-.14-.32-.32-.14-.65-.11-.98-.13-.22-.01-.31.06-.3.29.01.44,0,.88,0,1.32,0,.41,0,.82,0,1.23,0,.3.12.53.3.75.34.42.86.52,1.32.54,1.15.05,2.31.12,3.43-.24.28-.09.47-.28.57-.52.08-.21-.11-.38-.25-.52-.17-.18-.23-.38-.2-.61Zm-1.78-2.5c-.38-.28-.83-.46-1.4-.38.07.11.1.18.14.23.31.35.51.74.57,1.22.04.34.4.69.69.65.39-.05.78-.75.56-1.05-.18-.24-.33-.51-.56-.68Zm95.83-37.73c-.1-.15-.09-.21.08-.31.47-.27.81-.89.53-1.46-.2-.4-.51-.63-.92-.65-.67-.04-1.34-.01-2.01,0-.3,0-.49.2-.49.5,0,.51,0,1.03,0,1.54,0,.49,0,.97,0,1.46,0,.06,0,.11,0,.16,0,.22.11.33.28.33.16,0,.26-.12.26-.32,0-.39,0-.79,0-1.18,0-.16.06-.23.23-.22.26,0,.52.03.77,0,.39-.05.56.2.74.45.26.38.5.77.77,1.14.05.07.22.14.27.11.1-.05.18-.18.21-.29.02-.08-.03-.19-.08-.27-.21-.33-.42-.66-.65-.98Zm-.48-.72c-.26.03-.53,0-.79,0h0c-.26,0-.51,0-.77,0-.15,0-.22-.05-.22-.2,0-.22,0-.44,0-.66,0-.19.12-.3.31-.31.49,0,.99-.01,1.48,0,.36.01.51.23.53.62.02.33-.2.5-.55.54ZM22.89,70.18c1.34,0,2.67,0,4.01,0,.41,0,.46.05.48.45.01.21.09.42.28.46.5.12.93-.03.93-.67,0-1.13,0-2.26-.01-3.39,0-.24.05-.43.26-.58.19-.13.19-.35.01-.45-.29-.18-.6-.32-.9-.47-.03-.02-.09-.01-.12,0-.15.09-.32.17-.44.3-.14.14-.28.2-.48.2-1.34,0-2.67,0-4.01,0-.14,0-.29-.05-.43-.1-.31-.1-.62-.22-.93-.31-.32-.09-.35-.07-.35.29,0,.79,0,1.57,0,2.36v.23c0,.73,0,1.46,0,2.2,0,.22.05.43.23.54.43.26.97-.08,1-.6.03-.41.07-.45.48-.45Zm3.05-3.9c.2,0,.41,0,.61,0h0c.19,0,.39,0,.58,0,.16,0,.25.05.25.22,0,.41,0,.82,0,1.22,0,.2-.14.32-.33.32-.38.01-.75.01-1.13,0-.2,0-.32-.13-.32-.33,0-.36,0-.73,0-1.09,0-.22.13-.33.35-.34Zm-.08,2.02c.21.01.43,0,.65,0,.2,0,.41,0,.61,0,.18,0,.26.05.26.24,0,.38,0,.75,0,1.13,0,.21-.11.28-.31.28-.4,0-.8,0-1.2,0-.21,0-.29-.09-.29-.3,0-.37,0-.73,0-1.1,0-.2.08-.27.28-.26Zm-3.49-1.56c0-.3.16-.45.46-.46.19,0,.39,0,.58,0,.16,0,.32,0,.48,0,.32,0,.47.14.49.46.01.28.01.56,0,.84,0,.27-.2.46-.47.46-.36,0-.71,0-1.07,0-.27,0-.46-.19-.47-.47-.01-.28-.01-.56,0-.84Zm0,1.89c.01-.2.12-.34.35-.33.23,0,.45,0,.68,0,.19,0,.39,0,.58,0,.26,0,.38.1.39.36.02.3.03.6,0,.9-.03.31-.18.41-.44.39-.39-.03-.77,0-1.16,0-.26,0-.39-.1-.41-.35-.02-.32-.02-.65,0-.97Zm1.29-16.31c.2.02.4,0,.6,0,.28,0,.53.09.7.31.14.18.23.41.34.61.02.04.07.07.1.11.03-.04.09-.08.09-.11-.02-.31-.05-.62-.1-.92-.01-.07-.11-.16-.19-.18-.29-.06-.59-.1-.89-.13-.49-.05-.96.05-1.41.22-.58.22-1.04.58-1.28,1.18-.06.14-.06.3-.13.44-.23.45-.05.87.04,1.3.03.16.14.31.21.46.16.32.41.55.72.72.31.18.63.33.99.34.57.02,1.15.03,1.71-.11.23-.06.32-.14.32-.39,0-.36,0-.71,0-1.07,0-.25.06-.31.3-.38.05-.01.1-.08.14-.12-.05-.03-.1-.08-.15-.08-.25,0-.49,0-.74,0-.19,0-.39-.01-.58,0-.1,0-.28-.08-.29.1,0,.17.16.09.26.1.21.03.4.16.4.3,0,.35.02.7,0,1.04,0,.1-.1.23-.19.27-.48.22-.95.15-1.41-.05-.61-.27-.91-.8-1.01-1.4-.09-.51-.11-1.05.09-1.56.2-.53.77-1.05,1.35-1Zm9.23,15.56s-.06.02-.08.03c-.01.04-.05.08-.04.11.04.36-.09.67-.28.96-.18.28-.38.54-.58.8-.1.14-.14.28-.01.4.15.15.26.4.54.31.41-.13.63-.39.74-.82.14-.55.09-1.05-.14-1.55-.04-.09-.09-.17-.14-.25Zm-1.7-12.79c.02-.07.16-.12.24-.13.37-.01.73,0,1.1,0,.11,0,.18.02.23.14.1.3.23.58.32.88.07.22,0,.31-.22.38-.06.02-.11.09-.17.13l.03.05h1.63s.03-.04.04-.06c-.06-.04-.12-.11-.18-.12-.25-.01-.38-.17-.46-.37-.17-.43-.32-.86-.48-1.29-.26-.72-.52-1.43-.79-2.15-.07-.19-.17-.37-.25-.56-.03,0-.05,0-.08,0-.07.11-.15.21-.2.33-.13.32-.24.66-.37.98-.18.47-.37.93-.57,1.4-.18.42-.35.85-.54,1.27-.09.2-.22.38-.48.39-.05,0-.09.09-.14.13.01.02.02.03.04.04h1.51s.02-.05.03-.08c-.09-.04-.17-.1-.26-.11-.27-.04-.32-.06-.27-.32.06-.32.17-.64.29-.95Zm.22-.61c.18-.45.34-.91.51-1.36.01-.03.03-.06.05-.08.02,0,.04,0,.07,0,.18.52.36,1.05.55,1.6-.09.03-.15.06-.22.06-.27,0-.55,0-.82,0-.15,0-.21-.04-.14-.22Zm-2.3,18.14c-.4-.29-.84-.53-1.26-.79-.03.03-.06.05-.09.08.03.06.04.13.08.18.67.71.87,1.61,1,2.53.04.28.2.49.46.54.22.04.47-.09.61-.31.2-.32.17-.68.07-.99-.16-.49-.45-.93-.88-1.24Zm91.32-23.48s-.09,0-.14,0c-19.29,0-38.58,0-57.88,0-19.27,0-38.54,0-57.81,0-.07,0-.14,0-.21,0-.15-.01-.17.1-.15.23.04.19.17.17.3.17,5.84,0,11.69,0,17.53,0,6.75,0,13.5,0,20.24,0s13.36,0,20.04,0c6.69,0,13.39,0,20.08,0,5.84,0,11.69,0,17.53,0,6.26,0,12.51,0,18.77,0,.56,0,1.12,0,1.68,0,.13,0,.17-.07.17-.21,0-.14-.05-.2-.17-.19Zm-99.4,23.52c-.07.22-.12.45-.23.65-.24.45-.61.79-1,1.12-.38.32-.33.75.09,1.03.32.22.65.13.97-.32.38-.53.57-1.14.55-1.8-.01-.36.08-.73-.23-1.14-.06.19-.1.33-.15.46Zm77.16-25.6c.18,0,.38-.02.55.03.36.11.58.03.77-.31.27-.48.6-.93.9-1.4.28-.45.55-.92.82-1.38.31-.51.61-1.03.92-1.54.12-.2.27-.33.54-.33,2.85,0,5.7,0,8.55,0,.59,0,1.17,0,1.76-.01.14,0,.22.03.3.17.23.42.49.82.73,1.24.4.7.8,1.4,1.2,2.1.24.42.46.84.69,1.26.13.23.17.24.44.2.2-.03.4-.03.6-.04.16,0,.32,0,.54,0-.04-.11-.04-.17-.07-.21-.42-.77-.85-1.54-1.28-2.3-.63-1.12-1.26-2.25-1.89-3.37-.46-.81-.91-1.63-1.37-2.44-.41-.72-.83-1.43-1.23-2.15-.5-.89-1-1.79-1.5-2.68-.49-.87-.99-1.73-1.47-2.61-.18-.32-.47-.43-.79-.47-.6-.06-.99.26-1.27.76-.35.63-.69,1.25-1.03,1.88-.64,1.19-1.28,2.38-1.93,3.56-.47.87-.96,1.73-1.44,2.59-.28.51-.56,1.02-.84,1.52-.42.75-.86,1.5-1.29,2.24-.34.6-.68,1.2-1.03,1.79-.33.56-.66,1.13-1,1.69-.07.12-.04.19.1.2Zm4.93-6.64c.31-.57.63-1.14.95-1.71.51-.92,1.01-1.84,1.53-2.76.68-1.22,1.36-2.44,2.04-3.65.03-.05.08-.12.12-.12s.1.06.13.11c.53.93,1.05,1.86,1.57,2.79.63,1.13,1.25,2.27,1.88,3.4.35.63.71,1.26,1.06,1.9.06.1.11.21.16.32.08.18-.05.38-.24.44-.42.12-.85.1-1.28.1-1.08,0-2.16,0-3.24,0h0c-1.27,0-2.55,0-3.82,0-.24,0-.49-.06-.72-.12-.21-.05-.28-.42-.14-.69ZM9.53,55.46c-.06.05-.09.13-.15.19-.18.2-.22.5-.54.62-.29.11-.58.07-.86.08-.36.01-.55-.2-.56-.56,0-.3,0-.6,0-.91,0-.65,0-1.3,0-1.95,0-.37.17-.57.49-.61.06,0,.12-.07.18-.1-.06-.03-.13-.09-.19-.09-.49,0-.97,0-1.46,0-.07,0-.13.03-.2.04,0,.03,0,.05-.01.08.05.03.1.07.15.08.37.08.49.22.5.59,0,.95,0,1.91,0,2.86,0,.18,0,.37-.14.48-.09.08-.25.07-.37.12-.06.02-.11.07-.16.11.06.03.11.09.17.09.93,0,1.87,0,2.8,0,.18,0,.26-.1.3-.26.06-.24.14-.48.2-.72.01-.04,0-.11-.01-.12-.04-.02-.12-.03-.14,0Zm78.56-9.3c-.36.01-.71,0-1.07,0-.58,0-1,.25-1.26.77-.12.23-.08.29.17.28.63-.02,1.26-.04,1.9-.04.21,0,.42.03.62.07.45.09.87.02,1.27-.2.07-.04.15-.12.18-.2.09-.31.18-.62.23-.94.04-.26,0-.53,0-.8-.02-2.41-.05-4.82-.07-7.23,0-.64-.02-1.28.04-1.92.06-.7.06-1.38-.08-2.07-.04-.19-.14-.36-.21-.55-.49.39-.93.73-1.35,1.08-.52.43-1.03.87-1.54,1.31-.43.37-.84.76-1.26,1.14-.03.03-.07.06-.1.09-.4.33-.81.66-1.2.99-.57.49-1.13.98-1.69,1.47-.65.56-1.29,1.14-1.94,1.69-.23.2-.49.37-.75.53-.42.26-.87.22-1.26-.04-.42-.27-.79-.61-1.18-.93-.4-.34-.78-.69-1.17-1.03-.02-.02-.05-.03-.07-.05-.38-.31-.76-.62-1.14-.94-.29-.25-.58-.5-.87-.74-.52-.42-1.06-.83-1.58-1.26-.5-.41-.99-.83-1.49-1.25-.05.06-.12.1-.13.15-.04.32-.11.65.03.97.16.37.49.61.78.87.32.28.67.53,1,.8.33.27.64.57.97.84.54.44,1.1.87,1.64,1.32.45.37.9.74,1.35,1.12.6.52,1.2,1.04,1.8,1.56.3.26.85.35,1.2.14.22-.13.41-.29.61-.44.14-.11.25-.24.38-.36.73-.63,1.47-1.25,2.21-1.88.03-.03.07-.06.11-.09.37-.3.74-.59,1.1-.9.33-.28.66-.58.99-.86.24-.2.47-.4.72-.59.31-.25.64-.48.94-.74.5-.44.98-.9,1.48-1.35.19-.17.41-.31.65-.5,0,.14.02.22.02.3,0,2.2,0,4.4,0,6.6,0,.95,0,1.91,0,2.86,0,.24-.08.45-.22.63-.18.22-.43.3-.7.31Zm-70.91,9.29c-.11.17-.24.34-.32.52-.12.28-.35.35-.61.38-.26.02-.53,0-.8,0-.26,0-.46-.2-.46-.47,0-.27,0-.55,0-.82,0-.68,0-.67.68-.67.34,0,.6.1.72.45.02.05.08.08.12.12.03-.05.08-.1.08-.15,0-.35,0-.7,0-1.04,0-.05-.06-.1-.09-.15-.04.04-.1.08-.11.12-.12.35-.38.46-.72.44-.15,0-.29,0-.44,0-.18.01-.25-.06-.24-.24,0-.42,0-.84,0-1.26,0-.2.08-.26.26-.25.28,0,.57.02.85,0,.25-.01.38.14.5.32.05.08.08.18.13.27.03.05.08.09.11.13.03-.06.08-.12.09-.18.01-.2,0-.4,0-.6.01-.2-.07-.25-.26-.24-.88,0-1.76,0-2.64,0-.06,0-.13,0-.19.02-.03,0-.07.05-.07.07,0,.04.04.08.07.1.04.02.09.02.13.02.2,0,.32.11.34.32.03.23.07.47.08.7.01.64,0,1.28,0,1.92,0,.15.02.3,0,.44-.03.18-.07.38-.17.54-.05.08-.24.08-.36.13-.06.02-.11.07-.16.1.01.02.02.04.03.07.03.01.07.03.1.03,1.01,0,2.01,0,3.02,0,.09,0,.23-.11.26-.19.08-.24.11-.49.16-.74,0-.05-.03-.11-.04-.16-.02,0-.04-.01-.06-.02Zm14.56-9.05c0,.23.05.45.21.63.2.22.49.18.72.11.23-.07.3-.29.3-.56,0-2.51,0-5.02,0-7.53,0-2.53,0-5.06,0-7.58,0-.25-.09-.46-.29-.51-.22-.06-.48,0-.72.04-.05,0-.09.12-.12.2-.15.34-.1.7-.1,1.05,0,2.56,0,5.13-.01,7.69,0,2.15,0,4.3,0,6.46Zm-25.46-1.52c.17.1.34.2.5.32.31.22.6.46.93.66.92.57,1.92.98,2.95,1.29.17.05.35.09.52.13.27.05.53.09.8.13.48.07.96.18,1.45.21.56.04,1.12,0,1.68,0h0c.29.01.59.03.88,0,.5-.03,1,.04,1.5-.11.3-.09.63-.07.93-.15.45-.12.89-.29,1.33-.44.64-.23,1.24-.56,1.78-.98.54-.42,1.04-.89,1.33-1.53.22-.47.41-.95.38-1.48-.02-.42.07-.84-.11-1.24-.15-.32-.24-.67-.45-.95-.6-.82-1.46-1.27-2.4-1.57-.32-.1-.64-.18-.96-.26-.27-.07-.54-.14-.81-.2-.25-.05-.49-.1-.74-.14-.38-.07-.76-.15-1.15-.2-.5-.06-1-.09-1.49-.13-.02,0-.04,0-.05-.01-.57-.07-1.13-.14-1.7-.21-.38-.04-.76-.08-1.13-.13-.23-.03-.46-.07-.69-.12-.4-.1-.8-.21-1.2-.32-.42-.12-.86-.2-1.25-.39-.75-.35-1.37-.84-1.46-1.75-.22-.38-.03-.77.05-1.12.14-.57.54-1.02,1.05-1.31.69-.4,1.43-.7,2.23-.85.18-.03.36-.09.55-.14.22-.06.44-.15.67-.19.43-.06.87-.09,1.3-.14.11-.01.22-.05.32-.05.5-.01,1.01-.04,1.51-.01.44.03.88.13,1.32.2.24.04.49.06.72.14.42.13.83.29,1.25.44.63.24,1.21.56,1.77.93.24.16.48.33.72.49.34.23.5.21.8-.06.36-.33.36-.63-.01-.94-.13-.11-.28-.2-.42-.3-.27-.18-.53-.38-.81-.54-.68-.39-1.41-.68-2.15-.92-.15-.05-.31-.09-.47-.13-.24-.05-.48-.09-.71-.14-.33-.07-.65-.15-.98-.21-.33-.05-.67-.09-1-.11-1.05-.07-2.1.02-3.15.11-.04,0-.07.02-.11.03-.3.06-.6.13-.9.19-.23.05-.46.08-.68.15-.3.09-.6.19-.88.32-.38.16-.77.31-1.13.52-.59.35-1.13.76-1.56,1.3-.43.54-.66,1.14-.72,1.82-.02.3.03.59.09.89.1.46.3.86.58,1.21.53.66,1.24,1.05,2.02,1.33.48.18.98.3,1.47.46.52.17,1.06.3,1.61.34.04,0,.07.02.11.02.37.07.74.15,1.12.2.52.06,1.05.09,1.58.13.03,0,.05.01.08.01.54.07,1.08.14,1.62.21.39.05.78.06,1.16.13.43.08.85.23,1.28.31.49.09.95.28,1.4.48.61.27,1.11.68,1.43,1.27.16.3.26.63.24.96-.03.48-.16.94-.43,1.36-.33.52-.74.94-1.28,1.24-.35.2-.71.39-1.11.49-.36.09-.72.22-1.08.31-.37.09-.74.17-1.11.22-.39.06-.79.13-1.19.12-.96-.02-1.92.12-2.87-.1-.46-.11-.95-.13-1.41-.26-.6-.18-1.19-.41-1.77-.66-1.02-.46-2-.99-2.79-1.81-.07-.07-.19-.12-.29-.13-.31-.04-.68.25-.78.6-.08.25.12.58.42.75Zm114.39-14.74c-2.13-.16-3.48,1.54-3.6,3.02-.16,2.08,1.48,3.66,3.32,3.6,1.79.08,3.35-1.48,3.33-3.28-.02-1.95-1.45-3.22-3.06-3.34Zm-.11,6.17c-1.93.06-3.04-1.37-3.03-2.86.01-1.62,1.24-2.85,2.87-2.85,1.49,0,2.83,1.08,2.86,2.86.01,1.63-1.32,2.81-2.7,2.85Zm-51.49,9.6c.03.22.07.45.16.65.07.15.22.29.36.39.32.25.72.31,1.11.31.74,0,1.48-.06,2.22-.1.23-.01.32-.22.19-.42-.25-.36-.58-.59-1.05-.59-.43,0-.86,0-1.29,0-.23,0-.66-.26-.68-.47-.02-.22-.06-.44-.06-.65,0-.53,0-1.06,0-1.59,0-3.24,0-6.49,0-9.73,0-.13,0-.25,0-.38.03-.02.06-.03.08-.05.15.11.31.21.45.33.33.28.66.58.99.86.24.21.49.41.74.61.35.29.71.57,1.06.86.31.26.62.54.93.8.56.46,1.12.9,1.68,1.35.45.37.9.74,1.34,1.12.52.43,1.02.88,1.55,1.3.15.12.36.22.54.21.19-.01.38-.15.55-.27.29-.22.56-.47.84-.7.35-.28.7-.55,1.04-.84.3-.25.59-.51.89-.77.23-.19.46-.39.7-.57.32-.26.65-.5.96-.76.32-.26.62-.54.93-.8.22-.18.44-.36.66-.53.31-.25.63-.49.94-.74.31-.25.61-.52.91-.78.21-.18.41-.36.63-.52.55-.39,1.07-.83,1.53-1.32.19-.2.27-.43.24-.7-.03-.29-.33-.45-.57-.31-.17.1-.33.23-.48.36-.13.11-.23.23-.36.34-.3.24-.61.46-.91.7-.28.23-.56.47-.84.7-.2.17-.41.34-.62.5-.29.22-.58.43-.87.66-.31.25-.61.52-.91.78-.22.19-.45.37-.68.55-.29.23-.6.45-.89.68-.32.27-.63.55-.95.82-.26.22-.51.44-.77.65-.35.29-.7.58-1.07.85-.22.16-.44.34-.68.42-.21.07-.5.07-.7-.02-.3-.13-.56-.36-.82-.57-.14-.11-.26-.26-.4-.37-.4-.34-.82-.67-1.22-1.02-.37-.31-.72-.64-1.09-.96-.25-.22-.52-.43-.78-.65-.36-.29-.72-.58-1.08-.88-.34-.29-.67-.6-1.01-.88-.52-.43-1.06-.83-1.58-1.26-.37-.31-.73-.64-1.09-.97-.13-.12-.26-.2-.45-.22-.44-.04-.48-.02-.48.4,0,1.58,0,3.15,0,4.73s-.02,3.13,0,4.7c.03,1.57-.14,3.15.11,4.71Zm-27.06-4.6c.11.49.28.95.48,1.4.32.74.77,1.4,1.29,2.01.28.32.64.57.95.86.43.4.92.71,1.44.96.48.23.97.44,1.47.61.36.12.75.17,1.13.25.33.07.67.17,1,.21.43.05.87.09,1.31.08.66,0,1.31-.05,1.97-.08.05,0,.09-.02.13-.03.34-.07.67-.13,1.01-.2.39-.08.78-.13,1.16-.25.48-.15.94-.35,1.4-.54.98-.4,1.87-.95,2.62-1.72.68-.68,1.06-1.51,1.29-2.41.1-.4.11-.83.12-1.24.02-.44,0-.88,0-1.32.02-.59-.39-.97-.96-.97-1.25.01-2.51,0-3.77,0h0c-.13,0-.26,0-.38,0-1.15,0-2.31,0-3.46,0-.22,0-.42.05-.57.21-.16.18-.16.41-.07.62.09.2.25.3.5.3,2.1-.01,4.2-.02,6.29,0,.64,0,1.08.33,1.06,1.04,0,.46.04.92-.1,1.38-.15.52-.36,1.01-.71,1.42-.47.57-1.08.98-1.73,1.31-.52.26-1.07.48-1.61.71-.19.08-.38.17-.58.22-.4.1-.81.17-1.21.26-.55.12-1.1.21-1.67.21-.33,0-.66.02-.99-.01-.41-.04-.82-.13-1.23-.21-.38-.07-.77-.13-1.13-.25-.57-.2-1.13-.43-1.68-.68-.53-.24-1.02-.56-1.45-.95-.33-.3-.62-.66-.92-1.01-.43-.51-.73-1.1-.95-1.73-.1-.29-.18-.58-.25-.88-.08-.39-.2-.78-.2-1.17,0-.71-.12-1.42.1-2.12.07-.25.06-.53.14-.77.16-.47.35-.92.56-1.37.32-.67.78-1.25,1.29-1.78.16-.16.35-.29.53-.43.18-.14.35-.28.55-.4.64-.37,1.32-.68,2.03-.91.16-.05.33-.1.49-.13.27-.05.56-.06.83-.14.5-.15,1.03-.11,1.54-.19.34-.05.71.04,1.06.08.38.04.76-.01,1.14.12.34.12.72.14,1.07.24.47.14.95.27,1.4.47.97.43,1.87.96,2.61,1.74.07.08.17.15.26.18.4.15.65-.05.87-.45.18-.32.16-.36-.1-.61-.14-.13-.3-.23-.45-.34-.57-.45-1.11-.94-1.75-1.29-.41-.22-.82-.43-1.25-.6-.41-.16-.84-.25-1.27-.37-.28-.08-.55-.16-.83-.2-.33-.06-.67-.09-1-.11-1.16-.08-2.32.06-3.48.11,0,0-.02,0-.03,0-.49.11-.99.2-1.47.34-.51.15-1.02.31-1.5.52-.61.26-1.14.65-1.67,1.05-.7.53-1.23,1.19-1.69,1.91-.41.62-.72,1.29-.89,2.02-.1.44-.25.87-.31,1.31-.07.49-.1,1-.11,1.5,0,.26.08.52.08.79,0,.48.12.93.22,1.39Zm-6.32,28.13c.19-.2.22-.62.06-.87-.19-.3-.45-.51-.76-.66-.25-.12-.41-.28-.38-.6.03-.28,0-.56.01-.84.01-.14.1-.27.15-.4.03-.08.12-.2.09-.24-.06-.09-.17-.16-.27-.19-.15-.05-.31-.07-.46-.1-.39-.08-.71-.1-.7.5.03,1.15.02,2.3.02,3.46,0,2.02-.01,4.05-.01,6.07,0,.39.41.65.78.51.27-.11.4-.34.4-.69,0-2.26,0-4.52,0-6.79,0-.09.02-.17.03-.26.23.29.24.29.27.82.02.27.21.35.4.45.18.09.28-.06.38-.16Zm22.12-2.7c-.27.55-.59,1.08-.89,1.62-.03.05-.04.11-.09.25.15-.06.25-.09.33-.13.07-.04.14-.1.2-.16.49-.47.99-.94,1.47-1.43.26-.27.34-.69.75-.82.03-.01.05-.06.1-.13-.41-.29-.83-.49-1.33-.42-.09.01-.19.16-.23.27-.11.32-.16.66-.3.96Zm12.39-10.4c.01-.18.07-.37.14-.55.05-.12.15-.26,0-.33-.14-.07-.2.1-.26.21-.04.09-.07.19-.13.26-.1.11-.21.22-.34.3-.33.22-.71.11-1.07.1-.24,0-.33-.13-.33-.39,0-1.07,0-2.14,0-3.21,0-.3.09-.37.39-.42.06-.01.12-.07.17-.11-.06-.03-.11-.09-.17-.09-.48,0-.95,0-1.43,0-.06,0-.12.07-.18.1.06.03.11.08.17.09.24.06.39.21.39.45,0,1.08,0,2.16,0,3.24,0,.23-.1.33-.33.34-.13,0-.26,0-.34.19.1.01.17.02.23.02.22,0,.44,0,.66,0,.71,0,1.41,0,2.12,0,.17,0,.27-.02.29-.23Zm-3.63,11.52c-.13-.12-.27-.11-.4,0-.07.06-.15.12-.26.21-.05-.3-.07-.51.14-.69.15-.13.13-.27-.02-.37-.26-.17-.54-.31-.8-.48-.22-.15-.38-.1-.52.09-.14.18-.31.25-.54.22-.08-.01-.17,0-.26,0-.46,0-.51-.05-.45-.5.01-.08.06-.15.11-.22.08-.1.17-.19.27-.3-.08-.07-.14-.16-.21-.17-.38-.06-.76-.11-1.14-.15-.17-.02-.23.06-.23.22,0,.24,0,.47,0,.71,0,.3-.12.41-.41.41-.46,0-.93,0-1.39,0-.11,0-.23.05-.36.08.19.29.19.3.43.29.39-.02.77-.09,1.16-.09.44,0,.57.16.57.59,0,.09,0,.17,0,.26,0,.41-.13.54-.54.55-.51,0-1.01,0-1.52,0-.09,0-.17-.03-.3-.06.07-.09.1-.13.14-.17.03-.03.07-.07.14-.13-.15-.1-.27-.2-.4-.25-.18-.08-.39-.11-.57-.18-.25-.09-.5.03-.58.29-.13.41-.25.83-.41,1.23-.36.86-.8,1.68-1.39,2.41-.09.11-.14.24-.21.36.03.02.05.04.08.07.35-.27.71-.55,1.12-.87v.41c0,1.28,0,2.57,0,3.85,0,.4.22.62.61.62.37,0,.58-.22.58-.61,0-1.69,0-3.38-.01-5.08,0-.47.07-.87.36-1.26.17-.23.33-.33.61-.33.6,0,1.21,0,1.81,0,.38,0,.48.09.48.47,0,.09,0,.17,0,.26,0,.46-.11.58-.57.58-.43,0-.86-.04-1.29-.06-.14,0-.29-.03-.29.19,0,.2.14.18.27.18.47,0,.95,0,1.42,0,.35,0,.45.11.46.47,0,.11,0,.22,0,.32,0,.54-.06.6-.58.6-.49,0-.97,0-1.45-.02-.17,0-.29.04-.36.27.13.04.25.1.38.11.54.01,1.08,0,1.62,0,.28,0,.39.11.4.38,0,.15,0,.3,0,.45,0,.29-.12.4-.42.4-.68,0-1.36,0-2.04,0-.09,0-.19,0-.32,0,.22.44.41.41.71.34.13-.03.27-.07.41-.07.37-.01.73,0,1.1,0,.38,0,.55.17.56.55,0,.47,0,.95,0,1.42,0,.09,0,.21.06.27.21.22.5.19.76.15.18-.03.36-.33.36-.55,0-.43,0-.86,0-1.29,0-.47.08-.54.55-.54.91,0,1.81,0,2.72,0,.11,0,.22-.01.36-.02-.19-.4-.49-.62-.79-.85-.64-.5-.58-.39-.94.12-.15.21-.3.49-.63.5-.33,0-.67,0-1,0-.2,0-.27-.08-.26-.27,0-.24,0-.47,0-.71,0-.19.07-.27.27-.27.33,0,.67,0,1,0,.41,0,.82,0,1.23,0,.34,0,.36-.05.21-.34-.19-.38-.53-.59-.87-.79-.09-.05-.29-.01-.37.06-.18.15-.31.35-.47.53-.06.07-.14.15-.21.16-.19.03-.39.01-.58.01-.15,0-.21-.08-.21-.23,0-.31,0-.63,0-.94,0-.17.09-.23.24-.22.25,0,.5,0,.74,0,.13,0,.22.03.27.18.03.08.11.17.19.21.43.18.95-.15.96-.62.01-.37.01-.73,0-1.1,0-.2.07-.3.28-.29.23.01.45.02.68,0,.12-.01.26-.08.35-.16.03-.03-.05-.21-.12-.3-.15-.18-.32-.35-.5-.51Zm-2.89,2.26c-.14-.01-.22-.11-.22-.27,0-.14,0-.28,0-.42,0-.69-.05-.59.6-.6.09,0,.17,0,.26,0,.22-.01.31.12.35.3.02.08,0,.17,0,.26.08.81-.3.8-1,.73Zm.04-1.61c-.17-.01-.27-.12-.26-.3,0-.13,0-.26,0-.39q0-.67.67-.68c.41,0,.5.06.54.46.1.91-.12.96-.96.9Zm26.3,1.15c-.3-.09-.36-.33-.16-.58.39-.48.63-1.03.85-1.59.05-.12.22-.21.36-.27.09-.04.21,0,.32-.01.08,0,.15-.05.22-.08-.03-.07-.05-.14-.08-.2-.18-.34-.5-.55-.8-.78-.27-.2-.33-.19-.56.08-.1.11-.16.26-.27.36-.14.14-.29.34-.46.36-.41.05-.84.02-1.26.02-.16,0-.24-.1-.16-.23.13-.21.29-.39.44-.59.05-.07.12-.12.19-.18-.08-.07-.14-.17-.23-.21-.25-.1-.52-.19-.78-.26-.25-.07-.47,0-.53.18-.07.17-.13.34-.16.52-.07.47-.27.9-.49,1.31-.22.41-.47.8-.74,1.26.15-.04.26-.05.34-.1.27-.17.54-.34.8-.53.21-.15.34-.12.45.11.2.4.37.82.6,1.2.13.21.09.34-.08.46-.48.33-.96.67-1.52.86-.28.09-.55.2-.82.29.07.07.15.1.21.09.32-.06.65-.04.98-.13.58-.16,1.13-.35,1.66-.61.24-.12.39-.09.57.07.51.46,1.15.68,1.78.91.16.06.37-.07.38-.25.01-.23.15-.35.29-.48.17-.17.35-.33.54-.51-.3-.07-.56-.13-.83-.2-.36-.09-.72-.17-1.07-.28Zm-.98-1.21c-.26.52-.3.53-.82.13-.25-.19-.43-.47-.61-.73-.23-.32-.09-.6.32-.63.2-.02.41,0,.61,0,.2,0,.41,0,.61,0,.19,0,.24.09.25.26.02.38-.2.67-.35.98Zm-7.48-2.42c-.13.02-.16.1-.1.21.09.15.23.17.39.17.73-.01,1.47-.01,2.2-.01.11,0,.23.01.38.02-.04.38-.21.64-.4.88-.11.13-.25.21-.45.09-.2-.11-.43-.19-.65-.25-.12-.03-.26,0-.39.02.06.11.11.21.17.32.02.04.06.06.09.09.24.25.39.52.39.88,0,.27.17.49.42.6.18.08.38.07.57-.09.22-.19.2-.42.19-.65-.01-.25.02-.47.22-.64.35-.29.7-.57,1.05-.85.08-.07.19-.1.28-.15.09-.05.23-.1.24-.15,0-.09-.07-.21-.15-.26-.28-.19-.59-.33-.87-.53-.2-.15-.33-.1-.46.07-.15.2-.35.24-.6.24-.8-.02-1.59-.01-2.39-.02-.04,0-.09,0-.13,0Zm-22.67-9.88c.42.35.92.61,1.52.51.39.07.75-.05,1.1-.22.61-.3.95-.82,1.1-1.45.08-.35.15-.72.05-1.13-.11-.42-.25-.78-.54-1.1-.48-.53-1.08-.77-1.78-.77-.14,0-.28.09-.42.1-.43.03-.75.26-1.05.53-.4.38-.61.84-.7,1.4-.07.45-.03.87.15,1.27.14.31.32.63.58.84Zm-.02-2.4c.1-.56.31-1.12.91-1.36.14-.06.3-.07.45-.08.5-.04.93.1,1.24.5.15.2.3.42.37.66.1.31.12.65.18.98-.02,0-.04,0-.05,0,.06.5-.04.95-.29,1.39-.13.23-.31.39-.54.48-.24.09-.49.21-.76.15-.59-.13-1.02-.47-1.28-1.03-.25-.54-.31-1.12-.21-1.68Zm57.48.2c-.65-.36-.75-.5-.69-1.21.02-.21.16-.36.32-.4.38-.1.77-.13,1.04.24.1.14.17.29.26.44.03.04.07.07.11.1.03-.05.09-.1.09-.14-.03-.26-.07-.52-.12-.78,0-.03-.04-.07-.07-.07-.22-.05-.44-.11-.66-.12-.21,0-.43.06-.64.1-.44.08-.76.37-.86.78-.11.46-.06.94.38,1.26.24.17.51.31.76.47.42.25.83.49.79,1.09-.03.45-.33.75-.76.75-.49,0-.93-.3-1.1-.86-.06-.2-.15-.19-.28-.14.03.23.03.45.08.66.04.17.07.36.29.43.32.1.64.11.96.12.57.02.98-.25,1.27-.7.11-.18.17-.43.15-.64-.03-.26-.14-.51-.35-.71-.3-.28-.64-.48-.99-.67Zm-26.36,17.96c-.08.08-.19.17-.29.18-.4.02-.8.02-1.19,0-.2-.01-.25-.16-.13-.32.08-.1.17-.19.3-.32-.27-.19-.53-.3-.83-.3-.7,0-.7,0-.76.68-.02.21-.11.28-.31.27-.26-.01-.52,0-.78,0-.2,0-.5-.07-.5.2,0,.27.3.16.47.17.26.02.52,0,.78,0,.25.01.3.11.23.35-.1.34-.21.68-.3,1.03-.2.78-.76,1.27-1.36,1.73-.16.12-.34.22-.51.33,0,.03.02.05.03.08.18-.01.37.01.53-.05.42-.17.84-.33,1.23-.59.51-.36.89-.79,1.14-1.35.18-.41.37-.81.42-1.26.02-.15.16-.27.36-.27.33,0,.67,0,1,0,.24,0,.33.1.31.34-.02.28,0,.56-.06.84-.05.27-.14.54-.27.78-.14.25-.35.44-.68.37-.15-.03-.3-.07-.46-.1-.06,0-.13.02-.2.03.02.06.03.13.06.19.03.04.07.08.12.11.33.2.53.48.65.84.02.06.15.11.23.11.6.02,1.01-.3,1.32-.77.18-.27.29-.56.34-.89.06-.37.17-.72.21-1.09.04-.29-.06-.61.33-.83-.31-.22-.56-.39-.82-.56-.22-.15-.42-.08-.61.09Zm-4.51-19.49c.18,0,.37.01.55,0,.3-.02.47.13.58.4.05.14.13.26.19.4.03,0,.05,0,.08-.01.01-.06.04-.12.04-.17,0-.27,0-.55,0-.82,0-.2-.1-.25-.29-.17-.11.04-.22.08-.33.08-.87,0-1.74,0-2.61,0-.12,0-.24-.05-.36-.08-.11-.03-.25-.07-.26.08-.02.36,0,.72,0,1.08.02,0,.05.01.07.02.04-.07.09-.13.13-.21.22-.53.29-.58.87-.58.07,0,.15,0,.22,0,.3,0,.31,0,.31.31,0,1.06,0,2.12,0,3.18,0,.35-.05.41-.4.44-.11.01-.24.01-.27.18h2c-.09-.19-.23-.18-.36-.18-.19,0-.28-.11-.3-.29-.02-.14-.02-.27-.02-.41,0-.95,0-1.9,0-2.86,0-.06,0-.13,0-.19,0-.12.06-.19.19-.19Zm.37,16.71c-.33-.19-.65-.22-.96.07-.12.11-.32.17-.49.18-.56.02-1.12.01-1.68,0-.32-.01-.63-.07-.95-.1-.12-.01-.24-.03-.35,0-.05,0-.12.09-.13.15-.01.06.02.16.07.19.07.04.16.04.25.04.36,0,.71,0,1.07-.01.18,0,.26.08.25.25,0,.14,0,.28-.04.42-.11.38-.22.78-.38,1.14-.26.58-.56,1.14-.86,1.71-.12.23-.3.43-.45.64.13.03.25.03.32-.03.41-.32.87-.6,1.13-1.08.07-.13.2-.23.31-.35l.08.05c0,.07.02.14.02.22,0,.62,0,1.25,0,1.87,0,.34-.1.45-.44.44-.21,0-.41-.03-.69-.05.09.12.12.22.18.24.38.14.56.44.7.79.03.08.17.18.25.17.22-.02.45-.06.64-.16.44-.26.65-.67.65-1.18,0-1.13,0-2.26,0-3.39,0-.47,0-.95.01-1.42,0-.26.1-.3.36-.28.24.02.25.18.22.35-.04.21-.12.41-.17.61-.05.21-.1.41-.15.62.03.02.06.04.09.06.64-.52,1.28-1.05,1.97-1.61-.28-.19-.53-.38-.81-.54Zm-7.72,2.66s-.04,0-.08,0c-.09-.19-.02-.33.12-.48.21-.22.19-.35-.08-.5-.23-.13-.48-.23-.7-.38-.2-.13-.34-.08-.52.05-.15.12-.35.24-.53.25-.44.04-.88.02-1.32.01-.22,0-.33-.13-.35-.37-.04-.42.05-.67.25-.73.03,0,.06,0,.1,0,.46,0,.93,0,1.39,0,.09,0,.23.05.27.12.17.34.39.42.76.29.28-.1.45-.24.45-.53,0-.24,0-.47,0-.71,0-.19.03-.35.18-.49.17-.16.14-.27-.07-.4-.23-.15-.47-.29-.71-.42-.32-.17-.32-.16-.58.07-.1.09-.24.2-.37.21-.43.03-.86,0-1.29.01-.21,0-.32-.12-.36-.3-.11-.5.07-.71.57-.71,1.09,0,2.18,0,3.27,0,.18,0,.37-.04.57-.07-.18-.45-.49-.68-.81-.92-.41-.3-.45-.32-.77.07-.05.06-.08.12-.12.19-.16.26-.34.46-.69.41-.24-.03-.5,0-.74,0-.3,0-.61.02-.9,0-.12-.01-.23-.12-.34-.18.06-.08.11-.17.17-.25.06-.08.14-.15.25-.27-.07-.04-.11-.06-.15-.08-.28-.15-.59-.17-.9-.17-.58,0-.58-.02-.58.57,0,.39,0,.39-.4.39-1.2,0-2.39,0-3.59,0-.11,0-.3-.07-.3.14,0,.2.15.24.31.24.04,0,.09,0,.13,0,1.06-.01,2.11-.02,3.17-.03.72,0,.71,0,.69.71,0,.22-.08.31-.3.3-.48-.01-.97,0-1.46-.01-.17,0-.34-.07-.52-.12-.19-.05-.38-.13-.58-.16-.24-.04-.37.08-.38.32,0,.65-.01,1.29,0,1.94,0,.26.18.39.43.43.33.04.57-.08.74-.34.11-.16.25-.22.44-.21.3.01.6,0,.91,0,.79.02.71-.17.71.75,0,.33-.02.35-.35.35-.86,0-1.72,0-2.59,0-.1,0-.2-.01-.29,0-.15.02-.18.11-.09.23.13.17.31.16.5.12.2-.04.39-.09.59-.1.51-.01,1.01,0,1.52,0,.69,0,.72.03.71.73,0,.36-.01.37-.36.37-1.22,0-2.44,0-3.65,0-.05,0-.11-.01-.16,0-.06.02-.13.06-.14.1-.02.05.02.16.05.16.15.04.3.08.45.07.12,0,.25-.08.37-.08,1.01,0,2.03,0,3.04,0,.28,0,.39.12.4.39,0,.13,0,.26,0,.39,0,.36-.1.47-.47.45-.91-.05-1.83.13-2.73-.1-.07-.02-.19.13-.29.2.08.06.16.12.24.16.03.02.08,0,.13,0,.88,0,1.77-.01,2.65-.02.43,0,.47.04.47.49,0,.05,0,.11,0,.16-.02.2-.14.31-.34.32-.15,0-.3-.01-.45,0-.14.01-.27.06-.4.09.11.09.21.2.33.26.25.12.43.27.47.56.03.17.15.3.34.27.19-.03.37-.07.55-.13.52-.15.72-.52.7-1.05,0-.2-.01-.41,0-.61.02-.25.14-.36.39-.37.42,0,.84,0,1.26,0,.42,0,.49.07.52.51,0,.12.07.28.16.35.28.22.55.03.81-.08.18-.07.21-.24.21-.43,0-.46,0-.93,0-1.39,0-.32.11-.43.42-.43.18,0,.37,0,.55,0,.23-.01.3-.14.19-.34-.28-.51-.62-.58-1.05-.21Zm-4.66-2.79c0,.24-.11.37-.35.38-.42.02-.84.01-1.26,0-.2,0-.31-.13-.34-.33,0-.03,0-.06,0-.1-.06-.8-.04-.82.75-.82.09,0,.17,0,.26,0h0c.24,0,.47,0,.71,0,.16,0,.24.08.23.24,0,.2,0,.41,0,.61Zm1.28-.71c.07-.08.19-.13.3-.14.21-.02.43,0,.65,0h0c.22,0,.43,0,.65,0,.24.01.34.13.36.37,0,.13,0,.26,0,.39,0,.32-.11.46-.43.48-.39.02-.78.02-1.16,0-.11,0-.24-.09-.33-.17-.16-.15-.18-.75-.03-.91Zm2.08,4.89c-.01.26-.13.38-.41.39-.11,0-.22,0-.32,0h-.32c-.23,0-.45,0-.68,0-.19,0-.34-.06-.37-.24-.04-.24-.06-.49-.01-.72.04-.18.22-.28.43-.28.42,0,.84,0,1.26,0,.28,0,.41.14.42.41,0,.14,0,.28,0,.42Zm-.08-1.23c-.07.07-.2.13-.3.14-.23.02-.47,0-.71,0-.23,0-.45,0-.68,0-.07,0-.16,0-.22-.03-.16-.08-.24-.44-.17-.71.05-.2.17-.35.4-.36.46,0,.92,0,1.39,0,.09,0,.18.06.25.12.16.14.19.69.04.84Zm-.88-19.64c.05,0,.1-.07.15-.11-.05-.03-.1-.09-.14-.09-.49,0-.99,0-1.48,0-.05,0-.1.07-.15.11.05.03.09.08.14.09.3.07.42.19.42.5,0,.37,0,.73,0,1.16.02.49-.05,1.05.11,1.6.13.44.38.79.78.95.51.2,1.05.22,1.59.04.4-.13.66-.39.82-.74.13-.3.21-.64.22-.97.03-.68,0-1.35.01-2.03,0-.28.15-.44.42-.51.05-.01.09-.06.14-.09-.05-.04-.1-.1-.16-.1-.41,0-.82,0-1.24,0-.06,0-.11.06-.17.09.05.04.1.1.15.1.33.03.53.31.53.61,0,.67,0,1.34,0,2,0,.23-.07.47-.14.69-.11.31-.33.53-.65.61-.27.07-.54.11-.85.03-.46-.12-.87-.53-.89-.95-.04-.86-.03-1.72-.02-2.58,0-.34.06-.36.41-.41Zm16.98,0s.08-.06.12-.09c-.04-.04-.08-.08-.12-.11-.02-.01-.05,0-.08,0-.48,0-.95,0-1.43,0-.07,0-.15.03-.22.04,0,.03,0,.06,0,.09.05.03.1.06.16.07.35.07.49.22.49.57,0,.96,0,1.92,0,2.88,0,.07,0,.15,0,.22-.03.23-.14.35-.38.37-.12,0-.21.03-.24.19h1.84c-.06-.17-.17-.17-.29-.2-.09-.02-.21-.06-.24-.13-.07-.15-.13-.33-.13-.49-.01-.92,0-1.83,0-2.75,0-.44.12-.57.55-.66Zm-52.89,0c.06,0,.11-.04.19-.08-.05-.06-.07-.09-.09-.1-.57,0-1.13-.02-1.7-.02-.03,0-.06.07-.1.1.04.03.07.08.12.09.39.09.54.22.54.61.01.96,0,1.92,0,2.88,0,.33-.17.48-.51.55-.06.01-.1.08-.15.12.06.03.12.08.17.08.92,0,1.85,0,2.77,0,.13,0,.21-.03.25-.16.07-.26.14-.52.2-.78.01-.06-.03-.12-.04-.18-.06.04-.13.07-.16.13-.16.31-.33.63-.69.73-.24.07-.5.05-.76.05-.35,0-.52-.17-.52-.52,0-.99,0-1.98,0-2.97,0-.33.14-.49.47-.55Zm58.48,4.13c.33.18.69.27,1.04.22.73.06,1.28-.23,1.73-.71.28-.3.4-.68.52-1.08.15-.51.06-.96-.1-1.43-.04-.1-.06-.21-.12-.3-.19-.3-.39-.57-.72-.76-.36-.21-.74-.35-1.14-.37-.51-.03-.98.15-1.42.42-.55.34-.82.87-.94,1.44-.09.44-.1.92.1,1.37.22.52.58.92,1.08,1.2Zm-.01-3.75c.16-.17.4-.32.62-.37.92-.17,1.54.21,1.85,1.14.1.29.18.6.17.9-.01.63-.03,1.29-.58,1.74-.36.29-.75.42-1.26.27-.69-.2-.97-.72-1.19-1.3-.11-.27-.11-.58-.16-.87.08-.55.15-1.1.54-1.52Zm-58.48,17.49c-.25-.1-.29-.34-.11-.56.05-.07.13-.12.17-.19.27-.42.57-.83.78-1.28.11-.23.21-.41.43-.53.24-.13.27-.22.06-.4-.24-.2-.51-.35-.77-.52-.29-.19-.42-.16-.61.15-.11.18-.24.25-.45.24-.3-.01-.6,0-.91,0-.18,0-.32-.04-.4-.25.19-.34.39-.69.62-1.08-.03-.02-.09-.13-.17-.14-.38-.06-.76-.1-1.14-.15-.19-.02-.25.07-.24.25,0,.23.04.46-.02.68-.15.57-.3,1.15-.54,1.69-.27.59-.65,1.12-.97,1.69-.04.06-.04.15-.06.22.08-.02.19-.01.25-.07.33-.31.65-.63.97-.95.19-.19.36-.39.54-.59.06.08.09.1.1.13.21.38.43.76.61,1.15.05.11.05.34-.03.4-.35.32-.7.66-1.1.9-.58.34-1.21.61-1.86.92.04.03.08.09.12.09.23-.03.47-.05.69-.13.21-.07.28.03.34.18.03.07.02.17.02.26,0,1.01,0,2.03,0,3.04,0,.68.06.73.73.63.18-.03.28-.13.32-.31.06-.35.08-.36.44-.36.53,0,1.06,0,1.58,0q.52,0,.7.51c.08.25.29.34.53.25.08-.03.16-.06.24-.09.23-.07.42-.3.41-.54,0-.79-.02-1.57,0-2.36,0-.13.06-.3.15-.39.17-.17.14-.29-.03-.42-.09-.07-.17-.17-.25-.25,0-.02.02-.04.02-.06.3.05.4-.14.55-.34.2-.26.4-.57.77-.65.05-.01.08-.09.13-.15-.39-.07-.74-.15-1.09-.19-.53-.05-1.03-.24-1.52-.43Zm-2.14-1.84c-.19-.28-.15-.62.09-.84.09-.08.24-.13.36-.15.18-.02.36,0,.55,0,.17,0,.34,0,.52,0,.28,0,.33.04.29.32-.03.21-.1.41-.19.6-.13.28-.3.53-.46.8-.15.25-.4.28-.59.05-.2-.25-.4-.51-.57-.77Zm1.74,6.63c-.59,0-1.18,0-1.78,0-.35,0-.46-.13-.47-.47,0-.01,0-.02,0-.03v-.84c0-.29,0-.58,0-.87,0-.32.11-.42.42-.42.57,0,1.14,0,1.71,0,.35,0,.48.11.48.46,0,.6,0,1.21,0,1.81,0,.28-.09.36-.38.37Zm.4-3.05c-.18.11-.37.19-.6.18-.48-.02-.97-.03-1.45,0-.45.03-.84-.08-1.24-.35.07-.07.12-.16.2-.2.55-.25,1.1-.49,1.65-.75.27-.13.43-.1.67.07.27.2.58.36.87.53.11.06.22.12.33.19-.16.13-.28.24-.42.33Zm.95,0s-.04-.03-.06-.04c.02-.02.03-.05.05-.06.02,0,.05.02.08.04-.03.03-.05.06-.07.06Zm62.39-3.17c-.44-.28-.64-.26-.97.13-.06.07-.09.18-.16.24-.13.1-.27.24-.42.25-.36.03-.73,0-1.1,0-.25-.01-.4-.15-.4-.38,0-.52,0-1.03,0-1.55,0-.23.13-.35.36-.37.47-.04.93-.09,1.4-.14.04,0,.08-.02.13-.03.45-.08.9-.15,1.35-.23.09-.02.25-.07.25-.11,0-.1-.03-.25-.11-.31-.27-.21-.55-.4-.85-.58-.08-.05-.22-.05-.3-.01-.47.23-.93.47-1.4.71-.51.26-1.01.3-1.51-.02-.13-.08-.28-.13-.46-.2-.02.11-.04.19-.05.27-.02,1.59.04,3.18-.12,4.78-.07.67-.06,1.33-.26,1.99-.26.84-.6,1.62-1.26,2.22-.14.13-.26.27-.39.41.02.02.04.05.06.07.68-.11,1.21-.5,1.68-.96.86-.85,1.13-1.98,1.32-3.12.1-.6.1-1.22.15-1.82,0-.09.06-.18.12-.25.14-.15.87-.14,1,0,.05.06.09.14.11.22.02.09,0,.19,0,.29,0,1.75,0,3.49,0,5.24,0,.13.02.29.1.39.15.21.46.28.67.19.35-.14.41-.24.41-.6,0-1.75,0-3.49,0-5.24,0-.09,0-.17,0-.26.02-.21.13-.33.35-.34.2,0,.41,0,.61,0,.08,0,.2-.04.21-.08.02-.08,0-.2-.04-.27-.16-.19-.31-.4-.52-.53Zm5.98-16.64s-.08.06-.11.09c.04.04.08.09.12.11.04.02.09,0,.14,0,.22.02.41.22.42.43.02.83.03,1.67.04,2.5,0,.06-.02.12-.05.24-.14-.14-.24-.23-.33-.34-.28-.35-.55-.7-.84-1.04-.32-.38-.65-.74-.98-1.11-.05-.05-.09-.11-.13-.18-.31-.46-.65-.84-1.28-.71-.04,0-.08,0-.11,0-.07.02-.13.06-.2.09.06.04.11.1.18.11.36.08.49.22.51.59,0,.05,0,.11,0,.16,0,.94,0,1.89-.02,2.83,0,.31-.08.39-.39.45-.06.01-.11.08-.17.13.06.03.12.08.18.08.42,0,.84,0,1.26,0,.05,0,.11-.03.16-.05,0-.02,0-.05,0-.07-.08-.03-.17-.08-.25-.09-.28-.04-.33-.07-.38-.36-.02-.1-.07-.19-.07-.29,0-.85,0-1.69,0-2.6.08.06.12.08.14.11.1.13.2.26.3.39.24.29.49.59.74.88.24.29.49.57.73.86.32.39.64.79.97,1.18.03.04.06.07.1.1.12.09.2.06.22-.1,0-.07,0-.15,0-.22,0-.81,0-1.61,0-2.42,0-.36.05-.71.06-1.07.01-.31.15-.49.48-.5.04,0,.08-.07.12-.11-.04-.03-.08-.08-.12-.08-.48,0-.95,0-1.43,0Zm-55.44,17.98c-.28-.24-.59-.25-.78.14-.17.35-.46.58-.91.52-.2-.03-.41,0-.61,0-.34,0-.35-.02-.35-.34,0-.56,0-1.12,0-1.68,0-.35.09-.44.44-.44.73,0,1.47,0,2.2,0,.1,0,.2-.01.33-.02-.03-.09-.03-.15-.06-.19-.26-.27-.51-.56-.79-.81-.27-.23-.42-.19-.61.12-.39.63-.49.67-1.21.65-.22,0-.31-.08-.31-.3,0-.4,0-.8,0-1.2,0-.2,0-.38.18-.52.12-.1.15-.23-.06-.28-.28-.06-.56-.12-.84-.18-.34-.07-.48.02-.51.37-.02.21,0,.43,0,.65,0,.33,0,.67,0,1,0,.38-.09.45-.46.45-.38,0-.75-.03-1.13-.03-.07,0-.19.04-.21.1-.02.05.02.18.08.21.08.05.22.11.29.07.29-.16.59-.1.88-.11.47,0,.54.07.55.54,0,.42,0,.84,0,1.26,0,.67,0,.67-.66.67-.55,0-1.1,0-1.65-.02-.15,0-.25.07-.23.2.01.07.14.15.22.17.15.03.3,0,.45,0,.45,0,.91,0,1.36,0,.29,0,.32.07.21.32-.01.03-.03.06-.04.09-.28.79-.56,1.57-.84,2.36-.15.44-.47.61-.92.58-.16-.01-.33-.01-.48.01-.2.03-.33.21-.29.35.08.25.15.51.24.75.05.14.16.25.29.12.34-.33.8-.25,1.19-.39.28-.1.61-.1.91-.16.23-.04.45-.11.68-.17.29-.07.57-.15.86-.23.32-.08.64-.14.95-.24.34-.11.67,0,.76.3.06.2.1.41.16.61.06.22.37.48.59.49.18,0,.55-.26.58-.46.05-.38.05-.75-.2-1.07-.58-.73-1.33-1.22-2.23-1.48-.06-.02-.13.01-.23.03.07.08.11.12.15.15.2.2.41.39.59.6.2.22.14.39-.15.45-.27.05-.55.09-.82.11-.21.02-.43.01-.65.03-.51.04-1.03.08-1.54.11-.04,0-.09-.03-.15-.06.12-.19.23-.36.35-.52.58-.73,1.12-1.49,1.54-2.32.13-.24.32-.4.64-.39.62.03,1.25,0,1.88,0,.27,0,.54,0,.81,0,.09,0,.23-.06.26-.13.03-.07-.03-.21-.09-.28-.18-.21-.38-.41-.59-.6Zm43.34,2.3c.01.1.08.25.16.29.29.14.56.02.82-.11.18-.09.2-.26.2-.44,0-.74,0-1.49,0-2.23,0-.2.02-.37.18-.52.18-.17.16-.31-.06-.43-.28-.16-.58-.31-.87-.46-.13-.07-.25-.04-.34.08-.19.25-.43.33-.74.29-.16-.02-.32,0-.48,0-.35,0-.37-.03-.38-.36,0-.32,0-.65,0-.97,0-.34.11-.43.44-.45.42-.03.84-.09,1.27-.14.04,0,.08-.03.12-.04.34-.07.68-.14,1.02-.22.08-.02.15-.05.22-.08-.03-.07-.05-.18-.1-.22-.3-.21-.61-.43-.93-.61-.09-.05-.27-.03-.36.03-.29.17-.56.39-.86.55-.33.18-.65.43-1.07.35-.18-.04-.36-.1-.54-.18-.32-.13-.4-.09-.41.26,0,.33,0,.67,0,1-.04,1.53-.09,3.05-.13,4.58,0,.04,0,.09,0,.13-.08.47-.18.94-.25,1.41-.08.56-.17,1.11-.38,1.63-.03.08,0,.18,0,.27.03.02.06.03.09.05.11-.1.25-.17.32-.29.3-.48.62-.95.84-1.46.23-.54.42-1.11.45-1.71.01-.21.14-.33.36-.33.34,0,.69,0,1.03,0,.23,0,.36.1.39.34Zm-1.42-.67c-.16,0-.24-.11-.23-.29.03-.33.05-.66.07-.99.02-.34.05-.69.05-1.03,0-.19.07-.3.28-.3.27,0,.54-.02.8,0,.31.02.43.16.44.47,0,.29,0,.58,0,.87,0,.31,0,.62,0,.93,0,.2-.07.32-.26.33-.38.02-.77.02-1.16.01Zm-43.43-15.27c-.44-.03-.73-.29-.93-.66-.05-.09-.08-.18-.13-.27-.02-.04-.07-.06-.11-.1-.03.04-.08.08-.09.12-.03.3.02.58.14.85.03.06.1.12.16.14.28.06.56.11.84.17.39,0,.73-.08,1.04-.31.73-.55.72-1.46-.04-1.98-.34-.24-.7-.44-1.06-.66-.37-.23-.53-.59-.41-1,.05-.15.16-.34.3-.4.3-.13.78-.16,1.04.2.11.14.18.31.28.46.03.04.07.07.11.1.03-.04.09-.08.09-.12,0-.21,0-.42-.02-.63-.01-.09-.08-.21-.16-.24-.19-.07-.4-.1-.61-.13-.34-.04-.66.06-.97.2-.82.39-.82,1.37-.22,1.9.28.25.64.4.96.61.31.21.6.43.62.87.03.59-.38.89-.84.87Zm-6.09,10.93c.09.19.22.37.48.37.26,0,.46-.09.59-.34.18-.36.14-.72-.11-1.01-.49-.56-1.12-.72-1.83-.64-.03.04-.06.08-.09.12.1.06.22.11.29.2.18.23.37.47.51.73.09.17.08.4.17.57Zm-1.74,1.04s-.03.06-.05.1c.01.04.01.08.03.12.23.35.43.71.41,1.16,0,.16.07.34.16.48.13.2.31.33.59.31.23-.02.35-.1.44-.3.22-.48.15-.93-.24-1.24-.19-.15-.39-.3-.61-.4-.23-.11-.49-.15-.73-.23Zm2.37,2.48c.1-.33.22-.66.33-.99.16-.46.32-.91.47-1.37.04-.13.03-.28.04-.41-.03,0-.06-.01-.09-.02-.05.08-.11.15-.15.24-.64,1.3-1.28,2.61-1.93,3.91-.11.22-.25.38-.54.38-.21,0-.41.09-.69.16.29.14.5.22.7.34.1.06.25.17.25.26,0,.42.09.85-.06,1.27-.13.38-.12.8.14,1.13.11.14.35.28.51.26.27-.03.47-.24.62-.51.27-.48.05-.93-.08-1.36-.19-.62-.18-1.21.02-1.81.16-.49.31-.99.46-1.49Z"/>
</svg>