<?xml version="1.0" encoding="UTF-8"?>
<svg id="_圖層_1" data-name="圖層 1" xmlns="http://www.w3.org/2000/svg" viewBox="0 0 191.9 140">
  <defs>
    <style>
      .cls-1 {
        fill: #5e5e5e;
        stroke-width: 0px;
      }
    </style>
  </defs>
  <path class="cls-1" d="m43.74,104.98c.03-.17.07-.35.07-.52,0-.12-.09-.25-.13-.37-.08.08-.17.15-.24.25-.18.26-.37.52-.52.79-.41.74-1.13.88-1.87.93-.91.06-1.82.03-2.71-.17-.33-.07-.5-.23-.51-.58-.01-.37-.01-.73,0-1.1.02-.64-.14-1.31.35-1.87.12-.14.07-.35-.21-.47-.48-.2-.96-.16-1.45-.19-.33-.02-.46.1-.45.43.02.65,0,1.31,0,1.96,0,.61.01,1.21,0,1.82-.01.44.18.78.45,1.11.51.63,1.27.76,1.95.8,1.7.08,3.42.18,5.09-.36.41-.13.7-.42.84-.78.12-.31-.16-.56-.36-.77-.26-.26-.34-.56-.29-.91Zm-2.64-3.7c-.57-.42-1.23-.68-2.07-.56.1.17.15.26.21.34.46.52.76,1.1.85,1.81.06.51.59,1.02,1.02.97.59-.07,1.16-1.11.83-1.55-.26-.35-.49-.76-.83-1.01Zm142.07-55.93c-.15-.22-.13-.32.12-.46.7-.39,1.2-1.33.79-2.16-.29-.6-.76-.93-1.36-.97-.99-.06-1.98-.02-2.97-.01-.45,0-.73.29-.73.74,0,.76,0,1.52,0,2.28,0,.72,0,1.44,0,2.16,0,.08,0,.16,0,.24.01.32.16.49.42.49.24,0,.39-.18.39-.47,0-.58,0-1.17,0-1.75,0-.24.09-.34.34-.33.38.01.77.05,1.14,0,.57-.08.83.29,1.1.67.39.56.75,1.14,1.14,1.7.08.11.32.21.41.17.14-.07.26-.26.31-.42.03-.12-.05-.29-.13-.41-.31-.49-.63-.97-.96-1.45Zm-.71-1.07c-.39.05-.78,0-1.18,0h0c-.38,0-.76,0-1.14,0-.22,0-.33-.08-.32-.3,0-.32,0-.65,0-.97.01-.29.18-.45.46-.45.73,0,1.46-.02,2.19,0,.53.02.76.34.79.91.02.49-.29.74-.81.81ZM37.01,99.25c1.98,0,3.96,0,5.94,0,.61,0,.69.07.72.67.02.31.13.62.42.68.74.17,1.38-.04,1.37-.99-.01-1.68,0-3.35-.02-5.03,0-.36.07-.64.39-.86.27-.19.28-.51.02-.67-.43-.26-.89-.47-1.34-.69-.05-.02-.13-.02-.18.01-.23.14-.48.26-.66.44-.21.21-.42.3-.71.3-1.98-.01-3.96,0-5.94-.01-.21,0-.43-.08-.63-.14-.46-.15-.92-.32-1.39-.46-.48-.14-.51-.1-.52.42,0,1.17,0,2.33,0,3.5v.34c0,1.09,0,2.17,0,3.26,0,.33.08.64.34.8.63.38,1.44-.12,1.49-.89.04-.6.1-.66.71-.66Zm4.53-5.79c.3-.01.6,0,.91,0h0c.29,0,.57,0,.86,0,.23,0,.36.08.36.33,0,.6.01,1.21,0,1.81,0,.3-.2.47-.49.48-.56.02-1.11.02-1.67,0-.29,0-.48-.19-.48-.49-.01-.54-.01-1.08,0-1.62,0-.32.2-.49.51-.51Zm-.11,2.99c.32.02.64,0,.96,0,.3,0,.61.01.91,0,.26-.01.39.08.38.35,0,.56,0,1.12,0,1.68,0,.31-.16.42-.45.42-.59,0-1.18,0-1.77,0-.31,0-.43-.14-.43-.44,0-.54,0-1.09,0-1.63,0-.3.12-.39.41-.38Zm-5.17-2.31c.01-.45.24-.67.68-.68.29,0,.57,0,.86,0,.24,0,.48,0,.72,0,.48,0,.7.2.72.69.02.41.02.83,0,1.24-.01.4-.3.68-.7.69-.53.01-1.05.01-1.58,0-.41,0-.68-.28-.7-.69-.02-.41-.02-.83,0-1.25Zm0,2.8c.02-.29.18-.5.53-.49.33,0,.67,0,1,0,.29,0,.57,0,.86,0,.39,0,.56.15.58.53.02.45.04.9,0,1.34-.04.46-.27.61-.65.58-.57-.04-1.15,0-1.72-.01-.39,0-.58-.15-.6-.52-.03-.48-.03-.96,0-1.43Zm1.91-24.18c.3.02.6.01.9,0,.42,0,.79.14,1.04.46.21.27.34.6.51.9.04.06.1.11.15.16.05-.05.14-.11.14-.16-.04-.46-.07-.91-.15-1.36-.02-.1-.17-.24-.28-.26-.43-.09-.87-.15-1.31-.19-.72-.07-1.42.08-2.09.33-.87.32-1.55.86-1.9,1.74-.08.21-.09.45-.19.65-.33.66-.07,1.3.06,1.93.05.24.2.46.32.68.24.47.6.81,1.06,1.07.46.26.94.49,1.47.5.85.03,1.7.05,2.54-.16.35-.09.48-.21.48-.57,0-.53,0-1.06,0-1.59,0-.38.09-.46.44-.56.08-.02.14-.11.21-.17-.08-.04-.15-.11-.23-.12-.37-.01-.73,0-1.1,0-.29,0-.57-.02-.86,0-.15.01-.42-.12-.43.14-.01.25.24.13.38.15.31.05.59.23.59.44.01.52.02,1.03-.01,1.55,0,.14-.15.33-.29.4-.7.33-1.41.22-2.1-.08-.9-.39-1.35-1.19-1.5-2.07-.13-.75-.16-1.55.13-2.32.3-.78,1.15-1.55,2.01-1.49Zm13.69,23.08s-.08.03-.12.04c-.02.06-.07.11-.06.17.06.53-.14,1-.41,1.43-.26.41-.57.8-.86,1.19-.15.2-.21.41-.02.6.22.22.38.59.81.46.61-.19.93-.58,1.1-1.22.21-.82.14-1.55-.21-2.29-.06-.13-.14-.25-.21-.38Zm-2.52-18.96c.04-.1.24-.18.36-.19.54-.02,1.09,0,1.63,0,.16,0,.27.03.33.21.15.44.34.87.48,1.31.11.33,0,.46-.33.56-.09.03-.16.13-.25.19l.04.08h2.41s.04-.06.06-.09c-.09-.06-.18-.17-.27-.18-.37-.02-.56-.26-.68-.55-.25-.63-.48-1.27-.71-1.91-.39-1.06-.78-2.13-1.17-3.19-.11-.28-.25-.55-.37-.83-.04,0-.08,0-.12-.01-.1.16-.22.32-.29.49-.19.48-.36.97-.55,1.46-.27.69-.55,1.39-.84,2.07-.26.63-.52,1.26-.8,1.88-.13.3-.32.56-.71.58-.07,0-.14.13-.21.2.02.02.03.04.05.07h2.24s.03-.07.04-.11c-.13-.06-.25-.14-.39-.16-.4-.06-.47-.08-.4-.48.09-.48.26-.94.43-1.4Zm.33-.91c.27-.67.51-1.35.76-2.02.02-.04.05-.08.08-.12.03,0,.07,0,.1,0,.27.78.54,1.55.82,2.37-.13.04-.23.09-.33.09-.41,0-.81,0-1.22,0-.23,0-.32-.05-.21-.32Zm-3.41,26.89c-.59-.43-1.24-.79-1.86-1.17-.04.04-.09.08-.13.12.04.09.06.2.13.27.99,1.06,1.29,2.39,1.48,3.75.06.41.3.73.68.8.32.06.7-.14.91-.46.3-.47.26-1.02.11-1.47-.24-.72-.67-1.38-1.31-1.84Zm135.39-34.8c-.07,0-.14,0-.2,0-28.6,0-57.2,0-85.81,0-28.57,0-57.14,0-85.7,0-.1,0-.2,0-.31,0-.22-.02-.26.14-.22.34.06.28.26.26.44.26,8.66,0,17.33,0,25.99,0,10,0,20.01,0,30.01,0s19.8,0,29.7,0c9.92,0,19.85,0,29.77,0,8.66,0,17.32,0,25.99,0,9.28,0,18.55,0,27.83,0,.83,0,1.66,0,2.49,0,.2,0,.26-.1.26-.32,0-.21-.07-.3-.24-.28ZM34.28,102.92c-.11.32-.18.67-.34.96-.36.66-.91,1.17-1.48,1.65-.57.48-.49,1.11.13,1.53.47.33.96.19,1.44-.48.56-.78.84-1.69.81-2.67-.02-.53.12-1.09-.34-1.69-.09.29-.15.49-.22.68Zm114.4-37.95c.27.01.56-.03.81.05.53.16.87.05,1.15-.47.39-.72.89-1.38,1.33-2.08.42-.67.82-1.36,1.22-2.04.45-.76.91-1.52,1.36-2.28.18-.3.4-.49.81-.49,4.23.01,8.45,0,12.68,0,.87,0,1.74,0,2.61-.02.2,0,.33.04.45.25.34.62.73,1.22,1.08,1.84.6,1.04,1.19,2.07,1.78,3.12.35.62.68,1.25,1.03,1.87.19.35.25.36.65.29.29-.04.59-.05.89-.06.24,0,.48,0,.79,0-.05-.17-.07-.25-.1-.31-.63-1.14-1.26-2.28-1.9-3.42-.93-1.67-1.87-3.33-2.8-4.99-.68-1.21-1.34-2.42-2.02-3.62-.6-1.06-1.23-2.12-1.83-3.18-.75-1.32-1.48-2.65-2.22-3.98-.73-1.29-1.47-2.57-2.19-3.86-.26-.48-.69-.64-1.16-.69-.88-.09-1.47.38-1.88,1.12-.51.93-1.02,1.86-1.53,2.79-.95,1.76-1.9,3.52-2.86,5.28-.7,1.29-1.43,2.56-2.14,3.84-.42.75-.82,1.51-1.25,2.26-.63,1.11-1.27,2.22-1.91,3.33-.51.88-1.01,1.77-1.52,2.65-.49.84-.99,1.67-1.48,2.5-.11.18-.07.28.15.29Zm7.31-9.84c.46-.85.94-1.69,1.41-2.54.75-1.36,1.5-2.73,2.26-4.09,1.01-1.81,2.02-3.61,3.03-5.42.04-.07.12-.17.18-.18s.15.09.19.16c.78,1.38,1.56,2.76,2.33,4.14.93,1.68,1.85,3.36,2.78,5.04.52.94,1.05,1.87,1.57,2.81.08.15.16.31.23.47.11.26-.08.57-.36.65-.62.18-1.26.15-1.89.15-1.6,0-3.2,0-4.81,0h0c-1.89,0-3.77.01-5.66,0-.36,0-.72-.08-1.07-.17-.32-.08-.42-.63-.2-1.03ZM17.2,77.44c-.09.08-.14.19-.22.28-.27.3-.33.74-.8.91-.44.16-.86.1-1.28.11-.53.02-.82-.29-.82-.83,0-.45,0-.9,0-1.34,0-.96,0-1.93,0-2.89,0-.55.26-.85.72-.91.1-.01.18-.1.27-.15-.1-.05-.19-.14-.29-.14-.72-.01-1.44,0-2.16,0-.1,0-.2.04-.3.06,0,.04-.01.08-.02.11.07.04.14.11.22.12.55.12.73.32.73.87,0,1.41,0,2.83,0,4.24,0,.27,0,.55-.21.71-.14.11-.37.11-.55.17-.09.03-.16.11-.23.17.08.05.17.13.25.13,1.39,0,2.77,0,4.16,0,.27,0,.39-.14.45-.38.1-.36.21-.71.3-1.07.02-.06,0-.16-.02-.18-.06-.03-.17-.04-.21,0Zm116.47-13.79c-.53.02-1.06.01-1.59,0-.87-.01-1.49.37-1.87,1.14-.17.35-.12.42.25.41.94-.03,1.87-.05,2.81-.06.31,0,.62.04.93.1.67.14,1.29.03,1.88-.3.11-.06.23-.18.26-.29.13-.46.27-.92.33-1.39.05-.39.01-.79,0-1.18-.04-3.57-.08-7.14-.11-10.71,0-.95-.02-1.9.05-2.85.08-1.03.09-2.05-.12-3.07-.06-.27-.2-.53-.32-.81-.72.58-1.37,1.08-2.01,1.6-.77.64-1.53,1.28-2.29,1.94-.63.55-1.25,1.12-1.87,1.68-.05.05-.1.09-.15.13-.59.49-1.19.97-1.78,1.47-.84.72-1.68,1.45-2.51,2.18-.96.84-1.91,1.69-2.87,2.51-.35.29-.73.55-1.12.78-.62.38-1.29.33-1.87-.05-.62-.41-1.18-.9-1.74-1.38-.59-.5-1.15-1.02-1.73-1.53-.03-.03-.07-.05-.1-.07-.56-.46-1.13-.93-1.69-1.39-.43-.36-.86-.74-1.3-1.1-.78-.63-1.57-1.24-2.34-1.87-.74-.6-1.47-1.23-2.22-1.86-.08.09-.18.15-.19.23-.06.48-.16.97.04,1.44.24.56.72.9,1.16,1.28.48.41.99.79,1.48,1.19.49.41.95.84,1.44,1.24.8.66,1.63,1.3,2.43,1.95.67.55,1.34,1.1,1.99,1.66.89.76,1.78,1.54,2.66,2.32.45.39,1.26.51,1.77.21.32-.19.61-.43.91-.66.2-.16.37-.36.56-.53,1.09-.93,2.18-1.86,3.27-2.78.05-.04.1-.09.16-.13.55-.44,1.1-.88,1.63-1.33.5-.42.98-.85,1.47-1.27.35-.3.7-.59,1.06-.88.46-.37.95-.71,1.4-1.1.74-.65,1.45-1.34,2.19-2,.28-.25.6-.46.96-.74.01.21.02.32.02.44,0,3.26,0,6.52,0,9.78,0,1.41,0,2.83,0,4.24,0,.36-.11.66-.33.93-.26.33-.64.44-1.04.46Zm-105.13,13.77c-.16.26-.36.5-.48.77-.18.41-.53.52-.91.56-.39.03-.79.01-1.18,0-.39,0-.68-.3-.68-.7,0-.41,0-.81,0-1.22,0-1,0-1,1.01-1,.5,0,.89.15,1.06.67.02.07.11.12.17.18.04-.08.12-.15.12-.23.01-.52.01-1.03,0-1.55,0-.07-.08-.15-.13-.22-.06.06-.14.11-.17.18-.18.51-.56.68-1.07.66-.22,0-.44-.01-.65,0-.27.02-.36-.09-.36-.35.01-.62.01-1.25,0-1.87,0-.29.12-.38.39-.38.42.01.84.03,1.26,0,.38-.02.57.21.74.47.08.12.12.27.19.4.04.07.11.13.17.19.04-.09.12-.17.13-.26.02-.3,0-.6.01-.9.02-.29-.11-.36-.38-.36-1.3.01-2.61,0-3.91,0-.09,0-.19,0-.28.02-.04,0-.1.08-.1.11.01.06.06.12.11.15.06.03.13.02.2.03.3.01.47.16.51.47.04.35.11.69.12,1.04.02.95,0,1.9,0,2.85,0,.22.03.44,0,.65-.05.27-.1.57-.25.79-.08.13-.35.12-.54.19-.09.03-.16.1-.23.15.02.03.03.07.05.1.05.02.1.05.15.05,1.49,0,2.99,0,4.48-.01.13,0,.34-.16.38-.29.12-.35.17-.73.23-1.1.01-.07-.04-.16-.06-.24-.03,0-.06-.01-.09-.02Zm21.59-13.42c0,.35.08.67.31.93.3.33.72.27,1.06.17.34-.1.45-.44.45-.82-.01-3.72,0-7.44,0-11.16,0-3.75,0-7.49,0-11.24,0-.37-.14-.67-.43-.75-.33-.09-.71,0-1.07.05-.07.01-.13.18-.18.29-.23.5-.15,1.03-.15,1.56,0,3.8-.01,7.6-.02,11.4,0,3.19,0,6.38,0,9.57Zm-37.75-2.25c.26.14.5.3.74.47.46.32.9.68,1.37.98,1.37.84,2.84,1.45,4.37,1.92.25.08.51.14.77.19.39.07.79.13,1.19.19.71.11,1.43.26,2.15.31.83.05,1.66.01,2.49.01v.02c.43,0,.87.02,1.3,0,.74-.04,1.48.06,2.22-.17.44-.14.93-.1,1.38-.22.67-.18,1.32-.42,1.97-.65.96-.34,1.84-.83,2.63-1.45.8-.62,1.54-1.32,1.98-2.27.32-.7.6-1.41.57-2.2-.03-.62.11-1.25-.17-1.84-.22-.47-.36-.99-.66-1.4-.89-1.21-2.16-1.88-3.56-2.32-.47-.15-.95-.26-1.42-.39-.4-.1-.8-.21-1.2-.29-.36-.08-.73-.14-1.1-.21-.57-.1-1.13-.23-1.7-.29-.74-.09-1.48-.13-2.21-.19-.03,0-.05-.01-.08-.02-.84-.1-1.68-.21-2.52-.31-.56-.07-1.12-.12-1.68-.19-.34-.04-.69-.1-1.03-.18-.59-.15-1.19-.31-1.78-.48-.62-.18-1.28-.3-1.86-.57-1.11-.52-2.03-1.25-2.16-2.6-.33-.56-.05-1.14.08-1.65.21-.85.81-1.52,1.56-1.95,1.03-.59,2.13-1.04,3.3-1.25.27-.05.54-.14.81-.21.33-.09.66-.23,1-.28.64-.09,1.28-.14,1.93-.21.16-.02.32-.08.48-.08.74-.02,1.49-.06,2.23-.02.65.04,1.3.19,1.95.29.36.06.72.09,1.06.2.62.19,1.23.42,1.85.65.93.35,1.8.83,2.62,1.38.36.24.71.49,1.07.72.51.34.74.31,1.18-.09.53-.49.53-.94-.02-1.39-.19-.16-.41-.3-.62-.44-.4-.27-.79-.56-1.21-.8-1.01-.57-2.09-1-3.19-1.36-.23-.07-.46-.14-.69-.19-.35-.08-.71-.13-1.06-.2-.48-.1-.96-.23-1.45-.3-.49-.08-.99-.13-1.48-.16-1.56-.1-3.11.03-4.67.16-.05,0-.1.03-.16.04-.44.1-.89.19-1.33.28-.34.07-.68.12-1.02.22-.44.13-.88.29-1.31.47-.57.24-1.14.46-1.67.78-.87.52-1.67,1.13-2.32,1.93-.64.8-.98,1.69-1.06,2.69-.04.44.04.88.14,1.32.15.68.44,1.27.86,1.79.78.97,1.84,1.55,2.99,1.97.71.26,1.45.45,2.17.69.78.26,1.56.44,2.38.5.05,0,.11.02.16.03.55.1,1.1.23,1.66.29.78.09,1.56.13,2.34.19.04,0,.08.02.12.02.8.1,1.6.21,2.4.31.57.07,1.15.09,1.72.19.64.12,1.26.35,1.9.46.73.13,1.4.42,2.08.71.91.4,1.64,1,2.12,1.89.24.44.38.94.35,1.42-.04.71-.24,1.39-.63,2.02-.48.77-1.1,1.39-1.9,1.84-.52.3-1.05.58-1.64.72-.54.13-1.07.32-1.61.45-.54.13-1.09.25-1.64.33-.58.09-1.18.19-1.77.17-1.42-.03-2.84.17-4.25-.15-.69-.16-1.41-.19-2.09-.39-.89-.27-1.77-.6-2.62-.98-1.51-.68-2.97-1.47-4.14-2.69-.1-.11-.28-.18-.43-.2-.46-.06-1.01.38-1.16.89-.11.38.17.86.63,1.11Zm169.6-21.85c-3.15-.23-5.16,2.29-5.33,4.48-.24,3.09,2.19,5.43,4.93,5.34,2.66.13,4.97-2.2,4.94-4.86-.03-2.9-2.15-4.78-4.54-4.96Zm-.16,9.15c-2.87.08-4.51-2.04-4.49-4.24.02-2.4,1.84-4.22,4.25-4.23,2.21,0,4.2,1.6,4.24,4.25.02,2.42-1.96,4.17-4,4.23Zm-76.33,14.24c.05.33.1.67.23.96.1.23.32.43.53.58.48.37,1.07.46,1.65.46,1.1,0,2.19-.09,3.29-.15.34-.02.48-.33.28-.62-.37-.54-.86-.88-1.55-.87-.64.01-1.28,0-1.92,0-.34,0-.97-.38-1.01-.69-.04-.32-.09-.65-.1-.97-.01-.79,0-1.58,0-2.36,0-4.81,0-9.62.01-14.42,0-.19,0-.37,0-.56.04-.03.08-.05.12-.08.22.16.46.31.67.48.5.42.98.85,1.47,1.27.36.31.73.6,1.09.9.52.43,1.05.84,1.57,1.28.47.39.91.8,1.38,1.19.82.68,1.66,1.33,2.49,2.01.67.55,1.33,1.1,1.99,1.66.77.64,1.51,1.3,2.3,1.93.22.17.54.33.8.31.28-.02.57-.22.81-.4.43-.32.83-.69,1.25-1.03.51-.42,1.04-.82,1.55-1.24.45-.37.88-.76,1.32-1.13.34-.29.68-.57,1.03-.85.47-.38.96-.74,1.43-1.13.47-.39.92-.8,1.38-1.19.32-.27.65-.53.97-.79.47-.37.94-.72,1.4-1.1.46-.38.9-.77,1.36-1.16.31-.26.61-.53.94-.77.82-.59,1.58-1.23,2.27-1.95.28-.29.4-.63.36-1.03-.05-.43-.49-.67-.85-.45-.25.16-.48.34-.71.53-.19.16-.34.35-.54.5-.44.35-.9.68-1.34,1.04-.42.34-.83.7-1.24,1.04-.3.25-.6.5-.91.74-.43.33-.87.64-1.28.98-.46.38-.9.78-1.35,1.16-.33.28-.66.55-1,.82-.43.34-.89.66-1.31,1.01-.48.39-.94.81-1.41,1.22-.38.33-.76.65-1.15.96-.52.43-1.04.86-1.58,1.26-.32.24-.65.51-1.01.63-.31.1-.74.11-1.03-.02-.44-.2-.83-.54-1.22-.84-.21-.16-.39-.38-.6-.55-.6-.51-1.21-1-1.81-1.51-.54-.47-1.07-.95-1.61-1.42-.38-.33-.77-.64-1.15-.96-.53-.44-1.07-.86-1.6-1.3-.51-.43-.99-.88-1.5-1.3-.77-.63-1.57-1.23-2.34-1.87-.55-.46-1.08-.94-1.61-1.43-.2-.18-.39-.29-.67-.32-.65-.07-.72-.03-.72.6,0,2.34,0,4.67,0,7.01s-.03,4.65,0,6.97c.04,2.33-.2,4.66.16,6.98Zm-40.11-6.82c.16.72.42,1.4.71,2.08.47,1.1,1.14,2.08,1.91,2.98.41.48.94.85,1.41,1.28.63.59,1.36,1.05,2.13,1.42.71.34,1.43.65,2.18.9.54.18,1.12.25,1.67.37.5.11.99.25,1.49.31.64.08,1.29.13,1.94.13.97,0,1.95-.07,2.92-.12.07,0,.13-.02.2-.04.5-.1,1-.19,1.5-.29.58-.12,1.16-.2,1.72-.37.71-.22,1.39-.52,2.08-.8,1.46-.6,2.77-1.42,3.89-2.55,1.01-1.01,1.57-2.24,1.91-3.58.15-.59.16-1.23.18-1.84.03-.65-.01-1.3,0-1.96.03-.88-.58-1.44-1.43-1.43-1.86.02-3.72,0-5.58,0h0c-.19,0-.38,0-.57,0-1.71,0-3.42,0-5.13,0-.32,0-.63.07-.84.31-.24.27-.24.62-.11.92.13.3.37.44.74.44,3.11-.02,6.22-.03,9.33,0,.95,0,1.59.49,1.58,1.54-.01.68.05,1.36-.15,2.05-.22.78-.54,1.49-1.05,2.1-.7.84-1.6,1.45-2.57,1.94-.77.39-1.58.71-2.38,1.05-.28.12-.57.25-.86.32-.59.15-1.2.25-1.79.38-.81.18-1.63.32-2.47.31-.49,0-.98.03-1.47-.02-.61-.07-1.22-.2-1.82-.31-.56-.11-1.14-.19-1.68-.38-.84-.29-1.67-.64-2.49-1.01-.79-.36-1.52-.82-2.15-1.4-.5-.45-.92-.98-1.36-1.5-.64-.76-1.09-1.63-1.41-2.56-.15-.43-.27-.87-.37-1.31-.12-.57-.29-1.15-.29-1.73,0-1.05-.17-2.11.14-3.15.11-.37.09-.78.21-1.14.24-.69.52-1.37.83-2.03.47-1,1.16-1.85,1.92-2.64.23-.24.52-.43.79-.63.27-.2.52-.42.81-.59.95-.55,1.96-1,3-1.34.24-.08.48-.15.73-.19.41-.08.83-.09,1.23-.21.75-.22,1.52-.16,2.28-.28.51-.07,1.05.05,1.57.11.56.06,1.13-.02,1.69.18.51.18,1.07.21,1.59.36.7.2,1.41.4,2.08.7,1.44.63,2.77,1.43,3.87,2.59.11.11.25.22.39.27.59.22.96-.07,1.29-.66.27-.47.23-.53-.16-.9-.2-.19-.45-.33-.67-.51-.84-.67-1.64-1.4-2.6-1.91-.6-.32-1.22-.64-1.85-.88-.61-.23-1.25-.37-1.88-.55-.41-.11-.82-.23-1.24-.3-.49-.08-.99-.13-1.49-.16-1.72-.11-3.44.08-5.16.17-.01,0-.03,0-.04,0-.73.16-1.47.29-2.18.5-.75.22-1.51.46-2.22.77-.9.39-1.69.97-2.48,1.56-1.04.78-1.82,1.77-2.51,2.83-.6.92-1.07,1.91-1.31,3-.14.65-.37,1.29-.46,1.94-.11.73-.14,1.48-.16,2.22,0,.39.12.78.12,1.17,0,.71.17,1.37.32,2.06Zm-9.37,41.7c.29-.3.32-.92.09-1.28-.28-.44-.67-.75-1.13-.99-.36-.18-.61-.42-.56-.89.04-.41-.01-.83.02-1.24.02-.2.14-.4.22-.59.05-.12.17-.3.13-.36-.08-.13-.25-.23-.4-.29-.22-.08-.46-.11-.69-.16-.57-.11-1.06-.15-1.03.75.04,1.71.03,3.42.03,5.12,0,3-.01,6-.02,9.01,0,.57.61.97,1.15.76.4-.16.6-.5.6-1.03,0-3.35,0-6.71,0-10.06,0-.13.03-.26.05-.39.35.43.36.43.4,1.22.02.4.32.52.6.67.27.14.41-.09.56-.24Zm32.79-4c-.4.82-.88,1.6-1.32,2.4-.04.08-.06.17-.14.37.23-.09.37-.13.49-.2.11-.06.2-.15.29-.24.73-.7,1.47-1.39,2.18-2.12.38-.39.51-1.02,1.12-1.22.05-.02.08-.09.15-.19-.6-.43-1.23-.73-1.97-.63-.13.02-.29.24-.35.4-.17.47-.23.98-.45,1.43Zm18.37-15.42c.02-.27.11-.55.21-.81.07-.18.22-.39.01-.49-.21-.1-.3.15-.38.32-.07.13-.11.29-.2.39-.15.17-.32.33-.5.45-.5.32-1.05.16-1.58.15-.35-.01-.48-.19-.48-.58,0-1.59,0-3.18.01-4.76,0-.45.14-.55.58-.62.09-.02.17-.11.26-.16-.09-.04-.17-.13-.26-.13-.71-.01-1.41-.01-2.12,0-.09,0-.18.1-.27.15.08.05.16.12.25.14.36.08.58.31.58.67,0,1.6,0,3.2,0,4.81,0,.35-.15.49-.49.51-.19.01-.39,0-.51.28.14.02.25.03.35.04.33,0,.65,0,.98,0,1.05,0,2.09,0,3.14,0,.25,0,.4-.03.43-.34Zm-5.38,17.08c-.19-.18-.4-.16-.6.01-.11.09-.22.18-.38.32-.07-.44-.1-.76.21-1.02.22-.19.2-.4-.04-.55-.39-.25-.8-.45-1.18-.71-.32-.22-.56-.15-.78.14-.2.27-.46.37-.79.32-.13-.02-.26,0-.38,0-.68,0-.75-.08-.66-.75.02-.11.09-.23.16-.32.11-.15.25-.28.41-.45-.12-.11-.2-.24-.31-.26-.56-.09-1.12-.16-1.69-.23-.25-.03-.35.09-.34.33,0,.35,0,.7,0,1.05-.01.44-.18.61-.61.61-.69,0-1.37,0-2.06,0-.17,0-.34.07-.53.12.28.43.28.45.64.43.57-.03,1.14-.14,1.71-.14.66,0,.85.24.85.88,0,.13,0,.26,0,.38,0,.61-.19.8-.79.81-.75.01-1.5,0-2.25,0-.13,0-.25-.05-.45-.09.11-.13.15-.19.2-.25.05-.05.1-.1.21-.2-.23-.15-.4-.29-.59-.37-.27-.11-.57-.16-.85-.26-.38-.14-.74.05-.86.43-.19.61-.36,1.23-.61,1.82-.53,1.28-1.19,2.49-2.06,3.58-.13.16-.21.36-.31.53.04.03.07.06.11.1.52-.4,1.05-.81,1.66-1.29v.61c0,1.9,0,3.8,0,5.7,0,.6.32.92.91.91.56,0,.86-.33.86-.91,0-2.51,0-5.02-.02-7.53,0-.69.1-1.29.53-1.87.25-.34.49-.49.9-.49.89.01,1.79,0,2.68,0,.57,0,.71.14.72.7,0,.13,0,.26,0,.38,0,.68-.16.86-.84.86-.64,0-1.27-.06-1.91-.09-.21,0-.44-.04-.43.29,0,.3.21.27.4.27.7,0,1.41,0,2.11,0,.52,0,.67.16.68.69,0,.16,0,.32,0,.48,0,.8-.08.89-.87.89-.72,0-1.44,0-2.16-.02-.25,0-.43.05-.54.4.2.06.38.15.56.16.8.02,1.6,0,2.4,0,.41,0,.58.17.6.57,0,.22,0,.45,0,.67-.01.43-.18.6-.62.6-1.01,0-2.01,0-3.02,0-.14,0-.28,0-.48,0,.32.65.6.61,1.06.5.2-.05.4-.1.61-.1.54-.02,1.09-.01,1.63,0,.57,0,.82.25.83.81,0,.7,0,1.41,0,2.11,0,.14.01.32.09.4.31.33.73.28,1.13.22.27-.04.54-.48.54-.82,0-.64,0-1.28,0-1.92,0-.69.11-.8.81-.8,1.34,0,2.68,0,4.03,0,.17,0,.33-.02.53-.03-.28-.59-.72-.92-1.16-1.26-.96-.74-.86-.58-1.39.18-.22.32-.45.73-.94.73-.5,0-.99,0-1.49,0-.3,0-.4-.13-.39-.4.01-.35.01-.7,0-1.05,0-.29.11-.4.4-.39.49.01.99,0,1.49,0,.61,0,1.21,0,1.82,0,.5,0,.53-.07.32-.51-.28-.56-.78-.88-1.29-1.17-.13-.07-.43-.02-.55.09-.26.22-.46.53-.69.79-.09.1-.2.22-.32.24-.28.04-.57.02-.86.02-.22,0-.31-.12-.31-.34,0-.46,0-.93,0-1.39,0-.25.13-.33.36-.33.37,0,.74,0,1.1,0,.19,0,.32.05.4.26.04.12.16.25.28.3.64.27,1.4-.22,1.43-.91.02-.54.02-1.09.01-1.63,0-.3.1-.44.42-.42.33.02.67.03,1.01,0,.18-.02.39-.11.52-.24.05-.05-.08-.32-.18-.44-.23-.27-.48-.51-.74-.75Zm-4.29,3.35c-.21-.02-.33-.16-.32-.4,0-.21,0-.41,0-.62,0-1.03-.07-.88.89-.89.13,0,.25,0,.38,0,.32-.02.46.18.52.45.03.12,0,.25.01.38.12,1.2-.44,1.18-1.49,1.08Zm.06-2.38c-.26-.02-.4-.17-.38-.45.01-.19,0-.38,0-.57q0-1,.99-1c.6,0,.73.08.8.69.15,1.35-.18,1.43-1.42,1.34Zm38.98,1.71c-.44-.14-.53-.49-.23-.86.58-.7.93-1.52,1.26-2.36.07-.18.33-.3.53-.4.13-.06.32,0,.47-.02.11-.01.22-.07.33-.11-.04-.1-.07-.2-.12-.29-.27-.51-.75-.81-1.19-1.15-.39-.3-.49-.27-.83.11-.15.17-.24.38-.4.54-.21.2-.43.5-.68.53-.61.08-1.24.03-1.87.02-.23,0-.35-.14-.24-.34.19-.31.42-.58.65-.87.08-.1.18-.18.28-.27-.11-.11-.21-.26-.34-.31-.38-.15-.77-.29-1.16-.39-.37-.1-.69.01-.79.26-.1.25-.19.5-.23.77-.1.7-.4,1.33-.72,1.94-.32.61-.69,1.19-1.09,1.86.22-.06.38-.08.51-.15.4-.25.8-.51,1.19-.78.31-.22.5-.18.67.16.29.6.55,1.21.89,1.78.19.32.13.51-.12.69-.71.49-1.42.99-2.26,1.27-.41.14-.81.29-1.22.44.11.11.22.15.31.13.48-.08.96-.05,1.46-.19.85-.23,1.68-.52,2.46-.91.35-.18.57-.14.85.11.75.68,1.7,1.01,2.63,1.35.24.09.55-.1.56-.37.02-.34.23-.51.43-.71.25-.25.52-.49.81-.76-.44-.11-.84-.2-1.23-.29-.53-.13-1.06-.25-1.59-.42Zm-1.45-1.8c-.39.77-.45.79-1.22.19-.37-.28-.64-.7-.91-1.09-.34-.48-.13-.88.47-.93.3-.02.61,0,.91,0,.3,0,.61,0,.91,0,.27,0,.35.13.36.38.02.56-.29.99-.52,1.45Zm-11.09-3.59c-.19.03-.24.15-.14.31.13.22.33.25.58.25,1.09-.01,2.17-.02,3.26-.02.17,0,.34.02.56.04-.05.57-.31.95-.6,1.31-.16.2-.37.31-.66.14-.3-.17-.63-.28-.97-.37-.18-.05-.39.01-.58.03.08.16.16.32.25.47.03.05.09.09.13.14.36.36.57.78.58,1.31,0,.41.26.73.62.89.27.12.57.1.84-.13.33-.28.3-.62.28-.96-.02-.37.03-.7.33-.95.51-.42,1.03-.84,1.55-1.26.12-.1.28-.15.42-.23.13-.07.35-.15.35-.23,0-.13-.1-.31-.22-.39-.42-.28-.88-.49-1.28-.79-.3-.22-.5-.14-.68.1-.23.3-.52.36-.88.35-1.18-.02-2.36-.02-3.55-.02-.06,0-.13-.01-.19,0Zm-33.6-14.65c.63.52,1.37.9,2.26.76.58.1,1.11-.07,1.62-.32.91-.44,1.41-1.22,1.63-2.14.12-.52.22-1.07.07-1.67-.16-.62-.38-1.16-.8-1.63-.71-.78-1.6-1.15-2.64-1.14-.21,0-.41.13-.62.15-.63.05-1.12.38-1.55.79-.59.56-.91,1.25-1.04,2.07-.11.67-.04,1.29.22,1.88.21.46.48.94.85,1.25Zm-.03-3.55c.14-.83.45-1.65,1.35-2.02.2-.08.44-.1.67-.12.74-.07,1.38.15,1.84.74.23.29.44.62.55.97.14.47.18.97.26,1.45-.03,0-.05,0-.08,0,.08.74-.06,1.42-.44,2.06-.2.34-.46.57-.8.7-.36.14-.73.31-1.13.22-.88-.2-1.52-.7-1.9-1.53-.37-.8-.46-1.66-.32-2.49Zm85.22.29c-.97-.54-1.11-.75-1.02-1.79.03-.31.24-.53.48-.6.56-.15,1.13-.19,1.54.36.15.2.25.44.39.65.04.06.11.1.16.15.05-.07.14-.15.13-.21-.04-.39-.11-.77-.18-1.15,0-.04-.06-.1-.11-.11-.33-.07-.66-.17-.98-.17-.31,0-.63.09-.94.15-.66.13-1.13.54-1.27,1.15-.16.68-.09,1.39.56,1.87.36.26.75.47,1.13.69.62.37,1.23.72,1.18,1.62-.04.66-.48,1.11-1.13,1.11-.73,0-1.38-.44-1.63-1.27-.09-.29-.23-.28-.41-.2.04.35.04.67.11.98.06.25.1.53.42.64.47.15.94.16,1.43.18.85.03,1.45-.38,1.88-1.04.17-.26.26-.64.23-.95-.04-.39-.2-.76-.52-1.06-.44-.42-.95-.71-1.46-.99Zm-39.08,26.63c-.12.11-.28.26-.43.26-.59.03-1.18.03-1.77,0-.29-.02-.37-.24-.19-.47.11-.15.26-.28.44-.47-.4-.29-.78-.44-1.23-.44-1.03,0-1.04,0-1.13,1.01-.03.32-.16.41-.45.4-.38-.02-.77-.01-1.15-.01-.29,0-.74-.1-.74.3,0,.41.44.23.7.25.38.03.77-.01,1.15,0,.37.02.45.16.34.52-.15.51-.32,1.01-.45,1.53-.29,1.16-1.12,1.88-2.01,2.56-.24.18-.51.32-.76.48.01.04.03.08.04.12.26-.02.55.02.78-.07.63-.25,1.25-.49,1.82-.88.76-.53,1.31-1.18,1.68-2.01.27-.6.54-1.19.63-1.86.03-.23.23-.4.53-.39.49.01.99,0,1.49,0,.36,0,.49.15.47.5-.02.41,0,.84-.09,1.24-.08.4-.21.8-.4,1.15-.2.37-.52.65-1.01.55-.23-.05-.45-.11-.68-.15-.1-.01-.2.02-.3.04.03.1.05.2.09.28.04.07.11.12.17.16.48.29.78.71.96,1.25.03.09.22.16.34.17.89.03,1.5-.45,1.96-1.15.26-.39.43-.83.5-1.31.09-.54.25-1.07.32-1.62.06-.43-.09-.9.48-1.24-.47-.32-.84-.58-1.21-.83-.33-.22-.62-.12-.9.13Zm-6.69-28.89c.27,0,.54.02.81,0,.45-.03.7.19.85.59.08.2.19.39.28.59.04,0,.08-.01.11-.02.02-.09.06-.17.06-.26,0-.41,0-.81,0-1.22,0-.3-.14-.36-.42-.25-.16.06-.33.12-.49.12-1.29,0-2.58.01-3.87,0-.18,0-.36-.07-.53-.12-.16-.05-.37-.1-.39.12-.03.53-.01,1.07-.01,1.6.03.01.07.02.1.03.06-.1.14-.2.19-.31.33-.79.43-.86,1.29-.86.11,0,.22,0,.33,0,.45,0,.46,0,.46.46,0,1.57,0,3.15,0,4.72,0,.52-.08.6-.6.65-.17.02-.35.02-.4.27h2.97c-.13-.28-.34-.27-.54-.27-.28,0-.42-.16-.45-.42-.02-.2-.03-.41-.03-.61,0-1.41,0-2.82,0-4.23,0-.09,0-.19,0-.28,0-.18.09-.28.28-.27Zm.55,24.77c-.49-.29-.96-.33-1.43.11-.18.16-.48.25-.73.26-.83.03-1.66.02-2.49,0-.47-.02-.94-.1-1.41-.14-.17-.02-.35-.04-.52,0-.08.01-.18.14-.19.22-.02.09.03.24.1.29.1.06.24.05.37.05.53,0,1.05,0,1.58-.02.27,0,.38.12.37.37-.01.21,0,.42-.06.62-.17.57-.33,1.15-.57,1.69-.39.86-.83,1.7-1.27,2.53-.18.34-.44.63-.67.95.19.04.36.04.47-.04.61-.48,1.29-.88,1.68-1.6.11-.2.3-.34.46-.51l.12.07c.01.11.03.21.03.32,0,.93,0,1.85,0,2.78,0,.5-.15.66-.66.66-.31,0-.61-.04-1.03-.07.13.18.18.32.27.36.56.21.82.65,1.03,1.17.05.12.25.27.36.25.32-.04.67-.08.95-.24.65-.38.96-1,.97-1.74,0-1.68,0-3.35,0-5.03,0-.7,0-1.41.02-2.11.01-.38.14-.45.53-.41.35.03.37.27.32.51-.06.31-.18.6-.26.91-.08.31-.15.61-.22.92.05.03.09.06.14.09.95-.78,1.91-1.55,2.92-2.39-.41-.28-.79-.56-1.2-.8Zm-11.44,3.95s-.06,0-.12,0c-.13-.28-.03-.49.17-.71.31-.33.28-.52-.11-.75-.34-.2-.71-.34-1.04-.56-.3-.19-.51-.12-.77.08-.23.18-.52.35-.79.38-.65.05-1.31.02-1.96.02-.32,0-.49-.2-.52-.55-.06-.63.07-1,.38-1.08.05-.01.1,0,.14,0,.69,0,1.37,0,2.06,0,.14,0,.35.08.4.18.25.5.58.63,1.12.43.41-.15.66-.35.67-.79,0-.35.01-.7,0-1.05,0-.28.04-.52.26-.73.25-.24.21-.39-.1-.6-.35-.22-.7-.43-1.06-.63-.48-.26-.47-.24-.86.11-.15.14-.36.29-.55.31-.64.04-1.28.01-1.92.02-.31,0-.47-.18-.53-.45-.16-.73.1-1.06.85-1.06,1.61,0,3.23,0,4.84,0,.27,0,.54-.07.84-.11-.27-.67-.72-1.01-1.2-1.37-.6-.45-.67-.47-1.15.1-.07.08-.12.18-.18.28-.23.39-.5.68-1.03.61-.36-.05-.73-.01-1.1-.01-.45,0-.9.03-1.34-.01-.18-.02-.34-.17-.51-.27.08-.12.16-.25.25-.37.09-.12.21-.22.37-.4-.1-.06-.16-.09-.22-.12-.42-.22-.87-.25-1.34-.25-.85-.01-.85-.03-.87.84,0,.57,0,.57-.6.57-1.77,0-3.55,0-5.32,0-.17,0-.44-.1-.45.2-.01.29.22.35.47.35.06,0,.13,0,.19,0,1.57-.02,3.13-.04,4.7-.05,1.06,0,1.05,0,1.02,1.05,0,.32-.11.46-.45.45-.72-.02-1.44,0-2.16-.02-.26,0-.51-.11-.76-.18-.29-.08-.57-.19-.86-.24-.36-.05-.56.12-.56.47-.01.96-.02,1.92,0,2.88,0,.38.27.58.64.63.49.07.84-.12,1.1-.51.16-.24.37-.32.65-.31.45.02.9,0,1.34,0,1.17.03,1.06-.26,1.06,1.12,0,.49-.03.52-.52.52-1.28,0-2.56,0-3.84,0-.14,0-.29-.02-.43,0-.22.03-.26.17-.13.34.19.25.46.24.74.18.29-.06.58-.14.88-.15.75-.02,1.5,0,2.25,0,1.03,0,1.07.04,1.05,1.09-.01.53-.02.55-.53.55-1.81,0-3.61,0-5.42,0-.08,0-.17-.02-.24,0-.08.03-.19.08-.21.15-.02.07.03.23.08.24.22.06.44.11.67.11.18,0,.37-.12.55-.13,1.5-.01,3-.01,4.51,0,.41,0,.58.17.6.58,0,.19,0,.38,0,.58-.01.53-.15.69-.69.67-1.35-.07-2.71.19-4.05-.15-.11-.03-.28.19-.43.29.12.08.23.17.36.24.05.03.13.01.19.01,1.31,0,2.62-.02,3.93-.03.64,0,.7.06.7.72,0,.08,0,.16,0,.24-.03.3-.21.46-.5.48-.22.01-.45-.02-.67,0-.2.02-.4.09-.6.13.16.13.31.3.49.39.37.17.63.39.7.83.04.26.22.44.51.4.27-.04.55-.11.81-.19.77-.23,1.07-.78,1.04-1.55-.01-.3-.02-.61,0-.91.02-.37.21-.54.58-.54.62,0,1.25,0,1.87,0,.63,0,.72.11.77.75.01.18.1.42.23.52.41.32.82.04,1.21-.12.27-.11.32-.36.31-.64-.01-.69,0-1.37,0-2.06,0-.48.16-.63.63-.64.27,0,.54,0,.81-.01.34-.02.44-.21.28-.5-.41-.76-.92-.86-1.56-.3Zm-6.92-4.14c-.01.36-.16.55-.51.56-.62.02-1.24.02-1.87,0-.29,0-.46-.19-.51-.48,0-.05,0-.1-.01-.14-.08-1.18-.05-1.21,1.12-1.21.13,0,.26,0,.38,0h0c.35,0,.7,0,1.05,0,.24,0,.35.12.35.35,0,.3,0,.61,0,.91Zm1.9-1.05c.1-.11.29-.2.44-.21.32-.03.64,0,.96,0h0c.32,0,.64-.01.96,0,.35.02.51.19.53.54.01.19,0,.38,0,.57,0,.47-.17.68-.64.71-.57.03-1.15.03-1.72,0-.17,0-.36-.13-.48-.26-.24-.23-.27-1.11-.05-1.35Zm3.09,7.25c-.02.39-.2.57-.6.58-.16,0-.32,0-.48,0h-.48c-.34,0-.67-.01-1.01,0-.28.01-.51-.1-.55-.35-.06-.35-.09-.73-.02-1.07.05-.26.32-.41.64-.41.62,0,1.25,0,1.87,0,.42,0,.61.21.63.61,0,.21,0,.42,0,.62Zm-.12-1.82c-.11.11-.29.19-.45.2-.35.03-.7,0-1.05,0-.33,0-.67,0-1,0-.11,0-.23,0-.32-.05-.23-.12-.36-.65-.25-1.05.08-.29.25-.52.59-.53.68,0,1.37,0,2.05,0,.13,0,.27.09.37.17.24.21.28,1.02.06,1.24Zm-1.31-29.11c.08-.01.15-.11.22-.16-.07-.05-.14-.13-.21-.13-.73,0-1.47-.01-2.2,0-.08,0-.15.1-.23.16.07.05.13.12.21.14.45.1.62.29.62.75,0,.54,0,1.09,0,1.72.04.73-.08,1.55.16,2.37.19.65.56,1.18,1.16,1.41.75.3,1.55.32,2.36.06.6-.19.98-.58,1.21-1.1.19-.44.3-.95.33-1.43.05-1,.01-2.01.02-3.01,0-.41.22-.66.63-.76.08-.02.14-.09.21-.14-.08-.05-.15-.15-.23-.15-.61-.01-1.22-.01-1.83,0-.08,0-.16.09-.25.14.08.05.15.15.23.15.48.04.79.45.78.91-.01.99.01,1.98-.01,2.97,0,.34-.1.69-.21,1.02-.16.45-.49.78-.96.9-.41.1-.8.16-1.25.04-.68-.18-1.28-.78-1.31-1.41-.06-1.27-.05-2.55-.03-3.82,0-.5.09-.53.61-.61Zm25.18,0c.07-.01.12-.08.18-.13-.06-.06-.12-.12-.18-.16-.03-.02-.08,0-.12,0-.71,0-1.41,0-2.12,0-.11,0-.22.04-.33.06,0,.04,0,.09,0,.13.08.04.15.09.23.11.52.1.72.32.72.84,0,1.42,0,2.85,0,4.27,0,.11,0,.22,0,.33-.04.34-.21.52-.56.54-.17.01-.32.05-.36.28h2.73c-.08-.25-.25-.26-.43-.29-.13-.02-.31-.09-.36-.19-.1-.23-.19-.48-.19-.73-.02-1.36-.01-2.71,0-4.07,0-.65.17-.85.81-.98Zm-78.41,0c.08-.01.16-.07.29-.12-.08-.09-.11-.14-.13-.14-.84-.01-1.68-.03-2.52-.03-.05,0-.1.1-.14.15.06.05.11.12.17.13.58.13.8.33.8.91.02,1.43.01,2.85,0,4.28,0,.49-.25.71-.75.82-.08.02-.15.12-.22.18.09.04.17.12.26.12,1.37,0,2.74,0,4.11,0,.19,0,.32-.05.37-.24.1-.38.21-.77.3-1.15.02-.08-.04-.18-.06-.27-.08.06-.2.11-.24.19-.24.46-.49.93-1.03,1.08-.36.1-.75.07-1.12.07-.51,0-.77-.26-.77-.77,0-1.47,0-2.93,0-4.4,0-.49.21-.73.7-.81Zm86.71,6.12c.49.27,1.03.4,1.53.33,1.08.09,1.89-.33,2.56-1.06.42-.45.59-1.01.76-1.61.22-.75.09-1.43-.16-2.12-.05-.15-.09-.31-.18-.44-.29-.44-.59-.85-1.07-1.13-.54-.31-1.1-.52-1.69-.55-.76-.04-1.45.22-2.11.63-.81.51-1.22,1.29-1.39,2.14-.13.65-.14,1.37.14,2.03.33.77.86,1.37,1.6,1.77Zm-.02-5.56c.24-.25.59-.48.92-.54,1.36-.25,2.29.32,2.75,1.68.14.43.27.89.26,1.33-.02.94-.04,1.92-.86,2.59-.54.44-1.12.62-1.87.41-1.03-.3-1.44-1.07-1.77-1.93-.16-.4-.16-.87-.23-1.29.12-.82.23-1.63.8-2.25Zm-86.69,25.92c-.37-.14-.42-.51-.17-.82.08-.1.19-.18.26-.28.4-.63.84-1.23,1.15-1.9.16-.34.31-.61.63-.78.36-.2.4-.32.09-.59-.35-.29-.75-.52-1.14-.77-.43-.28-.63-.23-.91.23-.16.26-.36.37-.67.36-.45-.02-.9-.01-1.34,0-.27,0-.47-.06-.6-.37.29-.5.58-1.02.91-1.6-.04-.04-.13-.19-.25-.21-.56-.1-1.12-.16-1.68-.23-.28-.04-.37.11-.36.36,0,.34.06.69-.03,1-.23.85-.44,1.71-.81,2.5-.4.87-.96,1.67-1.44,2.5-.06.1-.06.22-.09.33.12-.03.29-.02.37-.1.49-.46.97-.93,1.44-1.4.27-.28.53-.58.81-.88.09.12.13.15.15.19.31.57.64,1.12.91,1.71.08.17.07.5-.04.6-.51.48-1.03.98-1.64,1.34-.86.51-1.8.9-2.75,1.36.06.05.12.13.18.13.34-.05.7-.08,1.02-.19.31-.11.42.05.51.26.05.11.02.25.02.38,0,1.5,0,3,0,4.51,0,1.01.09,1.09,1.08.94.27-.04.42-.19.47-.46.09-.51.12-.54.65-.54.78,0,1.57,0,2.35,0q.78,0,1.04.76c.12.36.43.51.79.37.12-.04.24-.09.36-.13.35-.1.62-.45.61-.81,0-1.17-.02-2.33,0-3.5,0-.2.09-.45.22-.59.25-.26.21-.43-.04-.63-.13-.11-.25-.24-.37-.37.01-.03.02-.06.03-.09.44.07.6-.21.82-.51.3-.39.6-.84,1.15-.96.07-.02.12-.14.19-.22-.58-.1-1.1-.23-1.62-.28-.79-.08-1.52-.35-2.25-.64Zm-3.17-2.73c-.28-.41-.23-.92.13-1.24.14-.12.35-.2.54-.22.27-.04.54,0,.81,0,.25,0,.51,0,.76,0,.41,0,.49.06.43.48-.04.31-.14.61-.28.89-.2.41-.45.79-.68,1.18-.22.38-.59.41-.87.07-.3-.37-.59-.75-.85-1.14Zm2.58,9.83c-.88.01-1.76.01-2.63,0-.52,0-.68-.19-.69-.7,0-.02,0-.03,0-.05v-1.24c0-.43,0-.86,0-1.29,0-.48.16-.63.63-.63.85,0,1.69,0,2.54,0,.52,0,.71.17.71.67.01.89.01,1.79,0,2.68,0,.42-.13.54-.56.54Zm.59-4.53c-.27.17-.55.28-.89.26-.72-.03-1.44-.04-2.16,0-.66.04-1.25-.11-1.85-.52.1-.1.18-.24.3-.29.81-.38,1.63-.73,2.44-1.11.4-.19.64-.15.99.1.41.29.86.53,1.29.79.16.09.32.18.49.28-.23.19-.42.36-.62.49Zm1.41.01s-.06-.04-.09-.06c.02-.03.04-.08.07-.09.03,0,.07.03.12.06-.05.04-.07.09-.1.09Zm92.5-4.7c-.65-.42-.95-.39-1.43.19-.09.11-.14.26-.24.35-.19.15-.4.36-.62.38-.54.05-1.08.01-1.63-.01-.37-.02-.59-.22-.59-.56-.01-.77-.01-1.53,0-2.3,0-.34.2-.51.53-.55.69-.07,1.39-.14,2.08-.21.06,0,.12-.03.19-.04.67-.11,1.33-.22,2-.34.14-.02.37-.1.37-.16,0-.15-.05-.37-.16-.45-.4-.31-.82-.59-1.25-.86-.11-.07-.32-.07-.44-.02-.7.33-1.38.69-2.07,1.05-.76.39-1.5.44-2.24-.03-.19-.12-.42-.19-.68-.3-.03.17-.07.29-.07.41-.03,2.36.06,4.72-.18,7.08-.1.99-.09,1.97-.39,2.94-.38,1.25-.88,2.4-1.87,3.29-.21.19-.39.4-.58.6.03.04.06.07.1.11,1-.17,1.8-.75,2.49-1.43,1.28-1.26,1.67-2.94,1.96-4.63.15-.89.15-1.8.23-2.7.01-.13.09-.27.18-.37.2-.22,1.29-.21,1.48,0,.08.09.14.21.16.33.03.14,0,.29,0,.43,0,2.59,0,5.18,0,7.76,0,.19.04.43.14.58.22.31.68.41.99.28.51-.21.61-.35.61-.88,0-2.59,0-5.18,0-7.76,0-.13,0-.26,0-.38.03-.32.2-.5.52-.5.3,0,.61.01.91,0,.11,0,.3-.05.32-.12.03-.12.01-.3-.07-.39-.23-.28-.47-.59-.77-.78Zm8.87-24.67c-.06,0-.11.09-.17.13.06.06.11.13.18.16.06.03.13,0,.2,0,.32.04.61.33.62.64.02,1.23.04,2.47.06,3.7,0,.09-.04.17-.07.35-.2-.2-.36-.34-.49-.51-.42-.51-.82-1.04-1.24-1.55-.47-.56-.97-1.09-1.45-1.64-.07-.08-.13-.17-.19-.26-.45-.68-.96-1.25-1.9-1.05-.05.01-.11-.01-.16,0-.1.04-.2.09-.3.13.09.06.17.14.26.16.53.12.72.33.76.88,0,.08,0,.16,0,.24,0,1.4-.01,2.8-.03,4.19,0,.46-.13.58-.58.67-.09.02-.17.12-.25.19.09.04.18.11.27.12.62.01,1.25,0,1.87,0,.08,0,.16-.04.24-.07,0-.03,0-.07.01-.1-.12-.05-.25-.12-.38-.14-.42-.05-.48-.11-.57-.53-.03-.15-.11-.29-.11-.43,0-1.26,0-2.51,0-3.86.11.09.17.12.21.16.15.19.29.39.45.58.36.44.73.87,1.09,1.3.36.42.72.84,1.08,1.27.48.58.96,1.17,1.43,1.75.04.05.09.1.14.14.18.14.29.09.32-.14.01-.11,0-.22,0-.33,0-1.19,0-2.39,0-3.58,0-.53.07-1.05.1-1.58.02-.46.23-.72.71-.75.06,0,.11-.11.17-.17-.06-.04-.12-.12-.18-.12-.71,0-1.41,0-2.12,0Zm-82.19,26.66c-.41-.36-.88-.38-1.16.21-.25.52-.68.86-1.34.77-.3-.04-.61,0-.91,0-.5,0-.52-.02-.52-.51,0-.83,0-1.66,0-2.49,0-.52.14-.65.66-.65,1.09,0,2.17,0,3.26,0,.15,0,.3-.02.49-.03-.04-.14-.04-.23-.09-.28-.38-.41-.75-.83-1.18-1.19-.4-.35-.62-.28-.91.18-.58.93-.72.99-1.79.97-.33,0-.46-.12-.45-.45.01-.59,0-1.18,0-1.77,0-.29,0-.56.27-.77.18-.15.22-.34-.09-.41-.41-.1-.83-.17-1.24-.26-.51-.11-.71.03-.76.56-.03.32-.01.64-.01.96,0,.5.01.99,0,1.49-.01.56-.13.67-.68.66-.56,0-1.11-.04-1.67-.05-.11,0-.27.07-.31.15-.03.08.04.26.12.31.12.08.33.16.42.11.42-.24.87-.15,1.31-.16.69-.01.8.11.81.79,0,.62,0,1.25,0,1.87,0,.99,0,.99-.98.99-.81,0-1.63-.01-2.44-.02-.22,0-.37.1-.33.3.02.1.2.23.33.25.22.04.45,0,.67,0,.67,0,1.34-.01,2.01,0,.43,0,.48.1.31.48-.02.04-.05.08-.06.13-.41,1.17-.83,2.33-1.24,3.5-.23.65-.69.9-1.36.86-.24-.02-.48-.02-.72.02-.3.05-.5.3-.43.52.11.37.22.75.35,1.12.07.2.24.37.43.17.5-.49,1.18-.37,1.77-.58.42-.15.9-.15,1.34-.23.34-.06.67-.16,1-.24.42-.11.85-.23,1.27-.34.47-.12.94-.21,1.4-.36.51-.16.99,0,1.12.44.09.3.15.61.23.91.09.33.55.71.88.72.27,0,.82-.39.86-.68.07-.56.08-1.12-.3-1.59-.86-1.08-1.97-1.81-3.3-2.19-.08-.02-.19.02-.35.04.11.12.16.17.22.23.29.29.6.57.88.88.29.33.21.57-.22.66-.4.08-.81.13-1.22.17-.32.03-.64.02-.96.04-.76.05-1.52.12-2.28.17-.07,0-.13-.05-.23-.09.19-.28.33-.54.52-.77.87-1.08,1.65-2.2,2.29-3.44.19-.36.47-.6.95-.58.93.04,1.85.01,2.78.01.4,0,.8.01,1.2-.01.14,0,.35-.09.39-.19.04-.11-.04-.31-.13-.41-.27-.31-.56-.61-.88-.88Zm64.26,3.4c.02.16.11.37.24.43.42.2.83.04,1.22-.16.27-.13.29-.38.29-.65,0-1.1,0-2.2,0-3.31,0-.3.03-.55.27-.77.27-.25.23-.46-.09-.64-.42-.24-.86-.46-1.29-.69-.2-.1-.37-.06-.5.12-.27.37-.64.48-1.09.43-.24-.03-.48,0-.72,0-.52,0-.56-.04-.56-.53,0-.48,0-.96,0-1.44,0-.5.16-.63.66-.67.63-.05,1.25-.14,1.88-.21.06,0,.12-.05.18-.06.51-.11,1.01-.21,1.52-.32.11-.03.22-.08.33-.12-.05-.11-.07-.26-.15-.32-.45-.32-.9-.63-1.38-.9-.13-.07-.39-.04-.54.04-.44.25-.83.58-1.27.82-.49.27-.97.64-1.58.51-.27-.06-.54-.15-.8-.26-.47-.2-.59-.13-.6.39,0,.49,0,.99,0,1.49-.06,2.26-.13,4.53-.19,6.79,0,.06,0,.13-.01.19-.12.7-.27,1.39-.37,2.09-.12.82-.26,1.64-.57,2.42-.05.12,0,.27,0,.4.04.02.09.05.13.07.16-.14.37-.26.47-.43.44-.71.92-1.41,1.25-2.17.35-.8.62-1.64.67-2.53.02-.31.21-.49.53-.49.51,0,1.02,0,1.53,0,.34,0,.53.14.58.5Zm-2.11-.99c-.24,0-.36-.17-.34-.42.04-.49.08-.98.11-1.47.03-.51.07-1.02.08-1.52,0-.29.1-.45.41-.45.4,0,.8-.03,1.19-.01.46.02.64.24.65.7,0,.43,0,.86,0,1.29,0,.46-.01.92,0,1.38.01.29-.1.48-.39.49-.57.02-1.14.03-1.71.02Zm-64.39-22.64c-.65-.04-1.08-.44-1.38-.98-.07-.13-.12-.27-.19-.4-.03-.06-.11-.09-.17-.14-.04.06-.12.11-.13.18-.05.44.02.86.21,1.26.04.09.15.18.24.2.41.1.83.17,1.25.25.57,0,1.08-.12,1.54-.46,1.08-.82,1.06-2.16-.06-2.94-.51-.35-1.04-.65-1.57-.98-.54-.34-.79-.87-.6-1.48.07-.23.24-.5.44-.59.44-.2,1.15-.24,1.55.29.16.21.27.46.41.69.04.06.1.1.16.15.05-.06.13-.12.13-.18,0-.31.01-.63-.03-.93-.02-.13-.13-.31-.23-.35-.29-.1-.59-.16-.9-.19-.51-.06-.98.09-1.43.3-1.22.58-1.21,2.03-.32,2.82.42.37.95.6,1.42.91.46.31.88.64.92,1.29.05.87-.56,1.33-1.25,1.29Zm-9.03,16.2c.14.28.32.55.71.55.39,0,.69-.13.88-.5.27-.53.21-1.06-.17-1.49-.73-.83-1.66-1.06-2.71-.95-.04.06-.09.11-.13.17.15.1.33.16.43.29.27.34.54.69.75,1.08.14.25.12.59.25.85Zm-2.58,1.55s-.05.09-.07.14c.02.06.02.12.05.17.34.52.63,1.05.61,1.71,0,.24.11.5.24.71.19.3.46.5.87.47.34-.02.52-.15.66-.44.33-.72.22-1.38-.36-1.84-.28-.22-.58-.44-.91-.59-.34-.16-.72-.23-1.09-.33Zm3.52,3.68c.16-.49.32-.98.49-1.47.23-.68.48-1.35.7-2.04.06-.19.04-.41.06-.61-.04,0-.09-.01-.14-.02-.08.12-.17.22-.23.35-.95,1.93-1.9,3.87-2.86,5.8-.16.32-.37.56-.81.56-.31,0-.61.14-1.02.24.42.2.74.33,1.04.51.15.09.37.26.38.39.01.63.13,1.26-.09,1.89-.19.57-.18,1.18.21,1.68.16.21.52.42.76.39.41-.05.7-.36.92-.75.4-.71.07-1.38-.12-2.01-.29-.92-.26-1.79.03-2.69.24-.73.45-1.47.69-2.2Z"/>
</svg>