<?xml version="1.0" encoding="UTF-8"?>
<svg id="beyond_voice_pic_m" xmlns="http://www.w3.org/2000/svg" xmlns:xlink="http://www.w3.org/1999/xlink" viewBox="0 0 1366 768">
  <defs>
    <style>
      .cls-1 {
        clip-path: url(#clippath);
      }

      .cls-2 {
        fill: none;
        stroke-width: 0px;
      }
    </style>
    <clipPath id="clippath">
      <path class="cls-2" d="m1055.71,140.31c-48.9,0-96.51,26.29-122.8,73.48l-9.08,16.29c-10.82,19.43-38.23,18.06-47.31-2.29-12.04-26.98-31.95-50.51-58.68-66.5-68.91-41.24-157.03-16.76-196.82,54.66l-3.24,5.82c-12.44,22.33-43.71,21.7-55.34-1.09-12.24-23.99-30.93-44.82-55.28-59.39-68.91-41.24-157.03-16.76-196.82,54.66l-111.61,200.35c-39.79,71.42-16.17,162.75,52.74,203.98h0c22.68,13.57,47.44,20.03,71.88,20.03h.05c49.78-.01,98.2-26.79,124.88-74.69l5.31-9.53c11.67-20.96,41.25-20.15,51.65,1.51,12.18,25.38,31.46,47.44,56.91,62.67h0c22.68,13.57,47.44,20.03,71.88,20.03h.05c49.78-.01,98.2-26.79,124.88-74.69l5.31-9.53c11.67-20.96,41.25-20.15,51.65,1.51,12.18,25.38,31.46,47.44,56.91,62.67h0c22.68,13.57,47.44,20.03,71.88,20.03h.05c49.78-.01,98.2-26.79,124.88-74.69l110.38-198.16c13.1-23.51,19.33-49.38,19.36-75.01v-.37c-.07-51.8-25.48-102.57-70.87-130.8-22.87-14.22-48-20.98-72.81-20.98h-.01"/>
    </clipPath>
    <clipPath id="clippath-1">
      <path class="cls-2" d="m1055.71,140.31c-48.9,0-96.51,26.29-122.8,73.48l-9.08,16.29c-10.82,19.43-38.23,18.06-47.31-2.29-12.04-26.98-31.95-50.51-58.68-66.5-68.91-41.24-157.03-16.76-196.82,54.66l-3.24,5.82c-12.44,22.33-43.71,21.7-55.34-1.09-12.24-23.99-30.93-44.82-55.28-59.39-68.91-41.24-157.03-16.76-196.82,54.66l-111.61,200.35c-39.79,71.42-16.17,162.75,52.74,203.98h0c22.68,13.57,47.44,20.03,71.88,20.03h.05c49.78-.01,98.2-26.79,124.88-74.69l5.31-9.53c11.67-20.96,41.25-20.15,51.65,1.51,12.18,25.38,31.46,47.44,56.91,62.67h0c22.68,13.57,47.44,20.03,71.88,20.03h.05c49.78-.01,98.2-26.79,124.88-74.69l5.31-9.53c11.67-20.96,41.25-20.15,51.65,1.51,12.18,25.38,31.46,47.44,56.91,62.67h0c22.68,13.57,47.44,20.03,71.88,20.03h.05c49.78-.01,98.2-26.79,124.88-74.69l110.38-198.16c13.1-23.51,19.33-49.38,19.36-75.01v-.37c-.07-51.8-25.48-102.57-70.87-130.8-22.87-14.22-48-20.98-72.81-20.98h-.01"/>
    </clipPath>
  </defs>
  <g class="cls-1" id="coach_pic">
    <image width="1100" height="600" transform="translate(139.4 76.56)" xlink:href="../beyond_voice_Hardy/beyond_voice_pic_Hardy_m_1100x600.jpg"/>
  </g>
</svg>