<?xml version="1.0" encoding="UTF-8"?>
<svg id="uuid-0d73dfb9-3e0f-4ae6-8e00-532fd30864bd" data-name="圖層 1" xmlns="http://www.w3.org/2000/svg" viewBox="0 0 108 108">
  <defs>
    <style>
      .uuid-2318a860-310f-4ac1-a32b-340e1c87bc45 {
        fill: #282828;
      }

      .uuid-2318a860-310f-4ac1-a32b-340e1c87bc45, .uuid-ca55224d-489e-4650-970e-2da6c0531443 {
        stroke-width: 0px;
      }

      .uuid-ca55224d-489e-4650-970e-2da6c0531443 {
        fill: #ebd7bf;
      }
    </style>
  </defs>
  <circle class="uuid-2318a860-310f-4ac1-a32b-340e1c87bc45" cx="54" cy="54" r="54"/>
  <g>
    <path class="uuid-ca55224d-489e-4650-970e-2da6c0531443" d="m72.06,56.84h-11.17c-.83.98-1.47,1.96-2.33,2.69-2.1,1.81-4.57,1.94-7.1,1.12-1.31-.42-2.11-1.47-2.3-2.82-.45-3.3.3-6.36,2.59-8.78,2.02-2.14,4.72-2.58,7.55-1.89,1.41.35,2.19,1.39,2.48,2.79.08.4.14.8.23,1.35,3.71.05,7.41,0,11.08.03,1.01-5.06-1.65-8.88-7.06-10.34h34.01c-.23,2.08-.86,4.06-1.19,6.21h-17.69c-.36,1.27-.72,2.41-.71,3.74h16.29c-.44,2.09-.86,4.06-1.31,6.18h-16.44c-.29,1.28-.55,2.41-.84,3.71h17.55c.12,1.15-.29,2.11-.46,3.09-.17,1-.44,1.99-.69,3.1h-33.85c5.62-1.31,9.36-4.66,11.35-10.18Z"/>
    <path class="uuid-ca55224d-489e-4650-970e-2da6c0531443" d="m45.98,67.15h-13.8c-.17-.99-.33-1.94-.51-2.96h-10.97c-.6.99-1.21,2-1.79,2.97H7.95c1.79-3.06,3.71-5.88,5.55-8.75,1.86-2.91,3.73-5.8,5.6-8.7,1.87-2.9,3.74-5.8,5.65-8.77h26.83c-1.43.47-2.7.8-3.91,1.29-4.19,1.72-6.9,4.83-8.4,9.02-.78,2.18-1.22,4.43-1.21,6.75.02,4.3,2.31,7.34,6.44,8.57.5.15,1,.3,1.5.45-.01.04-.02.09-.03.13Zm-16.39-18.05c-.09-.02-.18-.04-.27-.07-1.6,2.82-3.19,5.64-4.88,8.61h6.28c-.39-2.91-.76-5.73-1.13-8.55Z"/>
  </g>
</svg>