<?xml version="1.0" encoding="UTF-8"?>
<svg xmlns="http://www.w3.org/2000/svg" viewBox="0 0 108 108">
  <defs>
    <style>
      .cls-1 {
        fill: #282828;
      }

      .cls-1, .cls-2 {
        stroke-width: 0px;
      }

      .cls-2 {
        fill: #e9d5bd;
      }
    </style>
  </defs>
  <g id="bg">
    <circle class="cls-1" cx="54" cy="54" r="54"/>
  </g>
  <g id="icon">
    <path class="cls-2" d="m47.66,23.7c.37-.21.73-.44,1.11-.58.59-.21,1.04-.6,1.46-1.03.5-.51.97-1.05,1.48-1.55.5-.46,1.04-.87,1.54-1.33.37-.36.82-.6,1.24-.89.54-.37,1.12-.69,1.65-1.06.82-.58,1.63-1.18,2.44-1.76.81-.58,1.6-1.17,2.43-1.7.43-.28.86-.64,1.36-.64.44-.01.74.34,1.16.3.16-.14.32-.29.47-.44.72-.79,1.43-1.57,2.16-2.35.31-.35.64-.71.98-1.03.4-.4.82-.79,1.26-1.14.51-.42,1.04-.79,1.56-1.2.09-.07.17-.14.27-.22-2.05-.71-4.15-1.28-6.3-1.71-.45.44-.89.88-1.34,1.31-.45.42-.79.91-1.1,1.42-.62,1.01-1.19,2.06-1.86,3.03-.28.4-.57.8-.87,1.2-.17.23-.36.45-.54.67-.61.74-1.23,1.47-2.08,1.93-.08.05-.15.12-.23.13-.52.07-.72.49-.89.88-.27.57-.51,1.12-.94,1.58-.08.09-.13.22-.21.32-.34.46-.72.91-1.27,1.09-.36.13-.6.35-.76.66-.13.23-.3.4-.46.6-.57.64-1.26,1.12-1.93,1.62-.69.53-1.41,1.04-2.12,1.56-.09.07-.21.15-.15.34.15.12.31.08.49-.01Zm15.25,16.53c.42-.35.86-.71,1.31-1.05.6-.46,1.23-.9,1.94-1.19.83-.34,1.62-.74,2.36-1.24.5-.31.99-.61,1.51-.89.95-.51,1.84-1.11,2.59-1.88.13-.14.27-.25.42-.37.74-.59,1.41-1.27,2.21-1.8.39-.27.76-.55,1.16-.83.42-.29.82-.59,1.24-.89.39-.27.79-.54,1.18-.8.51-.35,1.04-.66,1.55-1.02.57-.39,1.12-.81,1.73-1.14.3-.16.6-.35.88-.55.43-.31.83-.66,1.25-.98.09-.08.22-.13.31-.21.27-.17.58-.21.87-.31.34-.12.67-.25,1.02-.36.36-.09.68-.25.97-.49.31-.24.64-.47.95-.74.61-.55,1.33-.96,2.06-1.33.43-.22.86-.46,1.26-.72-1.85-2.1-3.88-4.06-6.06-5.84-.39.42-.8.79-1.2,1.19-.16.16-.34.34-.5.51-.17.21-.34.44-.52.64-.46.5-.93.98-1.4,1.47-.12.12-.25.22-.39.29-.55.31-.98.75-1.34,1.16-.1.32-.19.55-.25.8-.09.28-.2.52-.5.53-.35-.14-.65-.27-.94-.38-.13.06-.23.1-.32.16-.24.15-.53.27-.69.51-.21.32-.39.66-.61.97-.23.32-.27.72-.39,1.06-.16.4-.31.82-.51,1.2-.2.4-.43.81-.69,1.18-.39.52-.86.99-1.24,1.53-.42.59-.91,1.1-1.41,1.61-.19.18-.37.36-.51.57-.18.29-.42.51-.69.69-.25.17-.52.35-.79.51-.58.37-1.18.73-1.76,1.1-.29.18-.6.36-.86.59-.5.46-.96.95-1.41,1.4-.09.71-.39,1.21-.96,1.57-.31.2-.61.39-.91.6-.79.52-1.61,1.02-2.25,1.72-.16.17-.35.3-.58.39-.27.12-.53.27-.69.52-.05.08-.06.18-.08.28.56.28,1.1.38,1.71.28Zm18.01,35.19c-.31.22-.33.54-.33.87,0,.2.1.34.35.38.15-.27.29-.54.27-.87-.01-.15-.07-.28-.28-.38Zm22.82-27.03s-.05-.06-.07-.07c-.12-.03-.24-.06-.37-.07-.58-.02-1.14.08-1.68.25-.8.24-1.58.57-2.35.9-.75.34-1.53.62-2.32.77-.66.13-1.32.1-1.95-.15-.05-.01-.08-.09-.16-.17.42-.1.79-.21,1.14-.3.43-.1.86-.2,1.28-.31.69-.2,1.41-.38,2.09-.62.6-.21,1.18-.49,1.76-.74.08-.03.12-.16.19-.28-.12-.03-.19-.06-.25-.06-.55,0-1.09.14-1.62.25-.46.1-.92.23-1.39.34-.07.01-.15-.03-.3-.06.19-.3.37-.5.64-.58.31-.09.64-.2.96-.22.6-.06,1.02-.38,1.29-.89.03-.07-.01-.2-.02-.34-.37.05-.69.05-1.01.18-.25.12-.52.15-.8.12-.12-.01-.21-.08-.17-.23.14-.16.35-.17.53-.22.36-.08.73-.14,1.06-.27.28-.12.54-.3.79-.49.12-.08.13-.22.01-.29-1.16.12-2.28.24-3.4.36-1.13.1-2.24.28-3.36.27-.06-.18.05-.24.15-.28.31-.1.64-.18.94-.3,1.14-.43,2.31-.8,3.49-1.11.34-.09.66-.2.99-.3.42-.12.84-.23,1.26-.36.38-.12.76-.23,1.16-.36v-.38c-.19-.12-.35-.22-.46-.3-.08-.2.14-.3,0-.49-.88.23-1.76.45-2.64.69-.94.25-1.85.54-2.79.81-.79.23-1.57.44-2.37.67-.34.09-.67.18-1.01.27-.42.1-.84.2-1.27.3-.57.14-1.13.29-1.7.42-.44.1-.89.21-1.34.31-.51.12-1.03.24-1.55.34-.7.12-1.41.21-2.12.31-.1.02-.21.07-.31.08-.47.06-.95.1-1.42.15-.06,0-.13-.03-.21-.06.07-.18.2-.22.35-.25.16-.03.32-.05.49-.09.7-.18,1.41-.37,2.12-.57.31-.08.64-.16.96-.23.44-.12.88-.21,1.32-.34.7-.18,1.41-.39,2.1-.6.49-.15.97-.31,1.46-.49.08-.02.16-.08.08-.22-.07-.01-.16-.02-.24-.01-.84.12-1.68.22-2.51.35-.39.07-.79.15-1.18.24-.46.1-.91.23-1.38.35-.7.18-1.42.35-2.11.55-.6.17-1.18.38-1.77.59-.92.34-1.86.64-2.76,1.02-1.34.57-2.67,1.18-4,1.77-.27.13-.5.29-.79.35-.2-.28-.21-.32-.1-.54.13-.24.25-.47.38-.73-.08-.08-.14-.14-.23-.22-.22.16-.42.32-.61.47-.19-.02-.36-.05-.58-.08-.25.46-.13,1.13-.74,1.42-.23-.29-.27-.34-.24-.58.03-.55.21-1.08.67-1.43.12-.09.24-.17.36-.27.07-.06.14-.13.07-.2-.35-.07-.67-.15-.98-.2-.29-.05-.59-.09-.8.25.39.71,0,1.27-.4,1.81.16.14.3.25.43.37-.07.28-.13.52-.2.76-.23.05-.43.1-.62.12-.19.01-.36-.03-.4-.29.31-.38.6-.79.36-1.35-.07-.06-.15-.13-.23-.21-.09-.08-.18-.17-.25-.24-1.04.21-1.18.28-1.43.61.07.14.15.27.24.42-.24.31-.52.51-.95.57.02-.14.05-.22.07-.3.04-.14.08-.28.09-.43.01-.06-.06-.14-.15-.3-.09.14-.15.21-.19.29-.27.57-.55,1.12-.79,1.69-.23.54-.43,1.09-.6,1.65-.2.64-.36,1.29-.53,1.95-.13.53-.25,1.06-.37,1.6-.1.49-.21.96-.3,1.44-.1.54-.18,1.09-.28,1.62-.08.43-.19.87-.28,1.29-.12.57-.24,1.13-.38,1.7-.1.43-.2.86-.32,1.27-.22.71-.46,1.39-.69,2.08-.03.13-.06.25-.08.38-.07.76-.15,1.53-.22,2.29-.05.51-.08,1.02-.13,1.53-.05.44-.1.88-.16,1.31-.09.76-.17,1.53-.27,2.29-.06.4-.13.8-.2,1.19-.09.49-.19.97-.3,1.44-.1.43-.24.84-.36,1.27-.06.21-.09.43-.03.65.05.21.08.43.12.65.05.32.12.65.13.97.02,1.03.01,2.06.01,3.07.01,1.62.02,3.23.05,4.83,0,.43.1.83.21,1.26.23.15.45.3.68.45.28.18.47.39.5.75.01.22.13.37.37.43.25-.14.51-.28.75-.42.23.06.36.2.4.44-.12.23-.23.49-.14.77.15.47.24.96.44,1.41.16.4.4.77.62,1.14.07.13.17.24.35.23.02-.03.07-.06.08-.08.14-.71-.09-1.41-.06-2.1q.29-.23.54-.06c-.31.36-.12.71.05,1.06.06.13.1.27.14.35-.01.24-.2.38-.07.62.27.15.55.34.68.69.08.21.12.42.12.64v1.6c0,.27.09.5.28.69.15.16.34.2.53.09.02-.08.05-.13.05-.18-.1-.55-.21-1.11-.32-1.66-.12-.53-.07-1.05.14-1.56.08-.17.17-.36.44-.38.07.2.14.38.21.57.07.21.21.35.38.45.14.09.28.09.42-.05.02-.38-.06-.75-.28-1.08-.13-.2-.25-.42-.52-.44-.27.09-.47.38-.81.24-.02-.05-.05-.1-.05-.15-.01-.66-.01-1.32-.01-1.98,0-.12,0-.22.02-.34.06-.22.2-.39.37-.53.06-.05.15-.05.28-.09.06.72.16,1.38.4,2-.2.13-.37-.16-.53.05-.06.16.06.23.16.3.22.13.46.23.66.38.3.24.61.4.97.52.35-.1.53-.35.64-.69-.08-.07-.14-.14-.21-.2-.27-.18-.35-.44-.28-.76.08-.38.08-.76-.05-1.16.31-.13.57-.37.95-.28v.44c.74.07,1.26-.27,1.62-.84.24-.4.3-.86.28-1.33-.01-.13-.01-.25-.18-.34-.5.05-.42.54-.6.88-.09-.01-.2-.02-.32-.03-.05-.4-.06-.79-.13-1.16-.17-.98-.13-1.98-.07-2.96.02-.4.07-.81.09-1.2.07-.95.14-1.9.2-2.86.03-.52.03-1.05-.05-1.58-.14-.95-.17-1.9-.09-2.84.06-.57.32-1.05.73-1.44.05-.06.15-.06.28-.1-.01.16-.02.27-.03.37-.07.42-.01.8.2,1.17.28.52.75.69,1.28.45.19-.08.36-.2.53-.29.42-.22.84-.44,1.26-.67.21-.12.44-.16.69-.1.07.14.15.28.23.44.13-.03.24-.03.34-.08.5-.23.98-.47,1.48-.72.73-.35,1.48-.61,2.31-.55.22.01.44,0,.66,0,.25,0,.51.01.76-.01.51-.06.9-.31,1.12-.79.06-.12.07-.24-.1-.38-.38-.01-.82.01-1.25.06-.44.06-.87.13-1.31.2-.43.06-.86.12-1.31.18-.05-.12-.08-.22-.14-.31-.16-.35-.32-.43-.69-.35-.16.03-.31.1-.46.16-.22.09-.43.12-.65.02-.02-.08-.03-.14-.06-.23.08-.05.15-.12.23-.14.45-.15.9-.28,1.36-.42.55-.17,1.11-.35,1.66-.52.59-.18,1.19-.37,1.78-.55.6-.2,1.21-.39,1.81-.59.59-.18,1.19-.36,1.78-.53.72-.22,1.43-.43,2.15-.64.21-.07.43-.12.53-.37-.05-.29-.25-.45-.53-.54-.24-.08-.5-.09-.75-.05-.81.14-1.62.31-2.42.5-.95.22-1.86.54-2.79.81-.59.16-1.18.38-1.77.55-.17.06-.36.06-.52.08-.19-.12-.3-.24-.32-.46.22-.36.53-.59.91-.75.45-.2.94-.29,1.4-.44.28-.08.57-.17.82-.3.17-.08.38-.17.39-.32.02-.35-.34-.4-.34-.69.29-.06.55-.1.81-.16.46-.12.92-.23,1.39-.35.38-.1.77-.21,1.16-.34.55-.17,1.1-.38,1.65-.57.9-.29,1.8-.58,2.72-.84.42-.13.84-.22,1.27-.31.44-.1.89-.17,1.33-.27.43-.53.98-.76,1.61-.92.42-.1.83-.27,1.24-.43.43-.18.75-.5.94-.94-.03-.07-.07-.12-.09-.16-.06,0-.12-.02-.16-.01-.35.12-.69.23-1.04.35-.53.18-1.06.36-1.61.54-.58.2-1.17.39-1.76.6-.52.17-1.03.36-1.55.53-.59.21-1.17.4-1.76.6-.58.18-1.14.38-1.72.54-.68.2-1.38.36-2.06.54-.75.2-1.49.36-2.27.44-.19.01-.38.05-.57.07-.02-.08-.06-.12-.05-.14.01-.06.02-.12.06-.15.15-.1.3-.21.46-.29.25-.12.51-.2.73-.29.24-.23.45-.45.31-.77-.19-.15-.39-.13-.59-.12-.69.05-1.4.06-2.08.15-.57.07-1.1-.01-1.63-.14-.32-.07-.61-.27-.82-.53-.05-.06-.05-.16-.07-.25.25-.1.46-.18.68-.27.1-.03.22-.05.32-.08.51-.14,1.04-.21,1.56-.3.62-.1,1.25-.23,1.87-.38.32-.07.64-.18.94-.31.28-.14.53-.31.72-.58.06-.07.05-.18.06-.28-.07-.03-.1-.06-.14-.06-.51.06-1.02.08-1.53.18-.76.15-1.51.37-2.28.55-.16.03-.32.1-.49-.08.09-.39-.29-.77-.13-1.17.13-.2.38-.23.4-.53-.09-.16-.22-.36-.36-.55-.07-.09-.17-.13-.23-.08-.13.37-.23.68-.35.98-.07.18-.15.37-.24.54-.2.36-.21.69-.02,1.05.01.02-.01.07-.02.12-.1.16-.3.17-.47.22-.16.02-.32.06-.49.09-.5.12-.99.24-1.49.36-.1.02-.22.02-.32.02-.07,0-.15,0-.16-.15.13-.08.28-.16.39-.23.12-.3.22-.54.3-.8.06-.16.06-.34-.16-.44-.06.03-.14.07-.22.1v.53c-.15.24-.38.31-.61.4-.13-.08-.24-.16-.36-.25-.14-.12-.28-.23-.43-.34-.03-.02-.09,0-.19.01.05.15.07.29.1.42-.18.29-.36.55-.55.87-.12-.09-.19-.15-.24-.21.12-.36.23-.68.32-1.02.05-.2.06-.39.06-.6.01-.15-.07-.28-.18-.37-.12-.1-.22-.21-.45-.12-.23.4-.14.92-.27,1.39-.14.5-.09,1.02-.17,1.51-.44.12-.84.21-1.29.32-.09-.07-.2-.14-.34-.23.25-.44.36-.88.43-1.33.09-.62.18-1.26.23-1.9.02-.49.15-.95.28-1.4.13-.49.36-.92.86-1.16.23-.1.45-.14.7.03.05.46.03.94-.07,1.4-.06.27-.09.54-.14.81,0,.03.03.07.07.14.07.01.17.02.24.03.3-.21.39-.47.39-.79v-1.14c0-.16.02-.32.03-.47.1-.05.16-.09.23-.12.54-.16,1.09-.32,1.62-.49.89-.28,1.78-.57,2.67-.84,1.01-.3,2.02-.6,3.03-.9.3-.09.6-.17.9-.27.62-.17,1.26-.36,1.88-.54.67-.21,1.33-.42,1.99-.62.55-.17,1.11-.34,1.67-.52.8-.27,1.58-.54,2.38-.81.77-.27,1.56-.51,2.32-.8,1.1-.4,2.17-.86,3.27-1.26,1.54-.57,3.03-1.26,4.53-1.91.17-.08.35-.17.54-.29.02,0,.03-.01.06-.02-.02-.05-.05-.08-.07-.12Zm-38.78,39.83c-.08-.05-.17-.07-.2-.13-.21-.44-.27-.8-.23-1.41.1-.01.22-.02.36-.05.16.27.3.51.42.72-.13.31-.23.58-.35.87Zm5.44-39.38c-.16.25-.32.53-.69.51-.16-.23-.19-.29-.06-.42.22-.23.46-.45.73-.71.17.25.14.44.02.61Zm10.36,17.57c.22-.14.44-.31.67-.35.54-.08,1.09-.09,1.62-.06.08.13.03.2-.06.25-.4.27-.87.38-1.34.44-.31.03-.65.07-1.01-.05.05-.1.06-.21.12-.24Zm-2.79,5.81c.12,0,.24.01.34.02.17.14.18.3.15.47-.08.17-.22.3-.39.36-.17.06-.36.07-.51-.07-.07-.37.14-.59.42-.79Zm-.9-9.85c.06-.02.15.03.24.06-.07.23-.24.28-.45.36-.03-.23.03-.37.21-.42Zm-1.82,10.75c.1-.02.22-.03.32-.03.18-.01.37,0,.54-.03.16-.03.3-.12.44-.16.12.08.09.17.04.24-.29.31-.68.35-1.05.43-.17.05-.36.06-.57-.06-.01-.23.1-.34.28-.38Zm-16.07-8.92c-.77-.22-1.55-.46-2.32-.64-.83-.2-1.46-.65-1.94-1.4,0-.28-.02-.59,0-.89.05-.42-.12-.71-.44-.94-.09-.07-.17-.14-.27-.2-.5-.34-.88-.77-1.18-1.28-.31-.52-.6-1.05-.91-1.56-.25-.43-.5-.87-.88-1.19-.27-.22-.47-.45-.47-.82,0-.08-.06-.17-.09-.25-.23-.65-.65-1.19-1.06-1.72-.32-.42-.68-.81-.99-1.24-.38-.52-.68-1.09-.64-1.77.01-.06-.01-.12-.04-.21-.1-.09-.24-.22-.38-.34-.36-.27-.66-.58-.91-.94-.39-.57-.66-1.18-.9-1.81-.16-.4-.31-.82-.5-1.21-.18-.42-.43-.81-.77-1.12-.09-.09-.2-.18-.06-.35h.39c0-.08.01-.14,0-.2-.01-.05-.03-.1-.07-.14-.06-.07-.14-.13-.21-.18-.57-.44-.99-1.01-1.33-1.65-.45-.83-.75-1.73-1.11-2.61-.34-.82-.71-1.61-1.23-2.32-.06-.09-.1-.18-.19-.31.12-.18.22-.37.32-.57.12-.21.23-.42.34-.62.08-.15.08-.31-.01-.47-.3-.57-.66-1.1-1.09-1.57-.06-.07-.17-.09-.24-.13-.19.12-.15.28-.19.42-.03.12-.09.21-.22.17-.21-.24-.39-.47-.61-.74.1-.06.17-.12.25-.14.13-.03.25-.03.38-.06.13-.05.24-.1.23-.29-.27-.31-.65-.59-.51-1.12.28-.15.57-.28.66-.65-.08-.06-.15-.12-.25-.2-.24.27-.45.52-.7.73-.25.22-.45.53-.86.64-.72-.75-1.56-.83-2.46-.31-.12-.08-.22-.12-.28-.21-.16-.23-.34-.47-.46-.74-.22-.46-.3-.97-.44-1.46-.07-.23-.14-.46-.23-.67-.15-.32-.43-.51-.75-.61-.13-.03-.25-.02-.36.12-.07.2-.03.4.06.62.1.24.22.5.29.76.06.21.08.43.06.65-.02.13-.13.25-.22.36-.07.08-.16.16-.3.07-.02-.23.23-.46.06-.75-.51-.1-.79-.5-1.06-.92-.81-1.25-1.55-2.52-2.2-3.86-.71-1.44-1.35-2.91-1.8-4.46-.07-.21-.16-.39-.24-.59-.09-.02-.16-.05-.24-.06-.51-.1-.77-.44-.86-.95-.05-.27-.13-.53-.17-.8-.06-.3-.19-.55-.45-.74-.2-.03-.39-.16-.66-.03.01.1-.01.21.03.3.42,1.03.87,2.05,1.41,3.03.82,1.47,1.64,2.94,2.45,4.4.53.96.99,1.95,1.39,2.98.23.64.39,1.29.55,1.94.07.29.13.6.03.99-.13-.08-.2-.1-.24-.15-.15-.23-.3-.46-.44-.69-.16-.31-.3-.64-.47-.92-.2-.32-.43-.64-.79-.79-.19.17-.13.35-.1.5.09.67.3,1.32.54,1.94.37.94.81,1.84,1.21,2.76.22.49.44.96.67,1.43.1.22.13.42,0,.62-.36.55-.62.6-1.16.17-.21-.17-.43-.35-.64-.52-.15-.12-.31-.2-.51-.12-.02.02-.06.05-.07.08-.02.05-.05.12-.03.16.02.08.06.17.1.25.28.46.17.87-.19,1.25-.1.12-.23.22-.36.34-.17.16-.37.3-.53.47-.18.2-.39.39-.45.67-.05.31-.27.51-.49.71-.98.88-1.98,1.75-2.92,2.66-2.05,1.97-3.91,4.12-5.8,6.23-1.46,1.64-2.91,3.28-4.38,4.92-.43.47-.88.94-1.32,1.4-.31.34-.69.53-1.17.52-.39,0-.8,0-1.2.01h-1.04c-.19,0-.37.02-.54.2-.08.25-.23.52-.28.81.15.16.32.12.49.12.55.01,1.1,0,1.65.01.49,0,.92.18,1.33.43.06.03.1.1.14.15-.03.22-.17.3-.35.32-.19.02-.37.01-.54.03-.1.02-.19.07-.3.12.09.17.16.31.24.47-.52.3-.83.75-1.11,1.23-.13.24-.27.47-.43.69-.37.5-.77.92-1.36,1.16-.17.07-.32.23-.39.28-.69,1.93-1.64,3.64-2.75,5.25-.4.59-.82,1.16-1.26,1.72.13.31.45.36.62.51.24.06.4-.02.57-.12.19-.12.37-.23.54-.35.39-.29.76-.6,1.11-.91.47-.44.97-.83,1.56-1.14.05.03.1.07.18.13-.29.38-.55.75-.83,1.11-.28.37-.57.72-.86,1.08-.27.32-.53.64-.8.95-.03.05-.08.09-.12.14-.29.35-.68.61-.9,1.03.32.08.81-.14,1.24-.5.23-.21.44-.44.6-.71.25-.16.53-.32.82-.51.06.07.1.13.14.18-.21.25-.43.47-.58.74-.16.28-.28.6-.09.91.22.09.39.02.53-.09.17-.14.34-.29.51-.43.14-.1.27-.25.5-.24.06.35-.34.66-.07.98.14.08.25.02.36-.06.42-.3.8-.64,1.12-1.04.57-.71,1.03-1.47,1.53-2.22.36-.53.72-1.06,1.18-1.51.36-.35.77-.6,1.24-.79.16-.07.34-.12.51.02-.01.24-.2.36-.34.5-.29.31-.49.67-.59,1.11.08.03.14.06.2.09.08-.06.14-.09.2-.15.52-.54,1.03-1.08,1.55-1.63.3-.31.59-.65.89-.97.18-.22.42-.32.72-.34,1.8-.08,3.62-.09,5.43-.03,1.6.06,3.18.12,4.77.17.87.02,1.72.06,2.58.09.96.05,1.91.09,2.86.15.42.02.84.05,1.26.07.81.05,1.61.1,2.4.15.43.02.84.05,1.27.08.45.03.9.08,1.36.1.67.05,1.35.03,2.02.12.9.1,1.79.13,2.68.17.73.05,1.46.13,2.16.18.08.08.15.12.18.17.3.44.62.87.9,1.32.73,1.2,1.44,2.42,2.16,3.63.77,1.28,1.55,2.57,2.51,3.72.1.13.19.28.27.42.23.44.45.88.69,1.32.23.39.49.76.9,1.01.22.14.44.17.65.03.13-.2.06-.37-.04-.53-.25-.42-.49-.86-.76-1.26-.43-.62-.9-1.2-1.33-1.83-.34-.47-.64-.97-.92-1.49-.25-.46-.37-.98-.36-1.53.01-.36.1-.65.37-1.02.06.05.13.08.14.14.08.22.04.43-.08.64-.08.14-.21.25-.19.44.07.16.21.25.37.31.42.17.75.46,1.04.8.28.32.54.68.81,1.03.08.09.16.18.25.3.14-.09.25-.17.38-.25.15.06.3.12.43.17.16-.1.13-.22.06-.3-.08-.09-.2-.16-.29-.25-.06-.06-.08-.14-.12-.21.2-.17.36-.13.46.01.16.24.32.49.45.75.12.25.24.49.46.69.08.01.16.03.25.03.07-.01.13-.06.17-.07.1-.17.08-.31.01-.45-.27-.54-.52-1.09-.8-1.62-.5-.94-1.01-1.86-1.51-2.8-.35-.65-.57-1.34-.8-2.03-.03-.13-.02-.28-.03-.49.14.08.23.1.28.16.7.83,1.35,1.69,1.9,2.62.55.92,1.11,1.85,1.66,2.77.59.97,1.26,1.88,2.03,2.72.05.05.12.08.2.15.06-.08.13-.14.12-.18,0-.15-.01-.3-.05-.44-.21-.72-.42-1.43-.76-2.1-.52-1.01-1.04-2.01-1.6-3.01-.49-.9-.91-1.83-1.21-2.81-.05-.15-.1-.3.03-.47.16.14.31.28.46.39.15.1.31.1.47.02.12-.05.23-.13.18-.29-.12-.17-.4-.2-.44-.44.02-.03.04-.06.05-.06.88-.3,1.79-.51,2.73-.54.1-.01.22,0,.32-.01.08-.02.16-.07.23-.09,0-.23-.14-.28-.28-.31Zm-50.69.88c-.15.09-.32.17-.49.24-.07.02-.16-.02-.29-.03.13-.4.4-.65.64-.91.34-.37.74-.65,1.21-.83.03-.01.09.02.18.05-.29.62-.68,1.13-1.26,1.49Zm9.18-14.28c.17-.51.5-.83.77-1.18.17-.22.4-.38.72-.47,0,.09.03.17,0,.21-.37.52-.79,1.01-1.31,1.4-.02.01-.07.01-.19.05Zm.68,1.88s-.03-.08-.02-.09c.82-.97,1.63-1.95,2.46-2.92.06-.08.16-.13.35-.27-.32.95-2,2.87-2.79,3.28Zm2.69,7.35c-.34-.02-.46-.24-.6-.52.12-.06.2-.14.29-.15.39-.06.77-.06,1.14.15-.23.06-.47.13-.74.2-.02.08-.06.2-.09.32Zm2.61.21c-.07.02-.15.06-.21.05-.51-.15-1.05-.08-1.58-.28.01-.18.02-.34.03-.49.16.06.34.12.5.18.34.15.66.18.99.01.05-.01.1-.01.17-.02.16.16.22.32.09.54Zm.45-3.51c-.07.08-.16.15-.24.22-.17.14-.36.21-.55.1-.2-.1-.28-.29-.23-.57.38-.12.73-.09,1.12-.02-.03.12-.05.21-.09.27Zm10.06-13.65c.06.02.14.03.17.08.39.43.68.94.86,1.49.01.03-.03.08-.08.17-.47-.5-.76-1.06-1.03-1.65.03-.02.06-.06.08-.09Zm-3.88-4.02s.1-.03.22-.06c.02.49-.2.83-.42,1.14-.23.31-.47.61-.75.88-.52.53-1.08,1.04-1.62,1.55-.05.05-.1.08-.17.13-.01-.06-.05-.1-.03-.13.82-1.26,1.76-2.42,2.77-3.51Zm4.68,18.82c-1.51.07-3.03.03-4.55-.02-.92-.02-1.86-.05-2.8-.08-.24,0-.5-.03-.76-.06-.15-.42.19-.6.22-.91.13.06.24.07.31.14.35.28.73.39,1.17.4,1.09.01,2.16-.02,3.23-.15.55-.07,1.1-.07,1.64.02.52.08,1.05.15,1.55.34.09.03.16.12.31.21-.15.06-.23.1-.31.12Zm1.76,3.87c-.35-.05-.68-.12-.88-.52.1-.03.19-.08.25-.07.13,0,.25.02.37.07.35.14.69.22,1.06.22.02,0,.05.05.13.12-.3.29-.62.23-.94.18Zm.71-5.7c-1.12-.13-2.24-.36-3.38-.25-.28.02-.54.06-.82.1-.29.05-.57.1-.88.03-.13-.21-.13-.52-.47-.59-.14.1-.3.22-.46.34-.34.1-.67.15-1.05,0-.09-.08-.21-.2-.31-.3-.37.06-.32.58-.77.57-.4-.17-.77-.65-1.35-.43-.08-.07-.16-.12-.23-.17-.22-.2-.47-.23-.76-.17-.59.1-1.19.2-1.79.28-.14.02-.28,0-.38,0-.14-.2-.06-.32,0-.45.42-.8.9-1.55,1.43-2.28.97-1.32,2.07-2.51,3.19-3.69.95-.99,1.88-1.99,2.83-2.99.32-.35.62-.72.95-1.06.09-.1.2-.2.32-.31.12.12.22.18.3.28.88,1.04,1.65,2.15,2.39,3.27,1.6,2.42,2.95,4.97,4.28,7.54.09.17.17.35.3.59-.42.12-.76.06-1.1.02-.53-.06-1.06-.12-1.58-.18-.22-.03-.43-.1-.65-.13Zm3.47,2.44c-.06.06-.15.13-.22.14-.86.02-1.71.03-2.57.05-.05,0-.09-.03-.17-.07.02-.08.03-.2.08-.24.21-.17.44-.34.73-.34.31-.01.62-.01.93.02.39.05.79.14,1.25.22-.01.09.01.17-.02.22Zm10.57-.44c.39.27.54.66.72,1.04.03.06-.07.17-.12.28-.45-.24-.49-.76-.9-1.08.14-.12.22-.17.3-.24Zm-1.21,10.81c-.23,0-.39-.12-.54-.25-.52-.5-.79-1.13-.94-1.81-.03-.18,0-.36.09-.53.09-.14.17-.28.4-.28-.12.9-.08,1.06.43,1.83.18.28.39.57.61.87-.01.05-.03.1-.06.18Zm.59-11.36c-.24-.18-.4-.44-.49-.72-.09-.35-.27-.64-.52-.88.02-.21.17-.21.28-.13.15.12.3.27.4.44.23.4.44.83.66,1.24-.12.17-.23.13-.34.05Zm1.09,11.4c-.14-.18-.29-.37-.38-.58-.19-.4-.34-.83-.5-1.26.06-.03.09-.07.15-.1.36.2.55.53.69.88.13.34.19.69.3,1.14-.15-.03-.23-.03-.27-.08Zm1.27,1.83c.39.03.58.27.69.58.06.15.1.31-.1.45-.29.01-.4-.24-.54-.44-.12-.17-.21-.35-.05-.59Zm1.93-7.17c-.18.08-.32-.02-.45-.13-.3-.24-.62-.42-1.08-.36,0-.12-.03-.21-.01-.28.08-.21.17-.39.29-.66.09.01.17.01.27.02.06.1.12.2.18.32.36.01.64.2.77.55.06.16.13.34.02.52Zm6.95-35.3c-.32-.43-.88-.74-.67-1.39.36-.17.69-.32,1.02-.49.89-.43,1.7-.98,2.54-1.49,1.2-.75,2.42-1.5,3.46-2.49.06-.05.12-.09.17-.14.25-.2.52-.4.77-.61.12-.09.21-.2.32-.28.62-.49,1.25-.96,1.87-1.43.1-.08.21-.15.31-.22.35-.24.69-.47,1.04-.71.61-.4,1.21-.82,1.83-1.21.44-.28.91-.52,1.38-.77.51-.29,1.01-.59,1.53-.86.62-.32,1.25-.64,1.81-1.1.84-.69,1.61-1.47,2.37-2.24-1.79-1.21-3.66-2.3-5.62-3.26-.17.12-.34.22-.51.34-.44.29-.88.59-1.18,1.05-.36.57-.74,1.12-1.1,1.69-.28.44-.62.81-1.09,1.05-.58.31-1.06.72-1.48,1.2-.4.47-.79.96-1.18,1.44-.01.01-.01.03-.02.05-.21.25-.4.52-.61.77-.1.13-.23.24-.32.37-.58.87-1.34,1.55-2.12,2.22-.5.43-1.04.81-1.56,1.2-.17.13-.37.23-.54.36-.31.23-.61.46-.84.79-.15.2-.32.39-.5.58-.28.31-.58.61-.87.92-.51.55-1.11.99-1.71,1.44-.39.3-.79.59-1.18.89-.09.06-.17.14-.23.23-.38.6-.75,1.21-.77,1.95,0,.05-.03.09-.06.14-.23.16-.49-.03-.77.09-.06.07-.17.18-.27.3-.01.15-.01.28-.04.4-.07.38-.18.75-.47,1.03-.47.47-.97.94-1.47,1.4-.42.38-.84.75-1.27,1.12-.16.15-.32.3-.5.43-.5.37-1.01.73-1.51,1.09-.43.31-.88.59-1.28.92-.35.27-.65.59-.96.9-.06.07-.06.2-.1.36.17.02.28.07.35.03.42-.16.87-.27,1.24-.54.82-.61,1.72-1.08,2.64-1.53,1.06-.52,2.02-1.16,2.82-2.03.25-.29.54-.55.82-.82.14-.14.29-.27.45-.38.97-.69,1.97-1.33,3.05-1.8.35-.15.67-.36,1.02-.54v-.44Z"/>
  </g>
</svg>