<?xml version="1.0" encoding="UTF-8"?>
<svg xmlns="http://www.w3.org/2000/svg" viewBox="0 0 108 108">
  <defs>
    <style>
      .cls-1 {
        fill: #282828;
      }

      .cls-1, .cls-2 {
        stroke-width: 0px;
      }

      .cls-2 {
        fill: #e9d5bd;
      }
    </style>
  </defs>
  <g id="bg">
    <circle class="cls-1" cx="54" cy="54" r="54"/>
  </g>
  <g id="icon">
    <path class="cls-2" d="m106.6,64.04c-1.66-.54-3.33-1.04-5-1.54-.78-.23-1.57-.44-2.36-.64-.77-.19-1.55-.37-2.33-.55-.82-.19-1.64-.38-2.47-.56-.7-.15-1.39-.3-2.09-.44-.7-.14-1.4-.28-2.1-.41-.64-.12-1.29-.22-1.94-.32-.6-.1-1.21-.2-1.81-.3-.55-.09-1.09-.17-1.64-.25-.17-.03-.34-.08-.52-.1-.75-.1-1.5-.18-2.25-.28-.87-.11-1.73-.23-2.6-.34-.48-.06-.96-.1-1.43-.15-.68-.07-1.36-.14-2.04-.21-.1-.01-.2-.03-.3-.04-.74-.07-1.48-.14-2.22-.21-.15-.01-.29-.02-.44-.03-.61-.06-1.22-.14-1.83-.18-1.09-.08-2.18-.16-3.27-.22-.55-.03-1.11-.02-1.66-.05-.99-.06-1.98-.15-2.97-.19-1.34-.05-2.68-.07-4.03-.1-.58-.01-1.17-.03-1.75-.04-.13,0-.27.03-.34-.11.08-.38.13-.76.23-1.12.19-.69.28-1.4.31-2.11.04-1.18.02-2.36,0-3.55-.01-.68-.06-1.37-.11-2.05-.08-1.11-.15-2.21-.26-3.31-.08-.77-.22-1.53-.34-2.29-.04-.26-.09-.52-.12-.78-.11-.9-.22-1.79-.33-2.69-.09-.73-.13-1.45-.05-2.18.03-.25.09-.49.12-.73.11-.94.2-1.88.3-2.83.06-.6.14-1.19.18-1.79.08-1.05.14-2.1.2-3.14.04-.73.05-1.46.07-2.19.05-1.72.13-3.44.16-5.16.03-1.46,0-2.92.02-4.38,0-.19,0-.38-.13-.54-.67-.86-1.54-1.32-2.65-1.25-.68.04-1.26.33-1.75.79-.33.31-.56.68-.53,1.19.05.73.04,1.46.04,2.19,0,.14.06.29-.09.41-.26-.12-.52-.26-.78-.36-.51-.19-1.05-.19-1.55-.06-.6.15-1.13.47-1.56.93-.21.22-.33.45-.33.77,0,3.48.04,6.95.26,10.42.06.92.1,1.84.18,2.75.09,1.08.22,2.15.34,3.22.06.54.15,1.07.21,1.6.05.45.14.9.11,1.35-.05.73-.17,1.45-.29,2.17-.12.73-.29,1.46-.4,2.19-.19,1.23-.27,2.46-.33,3.7-.08,1.65-.12,3.3-.05,4.95.03.71.12,1.42.21,2.13.06.52.17,1.03.25,1.55.01.1,0,.2-.01.31-.1.02-.18.05-.26.06-.49.02-.99.05-1.49.05-1.28,0-2.57.02-3.85.12-.76.06-1.51.09-2.27.13-.55.03-1.11.05-1.66.09-1.31.09-2.62.19-3.93.28-.68.05-1.37.1-2.05.16-1.02.1-2.03.22-3.04.33-.26.03-.52.08-.78.1-.91.1-1.83.18-2.74.29-.8.1-1.59.22-2.38.33-.2.03-.4.07-.6.1-.74.1-1.47.18-2.21.3-.78.12-1.55.28-2.32.42-.77.14-1.55.26-2.32.4-.14.02-.28.07-.43.09-.56.1-1.12.19-1.67.3-.61.12-1.22.27-1.83.41-.4.09-.8.17-1.19.26-.84.19-1.67.38-2.51.57-.57.13-1.13.28-1.69.42-.37.09-.73.18-1.1.29-.73.21-1.45.44-2.17.66-.26.08-.53.15-.79.24-.64.2-1.28.38-1.91.59-.19.06-.38.14-.57.2.02.13.04.26.07.39.26-.07.52-.14.78-.2.49-.12.99-.24,1.48-.36.45-.11.9-.24,1.35-.34.67-.15,1.34-.28,2.01-.42.88-.19,1.77-.37,2.65-.55.01,0,.03,0,.04,0,.65-.11,1.29-.22,1.94-.33.69-.13,1.37-.27,2.06-.39.83-.14,1.67-.26,2.5-.39.17-.03.34-.08.52-.1.75-.1,1.5-.18,2.25-.28.81-.11,1.62-.23,2.42-.35.23-.03.46-.08.69-.1.88-.1,1.77-.18,2.65-.28,1-.11,2-.24,3-.34.67-.07,1.34-.12,2.01-.17.73-.06,1.45-.13,2.18-.19.22-.02.44-.03.66-.05.57-.06,1.13-.13,1.7-.17,1.13-.08,2.27-.16,3.41-.22.63-.04,1.26-.03,1.88-.06,1.14-.06,2.27-.16,3.41-.21,1.27-.05,2.54-.07,3.81-.1.73-.02,1.46-.02,2.19-.04.11,0,.23,0,.37,0,.07.52-.06.94-.18,1.35-.26.95-.58,1.89-.85,2.84-.13.46-.23.93-.28,1.41-.07.74-.09,1.48-.12,2.23-.02.44-.11.87-.27,1.28-.5,1.22-1.02,2.44-1.39,3.71-.23.77-.46,1.53-.64,2.31-.15.67-.25,1.35-.35,2.02-.08.51-.07,1.03.15,1.5.21.43.42.87.68,1.27.6.92,1.32,1.74,2.05,2.56.53.6,1.06,1.21,1.57,1.82.25.3.45.64.6,1.01.46,1.15,1.18,2.14,2,3.05.51.57,1.45.62,2.03-.08.11-.13.22-.28.33-.41.66-.75,1.19-1.59,1.57-2.51.22-.52.52-.98.88-1.4.82-.97,1.67-1.91,2.49-2.88.5-.59.95-1.22,1.31-1.91.25-.48.46-.99.42-1.54-.04-.57-.11-1.13-.22-1.69-.13-.7-.27-1.4-.48-2.08-.31-1.03-.67-2.04-1.03-3.05-.22-.6-.49-1.18-.71-1.78-.26-.71-.31-1.45-.3-2.2.02-.97-.18-1.91-.45-2.83-.16-.57-.36-1.13-.55-1.7-.2-.59-.34-1.2-.44-1.82-.02-.17-.07-.35.06-.5.21,0,.41,0,.61,0,1.49.03,2.98.06,4.46.1,1.47.04,2.95.09,4.42.14,1.21.04,2.42.1,3.63.16.09,0,.17.02.26.03.95.07,1.89.14,2.84.2.73.05,1.46.09,2.18.15.84.07,1.68.15,2.53.22.55.05,1.11.08,1.66.13,1.07.11,2.14.24,3.22.36.48.05.96.09,1.44.15.85.1,1.7.22,2.56.33.43.05.87.1,1.3.16.75.11,1.5.22,2.24.34.68.1,1.35.21,2.03.31.57.09,1.15.19,1.72.28.59.09,1.18.17,1.77.28.57.1,1.14.22,1.71.33.73.14,1.46.26,2.19.41.53.1,1.05.22,1.58.34.67.15,1.33.3,2,.45.52.12,1.05.25,1.57.38.73.18,1.46.36,2.19.54.02-.13.04-.25.07-.38-.14-.05-.29-.11-.43-.15Zm-54.95-24.74c.07-.53.18-1.06.27-1.59.16-1.01.33-2.01.48-3.02.13-.91.24-1.82.34-2.73.07-.62.1-1.25.15-1.87.02-.29.07-.57.18-.87.02.05.06.11.07.16.05.54.09,1.08.14,1.61.04.38.08.75.13,1.13.1.74.2,1.47.32,2.21.15.93.34,1.86.46,2.8.11.88.08,1.78,0,2.66-.09.88-.19,1.77-.3,2.65-.1.84-.22,1.68-.32,2.52-.06.52-.11,1.04-.15,1.57-.06.92-.1,1.83-.16,2.75-.04.64-.09,1.28-.14,1.92-.03,0-.05,0-.08.01-.03-.14-.07-.28-.08-.42-.11-1.41-.2-2.82-.41-4.22-.11-.7-.17-1.42-.28-2.12-.12-.78-.29-1.55-.41-2.32-.14-.93-.33-1.87-.2-2.82Zm6.31,36.07c.17.3.29.64.44.95.11.23.1.45-.01.67-.22.43-.43.86-.68,1.27-1.04,1.69-2.21,3.29-3.39,4.89-.18.25-.37.48-.56.73q-.3.4-.79.6c-.43-.06-.67-.35-.89-.64-1.34-1.78-2.65-3.59-3.85-5.47-.23-.37-.42-.76-.64-1.14-.23-.4-.22-.81-.02-1.21.25-.49.52-.98.79-1.46.5-.89,1.01-1.78,1.51-2.66.16-.28.33-.55.51-.81.28-.38.71-.32.89.11.14.33.15.68-.04,1.01-.1.16-.19.33-.3.48-.46.72-.57,1.52-.53,2.35.02.43.12.86.29,1.27.23.54.57.99,1.04,1.33.94.66,2,.52,2.83-.38.58-.63.85-1.41.89-2.27.03-.57-.01-1.14-.23-1.67-.12-.29-.29-.57-.45-.84-.15-.27-.32-.52-.3-.85.02-.23.1-.42.25-.59.22-.25.5-.26.71,0,.19.24.35.5.5.77.68,1.19,1.36,2.38,2.03,3.57Zm37.75-22.47c.25-.7.22-1.45.47-2.16.74-.02,1.48-.05,2.21.01.21.74.22,1.47.47,2.14h.96c-.06-.36-.11-.66-.17-.95-.14-.73-.29-1.45-.44-2.18-.14-.68-.27-1.37-.41-2.05-.13-.68-.26-1.37-.4-2.06-.15-.77-.31-1.54-.47-2.31-.07-.32-.14-.64-.21-.97-.33-.05-.62-.07-.92.03-.09.47-.19.94-.28,1.41-.14.71-.27,1.43-.42,2.14-.14.71-.29,1.42-.43,2.14-.15.76-.28,1.52-.43,2.27-.13.68-.29,1.37-.41,2.05-.03.15-.07.31.02.48h.89Zm.67-3.62c.11-.73.22-1.47.34-2.2.09-.62.19-1.24.28-1.86.04-.29.07-.58.11-.87.02-.15.07-.3.1-.45.03,0,.06.02.09.02.05.36.09.72.15,1.07.2,1.23.4,2.47.61,3.7.04.24.09.49.12.73.02.13,0,.26,0,.39-.31.11-.6.05-.89.06-.29,0-.58,0-.87,0-.14-.21-.08-.41-.05-.61Zm-65.47,3.57s.02.02.05.04h.88c0-.19.02-.34.02-.5,0-2.95,0-5.9,0-8.85,0-.29,0-.58,0-.88,0-.1-.03-.19-.05-.3-.31-.05-.59-.05-.86,0-.03.06-.05.08-.05.11,0,.1-.01.2-.01.31,0,3.34.01,6.68.02,10.03,0,.01,0,.03.02.04Zm42.15.04c.09,0,.19.03.29.02.54-.02,1.08-.04,1.61-.09.8-.07,1.4-.45,1.78-1.17.28-.52.43-1.09.47-1.67.07-1.02.17-2.03.1-3.06-.06-.92-.12-1.83-.35-2.73-.22-.89-.69-1.56-1.62-1.77-.77-.18-1.56-.09-2.4-.07,0,.25,0,.42,0,.59,0,1.18,0,2.37,0,3.55,0,1.96,0,3.91,0,5.87,0,.17-.06.35.1.52Zm.92-9.66c.66-.09,1.26,0,1.74.53.29.32.38.71.44,1.12.22,1.38.16,2.76.13,4.15-.01.57-.1,1.13-.23,1.68-.21.93-1.22,1.48-2.09,1.23-.09-.31-.09-8.3,0-8.71ZM8.15,52.89c.26-.7.2-1.46.49-2.15.74,0,1.46-.05,2.19.03.22.72.2,1.46.47,2.13h.93c-.02-.21-.03-.37-.06-.52-.1-.54-.21-1.08-.32-1.62-.1-.48-.19-.97-.29-1.45-.14-.68-.29-1.36-.42-2.05-.14-.71-.28-1.43-.42-2.14-.15-.76-.29-1.51-.45-2.27-.03-.17-.1-.32-.15-.47h-.88c-.69,3.5-1.38,6.97-2.05,10.47.35.12.66.09.97.04Zm.66-3.52c.26-1.77.52-3.54.78-5.31,0-.04.04-.07.06-.1.02,0,.04,0,.05,0,.01,0,.03.01.03.03.02.05.05.11.05.17.14,1.88.58,3.71.86,5.56,0,.04-.02.08-.03.12-.35.09-1.41.09-1.81,0,0-.17-.02-.31,0-.46Z"/>
  </g>
</svg>