<?xml version="1.0" encoding="UTF-8"?>
<svg xmlns="http://www.w3.org/2000/svg" viewBox="0 0 108 108">
  <defs>
    <style>
      .cls-1 {
        fill: #282828;
      }

      .cls-1, .cls-2 {
        stroke-width: 0px;
      }

      .cls-2 {
        fill: #e9d5bd;
      }
    </style>
  </defs>
  <g id="bg">
    <circle class="cls-1" cx="54" cy="54" r="54"/>
  </g>
  <g id="icon">
    <path class="cls-2" d="m100.49,71.25c-17.05,0-34.11,0-51.16,0-13.97,0-27.95,0-41.92,0-.1,0-.21.02-.31-.02v1.54c31.26,0,62.53,0,93.79,0v-1.54c-.13.04-.27.02-.41.02Zm-77.56-10.73c-.12.45-.19.91-.16,1.34-.01.46.07.87.17,1.29.22.85.64,1.57,1.22,2.22.18.2.42.35.6.55.07.08.14.03.18-.02.11-.13.21-.26.31-.4.43-.57.87-1.14,1.3-1.72.39-.52.78-1.03,1.17-1.55.19-.26.26-.26.45,0,.01.02.03.04.04.06.31.45.66.88.99,1.32.52.71,1.07,1.4,1.61,2.11.22.29.26.3.53.05.44-.41.84-.85,1.14-1.38.24-.43.42-.88.54-1.35.13-.51.16-1.04.13-1.57-.03-.72-.23-1.39-.56-2.02-.29-.57-.66-1.11-1.18-1.52-.07-.05-.14-.11-.2-.17-.14-.14-.14-.14-.27,0-.04.05-.08.1-.12.15-.43.55-.84,1.11-1.26,1.66-.46.61-.94,1.2-1.39,1.82-.19.27-.26.27-.45,0-.36-.53-.79-1-1.16-1.52-.29-.41-.61-.8-.91-1.2-.21-.28-.42-.56-.63-.84-.15-.2-.17-.2-.35-.04-.46.4-.87.84-1.17,1.37-.25.43-.45.88-.58,1.36Zm8.11.45h.57l.71,1.1v-1.1h.55v1.99h-.55l-.02-.03-.71-1.09v1.13h-.55v-1.99Zm-2.06,0h1.09c.16,0,.27.02.36.05.09.03.16.08.23.15.05.05.09.11.12.17.03.07.05.14.05.23,0,.1-.03.2-.08.3-.03.06-.08.11-.14.14.04.03.07.06.1.1.05.08.07.18.07.33v.12c0,.1,0,.14,0,.15,0,.03.02.04.04.06l.04.02v.17h-.61l-.02-.05s-.02-.08-.03-.11c-.01-.05-.02-.11-.02-.17v-.17c0-.12-.03-.17-.05-.18-.02-.01-.06-.04-.21-.04h-.37v.72h-.57v-1.99Zm-3.85,0h.59v1.2c0,.14.02.21.04.24.04.08.13.12.28.12s.24-.04.28-.11c.02-.04.04-.1.04-.24v-1.2h.59v1.2c0,.21-.04.38-.11.5-.14.22-.41.33-.79.33s-.65-.11-.79-.33c-.08-.12-.12-.28-.12-.5v-1.2Zm-.22,0v.48h-.62v1.51h-.59v-1.51h-.62v-.48h1.83Zm1.92-8.54c.03-.07.06-.11.13-.11.07,0,.14-.02.21-.02.18,0,.37,0,.55,0,24.3,0,48.6,0,72.91,0,.09,0,.18,0,.26,0v-1.25c-.1,0-.21,0-.31,0-12.93,0-25.86,0-38.78,0-7.3,0-14.61,0-21.91,0-1.34,0-2.69,0-4.03,0-.15,0-.3,0-.46-.04.02-.1.09-.11.15-.11.72-.05,1.42-.19,2.15-.22.55-.02,1.1-.09,1.64-.2.43-.09.84-.25,1.25-.42.44-.17.9-.21,1.36-.13.3.05.59.04.88.02.49-.04.99-.09,1.48-.15.4-.05.81-.1,1.21-.17.42-.07.83-.14,1.25-.22.59-.12,1.19-.24,1.78-.4.4-.11.8-.22,1.2-.32.2-.05.39-.13.58-.2,0,0,0,0,0,0,0,0,0,0,0,0,.07,0,.14,0,.21-.01h0c.14-.03.27,0,.39.09.12.09.26.17.42.1.13-.05.29-.09.39-.18.18-.16.4-.2.6-.27.55-.18,1.12-.32,1.67-.51.21-.07.43-.12.62.12.11.15.28.12.42,0q.14-.13.26.01s.07.09.1.13c.23.27.72.33.96.12.21-.18.42-.37.56-.61.02-.03.03-.05.06-.08.09-.08.17-.08.24,0,.02.03.04.07.06.1.52.8,1.14,1.5,2.02,1.92.27.13.55.22.84.27.25.04.49.01.74,0,.57-.05,1.09-.24,1.54-.55.54-.37.96-.86,1.24-1.45.33-.7.55-1.43.62-2.22.04-.39-.04-.74-.09-1.11-.03-.28-.11-.56-.18-.84-.07-.28-.13-.56-.23-.83-.25-.68-.56-1.33-1.04-1.9-.5-.59-1.11-1.02-1.87-1.24-.39-.12-.8-.12-1.2-.17-.4-.04-.81-.01-1.22-.01-.1,0-.21.02-.31.05-.21.06-.42.11-.62.16-.27.06-.54.16-.79.28-.35.16-.68.35-1,.56-.42.28-.81.59-1.16.95-.17.18-.36.34-.52.53-.06.07-.12.12-.23.09-.16-.05-.29.02-.42.11-.24.16-.49.29-.76.41-.4.18-.83.29-1.23.46-.32.13-.65.2-1,.21-.28,0-.53.16-.64.43-.07.18-.2.24-.35.31-.06.02-.13,0-.18.06-.41-.03-.83-.04-1.24,0-.05-.03-.1-.03-.15,0-.78.01-1.57.02-2.35.05-.66.03-1.33.06-1.98.19-.33.07-.67.15-1,.25-.81.23-1.6.53-2.42.73-.62.15-1.25.23-1.89.32-.49.07-.97.17-1.46.26-.92.17-1.84.33-2.78.24-.52-.05-.99-.25-1.45-.47-.46-.22-.91-.46-1.39-.64-.51-.19-1.03-.28-1.57-.32-.4-.03-.8-.01-1.2.02-.09,0-.17.02-.26.05-.08.03-.13-.02-.1-.1.02-.06.05-.12.1-.16.2-.21.22-.46.15-.73-.12-.46-.04-.88.21-1.28.1-.16.2-.33.31-.48.34-.48.41-1.03.38-1.6-.03-.55-.23-1.04-.45-1.52-.29-.64-.65-1.24-1.05-1.82-.28-.41-.64-.76-1.06-1.02-.5-.31-1.03-.53-1.62-.63-.05,0-.14,0-.09-.11h-1.73c-.01.08-.08.09-.14.1-.38.04-.72.18-1.06.34-.37.17-.71.4-1,.69-.32.31-.55.68-.72,1.09-.24.58-.35,1.19-.44,1.81-.06.39-.07.78-.11,1.17-.04.32,0,.65,0,.98,0,.39.03.78.12,1.16.06.25-.04.45-.25.6-.19.14-.41.22-.61.32-.32.15-.61.35-.93.49-.46.2-.94.3-1.44.36-.33.04-.67.08-1,.13-.57.09-1.14.23-1.61.61-.13.1-.28.16-.45.19-.4.07-.79.1-1.19.08-.47-.02-.94.03-1.41.11-.37.06-.67.27-.89.6-.33.48-.62.99-.89,1.5-.21.39-.36.8-.52,1.2-.23.55-.38,1.11-.56,1.68-.04.14-.04.3-.08.45-.06.19-.05.19-.24.19-.22,0-.43,0-.65,0v19.25c.1.04.21.02.31.02,23.15,0,46.3,0,69.44,0,7.89,0,15.77,0,23.66,0,.13,0,.25.03.38-.02v-17.09c-.09,0-.18.02-.26.02-24.37,0-48.73,0-73.1,0-.28,0-.56,0-.84,0-.17,0-.2-.04-.13-.2.09-.2.18-.4.26-.61Zm-5.05.93c-.28.24-.59.44-.93.59-.39.17-.79.25-1.2.1-.22-.08-.36-.03-.5.15-.2.27-.43.51-.67.74-.12.12-.25.22-.4.31-.19.1-.37.21-.5.39-.08.11-.16.21-.17.36.1.06.22.03.33.04.61,0,1.21.11,1.79.31.48.17.91.44,1.24.84.36.43.56.94.58,1.51.02.45-.06.88-.25,1.28-.16.33-.38.63-.68.85-.43.33-.92.54-1.45.65-.11.02-.21.06-.33.13.19.04.37.09.56.13.59.14,1.12.4,1.56.83.29.28.46.62.59,1,.19.55.18,1.1.08,1.65-.13.68-.5,1.21-1.06,1.62-.29.21-.59.38-.93.48-.38.12-.78.18-1.17.21-.51.04-1.02.03-1.54.02-.06,0-.11,0-.17,0-.06,0-.1-.04-.1-.11,0-.22.02-.45,0-.67,0-.07.04-.12.11-.14.05-.02.11-.02.16-.03.57-.09.8-.46.86-.99.03-.27.02-.54.02-.81,0-.56.03-1.12-.02-1.68-.06-.59-.38-.95-.97-1.05-.1-.02-.13-.05-.13-.15,0-.21,0-.42,0-.62,0-.1.04-.15.13-.17.06-.01.12-.03.19-.04.47-.05.81-.59.81-1.02,0-.59,0-1.18,0-1.78,0-.33-.08-.65-.3-.92-.12-.16-.31-.22-.47-.31h0s-.05-.03-.08,0c-.08-.01-.17-.02-.25-.04-.18.22-.43.35-.67.47-.02.07-.02.14-.02.21,0,3.19,0,6.38,0,9.58,0,.26,0,.27-.26.28-.03,0-.06,0-.1,0-.08.04-.17.01-.26.01-.3,0-.6,0-.9,0-.43,0-.87,0-1.3,0-.21,0-.42,0-.64,0-.2,0-.38.03-.58,0-.15-.02-.32-.05-.44-.15-.02-.01-.03-.03-.04-.04-.09-.09-.12-.21-.11-.34.03-.28.27-.41.51-.49.08-.03.13-.03.19-.09.1-.09.14-.22.14-.35,0-.16,0-.32,0-.48,0-2.68,0-5.37,0-8.05,0-.06,0-.13,0-.19-.03-.16-.09-.31-.28-.35-.09-.02-.18-.06-.27-.1-.36-.18-.39-.59-.06-.82.03-.02.05-.04.08-.06,0,0,.02,0,.02,0v-.02c.11,0,.22-.01.33-.02,0,0,0,.01,0,.01h0c.14-.02.29,0,.43-.03-.02-.12-.13-.18-.2-.26-.11-.12-.18-.26-.27-.39-.09-.12-.14-.27-.09-.43.03-.11.01-.22,0-.33-.01-.17.04-.3.21-.39.14-.07.27-.17.38-.29.32-.33.63-.67.93-1.02.12-.14.27-.24.38-.39.1-.13.19-.24.24-.4.04-.15.21-.2.43-.18.16.02.21-.01.22-.16.02-.39.23-.71.41-1.04.23-.42.45-.84.66-1.27.22-.45.42-.91.82-1.25.19-.16.38-.29.63-.37.39-.12.78-.17,1.18-.18.38-.01.76.05,1.14.13.59.12,1.08.45,1.55.8.43.31.8.69,1.11,1.12.27.37.51.77.59,1.24.03.2.14.39.12.61-.02.27-.04.53-.18.76-.06.1-.07.21-.13.31-.18.29-.41.53-.66.74Zm14.64,14.14c-.09.04-.19.04-.28.04-.2,0-.4,0-.6,0-.19,0-.38,0-.58,0h0c-.41,0-.82,0-1.22,0-.09,0-.17-.02-.26-.05-.31-.13-.33-.56-.07-.75.04-.03.09-.06.15-.08.56-.2.95-.58,1.25-1.09.33-.57.7-1.12,1.05-1.68.07-.11.13-.24.2-.35.07-.11.13-.1.19,0,.13.25.25.5.38.74.04.09,0,.15-.04.22-.21.34-.4.69-.6,1.03-.02.03-.04.07-.05.11-.19.45-.04.68.31.87.08.05.17.09.25.13.2.09.26.25.24.45-.02.2-.14.33-.32.41Zm60.31-11.28c0-.19,0-.19.21-.19.38,0,.77,0,1.15,0,.23,0,.46,0,.69,0,.18,0,.19.01.19.2,0,.55,0,1.1,0,1.65h0c0,.53,0,1.07,0,1.6,0,.13-.02.25-.1.36-.14.18-.33.25-.55.19-.22-.06-.34-.23-.39-.44-.09-.34-.1-.69-.2-1.03-.17-.56-.39-1.08-.9-1.42-.09-.06-.11-.13-.11-.22,0-.23,0-.46,0-.7Zm-4.56,10.15c.09-.17.16-.35.15-.55,0-.15,0-.3,0-.46v-9.1c0-.24,0-.24.23-.24,1.1,0,2.19,0,3.29,0,.23,0,.23,0,.23.25v4.82h0c0,1.57,0,3.14,0,4.7,0,.09,0,.18,0,.26.03.27.15.4.41.47.11.03.22.05.32.09.32.11.42.52.17.75-.09.09-.22.14-.35.15-.13.01-.26.02-.38.02-1.41,0-2.82,0-4.22,0-.18,0-.35-.02-.51-.1-.15-.07-.28-.25-.27-.39,0-.17.17-.39.35-.45.07-.02.14-.05.21-.06.14-.03.3-.04.38-.18Zm-2.76-10.12c0-.22,0-.22.2-.22.62,0,1.23,0,1.85,0,.2,0,.2.01.2.2,0,.24,0,.48,0,.72,0,.09-.03.16-.1.2-.44.26-.64.69-.82,1.14-.16.4-.18.82-.27,1.23-.01.06-.03.13-.05.18-.1.26-.33.39-.61.33-.23-.04-.39-.23-.39-.5,0-.55,0-1.1,0-1.65h0c0-.54,0-1.09,0-1.63Zm-6.29-.13c.1-.06.22-.1.34-.1,1.46,0,2.93,0,4.39,0,.11,0,.2.02.3.07.17.08.28.25.27.44-.01.18-.1.32-.28.39-.13.05-.25.1-.38.15-.08.03-.12.07-.14.14-.05.15-.09.31-.09.47,0,2.72,0,5.44,0,8.16,0,.16.01.32.06.47.03.1.1.16.19.2.11.05.22.09.33.13.22.08.28.25.29.45,0,.17-.08.3-.25.37-.13.06-.25.09-.39.09-1.39,0-2.78,0-4.18,0-.12,0-.24-.02-.35-.05-.22-.07-.31-.2-.32-.42,0-.2.09-.35.27-.43.06-.03.12-.06.18-.07.3-.07.36-.12.4-.53.02-.21,0-.43,0-.65,0-1.19,0-2.38,0-3.58h0c0-1.4,0-2.8,0-4.2,0-.12-.02-.24-.05-.35-.03-.11-.11-.18-.23-.23-.16-.07-.34-.09-.46-.23-.18-.2-.15-.53.09-.68Zm-4.48-.09s.1,0,.14,0h1.44c.49,0,.98,0,1.46,0,.24,0,.24,0,.24.23,0,.92,0,1.84,0,2.76,0,.09,0,.17-.04.26-.08.19-.19.27-.4.27-.18,0-.31-.07-.39-.25-.12-.31-.23-.62-.4-.92-.35-.61-.88-1-1.54-1.2-.16-.05-.33-.11-.51-.11-.09,0-.13-.05-.13-.13,0-.26,0-.51-.01-.77,0-.09.05-.13.13-.13Zm-.07,5.09c.2-.09.37-.21.53-.36.23-.21.34-.48.41-.77.03-.13.08-.26.12-.39.06-.19.27-.29.51-.25.19.03.29.15.32.36.09.67.02,1.34.04,1.88,0,.57,0,1.01,0,1.45,0,.22-.03.43-.05.64-.02.15-.1.26-.25.3-.16.04-.34.05-.46-.1-.11-.13-.18-.28-.21-.45-.08-.37-.22-.71-.52-.97-.12-.11-.26-.18-.41-.23-.09-.03-.14-.07-.14-.16,0-.26,0-.51,0-.77,0-.09.03-.14.12-.18Zm-4.54,4.47c0-2.66,0-5.33,0-7.99,0-.1-.01-.21-.04-.31-.03-.11-.09-.19-.2-.22-.1-.04-.2-.09-.31-.13-.36-.13-.38-.49-.21-.72.09-.12.24-.19.42-.19.65,0,1.3,0,1.94,0,.62,0,1.23,0,1.85,0,.06,0,.11,0,.17,0,.11,0,.16.04.15.16,0,.08,0,.16,0,.24v4.66h0c0,1.59,0,3.18,0,4.78,0,.11.02.21.04.31.04.21.17.32.37.35.13.02.24.07.36.11.18.06.25.2.27.38.03.2-.07.33-.22.41-.14.08-.3.12-.47.12-1.39,0-2.78,0-4.18,0-.18,0-.37.03-.54-.07-.13-.08-.28-.15-.26-.34.02-.21.04-.42.29-.5.07-.02.13-.05.2-.07.27-.09.36-.23.37-.52,0-.15,0-.3,0-.46Zm-6.45-9.6c0-.14.02-.17.16-.16.35.02.7.08,1.04.15.44.09.87.25,1.29.41.22.08.27.06.41-.11.09-.1.17-.21.26-.31.14-.16.43-.22.61-.12.12.07.17.19.18.32,0,.19.01.38.01.58,0,.42,0,.83,0,1.25h0c0,.54,0,1.09,0,1.63,0,.1,0,.21-.03.31-.04.23-.19.36-.42.4-.17.03-.39-.1-.48-.28-.13-.26-.18-.54-.29-.81-.25-.62-.56-1.2-.98-1.71-.31-.37-.72-.6-1.2-.7-.15-.03-.3-.05-.45-.07-.09-.01-.15-.04-.14-.15,0-.21,0-.41.01-.62Zm-.23,5.79c.14-.07.3-.11.46-.11.58,0,1.17,0,1.75,0,.58,0,1.15,0,1.73,0,.17,0,.34.03.48.11.2.12.23.51.07.7-.1.11-.21.22-.32.32-.09.08-.1.17-.1.28,0,.91,0,1.82,0,2.73,0,.05,0,.1,0,.14.02.11-.02.18-.11.26-.58.52-1.26.9-1.97,1.2-.28.12-.58.18-.88.23-.28.04-.55.11-.83.11-.18,0-.2,0-.2-.17,0-.22,0-.45,0-.67,0-.1.03-.16.14-.18.34-.08.48-.34.56-.65.05-.21.02-.43.02-.65,0-.66,0-1.33,0-1.99,0-.08-.01-.16-.01-.24,0-.31-.11-.45-.44-.53-.09-.02-.17-.03-.26-.06-.17-.05-.29-.22-.31-.39-.02-.2.05-.37.23-.46Zm-5.1-1.22c.09-.6.25-1.19.5-1.75.36-.8.85-1.5,1.55-2.04.52-.4,1.08-.7,1.71-.87.24-.07.49-.08.73-.1.16,0,.18.02.18.18,0,.1,0,.21,0,.31h0c0,.07-.01.15,0,.21.04.18-.05.26-.2.33-.29.13-.44.37-.5.69-.07.38-.06.76-.06,1.15,0,2.26,0,4.53,0,6.79,0,.26.03.51.07.76.03.19.14.32.29.41.17.1.28.2.24.44-.03.14,0,.3,0,.45,0,.23,0,.23-.22.22-.43-.01-.83-.16-1.22-.33-1.17-.51-2.02-1.36-2.57-2.5-.35-.73-.51-1.51-.58-2.31-.06-.69-.02-1.38.08-2.06Zm-3.78-4.53c.32,0,.64,0,.96,0,.1,0,.21,0,.31,0h0c.38,0,.75,0,1.13,0,.08,0,.16,0,.24.02.3.05.48.34.38.63-.03.08-.08.14-.15.18-.08.05-.17.1-.25.14-.57.3-.85.78-.85,1.41,0,1.08-.01,2.16,0,3.24,0,.23-.07.46.01.69,0,.03,0,.06-.03.08-.05.02-.07-.02-.1-.05-.09-.14-.18-.28-.27-.43-.14-.24-.28-.48-.42-.72-.1-.16-.15-.32-.15-.52.01-.74.01-1.47,0-2.21,0-.28-.04-.56-.15-.82-.14-.32-.4-.53-.69-.71-.05-.03-.1-.05-.15-.08-.21-.11-.3-.28-.25-.51.04-.2.21-.34.43-.35Zm-7.22.06c.14-.05.28-.06.42-.06.63,0,1.26,0,1.9,0s1.3,0,1.94,0c.16,0,.26.05.34.19.45.81.92,1.61,1.38,2.41.64,1.11,1.28,2.23,1.92,3.34.3.53.6,1.05.91,1.57.11.19.17.38.17.61,0,1.02,0,2.05,0,3.07,0,.06,0,.11,0,.17.01.12-.05.16-.15.15-.1,0-.21,0-.31,0-.58,0-1.17,0-1.75,0-.09,0-.14-.01-.19-.1-.65-1.13-1.3-2.25-1.95-3.38-.29-.5-.61-.99-.89-1.5-.25-.46-.52-.92-.78-1.37-.5-.87-1.01-1.74-1.52-2.61-.21-.36-.43-.73-.64-1.09-.14-.24-.33-.4-.61-.47-.08-.02-.17-.05-.24-.1-.15-.09-.27-.24-.24-.41.02-.17.08-.36.3-.43Zm-.15,10.67c.13-.11.28-.18.42-.27.37-.26.56-.62.61-1.06.09-.71.02-1.42.04-2.13,0-.39,0-.78,0-1.18h0c0-.8,0-1.6,0-2.4,0-.18,0-.35,0-.53,0-.04,0-.09.05-.1.06-.02.09.02.11.06.26.44.51.88.77,1.32.03.05.03.1.03.16,0,1.52-.01,3.04,0,4.56,0,.6.27,1.05.8,1.35.09.05.18.11.27.16.17.1.23.27.2.45-.02.18-.17.32-.37.36-.11.02-.22.03-.33.03-.7,0-1.39,0-2.09,0-.17,0-.33-.04-.46-.12-.31-.19-.29-.47-.05-.67Zm-6.17-9.43c-.04-.14-.11-.24-.25-.29-.1-.03-.19-.08-.29-.11-.27-.09-.4-.54-.12-.77.12-.1.27-.13.43-.13.62,0,1.25,0,1.87,0,.1,0,.21,0,.31,0,.7,0,1.39,0,2.09,0,.1,0,.21,0,.31.03.21.07.32.21.33.42,0,.19-.11.38-.29.45-.07.03-.15.07-.22.08-.26.05-.31.25-.34.46-.01.09,0,.19,0,.29,0,2.74,0,5.49,0,8.23,0,.12.02.24.07.35.05.1.11.17.22.19.08.02.17.06.25.09.3.12.4.39.26.68-.03.06-.07.1-.13.13-.15.08-.31.11-.48.11-1.37,0-2.74,0-4.1,0-.14,0-.27,0-.4-.05-.21-.08-.31-.21-.3-.43,0-.24.08-.35.3-.43.06-.02.11-.06.18-.07.3-.06.36-.28.38-.53.01-.21,0-.42,0-.62,0-2.51,0-5.02,0-7.53,0-.18,0-.36-.04-.54Zm-5.15-1.29s.1,0,.14,0c.8,0,1.6,0,2.4,0,.15,0,.28.04.41.1.14.06.1.21.19.27-.08.17-.09.35-.26.44-.12.07-.25.14-.37.21-.46.26-.76.66-1.03,1.1-.33.53-.68,1.04-1.02,1.56-.09.13-.14.13-.21-.02-.11-.22-.21-.45-.33-.66-.06-.1-.04-.17.01-.26.16-.27.31-.54.46-.81.17-.32.1-.58-.11-.81-.11-.11-.27-.17-.42-.23-.13-.05-.21-.14-.26-.26-.12-.3.07-.61.39-.64Zm-6.66.38c.02-.19.15-.29.32-.34.1-.03.2-.04.31-.04.72,0,1.44,0,2.16,0h0c.69,0,1.38,0,2.06,0,.16,0,.32,0,.47.08.31.18.36.5.09.75-.04.04-.09.07-.13.1-.2.17-.24.33-.12.57.26.54.53,1.07.79,1.61.39.8.79,1.6,1.18,2.41.61,1.24,1.23,2.49,1.84,3.73.12.24.23.49.35.73.12.24.27.42.51.54.17.08.3.21.32.42.03.26-.06.42-.31.51-.11.04-.23.07-.35.06-1.42,0-2.83,0-4.25,0-.14,0-.28-.03-.42-.07-.19-.06-.27-.2-.3-.36-.03-.16.04-.31.19-.41.12-.09.25-.17.32-.31.05-.09.06-.16.01-.27-.21-.5-.47-.97-.71-1.46-.35-.7-.69-1.4-1.03-2.1-.48-.96-.96-1.93-1.44-2.89-.36-.73-.72-1.46-1.08-2.19-.09-.18-.22-.31-.38-.42-.07-.04-.13-.09-.2-.13-.21-.12-.23-.32-.21-.52Zm-5.2-.33c3.06-.04,5.7,2.33,5.78,5.57.09,3.23-2.4,5.74-5.44,5.89-3.31.16-5.99-2.44-6.03-5.68,0-3.04,2.34-5.73,5.69-5.78Zm2.27,5.74c.09-.03.13-.1.13-.21,0-.11-.04-.19-.13-.22-.05-.02-.12-.03-.21-.03h-.5v.49h.49c.1,0,.17,0,.22-.03Zm-1.86,2.54c-.08-.11-.18-.22-.27-.33-.06-.07-.13-.07-.19,0-.06.06-.12.13-.17.2-.18.23-.35.47-.53.71-.37.51-.74,1.01-1.11,1.52-.09.13-.09.12.06.2.3.15.64.2.96.28.59.13,1.17.11,1.76,0,.39-.08.78-.15,1.15-.36-.29-.39-.56-.78-.86-1.14-.28-.35-.55-.71-.81-1.06Zm-2.22-7.11c.39.53.78,1.07,1.17,1.6.17.24.35.48.53.71.12.15.17.14.29,0,.29-.37.58-.74.85-1.12.2-.28.43-.54.64-.81.12-.15.24-.3.35-.46.08-.11.05-.15-.07-.21-.19-.08-.39-.13-.59-.18-.44-.12-.88-.18-1.33-.17-.36,0-.72.03-1.07.12-.25.07-.51.11-.75.23-.12.06-.14.09-.07.22.02.03.04.05.06.08Z"/>
  </g>
</svg>