<?xml version="1.0" encoding="UTF-8"?>
<svg xmlns="http://www.w3.org/2000/svg" viewBox="0 0 108 108">
  <defs>
    <style>
      .cls-1 {
        fill: #282828;
      }

      .cls-1, .cls-2 {
        stroke-width: 0px;
      }

      .cls-2 {
        fill: #e9d5bd;
      }
    </style>
  </defs>
  <g id="bg">
    <circle class="cls-1" cx="54" cy="54" r="54"/>
  </g>
  <g id="icon">
    <path class="cls-2" d="m47.52,35.34c-.19.86-.54,1.61-1.12,2.23-.93,1-2.13,1.41-3.46,1.49-.69.04-1.38,0-2.07,0-.01.06-.02.12-.03.18.59.24,1.17.5,1.77.71.58.2,1.17.4,1.77.49.63.09,1.29.11,1.93.07.62-.04,1.23-.21,1.82-.31.05.08.07.11.07.13.01.15.02.29.03.44.19,1.85,1.08,3.19,2.85,3.87.28.11.61.09,1.04.14-.65-1.01-.69-2.01-.58-3,.08-.75.26-1.5.42-2.24.15-.68.35-1.36.51-2.04.4-1.65.51-3.29-.03-4.93,0-.02.02-.05.05-.1.51.04,1.02.13,1.54.12.51,0,1.03-.1,1.59-.16-.03.18-.04.3-.07.4-.39,1.29-.42,2.59-.12,3.9.27,1.14.55,2.27.79,3.41.32,1.52.61,3.05-.24,4.54.81.24,1.43-.18,1.98-.56,1.34-.94,1.83-2.36,1.91-4.05,1.27.51,2.52.59,3.77.39,1.26-.21,2.43-.68,3.55-1.32-.71-.08-1.41-.04-2.11-.09-1.19-.08-2.29-.43-3.21-1.25-1.09-.97-1.42-2.26-1.49-3.63-.07-1.18.17-2.34.55-3.45.36-1.06.36-2.13.36-3.21-.01-1.92-.78-3.53-2.1-4.87-.75-.76-1.65-1.29-2.74-1.47-.63-.1-1.22,0-1.8.25-.24.1-.37.27-.37.55.19.33.55.39.87.52.4.17.81.34,1.17.56.4.25.6.66.53,1.13-.08.48-.45.64-.9.67-.09,0-.17.04-.26.06-.86.21-1.38.96-1.42,2.06,0,.02.09.05.16.09.16-.35.29-.73.5-1.05.5-.78,1.44-.88,2.11-.26.31.29.49.66.51,1.09.05,1.32-.29,2.55-.96,3.68-.49.83-1.31,1.28-2.22,1.44-.88.15-1.69-.19-2.32-.81-1.23-1.22-1.55-2.78-1.51-4.44.02-.59.4-1.03.97-1.26.52-.21,1.02-.09,1.38.28.27.27.41.68.6,1.03.06.1.1.21.19.41.08-.2.15-.28.14-.35-.13-1.12-.61-1.64-1.71-1.93-.4-.1-.84-.19-.92-.69-.08-.49.14-.87.55-1.11.37-.23.77-.41,1.17-.59.31-.15.68-.2.93-.65-.54-.58-1.21-.76-1.92-.7-1.21.1-2.23.65-3.08,1.52-2.1,2.14-2.45,4.72-1.85,7.49.37,1.71.94,3.37.55,5.18Zm5.82-6.6c.54.15.87.23,1.23-.08q-.56-.16-1.23.08Zm-.33,1.09c.06.13.11.25.18.4.31.07.54.17.75.15.27-.03.54-.14.8-.25.07-.03.09-.18.13-.28-.78-.34-1.07-.35-1.87-.02Zm-1.83-3.06c.78.7,1.37.68,1.91-.02-.66-.7-1.17-.71-1.91.02Zm5.62-.02c-.6-.66-1.19-.67-1.93.02.78.68,1.37.66,1.93-.02Zm15.24,57.11c.37-.04.77-.1,1.13-.01.77.18,1.52.44,2.36.7.27-.55.56-1.16.9-1.87-.66-.3-1.27-.68-1.93-.87-1.14-.33-2.31-.41-3.49-.03-1.02.33-1.81.92-2.23,1.9-.84,2.01.02,3.86,2.13,4.78.81.35,1.62.75,2.37,1.23.62.4.55,1.32-.06,1.74-.86.58-1.79.43-2.68.12-.55-.19-1.06-.48-1.62-.75-.35.62-.7,1.24-1.08,1.92.51.26.9.48,1.31.66,1.67.72,3.35.98,5.09.21,1.11-.49,2.06-1.8,2.08-2.93.03-1.72-.72-2.91-2.31-3.6-.82-.35-1.63-.73-2.4-1.17-.42-.23-.65-.67-.53-1.18.12-.48.44-.81.95-.87Zm10.52-34.79c0-2.25-.45-4.42-1.1-6.55-.78-2.52-1.91-4.9-3.03-7.28-1.23-2.62-2.45-5.24-3.65-7.88-.49-1.09-.94-2.21-1.17-3.39-.34-1.71-.43-3.43-.38-5.16.03-1.17-.06-2.35.29-3.49.03-.08-.06-.2-.12-.37-.33.17-.63.28-.88.47-.68.52-1.27,1.12-1.73,1.85-.72,1.15-1.16,2.41-1.54,3.68-.07.04-.12.07-.17.09-.06.02-.12.03-.17.02-1.45-.2-2.86-.05-4.25.39-.98.31-1.9.76-2.67,1.46-.16.14-.27.34-.42.52.13.07.18.11.23.12.12.01.23.01.35.01,1.35-.03,2.69-.04,4.01.34,1.68.48,3.14,1.32,4.23,2.68,1.15,1.44,1.75,3.08,1.45,4.97-.2,1.28-.69,2.4-1.58,3.35-1.03,1.09-2.33,1.69-3.78,1.85-1.53.18-2.93-.21-3.95-1.46-.38-.47-.62-1.05-.93-1.58-.08-.14-.17-.27-.33-.53-.03.35-.06.55-.06.75.03,1.68.66,2.99,2.22,3.8,1.43.74,2.91.85,4.42.35,2.28-.76,3.78-2.36,4.7-4.55.42-.99.52-2.03.47-3.1,0-.15-.03-.3-.04-.45.27.2.42.44.54.69.62,1.29,1.12,2.63,1.55,4,.76,2.39,1.16,4.83,1.18,7.33.02,2.12-.4,4.14-1.41,6-.98,1.82-2.21,3.45-3.86,4.74-2.27,1.78-4.82,2.71-7.73,2.6-1.68-.07-2.95-.87-3.92-2.19-.49-.67-.79-1.46-.86-2.28-.13-1.35.27-2.6.87-3.79,1-1.97,2.74-3.09,4.62-4.02,1.52-.75,3.09-1.41,4.66-2.06,2.17-.9,3.8-2.39,4.85-4.49.38-.77.58-1.59.55-2.46-.19.3-.34.61-.45.94-.65,1.91-1.82,3.37-3.65,4.3-1.75.89-3.6,1.56-5.42,2.28-1.22.49-2.42,1.04-3.5,1.8-1.41.99-2.61,2.18-3.4,3.74-.74,1.47-1.07,3.01-.99,4.66.03.72.19,1.39.53,2.02.39.72.81,1.43,1.38,2.03.2.21.38.43.62.72-1.03.54-2,1.08-3,1.57-1.1.53-2.31.61-3.44.3-1.35-.38-2.54-1.16-3.78-1.9.26-.28.47-.51.69-.75.88-.97,1.49-2.1,1.77-3.38.31-1.45,0-2.85-.48-4.21-.74-2.06-2.13-3.61-3.92-4.83-1.36-.93-2.87-1.55-4.4-2.13-1.53-.58-3.05-1.2-4.51-1.95-1.58-.81-2.72-1.99-3.34-3.68-.19-.52-.45-1.02-.68-1.52-.01,1.03.22,1.96.72,2.85,1.03,1.83,2.49,3.15,4.4,4,2,.9,4.06,1.66,5.98,2.76,1.54.88,2.85,1.97,3.63,3.58.75,1.54,1.16,3.13.48,4.82-.75,1.87-2.11,3.08-4.12,3.25-3.46.29-6.45-.93-8.95-3.3-1.17-1.11-2.1-2.42-2.9-3.84-.87-1.54-1.36-3.18-1.47-4.91-.09-1.4-.08-2.81.15-4.21.42-2.58,1.04-5.09,2.13-7.47.25-.54.52-1.06.78-1.59.15.2.19.37.16.52-.16.83-.02,1.65.2,2.43.45,1.56,1.38,2.83,2.64,3.86,2.04,1.67,4.27,2.11,6.71.95,1.48-.7,2.11-1.96,2.22-3.53.02-.29.06-.6-.16-1-.13.31-.2.49-.28.67-.46,1.05-1.11,1.93-2.18,2.43-1.16.54-2.34.6-3.58.23-1.78-.53-3.13-1.53-3.92-3.24-.63-1.38-.82-2.81-.37-4.26.7-2.28,2.25-3.8,4.39-4.74,1-.44,2.05-.68,3.15-.73.84-.04,1.67-.06,2.56-.09-.19-.61-.72-.87-1.16-1.15-1.98-1.24-4.17-1.56-6.47-1.29-.71-2.51-1.6-4.83-4.27-6.15.04.33.05.46.06.59.07.79.19,1.57.2,2.36.02,1.41.11,2.83-.06,4.23-.21,1.7-.56,3.39-1.32,4.97-1.49,3.11-2.88,6.27-4.36,9.39-.84,1.77-1.62,3.57-2.26,5.42-1.25,3.64-1.64,7.36-1.15,11.17.24,1.88.91,3.64,1.79,5.3.97,1.82,2.29,3.4,3.81,4.8,2.04,1.88,4.35,3.38,6.86,4.55,2.15,1,4.35,1.87,6.54,2.78,2.27.95,4.52,1.92,6.47,3.47,1.09.87,2.05,1.84,2.67,3.1.06.11.14.21.28.41.89-2.09,2.49-3.37,4.21-4.49,1.55-1.01,3.25-1.73,4.94-2.45,1.66-.71,3.34-1.4,5.02-2.08,2.51-1.02,4.86-2.33,7-3.99,2.71-2.1,4.9-4.61,6.18-7.85.7-1.79,1.13-3.63,1.15-5.55,0-.65,0-1.29,0-1.94Zm-47.17,41.77c-1.22-1.13-1.69-3.2-.96-4.76,1.33-2.85,3.57-2.96,6.12-1.44.33-.8.63-1.5.92-2.21-1.99-1.53-6.11-1.7-8.27.73-2.18,2.46-2.29,6.97.36,9.36,2.29,2.07,6.19,2.06,8.15.32-.31-.66-.63-1.34-.97-2.07-2,1.41-4.35.97-5.34.05Zm13.75-1.04c-1.87-2.83-3.7-5.62-5.62-8.53-.08.28-.13.37-.13.46,0,.71.03,1.41.03,2.12,0,3.16,0,6.33,0,9.49,0,.25.08.5.11.72h2.32c.02-1.69,0-3.35,0-5.15.61.94,1.12,1.77,1.67,2.56.54.77.89,1.68,1.61,2.38,1.11-1.78,2.16-3.45,3.21-5.12.05,0,.11.01.16.02v5.34h2.36c.03-.24.09-.48.09-.72,0-3.82.01-7.63,0-11.45,0-.17-.08-.34-.15-.58-1.93,2.88-3.79,5.65-5.69,8.48Zm12.55-8.49c-1.82,4.2-3.64,8.39-5.51,12.69h2.44c.31-.71.65-1.48,1.01-2.31h4.01c.33.8.66,1.59.98,2.39h2.82c-1.84-4.38-3.7-8.59-5.54-12.8-.07.01-.14.02-.21.03Zm-1.17,8.17c.38-.9.74-1.74,1.1-2.59.05.02.11.04.16.06.32.82.64,1.64.98,2.53h-2.24Z"/>
  </g>
</svg>