<?xml version="1.0" encoding="UTF-8"?>
<svg xmlns="http://www.w3.org/2000/svg" viewBox="0 0 108 108">
  <defs>
    <style>
      .cls-1 {
        fill: #282828;
      }

      .cls-1, .cls-2 {
        stroke-width: 0px;
      }

      .cls-2 {
        fill: #e9d5bd;
      }
    </style>
  </defs>
  <g id="bg">
    <circle class="cls-1" cx="54" cy="54" r="54"/>
  </g>
  <g id="icon">
    <path class="cls-2" d="m43.15,76.45c.77-.48,1.26-1.14,1.3-2.08.05-1.25-.27-2.25-1.55-2.8-.42-.18-.89-.32-1.34-.34-1.28-.06-2.57-.05-3.85-.05-.12,0-.24.06-.34.08-.03.06-.04.07-.04.09,0,3.03-.01,6.06-.02,9.09,0,.29.14.4.41.4.39,0,.78,0,1.17,0q.71,0,.71-.71c0-.94,0-1.89,0-2.85.79-.16.85-.14,1.16.44.48.9.96,1.8,1.45,2.69.09.16.26.39.4.4.77.04,1.54.02,2.44.02-.84-1.41-1.61-2.7-2.4-4.04.19-.13.34-.24.49-.34Zm-1.96-1c-.49.12-1,.12-1.56.17v-2.79c.49,0,.91-.03,1.33,0,.58.05,1.05.55,1.11,1.08.08.79-.21,1.37-.88,1.53Zm-8.58-4.01c-.96-.33-1.95-.25-2.93-.26-.68,0-1.37,0-2.11,0-.02.23-.03.36-.03.48,0,1.24,0,2.49,0,3.73,0,1.62,0,3.23,0,4.85,0,.57.02.59.6.59.37,0,.74,0,1.12,0,.52,0,.55-.04.56-.58,0-.71.01-1.41,0-2.12-.01-.36.13-.49.49-.5.57-.01,1.16-.03,1.72-.12,1.92-.33,2.93-1.78,2.66-3.71-.18-1.25-.91-1.98-2.06-2.37Zm-.33,3.37c-.09.54-.51.99-1.06,1.08-.33.06-.66.07-1,.1-.24.01-.4-.09-.41-.35,0-.91,0-1.81,0-2.76.66-.1,1.26-.14,1.83.16.55.29.77.93.63,1.76Zm-8.94,4.15c-1.26.73-2.52.29-2.98-1.1-.18-.54-.28-1.12-.28-1.69-.01-.89.03-1.78.51-2.59.49-.81,1.29-1.13,2.19-.83.39.13.76.34,1.17.53.34-.41.68-.81,1.08-1.28-.25-.19-.45-.37-.69-.5-1.21-.66-2.48-.73-3.78-.34-1.01.3-1.76.95-2.23,1.89-.86,1.7-.88,3.46-.31,5.25.24.76.65,1.42,1.29,1.91,1.27.98,2.7,1.09,4.18.66.6-.18,1.2-.48,1.64-1.04-.35-.46-.68-.89-1.02-1.34-.3.19-.53.34-.77.48Zm56.2-6.15c.08-.57.15-1.05.22-1.58h-5.91c-.02.13-.04.22-.04.31,0,2.92,0,5.84,0,8.76,0,.41.14.55.55.55,1.64-.02,3.27,0,4.91,0,.13,0,.25-.02.42-.04v-1.62h-.56c-.84,0-1.67,0-2.51,0-.22,0-.44-.01-.45-.29-.02-.68,0-1.36,0-2.15h2.91v-1.62h-2.88v-2.31h3.34Zm-30-41.35c-2.04-2.77-4.71-4.31-8.17-4.52-.02,0-.03,0-.05,0-4.34,0-7.7,1.45-9.96,5.47-1.99-3.43-4.85-5.26-8.71-5.5-.36-.03-1.13,0-1.13,0-2.98.17-5.44,1.31-7.41,3.4-2.32,2.47-3.29,5.53-3.47,8.84-.07,1.21.03,2.4.2,3.67.17,1.31.35,1.79.61,2.65,1.1,3.57,3.14,6.59,5.67,9.28,3.75,4,8.22,7.03,13,9.68.91.51,1.57.49,2.47,0,4.76-2.63,9.21-5.66,12.96-9.64,1.91-2.03,3.52-4.26,4.72-6.79,1.46-3.08,2.02-6.31,1.71-9.7-.23-2.48-.94-4.82-2.44-6.85Zm-12.11,10.33c.4-.25,1.02-.18,1.32.15.17.2.18.38.02.6-.6.86-1.19,1.72-1.77,2.59-.23.34-.48.64-.95.82-.17-1.14-.06-2.13.49-3.09.24-.42.48-.81.89-1.07Zm-2.82-2.29c.2-.43.48-.81.66-1.24.17-.42.53-.4.77-.28.17.08.33.49.28.68-.22.74-.49,1.47-.82,2.17-.09.19-.45.27-.7.41-.09-.45-.17-.82-.22-1.19-.02-.18-.04-.39.04-.54Zm-2.99-1.69c.04-.38.14-.76.18-1.14.04-.37.27-.61.64-.6.37.01.56.2.56.6,0,.71.02,1.41,0,2.12-.02.57-.41.91-.81,1.18-.17-.34-.29-.62-.45-.86-.27-.42-.17-.86-.12-1.29Zm-3.39-1.16c.2-.19.45-.16.63.07.15.19.31.38.39.59.18.47.33.96.45,1.45.06.28.06.59.02.88-.04.27-.19.53-.32.89-.5-.5-1.06-.91-1.1-1.73-.02-.48-.21-.96-.38-1.41-.15-.39.12-.55.32-.74Zm-2.4,3.74c.52.08.72.56.88.99.26.71.47,1.45.68,2.18.04.14,0,.3,0,.58-1.34-.75-1.71-2-2.21-3.11-.1-.33.25-.7.65-.64Zm4.31,14.01c-.8,1.2-1.44,2.5-1.95,3.85-.31.81-.57,1.64-.87,2.51-2.08-1.15-4.05-2.44-6.05-3.94.49-.52.95-.97,1.36-1.46,1.36-1.64,2.7-3.29,4.04-4.94.26-.31.49-.65.72-.98.16-.24.32-.25.56-.13,1.15.59,1.94,1.49,2.46,2.68.37.87.26,1.62-.26,2.4Zm5.51,6.31c-.3-.71-.54-1.31-.81-1.91-.57-1.29-1.09-2.6-1.74-3.85-.67-1.29-1.42-2.53-2.21-3.75-.55-.84-1.15-1.65-2.11-2.14-.78-.4-1.52-.91-2.2-1.47-.37-.3-.58-.8-.86-1.21-.45-.67-.9-1.34-1.32-2.03-.08-.12-.1-.38-.02-.49.28-.4.99-.49,1.39-.19.43.32.85.65,1.27,1,.25.21.55.38.78.12.2-.22.36-.59.32-.86-.1-.62-.34-1.22-.5-1.83-.08-.3-.16-.63-.1-.92.05-.25.26-.55.48-.67.29-.16.56.05.74.32.18.28.35.58.56.83.29.34.55.3.69-.12.12-.36.13-.76.15-1.14.03-.49.25-.82.65-.91.3-.06.51,0,.55.35.07.58.15,1.16.23,1.7.38.22.62.12.77-.21.12-.27.26-.53.37-.81.18-.44.46-.63.85-.51.42.13.42.51.4.82-.03.37-.19.74-.27,1.11-.04.17,0,.35,0,.67.31-.1.55-.14.75-.26.31-.2.57-.48.88-.68.4-.27.65-.11.69.37.05.61-.42,1.01-.56,1.54-.05.21-.14.42-.14.63-.02.59-.03,1.19,0,1.78.03.73-.21,1.39-.4,2.08-.07.27.05.66.22.91.77,1.14,1.55,2.29,2.41,3.36,1.2,1.5,2.48,2.95,3.73,4.41.02.03.03.07.07.2-1.89,1.23-3.76,2.45-5.71,3.72Zm61.54-22.89c-.11-.49-.17-.99-.29-1.48-.54-2.17-1.51-4.12-3.1-5.71-2.34-2.34-5.19-3.46-8.51-3.25-3.67.23-6.44,1.94-8.35,5.08-.06.1-.15.18-.28.32-.11-.17-.2-.29-.27-.41-.61-1.06-1.4-1.97-2.35-2.73-2.1-1.7-4.52-2.44-7.21-2.27-4.34.28-7.43,2.46-9.38,6.28-1.12,2.19-1.46,4.57-1.47,7.02,0,3.42.98,6.55,2.67,9.48,2.06,3.56,4.9,6.43,8.07,8.99,2.93,2.36,6.12,4.34,9.44,6.1.37.2.68.21,1.04,0,2.14-1.3,4.35-2.5,6.43-3.89,3.69-2.46,6.98-5.37,9.61-8.97,1.99-2.72,3.43-5.68,3.94-9.05l.02-.15c.35-2.9-.03-5.38-.03-5.38Zm-20.34,23.84s-.07.01-.11.02c-.01-.14-.05-.29-.03-.43.05-.4.15-.79.2-1.19.13-.99.24-1.97.36-2.96.04-.31.07-.62.11-.93.06-.42.12-.84.17-1.26.03-.27.05-.54.08-.91h-3.35c.11-.92.18-1.76.31-2.59.1-.67.29-1.32.4-1.99.06-.36.06-.73.09-1.2h-3.02v-14.62c.55.32,1.04.59,1.52.87.96.57,1.91,1.16,2.88,1.72.12.07.35.05.48-.02,1.54-.8,3.06-1.62,4.6-2.44.04-.02.1,0,.24.01-1.15,3.07-2.29,6.11-3.46,9.21.47.16.97.06,1.46.07.5.02.99,0,1.55,0-.97,2.33-1.92,4.58-2.92,6.96h3.47c-1.72,3.97-3.38,7.81-5.04,11.66Zm10.52,9.77c-1.56-.41-3.14-.25-4.71-.22-.03,0-.05.05-.1.08v9.61c1.55-.07,3.05-.02,4.5-.25,1.47-.24,2.57-1.11,2.98-2.66.29-1.1.29-2.2.16-3.31-.2-1.72-1.16-2.81-2.83-3.25Zm.33,6.12c-.18,1.06-.89,1.55-1.97,1.61-.25.01-.51,0-.81,0v-6.21c1.44-.43,2.63.23,2.86,1.73.14.93.08,1.93-.07,2.87Zm-16.81.49c-.65-2.15-1.29-4.3-1.93-6.46-.09-.3-.23-.43-.55-.42-.58.02-1.15,0-1.73,0-.69,0-.68,0-.87.66-.67,2.26-1.36,4.52-2.04,6.77-.21.7-.41,1.41-.64,2.18h2.37c.12-.49.27-1,.37-1.53.07-.36.25-.48.62-.47.61.03,1.23.03,1.84,0,.36-.02.51.13.58.45.09.42.18.84.3,1.24.04.13.19.33.3.33.7.03,1.4.02,2.19.02-.09-.37-.15-.65-.23-.93-.19-.62-.39-1.24-.57-1.86Zm-4.48-1.01c.3-1.27.58-2.47.86-3.68.06,0,.12,0,.18-.01.41,1.18.57,2.42.95,3.69h-1.99Z"/>
  </g>
</svg>