<?xml version="1.0" encoding="UTF-8"?>
<svg xmlns="http://www.w3.org/2000/svg" viewBox="0 0 108 108">
  <defs>
    <style>
      .cls-1 {
        fill: #282828;
      }

      .cls-1, .cls-2 {
        stroke-width: 0px;
      }

      .cls-2 {
        fill: #e9d5bd;
      }
    </style>
  </defs>
  <g id="bg">
    <circle class="cls-1" cx="54" cy="54" r="54"/>
  </g>
  <g id="icon">
    <path class="cls-2" d="m44.95,57.05c0-1.49,0-2.97,0-4.46,0-1.23-.5-2.21-1.44-2.98-.49-.4-1.04-.69-1.63-.9-1.31-.47-2.67-.57-4.05-.4-1.02.13-1.99.43-2.86,1-1.16.76-1.86,1.8-1.87,3.23,0,3,0,6,0,9.01,0,1.02.38,1.88,1.1,2.6.52.52,1.14.88,1.82,1.14,1.36.53,2.76.63,4.19.46,1-.12,1.95-.41,2.81-.95,1.27-.8,1.97-1.92,1.94-3.46-.03-1.43,0-2.85,0-4.28Zm-4.88,4.2c0,.54-.24.82-.78.91-.25.04-.51.03-.75-.05-.33-.11-.51-.35-.53-.7,0-.08,0-.16,0-.24,0-2.76,0-5.51,0-8.27,0-.07,0-.13,0-.2.02-.42.22-.68.63-.78.28-.07.56-.07.84.02.39.12.59.38.59.79,0,1.43,0,2.87,0,4.3,0,1.41,0,2.82,0,4.23Zm60.25-11.01c.11-.19.01-.44-.2-.48-.18-.04-.36-.04-.55,0v1.03h.23c0-.13.02-.25.03-.41.21.1.19.32.32.43.07,0,.15,0,.24-.01-.07-.15-.14-.28-.21-.42.05-.06.09-.1.12-.15Zm-.24-.09c-.04.1-.13.1-.25.07v-.29c.09.02.17.02.22.06.03.02.04.11.02.16Zm-81.23-7.41c-1.81-.83-3.67-.87-5.55-.26-1.22.4-2.25,1.09-3,2.14-.47.65-.77,1.38-.77,2.19,0,4.81,0,9.62,0,14.43,0,.13,0,.25.03.38.15,1.02.66,1.85,1.39,2.55.92.88,2.03,1.39,3.26,1.64.22.05.45.09.67.13h1.74c.23-.04.47-.08.7-.13,1.43-.3,2.65-.96,3.58-2.1.59-.73.95-1.56.96-2.52,0-1.45,0-2.9,0-4.35,0-.03-.01-.07-.02-.1h-5.02v.26c0,1.11,0,2.23,0,3.34,0,.08,0,.16,0,.24-.03.27-.14.49-.36.64-.4.28-.82.28-1.25.09-.4-.19-.54-.53-.53-.95,0-.02,0-.04,0-.07,0-4.18,0-8.37,0-12.55,0-.13,0-.25.03-.38.04-.21.14-.39.32-.52.4-.28.83-.32,1.27-.12.41.19.53.54.53.97,0,1.11,0,2.23,0,3.34v.26h5.03c0-.07.01-.13.01-.19,0-1.39,0-2.78,0-4.17,0-.63-.14-1.22-.43-1.78-.57-1.12-1.46-1.91-2.59-2.42Zm35.92,13.39c-.7-.47-1.46-.83-2.21-1.21-.35-.18-.7-.37-1.03-.58-.32-.2-.54-.5-.59-.88-.03-.26-.04-.53,0-.8.04-.34.21-.61.55-.72.33-.11.67-.11,1.01-.01.3.09.47.3.52.61.02.11.02.22.02.33,0,.33,0,.67,0,1,0,.07,0,.14.01.22h4.41s.02-.06.02-.08c0-.6.02-1.21-.01-1.81-.05-.96-.42-1.78-1.11-2.46-.54-.53-1.17-.88-1.88-1.13-1.01-.35-2.05-.44-3.1-.39-.91.04-1.81.19-2.65.57-1.2.54-1.97,1.45-2.28,2.74-.17.7-.18,1.4-.12,2.1.09.99.41,1.9,1.08,2.66.49.55,1.08.97,1.73,1.31.72.38,1.44.75,2.14,1.15.37.21.73.46,1.05.75.63.57.73,1.3.55,2.09-.08.32-.29.53-.62.61-.28.07-.56.07-.84,0-.49-.14-.75-.46-.75-.97,0-.39,0-.77,0-1.16,0-.08,0-.16-.01-.25h-4.44c0,.07-.02.13-.02.18,0,.49-.02.98,0,1.47.02.38.05.77.14,1.15.31,1.21,1.11,2.01,2.21,2.53.81.38,1.67.56,2.57.62,1.17.08,2.32.02,3.43-.38,1.15-.42,2.05-1.13,2.58-2.26.35-.74.45-1.53.41-2.35-.06-1.36-.52-2.55-1.46-3.55-.4-.43-.85-.79-1.33-1.12Zm-26.55-6.15s-.03-.02-.04-.03c-.1-.57-.19-1.14-.29-1.71h-4.59v17.28h4.86v-.3c0-3.25,0-6.49,0-9.74,0-1.22.57-2.09,1.64-2.65.64-.34,1.33-.46,2.04-.5.09,0,.19-.01.29-.02v-4.08c-.76,0-1.5.08-2.2.35-.72.28-1.27.77-1.71,1.4Zm72.68-.1c-.19-.47-.67-.74-1.17-.65-.49.09-.85.54-.85,1.05,0,.5.35.94.83,1.05.48.1.98-.16,1.18-.63.03-.07.06-.13.09-.2v-.45c-.03-.06-.05-.12-.08-.18Zm-.98,1.23c-.43,0-.77-.36-.77-.82,0-.46.34-.82.79-.82.43,0,.77.36.77.81,0,.46-.35.83-.79.82Zm-4.4-5.48h-4.87v2.92h-2.09v3.46h2.09v.33c0,2.97,0,5.93,0,8.9,0,1.31.54,2.39,1.55,3.23.86.71,1.87,1.03,2.97,1.07.85.03,1.7.01,2.54.01.03,0,.06,0,.1-.02v-3.88h-.23c-.3,0-.6,0-.89,0-.15,0-.3,0-.44-.04-.47-.1-.73-.42-.73-.9,0-2.82,0-5.63,0-8.45v-.24h2.5v-3.46h-2.5v-2.92Zm-13.03-3.07v4.02h4.87c.05-.29.04-3.89-.01-4.05-.34-.05-4.69-.03-4.86.02Zm0,22.97h4.88v-16.96h-4.88v16.96Zm-13.93-8.21c-.45-.5-.96-.94-1.54-1.28-.79-.45-1.6-.86-2.4-1.29-.27-.15-.54-.31-.8-.49-.26-.18-.41-.44-.48-.76-.06-.29-.06-.58,0-.86.08-.4.3-.66.71-.74.27-.05.55-.06.82.02.33.09.51.31.57.65.01.09.02.19.02.29,0,.34,0,.68,0,1.03,0,.07,0,.14.01.21h4.42c0-.05.01-.09.01-.12,0-.55.01-1.1,0-1.65-.04-1.16-.52-2.1-1.42-2.84-.58-.48-1.25-.78-1.96-.98-.95-.26-1.92-.32-2.9-.25-.81.05-1.6.19-2.34.51-1.31.55-2.13,1.51-2.43,2.9-.14.64-.15,1.3-.1,1.95.09,1.07.45,2.03,1.2,2.82.43.46.94.82,1.49,1.12.82.44,1.64.87,2.45,1.33.3.17.59.38.84.62.64.59.77,1.33.56,2.14-.08.32-.31.52-.64.59-.12.03-.25.05-.38.05-.61,0-1.24-.26-1.19-1.17.02-.35,0-.7,0-1.05,0-.07,0-.14-.01-.22h-4.42c0,.05-.02.1-.02.14,0,.61-.02,1.22,0,1.83.04.98.4,1.83,1.11,2.53.52.5,1.13.84,1.81,1.07,1.02.35,2.08.44,3.15.41.91-.03,1.79-.18,2.63-.55,1.17-.52,1.99-1.36,2.4-2.58.21-.63.26-1.28.23-1.94-.06-1.31-.51-2.46-1.4-3.44Zm2.77,8.2h5.09v-9.43h3.65v-4.26h-3.64v-5.23h4.89v-4.07h-9.99v22.99Z"/>
  </g>
</svg>