<?xml version="1.0" encoding="UTF-8"?>
<svg xmlns="http://www.w3.org/2000/svg" viewBox="0 0 108 108">
  <defs>
    <style>
      .cls-1 {
        fill: #282828;
      }

      .cls-1, .cls-2 {
        stroke-width: 0px;
      }

      .cls-2 {
        fill: #e9d5bd;
      }
    </style>
  </defs>
  <g id="bg">
    <circle class="cls-1" cx="54" cy="54" r="54"/>
  </g>
  <g id="icon">
    <path class="cls-2" d="m43.37,66.27c-.52.07-.66.3-.68.85,0,.06-.01.12-.02.19-.16.02-.3.03-.46.05v.76c.13.01.23.02.37.03-.05.65-.1,1.29-.14,1.94h1.36c.04-.66.08-1.3.12-1.97h.67c.03-.26.05-.5.08-.76-.15,0-.26-.02-.37-.02-.12,0-.25,0-.37,0,0-.38.02-.38.91-.3v-.77c-.51,0-.99-.07-1.46,0Zm1.65,3.82h1.39c.05-.93.09-1.83.14-2.75h-1.35c-.06.92-.12,1.82-.18,2.75Zm.22-3.74v.63h1.31v-.63h-1.31Zm4.7,1.03c-.56-.17-1.12-.16-1.69-.06-.73.13-1.24.78-1.22,1.54.01.69.46,1.17,1.26,1.24.65.06,1.3.01,1.98.01.07-.29.12-.55.19-.84-.11.02-.19.04-.27.04-.42.03-.83.1-1.25.08-.38-.01-.54-.22-.54-.57h2.29c.24-.62-.12-1.26-.74-1.46Zm-1.5,1c.07-.31.31-.51.57-.48.25.03.48.12.44.48h-1.01Zm-8.04-1.41h1.32v-.63h-1.32v.63Zm-11.83.22c.39,0,.78.06,1.2.1-.03-.29-.05-.56-.08-.87-.32-.03-.64-.09-.96-.09-.81-.02-1.6.06-2.3.53-.64.43-.87,1.04-.78,1.78.07.6.44.97.97,1.22.93.44,1.89.34,2.88.24.06-.29.11-.57.17-.89-.18.03-.3.05-.42.06-.49.06-.98.13-1.47-.04-.72-.24-.9-1.07-.35-1.59.33-.31.72-.43,1.15-.44Zm3.92-20.37c-1.25-.93-2.74-1.28-4.27-1.28-6.66-.03-13.32-.02-19.97-.02-.25,0-.51,0-.82,0-.36,2.03-.72,4.04-1.09,6.15.38,0,.71,0,1.03,0,5.52,0,11.05,0,16.57,0,.5,0,.99.03,1.49.06.34.02.71.37.72.69,0,.29,0,.59-.05.88-.14.83-.29,1.66-.46,2.48-.08.35-.13.8-.37,1-.29.25-.75.4-1.15.4-3.55.03-7.1.02-10.66.02h-.52c0-.16,0-.29.02-.42.15-.88.3-1.76.44-2.64.02-.12-.04-.24-.05-.35h-7.4c-.57,3.23-1.14,6.48-1.73,9.77h.43c6.5,0,13,0,19.5,0,.78,0,1.57-.03,2.33-.17,1.2-.22,2.36-.57,3.41-1.23,1.52-.97,2.56-2.28,2.93-4.07.15-.74.28-1.49.41-2.24.29-1.63.59-3.26.85-4.89.26-1.67-.21-3.11-1.59-4.13Zm6.45,22.23c0-.3.03-.6.04-.93h.76v-.75h-.72v-.77c-.42.07-.82.14-1.22.22-.04.19-.07.36-.1.54-.18,0-.35.02-.53.03v.74c.17,0,.32.02.48.03-.04.39-.06.76-.1,1.12-.05.48.11.78.59.84.46.06.94.01,1.42.01.07-.3.12-.56.18-.83-.18.02-.31.04-.45.05-.21,0-.36-.07-.36-.3Zm1.25,1.04h1.39c.05-.93.09-1.83.14-2.75h-1.35c-.06.93-.12,1.84-.18,2.75Zm-4.41-2.54c-.02-.09-.03-.15-.04-.22h-1.25c-.04.94-.09,1.85-.13,2.77h1.34c0-.33,0-.65,0-.96.02-.63.3-.95.85-.96.11,0,.22.02.34.03v-.9c-.43-.12-.78.01-1.11.26Zm-2.44-.04c-.63-.36-1.3-.31-1.97-.18-.75.14-1.22.79-1.2,1.56.02.66.46,1.14,1.25,1.22.65.06,1.3.01,1.99.01.06-.28.12-.54.19-.84-.13.02-.22.04-.31.05-.4.03-.8.09-1.2.08-.39-.01-.54-.19-.57-.56h2.29c.18-.58,0-1.06-.47-1.33Zm-1.76.87c.05-.3.31-.52.59-.48.26.04.45.15.42.48h-1.01Zm46,.96c-.13-.03-.31-.16-.32-.26-.03-.3.01-.62.03-.95h.77v-.76h-.74c.01-.27.03-.49.04-.76-.43.07-.83.14-1.24.22-.03.18-.07.35-.1.54-.17,0-.35.02-.52.03v.74c.17,0,.32.02.48.03-.04.4-.07.77-.11,1.15-.04.45.12.75.56.8.48.06.97.01,1.47.01.06-.3.12-.55.18-.82-.18.02-.35.07-.49.04Zm2.63-.26c-.19-.6-.38-1.18-.56-1.74h-1.35c.03.08.04.14.07.2.32.77.63,1.53.95,2.3.19.45-.03.79-.53.79-.23,0-.46-.05-.72-.08.05.27.11.52.16.81.29.03.54.06.79.07.74.01,1.33-.23,1.66-.96.23-.52.52-1.01.79-1.51.29-.53.58-1.06.89-1.62h-1.35c-.27.58-.53,1.16-.8,1.74Zm-6.53-2.1h1.32v-.63h-1.32v.63Zm4.99-21.46c-.91-.5-1.59-.92-2.3-1.26-.51-.25-1.07-.42-1.61-.61-.22-.08-.44-.13-.73-.21.74-.84,1.24-1.66,1.28-2.7.04-1.03-.21-1.93-1.16-2.54-.25-.09-.54-.19-.84-.3h-.57c-.06.04-.11.11-.18.12-.55.08-1,.35-1.41.72-.44.4-.76.86-1.02,1.41-.34.72-.54,1.4-.37,2.18.04.17.03.34.05.51-.09.02-.12.03-.15.03-2.01.03-4.03.06-6.04.1-.58.01-1.16.08-1.74.13-.61.05-1.22.09-1.83.13-.56.04-1.11.09-1.67.15-.43.05-.86.1-1.28.17-.61.1-1.21.22-1.81.32-.58.1-1.17.15-1.74.28-.24.06-.45.26-.64.42-.14.11-.21.34-.35.4-.49.21-.83.59-1.18.95-.68.71-1.11,1.58-1.26,2.54-.11.74-.07,1.51.31,2.22.05.1.03.3-.04.41-.3.44-.63.85-.94,1.28-.24.33-.45.69-.7,1.01-.3.4-.63.77-.94,1.16-.37.47-.72.95-1.13,1.48-1.42-3.55-2.82-7.03-4.21-10.49h-8.33c-.02.06-.06.12-.05.16,2.4,5.95,4.81,11.91,7.21,17.84h8.22c.12.19.26.42.38.63.24.06.45.16.66.15,1.05-.03,2.1-.07,3.15-.13.36-.02.72-.07,1.08-.13.89-.16,1.79-.33,2.68-.49.27-.05.55-.1.82-.17.56-.14,1.12-.3,1.68-.45.53-.14,1.07-.26,1.6-.43.42-.13.82-.32,1.23-.46.57-.19,1.15-.34,1.7-.55.85-.32,1.68-.66,2.52-1.01,1.02-.42,2.01-.9,3.04-1.29.59-.22,1.21-.41,1.83-.44,1.4-.08,2.79-.09,4.15.46.88.36,1.72.8,2.44,1.39.92.76,1.75,1.65,2.56,2.53,1.02,1.11,1.85,2.36,2.62,3.65.4.67.79,1.35,1.18,2.04.37.64.79,1.26,1.07,1.94.3.73,1.35.73,1.68.27.15-.21.24-.5.26-.76.12-2.13,0-4.24-.58-6.31-.04-.14-.03-.28-.05-.47h4.02c.69-3.93,1.38-7.84,2.08-11.78h9.34c.04-.32.08-.62.13-.92.22-1.24.43-2.48.66-3.71.09-.48.21-.96.32-1.44v-.13h-25.11Zm1.04,6.21h5.99c-.35,1.98-.7,3.93-1.07,6.01-.32-.43-.55-.77-.8-1.1-.93-1.2-2.02-2.24-3.25-3.15-.33-.25-.66-.51-1.02-.7-.36-.19-.24-.41-.13-.65.06-.13.16-.24.27-.41Zm-7.99-12.21c.35-.35.75-.54,1.23-.61.73-.1,1.36.51,1.39,1.32.05,1.23-.45,2.2-1.48,2.86-.43.28-.92.4-1.44.15-.05-.03-.12-.02-.13-.02-.51-.45-.62-.97-.6-1.56.04-.87.43-1.54,1.03-2.14Zm-19.99,7.53c.32-.44.75-.81,1.16-1.17.26-.23.64-.28.93-.09.15.1.21.42.21.64,0,.69.29,1.28.63,1.83.46.75,1.05,1.41,1.9,1.76.37.15.77.29,1.17.31.69.05,1.39.04,2.09,0,.38-.02.75-.17,1.13-.26.09.15.14.24.25.42-.35.28-.67.61-1.06.85-.57.35-1.16.67-1.77.96-1.25.58-2.58.82-3.94.57-1.47-.28-2.53-1.18-3.13-2.52-.5-1.13-.31-2.29.43-3.29Zm8.6,2.15c.16-.25.26-.42.37-.58.52-.67,1.03-1.35,1.57-2,.1-.12.34-.23.47-.2,1.01.26,2.04.51,3.02.86.78.28,1.53.67,2.27,1.06.37.19.69.49,1.03.74-.06.08-.11.15-.17.23-.15,0-.3.01-.44,0-.31-.03-.62-.1-.93-.11-1.38-.05-2.76-.1-4.14-.11-.88,0-1.76.07-2.65.11-.1,0-.2,0-.41,0Zm-10.05,13.08c.29-.38.54-.71.79-1.04,1.17-1.53,2.34-3.05,3.51-4.58.67-.87,1.32-1.77,2.01-2.62.15-.19.44-.32.69-.38.86-.2,1.68-.51,2.43-.95.77-.46,1.51-.98,2.34-1.52.94.17,1.97.34,2.98.57.37.09.72.32,1.06.51.3.17.38.6.24.93-.4.94-1.09,1.64-1.86,2.28-.62.51-1.2,1.08-1.83,1.57-.63.49-1.3.95-1.98,1.37-.69.43-1.4.85-2.13,1.2-1.04.5-2.1.97-3.19,1.38-.87.33-1.79.55-2.68.8-.63.18-1.26.33-1.89.48-.12.03-.25,0-.47,0Zm36.65,7.58c0,.14-.04.28-.14.45-.18-.34-.36-.69-.55-1.03-.61-1.07-1.16-2.18-1.84-3.19-.95-1.41-1.95-2.79-3.03-4.1-1.21-1.46-2.68-2.66-4.42-3.45-.75-.34-1.57-.54-2.39-.68-.71-.13-1.45-.15-2.16-.12-.63.03-1.25.22-1.88.33-1.13.21-2.15.73-3.19,1.18-.95.41-1.89.83-2.85,1.21-.75.3-1.51.55-2.27.81-.62.21-1.25.43-1.88.61-.56.16-1.14.28-1.71.42-.72.17-1.44.34-2.17.48-.62.12-1.25.2-1.88.28-.58.08-1.17.18-1.76.21-.65.04-1.31,0-2.08,0,.34-.09.57-.15.8-.21.96-.25,1.92-.51,2.88-.76,1.51-.4,2.92-1.05,4.32-1.74,1.2-.59,2.32-1.28,3.42-2.02,1.34-.9,2.57-1.91,3.72-3.04.58-.57,1.09-1.2,1.39-1.98.27-.69.14-1.36-.41-1.86-.57-.52-1.27-.8-2.03-.95-.9-.18-1.81-.34-2.72-.51,2.82-.23,5.64-.14,8.46.29l.09-.11c-.19-.4-.33-.83-.56-1.2-.83-1.31-2.07-2.11-3.48-2.65-.89-.34-1.8-.65-2.73-.86-.95-.22-1.93-.35-2.9-.42-1.56-.12-3.12-.19-4.69-.25-.47-.02-.95.07-1.42.1-.18.01-.37-.02-.55-.04,0-.03,0-.07,0-.1.78-.12,1.55-.25,2.33-.36.81-.12,1.62-.24,2.43-.36.08-.01.17,0,.25-.01,1.2-.09,2.4-.19,3.6-.26.93-.06,1.85-.1,2.78-.14.6-.03,1.2-.07,1.81-.06.84,0,1.67.02,2.5.09.87.08,1.73.22,2.59.36.68.11,1.37.21,2.03.41,1.26.38,2.47.88,3.44,1.81,1.16,1.1,1.56,2.44,1.14,3.98-.21.79-.65,1.47-1.19,2.09-.07.08-.13.16-.22.29.31.2.6.39.88.58.42.27.85.53,1.25.82,1.21.86,2.27,1.88,3.16,3.06.5.67.96,1.37,1.36,2.1.44.8.86,1.63,1.17,2.49.36.98.6,2.01.86,3.03.41,1.63.47,3.3.44,4.98Zm-13.45.23h1.39c.05-.93.09-1.84.13-2.76h-1.35c-.06.94-.12,1.84-.18,2.76Zm20.16-8.17h.61v1.68h.36v-1.69h.58v-.25h-1.58c.01.09.02.16.03.25Zm2.96.66c-.22-.33-.41-.62-.61-.92h-.33v1.95h.3v-1.41c.24.34.43.61.63.91.21-.3.4-.57.58-.84.02,0,.04.01.06.02v1.34h.3v-1.95h-.34c-.2.3-.39.6-.61.92Zm-39.06,7.5h1.46c.03-.49.05-.96.08-1.45h1.75v-.81h-1.68v-.59h2.06c.02-.29.04-.53.07-.82h-3.55c-.06,1.24-.12,2.45-.19,3.67Zm13.85,0h1.36c.08-1.24.15-2.45.23-3.67h-1.35c-.08,1.24-.15,2.45-.23,3.67Zm-17.55-2.84c-.33,0-.62-.02-.9,0-.64.04-1.22.21-1.59.8-.46.73-.25,1.66.48,1.96.6.25,1.19.22,1.76-.12.03-.02.07-.03.11-.04.02.09.04.17.05.22h1.2c.09-1.23.17-2.44.26-3.67h-1.37v.84Zm-.18,1.59c-.09.36-.32.51-.66.51-.28,0-.46-.15-.54-.4-.08-.26.1-.7.38-.8.28-.1.6-.12.98-.2-.07.38-.09.64-.16.89Zm13.92-.71c.37-.06.75-.01,1.16-.01-.02-.23-.05-.49-.08-.75-.57-.15-1.39-.17-1.88-.05-.61.14-1.07.7-1.11,1.3-.05.82.36,1.27.95,1.45.6.18,1.21.12,1.84,0,.05-.28.11-.55.16-.83-.34.04-.63.09-.93.09-.38,0-.6-.19-.63-.48-.04-.44.08-.66.51-.73Zm-3.1-.81c-.41-.04-.82-.07-1.23-.05-.39.02-.78.1-1.17.15-.04.26-.08.48-.11.71.61-.13,1.19-.36,1.83-.16-.08.37-.35.3-.54.36-.46.14-.93.23-1.38.4-.3.11-.44.39-.39.72.05.34.27.58.58.64.4.08.81.08,1.21.11.09-.25.16-.44.23-.63-.24-.02-.47-.05-.76-.07.21-.55.69-.4,1.04-.61-.03.44-.05.82-.08,1.21h1.32c.04-.67.09-1.33.12-1.99.02-.45-.22-.73-.68-.78Zm4.73,2.78h1.39c.05-.94.09-1.84.14-2.76h-1.35c-.06.93-.12,1.84-.18,2.76Zm.19-3.13h1.35v-.62h-1.31c-.01.21-.03.42-.04.62Z"/>
  </g>
</svg>