<?xml version="1.0" encoding="UTF-8"?>
<svg xmlns="http://www.w3.org/2000/svg" viewBox="0 0 108 108">
  <defs>
    <style>
      .cls-1 {
        fill: #282828;
      }

      .cls-1, .cls-2 {
        stroke-width: 0px;
      }

      .cls-2 {
        fill: #e9d5bd;
      }
    </style>
  </defs>
  <g id="bg">
    <circle class="cls-1" cx="54" cy="54" r="54"/>
  </g>
  <g id="icon">
    <path class="cls-2" d="m41.32,89.72c-.72-.01-1.43-.02-2.15-.02-.14,0-.29,0-.36.16,0,.28,0,.56,0,.84,0,.17,0,.33.12.46.34,0,.66-.02.98-.02.42,0,.84-.01,1.26-.01.13,0,.25-.04.26-.16.04-.33.05-.67.07-1.01,0-.06-.03-.13-.04-.19-.06-.02-.1-.04-.14-.04Zm-2.27-62.97c.27.44.61.85.95,1.24.16.18.39.33.61.44.33.16.67.17,1.02-.02.39-.21.63-.54.89-.87.44-.57.72-1.27,1.39-1.67.21-.12.41-.29.64-.38.47-.17.9-.43,1.33-.68.43-.26.84-.55,1.25-.84.1-.07.18-.17.27-.26.11-.12.22-.25.34-.37.37-.4.76-.77,1.17-1.13.54-.46,1.09-.91,1.72-1.22.6-.29,1.22-.54,1.91-.58.5-.03,1-.13,1.48-.27.79-.22,1.61-.27,2.42-.4.43-.07.88-.07,1.3-.18.54-.14,1.07-.17,1.62-.21.68-.05,1.31-.22,1.91-.57.37-.22.68-.55,1.16-.55.09-.23.08-.36-.04-.48-.47-.48-.94-.96-1.41-1.43-.65-.65-1.32-1.29-1.97-1.93-.24-.24-.46-.49-.71-.72-.37-.34-.73-.72-1.16-.95-.62-.33-1.24-.69-1.98-.69-.1,0-.2-.05-.3-.08-.54-.16-1.08-.13-1.62,0-.2.05-.41.1-.61.15-1,.23-1.9.64-2.64,1.37-.25.25-.49.51-.75.76-.56.56-1.14,1.12-1.7,1.68-.84.85-1.67,1.7-2.52,2.55-.87.88-1.76,1.74-2.63,2.61-.56.56-1.11,1.14-1.68,1.7-.8.79-1.62,1.58-2.43,2.37-.04.04-.08.09-.12.14-.15.21-.14.36.08.53.33.27.59.58.82.94Zm-7.88,8.92c.33.62.58,1.29,1.16,1.77.54.46,1.15.8,1.84.88.73.08,1.43.27,2.14.45.32.08.65.18,1.02.04.24-.49.44-1.02.62-1.55.27-.79.53-1.59.78-2.39.13-.42.26-.84.36-1.27.08-.34-.13-.68-.47-.79-.54-.17-1.08-.34-1.63-.46-.38-.08-.79-.14-1.17.06-.08.04-.2.02-.28.02-.36-.84-.37-.84-1.12-1.51-.38-.34-.7-.72-.94-1.17-.22-.41-.37-.85-.4-1.31-.03-.53.22-1.01.32-1.52.4-.57.82-1.11,1.48-1.41.24-.11.48-.24.72-.36,0-.04,0-.08-.01-.12-.08,0-.16-.02-.24,0-.16.04-.32.11-.47.16-1.26.48-1.99,1.38-2.2,2.72-.09.57,0,1.13.07,1.69.08.68-.13,1.23-.6,1.71-.68.68-1.36,1.37-2.03,2.05-.18.19-.2.35-.02.55.47.52.77,1.14,1.09,1.75Zm1.26,47.06c-.64-.12-1.29-.02-1.92-.06-.13,0-.29-.01-.4.14,0,.17.03.37.03.56,0,1.42-.02,2.84-.02,4.26,0,1.94,0,3.88,0,5.82,0,.13,0,.25.03.38.02.11.1.17.22.16.21,0,.42.02.62-.02.31-.06.61-.05.92-.04.45,0,.53-.07.53-.53,0-.49,0-.98,0-1.47,0-2.3,0-4.61,0-6.91,0-.7.03-1.4.05-2.1,0-.05-.02-.1-.04-.18Zm14.03,5.54c-.42-.43-.89-.81-1.35-1.2-.51-.43-.94-.9-1.08-1.59-.09-.44.05-.78.31-1.08.21-.25.52-.25.79-.05.11.08.17.18.22.3.1.27.13.54.13.83,0,.16-.08.33.03.48.03.01.06.04.08.03.71-.12,1.43-.25,2.16-.38.03-.07.05-.11.05-.15.02-.54-.07-1.05-.35-1.53-.56-.97-1.42-1.44-2.52-1.47-.2,0-.39.03-.59.05-.67.06-1.24.36-1.73.79-.22.19-.42.41-.54.69-.34.76-.39,1.54-.19,2.34.05.2.09.41.19.6.28.52.65.97,1.1,1.36.49.42.97.84,1.45,1.26.11.1.26.2.32.33.08.18.24.31.32.49.08.19.18.38.24.58.12.37.16.74,0,1.11-.03.07-.08.15-.14.2-.21.19-.55.21-.78.04-.18-.13-.31-.3-.35-.51-.08-.41-.17-.82-.11-1.25.01-.07-.03-.15-.04-.23-.25-.03-.47.02-.69.07-.41.1-.82.18-1.23.26-.3.05-.4.15-.37.44.05.49.16.97.37,1.42.26.56.65,1.01,1.2,1.3.31.16.64.26.99.32.51.09,1.01.04,1.5-.08.65-.16,1.16-.56,1.54-1.1.19-.27.35-.58.39-.92.09-.78,0-1.54-.31-2.27-.24-.57-.61-1.04-1.03-1.47Zm-16.97-5.53c-.25-.1-.49-.06-.72-.06-1.19,0-2.39,0-3.58,0-.12,0-.26-.01-.37.11,0,.05-.03.11-.03.18,0,.25,0,.51,0,.76,0,2.91,0,5.82,0,8.72,0,.39,0,.79,0,1.18,0,.12-.02.26.1.35.51-.01.99-.01,1.47-.03.22,0,.44-.04.64-.06.03-.05.06-.07.06-.09.01-.36.03-.73.03-1.09,0-1.04,0-2.08,0-3.12,0-.19.03-.39.05-.6.55-.13,1.11.04,1.66-.2,0-.22.03-.46.03-.69,0-.24.1-.49-.02-.74-.4-.03-.79-.05-1.18-.02-.16.01-.34.04-.51-.09-.07-.83-.03-1.67-.03-2.51,0-.14.04-.27.06-.43.78-.1,1.55.02,2.3-.1.05-.18.14-1.1.11-1.27,0-.07-.05-.13-.07-.18Zm9.1-.05c-.07-.01-.14,0-.21,0-1.39,0-2.78-.01-4.17-.01-.27,0-.53,0-.8.02-.08,0-.16.04-.22.06-.02.05-.04.08-.04.1.01.46.03.93.05,1.39,0,.03,0,.06.02.08.01.03.03.05.04.07,0,.01.02.02.05.05.48,0,.98-.07,1.48.02.02.11.04.19.04.27,0,.24,0,.48,0,.72,0,2.74-.01,5.48-.01,8.22,0,.09.03.19.05.3.49-.01.92-.02,1.35-.03.21,0,.42-.02.63-.04.13-.01.2-.09.23-.21.02-.08.03-.17.03-.25,0-.45.01-.9.01-1.35,0-2.33,0-4.67,0-7,0-.11,0-.23,0-.34,0-.09.04-.19.06-.28.49-.17,1,0,1.46-.16.03-.04.05-.06.06-.09.1-.46.03-.92.07-1.38,0-.09-.07-.15-.17-.17Zm44.13,5.47c-1.58-.05-3.02-.04-3.37.04-.01.06-.04.12-.04.19,0,.34,0,.67.01,1.01,0,.08.01.17.03.25.02.13.11.19.24.19.21-.01.42-.03.63-.04.14,0,.28,0,.4.11,0,.31-.01.59,0,.87.02.36-.09.7-.2,1.03-.17.51-.77.72-1.25.48-.43-.21-.56-.62-.61-1.04-.05-.35-.03-.7-.03-1.05,0-1.05,0-2.11,0-3.16,0-.53.04-1.07.04-1.6,0-.25.1-.46.19-.68.12-.29.37-.43.63-.5.26-.07.52-.04.75.17.13.12.25.23.3.39.09.29.19.58.18.9-.01.31,0,.62,0,.93,0,.25.06.3.3.29.45-.01.89-.02,1.34-.04.15,0,.3-.02.46-.03.02-.09.06-.15.06-.22.05-.58,0-1.15-.09-1.72-.06-.38-.21-.73-.38-1.07-.14-.27-.33-.52-.57-.71-.45-.36-.95-.57-1.53-.63-.42-.04-.84-.03-1.26,0-.75.08-1.37.39-1.84.97-.33.41-.54.86-.66,1.38-.17.72-.18,1.45-.19,2.18,0,.91,0,1.83,0,2.74,0,.38.03.76.03,1.14.01.71.22,1.35.58,1.95.21.36.49.68.87.9.66.38,1.36.44,2.07.28.27-.06.52-.17.74-.38.16-.15.33-.28.52-.46.05.09.12.16.12.23,0,.2.13.33.24.48.23,0,.46.01.68,0,.22-.02.45.08.65-.07.02-.05.04-.09.04-.13,0-.45.02-.9.02-1.35,0-1.3-.05-2.61.04-3.91,0-.12-.01-.22-.12-.29Zm-7.61-5.3c-.01-.15-.09-.22-.25-.22-.49,0-.98.02-1.47.03-.07,0-.13.03-.2.04-.02.08-.04.13-.04.18,0,.32.01.64.02.97,0,1.08.02,2.16,0,3.24,0,.31.02.61.03.92,0,.08.02.17-.13.23-.25-.61-.5-1.22-.77-1.82-.27-.61-.51-1.24-.76-1.87-.26-.62-.52-1.23-.79-1.87-.07-.01-.15-.05-.23-.04-.46.03-.92-.04-1.36.03-.13.16-.09.32-.09.47,0,1.32,0,2.64,0,3.96,0,2.16,0,4.33,0,6.49,0,.11-.01.23.09.34.06,0,.14.03.22.03.48-.01.95-.03,1.43-.06.07,0,.14-.07.22-.1,0-.43.02-.83.02-1.24,0-.58-.03-1.15,0-1.73.03-.57-.06-1.15,0-1.72.02-.24,0-.48,0-.71,0-.1-.03-.23.13-.3.04.05.09.1.11.16.09.2.17.41.25.62.06.16.12.32.17.47.14.38.27.76.41,1.14.07.2.15.39.23.58.25.64.5,1.28.76,1.92.13.32.2.67.48.96.11-.02.21-.05.3-.06.26,0,.53,0,.79,0,.24,0,.33-.08.37-.32.02-.12.03-.25.03-.38,0-.28,0-.56,0-.84,0-2.3,0-4.61,0-6.91,0-.73.02-1.46.03-2.19,0-.14,0-.28,0-.42Zm12.81-38.87c-.24-.76-.69-1.38-1.23-1.94-.98-1.01-1.97-2-2.97-2.99-1.07-1.06-2.15-2.11-3.22-3.18-1.2-1.2-2.4-2.41-3.59-3.61-1.15-1.16-2.3-2.33-3.45-3.48-1.1-1.1-2.2-2.19-3.3-3.28-.69-.68-1.38-1.35-2.07-2.02-.65-.65-1.3-1.31-1.95-1.96-.1-.1-.23-.2-.12-.4.2-.06.43-.12.65-.19.14-.04.29-.08.41-.15.07-.04.09-.15.15-.25-.26-.16-.49-.15-.7-.06-.2.09-.4.1-.61.09-.27,0-.54,0-.82,0-.55,0-1.09.03-1.61.24-.24.1-.34.23-.34.46,0,.23.15.34.34.39.24.06.49.09.73.15.12.03.27.07.32.16.07.11.05.26.09.49-.41.01-.74.08-1.03.02-.71-.15-1.45-.26-2.09-.65-.84-.52-1.75-.54-2.67-.27-1,.29-1.99.65-2.99.94-1.2.36-2.41.69-3.62,1.01-.43.11-.75.32-1.01.69-.59.84-1.3,1.58-2.03,2.3-.52.51-1.01,1.06-1.42,1.68-.12.18-.15.34-.01.52.26.33.5.67.77.99.51.61,1.03,1.21,1.55,1.81.44.5.87,1.01,1.33,1.5.56.6,1.13,1.17,1.7,1.76.67.69,1.34,1.39,2,2.08.58.6,1.15,1.21,1.72,1.82.44.47.87.96,1.33,1.42.19.18.29.41.46.58.19.21.33.42.38.7.02.08.09.15.11.23.05.18.11.36.11.54,0,.4-.04.79-.07,1.19-.05.61-.09,1.21-.16,1.82-.05.47.04.92.24,1.35.32.68.71,1.32,1.17,1.92,1.25,1.6,2.62,3.1,3.93,4.65.44.51,1,.88,1.68,1.05.93.23,1.76.66,2.48,1.3.44.39.81.84,1.28,1.2.08.06.13.17.19.25.28.34.56.68.85,1,.87.96,1.78,1.89,2.62,2.87.45.52.91,1.04,1.38,1.55.4.43.86.78,1.4,1.04.83.4,1.63.85,2.33,1.47.3.27.34.39.14.75-.34.62-.69,1.24-1.1,1.83-.4.57-.86,1.08-1.29,1.61-.32.4-.73.69-1.1,1.02-.22.2-.48.33-.79.35-.12,0-.25.05-.36.1-.32.14-.65.16-.99.12-.12-.01-.24-.02-.4-.04.14.22.3.3.49.33.89.12,1.72,0,2.4-.62.49-.45.98-.91,1.42-1.41.97-1.1,1.85-2.27,2.37-3.66.08-.22.08-.4-.02-.6-.13-.24-.25-.47-.52-.6-.22-.11-.41-.29-.63-.4-.62-.31-1.2-.68-1.6-1.23-.08-.24-.15-.46-.21-.67-.02-.08-.05-.17-.03-.25.08-.39.2-.78.46-1.09.36-.43.76-.83,1.14-1.24.45-.49.94-.94,1.43-1.39.6-.55,1.12-1.18,1.73-1.72.61-.54,1.12-1.18,1.68-1.77.04-.05.08-.1.14-.13.44-.2.67-.62,1-.93.61-.56,1.17-1.18,1.75-1.78.2-.21.4-.43.6-.64.32-.33.64-.66.95-1,.4-.43.62-.97.84-1.5.17-.4.24-.85.28-1.29.08-1,.17-2.02-.4-2.93Zm-28.35,46.35c-.18-.57-.36-1.15-.55-1.73.18-.28.43-.39.64-.56.23-.19.42-.4.54-.68.2-.48.36-.97.33-1.51,0-.14,0-.28,0-.42,0-.53-.18-1.01-.4-1.49-.02-.05-.05-.1-.08-.14-.39-.44-.85-.77-1.42-.93-.39-.12-.79-.18-1.2-.19-.87-.01-1.74-.03-2.61-.04-.06,0-.11,0-.17.02-.12.03-.2.12-.21.24,0,.06,0,.11,0,.17,0,.86,0,1.71,0,2.57,0,2.56,0,5.11,0,7.67,0,.18,0,.36,0,.53.22.14.22.14.43.12.27-.02.53-.04.8-.05.27-.01.53-.01.8-.03.08,0,.15-.05.24-.08,0-.1.02-.18.03-.26,0-1.23,0-2.47.01-3.7,0-.29.04-.59.07-.88,0-.05.04-.1.08-.14.05-.07.18-.06.21.02.03.05.04.1.06.16.08.31.17.62.25.93.1.41.19.82.29,1.23.1.44.19.88.31,1.31.09.3.17.59.21.9.03.22.1.44.24.59.5-.01.97-.03,1.45-.04.18,0,.37,0,.55,0,.08,0,.15-.05.24-.08-.1-.62-.39-1.15-.55-1.73-.16-.59-.38-1.17-.57-1.76Zm-1.54-3.5c-.12.3-.32.49-.66.5-.19,0-.39.06-.59-.08-.08-.92-.06-1.86-.02-2.79.33-.15.63-.13.94-.06.08.02.15.08.21.14.14.14.25.32.27.52.08.6.1,1.2-.14,1.78Zm-4.42-4.14c-.11-.02-.22-.03-.33-.03-.41,0-.81,0-1.22,0-1.15,0-2.3,0-3.45,0-.15,0-.31-.02-.45.14-.02.48-.02.99,0,1.49,0,.04.04.07.08.13.16,0,.32,0,.49,0,.27,0,.53-.01.8,0,.09,0,.17.06.27.1-.01.46-.03.89-.04,1.32,0,.7,0,1.4,0,2.11,0,1.9,0,3.79,0,5.69,0,.11.03.22.05.34.33,0,.6.03.85,0,.34-.05.67-.05,1.01-.04.26,0,.36-.07.41-.32.02-.08.02-.17.02-.25,0-1.14,0-2.27,0-3.41,0-1.69,0-3.37,0-5.06,0-.14-.03-.28.1-.43.08-.01.19-.04.3-.05.28-.02.56-.02.84-.04.09,0,.19-.02.27-.04.03-.06.06-.09.07-.13.03-.43.06-.87.09-1.3,0-.09-.05-.17-.14-.19Zm12.01-.14c-.53-.11-1.05-.15-1.59-.09-.73.09-1.33.4-1.84.92-.16.16-.28.34-.39.54-.24.44-.32.92-.42,1.4-.04.19-.07.39-.07.58,0,.8,0,1.6,0,2.4,0,0,0,0-.01,0,0,.55,0,1.1,0,1.64,0,.52,0,1.03.13,1.55.08.3.14.6.26.88.29.71.8,1.2,1.51,1.49.37.15.76.18,1.15.23.48.07.95-.04,1.42-.15.22-.05.43-.14.62-.26.54-.34.91-.82,1.15-1.4.24-.59.35-1.21.35-1.85,0-1.46.02-2.92,0-4.38,0-.78-.13-1.53-.53-2.22-.39-.67-.94-1.14-1.72-1.3Zm-.04,8.05c0,.25,0,.51-.04.76-.03.27-.12.52-.31.72-.36.4-.93.4-1.29,0-.22-.24-.3-.54-.33-.85-.03-.25-.03-.5-.03-.76,0-1.49-.02-2.98,0-4.47,0-.36.07-.73.13-1.08.06-.32.48-.66.81-.7.34-.05.71.17.9.51.12.22.16.45.16.69,0,.72,0,1.43,0,2.15,0,.2,0,.39,0,.59h0c0,.81,0,1.63,0,2.44Zm5.7-24.76c.19-.18.41-.29.67-.32.6-.06,1.05.25,1.14.66.14.59.1,1.15-.29,1.67-.32.41-.57.87-.85,1.32-.04.06-.05.14-.1.29.17-.04.31-.03.4-.09.15-.11.3-.25.38-.41.22-.45.49-.87.76-1.29.14-.22.27-.49.3-.75.04-.31.06-.62.15-.93.06-.2,0-.37-.16-.51-.49-.43-.97-.86-1.46-1.28-.37-.33-.74-.67-1.12-1-.53-.47-1.06-.94-1.61-1.39-.4-.33-.83-.63-1.26-.94-.25-.18-.53-.33-.78-.52-1.27-1.01-2.71-1.74-4.08-2.59-.66-.41-1.38-.72-2.02-1.15-1.15-.76-2.35-1.46-3.44-2.32-.71-.56-1.36-1.18-1.97-1.83-.57-.61-1.13-1.24-1.67-1.87-.54-.64-1.11-1.25-1.58-1.95-.11-.17-.22-.36-.46-.47-2.42.17-4.86-.05-7.33-.23-.03.13-.11.27-.08.36.22.5.39,1.01.56,1.53.21.66.48,1.29.72,1.94.06.16.13.31.21.45.45.81,1.02,1.54,1.66,2.2.33.35.65.71.96,1.07.5.57,1.02,1.11,1.61,1.57.59.47,1.14.98,1.64,1.55.3.34.27.62-.09.9-.95.72-1.89,1.45-2.86,2.14-1.35.96-2.72,1.89-4.08,2.83-.25.17-.52.26-.83.27-.44,0-.83-.38-.87-.82-.03-.3,0-.59.18-.84.26-.38.49-.78.79-1.13.74-.85,1.51-1.68,2.27-2.52.2-.22.39-.44.56-.67.3-.4.31-.62.03-1.03-.17-.26-.35-.52-.57-.74-.72-.73-1.45-1.45-2.18-2.17-.55-.54-1.12-1.07-1.65-1.63-1.16-1.21-2.32-2.42-3.43-3.67-.51-.57-.98-1.19-1.27-1.93-.23-.58-.21-1.15-.04-1.72.22-.74.78-1.24,1.37-1.68.97-.72,2.08-1.17,3.24-1.45,2-.49,4.02-.79,6.11-.79.13-.23.05-.37-.09-.48-.42-.31-.83-.64-1.26-.93-.83-.56-1.69-1.09-2.53-1.64-.42-.27-.83-.56-1.26-.83-.61-.37-1.22-.73-1.77-1.18-.07-.06-.18-.06-.28-.09-.05.08-.1.12-.12.18-.67,1.7-1.59,3.27-2.41,4.89-.28.55-1,.93-1.7.67-.93-.35-1.79-.8-2.62-1.34-1.15-.76-2.3-1.53-3.44-2.31-.36-.25-.7-.54-1.01-.85-.37-.37-.79-.65-1.27-.79-.58-.16-1.19-.22-1.79-.31-.23-.03-.46-.03-.69-.04-.29-.01-.58-.02-.79-.29-.07-.09-.21-.13-.34-.03-.22.45.4.4.43.77-.02.05-.05.16-.12.23-.21.23-.42.46-.65.68-1.16,1.15-2.33,2.29-3.47,3.46-.41.42-.83.84-1.13,1.34-.52.86-.86,1.8-.93,2.83-.09,1.29.3,2.44.94,3.52.15.25.34.48.54.68.59.59,1.2,1.17,1.79,1.76,1.42,1.42,2.84,2.85,4.27,4.27,1.05,1.05,2.1,2.1,3.16,3.15.49.49.99.96,1.48,1.45.86.86,1.7,1.73,2.56,2.59.93.93,1.88,1.85,2.82,2.78.96.96,1.91,1.94,2.88,2.91,1.2,1.2,2.41,2.39,3.61,3.6,1.15,1.16,2.3,2.32,3.45,3.48.83.83,1.65,1.67,2.49,2.49.64.63,1.35,1.16,2.2,1.52,2.1.88,4.68.49,6.45-1.28.67-.66,1.33-1.33,1.99-2,.83-.83,1.65-1.66,2.48-2.49.38-.39.76-.78,1.15-1.16.98-.98,1.95-1.95,2.93-2.92.47-.47.96-.93,1.43-1.41.58-.58,1.14-1.17,1.72-1.75.43-.43.87-.84,1.31-1.26Z"/>
  </g>
</svg>