<?xml version="1.0" encoding="UTF-8"?>
<svg xmlns="http://www.w3.org/2000/svg" viewBox="0 0 108 108">
  <defs>
    <style>
      .cls-1 {
        fill: #282828;
      }

      .cls-1, .cls-2 {
        stroke-width: 0px;
      }

      .cls-2 {
        fill: #e9d5bd;
      }
    </style>
  </defs>
  <g id="bg">
    <circle class="cls-1" cx="54" cy="54" r="54"/>
  </g>
  <g id="icon">
    <path class="cls-2" d="m75.84,54.61c6.15-3.64,12.26-7.25,18.4-10.87-3.65-6.3-7.28-12.57-10.92-18.86-6.28,3.63-12.54,7.24-18.85,10.89V14.45h-21.41v21.27c-6.15-3.63-12.25-7.24-18.38-10.86-3.65,6.3-7.28,12.57-10.93,18.87,6.13,3.63,12.24,7.23,18.4,10.87-6.16,3.5-12.28,6.98-18.41,10.46,3.66,6.32,7.29,12.59,10.94,18.89,6.13-3.62,12.24-7.23,18.4-10.87v.49c0,6.93,0,13.87,0,20.8,0,.15,0,.3.01.45h21.81c0-.15.01-.3.01-.45,0-6.94,0-13.89,0-20.83v-.45c6.17,3.65,12.27,7.25,18.39,10.87,3.65-6.31,7.29-12.59,10.94-18.89-6.14-3.49-12.25-6.96-18.41-10.46Zm7.15,28.14c-6.32-3.73-12.6-7.44-18.94-11.19v22.36h-20.1v-22.37c-6.35,3.75-12.64,7.47-18.96,11.2-3.35-5.78-6.69-11.55-10.04-17.35,6.32-3.59,12.61-7.17,18.96-10.77-6.35-3.75-12.64-7.47-18.96-11.2,3.35-5.79,6.69-11.56,10.04-17.34,6.31,3.73,12.59,7.44,18.94,11.19V15.34h19.64v21.95c6.51-3.76,12.95-7.48,19.41-11.21,3.35,5.78,6.68,11.54,10.04,17.34-6.31,3.73-12.61,7.45-18.96,11.2,6.34,3.61,12.63,7.18,18.96,10.77-3.35,5.79-6.69,11.55-10.04,17.35Zm-29.83-52.95c.27-.17.54-.31.78-.49.2-.15.17-.34-.02-.46-.32-.2-1.32-.18-1.63.04-.06.04-.09.11-.14.18.22.41.62.53,1.02.73Zm19.23,24.84c6.53-3.86,13-7.68,19.49-11.52-3.08-5.32-6.13-10.58-9.19-15.88-6.66,3.85-13.28,7.67-19.97,11.53v-22.58h-17.92v22.56c-6.53-3.86-13-7.68-19.49-11.51-3.08,5.31-6.13,10.58-9.19,15.87,6.51,3.84,12.97,7.66,19.49,11.52-6.53,3.71-12.99,7.38-19.49,11.07,3.07,5.3,6.12,10.57,9.19,15.87,6.5-3.84,12.97-7.66,19.51-11.53v23.01h18.38v-23c6.53,3.86,13,7.68,19.49,11.52,3.07-5.3,6.12-10.57,9.19-15.87-6.5-3.7-12.97-7.37-19.49-11.07Zm-18.69-34.31c1.22-.15,2.41.45,2.65,1.85.06.38.04.77.03,1.16-.04,1.73-.08,3.45-.12,5.18-1.06-1.66-2.7-1.84-4.43-1.81-.01-.06-.03-.11-.03-.15-.03-1.31-.06-2.63-.07-3.94-.01-1.23.77-2.14,1.98-2.28Zm2.51,10.47c0,.11,0,.22,0,.33-.07,3.22-.14,6.44-.21,9.66-.07,3.24-.15,6.49-.23,9.73,0,.15-.07.31-.16.44-.65.96-1.5,1.71-2.42,2.4-.25.19-.5.37-.79.58-.16-7.02-.31-13.98-.47-20.95.68-.22,1.35-.4,2-.65.53-.21,1.04-.48,1.52-.78.29-.18.49-.49.75-.76Zm-9.82,5.54c-.29-1.98-.03-3.89.83-5.7.41-.86,1.05-1.52,1.86-2.01,1.46-.86,3.01-1.18,4.68-.8.47.11.89.32,1.23.68.72.76.61,1.89-.3,2.4-.62.35-1.32.57-2,.82-.72.27-1.47.49-2.19.76-.53.2-.99.53-1.35.98-.64.81-.65,1.72-.32,2.63.23.64.56,1.25.88,1.86.31.58.8,1.1.97,1.72.17.62.05,1.32.05,1.98,0,.95,0,1.9,0,2.85-.83-.69-1.49-1.48-2.07-2.34-1.2-1.78-1.97-3.73-2.28-5.84Zm8.84,39.85c-.07,2.98-.12,5.96-.22,8.94-.02.5-.19,1-.35,1.48-.25.77-.54,1.52-.83,2.31h.82c-.06.31-.26.48-.51.57-.25.09-.43-.08-.58-.26-.29-.36-.42-.8-.43-1.25-.04-1.21-.05-2.43-.08-3.65-.04-1.99-.07-3.98-.14-5.98-.02-.64.16-1.18.51-1.68.44-.65,1.07-1.07,1.79-1.41,0,.33,0,.63,0,.92Zm.06,11.61c.65-1.77,1.02-3.53,1.1-5.36,1.49,1.35.73,4.5-1.1,5.36Zm.15-13.86c-.3.26-.66.46-1.01.65-1.67.9-2.5,2.31-2.64,4.17-.04.55-.07,1.1-.11,1.68-.06-.06-.12-.11-.15-.16-.83-1.26-1.29-2.63-1.08-4.15.16-1.17.7-2.18,1.46-3.07.59-.69,1.26-1.3,2.02-1.79,1.42-.91,2.22-2.24,2.61-3.84.26-1.05.31-2.13.34-3.2,0-.1.02-.2.03-.38.79.93,1.28,1.94,1.42,3.05.36,2.87-.73,5.18-2.88,7.03Zm-2.84-11.56c0-.39.18-.7.37-1,.64-1.03,1.57-1.73,2.57-2.38,0,1.11.02,2.18,0,3.26-.03,1.62-.12,3.23-.11,4.84,0,.91-.35,1.63-.87,2.33-.46.62-1.12.98-1.74,1.44-.02-.05-.05-.08-.05-.11-.06-2.79-.11-5.58-.17-8.38Zm5.48-6.4c-.76.68-1.65,1.21-2.48,1.82-.74.54-1.51,1.03-2.21,1.62-1.15.97-1.85,2.22-2.06,3.72-.02.12-.05.24-.09.42-.86-.79-1.35-1.73-1.62-2.79-.13-.53-.18-1.08-.24-1.63-.1-.82.24-1.48.76-2.08.74-.83,1.64-1.46,2.53-2.12,1.03-.76,2.06-1.51,2.94-2.44,1.15-1.22,1.78-2.63,1.75-4.33-.03-1.38,0-2.76,0-4.15.05.01.09,0,.11.03,1.42,1.41,2.52,3.02,2.9,5.02.53,2.72-.23,5.06-2.3,6.91Z"/>
  </g>
</svg>