<?xml version="1.0" encoding="UTF-8"?>
<svg xmlns="http://www.w3.org/2000/svg" viewBox="0 0 108 108">
  <defs>
    <style>
      .cls-1 {
        fill: #282828;
      }

      .cls-1, .cls-2 {
        stroke-width: 0px;
      }

      .cls-2 {
        fill: #e9d5bd;
      }
    </style>
  </defs>
  <g id="bg">
    <circle class="cls-1" cx="54" cy="54" r="54"/>
  </g>
  <g id="icon">
    <path class="cls-2" d="m44.61,55.61c-.11-.11-.21-.22-.32-.32-.37-.31-.78-.43-1.26-.29-.29.09-.51.26-.7.47-.31.36-.41.77-.29,1.23.11.41.4.7.69.98.2.19.39.38.58.57.28.28.55.57.83.84.2.2.41.38.61.58.44.44.87.89,1.31,1.34.2.2.41.38.61.58.44.44.87.89,1.31,1.34.2.2.41.38.61.58.34.33.65.7,1.01,1.01.24.2.53.35.88.35.19-.05.39-.08.56-.16.46-.2.82-.68.86-1.22.03-.41-.15-.75-.43-1.03-2.29-2.29-4.57-4.57-6.86-6.85Zm-5.98-.66c-.5.02-.89.27-1.21.65-.04.04-.06.1-.11.14-.25.23-.51.46-.75.7-.3.3-.59.62-.9.9-.1.09-.17.22-.27.32-.25.24-.52.48-.77.72-.08.08-.16.17-.24.25-.27.27-.54.54-.81.82-.05.05-.08.11-.13.16-.26.24-.52.47-.77.72-.24.24-.46.5-.7.74-.23.23-.48.45-.72.68-.03.03-.05.08-.09.12-.06.06-.12.13-.19.18-.27.2-.48.45-.64.73-.2.35-.26.73-.1,1.13.19.5.75.97,1.32.95.28,0,.54-.07.76-.23.18-.13.35-.29.51-.45.94-.94,1.88-1.88,2.83-2.82,1.26-1.26,2.52-2.52,3.78-3.78.17-.17.32-.35.44-.55.29-.47.24-1.07-.11-1.49-.29-.36-.66-.6-1.14-.58Zm-13.9,6.96c-3.61,0-7.21,0-10.82,0-.12,0-.23,0-.34,0v-6.54h.37c3.04,0,6.09,0,9.13,0,.36,0,.7-.08,1-.3.53-.39.73-.89.54-1.56-.17-.58-.77-1.02-1.41-1.02-3.09,0-6.19,0-9.28,0-.12,0-.23,0-.34,0v-6.36h.37c3.47,0,6.93,0,10.4,0,.23,0,.47,0,.67-.08.45-.17.82-.46.97-.95.05-.17.1-.35.07-.52-.03-.22-.11-.43-.23-.63-.28-.45-.69-.69-1.2-.69-4.17,0-8.33,0-12.5,0-.43,0-.79.2-1.06.51-.26.3-.39.67-.39,1.09,0,6.08,0,12.16,0,18.25,0,.19.02.38.06.56.17.62.69,1.09,1.34,1.09,4.23,0,8.45,0,12.68,0,.13,0,.26-.02.38-.06.73-.24,1.1-.9.96-1.6-.13-.67-.68-1.15-1.38-1.15Zm6.86-15.34c1.02,1,2.04,2,3.05,3.01.33.33.64.68.97,1.01.64.65,1.28,1.3,1.93,1.93.3.29.63.54,1.07.51.61.02.99-.31,1.27-.76.32-.52.18-1.19-.23-1.6-1.08-1.07-2.15-2.15-3.23-3.22-.11-.11-.19-.25-.31-.36-.26-.26-.54-.49-.8-.75-.94-.94-1.88-1.88-2.83-2.82-.27-.27-.61-.4-.99-.39-.25,0-.48.1-.69.24-.39.27-.63.65-.66,1.13-.02.42.15.77.43,1.06.33.34.67.67,1.01,1.01Zm20-2.87c-.33-.45-1.03-.75-1.66-.44-.35.17-.59.48-.88.72-.23.19-.4.43-.61.64-.26.26-.54.49-.8.76-.3.31-.6.63-.92.92-.1.09-.17.22-.27.32-.24.23-.49.45-.73.68-.09.09-.15.21-.24.3-.25.24-.5.46-.75.7-.04.04-.06.1-.1.14-.04.05-.08.09-.12.13-.26.24-.52.48-.77.72-.03.03-.04.07-.06.1-.05.06-.1.12-.16.18-.21.2-.44.39-.65.59-.21.21-.4.43-.59.65-.3.34-.35.74-.25,1.17.06.28.25.49.44.68.26.26.56.4.93.4.12-.02.23-.03.35-.06.34-.07.58-.3.81-.52.97-.95,1.93-1.92,2.89-2.88.08-.08.14-.19.22-.27.25-.24.52-.47.77-.72.89-.88,1.77-1.76,2.65-2.65.18-.18.36-.37.51-.58.22-.29.34-.62.28-.99-.04-.24-.15-.47-.3-.66Zm46.2,18.38c-.81,0-1.53.74-1.53,1.53,0,.83.73,1.53,1.55,1.54.69.01,1.57-.73,1.51-1.55.07-.77-.81-1.53-1.52-1.52Zm0,2.93c-.77-.01-1.37-.62-1.38-1.37,0-.73.54-1.4,1.4-1.41.75-.01,1.39.65,1.39,1.4,0,.76-.65,1.39-1.41,1.38Zm.5-1.24c.26-.13.38-.31.36-.56-.02-.23-.17-.4-.44-.47-.33-.09-.67-.04-1-.03-.06.2-.09,1.56-.05,1.81,0,.03.04.06.09.12.16-.26.02-.54.12-.78h.54c.08.1.15.19.23.28.1.13.2.25.3.38.06.07.12.11.23,0-.16-.22-.33-.44-.5-.68.06-.04.1-.06.13-.08Zm-.21-.11c-.23.02-.47,0-.72,0v-.79c.27.01.52,0,.76.04.24.03.34.17.33.38-.01.2-.14.34-.37.36Zm-39.73-5.73c-.33-.67-.59-1.36-.75-2.09-.14-.64-.18-1.29-.22-1.93,0-.16.05-.33.05-.5,0-.5.1-.98.22-1.46.15-.65.41-1.27.72-1.86.36-.71.83-1.34,1.38-1.91.47-.49,1-.92,1.59-1.27.49-.29,1-.55,1.54-.74.56-.19,1.11-.37,1.71-.41.37-.03.74-.09,1.12-.11.18-.01.37.05.56.05.37,0,.73.06,1.09.12.66.1,1.27.32,1.87.58.32.14.62.35.94.49.44.2.9.22,1.33-.06.51-.34.77-.79.68-1.41-.04-.29-.18-.52-.38-.74-.28-.31-.66-.47-1.02-.65-.59-.31-1.22-.53-1.85-.74-.61-.2-1.24-.3-1.87-.4-.43-.07-.87-.06-1.37-.09-.27.02-.6.07-.92.08-.41.02-.8.1-1.2.17-.85.15-1.65.42-2.43.78-.76.35-1.48.76-2.14,1.29-.56.45-1.11.9-1.58,1.45-.44.52-.85,1.05-1.21,1.63-.44.7-.79,1.45-1.05,2.23-.16.46-.27.94-.38,1.41-.12.51-.17,1.03-.21,1.55-.04.71-.02,1.43.1,2.14.1.6.23,1.19.41,1.77.22.72.52,1.41.88,2.08.14.24.29.47.49.67.36.36.81.46,1.27.33.78-.21,1.37-1.1.9-2-.08-.16-.19-.3-.26-.46Zm38.27.29c-.06-.23-.03-.47-.08-.7-.3-1.27-1.02-2.26-2.08-3.01-.61-.43-1.27-.75-1.95-1.02-.58-.23-1.18-.43-1.79-.57-.61-.14-1.22-.28-1.83-.43-.73-.19-1.46-.37-2.16-.64-.5-.19-.99-.41-1.45-.71-.69-.45-1.07-1.07-1.15-1.86-.06-.66-.05-1.32.34-1.92.18-.28.36-.55.61-.76.76-.62,1.66-.93,2.63-.99.54-.04,1.09-.04,1.64.03.39.05.78.1,1.16.19.68.16,1.32.43,1.93.76.44.24.85.53,1.27.8.25.16.54.28.84.23.27-.05.54-.13.78-.32.29-.23.45-.52.51-.86.09-.59-.18-1.04-.65-1.38-.75-.54-1.56-.98-2.42-1.33-.6-.24-1.22-.42-1.86-.54-.3-.05-.6-.09-.91-.13-.32-.04-.64-.1-.97-.11-.8-.03-1.6.01-2.4.17-.69.13-1.35.35-1.98.64-.39.18-.75.42-1.1.67-.44.31-.84.67-1.15,1.11-.3.42-.59.85-.77,1.35-.23.62-.38,1.26-.4,1.92-.02.45.05.89.11,1.33.09.66.34,1.25.69,1.8.27.43.59.8.99,1.13.34.28.69.52,1.07.73.62.34,1.27.62,1.95.82.49.15.97.32,1.46.44.53.14,1.07.24,1.6.36.5.12.99.23,1.48.37.65.19,1.29.42,1.86.79.57.36,1.02.82,1.19,1.48.17.63.18,1.28.01,1.91-.14.53-.44.99-.86,1.35-.76.65-1.68.98-2.67,1.05-.87.06-1.75.07-2.62-.1-.7-.13-1.37-.31-2.02-.59-.96-.43-1.83-.99-2.63-1.67-.26-.22-.57-.35-.88-.35-.27,0-.55.09-.79.27-.46.34-.8,1.09-.45,1.76.15.28.37.46.6.63.41.3.83.59,1.26.86.33.21.67.41,1.02.58.4.2.82.38,1.24.53.4.15.82.28,1.23.38.48.11.95.23,1.45.26.35.02.7.08,1.06.11.19.02.38,0,.57,0,0,0,0,.02,0,.03.39-.03.77-.06,1.16-.08.45-.02.89-.13,1.33-.23.41-.1.8-.25,1.19-.41.65-.26,1.23-.61,1.76-1.06.68-.59,1.22-1.28,1.58-2.12.31-.71.45-1.46.48-2.23,0-.24.02-.47-.05-.71Zm-19.83-5.99c-.07-.52-.22-1.01-.36-1.51-.23-.79-.59-1.52-.97-2.23-.12-.23-.27-.44-.5-.61-.5-.36-1.03-.37-1.49-.12-.59.33-1.01,1.14-.58,1.9.29.51.56,1.03.75,1.59.25.77.43,1.55.44,2.36,0,.14,0,.28,0,.42.04.56-.02,1.11-.13,1.65-.17.79-.44,1.54-.82,2.26-.36.68-.8,1.29-1.32,1.84-.21.21-.45.4-.66.6-.37.36-.81.63-1.25.88-.61.36-1.26.62-1.95.81-.5.14-1.02.24-1.54.26-.57.02-1.16.07-1.73-.05-.3-.06-.61-.06-.9-.14-.85-.23-1.67-.56-2.43-1.01-.24-.14-.52-.22-.8-.16-.24.06-.49.17-.69.31-.35.25-.54.64-.56,1.06-.02.35.13.67.37.94.21.24.48.41.76.55.34.17.69.32,1.04.49.5.24,1.02.4,1.55.53.46.12.92.22,1.39.25.4.03.8.09,1.21.11.26.01.51-.05.77-.05.38,0,.75-.06,1.12-.12.45-.07.88-.18,1.32-.3.86-.24,1.68-.59,2.46-1.04.71-.41,1.37-.89,1.98-1.44.48-.44.95-.91,1.33-1.45.27-.37.55-.75.77-1.14.26-.45.47-.93.7-1.39.21-.43.34-.89.47-1.36.15-.53.27-1.06.31-1.62.02-.35.1-.7.11-1.06.01-.31-.05-.61-.05-.92,0-.38-.07-.74-.12-1.12Z"/>
  </g>
</svg>