<?xml version="1.0" encoding="UTF-8"?>
<svg xmlns="http://www.w3.org/2000/svg" viewBox="0 0 108 108">
  <defs>
    <style>
      .cls-1 {
        fill: #282828;
      }

      .cls-1, .cls-2 {
        stroke-width: 0px;
      }

      .cls-2 {
        fill: #e9d5bd;
      }
    </style>
  </defs>
  <g id="bg">
    <circle class="cls-1" cx="54" cy="54" r="54"/>
  </g>
  <g id="icon">
    <path class="cls-2" d="m27.64,62.6c-.28,0-.56.14-.79.31v-.39s.01-.86.01-.86h-.21v2.96h.18l.02-.2h.01c.21.15.47.25.69.25.54,0,1.01-.4,1.01-1.07,0-.61-.3-1.01-.92-1.01Zm-.1,1.92c-.17,0-.42-.07-.67-.25v-1.17c.27-.21.52-.33.74-.33.53,0,.73.36.73.85,0,.54-.33.91-.8.91Zm3.09,0c-.06,0-.1-.04-.1-.13v-2.72h-.21v2.7c0,.22.1.31.28.31.07,0,.11,0,.15-.02l-.04-.15s-.07,0-.09,0Zm-1.4.11h.21v-1.98h-.21v1.98Zm6.35-9.38c1.56-1.56,3.14-3.16,4.9-4.93-3.21,0-6.14.03-9.07-.01-1.76-.02-3.19.61-4.4,1.85-2.47,2.52-4.96,5.03-7.43,7.54-.12.12-.23.26-.36.44h6.56c1.46-1.49,2.93-2.99,4.33-4.43,1.83-.73,3.65-.18,5.46-.46Zm-6.24,6.6c-.1,0-.19.06-.19.16,0,.09.09.16.19.16s.19-.07.19-.16c0-.1-.09-.16-.19-.16Zm2.1,2.78h.21v-1.98h-.21v1.98Zm6.64,0h.21v-1.98h-.21v1.98Zm-2.97-2.03c-.37,0-.69.16-.85.26l.1.13c.15-.1.42-.23.73-.23.45,0,.55.33.54.63-1.02.1-1.47.31-1.47.75,0,.37.3.54.66.54.3,0,.58-.14.81-.31h.01l.02.26h.18v-1.26c0-.42-.18-.76-.72-.76Zm.51,1.6c-.28.21-.51.32-.78.32s-.48-.11-.48-.39c0-.32.32-.5,1.26-.6v.67Zm47.15-1.18h-.01l-.02-.37h-.18v1.98h.21v-1.35c.17-.37.42-.51.62-.51.09,0,.13,0,.21.03l.05-.17c-.08-.03-.14-.04-.23-.04-.27,0-.5.18-.65.42Zm-48.94-.27v-.1h-1.48v.16h1.2l-1.35,1.72v.1h1.67v-.16h-1.4l1.35-1.72Zm59.9-.15c-.31,0-.55.15-.79.36h-.01l-.02-.31h-.18v1.98h.21v-1.49c.28-.25.47-.37.75-.37.37,0,.52.2.52.62v1.25h.21v-1.27c0-.51-.22-.76-.69-.76Zm2.18,1.92c-.31,0-.39-.17-.39-.42v-1.29h.66v-.16h-.66v-.57h-.18l-.03.57-.36.02v.14h.36v1.27c0,.35.13.6.57.6.09,0,.24-.03.37-.07l-.05-.15c-.08.03-.2.06-.29.06Zm-64.38-2.67c-.1,0-.19.06-.19.16,0,.09.09.16.19.16s.19-.07.19-.16c0-.1-.09-.16-.19-.16Zm-16.45,2.67c-.5,0-.83-.35-.83-.87s.36-.88.83-.88c.22,0,.39.09.54.21l.12-.13c-.16-.12-.36-.24-.67-.24-.56,0-1.04.38-1.04,1.04s.45,1.03,1.04,1.03c.29,0,.54-.11.73-.26l-.11-.13c-.16.13-.37.23-.61.23Zm-4.32-1.92c-.37,0-.69.16-.85.26l.1.13c.15-.1.42-.23.73-.23.45,0,.55.33.54.63-1.02.1-1.47.31-1.47.75,0,.37.3.54.66.54.3,0,.58-.14.81-.31h.01l.02.26h.18v-1.26c0-.42-.18-.76-.72-.76Zm.51,1.6c-.28.21-.51.32-.78.32s-.48-.11-.48-.39c0-.32.32-.5,1.26-.6v.67Zm1.6-.68c-.27-.09-.54-.17-.54-.4,0-.18.16-.36.52-.36.23,0,.39.08.55.18l.11-.13c-.17-.12-.41-.21-.65-.21-.48,0-.74.24-.74.53,0,.34.38.46.73.57.26.08.56.19.56.44,0,.21-.19.39-.55.39-.33,0-.53-.11-.73-.25l-.12.13c.21.15.5.27.84.27.5,0,.77-.26.77-.56,0-.39-.39-.49-.75-.6Zm-5.01,1.11h.22v-1.31h1.26v-.16h-1.26v-1.08h1.49v-.16h-1.71v2.71Zm13.3-10.23c1.65-1.63,3.32-3.23,4.96-4.87.82-.82,1.87-1.18,2.93-1.34,1.62-.23,3.27-.29,4.91-.32,2.79-.05,5.59-.01,8.18-.01,1.75-1.69,3.36-3.24,5.05-4.88-.3-.05-.47-.11-.65-.11-5.41,0-10.82-.01-16.24.03-.86,0-1.74.14-2.56.38-2.75.8-5.15,2.18-7.17,4.27-3.09,3.19-6.28,6.29-9.41,9.44-1,1-1.98,2.02-3.08,3.15h7.3c1.92-1.91,3.84-3.83,5.77-5.74Zm65-6.31c1.24-1.72,2.44-3.38,3.75-5.19-7.44,0-14.63,0-21.83,0-.23,0-.47,0-.67.08-2.64.98-5.27,1.97-7.91,2.96-1.01.38-2.02.76-3.07,1.15-.42-1.45-.81-2.78-1.21-4.15h-4.04c-1.55,1.67-3.1,3.34-4.77,5.14h39.76Zm-69.71,13.76c-.1,0-.19.06-.19.16,0,.09.09.16.19.16s.19-.07.19-.16c0-.1-.09-.16-.19-.16Zm5.76,1.66c-.08.2-.16.4-.24.6h-.02c-.08-.2-.17-.4-.25-.6l-.65-1.59h-.31v2.71h.2v-1.78c0-.22-.02-.51-.03-.73h.02l.25.61.68,1.62h.19l.68-1.62.24-.61h.02c-.01.23-.03.51-.03.73v1.78h.21v-2.71h-.31l-.65,1.59Zm-3.98-.91c-.37,0-.69.16-.85.26l.1.13c.15-.1.42-.23.73-.23.45,0,.55.33.54.63-1.02.1-1.47.31-1.47.75,0,.37.3.54.66.54.3,0,.58-.14.81-.31h.01l.02.26h.18v-1.26c0-.42-.18-.76-.72-.76Zm.51,1.6c-.28.21-.51.32-.78.32s-.48-.11-.48-.39c0-.32.32-.5,1.26-.6v.67Zm-2.4.43h.21v-1.98h-.21v1.98Zm65.66-4.49h8.13c2.09-3.08,4.21-6.2,6.41-9.44h-8.09c-2.12,3.1-4.25,6.23-6.45,9.44Zm-57.09,2.46c-.55,0-1.03.38-1.03,1.04s.48,1.03,1.03,1.03,1.03-.38,1.03-1.03-.48-1.04-1.03-1.04Zm0,1.92c-.46,0-.81-.35-.81-.87s.34-.88.81-.88.8.36.8.88-.34.87-.8.87Zm67.6-21.6c-1.16,1.83-2.28,3.61-3.44,5.46h8.07c1.12-1.8,2.23-3.59,3.39-5.46h-8.01Zm-55.29,21.6c-.31,0-.39-.17-.39-.42v-1.29h.66v-.16h-.66v-.57h-.18l-.03.57-.36.02v.14h.36v1.27c0,.35.13.6.57.6.09,0,.24-.03.37-.07l-.05-.15c-.08.03-.2.06-.29.06Zm32.31.11h.21v-1.98h-.21v1.98Zm.11-2.78c-.1,0-.19.06-.19.16,0,.09.09.16.19.16s.19-.07.19-.16c0-.1-.09-.16-.19-.16Zm-7.69,2.26c-.27.28-.46.4-.74.4-.37,0-.52-.2-.52-.62v-1.25h-.21v1.27c0,.51.22.76.69.76.32,0,.55-.15.78-.38h.01l.02.33h.18v-1.98h-.21v1.46Zm23.54,0c-.27.28-.46.4-.74.4-.37,0-.52-.2-.52-.62v-1.25h-.21v1.27c0,.51.22.76.69.76.32,0,.55-.15.78-.38h.01l.02.33h.18v-1.98h-.21v1.46Zm-21.65-1.51c-.51,0-1,.4-1,1.04s.47,1.03,1.06,1.03c.33,0,.54-.1.72-.19l-.09-.14c-.17.1-.37.18-.61.18-.51,0-.85-.36-.86-.86h1.64s.01-.1.01-.15c0-.58-.33-.92-.88-.92Zm-.78.91c.05-.47.4-.76.78-.76.41,0,.68.25.68.76h-1.46Zm8.22,1c-.31,0-.39-.17-.39-.42v-1.29h.66v-.16h-.66v-.57h-.18l-.03.57-.36.02v.14h.36v1.27c0,.35.13.6.57.6.09,0,.24-.03.37-.07l-.05-.15c-.08.03-.2.06-.29.06Zm-2.91-.59c-.06.18-.11.35-.16.53h-.02c-.06-.18-.11-.35-.17-.53l-.42-1.28h-.25l-.42,1.28c-.06.18-.11.35-.17.53h-.02c-.05-.18-.1-.35-.16-.53l-.41-1.28h-.23l.67,1.98h.26l.39-1.22c.07-.19.13-.38.18-.57h.02c.06.19.11.38.17.56l.4,1.23h.28l.65-1.98h-.21l-.4,1.28Zm3.38-13.51c-2.49,3.24-4.96,6.46-7.46,9.72h7.38c2.41-3.17,4.88-6.41,7.4-9.72h-7.31Zm5.95,12.18c-.31,0-.55.15-.79.36h-.01l-.02-.31h-.18v1.98h.21v-1.49c.28-.25.47-.37.75-.37.37,0,.52.2.52.62v1.25h.21v-1.27c0-.51-.22-.76-.69-.76Zm4.01,1.92c-.31,0-.39-.17-.39-.42v-1.29h.66v-.16h-.66v-.57h-.18l-.03.57-.36.02v.14h.36v1.27c0,.35.13.6.57.6.09,0,.24-.03.37-.07l-.05-.15c-.08.03-.2.06-.29.06Zm-1.91-1c-.27-.09-.54-.17-.54-.4,0-.18.16-.36.52-.36.23,0,.39.08.55.18l.11-.13c-.17-.12-.41-.21-.65-.21-.48,0-.74.24-.74.53,0,.34.38.46.73.57.26.08.56.19.56.44,0,.21-.19.39-.55.39-.33,0-.53-.11-.73-.25l-.12.13c.21.15.5.27.84.27.5,0,.77-.26.77-.56,0-.39-.39-.49-.75-.6Zm-6.71-.92c-.31,0-.55.15-.79.36v-.44s0-.86,0-.86h-.21v2.96h.21v-1.49c.28-.25.47-.37.75-.37.37,0,.52.2.52.62v1.25h.21v-1.27c0-.51-.22-.76-.69-.76Zm2.49,2.03h.22v-2.71h-.22v2.71Zm-16.14-1.79h-.01c-.21-.14-.41-.23-.68-.23-.55,0-1.01.4-1.01,1.04s.37,1.03.95,1.03c.3,0,.55-.14.76-.31v.39s-.01.76-.01.76h.21v-2.87h-.18l-.02.18Zm-.01,1.36c-.24.21-.46.33-.72.33-.48,0-.75-.35-.75-.87,0-.5.35-.88.8-.88.22,0,.42.07.67.25v1.17Zm-21.26-2.34c-.1,0-.19.06-.19.16,0,.09.09.16.19.16s.19-.07.19-.16c0-.1-.09-.16-.19-.16Zm6.7.23h1v2.55h.22v-2.55h1v-.16h-2.22v.16Zm3.31.52c-.51,0-1,.4-1,1.04s.47,1.03,1.06,1.03c.33,0,.54-.1.72-.19l-.09-.14c-.17.1-.37.18-.61.18-.51,0-.85-.36-.86-.86h1.64s.01-.1.01-.15c0-.58-.33-.92-.88-.92Zm-.78.91c.05-.47.4-.76.78-.76.41,0,.68.25.68.76h-1.46Zm3.13,1c-.5,0-.83-.35-.83-.87s.36-.88.83-.88c.22,0,.39.09.54.21l.12-.13c-.16-.12-.36-.24-.67-.24-.56,0-1.04.38-1.04,1.04s.45,1.03,1.04,1.03c.29,0,.54-.11.73-.26l-.11-.13c-.16.13-.37.23-.61.23Zm40.71-1.92c-.51,0-1,.4-1,1.04s.47,1.03,1.06,1.03c.33,0,.54-.1.72-.19l-.09-.14c-.17.1-.37.18-.61.18-.51,0-.85-.36-.86-.86h1.64s.01-.1.01-.15c0-.58-.33-.92-.88-.92Zm-.78.91c.05-.47.4-.76.78-.76.41,0,.68.25.68.76h-1.46Zm-50.47-.91c-.55,0-1.03.38-1.03,1.04s.48,1.03,1.03,1.03,1.03-.38,1.03-1.03-.48-1.04-1.03-1.04Zm0,1.92c-.46,0-.81-.35-.81-.87s.34-.88.81-.88.8.36.8.88-.34.87-.8.87Zm2.71-1.92c-.31,0-.55.15-.79.36h-.01l-.02-.31h-.18v1.98h.21v-1.49c.28-.25.47-.37.75-.37.37,0,.52.2.52.62v1.25h.21v-1.27c0-.51-.22-.76-.69-.76Zm14.26-.75c-.1,0-.19.06-.19.16,0,.09.09.16.19.16s.19-.07.19-.16c0-.1-.09-.16-.19-.16Zm31.96.75c-.26,0-.52.16-.78.4-.08-.24-.26-.4-.63-.4-.25,0-.52.15-.72.36h-.01l-.02-.31h-.18v1.98h.21v-1.49c.25-.25.48-.37.68-.37.35,0,.51.2.51.62v1.25h.21v-1.49c.25-.25.47-.37.68-.37.35,0,.51.2.51.62v1.25h.21v-1.27c0-.51-.23-.76-.68-.76Zm-32.07,2.03h.21v-1.98h-.21v1.98Zm-4.04-2.03c-.31,0-.55.15-.79.36v-.44s0-.86,0-.86h-.21v2.96h.21v-1.49c.28-.25.47-.37.75-.37.37,0,.52.2.52.62v1.25h.21v-1.27c0-.51-.22-.76-.69-.76Zm1.26-5.54c-.85.99-1.73,1.96-2.5,3.08h6.41c2.71-3.21,5.44-6.44,8.25-9.78h-21.1c-2.88,3.23-5.77,6.45-8.74,9.78h6.45c2.39-2.76,4.8-5.55,7.27-8.4.4,1.03.77,1.99,1.16,2.99.88-.38,1.61-.74,2.37-1.03,1.5-.58,3.01-1.12,4.51-1.67-.13.26-.23.54-.41.76-1.21,1.43-2.45,2.84-3.66,4.27Zm1.25,5.54c-.31,0-.55.15-.79.36h-.01l-.02-.31h-.18v1.98h.21v-1.49c.28-.25.47-.37.75-.37.37,0,.52.2.52.62v1.25h.21v-1.27c0-.51-.22-.76-.69-.76Z"/>
  </g>
</svg>