<?xml version="1.0" encoding="UTF-8"?>
<svg xmlns="http://www.w3.org/2000/svg" viewBox="0 0 108 108">
  <defs>
    <style>
      .cls-1 {
        fill: #282828;
      }

      .cls-1, .cls-2 {
        stroke-width: 0px;
      }

      .cls-2 {
        fill: #e9d5bd;
      }
    </style>
  </defs>
  <g id="bg">
    <circle class="cls-1" cx="54" cy="54" r="54"/>
  </g>
  <g id="icon">
    <path class="cls-2" d="m38.09,67.53c-.21,0-.41,0-.62,0q-.39,0-.39-.38c0-.26-.01-.52,0-.79.01-.23-.06-.32-.31-.31-.21,0-.36.02-.35.3.02.56,0,1.12,0,1.68h2.03s0-.09,0-.14q0-.37-.38-.37Zm5.45-1.18c-.1-.27-.36-.29-.61-.29-.49,0-.98.01-1.46,0-.25,0-.33.07-.32.32,0,.55,0,1.1-.02,1.66h.68c0-.07-.01-.15-.02-.22-.02-.18.04-.26.23-.25.17,0,.34,0,.51,0,.43,0,.46.04.41.47h.68c-.04-.26-.08-.51-.12-.77-.06-.02-.05-.04-.03-.06.22-.26.18-.57.08-.85Zm-.87.67c-.1,0-.21,0-.31,0-.11,0-.23,0-.34,0-.17.01-.25-.04-.25-.24,0-.19.08-.22.24-.22.22,0,.43,0,.65,0,.17,0,.31.04.32.23,0,.21-.15.23-.31.22Zm3.75-.65c-.12-.24-.28-.36-.55-.31-.09.01-.19-.02-.28,0-.09.02-.21.07-.25.14-.33.58-.64,1.16-.95,1.75-.01.02,0,.05.01.08h.68c.06-.25.21-.35.47-.32.21.02.43.01.65,0,.23,0,.36.07.35.32h.73c-.01-.05-.01-.11-.04-.16-.27-.5-.56-.99-.82-1.5Zm-.93.87c.12-.24.21-.42.33-.65.13.24.23.42.36.65h-.69Zm-17.12-.41c0-.55-.2-.77-.75-.79-.42-.02-.84-.02-1.27,0-.4.01-.65.16-.69.45-.08.53-.18,1.08.23,1.55h2.2c.25-.24.32-.54.28-.87-.01-.11,0-.22,0-.34Zm-.66.37c0,.26-.14.37-.39.37-.11,0-.23,0-.34,0-.07,0-.13,0-.2,0-.46,0-.51-.05-.51-.52,0-.4.07-.47.48-.47.19,0,.38,0,.56,0,.28,0,.38.11.39.4,0,.07,0,.15,0,.22Zm-7.69.09c-.2,0-.44-.11-.57.16-.03.06-.14.11-.21.11-.25.01-.51.03-.76,0-.1-.01-.26-.13-.27-.22-.05-.53-.09-.8.57-.76.13,0,.27-.02.39,0,.1.02.2.07.28.13.12.1.59.17.61.07.03-.16.01-.36-.07-.49-.06-.11-.24-.2-.37-.21-.5-.03-1.01-.05-1.52-.02-.42.03-.58.26-.58.68,0,.17.01.34,0,.51-.03.31.05.57.29.79h2.09c.08-.19.18-.38.24-.58.01-.05-.08-.18-.12-.18Zm-7.19-1.2c-.32-.12-.5,0-.5.34v.34q0,.82-.82.81c-.34,0-.43-.09-.44-.43,0-.28,0-.56,0-.84,0-.23-.14-.23-.3-.22-.15,0-.34-.04-.33.22,0,.29.02.58,0,.87-.02.35.05.65.32.89h1.92c.09-.18.25-.35.27-.53.04-.41.02-.82,0-1.24,0-.07-.06-.17-.12-.19Zm3.73.02c-.15-.02-.32-.03-.47,0-.05.01-.08.17-.08.26-.01.32,0,.65,0,.97-.03,0-.05.02-.08.03-.06-.06-.12-.12-.18-.19-.25-.31-.48-.62-.74-.92-.07-.08-.19-.16-.3-.17-.2-.03-.41-.02-.62,0-.07,0-.19.11-.19.17,0,.6,0,1.2.01,1.8h.62v-1.23s.06-.03.08-.05c.33.43.66.85.99,1.28h1.02c0-.57,0-1.15,0-1.72,0-.08-.03-.22-.06-.22Zm-7.21-.03c-.56,0-1.13,0-1.69,0-.07,0-.19.11-.19.17,0,.6,0,1.2.01,1.8h.56c0-.1.03-.2.02-.3-.03-.26.05-.38.34-.35.28.02.56,0,.84,0,.18,0,.24-.06.25-.25,0-.2-.09-.23-.26-.23-.31,0-.62,0-.93,0-.13,0-.28,0-.23-.18.02-.07.15-.15.23-.15.35-.02.69-.01,1.04,0,.17,0,.2-.09.19-.23,0-.13,0-.28-.19-.28Zm24.81-8.69v6.43c2.06-1.09,4.08-2.15,6.17-3.26-2.09-1.07-4.11-2.11-6.17-3.17Zm-2.45-6.81c-5.48,0-10.97,0-16.45,0-.25,0-.37-.03-.36-.33.02-1.31,0-2.61,0-3.92,0-.36,0-.36.36-.36,5.88,0,11.76,0,17.64,0,.27,0,.35-.07.35-.35-.01-1.81,0-3.63,0-5.44,0-.06-.01-.13-.02-.22H7.25v24.86c2.45,0,4.91,0,7.36,0,.25,0,.29-.1.29-.32,0-2.58,0-5.17,0-7.75q0-.39.39-.39c5.57,0,11.14,0,16.7,0q.37,0,.37-.37v-4.76q0-.67-.66-.67Zm.2,15.53c-.15-.02-.32-.03-.47,0-.05.01-.08.17-.08.26-.01.32,0,.65,0,.97-.03,0-.05.02-.08.03-.06-.06-.12-.12-.18-.19-.25-.31-.48-.62-.74-.92-.07-.08-.19-.16-.3-.17-.2-.03-.41-.02-.62,0-.07,0-.19.11-.19.17,0,.6,0,1.2.01,1.8h.62v-1.23s.05-.03.08-.05l.99,1.28h1.02c0-.57,0-1.15,0-1.72,0-.08-.03-.22-.06-.22Zm-8.98-.04c-.58.01-1.17.01-1.75,0-.22,0-.3.06-.3.28,0,.24.12.23.29.23.13,0,.27-.02.39,0,.06.01.16.11.16.16,0,.43,0,.86-.02,1.29h.68v-.9q0-.55.56-.56c.16,0,.29.01.29-.23,0-.23-.09-.29-.3-.29Zm27.56,0c-.27,0-.38.07-.35.35.02.15,0,.3,0,.45v.5s-.05,0-.08.01c-.21-.26-.45-.5-.62-.79-.26-.46-.64-.57-1.13-.51-.19.02-.27.07-.26.27,0,.57,0,1.14,0,1.71h.62v-1.24s.07-.02.11-.04c.32.42.64.85.96,1.27h1.07c0-.55-.03-1.1-.02-1.66,0-.24-.07-.32-.32-.33Zm-26.05.01c-.15.02-.38-.09-.38.18,0,.6.01,1.19.02,1.79h.62c0-.58,0-1.16,0-1.74,0-.19-.09-.26-.26-.24Zm10.37.34c-.13-.27-.3-.34-.59-.35-.33-.01-.53.08-.64.4-.05.14-.15.26-.21.39-.2.4-.4.8-.6,1.2h.68c.08-.26.25-.36.53-.32.17.02.35.02.53,0,.26-.03.41.07.47.32h.68c-.01-.06,0-.13-.04-.18-.26-.49-.55-.96-.79-1.46Zm-.94.84c.11-.22.2-.4.32-.65.13.24.24.42.37.65h-.69Zm53.12-1.16c-.32-.13-.49,0-.49.34,0,.25,0,.51,0,.76,0,.06-.02.13-.04.25-.26-.33-.51-.58-.68-.87-.26-.45-.63-.56-1.11-.51-.21.02-.27.09-.27.29,0,.56,0,1.13,0,1.69h.62v-1.27l.08-.03c.33.43.66.87.99,1.3h1.02c0-.57,0-1.15,0-1.72,0-.08-.06-.21-.12-.24Zm1.43-.02c-.22,0-.33.04-.32.29,0,.56,0,1.12-.02,1.69h.68c0-.56-.03-1.12-.02-1.69,0-.25-.11-.29-.32-.29Zm3.68,0c-.24,0-.32.08-.3.31.01.17,0,.34,0,.51v.51c-.29-.26-.55-.52-.72-.82-.26-.43-.61-.55-1.08-.51-.24.02-.33.07-.33.32.01.55,0,1.11-.02,1.66h.68v-1.27s.05-.02.08-.02c.33.43.66.86.99,1.29h1.02c0-.55-.01-1.11,0-1.66,0-.26-.09-.31-.33-.32Zm-12.57,0c-.21,0-.36,0-.35.29.01.56,0,1.12-.02,1.69h.68c0-.56-.01-1.13,0-1.69,0-.25-.1-.3-.32-.29Zm3.51.03c-.5-.04-1.01-.04-1.52-.05-.13,0-.28.02-.38.08-.14.09-.33.23-.34.36-.03.53-.2,1.09.22,1.55h2.2c.09-.17.24-.33.27-.51.04-.3.02-.62,0-.93-.02-.29-.18-.49-.46-.52Zm-.54,1.48c-.12,0-.24,0-.37,0h0s-.09,0-.14,0c-.53,0-.74-.27-.55-.77.04-.1.18-.2.29-.21.26-.03.53-.02.79,0,.28.02.36.16.34.59,0,.28-.11.38-.37.39Zm8.86-18.74c-.37-.01-.73,0-1.1,0-.07,0-.13.02-.27.04.13.1.19.16.26.22,1.62,1.25,3.25,2.49,4.87,3.74.14.11.24.12.39,0,1.29-.97,2.59-1.93,3.89-2.9.45-.34.9-.67,1.35-1.01,0-.03,0-.06,0-.08-.08,0-.15-.02-.23-.02-.38,0-.75-.01-1.13,0-.25.01-.33-.07-.34-.33-.06-1.05-.11-2.1-.26-3.14-.18-1.22-.67-2.32-1.62-3.17-.84-.75-1.86-1.15-2.94-1.42-1.92-.49-3.88-.6-5.85-.61-3.83-.02-7.66,0-11.48.03-1.58.02-3.15.25-4.64.81-1.66.62-2.92,1.68-3.65,3.31-.57,1.26-.79,2.6-.81,3.97-.03,2.71-.01,5.41,0,8.12,0,1.07.13,2.13.41,3.17.66,2.42,2.24,3.91,4.6,4.63,1.62.5,3.3.65,4.99.66,4.23.02,8.47.01,12.7,0,1.49,0,2.97-.12,4.41-.54,1.25-.37,2.36-.96,3.18-2.01.71-.91,1.08-1.97,1.17-3.09.09-1.22.07-2.46.11-3.68,0-.22-.1-.25-.28-.24-2.3,0-4.61,0-6.91,0-.22,0-.26.08-.27.28-.01.37-.04.75-.1,1.12-.15.89-.62,1.53-1.53,1.71-.73.14-1.49.22-2.24.23-2.82.03-5.64.02-8.47,0-.56,0-1.13-.07-1.68-.17-1.15-.22-1.92-.9-2.19-2.05-.14-.61-.23-1.24-.25-1.86-.04-1.27-.03-2.54,0-3.8.02-.61.09-1.22.23-1.81.25-1.08.92-1.83,1.98-2.2.72-.26,1.46-.34,2.22-.34,2.83,0,5.66-.02,8.49,0,.6,0,1.22.1,1.81.25.93.22,1.45.99,1.43,1.94,0,.18-.06.26-.25.25Zm4.37,18.11c-.33-.02-.66-.01-.99-.02-.13,0-.21.03-.21.19,0,.16.04.25.22.24.17,0,.35,0,.52,0,.01.03.03.07.04.1-.08.05-.16.13-.25.14-.27.02-.55.03-.82,0-.1-.01-.23-.14-.26-.24-.15-.59,0-.78.62-.78.13,0,.26,0,.4,0,.07,0,.18.01.21.06.13.2.32.15.5.16.18,0,.23-.09.21-.25-.04-.28-.21-.45-.58-.47-.45-.02-.9-.02-1.35,0-.26.01-.57.08-.61.37-.07.55-.24,1.14.22,1.62h2.15c.24-.29.17-.64.16-.97,0-.05-.12-.14-.19-.14Zm1.77-.86c-.48.12-.77.5-.79,1-.01.45.26.72.57.98h.9c.07-.06.14-.12.22-.18.36-.3.46-.83.25-1.26-.22-.43-.69-.65-1.15-.54Zm.23,1.8c-.43,0-.82-.39-.81-.81,0-.42.38-.79.8-.8.43,0,.82.37.82.8,0,.42-.39.81-.81.81Zm.41-1.25c-.1-.12-.63-.2-.74-.1-.03.03-.05.08-.05.12,0,.28-.01.56,0,.84,0,.05.08.11.12.16.03-.06.08-.11.1-.18.02-.08.01-.18.02-.29.28.08.23.49.6.44-.08-.16-.15-.29-.21-.41,0-.02,0-.03.01-.03.26-.22.3-.39.16-.56Zm-.38.42c-.09-.1-.14-.16-.2-.21.06-.05.12-.15.18-.15.08,0,.16.08.24.13-.06.06-.12.13-.22.23Zm-24.11-.23c0-.54-.21-.74-.76-.75s-1.09,0-1.64,0c-.24,0-.33.07-.32.32.01.55,0,1.11-.02,1.66h2.43c.27-.23.33-.52.31-.86,0-.12,0-.24,0-.37Zm-1.01.72c-.14,0-.28,0-.42,0-.62,0-.61,0-.63-.62,0-.27.07-.37.34-.34.24.02.49,0,.73,0,.23,0,.35.12.34.35,0,.08,0,.17,0,.25,0,.25-.12.36-.37.35Zm-6.91-2.97c-.01-1.01,0-2.03,0-3.04-.02-.83-.03-1.67-.12-2.5-.09-.86-.38-1.66-.93-2.35-.57-.72-1.35-1.12-2.22-1.37-.24-.07-.49-.13-.74-.2v-.07c.31-.1.62-.19.92-.3,1.64-.59,2.66-1.7,2.99-3.43.27-1.44.24-2.9.18-4.35-.03-.87-.14-1.74-.32-2.59-.37-1.68-1.34-2.94-2.94-3.66-1.1-.5-2.27-.73-3.48-.73-7.83,0-15.65,0-23.48,0h-.31c0,.1-.01.16-.01.23,0,5.53,0,11.07,0,16.6,0,.18.05.29.22.37,1.51.77,3.01,1.54,4.51,2.32.65.33,1.3.67,2.01,1.04-.12.07-.17.1-.23.13-1.54.81-3.07,1.62-4.61,2.44-.56.29-1.11.59-1.67.88-.22.12-1.04.44-.94.76.07.23.99.12,1.13.12,2.29,0,4.59,0,6.89,0q.37,0,.37-.37c0-1.92,0-3.83,0-5.75q0-.37.37-.37c3.79,0,7.58,0,11.37,0,.44,0,.88.03,1.32.1.8.12,1.46.48,1.74,1.28.14.39.25.82.27,1.23.04,1.19.03,2.38.03,3.58,0,.23.05.31.3.31,2.36,0,4.72,0,7.08,0,.24,0,.31-.07.3-.3Zm-7.41-14.39c-.12,1.23-.83,1.87-2.07,1.97-.29.02-.58.03-.87.03-1.89,0-3.78,0-5.67,0-2.13,0-4.25,0-6.38,0q-.38,0-.38-.37c0-1.77,0-3.53,0-5.3,0-.25.05-.34.32-.34,4.06,0,8.13,0,12.19.01.48,0,.97.1,1.45.2.79.18,1.29.7,1.38,1.49.08.76.12,1.54.04,2.3Zm8.06,16.62c0-.5-.17-.72-.67-.75-.46-.03-.92-.03-1.38,0-.27.01-.6.08-.64.4-.07.54-.23,1.12.23,1.59h2.2c.24-.25.29-.55.26-.88-.01-.12,0-.24,0-.37Zm-.65.39c0,.29-.09.38-.39.38-.11,0-.23,0-.34,0-.05,0-.09,0-.14,0-.52,0-.68-.18-.55-.69.03-.12.2-.26.32-.28.26-.04.52-.02.79-.01.21,0,.32.13.32.35,0,.08,0,.17,0,.25Zm-3.06.1c-.2.01-.46-.12-.58.19-.02.06-.16.09-.25.09-.15.01-.3,0-.45,0-.52,0-.7-.23-.54-.73.03-.11.18-.23.29-.25.25-.04.51-.02.76,0,.07,0,.15.06.2.12.1.11.57.19.6.09.05-.14.03-.33-.02-.47-.04-.1-.19-.21-.3-.21-.56-.03-1.12-.06-1.68-.03-.34.02-.5.25-.52.6-.01.2,0,.39,0,.59-.02.31.06.57.31.77h2.09c.08-.2.16-.39.22-.59.01-.04-.08-.17-.12-.17Zm-5.7.28c-.31,0-.62.01-.93,0-.07,0-.14-.1-.21-.15.07-.04.14-.12.21-.13.35-.01.7,0,1.04,0,.15,0,.25-.03.25-.22s-.09-.24-.26-.24c-.34,0-.68.01-1.02,0-.08,0-.15-.09-.23-.14.07-.04.14-.12.22-.12.37-.01.73-.02,1.1,0,.2,0,.24-.07.24-.25,0-.18-.06-.25-.25-.25-.56.01-1.13.01-1.69,0-.22,0-.27.09-.27.29,0,.56,0,1.13,0,1.69h2.26q0-.47-.47-.47Zm12.71-1.51c-.25,0-.34.09-.31.33.02.17,0,.34,0,.51v.44s-.06,0-.09.01c-.3-.37-.58-.75-.9-1.11-.08-.09-.23-.15-.35-.17-.17-.03-.36-.02-.53,0-.08.01-.2.11-.2.17,0,.6,0,1.2.01,1.8h.56v-1.27s.06-.02.1-.03c.12.15.24.29.36.45.21.28.41.57.62.86h1.07c0-.54-.01-1.09,0-1.63.01-.27-.08-.35-.35-.35Zm5.23,0c-.21,0-.36,0-.35.29.01.56,0,1.12-.02,1.69h.68c0-.56-.01-1.13,0-1.69,0-.25-.1-.3-.32-.29Zm-20.81.86c-.3,0-.6,0-.9,0-.14,0-.29-.02-.28.21,0,.2.11.23.27.22.15,0,.3,0,.45,0,0,.04.02.07.02.11-.08.04-.16.12-.24.13-.27.02-.55.02-.82,0-.09,0-.23-.13-.25-.21-.04-.18-.05-.38,0-.55.03-.1.18-.23.28-.24.26-.04.53-.02.79,0,.07,0,.16.03.2.08.16.25.39.09.59.11.02,0,.08-.11.08-.17-.02-.27-.15-.49-.44-.5-.56-.02-1.12-.02-1.68,0-.24.01-.43.18-.45.43-.05.52-.17,1.07.24,1.52h2.14c.24-.26.2-.59.21-.91,0-.16-.06-.22-.21-.21Zm24.02-.86c-.59.01-1.19,0-1.78,0-.2,0-.31.03-.32.27,0,.25.13.25.3.24.1,0,.21,0,.31,0,.2-.02.26.06.26.26,0,.4.01.8.02,1.21h.62c0-.28,0-.56,0-.85,0-.6,0-.61.6-.62.2,0,.26-.06.26-.26,0-.2-.07-.26-.27-.25Z"/>
  </g>
</svg>