<?xml version="1.0" encoding="UTF-8"?>
<svg xmlns="http://www.w3.org/2000/svg" viewBox="0 0 108 108">
  <defs>
    <style>
      .cls-1 {
        fill: #282828;
      }

      .cls-1, .cls-2 {
        stroke-width: 0px;
      }

      .cls-2 {
        fill: #e9d5bd;
      }
    </style>
  </defs>
  <g id="bg">
    <circle class="cls-1" cx="54" cy="54" r="54"/>
  </g>
  <g id="icon">
    <path class="cls-2" d="m70.62,21.06c.26.42.55.83.85,1.23.29.38.61.76.94,1.1.27.28.59.51.89.75.38.3.74.63,1.15.88.46.28.97.47,1.45.72.62.32,1.27.33,1.9.11.27-.09.53-.33.71-.57.34-.46.4-1.02.38-1.65.08-.77-.28-1.5-.56-2.22-.32-.8-.75-1.56-1.21-2.29-.79-1.29-1.81-2.39-3.02-3.32-.77-.59-1.61-1.03-2.55-1.32-.76-.23-1.55-.13-2.07.48-.18.21-.35.47-.4.72-.25,1.36.03,2.64.68,3.85.27.51.55,1.02.85,1.51Zm-45.41,57.88c-.6,0-1.2,0-1.79-.01-.27,0-.34.14-.34.39,0,2.4,0,4.81,0,7.21h0c0,2.4,0,4.81,0,7.21,0,.28.12.38.38.38.46,0,.93,0,1.39,0,.8.01.81.01.81-.8,0-4.65,0-9.3,0-13.95,0-.36-.06-.43-.44-.43ZM45.91,13.48c-.17-.12-.29-.22-.43-.28-.59-.25-1.18-.48-1.77-.75-.29-.13-.54-.12-.82,0-1.98.93-3.89,2-5.68,3.26-.17.12-.33.28-.49.42.02.01.03.02.05.04,3.01-.89,6.02-1.78,9.13-2.7Zm43.3,80.22c-.61-1.09-1.23-2.18-1.83-3.27-1.22-2.19-2.43-4.37-3.64-6.56-.85-1.54-1.71-3.07-2.56-4.61-.13-.23-.3-.35-.57-.33-.34.02-.68,0-1.02,0h0c-.24,0-.48.03-.71,0-.51-.08-.76.13-.99.58-.81,1.55-1.66,3.07-2.5,4.6-.83,1.51-1.65,3.03-2.48,4.54-.93,1.7-1.87,3.39-2.81,5.09-.14.25-.08.36.2.37.63,0,1.26,0,1.89-.02.13,0,.31-.11.37-.23.55-1.02,1.09-2.05,1.61-3.09.15-.31.36-.42.69-.42.99.02,1.99.01,2.98.01,2.14,0,4.29,0,6.43,0,.25,0,.42.06.54.3.51,1.02,1.05,2.02,1.55,3.04.15.3.35.41.66.4.65-.01,1.31,0,1.96-.01.32,0,.38-.12.22-.4Zm-5.92-5.31c-.17.02-.34,0-.51,0-2.29,0-4.58,0-6.87,0-.31,0-.38-.12-.24-.39.84-1.59,1.69-3.18,2.54-4.77.37-.7.74-1.39,1.11-2.09.05-.09.11-.16.22-.3.14.21.27.36.35.52.94,1.77,1.87,3.54,2.8,5.32.25.47.49.94.75,1.4.1.19.03.28-.16.3Zm-39.61-1.86c-.2-.1-.4-.18-.61-.27,0-.04,0-.07,0-.11.1-.04.19-.08.29-.11,1.03-.3,1.57-.91,1.63-1.98.06-.92.06-1.85,0-2.77-.07-1.08-.6-1.96-1.83-2.22-.39-.08-.81-.12-1.21-.13-3.94-.01-7.88,0-11.82-.01-.6,0-.59,0-.59.6,0,4.71,0,9.41,0,14.12,0,.41.04.46.47.46,3.52,0,7.04.01,10.56,0,.73,0,1.47-.08,2.19-.2,1.42-.24,2.27-1.18,2.33-2.54.04-.82.04-1.65,0-2.47-.05-1.03-.46-1.87-1.43-2.36Zm-11.54-5.01c0-.46.05-.52.5-.52,1.41,0,2.82,0,4.23,0h0c1.35,0,2.71-.02,4.06,0,1.21,0,1.49.29,1.48,1.48,0,.6,0,1.2-.05,1.79-.03.44-.38.77-.82.81-.37.04-.74.06-1.11.06-2.58,0-5.17,0-7.75,0-.51,0-.55-.05-.54-.56.01-1.02,0-2.03.01-3.05Zm10.34,9.32c-.01.76-.64,1.1-1.24,1.11-.79.02-1.58.02-2.37.02-.65,0-1.31,0-1.96,0h0c-1.42,0-2.85,0-4.27,0-.47,0-.51-.06-.51-.53,0-1.24,0-2.48,0-3.73,0-.52.03-.57.54-.57,2.56,0,5.13,0,7.69,0,.36,0,.72,0,1.08.05.58.07,1,.49,1.03,1.08.04.85.03,1.71.01,2.57Zm24.42-11.87c-.53,0-1.06,0-1.59-.01-.23,0-.42.07-.55.27-.3.42-.59.84-.89,1.26-.49.7-.99,1.39-1.47,2.09-.48.69-.94,1.4-1.41,2.09-.41.6-.85,1.18-1.26,1.78-.47.67-.92,1.36-1.39,2.03-.06.09-.14.16-.22.26-.29-.36-.55-.68-.8-1.01-.88-1.17-1.74-2.35-2.62-3.53-1.25-1.68-2.51-3.35-3.77-5.03-.12-.16-.25-.23-.45-.23-.45,0-.9,0-1.35,0-.43,0-.48.04-.48.49,0,3.94,0,7.88,0,11.82,0,.84,0,1.67,0,2.51,0,.26.1.38.36.38.49,0,.97,0,1.46,0,.33,0,.38-.06.38-.41,0-.4,0-.79-.01-1.19-.02-3.34-.03-6.68-.04-10.02,0-.08.03-.16.06-.31.11.14.17.22.23.3.65.93,1.28,1.88,1.94,2.8,1,1.39,2.03,2.76,3.05,4.14.52.7,1.04,1.39,1.56,2.08.14.18.57.31.69.19.21-.21.4-.43.58-.67.33-.46.64-.93.97-1.4.34-.48.69-.96,1.03-1.45.35-.5.69-1.02,1.04-1.52.35-.49.71-.97,1.06-1.46.26-.36.5-.73.75-1.1.24-.35.48-.7.71-1.05.14-.22.28-.43.43-.65.03,0,.06.01.09.02.02.09.06.18.06.27-.02,1.64-.06,3.27-.07,4.91-.01,2.03,0,4.06,0,6.1,0,.24.04.42.35.42.53,0,1.06,0,1.59,0,.38,0,.43-.05.43-.43,0-3.94,0-7.88,0-11.82,0-.81,0-1.62.01-2.44,0-.38-.07-.46-.44-.47Zm5.7-13.68c.21-.21.42-.41.61-.64.38-.45.76-.91,1.13-1.37.45-.55.91-1.09,1.34-1.66.33-.44.63-.9.94-1.36.38-.56.79-1.1,1.13-1.68.44-.74.83-1.51,1.25-2.26.03-.06.12-.09.26-.18,0,.19.02.3,0,.41-.15.73-.28,1.47-.47,2.19-.26.98-.53,1.96-.84,2.93-.25.8-.55,1.58-.85,2.36-.2.51-.45,1.01-.68,1.51-.31.69-.62,1.37-.93,2.06-.15.35-.3.7-.45,1.05.04.03.08.07.12.1.46-.34.92-.67,1.37-1.01.26-.2.51-.43.75-.66.47-.44.95-.87,1.4-1.33.39-.39.75-.81,1.11-1.22.37-.43.74-.86,1.11-1.29.31-.37.64-.72.93-1.11.33-.45.63-.94.94-1.41.36-.55.78-1.07,1.08-1.65.61-1.16,1.15-2.35,1.73-3.52.64-1.3,1.04-2.69,1.48-4.07.08-.25.13-.5.19-.75.27-1.21.57-2.4.78-3.62.17-1.02.26-2.05.31-3.09.06-1.36.15-2.73.05-4.08-.12-1.58-.42-3.15-.66-4.71-.08-.54-.19-1.07-.34-1.59-.23-.77-.37-1.57-.71-2.32-.4-.88-.63-1.84-1-2.74-.33-.8-.7-1.59-1.13-2.34-.74-1.29-1.54-2.54-2.31-3.81,0-.01-.02-.02-.03-.03-.56-.78-1.13-1.56-1.68-2.35-.38-.55-.91-.94-1.4-1.37-.04.02-.08.05-.12.07.08.21.18.42.25.64.28.89.57,1.78.82,2.68.44,1.58.49,3.15-.14,4.72-.22.54-.58.9-1,1.23-.25.19-.54.38-.84.44-.93.19-1.77-.17-2.58-.57-.35-.17-.72-.34-1.02-.58-.51-.39-.99-.83-1.47-1.26-.44-.39-.86-.8-1.29-1.2-.18-.18-.37-.36-.53-.55-.4-.47-.77-.96-1.19-1.41-.7-.76-1.42-1.52-2.16-2.25-.66-.65-1.34-1.27-2.04-1.88-.43-.38-.9-.72-1.36-1.07-.78-.6-1.54-1.24-2.36-1.78-.99-.64-2.03-1.2-3.05-1.79-.34-.19-.7-.35-1.05-.52-.63-.31-1.25-.64-1.88-.93-.71-.33-1.44-.64-2.17-.91-.76-.28-1.54-.52-2.32-.75-.96-.29-1.93-.55-2.9-.81-.59-.15-1.19-.27-1.79-.39-.33-.07-.67-.11-1.01-.14-.13-.01-.26.05-.4.07,0,.04-.01.07-.02.1.1.08.19.18.3.23.49.22,1,.41,1.49.64.55.25,1.1.52,1.64.8.4.2.78.43,1.17.64.44.24.89.45,1.32.71.69.43,1.36.88,2.04,1.33.22.15.42.33.63.48.58.42,1.19.8,1.73,1.27.85.73,1.64,1.52,2.48,2.27,1.42,1.28,2.66,2.72,3.83,4.23.34.45.72.88,1.02,1.36.56.86,1.09,1.74,1.62,2.63.46.77.95,1.52,1.32,2.33.59,1.27,1.19,2.54,1.67,3.87.51,1.42.97,2.85,1.29,4.33.29,1.34.52,2.7.72,4.05.16,1.05.29,2.11.33,3.17.1,3.08-.09,6.15-.76,9.17-.26,1.18-.5,2.36-.83,3.53-.26.94-.62,1.85-.94,2.77-.07.2-.14.41-.23.6-.2.44-.4.88-.6,1.33-.25.55-.48,1.12-.76,1.65-.43.82-.88,1.63-1.36,2.43-.37.62-.78,1.23-1.2,1.82-.38.55-.78,1.1-1.19,1.63-.61.78-1.22,1.56-1.85,2.32-.41.49-.86.96-1.3,1.42-.24.25-.52.47-.78.71-.24.23-.48.46-.73.69-.34.3-.68.61-1.03.89-.15.12-.3.2-.13.45.12-.02.26-.02.38-.07.39-.14.78-.3,1.16-.45.59-.22,1.2-.42,1.77-.67.55-.24,1.07-.55,1.61-.81.48-.23.97-.44,1.45-.67.06-.03.12-.07.17-.1.38-.25.75-.52,1.14-.76.9-.58,1.82-1.14,2.72-1.73.27-.17.53-.37.77-.58.52-.43,1.03-.87,1.54-1.3.66-.56,1.34-1.11,1.99-1.69.52-.47.99-.98,1.48-1.47Zm-18.5,8.77c.77-.73,1.59-1.41,2.32-2.18,1.01-1.07,1.95-2.19,2.91-3.31.07-.09.08-.36,0-.42-.48-.42-.95-.83-1.67-.81-2.48.07-4.96.1-7.43.16-.31,0-.47-.09-.61-.35-.69-1.37-.99-2.85-1.28-4.33-.06-.28.03-.42.35-.44,1.32-.1,2.6-.39,3.77-.98,1.03-.52,2.02-1.12,2.98-1.76.45-.3.82-.34,1.28-.14.15.07.37.05.53,0,.46-.16.88-.44,1.35-.54.74-.17,1.5-.26,2.26-.34.16-.02.38.14.49.28.05.06-.09.29-.17.43-.07.13-.19.23-.28.35-.32.44-.31.62.16.93.43.28.89.53,1.34.77.37.19.51.13.71-.26.19-.39.34-.8.57-1.17.22-.36.47-.74.79-1.01.5-.42.53-1,.7-1.53-.04-.03-.08-.06-.11-.1-.12.07-.24.16-.38.19-.14.04-.35.08-.44,0-.41-.33-.89-.64-1.15-1.08-.65-1.08-1.63-1.77-2.66-2.42-.39-.25-.79-.49-1.17-.74-.08-.05-.17-.16-.17-.24.01-.27.86-.61,1.06-.42.36.33.71.67,1.03,1.04.22.25.4.32.73.13.33-.19.78-.44,1.08-.35.85.26,1.67.66,2.47,1.05.4.2.48.22.55-.24.25-1.49.56-2.97.71-4.47.44-4.33.07-8.6-1.08-12.79-.28-1.02-.62-2.03-.94-3.04-.07-.22-.16-.44-.46-.43-.58.02-1.17.05-1.74,0-.59-.04-1.04.1-1.32.66-.05.09-.33.18-.38.14-.1-.1-.19-.29-.17-.43.03-.21.16-.4.24-.6.18-.42.49-.67.96-.71.58-.05,1.16-.11,1.75-.16.36-.03.47-.13.34-.41-.46-1-.94-1.99-1.43-2.98-.05-.11-.28-.22-.39-.19-.76.18-1.51.38-2.25.59-.33.1-.33.2-.19.51.19.42.4.84.49,1.29.21,1.01.08,1.19-.91,1.41-.03,0-.05.01-.08.02-.47.1-.54.03-.58-.44-.05-.77-.12-1.55-.47-2.26-.21-.42-.53-.6-1-.54-.84.11-1.67.21-2.51.33-.12.02-.24.08-.43.15.14.13.2.23.29.26.34.12.68.26,1.04.33.29.06.55.1.72.44-.36.19-.7.38-1.05.56-.26.13-.26.3-.13.53.25.42.51.84.69,1.29.3.76.53,1.56-.03,2.29-.32.42-.68.82-1.1,1.15-1.74,1.36-3.72,2.23-5.86,2.79-.29.08-.48.03-.63-.27-.14-.3-.35-.56-.59-.94-.51.45-.96.83-1.39,1.24-.2.19-.21.45-.08.72.23.46.49.92.66,1.4.26.74.5,1.5.65,2.26.11.57-.03.7-.56.93-.4.17-.81.33-1.2.51-.51.23-.53.22-.87-.21-.57-.71-1.15-1.42-1.74-2.1-.26-.3-.44-.25-.59.13-.26.69-.34,1.4-.27,2.13.04.42.16.79.44,1.12.64.77,1.18,1.6,1.4,2.6.02.11.03.23.06.46-.33-.1-.62-.1-.78-.25-.3-.28-.6-.61-.76-.98-.31-.68-.48-1.42-.78-2.1-.21-.48-.19-.94-.16-1.43.05-.87.07-1.74.04-2.61-.01-.43-.14-.85-.25-1.28-.07-.3-.26-.36-.52-.18-.17.12-.33.24-.51.34-.32.18-.44.11-.47-.25-.04-.41-.08-.81-.14-1.22-.13-.76-.37-1.48-.83-2.11-.17-.23-.34-.42-.68-.22-1.67.97-3.28,2.04-4.82,3.21-.22.17-.36.37-.38.68-.06.66-.18,1.32-.25,1.98-.07.63-.57.87-.97,1.21-.07-.06-.11-.08-.13-.11-.09-.15-.19-.3-.26-.46-1.05-2.47-1.73-5.04-2.18-7.68-.08-.44-.14-.53-.55-.56-1.3-.08-2.57-.26-3.76-.83-.17-.08-.34-.09-.4.12-.08.26-.11.54-.18.9.24-.05.38-.06.51-.11.55-.21.64-.19.91.35.07.13.12.27.2.4.14.24.11.47-.05.69-.47.63-.89,1.32-1.44,1.87-.55.55-.76,1.13-.79,1.9-.12,3.98.42,7.85,1.68,11.62.71,2.13,1.64,4.15,2.78,6.08,1.21,2.06,2.63,3.96,4.28,5.7,2.2,2.33,4.67,4.3,7.45,5.91,1.94,1.13,3.98,2.03,6.09,2.74,2.4.8,4.87,1.26,7.39,1.49.3.03.52-.04.74-.24Zm-21.08-28.61c-.06.04-.26.01-.28-.04-.05-.11-.06-.26-.03-.37.06-.23.16-.44.24-.66.06,0,.12,0,.18,0,.07.25.18.5.19.75,0,.11-.17.25-.3.33Zm11.52,7.97s-.06.09-.1.13c-.03.03-.07.03-.14.06-.17-.21-.37-.42-.53-.64-1.07-1.47-2.14-2.94-3.21-4.41-.19-.26-.38-.53-.56-.8-.24-.37-.19-.5.24-.57.34-.06.61.04.83.3.95,1.15,1.91,2.29,2.87,3.44.19.23.34.49.53.72.47.58.31,1.17.08,1.77Zm11.99,3.61c-.3.07-.61.09-.98.13-.34-.06-.72-.12-1.1-.2-.09-.02-.15-.12-.23-.18.08-.06.15-.16.23-.16.69-.01,1.38-.01,2.06,0,.11,0,.22.11.32.17-.1.08-.19.22-.31.24Zm-1.72-19.4s.21-.07.25-.03c.09.08.13.21.21.36-.13.27-.24.54-.4.79-.05.08-.24.16-.31.12-.1-.05-.22-.23-.19-.31.11-.32.27-.63.44-.93Zm-.77,4.69c.12-.48.2-.98.58-1.4.35.26.5.59.44.97-.06.39-.17.77-.3,1.14-.1.27-.08.45.15.64.8.66,1.51,1.41,2,2.34.37.71.44,1.46.03,2.18-.31.56-.67.62-1.16.22-.18-.15-.35-.3-.5-.47-.16-.19-.16-.36.12-.47.19-.07.38-.16.54-.27.64-.44.75-.91.25-1.51-.45-.55-.96-1.08-1.53-1.51-.67-.51-.82-1.12-.62-1.87Zm-.92,8.85c.82-.05,1.65-.06,2.48-.07.07,0,.14.09.24.15-.24.29-.54.33-.83.33-.38,0-.76-.05-1.14-.04-.52,0-.69.2-.52.69.16.47.37.94.61,1.38.16.29.11.44-.15.6-.39.25-.78.48-1.33.56-.02-.33-.08-.58-.05-.83.1-.8.21-1.59.36-2.38.03-.15.22-.37.34-.38Zm-5.86-1.05c.87-.47,1.72-.98,2.56-1.51.56-.36,1.08-.77,1.61-1.17.16-.12.28-.14.41.04.16.21.33.4.48.6.18.23.19.41-.1.6-.75.49-.76.51-.4,1.33.15.33.15.6-.07.91-.5.71-.97,1.44-1.46,2.16-.07.11-.22.16-.38.26-.45-.25-.89-.47-1.3-.73-.73-.47-1.2-1.17-1.57-1.94-.12-.25-.08-.39.2-.54Zm-2.08,4.4c-.32-.22-.32-.27,0-.5.32-.24.6-.22.94-.06,1.11.53,2.24,1.03,3.36,1.56.11.05.16.21.24.32-.08.06-.16.11-.21.14-.67-.16-1.29-.27-1.88-.47-.83-.28-1.7-.49-2.44-1Z"/>
  </g>
</svg>