<?xml version="1.0" encoding="UTF-8"?>
<svg xmlns="http://www.w3.org/2000/svg" viewBox="0 0 108 108">
  <defs>
    <style>
      .cls-1 {
        fill: #282828;
      }

      .cls-1, .cls-2 {
        stroke-width: 0px;
      }

      .cls-2 {
        fill: #e9d5bd;
      }
    </style>
  </defs>
  <g id="bg">
    <circle class="cls-1" cx="54" cy="54" r="54"/>
  </g>
  <g id="icon">
    <path class="cls-2" d="m27.24,77.14h.32v-3.4h-.32v3.4Zm7.86-9.24h-2.44v.31h1.06v3.09h.32v-3.09h1.06v-.31Zm0,7.66h1.56v-.31h-1.56v-1.21h1.75v-.31h-2.07v3.4h2.14v-.31h-1.82v-1.26Zm-1.71.93l-1.95-2.76h-.26v3.4h.32v-2.76l1.94,2.76h.26v-3.4h-.31v2.76Zm-5.25-2.45h1.06v3.09h.32v-3.09h1.06v-.31h-2.44v.31Zm11.2,1.5c-.11-.07-.23-.12-.36-.16-.13-.04-.26-.08-.39-.12-.13-.04-.25-.08-.37-.12-.11-.04-.2-.11-.27-.19-.07-.08-.1-.19-.1-.32,0-.12.03-.22.08-.31.06-.09.14-.17.26-.22s.27-.08.45-.08c.13,0,.28.02.42.07.14.05.28.12.41.21l.11-.29c-.12-.09-.26-.17-.43-.22-.17-.05-.33-.08-.5-.08-.26,0-.47.04-.63.13s-.29.2-.37.34-.12.3-.12.46c0,.18.03.33.1.44.07.11.16.2.27.27.11.07.23.12.36.16.13.04.26.08.4.11.13.04.25.08.36.12s.2.11.27.19c.07.08.1.19.1.32,0,.11-.03.21-.08.3-.06.09-.14.16-.26.22-.12.05-.27.08-.46.08s-.39-.04-.57-.12c-.18-.08-.32-.18-.43-.29l-.12.28c.11.13.27.24.48.32s.42.12.65.12c.26,0,.47-.04.64-.13.17-.09.29-.2.37-.34.08-.14.12-.29.12-.46,0-.18-.03-.32-.1-.43-.07-.11-.16-.2-.27-.27Zm-10.32-4.24v-3.4h-.31v2.76l-1.95-2.76h-.26v3.4h.32v-2.76l1.94,2.76h.26Zm10.51-2.94c-.14-.16-.31-.28-.5-.36-.19-.09-.4-.13-.63-.13s-.44.04-.63.13c-.19.09-.36.21-.5.36s-.25.34-.33.55-.12.44-.12.69.04.48.12.69.19.39.33.55.31.28.5.36.41.13.63.13.44-.04.63-.13c.19-.09.36-.21.5-.36.14-.16.25-.34.33-.55.08-.21.12-.44.12-.69s-.04-.48-.12-.69c-.08-.21-.19-.39-.33-.55Zm.04,1.8c-.06.17-.15.32-.27.45-.11.13-.25.23-.4.3-.15.07-.32.1-.5.1s-.35-.04-.5-.1c-.16-.07-.29-.17-.41-.3s-.2-.28-.27-.45-.1-.36-.1-.56.03-.39.1-.56c.06-.17.15-.32.27-.45.12-.13.25-.23.41-.3.16-.07.32-.1.5-.1s.35.04.5.1c.15.07.29.17.4.3.11.13.2.28.27.45.06.17.09.36.09.56s-.03.39-.09.56Zm-26.48-2.26h-.32v3.4h.32v-3.4Zm16.52,3.4h.33l.36-.91h1.69l.36.91h.34l-1.38-3.4h-.32l-1.38,3.4Zm2.26-1.2h-1.45l.73-1.83.73,1.83Zm-17.45-2.2h-.26v3.4h.32v-2.76l1.94,2.76h.26v-3.4h-.31v2.76l-1.95-2.76Zm3.5-37.07h-4.87v32.67h4.87V30.83Zm18.09,40.47v-3.4h-.32v3.4h.32Zm47.16-7.81l1.62-6.72h8.65l1.51,6.72h5.32l-8.31-32.67h-5.54l-8.38,32.67h5.13Zm5.97-25.2l2.93,12.85h-5.96l3.03-12.85Zm-62.31,13.45h4.98c2.6,0,4.6-.8,6-2.39,1.4-1.6,2.1-4.32,2.1-8.18,0-3.53-.7-6.14-2.1-7.82-1.4-1.68-3.28-2.53-5.64-2.53h-10.22v32.67h4.87v-11.75Zm0-15.25h4.57c1.16,0,2.06.36,2.7,1.09.64.72.96,1.94.96,3.63s-.32,2.94-.96,3.72c-.65.78-1.55,1.17-2.71,1.17h-4.57v-9.62Zm-2.16,33.7l.69,1.1h.35l-.74-1.18s.08-.02.12-.04c.18-.09.33-.23.42-.4.1-.17.15-.38.15-.62s-.05-.46-.15-.63c-.1-.17-.24-.31-.42-.4-.18-.09-.4-.14-.66-.14h-1.13v3.4h.32v-1.08h.81c.09,0,.16-.01.24-.02Zm-1.05-.28v-1.71h.8c.3,0,.53.07.69.22s.24.36.24.63-.08.48-.24.63-.39.22-.69.22h-.8Zm-1.99,4.03c-.24-.14-.53-.22-.85-.22h-1.23v3.4h1.23c.32,0,.6-.07.85-.22s.43-.34.57-.6c.14-.26.2-.55.2-.88s-.07-.63-.2-.88c-.13-.26-.32-.46-.57-.6Zm.29,2.21c-.11.21-.26.37-.46.49-.2.12-.43.18-.7.18h-.89v-2.78h.89c.27,0,.5.06.7.18.2.12.35.28.46.49s.16.45.16.72-.05.51-.16.72Zm-1.28-6.43h1.56v-.31h-1.56v-1.21h1.75v-.31h-2.07v3.4h2.14v-.31h-1.82v-1.26Zm3.78,7.41h.32v-1.44h1.56v-.31h-1.56v-1.34h1.75v-.31h-2.07v3.4Zm-10.75-3.4l-1.38,3.4h.33l.36-.91h1.69l.36.91h.34l-1.38-3.4h-.32Zm-.57,2.2l.73-1.83.73,1.83h-1.45Zm6.63-8.04h-2.44v.31h1.06v3.09h.32v-3.09h1.06v-.31Zm-1.56,8.6l-1.95-2.76h-.26v3.4h.32v-2.76l1.94,2.76h.26v-3.4h-.31v2.76Zm37.8-2.54c-.24-.14-.53-.22-.85-.22h-1.23v3.4h1.23c.32,0,.6-.07.85-.22s.43-.34.57-.6c.14-.26.2-.55.2-.88s-.07-.63-.2-.88c-.13-.26-.32-.46-.57-.6Zm.29,2.21c-.11.21-.26.37-.46.49-.2.12-.43.18-.7.18h-.89v-2.78h.89c.27,0,.5.06.7.18.2.12.35.28.46.49s.16.45.16.72-.05.51-.16.72Zm9.17-4.95c.19-.09.36-.21.5-.36.14-.16.25-.34.33-.55.08-.21.12-.44.12-.69s-.04-.48-.12-.69c-.08-.21-.19-.39-.33-.55-.14-.16-.31-.28-.5-.36-.19-.09-.4-.13-.63-.13s-.44.04-.63.13c-.19.09-.36.21-.5.36s-.25.34-.33.55-.12.44-.12.69.04.48.12.69.19.39.33.55.31.28.5.36.41.13.63.13.44-.04.63-.13Zm-1.54-.59c-.12-.13-.2-.28-.27-.45s-.1-.36-.1-.56.03-.39.1-.56c.06-.17.15-.32.27-.45.12-.13.25-.23.41-.3.16-.07.32-.1.5-.1s.35.04.5.1c.15.07.29.17.4.3.11.13.2.28.27.45.06.17.09.36.09.56s-.03.39-.09.56c-.06.17-.15.32-.27.45-.11.13-.25.23-.4.3-.15.07-.32.1-.5.1s-.35-.04-.5-.1c-.16-.07-.29-.17-.41-.3Zm10.39-2.71h-.32v3.4h2.01v-.31h-1.69v-3.09Zm3.05.31h1.06v3.09h.32v-3.09h1.06v-.31h-2.44v.31Zm.05-24.08h-10.3v-7.51h11.77v-5.74h-16.64v32.62h4.87v-13.7h10.3v-5.67Zm-7.99,26.53l-1.95-2.76h-.26v3.4h.32v-2.76l1.94,2.76h.26v-3.4h-.31v2.76Zm-3.78,4.98l-1.04-1.91h-.34l1.21,2.23v1.18h.32v-1.18l1.21-2.23h-.32l-1.04,1.91Zm16.55-5.56c.18-.09.33-.23.42-.4.1-.17.15-.38.15-.62s-.05-.46-.15-.63c-.1-.17-.24-.31-.42-.4-.18-.09-.4-.14-.66-.14h-1.13v3.4h.32v-1.08h.81c.09,0,.16-.01.24-.02l.69,1.1h.35l-.74-1.18s.08-.02.12-.04Zm-.67-.17h-.8v-1.71h.8c.3,0,.53.07.69.22s.24.36.24.63-.08.48-.24.63-.39.22-.69.22Zm-9.81-2.02l-1.38,3.4h.33l.36-.91h1.69l.36.91h.34l-1.38-3.4h-.32Zm-.57,2.2l.73-1.83.73,1.83h-1.45Zm25.4-.02c.18-.09.33-.23.42-.4.1-.17.15-.38.15-.62s-.05-.46-.15-.63c-.1-.17-.24-.31-.42-.4-.18-.09-.4-.14-.66-.14h-1.13v3.4h.32v-1.08h.81c.09,0,.16-.01.24-.02l.69,1.1h.35l-.74-1.18s.08-.02.12-.04Zm-.67-.17h-.8v-1.71h.8c.3,0,.53.07.69.22s.24.36.24.63-.08.48-.24.63-.39.22-.69.22Zm-3.78-.19h1.56v-.31h-1.56v-1.21h1.75v-.31h-2.07v3.4h2.14v-.31h-1.82v-1.26Zm-7.59-1.83l-1.38,3.4h.33l.36-.91h1.69l.36.91h.34l-1.38-3.4h-.32Zm-.57,2.2l.73-1.83.73,1.83h-1.45Zm15.61-.4c-.11-.07-.23-.12-.36-.16-.13-.04-.26-.08-.39-.12-.13-.04-.25-.08-.37-.12-.11-.04-.2-.11-.27-.19-.07-.08-.1-.19-.1-.32,0-.12.03-.22.08-.31.06-.09.14-.17.26-.22s.27-.08.45-.08c.13,0,.28.02.42.07.14.05.28.12.41.21l.11-.29c-.12-.09-.26-.17-.43-.22-.17-.05-.33-.08-.5-.08-.26,0-.47.04-.63.13s-.29.2-.37.34-.12.3-.12.46c0,.18.03.33.1.44.07.11.16.2.27.27.11.07.23.12.36.16.13.04.26.08.4.11.13.04.25.08.36.12s.2.11.27.19c.07.08.1.19.1.32,0,.11-.03.21-.08.3-.06.09-.14.16-.26.22-.12.05-.27.08-.46.08s-.39-.04-.57-.12c-.18-.08-.32-.18-.43-.29l-.12.28c.11.13.27.24.48.32s.42.12.65.12c.26,0,.47-.04.64-.13.17-.09.29-.2.37-.34.08-.14.12-.29.12-.46,0-.18-.03-.32-.1-.43-.07-.11-.16-.2-.27-.27Zm-9.16.95l-1.95-2.76h-.26v3.4h.32v-2.76l1.94,2.76h.26v-3.4h-.31v2.76Zm-3.6.64h.32v-3.4h-.32v3.4Zm-39.19-3.4v3.4h2.01v-.31h-1.69v-3.09h-.32Zm.44,6.53c.12-.13.25-.23.41-.3.16-.07.32-.1.5-.1s.33.03.48.09c.15.06.29.17.41.31l.2-.23c-.13-.17-.29-.29-.49-.37s-.4-.12-.62-.12-.44.04-.63.13c-.19.09-.36.21-.5.36-.14.16-.25.34-.33.55-.08.21-.12.44-.12.69s.04.48.12.69c.08.21.19.39.33.55.14.16.31.28.5.36.19.09.4.13.63.13s.43-.04.62-.13.36-.21.49-.37l-.2-.23c-.12.14-.26.25-.41.31-.15.06-.31.1-.48.1-.18,0-.35-.04-.5-.1-.16-.07-.29-.17-.41-.3s-.21-.28-.27-.45c-.06-.17-.1-.36-.1-.56s.03-.39.1-.56c.06-.17.15-.32.27-.45Zm-5.92,1.11c-.11-.07-.23-.12-.36-.16-.13-.04-.26-.08-.39-.12-.13-.04-.25-.08-.37-.12-.11-.04-.2-.11-.27-.19-.07-.08-.1-.19-.1-.32,0-.12.03-.22.08-.31.06-.09.14-.17.26-.22s.27-.08.45-.08c.13,0,.28.02.42.07.14.05.28.12.41.21l.11-.29c-.12-.09-.26-.17-.43-.22-.17-.05-.33-.08-.5-.08-.26,0-.47.04-.63.13s-.29.2-.37.34-.12.3-.12.46c0,.18.03.33.1.44.07.11.16.2.27.27.11.07.23.12.36.16.13.04.26.08.4.11.13.04.25.08.36.12s.2.11.27.19c.07.08.1.19.1.32,0,.11-.03.21-.08.3-.06.09-.14.16-.26.22-.12.05-.27.08-.46.08s-.39-.04-.57-.12c-.18-.08-.32-.18-.43-.29l-.12.28c.11.13.27.24.48.32s.42.12.65.12c.26,0,.47-.04.64-.13.17-.09.29-.2.37-.34.08-.14.12-.29.12-.46,0-.18-.03-.32-.1-.43-.07-.11-.16-.2-.27-.27Zm9.51-1.81l-1.38,3.4h.33l.36-.91h1.69l.36.91h.34l-1.38-3.4h-.32Zm-.57,2.2l.73-1.83.73,1.83h-1.45Zm-6.44-5.54h1.69l.36.91h.34l-1.38-3.4h-.32l-1.38,3.4h.33l.36-.91Zm.84-2.12l.73,1.83h-1.45l.73-1.83Zm16.65,7.98l-1.31-2.52h-.26v3.4h.31v-2.71l1.19,2.27h.15l1.19-2.29v2.72h.31v-3.4h-.26l-1.3,2.52Zm-19.09-5.59l-1.95-2.76h-.26v3.4h.32v-2.76l1.94,2.76h.26v-3.4h-.31v2.76Zm2.36,3.07l-1.38,3.4h.33l.36-.91h1.69l.36.91h.34l-1.38-3.4h-.32Zm-.57,2.2l.73-1.83.73,1.83h-1.45Zm14.53-5.85c.18-.09.33-.23.42-.4.1-.17.15-.38.15-.62s-.05-.46-.15-.63c-.1-.17-.24-.31-.42-.4-.18-.09-.4-.14-.66-.14h-1.13v3.4h.32v-1.08h.81c.09,0,.16-.01.24-.02l.69,1.1h.35l-.74-1.18s.08-.02.12-.04Zm-.67-.17h-.8v-1.71h.8c.3,0,.53.07.69.22s.24.36.24.63-.08.48-.24.63-.39.22-.69.22Zm-17.67-33.3h7.06v26.88h4.94v-26.88h7.02v-5.78h-19.01v5.78Zm21.05,34.33c-.12.05-.27.08-.46.08s-.39-.04-.57-.12c-.18-.08-.32-.18-.43-.29l-.12.28c.11.13.27.24.48.32s.42.12.65.12c.26,0,.47-.04.64-.13.17-.09.29-.2.37-.34.08-.14.12-.29.12-.46,0-.18-.03-.32-.1-.43-.07-.11-.16-.2-.27-.27-.11-.07-.23-.12-.36-.16-.13-.04-.26-.08-.39-.12-.13-.04-.25-.08-.37-.12-.11-.04-.2-.11-.27-.19-.07-.08-.1-.19-.1-.32,0-.12.03-.22.08-.31.06-.09.14-.17.26-.22s.27-.08.45-.08c.13,0,.28.02.42.07.14.05.28.12.41.21l.11-.29c-.12-.09-.26-.17-.43-.22-.17-.05-.33-.08-.5-.08-.26,0-.47.04-.63.13s-.29.2-.37.34-.12.3-.12.46c0,.18.03.33.1.44.07.11.16.2.27.27.11.07.23.12.36.16.13.04.26.08.4.11.13.04.25.08.36.12s.2.11.27.19c.07.08.1.19.1.32,0,.11-.03.21-.08.3-.06.09-.14.16-.26.22Zm-5.41-2.73v-.31h-2.07v3.4h2.14v-.31h-1.82v-1.26h1.56v-.31h-1.56v-1.21h1.75Zm1.23,7.35h1.56v-.31h-1.56v-1.21h1.75v-.31h-2.07v3.4h2.14v-.31h-1.82v-1.26Zm-4.66-7.52c-.18-.09-.4-.14-.66-.14h-1.13v3.4h.32v-1.07h.81c.26,0,.48-.05.66-.14.18-.09.33-.23.42-.4.1-.17.15-.38.15-.62s-.05-.46-.15-.63c-.1-.17-.24-.31-.42-.4Zm.02,1.65c-.16.15-.39.22-.69.22h-.8v-1.7h.8c.3,0,.53.07.69.22s.24.36.24.63-.08.48-.24.62Z"/>
  </g>
</svg>