<?xml version="1.0" encoding="UTF-8"?>
<svg xmlns="http://www.w3.org/2000/svg" viewBox="0 0 108 108">
  <defs>
    <style>
      .cls-1 {
        fill: #282828;
      }

      .cls-1, .cls-2 {
        stroke-width: 0px;
      }

      .cls-2 {
        fill: #e9d5bd;
      }
    </style>
  </defs>
  <g id="bg">
    <circle class="cls-1" cx="54" cy="54" r="54"/>
  </g>
  <g id="icon">
    <path class="cls-2" d="m35.61,89.82h1.78v-13.96h-1.78v13.96Zm13.77-58.89c-1.73,1.97-3.11,4.16-4.09,6.5-1.03,2.44-1.61,4.97-1.75,7.52-.08,1.54-.04,2.81.12,3.99.17,1.28.45,2.54.84,3.75.52,1.61,1.23,3.16,2.11,4.58,1.33,2.15,3,4.01,4.98,5.52.41.32.84.61,1.27.91l.44.31c1.35-.78,2.63-1.7,3.91-2.82,1.36-1.19,2.6-2.55,3.69-4.05,1.25-1.72,2.25-3.59,2.98-5.55.76-2.04,1.23-4.16,1.38-6.29.17-2.28.01-4.47-.47-6.51-.5-2.14-1.33-4.17-2.46-6.03-1.15-1.89-2.6-3.6-4.31-5.07-.89-.77-1.71-1.37-2.52-1.84-2.32,1.38-4.39,3.09-6.12,5.06Zm-9.83,9.96c1.75-6.95,5.85-12.5,12.21-16.53-.69-.44-1.5-.86-2.5-1.29-.69-.3-1.43-.54-2.15-.77l-.6-.19c-.3-.1-.61-.16-.92-.23l-.14-.03c-.41-.09-.82-.17-1.24-.24-.22-.03-.44-.07-.66-.11-.57-.1-1.11-.2-1.65-.21l-.91-.02c-1.49-.04-3.04-.08-4.54.16l-.47.07c-.86.13-1.68.26-2.49.51-.16.05-.32.09-.48.14l-.81.23c-.39.11-.77.22-1.15.35-.58.21-1.17.45-1.74.71l-.24.11c-.23.1-.45.2-.65.34,6.37,3.99,10.1,9.71,11.13,17.01Zm17.17-17.68l.06.04c1.95,1.24,3.72,2.87,5.28,4.84,1.79,2.27,3.1,4.8,3.9,7.53.42,1.44.71,2.88.84,4.31.02-.08.04-.17.06-.25.69-2.85,1.69-5.33,3.06-7.58.89-1.46,1.89-2.81,2.97-4,2.02-2.25,4.4-4.13,7.07-5.6-5.54-2.79-11.31-3.39-17.62-1.84-1.31.32-4.91,1.69-5.87,2.38,0,0,.02.02.03.03.07.06.15.11.23.16Zm-4.88,43.83c-.25-.18-.5-.36-.75-.53-.51-.36-1.03-.72-1.51-1.13h0c-1.23-1.03-2.09-1.9-2.79-2.79l-.13-.16c-.68-.86-1.39-1.76-1.96-2.72-1.06-1.79-1.85-3.61-2.35-5.41-.45-1.63-.72-3.12-.83-4.56,0,.04-.02.07-.02.11-.58,2.54-1.29,4.56-2.22,6.36-.61,1.18-1.45,2.7-2.55,4.08-.68.85-1.35,1.68-2.12,2.45-1.02,1.03-1.9,1.86-2.9,2.59-.64.47-1.29.91-1.95,1.35-.39.26-.8.51-1.2.76l-.33.21s.06.05.1.08c.17.08.34.16.51.25.17.09.35.17.52.25l.3.14c.4.19.8.37,1.22.53.47.18.94.33,1.42.48l.26.08c.28.09.57.17.86.23.14.03.29.05.44.06.31.03.63.07.93.21.28.13.6.16.93.18.24.02.49.04.75.11.48.12.98.13,1.52.15.3,0,.6.02.89.04.64.06,1.28,0,1.95-.07.52-.05,1.05-.1,1.59-.1l.68-.13,1.33-.25c.15-.03.31-.05.46-.08.27-.04.54-.08.81-.15.48-.13.95-.29,1.42-.45l.8-.27c.47-.15.95-.31,1.4-.5.79-.34,1.57-.74,2.32-1.13.11-.05.19-.13.29-.22-.03-.02-.05-.05-.08-.07Zm27.66-1.3h0c-.86-.55-1.7-1.15-2.56-1.86-1.15-.94-2.21-2.01-3.16-3.17-1.34-1.64-2.36-3.29-3.13-5.05-.83-1.9-1.36-3.65-1.62-5.34-.1-.66-.19-1.32-.27-1.99-.17.73-.34,1.47-.54,2.2-.48,1.79-1.25,3.58-2.35,5.48-1.01,1.74-2.22,3.36-3.6,4.82-1.23,1.29-2.33,2.27-3.45,3.07-.63.45-1.27.9-1.91,1.34-.13.09-.25.17-.39.27.14.09.26.17.39.24.89.55,1.85.95,2.68,1.27l.09.04c.56.22,1.14.45,1.72.62.31.09.63.16.95.23.31.07.61.13.91.22.8.23,1.46.34,2.1.36.11,0,.24,0,.38.04.55.16,1.11.16,1.71.15.07,0,.14,0,.22,0,.25,0,.48,0,.71,0,.65,0,1.29,0,1.93-.02.47-.02.95-.09,1.42-.15.21-.03.42-.06.63-.08l.44-.1c.37-.08.74-.16,1.11-.24l.5-.1c.24-.04.47-.09.71-.14.23-.05.51-.12.76-.21.23-.08.45-.18.68-.27.39-.16.8-.33,1.22-.45.66-.19,1.28-.5,1.93-.82.08-.04.16-.08.23-.12-.07-.04-.14-.08-.21-.13-.07-.04-.15-.08-.22-.13Zm-21.6,22.76c-2.65,0-4.32-2.2-4.32-5.71s1.75-5.64,4.39-5.64c1.18,0,2.1.53,2.83,1.32l.97-1.16c-.82-.9-2.14-1.72-3.84-1.72-3.54,0-6.19,2.75-6.19,7.25s2.61,7.22,6.08,7.22c1.81,0,3.18-.73,4.28-2.02l-.97-1.11c-.89.99-1.9,1.57-3.24,1.57Zm-10.95-6.14l-1.99-.86c-1.09-.46-2.31-.96-2.31-2.31,0-1.25,1.04-2.04,2.6-2.04,1.29,0,2.31.5,3.17,1.31l.94-1.14c-.98-1.01-2.46-1.73-4.11-1.73-2.54,0-4.39,1.57-4.39,3.71s1.53,3.04,2.83,3.59l2,.88c1.32.58,2.33,1.03,2.33,2.46s-1.09,2.27-2.92,2.27c-1.45,0-2.85-.69-3.85-1.73l-1.06,1.22c1.22,1.27,2.92,2.07,4.88,2.07,2.93,0,4.76-1.76,4.76-3.97,0-2.08-1.26-3.04-2.88-3.73Zm20.62-6.52l-4.72,13.96h1.81l1.34-4.25h5.09l1.33,4.25h1.88l-4.72-13.96h-2Zm3.08,8.29h-4.2l.67-2.13c.5-1.56.95-3.09,1.38-4.7h.08c.45,1.61.9,3.14,1.4,4.7l.66,2.13Z"/>
  </g>
</svg>