<?xml version="1.0" encoding="UTF-8"?>
<svg xmlns="http://www.w3.org/2000/svg" viewBox="0 0 108 108">
  <defs>
    <style>
      .cls-1 {
        fill: #282828;
      }

      .cls-1, .cls-2 {
        stroke-width: 0px;
      }

      .cls-2 {
        fill: #e9d5bd;
      }
    </style>
  </defs>
  <g id="bg">
    <circle class="cls-1" cx="54" cy="54" r="54"/>
  </g>
  <g id="icon">
    <path class="cls-2" d="m46.73,20.69c.76-.17,1.04-.87.87-1.61-.18-.8-.75-1.23-1.44-1.08-.75.17-1.04.85-.87,1.61.17.77.73,1.24,1.45,1.08Zm-.51-2.28c.44-.1.76.22.89.79.13.56-.03.99-.46,1.08-.42.09-.76-.23-.89-.78-.13-.58.02-.99.46-1.09Zm30.46,65.68s-.35-.39-.41-.36c-.24.14-.48.33-.63.57-.05.08.18.33.37.66.3-.38.52-.61.66-.87Zm-28.49-33.1c-.07-.23-.07-.52-.22-.67-.14-.14-.43-.17-.65-.18-1.35-.01-2.7,0-4.28,0,0,0-.2.1-.35.24-.04.04.03.29.12.35.82.55,1.77.31,2.67.38.68.05,1.37.01,2.05,0,.22,0,.43-.07.64-.11Zm-2.06,1.76c-.15.01-.29.04-.44.06.06.19.07.45.19.57.14.14.4.15.78.28.27-.23.57-.48.86-.75.01-.01-.11-.24-.16-.24-.41,0-.82.04-1.23.08Zm27.75,33.42c.18-.19.42-.35.5-.57.03-.09-.26-.31-.52-.58-.2.31-.42.51-.41.68.02.17.27.31.43.47Zm-25.18-53.74c-.07,2.95-.04,5.9-.04,8.85h0c0,1.94-.02,3.88,0,5.82.02,1.04.07,2.09.2,3.13.09.73.44.84,1.05.44.07-.04.16-.09.24-.08.91.1,1.82.23,2.73.32.22.02.53,0,.65-.13.74-.84,1.7-1.1,2.76-1.17.15-.01.4-.26.41-.41.05-.74.02-1.49.04-2.24.01-.38.22-.48.55-.27.9.58,1.79,1.17,2.7,1.73.14.08.45.1.54,0,.4-.42.78-.87,1.1-1.35.1-.14.07-.53-.05-.62-.57-.46-1.19-.85-1.79-1.27-.86-.62-1.7-1.29-2.58-1.88-1.09-.74-2.22-1.44-3.33-2.15-.66-.43-1.32-.85-1.96-1.3-.51-.35-.39-.87-.38-1.4.05-1.93.04-3.86,0-5.78,0-.38-.14-.94-.4-1.09-.47-.27-1.14-.48-1.61-.34-.38.11-.82.79-.83,1.22Zm-.34-12.14l.48-.08-.2-1.23c-.11-.67.18-.97.68-1.06l-.08-.49c-.41.08-.67.35-.74.71-.04-.23-.08-.44-.1-.51l-.47.07c.03.15.06.36.12.7l.3,1.89Zm1.31-2.45l.42-.05.17,1.58c.05.44.24.64.65.6.12-.01.28-.04.39-.09l-.04-.37c-.06.02-.15.04-.2.04-.22.02-.3-.09-.32-.33l-.16-1.48.54-.06-.04-.4-.54.06-.08-.76-.48.05.08.76-.42.05.04.4Zm5.25,32.86c-1.11.39-1.2.88-.36,1.63.01.01.03.02.04.04.76,1.24,2.08.84,3.18,1.06.12.02.35-.1.41-.21.23-.43.4-.88.53-1.16.01-1.38-.92-1.83-1.94-1.8-.62.01-1.25.23-1.85.44Zm-14.21-29.92c.68-.09.91.02,1.04.34.12.3.02.6-.45.79-.44.18-.78.08-1.02-.27l-.48.19c.28.5.82.81,1.62.48.79-.32,1.02-.89.8-1.44-.17-.43-.49-.73-1.5-.6-.61.08-.82.03-.94-.26-.12-.3.02-.56.39-.7.46-.18.72,0,.88.25l.48-.19c-.22-.43-.72-.76-1.5-.45-.72.29-.92.83-.72,1.34.19.46.55.64,1.4.53Zm-23.84,35.17c0,.16.19.41.34.45.12.04.32-.18.62-.37-.28-.25-.43-.47-.6-.49-.11-.01-.36.26-.36.4Zm26.48-33.32l.46-.14-.39-1.27c.16.16.41.26.79.14.58-.18.9-.81.62-1.7-.24-.77-.79-1.12-1.35-.95-.41.13-.58.4-.63.68-.05-.15-.1-.3-.13-.37l-.45.14c.07.19.13.4.19.61l.89,2.88Zm.13-3.48c.39-.12.72.15.88.67.18.6.07,1.03-.35,1.16-.48.15-.74-.15-.91-.72-.18-.59-.09-.96.38-1.11Zm-8.14,4.03c-.06-.2-.11-.4.24-.6.38-.22.58-.03.69.16l.11.18c-.08.05-.22.13-.36.21-.65.38-.89.83-.6,1.34.2.35.63.57,1.14.27.41-.24.47-.53.46-.72.08.12.15.22.2.26l.4-.23c-.05-.06-.21-.29-.33-.49l-.62-1.06c-.3-.52-.74-.57-1.28-.26-.63.37-.62.83-.46,1.18l.4-.24Zm1.2.03l.04.07c.23.39.37.78-.13,1.07-.26.15-.5.07-.63-.15-.18-.3-.03-.55.39-.79.11-.06.27-.15.33-.19Zm-4.16,4.43c.6-.49.55-1.23.07-1.83-.52-.64-1.22-.78-1.77-.33-.6.48-.56,1.22-.07,1.83.5.61,1.2.79,1.77.33Zm-1.46-1.82c.35-.28.78-.14,1.14.31.36.45.41.9.07,1.17-.33.27-.79.13-1.14-.31-.37-.46-.42-.9-.07-1.18Zm2.75.73l.4-.27-.8-1.16c-.29-.42-.33-.81.03-1.06.3-.21.56-.08.78.23l.92,1.34.4-.27-.96-1.39c-.39-.57-.87-.62-1.26-.35-.39.27-.42.6-.37.83-.04-.07-.2-.27-.25-.33l-.39.27c.12.16.25.35.38.54l1.11,1.62Zm46.38,54.8c.18-.16.44-.3.5-.5.04-.12-.24-.34-.51-.69-.16.39-.3.59-.3.79,0,.14.2.27.31.41Zm-29.33-57.07c.1.23.27.47.48.62.59.44.44.97.29,1.53-.04.15.03.36.11.51.02.05.29.04.37-.03.64-.52,1.29-.7,1.99-.11.03.02.07.04.1.04.16,0,.39.06.47-.02.09-.09.1-.33.05-.47-.22-.63-.26-1.16.43-1.56.18-.11.25-.46.3-.72.01-.06-.3-.26-.45-.24-.79.07-1.15-.16-1.38-.92-.05-.16-.23-.44-.29-.43-.19.05-.46.17-.52.33-.29.83-.83,1.17-1.82,1.02-.04.13-.18.33-.13.44Zm29.13,6.33c.46.48.97.39,1.36.15l-.33-.35c-.27.13-.52.13-.73-.09-.29-.3-.18-.72.24-1.13.42-.4.85-.49,1.15-.19.24.25.19.51.05.73l.33.34c.22-.25.45-.82-.08-1.36-.52-.54-1.27-.39-1.81.13-.6.58-.68,1.25-.19,1.76Zm-42.72-.3c-.06-.14-.27-.3-.4-.29-.12,0-.31.2-.34.35-.16.69-.62,1.12-1.22,1.15-.22.01-.44.14-.66.21.13.24.21.54.4.69.47.37.69.75.42,1.35-.08.18-.04.57.07.64.16.1.52.08.68-.04.6-.45,1.11-.38,1.65.09.1.09.33.13.46.08.11-.04.17-.23.23-.32-.06-.34-.18-.62-.13-.87.07-.32.27-.61.43-.9.11-.21.3-.41.34-.63.02-.08-.29-.33-.44-.32-.87.05-1.2-.51-1.48-1.18Zm31.98,58.2c.24-.09.44-.3.65-.46-.14-.18-.28-.36-.52-.67-.25.31-.5.48-.5.66,0,.16.31.49.38.47Zm7.16-61.64c-.26-.2-.32-.44-.2-.7l-.38-.29c-.24.41-.2.88.33,1.29.52.4,1,.34,1.28-.02.24-.31.29-.61-.21-1.24-.29-.36-.31-.5-.2-.64.1-.13.28-.2.54,0,.3.23.25.48.18.62l.37.29c.2-.31.23-.79-.3-1.2-.53-.41-.97-.27-1.2.02-.22.28-.25.56.22,1.16.29.37.32.52.18.71-.14.18-.34.21-.61,0Zm-2.58-2.35c-.21.42-.14.89.42,1.27.54.36,1.02.27,1.28-.11.22-.32.25-.63-.29-1.22-.31-.34-.34-.47-.24-.63.09-.13.26-.21.54-.03.31.21.28.46.22.61l.39.26c.18-.32.18-.8-.38-1.17-.56-.37-.98-.21-1.19.1-.2.3-.21.58.3,1.14.32.35.35.5.22.69-.12.19-.32.24-.61.04-.27-.18-.34-.42-.25-.69l-.4-.27Zm-2.08-1.51l1.18.66-.19,1.07.47.26.65-3.74-.55-.31-2.81,2.53.44.25.81-.73Zm1.62-1.54h0c-.07.29-.16.8-.33,1.75l-.96-.54c.6-.55,1.06-.98,1.29-1.21Zm-19.06-2.07c-.48,0-.76-.21-.86-.62h-.52c.08.58.48,1.05,1.35,1.04.85-.01,1.27-.47,1.26-1.06,0-.47-.2-.86-1.19-1.09-.6-.14-.78-.26-.79-.58,0-.32.22-.51.61-.52.49,0,.67.25.73.55h.52c-.06-.49-.41-.98-1.24-.97-.78.01-1.16.45-1.15,1,0,.5.29.8,1.12.99.67.16.85.34.85.69,0,.32-.2.57-.71.58Zm33.4,14.86l-.26-.41-.49.31.26.41.49-.31Zm-7.6,11.84c.21,0,.55-.31.59-.52.08-.48.08-.99-.03-1.46-.07-.28-.45-.7-.65-.68-1.22.14-2.41.47-3.63.56-1.18.09-2.39.08-3.55-.09-1.16-.17-2.29-.58-3.42-.94-1.3-.42-2.4-.04-3.43.73-.72.54-1.43,1.1-2.13,1.68-.12.1-.17.35-.16.53,0,.07.26.18.41.18,2.99.01,5.97,0,8.96,0v.02c2.35,0,4.69.01,7.04-.02Zm4.15-16.51l-.32-.37-.44.38.32.37.44-.38Zm-11.95,57.31c-.17-.11-.36-.34-.51-.32-.19.03-.41.23-.51.42-.04.07.22.3.45.6.25-.32.41-.51.56-.71Zm5.76-58.14c.58.52,1.3.34,1.81-.23.55-.61.57-1.33.04-1.8-.57-.51-1.29-.36-1.82.23-.52.59-.58,1.32-.04,1.8Zm.41-1.48c.39-.44.82-.56,1.15-.26.33.3.26.74-.12,1.18-.38.43-.82.55-1.15.26-.32-.29-.25-.76.12-1.18Zm-10.22,1.72c-.07-.24-.35-.42-.53-.62-.15.18-.33.34-.45.53-.27.43-.35,1.09-1.26.88-.18.07-.46.17-.75.28.16.26.26.66.5.76.89.41.43,1.1.42,1.7,0,.15-.03.31-.05.46.16-.03.35,0,.47-.09.76-.53,1.46-.68,2.23.03.27.25.47-.04.41-.36-.12-.72-.19-1.39.51-1.91.17-.12.22-.41.32-.62-.22-.08-.46-.24-.67-.21-.67.08-.99-.21-1.16-.83Zm-8.72-12.71l-.48-.06-.07.58.48.06.07-.58Zm-.14,1.15l-.48-.06-.31,2.61.48.06.31-2.61Zm-2.35,2.47c.66.04.98-.36,1.11-.8l-.48-.03c-.11.28-.3.44-.6.42-.41-.03-.62-.41-.58-1,.04-.58.3-.94.72-.91.35.02.48.25.52.51l.48.03c0-.33-.22-.9-.97-.95-.75-.05-1.21.56-1.26,1.31-.06.83.33,1.39,1.04,1.43Zm-2.07,16.11c-1.26.13-2.08,1.26-1.97,2.79.07,1,1.3,1.98,2.37,1.9,1.13-.09,2.13-1.31,2.04-2.48-.12-1.24-1.24-2.34-2.43-2.21Zm5.72-15.67c.7.12,1.05-.29,1.2-.6l-.48-.08c-.11.17-.26.34-.63.28-.41-.07-.58-.47-.5-.96l1.73.3c.02-.07.03-.13.04-.21.1-.57-.05-1.28-.87-1.42-.76-.13-1.25.41-1.38,1.19-.12.67.1,1.38.88,1.52Zm.42-2.32c.41.07.54.43.47.83l-1.24-.21c.11-.42.35-.69.76-.62Zm4.73,3.63c.63.21,1.04-.1,1.28-.49l-.46-.15c-.18.25-.4.35-.68.26-.39-.13-.49-.56-.31-1.12.18-.55.53-.83.93-.7.33.11.4.36.38.62l.45.15c.08-.32.02-.93-.69-1.17-.72-.24-1.31.24-1.55.95-.26.79-.03,1.42.65,1.65Zm-2.76-2.31c.13-.5.39-.78.82-.67.36.09.43.37.34.74l-.4,1.57.47.12.41-1.63c.17-.67-.11-1.06-.57-1.18-.46-.12-.73.09-.87.27.02-.08.08-.33.08-.4l-.46-.12c-.04.2-.1.42-.16.64l-.48,1.9.47.12.34-1.36Zm5.07,3.19c.66.27,1.08-.05,1.3-.32l-.45-.19c-.14.14-.33.28-.68.13-.38-.16-.46-.59-.27-1.05l1.62.68c.03-.06.06-.12.09-.2.22-.53.23-1.26-.53-1.58-.72-.3-1.31.12-1.61.85-.26.63-.21,1.37.53,1.68Zm.93-2.17c.38.16.43.54.28.91l-1.16-.48c.2-.38.49-.59.88-.43Zm-37.91,8.32l-1.76-1.95-.36.33,1.76,1.95.36-.33Zm7.57-5.15l-1.73-3.36-.43.22,1.73,3.36.43-.22Zm25.65,65.85c-.21.03-.39.24-.59.37.17.16.33.44.5.44.23,0,.47-.21.7-.34,0-.08-.01-.17-.02-.25-.2-.08-.41-.25-.59-.22Zm6.03-36.5c-1.88.01-3.77.12-5.64,0-1.14-.07-2.01.14-2.74,1.02-.25.3-.66.65-.99.64-1.59-.05-3.17-.22-4.76-.35-.19-.02-.43-.01-.57-.12-.67-.53-1.3-1.11-1.96-1.66-.41-.34-.81-.74-1.28-.96-.78-.35-1.6-.33-2.42.01-1.03.43-1.4,1.36-.77,2.09.32.38.67.74,1.04,1.07.93.83,1.9,1.63,2.82,2.47.58.52,1.12,1.11,1.96,1.11,3.78.01,7.56,0,11.5,0,.06-.02.29-.04.46-.16.76-.53,1.5-1.07,2.24-1.63.73-.56,1.44-1.15,2.17-1.71.48-.37,1-.7,1.48-1.08.16-.13.24-.36.36-.54-.15-.08-.3-.24-.45-.24-.81-.02-1.62,0-2.44.01Zm-31.6,17.03c-3.76-.92-5.05-1.76-5.05-3.91s1.55-3.46,4.35-3.46c3.18,0,4.5,1.57,4.93,3.64h2.19c-.27-2.63-2.26-5.47-7.03-5.47s-6.69,2.55-6.69,5.46,1.82,4.53,6.46,5.67c4.41,1.08,5.45,2.41,5.45,4.65s-1.38,3.87-4.95,3.87c-3.25,0-5.04-1.51-5.64-4.17h-2.19c.41,2.99,2.48,5.95,7.71,5.95,4.96,0,7.31-2.65,7.31-5.86,0-2.59-.95-4.93-6.86-6.38Zm22.26-16.16c.23-.07.42-.09.57-.18.15-.1.26-.26.39-.4-.16-.1-.3-.26-.47-.29-.35-.06-.71-.07-1.06-.05-.15,0-.33.12-.42.24-.04.05.09.3.2.36.26.14.55.22.79.31Zm21.96-23.76l-1.98,1.72.32.37,1.98-1.72-.32-.37Zm-3.44,17.35c-5.51-.01-11.02-.04-16.54-.03-.4,0-.82.19-1.17.39-.14.08-.17.41-.21.63,0,.04.18.17.28.17,1.37,0,2.73,0,4.1-.04.54-.02,1.07-.2,1.61-.21.47,0,.94.18,1.41.19,3.66.02,7.32,0,11.23,0,.09-.13.3-.42.51-.71-.23-.15-.45-.33-.7-.43-.15-.06-.35.03-.53.03Zm-17.99,41.58s-.02-.07-.02-.11c-.66.17-1.33.32-1.98.52-.12.03-.18.23-.27.36.12.09.24.23.37.25.18.02.37-.05.55-.09.32-.08.64-.18.97-.24.32-.05.66-.03.98-.1.13-.03.23-.22.35-.34-.13-.09-.26-.23-.41-.27-.17-.04-.35,0-.53.02Zm-8.65-30.83c0-.18-.06-.39-.18-.52-.18-.2-.44-.33-.66-.51-.89-.74-1.77-1.48-2.65-2.23-.44-.37-.81-.73-1.53-.58-.58.12-1.28.49-1.86-.14-.35-.38-.73-.74-1.14-1.06-.21-.17-.51-.28-.78-.3-.5-.04-1,.02-1.5.02-2.44,0-4.88,0-7.32,0,0-.01,0-.02,0-.03-.09,0-.19-.04-.28-.02-.19.05-.38.13-.57.19.09.16.14.37.27.48.41.34.86.63,1.28.96,1.06.82,2.11,1.65,3.17,2.48.47.37.9.86,1.43,1.05.6.21,1.3.17,1.96.18,3.32.08,6.63.15,9.95.21.13,0,.39-.12.39-.18Zm3.85,11.83c-3.76-.92-5.05-1.76-5.05-3.91s1.55-3.46,4.35-3.46c3.18,0,4.5,1.57,4.93,3.64h2.19c-.27-2.63-2.26-5.47-7.03-5.47s-6.69,2.55-6.69,5.46,1.82,4.53,6.46,5.67c4.41,1.08,5.45,2.41,5.45,4.65s-1.38,3.87-4.95,3.87c-3.25,0-5.04-1.51-5.64-4.17h-2.19c.41,2.99,2.48,5.95,7.71,5.95,4.96,0,7.31-2.65,7.31-5.86,0-2.59-.95-4.93-6.86-6.38Zm-3.29,19.54c-.16,0-.31.15-.47.23.09.14.16.39.28.41.55.11,1.12.16,1.73.23.26-.09.57-.16.84-.29.12-.05.18-.22.27-.34-.13-.07-.25-.2-.38-.21-.76-.03-1.52-.05-2.28-.04Zm30.99-57.79c-.45-.58-.91-.5-1.23-.3l.29.37c.19-.09.39-.16.63.15.27.35.11.57-.07.7l-.17.13c-.06-.07-.15-.2-.26-.33-.46-.59-.95-.77-1.41-.41-.32.25-.48.7-.11,1.17.3.38.59.4.78.36-.11.09-.2.18-.23.23l.29.37c.05-.06.26-.24.44-.39l.96-.75c.47-.37.47-.81.08-1.3Zm-.88,1.32c-.35.28-.72.47-1.08.01-.18-.24-.14-.48.07-.64.27-.21.54-.11.84.28.08.1.19.24.24.3l-.06.05Zm-26.28,57.98c.16.15.31.43.47.43.21,0,.43-.2.83-.42-.37-.26-.59-.54-.75-.51-.21.03-.37.31-.56.49Zm22.23-40.91c-1.13.01-2.25.02-3.38.01-3.18,0-6.37-.03-9.55-.02-.24,0-.48.19-.72.29-.25.11-.55.57-.7-.1-.02-.08-.2-.18-.3-.18-1.14,0-2.29-.04-3.43.02-.62.03-1.38-.28-1.8.51-.09.18-.16.4-.15.6,0,.06.3.15.46.15,1.14.01,2.28.05,3.42-.01.5-.03.98-.3,1.48-.43.12-.03.29.02.41.08.21.11.39.33.61.37.23.05.48-.08.73-.08,2.57,0,5.14,0,7.71,0,0,.03,0,.05,0,.08,1.75,0,3.5,0,5.25,0,.45,0,.79-.13.77-.64-.02-.5-.34-.66-.81-.66Zm10.27,12.37c-.02.16.23.35.36.53.17-.19.34-.38.59-.67-.24-.21-.39-.34-.53-.47-.15.2-.39.38-.42.6Zm-.58,2.39c-.01.13.32.43.4.4.19-.07.43-.28.47-.46.03-.16-.18-.37-.4-.77-.24.41-.44.61-.46.83Zm-4.97-29.52c-.05-.04-.1-.11-.13-.16-.13-.18-.06-.3.14-.44l1.23-.85.31.45.33-.23-.31-.45.63-.43-.28-.4-.63.43-.24-.35-.33.23.24.35-1.31.91c-.36.25-.45.52-.21.86.07.1.16.23.26.3l.31-.21Zm5.89,24.74s.23.33.3.31c.21-.06.4-.21.76-.42-.3-.26-.43-.37-.57-.49-.17.2-.36.38-.49.6Zm-1.82-21.3c.07-.03.3-.15.37-.19l-.2-.43c-.18.09-.39.19-.6.28l-1.78.83.21.44,1.27-.59c.47-.22.85-.19,1.04.21.16.33-.02.57-.36.73l-1.47.69.21.44,1.53-.71c.63-.29.76-.75.55-1.19-.2-.43-.52-.51-.76-.51Zm9.6,13.77c-.67-22.86-19.34-42.41-43.98-42.42-23.96-.01-43.87,19.47-43.77,43.95-.13,24.27,19.78,44.24,44.55,43.91,23.27-.3,43.96-19.38,43.2-45.44Zm-3.2,6.91c-.19,1.38-.4,2.76-.72,4.12-.28,1.21-.71,2.39-1.1,3.58-.27.83-.52,1.67-.86,2.47-.53,1.24-1.06,2.48-1.72,3.66-.82,1.46-1.73,2.88-2.68,4.27-.83,1.2-1.76,2.33-2.66,3.49-.17.22-.36.43-.57.62-.09.08-.24.12-.35.11v.02s-7.83-20.71-7.83-20.71h-2.59l-7.57,20.89h2.15l2.47-6.79h8.59l2.54,6.79h2.16v.04c-.38.45-.6.81-.91,1.09-1.41,1.27-2.8,2.56-4.28,3.75-.97.78-2.05,1.41-3.12,2.06-1.12.68-2.25,1.36-3.42,1.94-1.16.58-2.37,1.08-3.59,1.55-1.12.44-2.26.84-3.41,1.17-1.15.33-2.31.64-3.49.8-2.31.33-4.64.69-6.97.79-2.94.13-5.87-.2-8.76-.85-1.17-.26-2.35-.46-3.49-.79-1.12-.32-2.21-.73-3.29-1.16-1.2-.47-2.39-.96-3.54-1.53-1.1-.55-2.17-1.16-3.2-1.83-1.26-.81-2.51-1.64-3.7-2.56-1.02-.78-1.95-1.68-2.91-2.54-.63-.57-1.29-1.11-1.86-1.74-.75-.84-1.44-1.74-2.14-2.62-.64-.81-1.27-1.63-1.85-2.48-.54-.79-1.04-1.6-1.52-2.43-.6-1.04-1.22-2.08-1.7-3.17-.61-1.37-1.1-2.8-1.63-4.2-.29-.78-.61-1.56-.81-2.37-.63-2.67-1.16-5.35-1.34-8.11-.22-3.6-.07-7.16.73-10.68.39-1.71.88-3.4,1.37-5.09.26-.88.6-1.75.98-2.59.61-1.36,1.21-2.73,1.93-4.03.72-1.32,1.54-2.59,2.39-3.83.84-1.22,1.71-2.44,2.69-3.54,1.08-1.22,2.29-2.32,3.48-3.44.83-.78,1.7-1.53,2.6-2.23.72-.56,1.51-1.05,2.28-1.54,1.05-.66,2.1-1.34,3.2-1.93,1.15-.61,2.33-1.19,3.53-1.66,1.65-.65,3.31-1.31,5.02-1.74,1.98-.5,4-.89,6.02-1.09,2.47-.24,4.97-.31,7.46-.29,1.49.02,2.98.33,4.46.57,1.1.18,2.2.42,3.28.71,1.14.3,2.28.62,3.36,1.06,1.83.74,3.69,1.46,5.42,2.42,1.92,1.06,3.78,2.27,5.54,3.59,1.63,1.22,3.16,2.61,4.62,4.04,1.09,1.06,2.06,2.27,2.98,3.48,1.02,1.33,1.96,2.73,2.88,4.13.54.82,1.03,1.68,1.44,2.56.58,1.24,1.08,2.51,1.58,3.78.44,1.14.93,2.27,1.22,3.45.46,1.86.89,3.75,1.1,5.66.27,2.41.38,4.84.43,7.26.03,1.22-.19,2.46-.36,3.68Zm-16.05,13.82h-7.34c1.76-5.03,3.05-8.66,3.55-10.33h.03c.43,1.49,1.58,4.44,3.76,10.33Zm5.52-37.33l.26.41,2.21-1.41-.26-.41-2.21,1.41Zm3.38,33.54c.17.14.33.38.52.4.17.02.37-.19.74-.41-.35-.22-.55-.44-.7-.41-.21.04-.38.27-.56.42Zm-3.64,6.69c.13.13.28.37.4.35.21-.02.39-.21.78-.44-.36-.23-.57-.45-.66-.41-.21.1-.35.32-.52.5Zm3.25-4.83c-.24.08-.46.22-.89.45.36.26.61.48.65.45.21-.18.38-.41.54-.64.01-.02-.22-.28-.29-.26Zm-.13-33.15c.72-.4.97-1.08.62-1.69-.38-.67-1.11-.75-1.79-.37-.69.39-.98,1.06-.62,1.7.38.68,1.13.74,1.79.37Zm-1.42-.56c-.21-.37,0-.8.49-1.07.51-.29.95-.26,1.17.12.22.39.01.79-.5,1.08-.5.28-.95.26-1.17-.13Zm-63.12,35.92c-.12.15-.33.3-.33.44,0,.21.17.42.36.84.25-.38.49-.6.45-.72-.07-.22-.31-.38-.48-.56Zm21.02,15.43c-.16.19-.4.36-.44.57-.03.15.23.35.45.65.24-.31.52-.52.49-.67-.05-.21-.32-.37-.5-.55Zm-23.92-25.58c-.21-.96-.35-1.61-.51-2.26-.04-.15-.09-.34-.21-.42-.09-.06-.35-.04-.4.04-.08.13-.11.33-.07.49.14.64.29,1.27.48,1.89.04.14.21.33.35.35.17.03.36-.09.36-.09Zm.54,3.07c.1-.14.2-.28.21-.29-.19-.74-.3-1.33-.51-1.9-.05-.13-.41-.16-.64-.2-.03,0-.15.19-.13.25.21.62.42,1.24.67,1.84.05.13.26.2.39.3Zm-1.95-25.12l3.34,1.29.18-.48-3.34-1.29-.18.48Zm2.17-1.78c.15-.34.44-.36.79-.2l1.48.67.2-.44-1.54-.69c-.63-.28-1.06-.08-1.26.35-.2.44-.04.73.11.91-.07-.03-.31-.13-.38-.15l-.19.43c.19.08.4.17.6.27l1.79.81.2-.44-1.28-.58c-.47-.21-.7-.52-.52-.92Zm6.39-9.17c-.12-.17-.22-.36.05-.65.3-.33.54-.2.71-.05l.16.14c-.06.07-.17.19-.28.31-.5.55-.61,1.06-.17,1.46.3.27.77.36,1.17-.08.32-.35.3-.65.23-.83.11.09.21.17.27.19l.31-.34c-.06-.04-.28-.21-.46-.37l-.9-.83c-.44-.41-.87-.33-1.3.13-.5.54-.35.98-.09,1.27l.32-.35Zm1.16-.33l.06.05c.33.3.58.63.19,1.06-.2.22-.46.21-.65.04-.26-.23-.19-.51.13-.87.09-.09.21-.23.26-.28Zm-.34-1.62l.28.29.31-.3,1.11,1.14c.31.32.59.36.88.07.09-.09.2-.2.25-.31l-.26-.27c-.04.06-.1.12-.14.16-.16.16-.29.11-.46-.06l-1.04-1.07.39-.38-.28-.29-.39.38-.53-.55-.35.34.53.55-.31.3Zm-8.49,31.37c-.14-.69-.27-1.31-.42-1.93-.02-.1-.16-.17-.25-.26-.08.09-.23.19-.23.28.03.67.07,1.34.15,2.01,0,.08.27.18.41.17.11,0,.22-.17.33-.27Zm9.89-33.48l-.39-.43-.36.33.39.43.36-.33Zm-6.31,10.81c.58.35,1.32.41,1.74-.27.37-.61.11-1.08-.12-1.34l-.25.42c.12.16.22.37.03.69-.21.35-.65.37-1.08.11l.91-1.5c-.06-.04-.11-.08-.18-.12-.49-.3-1.21-.41-1.64.29-.4.66-.07,1.31.6,1.72Zm-.27-1.51c.21-.35.59-.35.95-.14l-.65,1.07c-.35-.26-.51-.57-.3-.93Zm2.82-.16l.28-.4-1.03-.71c-.56-.38-.58-.8-.29-1.23l-.41-.28c-.23.35-.21.72,0,1.02-.19-.13-.37-.25-.44-.28l-.27.39c.13.09.3.2.59.4l1.57,1.09Zm-5.03,34.01c-.06-.03-.39.25-.38.37.02.2.21.38.42.7.24-.29.5-.5.47-.57-.1-.2-.3-.39-.5-.49Zm10.27,13.48c.18.18.34.39.55.51.08.04.28-.16.65-.38-.4-.24-.59-.42-.82-.47-.1-.02-.25.22-.38.34Zm-1.99-1.52c.17.17.33.42.53.47.15.04.37-.19.74-.4-.39-.25-.59-.47-.82-.51-.12-.02-.29.28-.44.43Zm6.97,2.8c-.5-.32-1.01-.61-1.53-.89-.22-.12-.46-.2-.7-.26-.03,0-.2.25-.17.3.14.19.3.38.5.52.4.29.82.55,1.23.81.15.1.33.16.57.28.14-.12.35-.22.39-.36.03-.1-.15-.31-.28-.39Zm-11.95-45.83c.06-.11.13-.25.14-.37l-.33-.17c-.02.07-.05.14-.08.19-.1.2-.24.19-.46.08l-1.32-.7.25-.48-.36-.19-.25.48-.67-.36-.23.43.67.36-.2.38.36.19.2-.38,1.41.74c.39.21.67.16.86-.2Zm17.61,49.87c-.21.04-.38.26-.57.4.15.16.29.32.54.6.22-.29.46-.46.44-.61-.01-.15-.29-.41-.41-.39Zm-2.91-.72c0,.19.2.38.41.73.22-.31.44-.49.41-.59-.07-.2-.27-.36-.42-.54-.14.13-.4.27-.4.4Zm-2.64-36.44c2.22,0,4.44.03,6.66.04.08,0,.17-.13.25-.2-.27-.27-.54-.78-.81-.78-4.58-.05-9.15-.03-13.88-.03-.02.02-.25.09-.28.21-.05.21-.02.46.07.65.05.11.29.17.45.18.22.01.45-.07.67-.07,2.29,0,4.58-.02,6.87,0Zm-11.26,24.89c-.13-.15-.26-.31-.43-.41-.06-.04-.28.19-.56.39.28.24.44.46.63.5.1.02.23-.14.35-.27v5.7h2.13v-20.89h-2.13v14.98Zm.78-44.19c.23-.29.52-.24.81,0l1.27,1,.3-.38-1.32-1.04c-.54-.43-1.01-.34-1.31.04-.3.38-.22.7-.11.91-.06-.05-.27-.2-.34-.24l-.29.37c.16.12.34.26.52.41l1.54,1.22.3-.38-1.1-.87c-.4-.32-.55-.67-.28-1.02Zm4.24,16.67c3.03,0,6.05,0,9.08,0h1.51c.14-.2.22-.44.36-.48.16-.04.38.08.56.15.29.1.57.31.86.32,1.43.04,2.87.04,4.3.02.18,0,.35-.27.52-.41-.35-.29-.7-.82-1.07-.83-2.39-.08-4.79-.05-7.18-.05-3.46,0-6.92,0-10.37,0-.47,0-.82.09-.81.61,0,.48.33.7.79.7.48,0,.96-.02,1.44-.02Zm-1.36-2.21c.97-.02,1.95-.04,2.92-.03,4.28.02,8.56.06,12.84.07.22,0,.44-.17.66-.27-.12-.21-.19-.46-.36-.63-.34-.34-.71-.68-1.11-.95-.89-.6-1.74-1.41-2.73-1.65-.91-.22-1.98.13-2.96.33-1.09.22-2.15.66-3.24.83-1.89.29-3.73-.25-5.58-.53-1.22-.18-1.32-.07-1.33,1.26,0,.02,0,.13-.01.23-.04.85.3,1.34.92,1.33Z"/>
  </g>
</svg>