<?xml version="1.0" encoding="UTF-8"?>
<svg xmlns="http://www.w3.org/2000/svg" viewBox="0 0 108 108">
  <defs>
    <style>
      .cls-1 {
        fill: #282828;
      }

      .cls-1, .cls-2 {
        stroke-width: 0px;
      }

      .cls-2 {
        fill: #e9d5bd;
      }
    </style>
  </defs>
  <g id="bg">
    <circle class="cls-1" cx="54" cy="54" r="54"/>
  </g>
  <g id="icon">
    <path class="cls-2" d="m47.83,47.43v-.61h-3.26c-.46,2.23-.91,4.41-1.37,6.65h3.47c.03-.17.05-.35.1-.65h-2.67c.18-.85.34-1.6.51-2.43h2.51c.01-.29.02-.48.04-.77h-2.4c.16-.78.31-1.45.46-2.19h2.61Zm10.04-6.06v-3.81l-1.85-1.72,1.46-1.46v-3.93l-2-2.07h-5.9v15h6.28l2.02-2Zm-3.31-.67h-1.57v-3.25h1.57v3.25Zm0-6.11h-1.57v-3.25h1.57v3.25Zm-6.16,18.86c.2-.93.4-1.81.61-2.76.34-.02.59-.02.84-.04.66-.05,1.3-.16,1.86-.55.74-.52.92-1.27.78-2.11-.11-.66-.56-1.05-1.18-1.14-.73-.1-1.47-.08-2.24-.12-.49,2.3-.96,4.48-1.43,6.71h.76Zm1.31-6c.37,0,.66-.01.96,0,.68.04.93.22,1.06.71.15.57-.07,1.14-.57,1.45-.59.36-1.23.33-1.97.28.18-.83.34-1.61.52-2.45Zm4.34,6c.42-2,.84-3.98,1.27-6.01h1.96c.05-.24.09-.41.14-.64h-4.74c-.04.21-.07.39-.12.66h1.97c-.44,2.1-.84,4.04-1.26,6.06.35-.03.55-.04.79-.06Zm20.48-12.57h-1.8v-8.19h-2.5s0,0,0,0v10.52h4.3v-2.33Zm-5.25,0h-1.8v-8.19h-2.5s0,0,0,0v10.52h4.3v-2.33Zm-10.74,9.05c.34.24.71.45,1.04.72.8.65.66,1.64-.28,2.08-.53.25-1.08.29-1.64.12-.26-.08-.52-.18-.81-.28-.07.22-.14.41-.2.62.68.5,1.44.45,2.18.38,1.01-.09,1.78-.76,1.98-1.62.2-.85-.13-1.5-1.08-2.15-.31-.21-.64-.4-.92-.64-.54-.46-.53-1.14.06-1.53.26-.17.6-.29.91-.3.5,0,1.01.1,1.57.17.05-.16.1-.34.17-.57-.81-.33-1.57-.42-2.37-.22-.77.19-1.28.64-1.44,1.44-.16.81.24,1.34.86,1.77Zm5.35-9.05h-1.93v-1.88h1.45v-2.33h-1.45v-1.65h1.82v-2.33h-4.32v10.52h4.42v-2.33Zm-15.18,0h-1.9v-1.88h1.42v-2.33h-1.42v-1.65h1.8v-2.33h-4.32v10.52h4.42v-2.33Zm-26.77,2.49l-3.96-8.95,3.31-6.12h-3.21l-2.8,5.61h-.07v-5.61h-2.94v15.08h2.94v-3.76l1.06-2.04,2.46,5.8h3.21Zm4.81-2.49h-1.93v-1.88h1.45v-2.33h-1.45v-1.65h1.82v-2.33h-4.32v10.52h4.42v-2.33Zm-7.9,9.75c-.53-1.86.45-4.71,3.16-5.29,1.08-.23,2.13-.12,3.17.29.11-.27.21-.5.31-.75-.84-.51-1.73-.53-2.61-.5-2.72.07-4.62,1.74-5.08,4.42-.27,1.57.09,2.96,1.37,3.96,1.36,1.07,2.91,1.08,4.54.64.03-.3.06-.54.09-.82-.57.08-1.07.16-1.57.21-1.56.15-2.99-.75-3.39-2.15Zm39.4,20.29c0-.82.05-1.62.15-2.41-4.68-.65-18.95-3.34-23.19-12.45h-8.68s7.03,27.87,43.58,33.06c-6.99-3.08-11.87-10.09-11.87-18.2Zm-28.94-18c1.26-1.01,1.87-3.09,1.37-4.63-.27-.82-.79-1.35-1.64-1.56-1.31-.31-2.4.09-3.27,1.07-.85.96-1.13,2.12-1.06,3.38.08,1.47,1.05,2.41,2.52,2.43.79,0,1.49-.22,2.08-.7Zm-3.83-1.8c-.1-1.18.24-2.22,1.08-3.07.68-.7,1.51-.96,2.43-.59.89.35,1.09,1.15,1.08,2.02-.02,1.21-.41,2.25-1.4,2.99-1.22.92-3.03.56-3.19-1.35Zm8.9-7.9h2.5v-8.19h1.38v-2.33h-5.31v2.33h1.43v8.19Zm8.96-2.33h-1.8v-8.19h-2.5s0,0,0,0v10.52h4.3v-2.33Zm-5.3,8.6c-.49,1.88.15,3.34,1.82,3.94.81.3,1.65.24,2.5,0,.03-.22.06-.42.1-.63-.5.06-.96.15-1.42.15-1.07,0-2-.59-2.24-1.49-.57-2.14.82-4.01,2.74-4.12.64-.03,1.29.09,1.98.14.01-.02.06-.1.1-.18.04-.08.06-.17.14-.38-.46-.1-.84-.22-1.23-.27-2.12-.29-3.97.85-4.48,2.83Zm-2.48,2.69c-.69-1.79-1.37-3.58-2.05-5.35h-.9c-.48,2.23-.95,4.41-1.43,6.63h.69c.46-1.82.73-3.64,1.36-5.39.69,1.8,1.37,3.61,2.06,5.41h.88c.48-2.26.94-4.44,1.41-6.7-.3.02-.49.03-.7.04-.39,1.82-.77,3.59-1.16,5.36-.06,0-.11,0-.17.01Zm-6.74-8.96h2.5v-8.19h1.34v-2.33h-5.31v2.33h1.47v8.19Zm63.05,10.67c-.07.17-.14.33-.22.48-.06.14-.12.27-.19.39,0,.02-.02.05-.03.07-.68,1.34-1.59,2.06-3.74,2.19,0,0-.31-.16-.63-.16-.39,0-.82.23-.82,1.23,0,1.84.77,2.95,3.08,3.4.3.06.59.1.9.12.19.02.37.03.57.03,1.67,0,3.35-.67,4.47-2.95.08-.15.15-.3.21-.46.06-.12.1-.25.15-.37.01-.03.02-.06.04-.1,1.39-3.75,3.32-10.41,3.32-11.46s.16-3.91-2.29-6.53c-2.47-2.64-5.76-4.75-8.78-5.09-.89-.1-1.77-.2-2.62-.2-2.03,0-3.8.57-4.75,3.05-1.34,3.52-3.91,8.66-3.86,11.51.02.49.05.91.09,1.25.02.2.05.36.07.51.04.2.07.36.11.5-.17.03-.34.07-.51.11-.16.02-.33.06-.49.1-7.38,1.64-13.12,7.62-14.45,15.12-.03.16-.05.33-.08.5-.02.16-.04.34-.06.51-.09.74-.14,1.51-.14,2.28,0,10.03,7.8,18.22,17.65,18.85.18.01.36.02.55.03.16,0,.32.01.5.01h.17c10.11,0,18.36-7.94,18.87-17.93.01-.32.02-.64.02-.96,0-3.58-1-6.94-2.75-9.78-1.26,1.88-3.1,2.87-5.37,2.87-.58,0-1.2-.07-1.86-.2-2.27-.44-3.64-1.51-4.13-3.26-.27-.57-.38-1.25-.38-2.03,0-1.01.35-1.37.75-1.46.39-.47.95-.66,1.46-.66.36,0,.67.08.9.17,1.58-.14,2.25-.61,2.78-1.46-2.11-1.38-4.51-2.35-7.1-2.8-.16-.03-.33-.06-.51-.08-.06-.01-.13-.02-.2-.03-.1-.02-.2-.03-.3-.04-.06-.14-.12-.31-.18-.53-.03-.15-.07-.33-.11-.52-.11-.65-.16-1.53.02-2.64.39-2.57,1.89-7.76,4.57-8.55.49-.14.96-.2,1.44-.2,2.18,0,4.17,1.39,5.32,3.45,1.4,2.51,1.27,5.12-.33,8.87-.47,1.1-.8,2.06-1.13,2.85Z"/>
  </g>
</svg>