<?xml version="1.0" encoding="UTF-8"?>
<svg xmlns="http://www.w3.org/2000/svg" viewBox="0 0 108 108">
  <defs>
    <style>
      .cls-1 {
        fill: #282828;
      }

      .cls-1, .cls-2 {
        stroke-width: 0px;
      }

      .cls-2 {
        fill: #e9d5bd;
      }
    </style>
  </defs>
  <g id="bg">
    <circle class="cls-1" cx="54" cy="54" r="54"/>
  </g>
  <g id="icon">
    <path class="cls-2" d="m35.39,34.48s-.05-.04-.14-.12c.05.08.05.11.07.11.02,0,.05,0,.07,0Zm2.91.18l-.02.02s0,0,0,0c0,0,0,0,0,0l.02-.03Zm32.49-4.51c-.03-.09-.07-.18-.12-.3-.09.2-.02.27.12.3Zm.03.03s-.01-.01-.02-.02c0,0-.01,0-.02,0,0,0,0,.01,0,.02,0,0,.02,0,.03,0Zm-11.07,42.06c-.06-.02-.11-.07-.15-.12-.14-.21-.35-.33-.57-.46-.35-.2-.71-.4-1.06-.6-.49-.27-.95-.57-1.38-.91-.15-.54.04-.98.3-1.4-.08-.32.02-.63-.13-.9.05-.3.27-.57-.06-.9-.56.09-1.12.21-1.61.52-.05.03-.1.08-.15.13-.05.04-.09.1-.14.13-.48.25-.74.67-.88,1.17-.06.22-.03.45-.05.68,0,.11,0,.24-.04.33-.15.29-.07.57.02.85.09.27.31.45.46.68.31.44.72.75,1.18.99.17.09.39.13.52.26.27.28.62.42.93.62.37.23.75.45,1.13.67.04.19.1.39.12.59.02.21,0,.42,0,.62-.15.17-.28.31-.43.48,0,.14-.02.31,0,.47.05.28.04.55,0,.82-.02.14-.03.3.11.43.44.09.85-.04,1.24-.3.48.08.84-.15,1.14-.5.27-.31.48-.66.64-1.04.04-.09.05-.19.05-.29.01-.28.02-.56.02-.83,0-.35-.06-.69-.19-1.01-.21-.53-.5-.99-1.08-1.19Zm-4.71-2.74c-.06-.11-.11-.18-.17-.3h.36c-.07.11-.12.18-.19.3Zm3.77,7.21v-.02s.03.01.03.01h-.03Zm23.01-1.25c.2-.3.19-.65.18-.99-.01-.51-.03-1.01-.05-1.52-.01-.26-.05-.52-.08-.82.12-.34.13-.75.13-1.16,0-.69,0-1.37,0-2.06,0-.37.01-.75-.16-1.1.15-.28.26-.55.04-.83-.25-.09-.52-.09-.78-.07-.41.03-.81.05-1.22,0-.23-.02-.46,0-.68.02-.09,0-.18.06-.3.1,0,.46-.1.91.03,1.37.02.06.03.13.01.19-.15.51-.05,1.04-.07,1.56,0,.14.05.28.06.32-.03.35-.07.59-.07.83-.01.42,0,.85,0,1.28,0,.43.05.87-.1,1.3,0,.67-.08,1.34.11,1.99-.16.52-.17,1.05-.02,1.43.37.06,2.59.05,2.97-.01.28-.59.22-1.2-.01-1.83Zm-2.6.14s-.09-.04-.13-.05c0-.02.01-.04.02-.06.05.01.09.03.14.04-.01.03-.02.05-.03.08Zm1.92,2.42c-.38-.07-.61.16-.81.29-.18.34-.34.62-.49.91-.09.17-.16.34-.12.56.02.13-.03.28-.07.42-.05.2-.18.38-.17.67.1-.04.16-.06.24-.1.02-.38.22-.69.49-.92.26-.22.42-.49.61-.77-.07-.23-.02-.44.12-.64.08-.12.13-.26.2-.42Zm3.08-1.15c.04.17.09.35.32.47.88-.03,1.81.04,2.72-.02.26-.32.05-.59-.03-.86.02-.12.06-.25.05-.37,0-.31-.05-.62-.05-.93,0-.32-.16-.63-.04-.96,0-.01,0-.03-.01-.05-.04-.38-.2-.72-.31-1.08-.02-.07-.08-.14-.14-.2-.19-.21-.43-.35-.7-.43-.24-.06-.47-.13-.71-.19-.05-.02-.13-.02-.11-.15.08-.02.17-.05.26-.06.83-.08,1.32-.59,1.63-1.31.13-.31.19-.64-.13-.89.08-.14.15-.27.21-.37.02-.62-.21-1.11-.55-1.58h-.43v-.35c-.21-.24-.49-.3-.74-.4-.64-.25-1.31-.24-1.98-.25-.14,0-.3,0-.45.14v.65c.05.06.1.12.19.21-.29.26-.25.54-.16.84.12.04.23.08.33.11.28.08.44.25.52.53.05.2.14.4.21.61-.11.31-.16.63-.36.91-.18.26-.49.31-.73.46-.04.26-.08.5.02.74.03.06,0,.15-.02.23-.07.29-.08.58.03.86.14.07.26.14.39.21.42.21.63.54.63,1.02,0,.36-.07.72.08,1.07.01.03,0,.06,0,.09-.15.44-.04.87.07,1.3Zm1.78-3.04s.02.02.03.03c0,0-.02.02-.03.02,0,0-.02-.02-.03-.03.01,0,.02-.02.03-.03Zm-2.63-5.13c-.11-.09-.07-.18.02-.25.09-.07.2-.12.29.04-.04.16-.14.23-.31.21Zm-12.51-38.5s-.02,0-.04-.01c0,0,0,.01.01.01,0,0,.02,0,.03,0Zm-1.58,36.74c-.41-.08-.85.02-1.29-.02-.06,0-.12.05-.18.07-.02.08-.07.17-.06.24.08.44,0,.87,0,1.31,0,.05.02.09.04.15.41.15.84-.06,1.26.04.09.02.19-.03.31-.05.02-.12.05-.19.03-.24-.12-.36-.09-.71,0-1.06.03-.14,0-.29-.12-.44Zm16.49,15.41c-.06.06-.12.12-.18.18.08-.04.15-.08.23-.12-.01-.02-.03-.04-.04-.06Zm-.49.26c-.15.07-.28.18-.42.26-.06.04-.14.05-.24.08.03-.2.03-.36.07-.52.03-.13.11-.24.14-.36.08-.27.15-.53.22-.8.04-.18.05-.35-.05-.51-.14-.09-.26-.06-.38.01-.5.31-1,.61-1.42,1.04-.25.26-.51.5-.77.75-.05.05-.12.07-.23.12,0-.3.03-.53.18-.74.2-.28.38-.57.56-.86.08-.13.2-.25.22-.46-.11.03-.19.04-.26.07-.38.14-.76.29-1.14.44-.17.07-.3.19-.35.38-.1.37-.3.68-.52,1-.12.17-.23.35-.34.53.25.45.15.88-.04,1.29-.03.07-.06.15-.1.22-.1.24-.3.44-.29.78.04.09.1.24.15.39.29-.03.31-.02.38-.1.15-.17.31-.33.43-.52.33-.51.56-1.07.92-1.56.18-.23.36-.47.52-.71.3-.45.71-.81,1.09-1.19.12-.11.25-.21.48-.21.02.49-.17.91-.32,1.32-.15.41-.38.8-.54,1.2-.17.42-.54.71-.74,1.12.07.02.1.04.13.03.19-.05,1.11-.62,1.24-.76.48-.51.97-1.01,1.45-1.52.07-.08.13-.17.19-.25-.09.01-.18.01-.26.05Zm-5.13-1.53c-.45.08-.78.3-1.12.47-.31.15-.5.41-.65.64-.16.81-.56,1.48-.79,2.21-.23.74-.65,1.38-1.05,2.07.1.05.18.09.27.13.25-.21.5-.4.71-.62.28-.3.51-.63.79-.94.33-.36.65-.73,1.05-1.01.16-.11.27-.27.38-.47-.37-.02-.54.37-.93.34.26-1.04.82-1.88,1.33-2.81Zm5.44,1.45s-.03.01-.04.02c0,0,0,0,0,.01,0,0,.01,0,.02,0,.01,0,.02-.02.03-.03Zm8.73-1.66c.1-.11.26-.16.32-.34-.39.14-.69.44-1.11.57.04-.34.08-.62.2-.89.15-.33.19-.69.25-1.04.01-.1-.04-.21-.06-.29-.22-.08-.35,0-.49.08-.66.4-1.24.9-1.77,1.46-.16.17-.31.33-.55.45,0-.09-.02-.15,0-.21.1-.45.34-.85.6-1.23.15-.21.32-.4.44-.71-.56.21-1.07.41-1.63.62-.13.28-.27.61-.44.92-.17.31-.38.61-.57.92.2.43.16.84-.04,1.24-.09.19-.17.39-.29.57-.2.32-.15.61.07.91.33-.04.54-.24.7-.5.15-.23.27-.48.4-.73.52-.99,1.17-1.88,1.97-2.67.15-.15.33-.27.5-.39.06-.04.14-.03.25-.05-.02.37-.14.68-.23.98-.09.31-.2.62-.34.92-.14.31-.31.61-.49.9-.17.27-.37.52-.56.8.08.05.09.06.1.06.44-.14.82-.39,1.18-.67.25-.2.45-.47.67-.7.31-.33.62-.67.94-1Zm-5.45-1.61c-.39.13-.75.35-1.12.56-.24.13-.32.4-.54.55.03.32-.12.58-.22.86-.42,1.15-.82,2.3-1.51,3.33,0,.01,0,.03,0,.07.03.03.07.08.15.17.37-.3.77-.5.99-.91.06-.11.15-.21.24-.31.43-.47.85-.95,1.34-1.35.16-.13.23-.27.29-.52-.13.07-.24.13-.36.19-.11.06-.22.11-.37.18,0-.12-.02-.18,0-.24.19-.54.38-1.08.69-1.56.17-.26.31-.53.47-.8.04-.07.07-.15-.05-.22Zm10.58-2.65c-.01.08-.02.18-.04.27-.08.35-.27.59-.66.61-.21.01-.42.04-.56.06-.34.15-.62.27-.9.4-.1.05-.22.08-.31.15-.39.33-.77.66-1.05,1.1-.23.38-.47.75-.67,1.14-.18.35-.31.72-.45,1.08-.07.18-.12.37-.19.55.08.14.16.26.24.41.51-.11.94-.32,1.29-.68.41-.44.82-.89,1.23-1.33.17-.19.37-.34.57-.48.14.12.1.23.06.34-.08.2-.19.38-.24.59-.14.51-.48.93-.67,1.42-.01.03-.04.05-.06.08-.37.56-.74,1.12-1.14,1.65-.41.53-.92.75-1.57.68-.45-.05-.84-.26-1.27-.43.09.76.52,1.27,1.02,1.76.08.02.16.04.23.07.35.14.68.04.98-.14.19-.12.35-.29.52-.44.33-.28.52-.67.76-1.02.38-.55.73-1.12,1-1.73.1-.22.27-.42.35-.64.1-.26.18-.51.3-.76.31-.63.54-1.29.83-1.93.37-.8.57-1.67,1-2.44.05-.1.07-.21.09-.31-.25-.34-.32-.34-.72,0Zm-.88,1.92c-.29.41-.59.82-.89,1.22-.02.03-.05.05-.07.07-.48.45-.97.91-1.46,1.36-.03.03-.08.03-.16.06,0-.13-.01-.25.02-.35.07-.2.14-.41.25-.58.32-.53.66-1.04,1-1.56.22-.33.54-.51.94-.55.15-.01.29.01.44.11-.02.07-.02.16-.06.21Zm-2.54-24.17c.39.12.7.04.99-.24,0-.45,0-.92,0-1.39,0-.11-.02-.23-.03-.33-.28-.34-.62-.19-.96-.19-.06.27-.03.52-.03.76,0,.23,0,.46,0,.69,0,.24-.05.48.03.71Zm-18.95,27.79s.01-.09.02-.16c-.09-.1-.19-.21-.29-.32-.38.24-.66.57-.94.9-.22-.02-.43-.02-.64-.06-.28-.04-.5.03-.72.21-.53.42-.97.91-1.43,1.4-.69.73-1.04,1.6-1.24,2.56-.02.11-.01.23,0,.34,0,.13.08.21.25.27.09-.04.25-.06.36-.14.47-.35.98-.64,1.4-1.07.11-.12.26-.2.39-.29.11-.07.24-.11.4-.05.05.3.16.6.34.88.17.27.3.57.68.73-.03-.12-.04-.2-.07-.27-.07-.22-.08-.46-.02-.68.12-.41.13-.84.31-1.22.04-.09.07-.18.09-.28.15-.76.46-1.46.81-2.14.11-.2.21-.41.31-.61Zm-2.45,2.81c-.33.45-.74.87-1.28,1.09-.03.01-.06,0-.14.01-.12-.23-.05-.44.04-.63.14-.28.26-.55.36-.85.19-.55.63-.89.97-1.28.53-.05.68,0,.96.28-.31.45-.59.93-.91,1.37Zm-24.37-22.02c-.11-.08-.22-.12-.33,0q.18.19.33,0Zm-14.17-18.57c.01-.06.02-.1.03-.13-.09,0-.08.04-.03.13Zm36.07,38.99s-.1-.07-.16-.1c-.16.04-.32.07-.48.11-.26.21-.51.42-.76.63-.25.21-.49.43-.73.65-.23.22-.35.54-.65.71-.02-.05-.05-.09-.04-.11.12-.41.25-.81.54-1.14.05-.06.09-.13.13-.2.08-.14.15-.29.22-.43.11-.23.3-.41.39-.71-.33.02-.54.22-.79.32-.25.09-.51.18-.77.27-.02.16-.01.3-.05.42-.04.14-.14.26-.19.39-.18.49-.34.98-.54,1.47-.33.8-.62,1.61-.94,2.47.03.06.1.17.16.29.22-.06.38-.15.49-.33.27-.43.53-.86.82-1.27.24-.35.51-.68.79-1,.14-.17.31-.32.32-.5.17-.1.3-.16.41-.24.34-.25.69-.43,1.12-.29.09.09.18.18.27.27.44-.44.55-.69.42-1.65Zm5.47-34.47c0,1.92,0,3.83,0,5.75,0,2.51,0,5.01,0,7.52,0,.39.03.78.04,1.17.07.09.13.17.19.25.32.43.7.61,1.25.62.85,0,1.7.02,2.55.03,1.57.03,3.14.03,4.71-.07.27-.02.55-.08.81-.16.24-.08.44-.23.53-.48.09-.26.16-.53.23-.8.02-.06,0-.13.12-.11.05.43.11.87.16,1.29.15.11.28.21.41.31h3.08c.21-.15.41-.29.61-.44.15-.03.3,0,.41.11.21.24.48.25.77.23.41-.03.82-.07,1.22-.11.23-.02.45-.07.67-.24.02-.15.06-.33.07-.5.02-.41.04-.82.04-1.23,0-1.78,0-3.57.01-5.35,0-1.57,0-3.14,0-4.72,0-2.49,0-4.98,0-7.47,0-.47,0-.95,0-1.43-.17-.22-.33-.42-.47-.6-.48-.11-1.38-.14-1.79-.05-.14.03-.28.1-.41.16-.17.08-.34.17-.55.29-.14-.18-.27-.35-.35-.46-.67-.12-2.66-.09-3.28.02-.3.41-.27.99-.7,1.41-.1-.29-.05-.56-.1-.83-.16-.24-.32-.5-.53-.68-.21-.07-.39-.09-.54-.18-.14-.08-.27-.11-.42-.12-.23-.02-.46-.05-.69-.05-2.08,0-4.16-.07-6.23.09-.39.03-.78.06-1.1.09-.3.19-.44.41-.51.67-.08.27-.14.54-.18.81-.14,1.09-.14,2.19-.12,3.29.02.65.04,1.31.05,1.96Zm16.53,12.31s.03,0,.03.01c0,.01,0,.03-.01.04,0,0-.02,0-.02-.01,0-.01,0-.03,0-.04Zm-.4-.22l.02.02h-.03s0-.02,0-.02Zm-.56-4.05s.04.03.06.05c-.03.02-.06.05-.09.07-.01-.03-.03-.05-.03-.08,0-.02.04-.03.06-.04Zm-.49-9.65c-.07.08-.14.14-.19.22-.04.07-.06.16-.1.29-.1-.3.06-.47.17-.7.05.09.09.13.13.2Zm-.26-2.81c.01.75.03,1.5.03,2.25,0,.04-.03.08-.06.14-.07-.41-.07-1.96.03-2.39Zm-.1,11.19c.02-1.39.01-2.78.02-4.17,0-.18,0-.36,0-.54.2.27.25.56.27.85.04.65.08,1.31.09,1.96,0,1.31,0,2.62-.02,3.93,0,.65-.05,1.31-.08,1.96-.03.7-.06,1.4-.1,2.1,0,.12-.03.25-.04.37-.14,0-.11-.09-.11-.14-.07-1.19-.12-2.39-.1-3.58.01-.92.06-1.83.08-2.75Zm-2.45-.26s.07.05.1.08c-.05.05-.09.1-.14.14,0,0-.07-.04-.06-.05.03-.06.07-.12.11-.18Zm-.85-2.18s.09.07.13.11c0,0,0,.03-.02.05-.04,0-.08.03-.13.02-.07,0-.12-.05-.09-.13.01-.03.08-.07.11-.06Zm-1.05-4.24c.06-.01.13.05.2.09-.05.07-.07.12-.1.14-.05.03-.12.05-.2.08-.05-.18-.04-.29.1-.31Zm-.13-3.08c.04.23.09.38.1.54.01.16,0,.32,0,.49-.01.37-.03.75-.05,1.12-.12-.69-.14-1.38-.05-2.15Zm-.07,4.16c0-.16.02-.32.1-.5.04.09.11.19.12.28.04.32.07.65.08.97.01.72,0,1.44,0,2.15,0,.06-.01.13-.02.2-.06.03-.11.06-.16.08-.04-.03-.07-.05-.08-.08-.02-.13-.04-.26-.04-.39,0-.91,0-1.83,0-2.74Zm-.02,4.42c0-.36-.02-.72.09-1.12.09.09.19.14.21.22.04.14.04.29.04.44,0,1.08,0,2.16-.11,3.24-.07.63-.02,1.28-.04,1.91,0,.36-.03.72-.11,1.08-.02-.17-.06-.34-.06-.51-.02-.47-.03-.95-.03-1.42,0-1.28,0-2.55.01-3.83Zm-.47-5.43l-.02.04-.02-.04h.03Zm-.56-2.42c.05.01.1.05.14.08,0,0,0,.03,0,.04-.03.01-.06.04-.08.04-.05-.02-.09-.05-.14-.07.03-.03.06-.09.08-.09Zm-1.21,2.16v.03s-.04-.02-.04-.02h.04Zm-.9,6.67s.02.02.03.03c-.01,0-.02.03-.03.03s-.02-.02-.03-.03c.01,0,.02-.02.03-.03Zm-.4,6.3s.04.06.03.07c-.02.03-.05.06-.1.11-.02-.06-.06-.11-.05-.13.02-.03.07-.04.11-.05Zm-1.48-.51s.04.02.06.04c-.02.02-.03.04-.05.06-.01,0-.03-.02-.03-.03,0-.02.01-.05.02-.07Zm-3.44-3.78l-.02-.04s.02,0,.04.01c0,.01,0,.02-.01.03Zm-.02-15.26s.04.04.05.06c-.02.02-.04.04-.06.06-.02-.03-.05-.06-.07-.09.03-.01.06-.04.08-.03Zm-.3,5.04c-.04.14-.05.18-.07.22-.01.02-.05.04-.08.05q-.07-.11.14-.28Zm-21.16,21.6c.31.24.45.58.44.98,0,.14,0,.3.19.43.11,0,.27.03.43.03.5-.02,1-.11,1.5-.01.12.02.26-.01.36-.02.17-.14.24-.3.23-.49,0-.11,0-.23,0-.34-.03-.41-.11-.81-.3-1.18-.17-.32-.6-.38-.74-.73-.03-.08-.15-.13-.23-.17-.46-.23-.95-.34-1.46-.38-.15-.01-.29.01-.38.16-.07.26-.1.52.08.73-.17.33-.14.65-.11.99Zm4.9-5.08c.29.23.6.29.97.24.24-.03.49,0,.73,0,.16,0,.33.03.49-.01.36-.1.72-.17,1.09-.24.19-.04.38-.08.58-.08.44,0,.88-.02,1.31-.21.21.08.42.17.63.25.39-.04.78-.08,1.17-.13.18-.02.36-.04.53-.07.29-.04.57-.16.87-.02.47-.03.91-.13,1.15-.6.05-.1.09-.21.1-.24-.05-.38-.08-.68-.12-.99-.22.08-.03.33-.2.41-.12.03-.18-.05-.2-.15-.06-.2-.1-.41-.15-.61-.17-.06-.32-.11-.49-.16-.13-.45-.4-.86-.31-1.36.06-.36.03-.71-.19-1.03-.08-.11-.08-.25.04-.37.1.03.19.06.32.1,0-.15-.01-.25-.02-.37.15.08.22.19.22.33,0,.14-.04.28-.06.45.03.09.08.21.12.33h.21c.11-.15.21-.3.32-.46-.06-.13.04-.3-.12-.44-.14-.11-.14-.28-.16-.45.08-.11.16-.21.24-.32-.02-.18-.05-.36-.04-.53,0-.18.05-.35.07-.53-.14-.07-.26-.14-.38-.2.05-.28.33-.14.45-.34,0-.09.03-.22.03-.34,0-.13-.01-.26,0-.39,0-.12.02-.24.04-.4-4.56,0-9.09,0-13.62,0-.01.04-.03.07-.04.11.37.36.74.72,1.12,1.09-.05.24-.07.47-.15.68-.07.17-.1.34-.12.52,0,.11-.02.23-.06.33-.04.11-.04.22,0,.33.03.09.04.19.05.24-.14.27-.25.5-.36.71.1.28.21.52.27.78.07.28,0,.55-.15.8-.14.12-.38.12-.44.36.05.08.11.16.18.26-.36.15-.7.31-1.06.37-.25.05-.45.16-.52.44-.03.11-.11.2-.14.31-.03.1-.01.22-.01.33-.21.03-.38.08-.55-.02-.11-.14-.15-.34-.36-.41-.05.03-.11.07-.18.12.07.18.14.32.2.46.21.11.44-.03.62.11.04.19-.03.33-.14.45-.48.12-.48.12-1,0-.06-.01-.13.01-.22.03.16.17.33.16.49.16.18,0,.25.23.44.18.05-.01.1,0,.15,0,.06,0,.13,0,.19,0,.51.13,1.02.22,1.54.17.23-.02.46-.09.68-.05.56.11,1.13.04,1.69.05.73.01,1.46.05,2.19-.06.04.02.09.04.12.07Zm4.99-5.09c.03.16-.04.25-.16.27-.14.03-.21-.04-.23-.2.11-.15.24-.18.39-.07Zm-3.61.4q.06.2-.24.29.05-.24.24-.29Zm-3.09-1.48c-.22.03-.47.05-.6-.23-.04-.08-.04-.2,0-.28.04-.1.13-.17.2-.25.27.07.5.14.67.33-.02.18-.08.32-.26.44Zm.46,4.39s-.05-.01-.07-.02c.01-.01.02-.03.03-.03.01,0,.03,0,.04.01v.04Zm8.81,19.21c.25-.35.49-.68.73-1.01.06-.09.14-.18.05-.33-.27.03-.55.04-.82.1-.7.15-1.4.32-2.1.47-.14.03-.29.05-.44.04-.09,0-.17-.06-.24-.09-.03-.29.23-.42.27-.64-.03-.02-.05-.05-.08-.06-.03,0-.07-.01-.1,0-.41.12-.81.24-1.13.55-.22.22-.47.39-.78.48-.39.11-.78.24-1.15.4-.79.34-1.58.71-2.33,1.13-.14.08-.29.19-.34.38.4.03.41.03.55-.04.9-.43,1.82-.79,2.76-1.11.17-.06.34-.11.54,0,.01.42,0,.45-.21.92-.27.61-.52,1.24-.8,1.84-.36.79-.75,1.56-1.13,2.34-.05.1-.12.24-.21.26-.29.07-.39.33-.58.49-.21.19-.31.41-.35.68-.03.23-.11.44-.19.65-.14.36-.33.71-.22,1.13.16.1.27.02.36-.11.24-.33.51-.64.85-.77.18-.46.32-.88.51-1.28.39-.85.8-1.68,1.21-2.52.27-.56.56-1.11.84-1.66.3-.6.59-1.2.89-1.8.14-.28.37-.47.67-.54.56-.11,1.13-.23,1.69-.27.44-.03.91,0,1.27.37Zm-8.45-12.47c.47-.01.96.05,1.47-.05.13-.46-.07-.9.04-1.33.03-.12,0-.25-.01-.41-.33,0-.59,0-.85,0-.25,0-.52-.09-.78.07,0,.13-.03.26-.02.38.01.19.05.39.08.61-.06.21-.2.46.07.73Zm2.4,8.02c0,.16.05.29.26.38.29-.01.63.01.97-.05.35-.07.67.12,1.01.04.05-.01.1,0,.15-.01.29-.05.41-.24.35-.53-.04-.16-.1-.32-.1-.47,0-.7.01-1.41.02-2.11,0-.33,0-.65-.13-.94.18-.55.18-2.34.03-2.78.06-.88.17-1.65,0-2.46.09-.26.14-.54,0-.84-.31-.07-.62-.1-.92-.03-.16.04-.32.05-.48,0-.14-.04-.29-.05-.44-.06-.7-.04-.8.13-.7.8.02.11.03.21,0,.33-.04.21-.04.42-.05.63-.01.57.02,1.14-.07,1.71-.04.27-.05.57,0,.83.1.42.06.84.07,1.27,0,.49,0,.98,0,1.47,0,.19.02.36.2.48-.09.22-.2.36-.2.56.01.59,0,1.18,0,1.77Zm1.72-.38s.09.04.09.08c0,.03-.04.07-.08.12-.04-.05-.09-.08-.09-.11,0-.03.05-.08.08-.09Zm23.15.27c-.1.26-.2.51-.37.73-.11.14-.16.32-.13.51.04.21-.01.42-.11.61-.08.16-.14.32-.09.51.18-.02.24-.14.26-.26.07-.33.24-.6.5-.81.21-.18.37-.41.51-.66-.03-.31.04-.6.25-.86.04-.05.03-.14.05-.23-.33-.07-.51.16-.74.24-.05.08-.1.15-.13.22Zm-53.25-32.97v.03s.03-.02.03-.02h-.03Zm-5.49,10.73c.66,0,1.31,0,1.97,0,.66,0,1.31,0,1.97,0,.64,0,1.28,0,1.92,0,.66,0,1.31,0,1.97,0,.66,0,1.31,0,1.97,0,.65,0,1.3-.01,1.96,0,2.28.02,4.55,0,6.83,0,3.83,0,7.67,0,11.5,0,4.24,0,8.49,0,12.73,0,1.15,0,2.29,0,3.44,0,.19,0,.39.03.6-.1,0-.34.02-.68,0-1.02-.01-.35.06-.71-.06-1.1-.61-.05-1.22-.02-1.82-.02-.61,0-1.21,0-1.82,0s-1.21,0-1.82,0c-.61,0-1.21,0-1.82,0-.61,0-1.21,0-1.82,0-.61,0-1.21,0-1.82,0-.61,0-1.21,0-1.82,0-.61,0-1.21-.03-1.82,0-.6.03-1.21-.01-1.81,0-.61,0-1.21,0-1.82,0-.61,0-1.21,0-1.82,0s-1.21,0-1.82,0c-.61,0-1.21,0-1.82,0-.61,0-1.21,0-1.82,0-.61,0-1.21,0-1.82,0-.61,0-1.21,0-1.82,0-.61,0-1.21,0-1.82,0-.61,0-1.21,0-1.82,0-.61,0-1.21,0-1.82,0-.61,0-1.21,0-1.82,0-.61,0-1.21,0-1.82,0-.61,0-1.21,0-1.82,0-.61,0-1.21,0-1.82,0-.61,0-1.21,0-1.82,0-.61,0-1.21,0-1.82,0-.6,0-1.2-.02-1.8.03-.09.42-.1,1.75,0,2.2.15,0,.31.01.47.02Zm38.47-1.34s.01.05.02.08h-.19c.04-.14.1-.13.17-.08Zm-.44.18c-.39.13-.43.12-.59-.17.29-.19.42-.16.59.17Zm-14.7.23s.02.02.03.03c0,.01-.02.04-.03.03-.03,0-.05-.02-.07-.03.02-.01.05-.03.07-.04Zm-4.18-.55s.03,0,.04,0c0,.01.01.03.02.04-.02,0-.04,0-.06.01,0-.01,0-.03,0-.04Zm-19.24-.5s.02.05.03.08c-.02.01-.04.03-.06.04-.01-.03-.03-.05-.03-.08,0-.02.04-.03.06-.04Zm44.05,16.27c.07.01.16.04.26.05.55.06,1.1-.06,1.65.03.22.03.46.01.63-.16.08-.3.01-.56-.08-.8.04-.29.23-.55,0-.81-.27-.11-.55-.1-.83-.05-.26.04-.51.04-.77,0-.27-.04-.55-.07-.83.03-.17.19-.23.41-.15.64.08.22.06.41,0,.62-.05.16-.03.32.12.48Zm2.57,6.56c-.32-.07-.63-.01-.93.04-.18.03-.35.04-.53-.02-.24-.09-.49-.07-.73-.04-.37.05-.57.32-.51.7.02.12.09.24.14.39-.23.26-.19.52.04.78.32.05.65.04.97,0,.14-.02.29-.02.43,0,.39.04.78.07,1.15-.01.28-.32.11-.63.01-.99.2-.3.18-.58-.05-.84Zm-41.16-30.41s.01,0,.02,0c0,0,0-.02,0-.02,0,0,0,0,0,.01,0,0,0,0,0,0Zm1.95,30.71c-.37-.39-.45-.94-.65-1.35.04-.93.07-1.79-.08-2.66.14-.36.15-.69.04-1.24.16-.36.28-.75.49-1.1.18-.3.25-.61.25-.93,0-.27,0-.55,0-.82-.01-.18-.04-.36-.22-.46-.53-.04-.86.07-1.26.45-.55-.08-.55-.07-.94.28-.32.29-.56.64-.76,1.01-.11.2-.2.41-.2.65,0,.11-.06.22-.08.33-.04.16-.1.31-.11.47-.03.36-.05.72-.04,1.08.01.52.06,1.04.1,1.64-.2.58-.1,1.37.08,1.89.06.18.12.37.18.55.16.55.46,1,.96,1.3.11.07.2.16.3.24.09.07.17.15.27.21.49.28,1.02.32,1.57.29.04,0,.08-.04.13-.07.14-.27.02-.51-.06-.77.13-.3.11-.63.07-.98Zm-5.25-3.95c.03-.52.08-1.04.13-1.56.03-.32.06-.62-.19-.85.13-.7.08-1.36.07-2.02-.09-.05-.14-.11-.2-.11-.27,0-.55-.08-.82.03-.14.05-.29.08-.43.01-.3-.13-.61-.06-.92-.05-.14,0-.25.07-.33.21-.06.29-.05.6.05.9.06.16.05.31,0,.48-.06.22-.1.45-.09.67.02.41.09.81.15,1.29-.14.21-.15.46-.15.73,0,.56.01,1.11,0,1.67,0,.3.04.58.23.84-.22.2-.23.44-.23.69,0,.69,0,1.37,0,2.06,0,.13.02.26.03.37.23.21.26.24.38.26.37.07.75.08,1.1-.08.36.16.74.12,1.07.16.2-.11.17-.27.17-.41,0-.59,0-1.18,0-1.77,0-.36.01-.72-.2-1.02.09-.22.21-.4.25-.6.09-.5.15-1-.01-1.5-.04-.12-.08-.25-.07-.38Zm-.99,3.64s-.04-.07-.05-.11c0,0,.05-.04.07-.04.03,0,.06.04.12.08-.06.04-.1.06-.13.08Zm-2.54-32.99c-.26-.11-.46-.2-.68-.28-.14-.05-.28-.09-.42-.1-.47-.03-.95-.06-1.42-.07-1.74-.01-3.47-.02-5.21-.01-.28,0-.56.03-.83.08-.46.07-.79.29-.87.79-.03.19-.06.39-.09.58,0,.06,0,.14-.11.13-.27-.41-.22-.98-.6-1.36-.73-.19-1.47-.18-2.2-.14-.32.02-.65.09-.97.15-.4.08-.62.34-.67.74-.01.1,0,.2-.02.29-.01.12-.03.25-.06.43-.3-.49-.2-1.05-.51-1.5-.56-.03-1.14-.06-1.71,0-.48.05-.72.3-.73.76,0,.92-.06,1.83-.09,2.75-.01.38,0,.75,0,1.13,0,.36,0,.72,0,1.08,0,.38.02.75.03,1.13,0,.36-.04.73.01,1.08.05.38,0,.74,0,1.11,0,.54,0,1.08,0,1.62-.01,2.37-.04,4.75-.04,7.12,0,.9.01,1.8.05,2.7.02.44.02.88.25,1.3.06.02.14.06.21.08.3.09.61.09.92.12.68.06,1.3-.04,1.81-.54.34.42.79.53,1.27.57.15.01.29.02.44.02.57,0,1.15-.02,1.72-.03.11,0,.22-.02.33-.03.12-.14.18-.28.2-.46.02-.18.05-.36.11-.53.06-.18.12-.36.32-.54.01.16.04.27.03.37-.02.31.1.56.27.82.17.25.38.4.68.42.08,0,.16.02.24.02.65.02,1.31.05,1.96.07.52.01,1.05.02,1.57.02,1.33.01,2.65.02,3.98.04.26,0,.48-.08.69-.21.12-.08.23-.18.34-.26.03-.09.04-.18.09-.25.18-.28.17-.59.17-.9,0-.59,0-1.18,0-1.77-.01-.64-.09-1.28-.05-1.91.03-.56.05-1.11.05-1.67,0-3.26,0-6.52,0-9.78,0-1.29-.02-2.59,0-3.88.01-.52-.09-.97-.48-1.32Zm-16.48,19.88c-.02-.06-.05-.11-.04-.14.02-.03.07-.04.11-.07.02.04.06.08.05.11-.01.03-.06.05-.12.09Zm2.52-2.89c0,.82,0,1.64,0,2.46v.49c-.15-.89-.22-1.78-.08-2.67,0-.06.01-.13.01-.2.01-1.15.02-2.29.03-3.44,0-.13,0-.27-.04-.39-.22-.54-.26-1.12-.26-1.69-.01-1,.02-2,.14-2.99.05-.37.05-.75.08-1.11.12-.01.14.04.14.11,0,.49-.02.98-.02,1.47,0,.88.03,1.77.03,2.65,0,1.77-.02,3.54-.03,5.3Zm-.19-12.03s.09-.03.14-.03c.03,0,.05.03.08.05-.09.17-.1.17-.22-.01Zm3.3,15.16l-.04-.02.04-.02v.03Zm1.38-1.95c-.02-.08-.06-.15-.06-.23-.06-.65.04-1.3.07-1.94.05.73.11,1.44-.01,2.17Zm.04-2.67s-.01,0-.02,0c-.03-.25-.06-.5-.1-.75-.03-.24-.15-.46-.07-.75.09.04.15.06.22.09-.01.47-.03.94-.04,1.41Zm.09-8.81c-.01,1.69-.03,3.37-.05,5.06,0,.7-.01,1.4-.02,2.1-.06,0-.12,0-.2.01-.03-.09-.07-.16-.08-.24-.01-.31-.02-.62-.02-.93.02-.98.04-1.96.06-2.94.02-.93.03-1.87.04-2.8,0-.1,0-.2,0-.29.01-1.03.03-2.06.04-3.09,0-.13.03-.25.1-.38.03.2.02.41.1.59.11.22-.01.41,0,.61.02.77.02,1.54.02,2.31Zm7.47-6.82s0-.02,0-.03c.01,0,.03,0,.04-.01,0,.02,0,.03.01.05-.01,0-.03,0-.04,0Zm.12,18.33s-.05-.05-.06-.07c.03-.02.06-.05.09-.07.02.02.05.05.05.06-.02.03-.05.06-.08.08Zm-.03-10.19s-.02-.05-.03-.08c.04-.01.07-.03.11-.04,0,0,.02.05.03.09-.04.01-.07.03-.11.03Zm.82-7.06s0-.02-.01-.02c.01,0,.02,0,.04,0,0,0,0,.02.01.02-.01,0-.02,0-.04,0Zm7.6,1.79c.06-.05.12-.1.18-.15-.11-.05-.17.01-.18.15Zm-25.1,7.21c-.15.14-.17.29-.17.46,0,.55-.07,1.11.18,1.63.27.08.54.14.85.09.07-.59.05-1.81-.02-2.2-.28-.03-.56-.04-.83.02Zm25.29-7.37s.03-.08.04-.12c-.08.03-.06.08-.04.12Zm.36-.6s0,0,.01,0c0,0,0-.02,0-.02,0,0-.01,0-.02.01,0,0,0,0,0,.01Zm-.03,10.61c-.17.14-.09.27-.06.39.14-.09.11-.22.06-.39Zm38.2,17.95c.29.05.59.05.9-.01.17-.03.36-.05.53,0,.26.06.51.07.8.03.06-.09.13-.19.2-.29-.09-.19-.16-.35-.23-.5q.24-.58.14-.98c-.45-.13-.47-.13-1.27.03-.23-.22-.53-.15-.82-.1-.28.04-.39.22-.3.5.09.28.09.54,0,.81-.05.17-.08.35.06.53Zm-38.42-17.41c-.04.12-.04.26.02.44.12-.21.19-.38.14-.57-.06.04-.14.08-.16.13Zm-12.62,20.07c.01-.29.01-.59.01-.88,0-.48,0-.94-.18-1.4-.12-.3-.16-.63-.26-.94-.1-.34-.18-.7-.42-.91-.03-.45-.05-.84-.09-1.23-.05-.43-.32-.74-.59-1.02-.06-.96-.25-1.58-.6-1.96-.17-.05-.34-.08-.54,0-.2.37-.05.75.02,1.13-.13.41-.15.83-.11,1.26.04.42.1.84.16,1.34-.14.2-.1.52-.09.83,0,.16.04.33,0,.49-.07.33-.03.65.12.93-.16.29-.16.29-.16.53,0,.29-.02.59,0,.88.02.36,0,.72.15,1.05-.19.41-.22,1.04-.08,1.66.08.03.16.09.25.09.29,0,.59.02.87-.1.16-.07.32-.08.47,0,.33.17.66.13,1.02.01.09-.44.1-.87-.04-1.24.03-.21.07-.36.08-.52Zm5.34-8.4c-.11.07-.22.14-.31.2-.04.2-.06.38-.12.55-.16.46-.15.96-.4,1.4-.09.15-.09.35-.14.52-.02.09-.03.2-.08.28-.15.27-.16.56-.16.75-.13.36-.25.61-.31.88-.08.36-.15.74-.17,1.11-.04.78-.04,1.57-.07,2.35,0,.18-.02.36-.06.53-.03.15-.11.28-.35.26-.19-.23-.18-.49-.19-.75-.02-.91,0-1.83-.09-2.74-.04-.35-.08-.68-.31-.89.02-.26.11-.48.05-.67-.2-.69-.34-1.4-.76-2.02.13-.29.02-.57-.07-.84-.09-.29-.09-.62-.29-.87-.26-.08-.52-.1-.77,0-.31.12-.61.09-.91,0-.06-.02-.12-.05-.19-.06-.2-.03-.39-.05-.6.11-.07.61.02,1.2.49,1.69.09.84.38,1.61.89,2.31-.2.28-.15.58-.03.88.04.11.05.23.1.33.18.4.18.87.49,1.16.01.26,0,.48.04.68.23.87.48,1.73.71,2.6.08.3.28.44.57.44.29,0,.58-.04,1.01-.08.3.06.75.18,1.2-.02.06-.12.14-.23.17-.36.33-1.35.79-2.66,1.01-4.01-.08-.11-.14-.18-.2-.27.24-.36.24-.75.19-1.14-.02-.16-.08-.34-.04-.48.1-.36-.05-.67-.16-.99.14-.21.22-.43.23-.69,0-.49.04-.98.07-1.47.01-.18.01-.36-.11-.54-.1-.04-.21-.1-.34-.15Zm-4.76,3.1s-.03-.04-.04-.07c0,0,.03-.04.03-.03.03.01.05.03.08.05-.02.02-.04.03-.06.05Zm49.49-.07c.01-.49,0-.98,0-1.47,0-.42-.07-.84-.02-1.27.01-.1-.04-.22-.06-.32-.39-.17-.76-.06-1.12.01-.43-.12-.87-.15-1.33-.08-.23.66-.36,1.29-.05,1.9-.12.27-.22.51-.16.78.08.36.05.72.02,1.07-.04.49-.05.49.13.84-.09,1.25-.17,2.45-.03,3.71-.16.43-.2,1.11-.08,1.81.09.02.2.07.31.08.6.02,1.21-.04,1.81,0,.06,0,.13,0,.19-.02.2-.04.35-.19.37-.4.01-.13-.01-.26-.02-.39,0-.1-.03-.19-.03-.29.03-1.1.06-2.19.08-3.29,0-.29-.05-.58-.07-.88,0-.1,0-.19,0-.29.02-.51.06-1.01.07-1.52Zm-37.29-14.83s0,0,0,0c0,0,0,0,0-.01,0,0,0,0,0,0,0,0,0,0,0,.01Zm8.7,3.87v-.33c-.13.02-.23.03-.35.05.01.15.02.27.03.42.12-.05.2-.08.32-.13Zm20.19-36.21c-.19-.06-.32-.1-.49-.15.05.15.09.25.13.37.11-.06.2-.12.36-.22Zm-15.02,7.96s0,0,0,0c0,0-.01,0-.02,0-.04.05,0,.01.01.01Zm-3.49,42.54c-.15-.79-.38-1.55-.94-2.2.1-.62-.18-1.1-.66-1.5.09-.31,0-.58-.14-.85-.05-.08-.07-.18-.1-.28-.14-.37-.27-.73-.42-1.1-.03-.08-.12-.14-.19-.22-.16.22-.14.42-.11.63.03.19.09.39.08.58-.02.49-.08.98-.11,1.46-.02.31-.04.62.14.94-.14.32-.15.34-.15.63,0,.33,0,.65,0,.98,0,.16-.04.34.01.49.12.33.03.64.02.97-.01.44,0,.88.03,1.32.01.21.05.41.01.63-.05.34-.05.68-.06,1.01.1.23.28.33.51.33.2,0,.4,0,.58-.05.21-.05.41-.05.63,0,.29.06.58.09.85-.14.07-.4.1-.8-.12-1.18.2-.19.17-.42.17-.65,0-.34.02-.69-.22-.98.22-.25.25-.53.19-.84Zm3.35-41.49v.03s0-.03,0-.03c0,0,0,0,0,0,0,0,0,0-.01,0h0Zm7.09,43.69c-.15-.2-.3-.41-.45-.61-.02-.32.12-.63-.05-.96-.42-.25-.86-.06-1.28.04-.46-.19-.9-.28-1.38.07.03.31.06.58.09.86.01.1.04.19.03.29-.04.51.2.91.5,1.29.09.11.2.21.32.29.3.19.7.16.96.44.32.04.64.09.97.12.18.02.32-.06.37-.28-.06-.18-.12-.38-.19-.6.16-.28.15-.6.11-.94Zm-7.1-45.27s.01.03.02.04c.01,0,.02,0,.03,0,0,0-.01-.01-.02-.02-.01-.01-.02-.02-.03-.03Zm2.35,40.66s0-.03,0-.05c.02-.52.03-1.05.07-1.57.03-.36.04-.72-.08-1.08.12-.3.18-.62.07-.93-.17-.16-.37-.17-.56-.18-.47,0-.95,0-1.42-.01-.25,0-.45.06-.56.3.01.15.06.3.03.44-.08.35-.03.68.09.92-.02.37-.05.66-.04.96,0,.3-.16.61.03.91-.08.42.15.76.28,1.12.09.26.24.5.32.77.11.35.27.66.55.94-.1.2-.05.4.03.59.03.06.04.12.06.19.27.7.54,1.4.81,2.11.05.14.11.27.17.41.05.09.11.17.24.07,0-.12.02-.25.02-.38,0-.51-.02-1.02,0-1.52.01-.33,0-.65-.18-.95.17-.34.19-.69.18-1.06,0-.07,0-.13,0-.2-.05-.6.11-1.21-.12-1.8Zm-.2-.21v.03s-.02,0-.02,0l.02-.02Zm-.12,4.1c-.08,0-.12-.05-.1-.12,0-.03.07-.06.11-.06.04,0,.08.04.15.07-.1.06-.13.11-.17.11Zm-1.11.88s-.01-.03-.02-.05c-.16-.36-.32-.71-.48-1.07-.13-.3-.23-.62-.41-.88-.2-.3-.19-.65-.33-.96-.16-.36-.28-.73-.42-1.1-.12-.31-.27-.59-.49-.82.02-.69-.47-1.81-.98-2.29,0-.49-.04-.63-.2-.94-.25-.47-.45-.6-.94-.48-.27.06-.51.06-.77.03-.18-.02-.36-.04-.52.09.01.52.24.94.6,1.28.01.16.02.31.04.45.12.56.35,1.09.57,1.62.05.11.16.2.25.29.07.06.16.1.25.16-.14.28-.09.53,0,.78.09.24.17.5.28.73.2.43.32.9.65,1.18.04.26.05.47.12.66.16.41.34.81.54,1.21.07.14.19.26.29.4.04.51.19.88.51,1.18.19,0,.41.03.61,0,.28-.04.54-.08.82,0,.11.03.25-.03.43-.05-.02-.18,0-.31-.05-.4-.17-.32-.27-.65-.36-1Zm-3.46-6.56s-.03-.04-.04-.06c0,0,.02-.03.03-.03.02,0,.05.02.07.03-.02.02-.04.04-.05.06Zm.16.82l.02-.03v.03s-.02,0-.02,0Zm2.11,6.27c.11,0,.17,0,.23,0,.01,0,.03.07.02.08-.06.08-.13.08-.25-.08Zm-.3-12.99c.16-.15.32-.3.49-.46,0-.08.01-.15.03-.26-.22.01-.39.02-.57.03-.17-.12-.36-.26-.54-.39-.32.02-.63-.04-.94.09-.09.1-.19.21-.29.32.1.22.26.34.48.38.07.01.13.06.25.11-.16.1-.27.16-.38.22.14.07.28.14.43.22.34-.09.69-.17,1.05-.27Zm-12.37-8.43s0,0,0,0c-.03.02-.01,0,0,0Zm8.42,8.6c.52.05,1.03.18,1.56.14.23-.02.46,0,.69-.02.08,0,.15-.03.25-.04-.02-.08-.03-.14-.04-.19-.18.05-.13-.2-.26-.23-.14-.03-.29-.07-.43-.04-.26.05-.52.02-.77,0-.19-.01-.37-.07-.64-.13-.41.19-.87.12-1.3-.21.06-.09.12-.19.18-.27-.14-.24-.32-.45-.38-.69-.07-.31-.23-.53-.37-.66-.13-.39-.23-.7-.29-.9-.15-.2-.34-.1-.4-.28.13-.04.25-.08.36-.11.03-.09.05-.16.07-.22-.22-.26-.58-.29-.75-.64.27-.17.5.01.74.04.09.31.18.61.48.81.03-.09.04-.19.09-.25.07-.08.17-.13.25-.19-.05-.2-.09-.37-.13-.54.04-.07.07-.14.11-.17.21-.14.43-.28.67-.43,0-.03.02-.09.05-.15.03-.07.08-.13.13-.2.38.15.47.5.6.81.17,0,.1-.26.31-.27.14,0,.27-.15.41-.23.03-.23.02-.46.12-.69.12-.04.24-.08.38-.12.03.1.06.19.09.29.09,0,.17-.01.21-.02.21-.28-.03-.45-.09-.65-.02-.25.04-.48.22-.64.17-.15.3-.32.37-.54.32.02.57-.05.76-.3.12-.16.25-.3.36-.45.03-.05.05-.11.07-.16-.33-.19-.52.19-.87.13-.02-.03-.08-.11-.14-.19-.1,0-.2-.02-.29-.02-3.59,0-7.17.01-10.76.02-.02,0-.03,0-.05.02,0,0,0,0,0,0-.17.29-.33.53-.47.79-.06.1-.1.21-.12.32-.04.25-.07.51-.1.77.1.05.19.09.31.15-.15.56-.56,1.03-.59,1.65.16.03.32.06.5.1-.02.16-.04.3-.06.46.06.08.13.16.19.23.19.03.34.05.51.07v.31c.09-.02.16-.02.21-.05.06-.02.14-.05.16-.1.13-.28.37-.27.54-.25.16-.08.25-.12.34-.17.15.2.06.38.03.55-.03.16-.07.32-.11.48-.04.17,0,.36-.12.51-.36.17-.75.04-1.1.18-.15-.08-.29-.16-.44-.24-.05.09-.11.15-.13.22-.11.34-.21.69-.32,1.03-.02.07-.07.14-.1.21-.12,0-.22-.01-.33-.02-.08.13-.17.27-.25.4-.06,0-.11,0-.17-.01-.06-.24-.09-.47.06-.7.07-.1.07-.25.11-.37.01-.05.03-.09.05-.14.11-.07.22-.13.32-.19,0-.16.07-.3-.08-.45-.53.6-.71,1.28-.77,2,.13.15.23.29.35.4.23.21.48.42.81.37.38-.05.75,0,1.11.1.15.04.32.04.49.04.38,0,.75,0,1.13,0,.13,0,.26,0,.39.02.68.13,1.37.09,2.09.02.02,0,.08.04.14.05.33.06.65.2,1.01.14.32-.06.65-.09.97-.14.23-.03.46-.05.68-.1.4-.09.8-.06,1.2-.02Zm1.96-8.18c.08.09.14.16.23.25-.07.08-.11.18-.19.22-.17.08-.27-.02-.37-.23.12-.08.22-.15.34-.24Zm-4.26,3.07c-.1.04-.14,0-.14-.07,0-.12,0-.25,0-.37.12.13.22.28.14.44Zm-6.42,4.21s0-.02-.01-.03c.02,0,.04,0,.07.02-.03,0-.05.01-.06.01Zm.75.09c-.18-.08-.06-.18-.04-.26.05.03.09.07.15.11-.04.06-.08.1-.11.15Zm.7-1.12c-.09.11-.19.24-.28.35-.13-.02-.23-.04-.32-.05-.14.16-.16.34-.14.54-.09,0-.18.01-.28.02.01-.18.02-.34.03-.47-.16-.12-.17.08-.27.08-.1,0-.19,0-.29,0-.08-.11-.15-.22-.22-.32.05-.23.16-.37.41-.43.15.09.21.37.52.3.13-.11.11-.4.4-.44.04.03.1.07.17.11.07-.05.15-.11.25-.18.04.11.07.2.1.29.16.02.36-.08.43.18-.14.21-.31.08-.51.03Zm4.31-1.93c-.1.05-.13-.01-.14-.1.07-.06.13-.08.17.02,0,.02-.01.06-.03.08Zm0-3.95s-.04-.07-.07-.1c.03-.01.06-.04.08-.04.04,0,.07.04.13.08-.07.03-.11.07-.14.06Zm22.79-30.44h.03s-.03-.03-.03-.03v.03Zm-22.85,46.29c.25-.48.22-1.01.08-1.55-.04-.17-.12-.34-.18-.5-.03-.07-.04-.15-.06-.23-.11-.65-.37-1.21-1-1.51-.06-.03-.11-.07-.16-.11-.56-.53-1.26-.64-1.97-.66-.22.17-.23.32-.19.49.04.19.07.38-.02.57-.05.11-.04.26-.04.39,0,.18.03.37.18.49.19.15.26.37.35.58.11.27.21.54.31.79-.01.18-.04.34-.04.5,0,.9,0,1.8,0,2.7,0,.21.03.42.05.66-.07.15-.18.32-.22.51-.07.3-.21.55-.4.78-.16.18-.24.4-.21.63.02.17.12.33.18.51-.05.24-.28.48-.06.78.06.01.12.05.19.04.21,0,.43-.02.64-.05.32-.05.59-.27.92-.3.08,0,.16-.05.22-.1.49-.31.92-.68,1.17-1.22.12-.25.19-.48.08-.75.32-.44.37-.94.39-1.45.03-.66-.1-1.3-.19-1.99Zm-2.13-.4c.06-.05.1-.08.13-.09.02,0,.05.02.09.03,0,.13-.07.14-.22.06Zm-5.11-29.58c-.07.15-.09.23-.14.29-.13.17-.27.33-.4.49-.04.05-.1.1.01.18.26-.25.53-.51.82-.79h.4c.03.11.06.2.08.28.13.08.25.15.39.23-.09.24-.16.45-.24.67.06.1.12.19.17.28-.03.11-.06.22-.1.4.14-.1.22-.15.36-.25-.04.17-.06.26-.08.35-.04.18-.08.36-.12.54.13-.1.26-.19.38-.28.04.03.06.04.06.05.03.09.05.18.07.27q.28.09.57.42c-.04.32-.38.48-.43.84,0,.04.01.12.03.2.13.7-.14,1.26-.65,1.69-.29.24-.45.56-.58.88-.1.23-.18.45-.35.58-.08.25-.14.47-.22.69-.09.23.03.45.04.65-.05.16-.1.3-.14.44-.04.13-.03.26.04.38.14.23.29.46.44.71.3-.22.36-.64.72-.78.3.19.1.54.28.77.2.01.41.04.62.04,1.75,0,3.5,0,5.25,0,.23,0,.46-.03.68-.05.03,0,.06-.03.09-.04.06-.1.11-.19.17-.29.37,0,.57-.2.74-.48.15-.24.21-.53.47-.71-.05-.05-.09-.09-.12-.13-.29.2-.4.53-.69.76-.08-.47.14-.84.23-1.22.05-.23.16-.46.38-.6.07.01.13.02.19.03.11-.16.2-.31.3-.45.1.02.17.04.24.05.15-.07.29-.15.46-.23v.21c.12.08.23.17.35.25.13-.02.26-.03.42-.06-.04.16-.06.28-.09.4.13,0,.24.02.34.03,0,.37,0,.36-.15.56-.25.32-.49.65-.74.98-.03.04-.1.1-.02.17.23-.16.4-.37.58-.58.07-.08.16-.14.24-.21,0,.03.01.06,0,.08-.15.32-.32.64-.57.9-.12.13-.23.27-.34.39.13.36.37.21.59.2.06-.15.1-.3.29-.34.24-.01.36.15.44.39.17,0,.34,0,.5,0,1.42,0,2.85,0,4.27,0,3.54,0,7.07-.01,10.61-.01,3.14,0,6.29,0,9.43.01.26,0,.52.01.77-.07.1-.2.18-.4.44-.43.08,0,.16-.11.21-.19.08-.13.14-.28.22-.43.12.01.23.03.36.04.01-.11.02-.2.04-.3.05-.36.04-.74.18-1.06.13-.3.12-.6.15-.9.01-.21,0-.43,0-.64.02-.4.02-.4.39-.63.06-.27.12-.55.19-.87-.11-.13-.2-.29-.33-.41-.16-.13-.24-.3-.35-.46-.2-.28-.17-.62-.32-.91-.02-.04.06-.12.09-.17.24-.02.39.27.62.09-.07-.31-.06-.32-.31-.54-.31-.27-.54-.6-.76-.95-.11-.18-.22-.36-.17-.57-.16-.18-.29-.34-.42-.49.04-.1.07-.17.11-.26-.15-.2-.31-.41-.47-.63.02-.11.03-.23.05-.35-.05-.09-.11-.19-.17-.29.04-.64-.19-1.25-.19-1.89,0-.06-.03-.13-.05-.18-.11-.25-.23-.5-.36-.76.03-.18-.03-.38.04-.49.26-.16.29.2.49.1-.03-.27-.04-.27-.2-.46-.07-.08-.18-.2-.17-.29.03-.3-.1-.57-.13-.86,0-.06.03-.12.05-.2.11-.04.21-.08.31-.12.05-.11.09-.22.14-.32-.09-.13-.18-.25-.24-.38-.06-.11-.11-.24-.13-.36-.06-.39-.19-.75-.31-1.12-.05-.16-.11-.3-.25-.41-.09-.08-.14-.21-.2-.33-.08-.16-.14-.33-.24-.56,0-.11-.03-.31-.04-.49-.11-.16-.21-.31-.32-.46.07-.23.03-.45-.09-.65-.05-.08-.09-.18-.1-.27,0-.13-.09-.2-.15-.3-.03-.04-.04-.1-.08-.22.27.18.43.41.75.39.05-.31-.13-.56-.19-.84-.36-.22-.54-.52-.35-.98-.12-.07-.23-.14-.33-.21.03-.14.05-.24.08-.36-.14-.11-.17-.28-.18-.46-.01-.23-.09-.44-.26-.62-.34-.37-.63-.78-.64-1.33-.28-.2-.44-.5-.57-.82-.09-.22-.2-.47-.37-.61-.25-.2-.37-.45-.49-.71-.35-.18-.6-.44-.74-.82-.37-.16-.75-.32-1.12-.47-.49.14-.9,0-1.22-.34-.14-.02-.28,0-.36-.07-.24-.18-.5-.14-.76-.13-.19,0-.38.06-.59.09-.4-.27-.85-.03-1.18-.11-.33-.27-.59-.48-.84-.69-.13,0-.22.01-.29.02-.11.08-.07.27-.26.21-.03-.13-.06-.27-.09-.41-.13-.02-.24-.04-.36-.06-.06-.12-.11-.24-.16-.34-.38-.09-.74-.18-1.12-.28-.04-.13-.11-.27-.11-.41,0-.2-.22-.21-.28-.36-.05-.13-.17-.23-.26-.34-.04-.29-.07-.58-.14-.87-.05-.18-.1-.36-.25-.51-.28-.27-.34-.66-.36-1.04-.09-.09-.19-.18-.27-.27-.08-.08-.15-.17-.25-.29-.04.14-.08.23-.1.32-.02.11-.01.23-.02.34,0,.08.05.19-.1.25-.02-.07-.06-.13-.05-.19.03-.46-.09-.9-.13-1.36-.02-.26-.14-.43-.4-.49-.13-.03-.25-.07-.35-.09-.14-.17-.25-.32-.38-.48-.18.07-.33.15-.53.11-.17-.03-.37.08-.53-.08-.05-.13-.09-.25-.15-.41-.23.16-.09.45-.33.6-.1,0-.24.02-.33.02-.17.13-.31.24-.45.35-.06.09-.12.2-.18.31-.12.01-.22.03-.32.04-.05.08-.11.16-.16.23-.06,0-.13.01-.18.02-.04.1-.07.19-.11.27h-.17c-.04.05-.09.11-.14.17-.24-.18-.14-.49-.26-.71-.03.03-.07.04-.08.07-.1.22-.16.45-.27.66-.21.39-.2.54-.18.89-.09.08-.19.17-.28.26.07.12.12.22.17.31.08-.01.13-.02.2-.04.04.2.07.37,0,.55,0,.02-.04.03-.06.04-.03-.11-.06-.21-.09-.33-.08.04-.14.07-.19.1-.1-.03-.21-.07-.29-.09-.06.22-.11.41-.16.61-.06-.08-.12-.16-.19-.25-.36.55-.36,1.21-.64,1.7-.18.17-.32.3-.45.44-.01.01,0,.05,0,.09.06.03.12.06.17.08.33-.16.62-.34.87-.61.02.11,0,.2,0,.29-.02.26-.15.41-.39.51-.28.11-.54.27-.83.42-.34-.08-.67.02-1.07.07.15.23.27.41.4.6-.14.15-.26.28-.38.42-.14-.05-.26-.09-.37-.14-.03.08-.05.15-.08.23-.14.03-.26.05-.38.07,0,.09.02.19.02.27-.13.1-.23.06-.32-.02-.22-.19-.18-.43-.1-.69-.17-.11-.33-.21-.46-.3-.44-.03-.78.1-1.02.34-.5.14-.96-.05-1.42.06-.44.1-.9.14-1.35.21-.1.11-.2.22-.28.31-.22.08-.42.16-.61.24-.11.04-.11.05-.19.31.47-.13.91-.3,1.33-.49.21-.09.42-.19.6-.06.32.24.65.27,1.02.18.03,0,.07,0,.1,0,.05.03.09.07.16.13-.13.07-.22.12-.38.22.2,0,.31,0,.43,0,.11,0,.22-.06.32.07-.06.24-.3.29-.46.4-.17.12-.34-.02-.54-.06-.1.1-.21.21-.33.34.52.06.94-.25,1.48-.25-.08.09-.11.16-.16.18-.25.09-.5.16-.75.24-.05.01-.09.05-.13.07-.02.07-.03.13-.05.19-.22.17-.44.33-.65.5-.04.03-.1.1-.02.16.21-.04.41-.09.62-.13.06-.01.13,0,.14.12-.09.04-.2.08-.29.12-.15.07-.3.13-.44.22-.04.02-.05.09-.08.14.25.09.45-.16.69,0-.1.18-.29.18-.43.24-.17.08-.3.17-.31.42.2,0,.37,0,.55,0,.05,0,.1.05.19.11-.34.16-.69.18-.86.42-.35.08-.65.16-.95.23-.14.14-.27.28-.35.37-.35.14-.63.26-.91.38-.11.18-.28.35-.29.52-.03.32-.21.54-.36.79-.04.06-.06.16-.18.11,0-.11-.03-.23,0-.33.13-.38.26-.76.33-1.16.03-.17.2-.32.32-.5-.05-.04-.12-.07-.17-.12-.06-.06-.11-.14-.17-.22-.22.14-.41.27-.62.4-.04.19-.09.38-.14.59-.22.1-.29.4-.57.5-.08-.19.05-.3.1-.43.06-.13.11-.26.16-.38-.09-.07-.15-.11-.24-.17.34-.41.67-.8.99-1.18.03-.03.08-.04.11-.06.04.05.07.08.1.11.11-.16.2-.33.32-.48.11-.15.12-.29.05-.47-.47,0-.61.44-.89.66-.09-.03-.16-.06-.23-.08-.06.04-.1.07-.14.1-.05.03-.1.06-.14.09-.02-.02-.03-.03-.05-.05.09-.12.19-.24.27-.35.11.02.18.04.26.06.11-.14.21-.27.19-.44-.03-.17,0-.32.08-.47.42-.28.52-.4.82-.96-.05,0-.11-.02-.14,0-.17.12-.34.25-.5.38-.05.04-.11.09-.13.14-.06.23-.25.33-.42.46-.1.08-.2.17-.28.27-.24.33-.46.67-.71,1.05.07.05.14.09.2.14-.02.16-.02.31-.07.44-.11.27-.12.53-.09.81.03.32-.07.61-.32.84-.09.09-.18.19-.25.27.03.33.04.35-.1.52-.25.3-.52.59-.78.88.02.08.03.16.05.24-.11.14-.21.26-.33.4,0,.09.01.18.02.3-.08.12-.15.27-.25.4-.24.3-.41.62-.46.98.06.19.11.35.16.52.08-.02.16-.04.29-.07-.07.22-.2.39-.13.64.07.08.16.19.24.27.11.05.21-.01.3.08-.18.21-.35.38-.5.58-.04.05-.03.13-.04.23.26-.11.4-.29.5-.48.11-.04.2-.08.27-.1.25-.49.33-.58.57-.68-.24.86-.54,1.42-1.25,2.23.12.01.23.02.37.04.1-.12.2-.25.27-.34.17-.04.27-.07.35-.09.15-.24.27-.45.41-.66.03-.05.09-.07.18-.13.02.22.03.4.04.59h.27c-.06-.42.3-.72.23-1.1.18-.18.33-.32.52-.51-.01.36-.21.59-.38.83.08.19,0,.43.24.6.1-.12.19-.22.28-.33.05-.06.11-.12.22-.08.06.21.13.42.2.66.13-.08.25-.14.41-.23.02.1.05.17.03.22-.05.13-.12.26-.19.39-.06.06-.13.12-.19.18-.06-.05-.1-.09-.15-.13-.12.25-.33.45-.32.81.16-.12.27-.2.38-.28.04.06.07.1.1.15-.21.33-.42.67-.76.87-.09.05-.21.04-.39.07.14-.19.24-.32.33-.45.06-.1.09-.2-.05-.32-.12.1-.25.2-.35.32-.14.15-.27.32-.41.47-.03.03-.1.02-.22.05.11-.13.21-.2.22-.28.06-.32.31-.48.51-.69.11-.11.26-.2.24-.39-.19.12-.38.25-.57.37-.2.13-.39.27-.59.41-.11.07-.23.19-.34.18-.19-.02-.31.09-.47.17.13-.23.27-.44.42-.63.21-.26.26-.37.26-.7-.41.42-.92.78-1.03,1.47,0,.02.04.1.08.2-.16.3-.33.61-.49.93.1.09.18.16.25.22,0,.5-.19.93-.46,1.29-.18.24-.31.48-.41.76-.04.12-.12.24-.21.32-.19.17-.25.37-.26.61,0,.23,0,.46,0,.69.01.22-.06.41-.23.55.1.07.21.13.31.19.12-.06.23-.11.42-.2Zm38.71,6.85q-.04.23-.28.14.07-.18.28-.14Zm-1.43-.96c.09-.05.21-.04.31-.06.07.3.03.33-.33.3-.1-.09-.07-.19.02-.23Zm-.5-7.77c.19.03.18.18.19.29.02.14-.05.23-.2.29-.06-.21-.04-.39.01-.58Zm-.94-6s-.03.03-.04.03c0,0-.02-.02-.03-.03h.06Zm.12.2s.05-.02.09-.03c.09.15.02.28-.08.38-.08.08-.18.05-.25-.11.08-.09.16-.17.24-.25Zm-1.47,13.02s0-.02.01-.04c0,0,.02,0,.03,0,0,.01,0,.02,0,.04-.01,0-.03,0-.04,0Zm1.05-14.48c-.04-.09-.07-.15-.09-.22.07.03.12.09.09.22Zm-.09-.39s-.02.08-.02.12c-.01-.04-.03-.08-.04-.12.02,0,.04,0,.07,0Zm-.4-.06c-.05.1-.09.18-.13.26.05.39.51.59.47,1.1-.2-.17-.26-.35-.34-.52-.09-.17-.17-.35-.27-.52-.1-.17-.21-.32-.34-.51.07-.04.14-.1.2-.11.19-.02.29.12.41.29Zm-.32-2.9s0,.03,0,.04h-.03s0-.02,0-.03c0,0,.02,0,.03,0Zm-.31,1.83c.17.16.33.31.52.49-.18.08-.31-.01-.46-.01-.08-.16-.16-.29-.05-.47Zm-.09,16.67c.15.05.17.14.09.26-.14-.05-.17-.13-.09-.26Zm-6.85-22.71s0-.02,0-.03c.01,0,.03,0,.04-.01,0,.02,0,.03.01.05-.01,0-.03,0-.04,0Zm1.88,16.25c-.03.13-.05.26-.1.38-.23.54-.49,1.07-.86,1.52-.08.09-.19.16-.32.27-.04-.12-.09-.19-.09-.26.01-.31-.02-.61-.09-.92-.05-.24.02-.51.04-.79-.06-.31-.13-.66-.2-1,.07-.05.12-.09.19-.15v-.37s.03-.07.05-.07c.15-.08.3-.15.49-.24.11.18.19.32.27.46.59.23.78.58.63,1.18Zm-.66-15.02s.01-.04.01-.04c.05.01.1.03.17.05-.1.08-.15.07-.18,0Zm.28.42s.02-.02.04-.03c.01.02.02.05.03.07-.01.01-.02.02-.04.03-.01-.03-.03-.05-.04-.08Zm.15,1.61s.05-.03.07-.05c.02.02.04.05.05.07-.03.02-.06.04-.1.06-.01-.03-.04-.06-.03-.08Zm.4-1.18c-.14.02-.21-.03-.21-.18.23-.03.23-.03.21.18Zm-.24-.4s0-.05,0-.07c.04,0,.09.02.13.03,0,.01,0,.02,0,.04-.04,0-.08,0-.13,0Zm.43,5.74s-.1-.06-.12-.09c-.03-.05.05-.14.11-.12.04.01.08.06.09.09,0,.03-.05.07-.08.12Zm.14,17.69s.02-.05.03-.07c0,.03.02.05.03.08-.02,0-.04,0-.06,0Zm.11-22.96s-.07-.02-.07-.04c0-.03.01-.07.02-.11.04.02.07.03.1.04-.01.04-.03.07-.04.11Zm.91-.98s-.03-.03-.04-.05c.01,0,.03-.02.04-.02.01,0,.02.02.03.03,0,.01-.01.02-.02.04Zm.79.33s-.08.03-.12.02c-.01,0-.02-.05-.03-.08.05-.01.09-.03.14-.04,0,.03,0,.06,0,.1Zm-4.01-3.84c.07,0,.17-.01.26,0,.07.01.14.05.23.09.02-.1.03-.18.04-.27.14-.11.28-.26.52-.21.05.05.1.11.16.19.12,0,.25,0,.37-.03.32-.07.61-.04.88.15.1.07.24.1.36.14.12.04.26.07.37.13.17.09.34.19.5.3.17.11.09.33.21.49-.24.11-.45.01-.66-.05-.22-.07-.44-.13-.66-.18-.11-.02-.22-.02-.39-.04.28.4.81.38,1.06.83-.16,0-.26-.02-.39-.02.04.1.07.18.11.27h-.04s.02,0,.02,0c.05.03.12.04.15.08.11.16.2.32.32.52-.03.06-.08.14-.12.2-.25.15-.49-.06-.77,0,.15.26.33.47.29.75-.11.04-.16-.08-.24-.1-.08-.03-.18-.01-.31-.02.08.17.13.3.2.42.07.12.16.23.25.35q-.13.08-.45.06c-.29-.3-.59-.62-.92-.96.09-.03.16-.06.25-.09-.11-.11-.22-.21-.32-.31.08-.35.5-.16.62-.45-.27-.18-.62.17-.88-.16.17-.04.32-.08.5-.13-.18-.21-.53-.22-.58-.58.07-.03.13-.07.2-.09.08-.03.16-.05.24-.07.19.15.34.37.61.36.2-.01.39.17.6.06-.02-.15-.12-.16-.22-.16-.3,0-.56-.07-.81-.27-.16-.13-.43-.13-.65-.18-.11-.03-.23,0-.29-.15.08-.12.36-.05.3-.33-.09,0-.19-.03-.27,0-.28.13-.51.07-.71-.14-.18.03-.33.06-.56.1.22-.19.38-.33.57-.5Zm-.74,20.39s.06.04.06.04c-.03.06-.07.11-.1.16-.03-.02-.06-.05-.09-.07.04-.04.08-.09.13-.13Zm-1.19-11.87q-.12.18-.31,0c.13-.13.23-.13.31,0Zm-.78,2.55s.02.12.02.12c-.06.02-.13.03-.2.04l-.02-.12c.07-.01.13-.02.2-.04Zm-.24,17.65s.07.03.1.05c-.01.02-.03.07-.04.07-.04,0-.07-.03-.11-.05.02-.03.04-.07.05-.07Zm-1.02-30.73s.02.05.03.07c-.01,0-.02.02-.03.03,0-.03-.02-.05-.03-.08,0,0,.02-.02.03-.03Zm-.09,1.17s.02.03.03.05c-.01,0-.03,0-.04-.01,0-.01,0-.02.01-.03Zm-11.8,27.99c-.05.25-.22.38-.43.47.04-.26.21-.45.33-.67.13.03.12.11.1.19Zm.58-8.43s-.08-.1-.12-.15c.15-.1.24-.08.31.09-.06.03-.14.08-.19.07Zm-.33-1.46c.08-.09.15-.17.21-.24.19.06.27.15.28.33-.16.09-.29.09-.48-.09Zm1.41,3.26s-.02-.05-.03-.08c0,0,.02-.02.03-.03.02.02.03.04.05.06-.02.02-.04.03-.05.05Zm1.55,6.81c-.04-.07-.08-.12-.07-.13.09-.1.16-.24.38-.13-.12.1-.2.17-.31.26Zm3.06-2.97s-.04-.05-.06-.08c.02-.01.05-.03.07-.04.01.02.03.04.04.07-.02.02-.03.04-.05.06Zm.31-20.42c-.24.06-.57.14-.9.22-.33.07-.32.45-.56.64-.33-.08-.54-.27-.61-.63.04-.06.09-.12.12-.17.24-.05.33.17.47.2.36-.04.59-.31.91-.37.32-.05.63-.16.95-.23.41-.08.8-.05,1.15.22-.26.07-.51.16-.78.18-.22.02-.44-.04-.75-.07Zm1.61,5.99c-.09-.14-.15-.23-.22-.35q.21.04.22.35Zm-.13,3.43c-.19-.01-.34-.1-.44-.34.12-.08.23-.15.33-.23.19.11.44.07.5.34-.07.19-.22.24-.39.23Zm.67-5.46c.06-.07.11-.14.2-.24.06.09.11.16.18.27-.15.03-.24.05-.34.06-.01-.03-.03-.06-.04-.09Zm.07,18.43s0-.03-.01-.05c.01,0,.03,0,.04,0,0,0,0,.02,0,.03-.01,0-.03,0-.04.01Zm.09-17.98c.08-.16.18-.24.34-.23-.09.09-.12.3-.34.23Zm.22-3.76c-.12.07-.25.04-.37-.03q-.19-.33-.57-.52c-.01-.06-.03-.13-.04-.2.21.1.43.19.64.3.16.08.35.09.48.27-.05.06-.08.13-.14.17Zm.29-1.2c-.06.16-.15.3-.39.29-.11-.11-.25-.25-.41-.4-.11.01-.24.03-.39.04-.08-.07-.16-.15-.24-.22-.23-.02-.47-.03-.68-.05-.22-.24-.03-.48-.1-.72-.17.25-.13.59-.4.77-.12-.07-.24-.15-.38-.23-.12.1-.23.19-.37.3-.06,0-.15-.02-.27-.04-.12.1-.26.22-.4.32-.11.08-.24.09-.38.04-.13-.04-.17-.14-.19-.27.24-.43.49-.87.75-1.33.11.05.2.09.28.13.09-.05.19-.1.32-.17.08.21.13.43.38.52.11-.17.22-.35.34-.54.12.04.22.07.34.11q.33-.16.86-.17c.05.13-.11.09-.13.16.2.09.39.17.65.29-.07-.13-.11-.21-.17-.3.05-.12.11-.25.18-.41-.1-.11-.21-.22-.31-.33-.31-.05-.6-.15-.87.04-.08.14-.14.3-.25.41-.06.06-.21.03-.34.05-.11-.18-.21-.34-.32-.52-.21-.1-.39.08-.63.11-.09-.03-.21-.07-.32-.11-.17.02-.26.11-.26.26,0,.11.04.22.07.31-.06.16-.18.2-.32.21-.14,0-.26-.07-.33-.18-.08-.12-.14-.25-.22-.4-.29-.12-.51-.31-.48-.72.24.04.46.08.73.13.21-.1.46-.22.74-.35.08.01.19.03.31.05.26-.08.46-.32.8-.28.07.07.16.16.26.25.16.15.34.21.53.07.18-.12.35-.13.55-.05.12.05.28,0,.48,0,.33.19.67.43.89.8.02.04.05.08.09.11.04.03.09.04.16.08.03-.23-.18-.39-.15-.66.02-.1.12-.18.33-.17.09.08.2.17.3.26.09.23.13.45-.02.72-.14.06-.29.12-.45.18.06.38.37.65.44,1.01-.08.08-.15.14-.24.23-.09-.07-.18-.14-.29-.22.06-.09.1-.16.15-.24,0-.01.01-.04,0-.04-.24-.24-.06-.62-.3-.88-.19.2-.36.38-.55.58.18.27.35.54.53.81.08.11.13.23.08.37Zm-3.04-1.55s.03-.07.07-.13c.04.05.09.08.09.12,0,.03-.04.07-.07.1-.03-.03-.08-.05-.09-.09Zm3.75.08s-.03.05-.05.04c-.02,0-.04-.03-.05-.04,0,0,.02-.03.02-.03.03,0,.05.02.08.03Zm-.69,8.66h.22c-.09.2-.17.18-.22,0Zm.21,7.22s-.02-.02-.02-.03c0,0,.02-.02.03-.02,0,0,.02.02.02.03-.01,0-.02.02-.03.02Zm.43-9.51c.1-.02.2-.04.34-.06-.11.18-.27.17-.41.2-.04-.11,0-.13.08-.15Zm.06,19.71c.26-.14.3-.13.33.14q-.22.05-.33-.14Zm.71-19.63s-.07-.03-.07-.03c0-.04.03-.07.04-.11.04.02.06.04.09.05-.02.03-.04.07-.06.09Zm.51,9.88c-.07.02-.11.05-.14.04-.03,0-.04-.07-.05-.11,0-.01.06-.05.07-.04.04.02.07.06.12.11Zm-.21-7.57h.04s0,.01,0,.01h-.04Zm.12-4.04q.02.13-.17.37c-.12-.01-.23-.03-.42-.05.24-.13.41-.23.59-.33Zm-.5.61c-.25.22-.56.3-.78.51-.08-.09-.14-.16-.23-.25.06-.06.13-.11.18-.18.06-.07.09-.16.14-.25.23.05.44.1.69.16Zm-.81-12.81c.26.46.19.97.35,1.42.11.02.18.03.26.04.01.36-.3.41-.56.61-.06-.08-.12-.17-.2-.29.01-.09.03-.22.04-.35.01-.13.03-.26.03-.39,0-.15-.19-.25-.11-.45.05-.12-.03-.3-.06-.48.08-.04.16-.07.24-.12Zm-3.95-.61q.19.11,0,.24v-.24Zm-1.07,2.51q.17.06.13.25c-.19-.05-.21-.13-.13-.25Zm.23,1c.09-.07.16-.13.27-.22-.11-.06-.2-.1-.32-.17.16-.1.31,0,.44-.04.01-.09.03-.18.04-.28.21-.06.38-.25.63-.16.07-.21-.03-.34-.16-.47v-.55c-.24-.07-.32-.26-.38-.48.07-.03.12-.06.2-.1.07.08.14.16.23.25.11-.04.23-.09.35-.13.09-.39-.06-.75-.14-1.13.09-.11.18-.21.28-.32.06.05.12.08.13.11.06.2.1.41.16.67.04-.11.06-.17.08-.23.03-.07.05-.14.09-.23.14.06.25.11.37.14.12.03.25.03.39.04.08.4-.08.83.26,1.14-.04.23-.08.45-.12.7.09.1.21.24.34.39-.02.11-.05.24-.08.37.14-.04.28-.08.42-.13.08.09.15.18.22.25v.31c-.13.19-.24.35-.35.5-.06.07-.12.17-.21.19-.31.1-.48.38-.75.54.05.1.09.17.13.25.28-.19.59-.24.82-.49.25.12.42-.04.6-.22.03.08.05.11.08.19.34,0,.7.04,1.03.13.12.16.23.3.36.47.02.2.04.44.05.68.01.2,0,.22-.27.33-.15-.2-.31-.41-.48-.64-.06-.01-.16-.07-.21-.04-.15.09-.3.09-.47.07-.13-.02-.26.02-.37.11-.12.1-.24.08-.36.01-.3.24-.6.48-.91.73-.15-.03-.2-.15-.2-.29,0-.29-.02-.58.16-.86-.11-.09-.21-.17-.31-.24-.09.04-.16.08-.25.13-.12-.12-.25-.24-.44-.25-.07,0-.15-.07-.21-.12-.14-.12-.31-.17-.49-.2-.14-.02-.27-.11-.41-.13-.14-.02-.29,0-.45,0-.05-.06-.1-.12-.17-.21-.17-.05-.41,0-.56-.3,0-.02,0-.11,0-.2.36-.14.65-.03.93.16Zm-1.33-3.5q.12.12.05.28c-.09-.01-.07-.09-.07-.14,0-.04.01-.09.02-.14Zm-.12,4.18c.21-.09.44-.12.69,0,.08.09.18.2.25.28.22.08.29-.1.43-.17h.45c.11.09.23.19.36.29.07-.02.15-.05.24-.08.07.06.13.15.21.17.35.09.36.39.4.65.03.17,0,.36,0,.54-.07.12-.18.17-.33.14-.21-.04-.42-.04-.6-.19-.12-.1-.26-.19-.44-.17-.08,0-.18-.06-.25-.12-.39-.32-.82-.45-1.35-.34-.1.09-.22.19-.34.3-.15.04-.26,0-.31-.15-.04-.11-.09-.21-.1-.32-.01-.09,0-.21.04-.28.17-.24.39-.44.66-.56Zm-.46-1.87s.03,0,.03.01c0,.01,0,.03-.01.04,0,0-.03,0-.03-.01,0-.01,0-.03.01-.04Zm-.14-.9c-.17.04-.15-.06-.18-.13.05.04.1.08.18.13Zm-.5.29c.18-.05.33-.13.43.07-.07.15-.11.29-.34.28-.03-.11-.06-.22-.1-.35Zm.17,1.68h-.03s.02-.03.02-.03v.03Zm-.12.19c.1-.02.21-.05.39-.09-.12.21-.27.26-.48.31.04-.1.05-.15.08-.23Zm.35,9.64c-.11-.05-.21-.11-.32-.14-.11-.04-.27.03-.36-.2.34-.08.53.08.68.34Zm-.63-4.94s.08.07.18.15h-.36c.1-.09.14-.15.18-.15Zm-.48-4.04s.04.02.07.03c-.01,0-.02.03-.03.03-.02,0-.05-.02-.07-.03,0,0,.02-.02.03-.03Zm-.73,9.4s0,.07,0,.07c-.06.01-.11.02-.18.03.04-.13.09-.17.18-.1Zm-1.18,1.9c.07-.05.11-.15.16-.24.06-.1.1-.2.16-.31.31-.05.52-.24.7-.53h-.47s-.03-.11-.06-.18c.34-.18.66-.36,1.02-.56h.39c.03-.12.06-.24.1-.36.19.06.36.12.52.15.16.03.32.02.43.03.22.21.39.37.57.54-.02.04-.04.09-.05.12-.15-.04-.29-.08-.43-.12.01.02.03.03.04.05.18.18.18.19.06.41.15,0,.26.08.36.2v.18c-.07.05-.13.1-.22.16.07.05.13.1.19.15.02.13-.05.21-.16.25-.1.04-.2.07-.3.11.06.05.11.1.16.15-.05.29-.36.12-.47.29-.03.09-.07.17-.11.28-.12-.02-.23-.03-.37-.05-.1.07-.22.17-.35.27-.03.09-.05.18-.07.26-.21.06-.38.05-.47-.16h-.65c-.06-.1-.14-.23-.19-.32-.17.05-.26.07-.35.1-.13-.11-.24-.22-.38-.34,0-.19.01-.39.22-.53Zm-1.87,5.49c.03.06.07.11.06.13-.02.03-.07.05-.11.06,0,0-.05-.05-.04-.06.02-.04.05-.07.09-.12Zm-.53,11.32s.05.01.08.02c-.01.02-.02.06-.04.06-.02,0-.05-.01-.07-.02.01-.02.02-.06.04-.06Zm-1.17-2.61s-.02-.03-.03-.04c.01,0,.03,0,.04,0,0,0,.01.02.02.03-.01,0-.03.02-.03.02Zm.48-16.03c-.09,0-.15.02-.24.03q.09-.18.24-.03Zm-.84,10.07c.14-.08.32-.05.43-.2.08-.11.16-.25.35-.27.11.39.26.76.33,1.15.07.4-.01.78-.14,1.17.33.41.06.91.24,1.44-.12-.07-.18-.09-.21-.13-.16-.23-.31-.46-.46-.69-.17-.26-.34-.52-.5-.78-.15-.25-.3-.5-.44-.73.02-.39.2-.68.4-.96Zm-4.3-14.83c-.03.09-.07.18-.12.31-.06-.19.04-.24.12-.31Zm-2.46,5.33s0-.02,0-.03c0,0,.01,0,.02,0,0,.01-.01.02-.02.03Zm1.47,2.09q-.09-.08.04-.18c-.01.06-.03.12-.04.18Zm.36-.77c-.08.11,0,.3-.21.38-.08-.1-.16-.21-.26-.35.03-.12.07-.26.1-.4.21-.08.35-.14.5-.19.24.27.22.38-.13.56Zm.28-2.88c-.05.13-.11.27-.14.41-.03.11,0,.23-.03.34-.04.14-.1.28-.15.43-.29.22-.49.49-.57.87-.04.21-.2.39-.31.59-.01.02-.06.01-.09.02-.15-.15.06-.3-.02-.49-.07.06-.14.11-.24.19,0-.29.27-.41.33-.64-.04-.07-.08-.16-.13-.26.28-.18.39-.47.45-.78.03-.13.09-.25.13-.37.06-.16.13-.33.17-.51-.21.17-.41.38-.5.61-.11.29-.34.47-.52.69-.12.16-.22.36-.45.42-.03-.12.04-.21.1-.3.15-.23.34-.44.48-.68.14-.24.35-.42.51-.64.26-.35.64-.58,1.05-.76.02,0,.06.01.12.03,0,.29-.08.56-.18.83Zm-1.4,1.67c-.05.05-.09.09-.14.15q-.01-.15.14-.15Zm2.61-4.62q.04.26-.3.71c-.08-.37.08-.54.3-.71Zm.02,22.4c-.13-.04-.18-.11-.08-.21.1-.09.17-.04.22.12-.06.04-.1.07-.13.09Zm.39-12.9s-.02-.02-.03-.03c.03-.03.06-.07.09-.1.01.02.03.03.04.05-.03.03-.06.05-.09.08Zm.98,2.56s-.03-.05-.04-.07c0,0,.02-.02.03-.03.01.02.03.05.04.07,0,0-.02.02-.03.03Zm1.15-11c-.1.06-.14.08-.17.11,0-.02-.02-.05-.03-.07.04,0,.07-.01.19-.03Zm-.55.25c.03.24.03.25-.25.43-.02-.19.1-.3.25-.43Zm-.27.45c-.06.06-.13.1-.23,0h.23Zm-.36-.52s.04,0,.07,0c0,.04-.01.08-.02.12-.02,0-.04,0-.06-.01,0-.04,0-.08.01-.12Zm-.2-.16s0,.02,0,.03c-.01,0-.03,0-.04.01,0-.02,0-.03-.01-.05.01,0,.03,0,.04,0Zm-.28,8.48q.06.19-.09.31c.03-.11.06-.21.09-.31Zm-.18,1.07l-.02.03v-.03s.02,0,.02,0Zm-.59-2.49c.12.04.13.12.12.2-.03.14-.07.28-.1.41-.13,0-.14-.07-.14-.15,0-.12.07-.25-.04-.36.06-.04.12-.08.17-.11Zm.07,1.02c.1-.14.19-.29.32-.51.03.13.06.19.04.23-.1.33-.27.51-.71.67.12-.13.24-.25.34-.39Zm-1.17,12.26s.03.04.04.07c-.02.02-.04.04-.06.06-.02-.03-.04-.06-.06-.1.03-.01.06-.03.08-.03Zm-2.35.7s.06.03.09.05c-.05.11-.1.22-.18.38-.07-.22.07-.31.09-.43Zm1.23-.01c0,.5-.21.92-.57,1.24-.21.19-.33.39-.41.64-.06.2-.14.39-.22.59-.03,0-.06,0-.09,0-.03-.09-.07-.18-.07-.27-.02-.28-.04-.55-.03-.83,0-.11.03-.24.09-.32.33-.4.68-.78,1.03-1.17.04-.04.1-.07.15-.09.12.04.12.12.12.2Zm-1.11-5.29s-.08.03-.12.04c0-.03-.03-.07-.02-.08.03-.03.07-.04.11-.06,0,.03.02.06.03.1Zm-1.96-1.34s0,0,0,0c0,0,0,0,0,0h0s0,.04,0,.04v-.03Zm13.46,21.81s-.01,0-.02,0c0,0,0,0,0,.01,0,0,0,0,0,0,0,0,0,0,0,0Z"/>
  </g>
</svg>