<?xml version="1.0" encoding="UTF-8"?>
<svg xmlns="http://www.w3.org/2000/svg" viewBox="0 0 108 108">
  <defs>
    <style>
      .cls-1 {
        fill: #282828;
      }

      .cls-1, .cls-2 {
        stroke-width: 0px;
      }

      .cls-2 {
        fill: #e9d5bd;
      }
    </style>
  </defs>
  <g id="bg">
    <circle class="cls-1" cx="54" cy="54" r="54"/>
  </g>
  <g id="icon">
    <path class="cls-2" d="m43.16,66.96c-.15-.07-.31-.03-.51-.03-.3.83-.6,1.65-.91,2.48.06.01.09.03.12.03.17,0,.34,0,.52,0,.06-.11.12-.22.19-.33.25,0,.49-.01.7,0,.07.13.12.23.17.33.2,0,.38.03.57-.03-.09-.43-.28-.82-.41-1.22-.14-.41-.29-.81-.45-1.23Zm-.38,1.55c-.03-.18.14-.3.1-.49.13.06.08.18.14.23.07.07.09.15.07.25-.11.05-.21.05-.31,0Zm9.52-10.88c.11,0,.22-.02.34.06v.99c0,1.09,0,2.18,0,3.27,0,.11-.02.22.04.32h3.69c0-.15.02-.28.02-.4,0-4.13,0-8.26,0-12.4,0-.09,0-.18,0-.27,0-.07,0-.15-.03-.22-.07-.21-.13-.41-.22-.61-.13-.3-.3-.57-.56-.77-.21-.16-.4-.35-.66-.45-.1-.04-.2-.07-.3-.12-.27-.14-.55-.2-.86-.2-2.87,0-5.74,0-8.61,0-.33,0-.65,0-.97.09-.2.06-.38.14-.56.22-.19.08-.33.24-.5.35-.26.16-.45.4-.57.66-.12.26-.29.52-.27.83,0,.03,0,.06-.02.08-.1.17-.08.35-.08.53,0,4.08,0,8.15,0,12.23,0,.06,0,.13,0,.19,0,.21.05.25.26.25,1.11,0,2.22,0,3.32,0,.05,0,.1-.02.18-.03v-.33c0-1.31,0-2.62,0-3.92,0-.11,0-.21,0-.34.14,0,.25-.02.37-.02,1.22,0,2.43,0,3.65,0,.77,0,1.54,0,2.32,0Zm-6.06-3.74c-.09,0-.18.02-.26-.05-.04-.24-.04-2.88,0-3.1.09-.08.21-.05.31-.05,1,0,2,0,3,0s1.98,0,2.97,0c.36,0,.36,0,.36.36,0,.84,0,1.69,0,2.53,0,.29,0,.3-.31.3-2.02,0-4.05,0-6.07,0Zm-1.19,13.67c.13-.06.27-.08.38-.03.09.04.16.13.23.21h.57c.07-.14-.03-.21-.07-.29-.14-.32-.38-.48-.72-.51-.1,0-.2,0-.3,0-.22-.01-.38.1-.52.23-.18.17-.3.38-.29.64,0,.23.01.45,0,.68-.01.2.03.37.13.54.11.19.27.34.48.4.14.04.31.02.46.03.3.02.52-.12.68-.36.09-.12.2-.25.16-.43-.21-.05-.42-.03-.61-.01-.05.06-.1.1-.14.15-.09.11-.22.09-.33.05-.09-.03-.16-.11-.16-.23,0-.3,0-.6,0-.9,0-.06.02-.12.04-.18Zm3.27.61c-.06-.21-.17-.41-.23-.63-.06-.22-.13-.43-.26-.62-.12,0-.23,0-.34,0-.12,0-.16.05-.19.16-.02.06-.01.13-.04.18-.12.28-.22.56-.32.85-.05.14-.07.29-.14.41-.15.25-.17.55-.31.8-.01.02,0,.07.01.11h.65c.02-.09.02-.16.06-.21.03-.05.09-.11.14-.11.23,0,.47-.04.69.02.02.1.05.19.07.28.21.04.42.04.65,0-.05-.22-.16-.42-.21-.63-.05-.22-.17-.41-.24-.62Zm-.77.35c-.09-.21.08-.33.15-.49.04.15.08.3.13.47-.08.06-.18.05-.28.02Zm-14.45-.85c-.05-.4-.38-.73-.78-.74-.18,0-.38-.03-.54.04-.24.1-.42.29-.51.55-.07.2-.07.41-.1.62.03.25.05.5.11.75.03.11.1.23.19.31.2.17.42.31.71.26.02,0,.04,0,.05,0,.35.04.57-.15.76-.41.04-.05.08-.11.08-.16.04-.22.06-.45.09-.67,0-.02,0-.04,0-.05-.02-.16-.05-.32-.07-.48Zm-.59.86c0,.1-.07.2-.13.29-.07.1-.32.09-.41,0-.08-.08-.11-.17-.11-.27,0-.24,0-.47,0-.71,0-.22.14-.39.38-.33.04.01.09.02.13.02.23.33.17.66.14.99Zm-7.75-1.6c-.17,0-.34-.04-.51.03-.03.37.01.73-.08,1.1-.09-.16-.19-.32-.29-.48-.12-.19-.24-.38-.36-.56-.03-.04-.08-.09-.12-.09-.17-.01-.34-.05-.5.03-.04.38-.03,2.25.01,2.45.26.05.38.04.6-.02,0-.08.01-.17.01-.26,0-.21,0-.42,0-.63,0-.06,0-.13.1-.14.17.26.34.52.51.78.04.07.08.14.13.2.02.03.07.07.1.08.17.02.34.05.51-.03,0-.05.01-.1.01-.14,0-.7,0-1.4,0-2.09,0-.04,0-.07,0-.11,0-.07-.05-.12-.12-.12Zm1.45.02c-.31.82-.61,1.63-.89,2.46.21.06.4.03.57.03.14-.08.16-.21.21-.32h.73c.06.11.11.21.17.32.2,0,.4.04.61-.03-.3-.83-.59-1.64-.89-2.47-.17,0-.34-.03-.51.02Zm.08,1.55c0-.17.14-.27.15-.44.14.13.21.25.18.43-.1.07-.21.06-.33,0Zm-1.89-25.33c.45-.18.89-.37,1.35-.52.09-.03.17-.1.27-.12.2-.03.37-.13.55-.2.12-.04.26-.05.37-.14.28-.03.51-.22.79-.25.23-.17.52-.18.77-.3.1-.05.21-.09.32-.13.32-.11.66-.18.97-.33.1-.05.21-.1.33-.12.29-.04.52-.22.81-.27.16-.03.31-.12.47-.17.17-.06.35-.07.51-.15.13-.06.27-.05.38-.12.1-.06.2-.06.31-.09.11-.03.22-.08.33-.12.19-.06.38-.12.57-.18.29-.09.58-.19.87-.27.17-.05.36-.06.52-.14.23-.11.48-.12.71-.22.14-.06.3-.06.44-.12.22-.1.45-.12.67-.19.19-.06.39-.06.57-.14.25-.11.52-.14.77-.21.2-.06.41-.09.6-.17.18-.08.38-.09.56-.16.2-.08.42-.09.63-.14.03,0,.05-.02.07-.03.08-.02.15-.05.23-.07.21-.05.43-.07.63-.14.13-.05.27-.05.39-.09.14-.05.27-.08.41-.11.18-.04.36-.1.56-.11.02,0,.04,0,.05-.02.07-.07.17-.07.26-.07.12,0,.23-.01.34-.08.05-.03.12-.03.18-.04.06-.01.13-.02.19-.03.28-.06.56-.12.85-.19.25-.06.5-.15.77-.16.15-.09.32-.06.47-.1.19-.05.38-.11.58-.11.05,0,.1-.04.15-.05.04-.02.08-.03.13-.04.28-.04.56-.06.82-.13.21-.05.42-.1.64-.1.02,0,.04,0,.05-.01.13-.12.29-.08.44-.1.28-.04.56-.13.86-.12.02,0,.04,0,.05-.02.12-.08.26-.07.4-.07.1,0,.21,0,.29-.04.12-.05.24-.08.37-.08.11,0,.22-.02.32-.04.3-.05.6-.11.91-.16.04,0,.07,0,.11,0,.37,0,.72-.17,1.1-.15.02,0,.04,0,.05-.01.13-.08.28-.07.42-.07.13,0,.26,0,.38-.04.13-.05.26-.06.4-.07.13,0,.27,0,.38-.04.16-.07.32-.07.48-.08.14,0,.3,0,.43-.04.15-.05.3-.06.45-.07.15,0,.3,0,.43-.04.2-.06.39-.07.59-.07.1,0,.21.01.3-.03.2-.1.41-.08.61-.09.14-.01.28,0,.41-.04.2-.06.41-.06.62-.07.18,0,.37.01.54-.03.34-.08.68-.07,1.03-.08.19,0,.38-.03.57-.05.07,0,.14-.04.21-.05.51-.04,1.01-.04,1.52-.1.64-.08,1.28-.03,1.93-.11.8-.09,1.61,0,2.41-.13.19-.03.38-.02.57-.02,1.06,0,2.12-.01,3.19-.02.12,0,.23,0,.4-.05-.39-.05-.72-.1-1.06-.12-.38-.03-.76-.02-1.14-.04-.47-.03-.94.05-1.4-.09-.02,0-.05,0-.08,0-.16,0-.33-.01-.49-.01-1.31-.01-2.62-.03-3.92-.03-1.33,0-2.65,0-3.98.02-.38,0-.76-.04-1.13.09-.03.01-.07,0-.11,0-.43,0-.85.01-1.28.02-.28,0-.56,0-.84.04-.4.06-.79.06-1.19.07-.26,0-.53,0-.79.05-.24.04-.49.05-.73.06-.16,0-.33,0-.49,0-.13,0-.26,0-.38.04-.25.07-.5.07-.75.08-.21,0-.42.02-.62.04-.27.02-.54.05-.81.07-.19.02-.38.02-.57.04-.24.02-.49.05-.73.07-.1.01-.21,0-.29.04-.17.08-.35.07-.53.08-.13,0-.26,0-.38.03-.19.07-.39.07-.59.08-.11,0-.23,0-.32.03-.19.07-.39.07-.59.08-.1,0-.21-.01-.3.03-.19.09-.39.08-.58.09-.12,0-.24,0-.35.04-.16.06-.32.06-.48.07-.1,0-.21,0-.3.03-.17.07-.33.07-.51.08-.14,0-.27,0-.4.08-.03.02-.07.03-.1.03-.28.01-.55.05-.83.1-.24.05-.5.05-.75.1-.23.05-.47.03-.69.14-.05.02-.11.01-.16.02-.06,0-.13,0-.19.02-.16.07-.33.08-.51.09-.08,0-.16.03-.24.04-.12.02-.23.05-.35.06-.33.02-.63.18-.96.15-.16.09-.33.09-.5.1-.05,0-.1.03-.16.04-.08.02-.16.05-.23.05-.25,0-.48.17-.73.14-.01,0-.03.02-.05.02-.09.02-.17.06-.26.06-.26.01-.5.15-.77.13-.02,0-.04,0-.05.02-.09.08-.2.07-.31.08s-.21.05-.32.07c-.24.05-.48.08-.71.14-.11.03-.23.03-.34.09-.06.03-.14.04-.21.05-.06.01-.13,0-.19.03-.12.06-.24.07-.37.08-.06,0-.12.02-.19.04-.11.02-.23.05-.34.07-.04,0-.1,0-.13.03-.1.09-.22.08-.33.09-.08,0-.16.02-.24.04-.1.02-.19.05-.29.07-.05.01-.11.02-.16.04-.09.02-.17.05-.26.06-.12.02-.24.03-.36.09-.16.08-.34.11-.52.13-.22.02-.41.15-.63.13-.02,0-.04,0-.05.02-.08.08-.18.07-.28.08-.06.01-.12.02-.19.04-.2.06-.39.14-.59.17-.26.03-.5.16-.76.2-.22.04-.44.11-.65.17-.05.01-.1.03-.15.05-.09.02-.17.05-.26.07-.05.01-.12,0-.16.04-.16.11-.38.05-.53.17-.22-.02-.39.12-.59.16-.23.05-.45.16-.7.19-.04,0-.08.03-.12.05-.05.02-.1.05-.15.06-.18.05-.37.08-.54.15-.11.05-.24.03-.33.09-.1.07-.21.1-.33.11-.04,0-.09.03-.13.04-.16.05-.32.11-.49.16-.12.04-.23.1-.35.12-.27.05-.51.16-.66.39-.14.22-.34.4-.49.6-.14.19-.29.36-.44.54-.29.35-.6.68-.89,1.03-.26.31-.5.62-.76.93-.27.33-.56.65-.84.98-.28.34-.55.68-.83,1.02-.25.3-.51.6-.81.95.1,0,.15.01.18,0,.05-.02.09-.07.14-.08.32-.1.6-.3.91-.42.22-.08.4-.23.63-.29.19-.05.37-.13.54-.23.28-.18.6-.28.9-.42.39-.18.78-.35,1.18-.5.32-.12.62-.27.93-.41.1-.04.19-.09.29-.13.31-.13.62-.25.92-.37.24-.1.47-.21.71-.3.31-.12.63-.25.94-.37Zm3.29,23.78c-.05.23-.05.33.01.53.18.07.39-.02.6.07,0,.08.01.17.01.26,0,.45,0,.91,0,1.36,0,.08.01.16.02.25h.57c0-.11.02-.2.02-.3,0-.43,0-.87,0-1.3,0-.1-.02-.2.05-.28.19-.07.4.03.59-.08,0-.17.03-.34-.01-.5-.25-.06-1.66-.05-1.88,0Zm-6.06-21.01c-.06,0-.13-.02-.16,0-.1.08-.23.1-.34.14-.21.09-.42.2-.63.29-.2.09-.43.14-.62.25-.31.19-.65.29-.96.47-.11.06-.22.1-.34.16-.34.16-.69.33-1.03.49-.18.08-.37.14-.53.25-.25.17-.56.23-.79.43-.31.08-.57.25-.85.39-.55.29-1.11.57-1.66.86-.09.05-.18.1-.24.17-.26.38-.6.68-.87,1.05-.23.31-.5.58-.74.87-.34.41-.69.82-1.03,1.24-.2.24-.39.49-.59.72-.35.42-.7.83-1.05,1.25-.14.17-.3.33-.43.51-.25.34-.58.61-.79.98-.32.27-.53.62-.8.93-.39.45-.77.91-1.15,1.37-.31.38-.63.75-.94,1.13-.45.53-.88,1.08-1.34,1.6-.06.07-.18.16-.15.29.02,0,.03.01.04,0,.4-.25.79-.52,1.17-.8.41-.3.84-.56,1.24-.87.31-.24.66-.45.99-.67.54-.35,1.1-.69,1.63-1.06.32-.22.66-.42.98-.63.41-.27.82-.54,1.25-.78.57-.33,1.13-.68,1.68-1.03.32-.2.63-.41.96-.57.54-.27,1.06-.59,1.59-.88.4-.22.8-.46,1.2-.68.39-.22.79-.41,1.18-.64.26-.16.53-.29.79-.43.28-.16.57-.31.86-.47.27-.15.55-.29.83-.43.32-.16.65-.32.98-.49.23-.12.46-.24.69-.37,0-1.65,0-3.28,0-4.92,0-.04-.01-.09-.02-.14Zm28.85,21c-.39-.04-.78-.02-1.17-.02-.02,0-.03.02-.06.03,0,.03-.02.06-.02.1,0,.75,0,1.5,0,2.26,0,.03.02.07.02.1.03,0,.06.02.08.02.34,0,.69,0,1.03,0,.17,0,.3-.1.43-.19.23-.16.33-.4.34-.67,0-.16,0-.33,0-.49,0-.23,0-.45-.1-.66-.11-.26-.3-.45-.57-.47Zm-.02,1.7c0,.11-.12.22-.23.23-.1,0-.2,0-.29,0-.05-.22-.06-1.05-.02-1.35.12-.07.25-.02.36,0,.1.02.16.11.17.22,0,.3,0,.6,0,.9Zm-13.5-6.38s.07,0,.11,0c.8,0,1.6,0,2.4,0,.13,0,.23-.03.32-.16v-14.9c0-.35,0-.36-.37-.36-1.02,0-2.03,0-3.05,0-.05,0-.11,0-.16,0-.14,0-.2.06-.22.19-.01.09,0,.18,0,.27v9.67c0,.1,0,.2,0,.3,0,.04-.02.08-.04.12-.04,0-.08,0-.09-.02-.18-.19-.37-.39-.54-.59-.21-.25-.39-.51-.6-.76-.32-.39-.65-.76-.97-1.15-.26-.32-.51-.64-.77-.96-.27-.33-.55-.65-.82-.98-.11-.13-.2-.28-.31-.4-.2-.2-.37-.41-.54-.63-.16-.2-.34-.38-.47-.61-.31-.26-.52-.61-.79-.91-.12-.13-.23-.27-.34-.41-.22-.26-.43-.53-.65-.79-.15-.18-.31-.35-.46-.52-.06-.07-.11-.16-.18-.23-.27-.27-.52-.55-.81-.78-.25-.2-.52-.42-.85-.5-.11-.12-.28-.06-.4-.14-.1-.06-.2-.07-.31-.08-.1-.01-.2-.03-.29-.05-.13-.02-.27-.05-.4-.05-.64,0-1.27,0-1.91,0-.09,0-.18,0-.28.02-.04.24-.05,15-.01,15.28.1.1.23.12.37.12,1.02,0,2.03,0,3.05,0,.05,0,.09,0,.14,0,.14-.01.22-.08.23-.22.01-.1,0-.2,0-.3,0-2.84,0-5.68,0-8.53,0-.12,0-.24,0-.35,0-.04.03-.08.06-.13.04.04.07.06.09.08.26.3.52.59.77.89.21.25.42.51.63.76.26.32.51.65.78.96.29.34.59.67.87,1.01.31.37.61.75.92,1.12.27.32.54.64.81.96.37.44.73.88,1.1,1.31.25.3.55.57.81.87.22.24.49.45.74.66.19.15.39.3.61.4.21.1.42.2.63.28.16.06.33.1.5.12.23.03.47,0,.69.1Zm-6.92,4.68c-.03.29-.01.56-.01.83,0,.28,0,.56,0,.84,0,.27-.02.54.02.82.21.02.4.04.6-.02.01-.05.03-.09.03-.14,0-.72,0-1.43,0-2.15,0-.06-.03-.12-.04-.19h-.59Zm8.18,1.89c-.07-.1-.09-.23-.13-.35-.06-.17-.11-.35-.19-.52-.1-.2-.19-.41-.24-.62-.04-.16-.1-.28-.19-.42-.15.01-.31-.03-.46.04-.05.18-.18.32-.18.52-.15.28-.21.6-.33.9-.03.07-.06.15-.09.22-.06.16-.09.33-.17.48-.06.11-.07.22-.07.34.22.02.44.04.64-.02.03-.11.05-.19.08-.3.22,0,.42,0,.63,0,.13,0,.2.07.24.18.02.05.02.1.04.15.22,0,.43.03.63-.02,0-.05.01-.1,0-.12-.11-.14-.09-.32-.19-.47Zm-1.08-.33c.01-.09.03-.19.05-.28.01-.06.04-.12.12-.12.08,0,.1.07.11.13.02.09.03.17.04.26q-.15.05-.32.01Zm-2.1-1.55c0,.19,0,.37,0,.55-.01.17.04.35-.05.54-.24-.37-.47-.73-.72-1.11-.1,0-.21-.01-.32-.01-.22,0-.26.03-.26.25,0,.69,0,1.38,0,2.07,0,.06.02.12.03.18.21.03.4.04.62,0,0-.19,0-.37,0-.55,0-.18-.04-.36.05-.56.14.21.25.4.38.58.13.19.22.41.38.55h.5c.05-.26.05-2.26,0-2.49-.2-.02-.4-.04-.62.02Zm5.52,1.94c-.34,0-.66-.01-1.01-.02,0-.11-.02-.2-.02-.29,0-.44,0-.87,0-1.31,0-.06,0-.13,0-.19,0-.1-.05-.16-.15-.16-.16,0-.32-.03-.5.03,0,.28,0,.55,0,.82,0,.28,0,.56,0,.84,0,.27-.03.54.03.83h.55c.19,0,.38,0,.57,0,.18,0,.36.04.54-.04,0-.09,0-.17,0-.25,0-.08-.01-.16-.02-.26Zm60.67-21.69c0-.07-.01-.14-.02-.23h-.29c-.15.12-.13.36-.34.44-.07-.15-.14-.29-.21-.43-.13-.03-.24-.05-.37.04,0,.35,0,.72,0,1.08,0,.02,0,.04,0,.05.02.07.11.13.19.12.09,0,.11-.08.12-.15,0-.1-.01-.21.02-.32.09.06.16.12.24.16.1.05.16-.08.26-.1.01.13.02.25.04.39.07.01.11.03.15.02.13,0,.16-.04.18-.15,0-.04,0-.09,0-.14,0-.26,0-.52,0-.79Zm-10.6,20.33c.13-.02.28-.07.39.08.07.1.17.15.3.13.11-.01.22,0,.34,0,0-.24-.1-.5-.23-.61-.3-.24-.66-.27-1-.17-.32.1-.52.32-.6.69-.09.43,0,.84.04,1.26,0,.03.04.06.05.09.16.27.39.43.71.44.25.01.5,0,.72-.15.21-.13.33-.38.29-.66-.15,0-.3,0-.45,0-.09,0-.16.03-.2.12-.08.15-.21.13-.33.1-.13-.04-.21-.13-.22-.28,0-.26,0-.53,0-.79,0-.13.06-.25.18-.27Zm-1.42-.57c-.19-.05-.38-.03-.59,0,0,.07-.01.12-.01.16,0,.76,0,1.52,0,2.28,0,0,0,.01.02.02,0,0,.01.01.02.03.18.01.37.04.56-.02.01-.05.03-.09.03-.13,0-.74,0-1.48,0-2.22,0-.03-.02-.07-.04-.1Zm-1.98-.03c-.26,0-.52,0-.79,0-.27,0-.29.02-.29.3,0,.65,0,1.3,0,1.96,0,.08.01.16.02.24.07.01.12.03.17.03.26,0,.52,0,.79,0,.15,0,.29-.02.44-.1.3-.16.45-.39.47-.72.02-.3,0-.6,0-.9,0-.15-.04-.29-.13-.4-.17-.23-.38-.41-.69-.4Zm.15,1.66c-.04.23-.11.29-.34.29-.06,0-.13,0-.2,0-.04-.24-.05-1.07-.01-1.36.13-.07.26-.02.39,0,.09.02.15.09.16.19.04.29.06.58,0,.86Zm-1.85-1.08c.05-.2.04-.37.01-.54-.23-.06-1.42-.06-1.66,0-.05.22-.05,2.23,0,2.47.03,0,.06.02.1.02.48,0,.96,0,1.44,0,.04,0,.08-.02.12-.04v-.49c-.34-.08-.69.01-1.04-.06,0-.14-.05-.27.08-.4.13,0,.28,0,.42,0,.14,0,.29.04.43-.06,0-.12,0-.23,0-.35,0-.11-.04-.15-.15-.15-.17,0-.34,0-.52,0-.08,0-.16-.01-.25-.02v-.33c.35,0,.68-.01,1.02-.02Zm-2.39-.58c-.15,0-.3,0-.44,0-.1,0-.16.06-.2.15-.13.27-.26.53-.39.78-.1.03-.15.01-.19-.07-.11-.24-.23-.48-.35-.72-.04-.08-.1-.13-.19-.14-.14,0-.27,0-.41,0-.1,0-.14.05-.15.16,0,.04,0,.07,0,.11,0,.67,0,1.34,0,2.01,0,.07.02.14.03.21.21.04.41.05.62,0v-.28c0-.21,0-.42,0-.63,0-.04.03-.09.05-.16.11.2.21.36.3.53h.4c.05-.09.1-.17.15-.26.04-.09.11-.12.2-.16.04.34-.02.65.04.97h.54c0-.06.02-.1.02-.14,0-.73,0-1.47,0-2.2,0-.05-.02-.1-.04-.17Zm-30.27,1.96c-.18,0-.36.05-.54-.05,0-.06-.01-.11-.01-.17,0-.14.06-.2.19-.21.07,0,.15,0,.22,0,.12,0,.24,0,.35,0,.14-.01.19-.06.19-.21,0-.03,0-.05,0-.08,0-.2-.07-.27-.28-.28-.15,0-.31,0-.46,0-.07,0-.14-.03-.22-.04,0-.11,0-.19.01-.3.11,0,.2-.02.28-.02.2,0,.4,0,.6,0,.06,0,.12-.02.17-.02.04-.29.04-.36-.03-.57h-.53c-.19,0-.38,0-.57,0-.18,0-.36-.03-.53.03-.04.23-.04,2.2,0,2.47.33.04,1.47.03,1.68-.02,0-.16.02-.33-.02-.52-.18,0-.35,0-.53,0Zm25.96-.93c-.2-.05-.4-.09-.6-.13-.06-.09-.07-.18-.03-.28.19-.09.38-.06.56-.02.15.04.26,0,.35-.12.05-.06.1-.12.14-.18-.09-.19-.26-.25-.42-.28-.21-.04-.43-.01-.65-.02-.19,0-.33.11-.45.22-.12.12-.22.28-.25.47-.03.2.07.37.13.55.02.05.08.1.14.12.14.05.26.16.42.16.11,0,.21.04.32.07.11.03.2.08.22.2-.05.11-.13.18-.25.18-.21,0-.42.03-.6-.1-.03-.02-.07-.01-.11-.02-.11.12-.27.2-.31.4.09.06.18.13.28.19.05.03.11.06.17.06.22.01.43.02.65.01.14,0,.28-.03.41-.11.2-.11.33-.25.35-.47.02-.14,0-.29-.01-.43-.02-.25-.24-.42-.47-.48Zm20.33-21c-.05,0-.11,0-.16.01-.05.02-.1.05-.12.09-.03.06.01.12.07.16.07.04.14.07.23.11,0,.15,0,.31,0,.46,0,.16-.04.32.05.49h.25c.08-.17.04-.33.05-.48.01-.15-.02-.3.03-.46.09-.04.18-.08.29-.12,0-.08,0-.16-.02-.25-.24,0-.45,0-.67,0Zm-5.43,4.1c0,3.59,0,7.17,0,10.76,0,.12,0,.23,0,.32.13.11.25.13.38.13,1.04,0,2.07,0,3.11,0,.14,0,.25-.03.37-.15v-14.88q0-.39-.39-.39c-1.23,0-2.45,0-3.68,0-1.39,0-2.78,0-4.17,0-.38,0-.76.06-1.13.13-.21.04-.4.14-.61.2-.24.06-.46.18-.68.3-.33.18-.63.4-.9.66-.1.1-.15.1-.26.04-.07-.04-.14-.09-.2-.14-.37-.35-.81-.61-1.28-.8-.15-.06-.3-.16-.49-.14-.05,0-.1-.03-.15-.05-.05-.02-.1-.05-.15-.06-.38-.04-.75-.12-1.14-.12-2.62,0-5.23,0-7.85,0-.05,0-.11,0-.16,0-.15,0-.21.06-.23.21,0,.1,0,.2,0,.3v14.41c0,.07,0,.15,0,.22,0,.11.02.21.13.3.09,0,.19,0,.29,0,1.01,0,2.02-.01,3.02-.02.36,0,.38.02.38-.38,0-1.95,0-3.91,0-5.86,0-1.67,0-3.34,0-5.01,0-.11-.03-.22.04-.33.06,0,.12-.02.18-.02,1.17,0,2.34,0,3.51,0,.2,0,.41-.01.59.04.21.06.43.13.62.25.3.17.54.42.72.71.2.3.25.67.33,1.02.03.12.01.25.01.38,0,2.95,0,5.9,0,8.85,0,.33,0,.34.33.34,1.04,0,2.07,0,3.11,0,.05,0,.09,0,.14,0,.12-.01.17-.06.18-.19,0-.08,0-.16,0-.25,0-3.01,0-6.01,0-9.02,0-.34.07-.67.22-.96.1-.2.22-.4.38-.57.28-.3.67-.4,1.02-.58.02-.01.05,0,.08,0,.21,0,.42-.02.63-.02,1.14,0,2.27,0,3.41,0,.08,0,.16.01.26.02,0,.13,0,.25,0,.36Zm1.15,15.89c-.06.37.01.73-.05,1.12-.08-.08-.14-.13-.18-.2-.09-.12-.17-.26-.25-.38-.12-.19-.22-.41-.4-.56-.16,0-.32-.03-.49.03-.04.28-.01.55-.02.82,0,.28,0,.56,0,.84,0,.27-.03.54.03.82.19,0,.37.04.55-.02.03-.36-.01-.71.03-1.1.11.12.22.19.27.28.16.3.37.56.54.84h.51c.01-.06.02-.08.02-.11,0-.74,0-1.49,0-2.23,0-.05-.02-.1-.03-.16-.18-.02-.35-.03-.53,0Zm-2.07,0h-.54c-.05.29-.02.56-.03.83,0,.28,0,.56,0,.84,0,.27-.03.54.02.82h.55c.01-.06.03-.1.03-.14,0-.74,0-1.49,0-2.23,0-.03-.02-.07-.04-.11Zm4.98.56c.04-.2.03-.37,0-.59-.55,0-1.09,0-1.65,0-.05.28-.05,2.28,0,2.5.28.04,1.44.04,1.64-.01.04-.26.04-.3-.02-.52-.15,0-.32,0-.48,0-.17,0-.34.04-.51-.04,0-.07-.02-.13-.01-.19,0-.15.04-.19.2-.19.17,0,.34,0,.52,0,.07,0,.14-.02.22-.04,0-.13,0-.24,0-.34,0-.15-.04-.19-.2-.19-.18,0-.36,0-.54,0-.06,0-.12-.03-.17-.04-.02-.12-.04-.21.03-.32.32,0,.65,0,.98-.01Zm-36.46-.58c-.06,0-.13,0-.19,0-.34-.04-.57.15-.77.38-.08.09-.14.21-.14.35,0,.14-.02.29-.03.47,0,.15.02.34.03.53.02.23.12.42.29.58.16.15.33.24.55.22.11-.01.22,0,.33,0,.04,0,.1,0,.13-.02.13-.08.28-.15.37-.26.13-.17.24-.37.25-.59.01-.36.05-.72-.09-1.07-.14-.34-.38-.56-.73-.58Zm.15,1.73c0,.09-.14.21-.24.22-.15.02-.28-.03-.32-.14-.04-.14-.1-.26-.1-.42,0-.27.03-.52.14-.78.08-.01.17-.03.25-.03.13,0,.25.11.26.23,0,.31,0,.62,0,.92Zm5.73-.67c-.17-.06-.35-.1-.52-.12-.13-.02-.24-.05-.3-.19.03-.11.11-.18.23-.18.12,0,.24-.02.35.02.19.08.31,0,.42-.14.05-.05.08-.11.12-.18-.13-.15-.28-.25-.46-.26-.22-.02-.45,0-.68,0-.06,0-.13.02-.18.05-.29.18-.46.43-.41.79,0,.03,0,.05,0,.08.03.25.29.52.54.57.19.03.39.08.58.12.05.12.06.22-.01.31-.35.06-.44.05-.77-.07-.04-.02-.12-.01-.15.02-.1.1-.24.17-.28.33.09.19.31.18.44.29.22,0,.43.01.65.02.23,0,.41-.1.59-.23.15-.11.2-.26.24-.41.06-.24-.03-.46-.18-.65-.06-.07-.13-.16-.22-.19Zm-3.36-1.07c-.19,0-.38,0-.57,0-.18,0-.36-.03-.56.04,0,.81,0,1.63,0,2.47.23,0,.41.05.6-.03.05-.29-.02-.57.05-.86.08-.01.16-.03.24-.04.12,0,.24,0,.35,0,.31,0,.36-.05.34-.37,0-.18-.07-.24-.25-.25-.15,0-.31,0-.46,0-.08,0-.17,0-.24-.09,0-.07,0-.15.01-.26.11,0,.2-.02.28-.02.2,0,.4,0,.6,0,.06,0,.12-.02.18-.03.02-.19.04-.37-.02-.57h-.55Zm-5.61.04c-.05.14-.1.26-.15.39-.05.12-.12.23-.19.37-.19-.25-.26-.54-.43-.78-.2-.02-.41-.03-.63.02.02.07.02.13.05.18.16.3.33.59.48.89.12.23.21.48.18.75-.01.15,0,.31,0,.46,0,.06.02.12.03.18.21.03.4.04.61,0,0-.25.01-.48,0-.72-.02-.21.05-.39.15-.56.18-.32.32-.67.51-.99.03-.06.06-.14-.02-.21-.2,0-.4-.04-.59.03Zm-2.5-.01c-.18.34-.36.67-.56,1.03-.2-.37-.37-.71-.55-1.05h-.61c-.03.24-.01.44-.02.65,0,.2,0,.4,0,.6s0,.42,0,.63c0,.2-.03.41.03.62.21.02.42.04.64-.02v-.49q0-.35.08-.45c.05.09.1.17.14.26.05.12.14.16.26.15.04,0,.07,0,.11,0,.1,0,.18-.04.21-.14.04-.11.11-.19.18-.28.09.07.08.16.08.24,0,.16,0,.33,0,.49,0,.08,0,.17.07.24h.54c.05-.25.05-2.27,0-2.49-.2-.04-.4-.04-.6,0Zm16.43.3c-.18-.22-.4-.35-.7-.33-.15.01-.33-.02-.45.05-.32.17-.57.41-.56.81,0,.13,0,.25,0,.38h0c0,.11,0,.22,0,.33-.01.18.02.34.12.49.17.27.38.47.73.46.08,0,.16,0,.24,0,.32,0,.56-.18.72-.47.09-.17.13-.35.12-.54,0-.23,0-.45,0-.68,0-.2-.09-.36-.21-.51Zm-.47,1.49c-.1.1-.19.17-.33.15-.11-.02-.23-.1-.24-.21-.05-.32-.04-.63,0-.95.02-.15.13-.22.29-.22.15,0,.27.09.29.23.04.33.04.67,0,1.01Zm2.6-31.57c.21-.01.41-.06.62-.07.98-.06,1.96,0,2.93-.1.32-.04.65-.03.98-.03,1.76,0,3.52,0,5.29,0,.54,0,1.09.01,1.63.02.18,0,.36.05.54.06.57.02,1.14.02,1.72.03.13,0,.25.02.38.04.09.01.18.03.27.04.71.07,1.43,0,2.15.11.34.05.69.03,1.03.06.47.05.94.1,1.41.1.08,0,.17,0,.24.03.21.08.43.08.64.08.2,0,.41,0,.6.03.22.05.45.07.67.07.22,0,.43.01.65.07.18.05.36.05.58-.03-.27-.06-.52,0-.73-.14,0,0-.02,0-.03,0-.19,0-.38-.02-.55-.12-.03-.02-.07,0-.11-.01-.3-.04-.59-.09-.89-.13-.04,0-.07-.01-.1-.03-.25-.09-.52-.05-.76-.18-.04-.02-.09-.01-.13-.01-.34,0-.65-.15-.99-.13-.02,0-.04,0-.05-.01-.14-.08-.3-.07-.45-.07-.11,0-.23,0-.32-.04-.14-.07-.28-.07-.42-.08-.07,0-.15,0-.22-.02-.19-.08-.39-.08-.59-.09-.07,0-.15,0-.22-.02-.2-.08-.41-.08-.62-.09-.1,0-.21,0-.29-.03-.17-.09-.35-.08-.53-.09-.07,0-.15,0-.22-.02-.25-.1-.52-.08-.78-.09-.09,0-.19,0-.27-.03-.23-.09-.46-.07-.7-.08-.14,0-.27-.03-.4-.05-.11-.02-.21-.05-.32-.06-.26-.02-.52-.03-.79-.05-.22-.02-.43-.05-.65-.07-.16-.02-.33-.03-.49-.04-.22-.02-.43-.05-.65-.07-.21-.01-.42-.02-.62-.08-.08-.03-.18-.04-.27-.04-.48-.01-.96,0-1.44-.1-.21-.04-.44-.01-.65-.02-.24,0-.47-.01-.71-.03-.21-.01-.41-.06-.62-.06-.34-.01-.69-.01-1.03-.02-.19,0-.39.03-.57-.03-.23-.07-.46-.07-.7-.07-1.49-.02-2.98-.02-4.47-.03-.46,0-.93,0-1.39.01-.89,0-1.78,0-2.67.01-.34,0-.69-.04-1.02.09-.03.01-.07,0-.11,0-.35,0-.71.02-1.06.02-.83,0-1.64.15-2.47.13-.09,0-.18.02-.27.03-.19.02-.38.04-.57.06-.18.01-.36,0-.54.01-.14,0-.27.03-.41.04-.16.02-.32.06-.48.07-.23.02-.47,0-.71.05-.31.05-.61.07-.92.08-.17,0-.34.02-.52.04-.18.02-.36.05-.54.06-.14.01-.3-.01-.43.04-.23.08-.46.08-.7.09-.13,0-.26,0-.38.04-.18.07-.35.06-.53.07-.12,0-.24-.01-.35.03-.2.07-.41.07-.62.08-.11,0-.23,0-.32.04-.14.07-.28.07-.42.08-.12,0-.25,0-.35.03-.16.07-.32.07-.48.08-.11,0-.23,0-.32.04-.15.06-.3.06-.45.07-.12,0-.25,0-.35.04-.13.06-.26.07-.4.08-.07,0-.15,0-.22.02-.3.12-.62.08-.93.17-.22.07-.47.03-.69.13-.05.02-.11.01-.16.02-.33.05-.66.09-.99.14-.04,0-.07.02-.1.03-.07.02-.14.04-.21.04-.28.01-.54.17-.82.15-.02,0-.04,0-.05.02-.1.07-.21.07-.31.07-.26,0-.5.14-.77.13-.02,0-.03.02-.05.02-.09.02-.17.05-.26.07-.27.05-.55.08-.82.14-.14.04-.27.08-.42.08-.03,0-.06,0-.08.02-.1.1-.23.08-.36.09-.06,0-.12.02-.19.04-.11.02-.23.05-.34.07-.08.02-.16.03-.24.05-.08.02-.16.04-.23.06-.07.02-.14.03-.21.04-.11.03-.23.06-.34.09-.23.06-.45.12-.68.17-.21.05-.43.03-.62.16-.01,0-.04,0-.05,0-.11.03-.23.05-.34.08-.19.05-.38.12-.58.13-.23,0-.42.17-.65.15-.19.12-.43.06-.61.19-.15-.02-.27.09-.41.11-.14.02-.28.05-.42.1-.19.07-.4.09-.6.14-.05.01-.1.03-.15.05-.09.03-.17.06-.26.08-.18.05-.36.1-.55.14-.13.03-.28.04-.39.1-.3.15-.63.2-.94.3-.17.06-.34.18-.54.15-.27.15-.59.15-.86.29-.13.07-.29.09-.44.13-.18.05-.36.09-.54.15-.31.1-.61.21-.92.31-.11.04-.21.09-.32.12-.16.05-.34.06-.49.13-.12.06-.26.06-.38.13-.16.1-.36.11-.53.18-.15.06-.32.06-.46.14-.24.14-.52.14-.75.29-.16,0-.29.1-.43.15-.15.05-.3.08-.44.14-.26.12-.53.21-.8.3-.25.09-.5.19-.75.29-.24.09-.48.18-.71.27-.36.14-.72.27-1.07.42-.22.09-.45.16-.67.27-.09.05-.2.08-.3.11-.11.03-.22.06-.33.12-.09.05-.19.08-.29.12-.21.08-.42.15-.62.24-.27.12-.53.25-.81.35-.01,0-.01.03-.02.05.07.1.18.06.27.07.79.02,1.58-.04,2.37.05.25.03.51.04.76.08.24.04.45.18.7.2.02,0,.04,0,.05.02.21.11.43.2.64.32.29.17.59.35.84.57.27.24.52.52.79.79.08-.02.16-.04.24-.07.11-.05.22-.11.33-.16.27-.1.54-.19.8-.3.49-.21,1-.38,1.48-.62.28-.14.58-.2.87-.33.31-.14.65-.23.97-.36.16-.07.34-.12.51-.18.26-.09.52-.19.78-.29.24-.09.48-.18.72-.27.26-.09.51-.19.77-.29.17-.07.35-.14.53-.19.19-.05.35-.19.56-.18.02,0,.03-.01.05-.02.2-.06.4-.11.59-.19.16-.07.32-.11.48-.17.16-.05.32-.11.48-.16.18-.06.36-.11.53-.16.12-.04.24-.06.36-.1.16-.06.31-.15.47-.18.19-.03.35-.16.55-.14.02,0,.05-.02.07-.03.18-.06.37-.13.56-.19.19-.06.38-.12.57-.18.16-.05.32-.11.48-.16.19-.06.38-.1.57-.15.18-.05.35-.13.53-.17.21-.05.42-.09.63-.13.02,0,.04,0,.05-.01.15-.12.35-.1.53-.18.19-.09.42-.09.63-.14.04,0,.08-.03.13-.04.07-.02.14-.04.2-.06.06-.02.12-.04.18-.05.06-.02.12-.05.18-.06.22-.05.44-.09.66-.14.16-.04.32-.07.47-.13.23-.11.47-.11.7-.19.2-.07.42-.09.63-.14.03,0,.05-.02.07-.03.07-.02.13-.05.2-.06.22-.05.44-.08.66-.15.12-.04.24-.07.37-.08.04,0,.1,0,.13-.03.08-.08.18-.07.28-.08.08-.01.16-.02.24-.04.11-.02.21-.05.31-.07.05-.01.11-.02.16-.04.23-.08.47-.11.7-.18.27-.09.56-.13.84-.19.24-.05.48-.06.71-.17.02-.01.05,0,.08,0,.28-.04.56-.07.82-.14.15-.04.3-.07.45-.09.06,0,.12-.03.18-.04.09-.02.17-.05.26-.06.27-.03.52-.15.79-.13.02,0,.04,0,.05-.02.11-.07.22-.06.34-.07.06,0,.14,0,.19-.03.14-.09.29-.07.45-.09.08,0,.17,0,.24-.04.13-.06.26-.07.4-.07.13,0,.25,0,.37-.07.04-.03.11-.03.16-.03.21,0,.42-.01.61-.11.04-.02.11-.01.16-.02.11-.02.21-.04.32-.06.09-.02.18-.03.27-.04.35-.04.7-.09,1.05-.13.02,0,.04,0,.05-.01.17-.1.36-.09.55-.1.06,0,.13,0,.19-.03.16-.07.32-.07.48-.07.14,0,.3,0,.43-.04.15-.05.3-.06.45-.07.1,0,.21.01.29-.03.17-.09.35-.08.53-.09.42-.03.84-.14,1.27-.13.21-.09.44-.07.67-.08.12,0,.25.01.35-.03.2-.09.41-.07.61-.08.13,0,.26,0,.38-.04.22-.07.45-.07.67-.07.14,0,.28,0,.41-.03.32-.08.65-.07.97-.08.11,0,.22,0,.32-.03.27-.08.54-.08.81-.09.2,0,.4-.02.6-.04.25-.02.5-.05.76-.07.17-.01.34-.02.52-.03.29-.02.58-.06.87-.08.33-.02.67-.02,1.01-.04Zm.19,31.35c-.04-.07-.05-.14.02-.19.19-.12.25-.3.3-.51.04-.19-.05-.33-.07-.49-.18-.21-.36-.4-.67-.4-.32,0-.63,0-.95,0-.05,0-.1.02-.15.03,0,.06-.01.1-.01.15,0,.72,0,1.45,0,2.17,0,.05.02.1.03.17.21-.02.4.04.61-.05,0-.15,0-.3,0-.44,0-.14-.03-.29.04-.42.1-.03.17,0,.2.1.04.11.08.22.13.32.09.16.15.34.27.47h.66c-.03-.12-.04-.21-.08-.29-.11-.21-.22-.42-.34-.63Zm-.43-.55h-.41c-.08-.13-.03-.27-.05-.41.23-.04.44-.1.58.14.02.12-.08.18-.13.27Zm-2.14-12.7c-.16-.32-.36-.63-.59-.89-.29-.31-.58-.63-.94-.87-.2-.13-.4-.23-.59-.36-.17-.12-.37-.17-.56-.24-.19-.07-.38-.17-.6-.15-.03,0-.06,0-.08-.02-.11-.08-.24-.08-.37-.08-.39,0-.78-.02-1.17-.02-1.17,0-2.34,0-3.51,0-.26,0-.52,0-.77-.08-.36-.11-.56-.36-.66-.68-.07-.23-.06-.5.1-.73.17-.25.36-.45.68-.45.11,0,.22,0,.33,0,2.66,0,5.32,0,7.98,0,.08,0,.16,0,.25,0,.18,0,.25-.07.26-.24,0-.05,0-.11,0-.16,0-1.02,0-2.03,0-3.05,0-.07,0-.15,0-.22,0-.08-.06-.13-.14-.14-.09,0-.18,0-.27,0-2.04,0-4.09,0-6.13,0-.83,0-1.65.01-2.48.03-.23,0-.46.06-.7.09-.02,0-.03.01-.05.02-.18.06-.35.14-.53.19-.24.07-.46.19-.68.3-.37.2-.71.45-1.01.74-.17.17-.33.35-.47.54-.19.26-.37.53-.52.81-.12.23-.25.47-.27.75,0,.04,0,.08-.02.1-.14.19-.11.43-.16.65-.06.26-.04.54-.03.81.02.29.07.57.11.86,0,.04.04.08.05.12.02.05.03.1.05.15.05.16.09.33.14.48.03.1.08.19.13.28.16.26.32.51.51.76.3.4.68.71,1.06,1.02.16.04.27.18.41.24.19.08.36.18.56.26.25.09.48.19.75.22.08,0,.16.04.24.05.08.02.16.04.24.04.44.01.89.03,1.33.03.73,0,1.45,0,2.18,0,.51,0,1.02,0,1.53,0,.21,0,.4.07.58.17.31.16.46.43.47.77,0,.17.01.36-.06.51-.16.33-.39.58-.8.59-.13,0-.25.01-.38.01-1.78,0-3.56,0-5.34,0-.1,0-.21-.01-.3.02-.12.05-.25.05-.37.05-.67,0-1.34,0-2.02,0-.1,0-.2-.03-.28.04-.05.23-.07,2.64-.03,3.51,0,.06.02.12.03.2.12,0,.22,0,.33,0,2.82,0,5.63,0,8.45,0,.2,0,.4.02.58-.08.06-.03.14-.02.21-.03.05,0,.11,0,.16-.01.29-.12.59-.18.88-.32.46-.21.86-.51,1.25-.83.39-.32.67-.75.94-1.17.21-.33.36-.7.44-1.08.06-.28.15-.55.16-.85,0-.56.04-1.12-.12-1.67-.1-.34-.2-.68-.36-1Zm-2.63,11.67c-.33,0-.65,0-.98,0-.03,0-.07.01-.12.02-.04.35-.03,2.26.01,2.48.17.02.35.03.53,0,.06-.29-.02-.58.06-.89.17,0,.33,0,.49,0,.09,0,.18-.02.26-.06.32-.15.46-.4.48-.77.02-.36-.38-.79-.74-.78Zm0,1c-.15.06-.31.05-.47.02-.06-.13-.04-.26-.02-.39.17-.08.33-.05.5-.03.06.15.07.27-.01.39Zm6.08-1s-.07.02-.11.03c-.05.18-.05.36.01.55.2,0,.39.02.6.03.03.33.01.63.02.94,0,.31-.01.63.01.94.26.05.38.05.59-.01,0-.09.01-.19.01-.29,0-.43,0-.85,0-1.28,0-.1-.02-.2.05-.29.19-.07.4.03.59-.08v-.51c-.05-.01-.09-.03-.12-.03-.55,0-1.1,0-1.66,0Z"/>
  </g>
</svg>