<?xml version="1.0" encoding="UTF-8"?>
<svg xmlns="http://www.w3.org/2000/svg" viewBox="0 0 108 108">
  <defs>
    <style>
      .cls-1 {
        fill: #282828;
      }

      .cls-1, .cls-2 {
        stroke-width: 0px;
      }

      .cls-2 {
        fill: #e9d5bd;
      }
    </style>
  </defs>
  <g id="bg">
    <circle class="cls-1" cx="54" cy="54" r="54"/>
  </g>
  <g id="icon">
    <path class="cls-2" d="m36.16,27.05c.26.4.54.8.81,1.19.11.16.24.19.41.06.16-.12.34-.23.5-.34.24-.17.28-.31.11-.55-.18-.26-.37-.5-.54-.76-.67-1.02-1.33-2.05-2-3.07-.08-.13-.21-.22-.31-.32-.13.06-.21.08-.28.13-.18.12-.36.25-.54.38-.15.11-.16.23-.05.39.64.96,1.26,1.93,1.89,2.9Zm-12.32,20.03c-.83-.12-1.67-.25-2.51-.37-.68-.1-1.35-.2-2.03-.31-.31-.05-.46.05-.52.36-.03.12-.02.25-.04.38-.08.49-.04.57.45.64.8.12,1.61.21,2.41.32.12.02.24.05.44.1-.1.13-.14.21-.2.25-.14.09-.3.16-.45.23-.91.42-1.83.82-2.74,1.25-.14.07-.28.23-.32.38-.09.29-.11.6-.16.9-.04.24.07.38.29.42.19.04.38.05.58.08,1.31.18,2.61.37,3.92.54.57.08.6.04.66-.53,0-.08.02-.17.03-.25.05-.35-.02-.44-.37-.49-.68-.1-1.35-.19-2.03-.29-.28-.04-.55-.08-.83-.13-.01-.04-.02-.07-.04-.11.1-.08.2-.17.31-.22,1.03-.48,2.07-.94,3.1-1.44.14-.07.25-.27.3-.43.08-.25.08-.52.13-.77.06-.36,0-.46-.36-.51Zm-1.23-9.74c.22.14.39.11.52-.1.14-.23.26-.47.4-.71-.09-.26-.26-.39-.49-.42-.22-.03-.29.16-.37.32-.07.13-.14.27-.21.4-.13.24-.1.35.16.51Zm1.11.61c.27.16.56.3.84.45.75.41,1.49.83,2.23,1.23.07.04.22.06.25.02.22-.28.41-.58.62-.88-.08-.11-.11-.19-.17-.24-.09-.08-.19-.14-.29-.2-.96-.54-1.93-1.08-2.9-1.6-.08-.04-.27-.01-.33.05-.16.17-.28.38-.39.58-.18.3-.16.4.13.57Zm5.65-4.57c.36.33.72.65,1.15,1.04.25-.25.47-.47.69-.7.17-.17.11-.33-.05-.48-.53-.49-1.07-.98-1.6-1.47-.31-.29-.32-.52-.03-.81.1-.1.2-.21.31-.3.28-.26.44-.26.73-.03.07.06.13.13.2.19.49.45.97.91,1.47,1.35.07.07.28.1.33.06.25-.23.47-.49.71-.75-.11-.13-.17-.23-.25-.3-.59-.56-1.18-1.14-1.79-1.68-.39-.35-.86-.62-1.52-.22-.48.29-.81.7-1.04,1.2-.04.09-.11.2-.18.22-.38.09-.56.41-.8.66-.17.18-.14.33.04.5.56.5,1.1,1.02,1.65,1.53Zm2.41-4.54c.19.15.31-.13.46-.22.05-.03.09-.08.13-.12.19-.16.37-.32.33-.61,0-.06.03-.14.07-.18.2-.18.4-.36.62-.52.17-.12.49-.07.58.09.13.22-.06.31-.2.42-.03.02-.06.04-.08.06-.39.36-.79.7-1.17,1.07-.24.24-.33.55-.19.86.21.48.55.88,1.02,1.12.15.08.41.11.55.03.61-.36,1.21-.76,1.62-1.37.04-.05.1-.11.16-.11.38-.02.58-.33.82-.55.07-.06.1-.28.04-.34-.57-.72-1.15-1.43-1.74-2.14-.22-.26-.47-.47-.86-.49-.26.1-.56.15-.79.3-.48.35-.94.74-1.39,1.13-.29.26-.43.61-.34.98.05.21.19.44.36.58Zm2.92-.65c.28.46.27.54-.08.85-.23.21-.48.41-.73.62-.13-.11-.23-.18-.31-.26-.14-.14-.13-.28.02-.41.28-.24.56-.48.84-.72.06-.05.16-.05.25-.08Zm-9.32,8.41c.5.38,1.03.72,1.57,1.06.43.27,1,.2,1.37-.16.13-.13.24-.28.34-.43.38-.58.78-1.14,1.11-1.74.29-.55.15-1-.34-1.38-.39-.3-.8-.59-1.21-.87-.29-.2-.58-.41-.86-.37-.43.02-.74.07-.93.33-.48.64-.95,1.3-1.4,1.97-.4.59-.09,1.26.35,1.6Zm.88-1.53c.18-.28.37-.56.58-.83.09-.11.23-.17.35-.25.15.06.27.09.36.15.26.18.52.37.76.58.35.29.37.5.11.86-.18.25-.36.48-.55.72-.19.24-.41.27-.66.09-.28-.2-.55-.41-.83-.62-.27-.21-.31-.41-.13-.7Zm35.32-11.31c.52.13.59.07.72-.45.14-.57.33-1.13.48-1.71.07-.27.26-.41.49-.41.28,0,.57.09.83.2.2.09.25.31.19.53-.18.69-.36,1.37-.56,2.05-.06.2,0,.32.17.38.22.08.44.17.68.21.09.02.27-.05.3-.13.11-.22.17-.45.24-.69.18-.65.38-1.3.52-1.96.07-.33.07-.68-.18-.96-.53-.57-1.17-.88-1.97-.68-.08.02-.17,0-.28,0,0-.11-.02-.2,0-.28.08-.27.16-.55.26-.82.09-.25.04-.42-.21-.51-.21-.08-.43-.15-.66-.18-.1-.01-.27.09-.31.18-.12.28-.19.57-.27.87-.31,1.16-.6,2.32-.92,3.48-.18.67-.19.69.48.86Zm13.43,4.47c-.54.17-1.06.38-1.59.58-.21.08-.24.22-.09.36.19.17.38.33.58.49.18.15.37.19.59.11.23-.09.45-.18.68-.26.1-.04.21-.04.39-.08-.11.36-.18.64-.28.91-.09.23-.04.42.13.58.18.17.38.34.57.5.07.05.16.07.28.12.05-.14.1-.23.12-.32.12-.56.22-1.13.36-1.68.04-.16.16-.33.29-.42.17-.12.4-.17.6-.25.33-.13.66-.25.99-.38.18-.07.2-.19.05-.33-.15-.13-.3-.24-.44-.37-.24-.22-.49-.26-.79-.12-.21.09-.43.14-.65.21,0-.44.11-.89-.03-1.22-.14-.33-.48-.64-.92-.75-.04.09-.09.16-.1.23-.07.44-.14.88-.19,1.32-.04.37-.16.65-.56.78Zm2.13,2.73c-.49.49-.5,1.08-.04,1.6.37.42.74.83,1.13,1.23.53.54,1.04.59,1.7.17.2-.12.2-.26.06-.42-.16-.18-.31-.36-.5-.5-.1-.08-.27-.08-.4-.1-.08-.01-.19.02-.24-.02-.28-.28-.56-.56-.8-.87-.15-.19,0-.37.17-.46.09-.05.28-.02.35.05.44.45.86.93,1.29,1.39.32.34.53.4.94.16.28-.17.55-.4.76-.65.38-.45.41-.79.05-1.26-.41-.54-.88-1.04-1.35-1.53-.23-.23-.52-.41-.89-.35,0-.03-.02-.05-.02-.08-.24.1-.53.15-.72.31-.51.41-.99.86-1.46,1.32Zm2.09-.28c.14-.12.29-.25.46-.07.26.27.51.53.75.82.06.07.08.22.04.3-.06.11-.19.19-.31.3-.13-.08-.23-.12-.3-.2-.23-.24-.45-.5-.67-.75-.12-.14-.11-.27.03-.39Zm.23,4.09c-.13.09-.24.21-.11.38.16.21.32.41.48.62.11.14.24.15.38.05.17-.12.32-.25.49-.36.4-.26.8-.54,1.22-.75.42-.21.88-.03,1.14.36.14.21.3.41.46.6.14.16.31.15.44,0,.18-.2.59-.24.47-.66,0,0,0-.02-.01-.02-.33-.45-.57-.99-1.18-1.23.17-.47-.18-.7-.38-1-.13-.19-.28-.21-.48-.07-.39.28-.79.55-1.18.82-.58.41-1.16.81-1.73,1.23Zm8.88,6.22c.14-.06.25-.19.38-.29-.15-.33-.25-.6-.39-.85-.05-.08-.24-.16-.33-.13-.16.07-.44.13-.37.37.08.29.23.57.39.84.04.07.24.1.32.06Zm-18.9-14.29c.94.58,1.89,1.15,2.83,1.72.19.11.38.21.6.33.08-.06.18-.1.24-.18.09-.12.16-.25.24-.38.22-.37.22-.43-.15-.66-.71-.44-1.42-.88-2.14-1.3-.51-.3-.52-.3-.22-.81.02-.03.03-.06.05-.09.1-.18.24-.2.4-.1.69.43,1.38.85,2.06,1.28.33.2.41.19.64-.13.05-.07.09-.14.13-.22.19-.33.15-.44-.18-.65-.6-.37-1.21-.74-1.81-1.11-.48-.3-.58-.23-.21-.78.01-.02.02-.05.04-.07.12-.17.26-.2.45-.08.72.45,1.43.89,2.16,1.32.5.3.54.27.85-.24.01-.02.02-.05.03-.07.2-.36.18-.43-.19-.65-.59-.36-1.17-.73-1.76-1.09-.54-.33-1.08-.65-1.63-.96-.34-.19-.43-.14-.64.21-.27.46-.55.91-.83,1.36-.52.87-1.05,1.73-1.57,2.6-.09.15-.07.29.08.4.18.12.35.24.53.35Zm-22.44-3.73c.2.59.71.83,1.31.7.51-.11,1.03-.2,1.55-.28.64-.1,1.07-.54,1.1-1.18.02-.38-.08-.47-.46-.42-.12.02-.24.04-.35.03-.26-.02-.39.12-.51.33-.07.13-.19.28-.32.32-.28.08-.58.12-.87.14-.21.01-.37-.11-.4-.34-.03-.23.12-.3.29-.34.11-.03.21-.05.32-.06.47-.07.94-.11,1.4-.2.59-.12.78-.45.68-1.04-.03-.15-.06-.3-.08-.45-.1-.58-.57-1.1-1.31-.96-.61.12-1.21.22-1.81.36-.63.14-1.02.72-.94,1.36.03.27.06.54.11.8.08.41.15.83.28,1.23Zm.98-2.48c.36-.09.72-.18,1.08-.21.11,0,.27.18.33.31.03.07-.07.28-.16.31-.36.12-.73.2-1.07.29-.26,0-.33-.18-.39-.36-.06-.18.03-.31.2-.35Zm10.53.15c-.09.52-.16,1.03-.24,1.55,0,.35.15.61.4.85.34.33.78.33,1.2.39.7.11.7.1.88-.58.07-.26-.02-.4-.28-.46-.13-.03-.27-.04-.4-.08-.21-.06-.4-.18-.38-.44.04-.42.1-.84.16-1.26.03-.2.14-.3.35-.25.17.04.33.07.5.09.17.02.33,0,.38-.21.04-.17.07-.35.08-.52.02-.21-.08-.34-.29-.38-.17-.03-.33-.05-.5-.07-.27-.04-.34-.12-.3-.38.02-.13.04-.27.06-.4.04-.27-.05-.42-.32-.48-.21-.05-.41-.08-.62-.11-.18-.02-.29.08-.33.25-.03.16-.06.32-.08.47-.03.2-.12.33-.33.4-.11.03-.2.17-.25.28-.05.12-.08.27-.07.39.01.13.06.31.16.36.27.14.26.34.22.58Zm-4.85-.18c-.43.03-.86.05-1.29.06-.53,0-1.2.41-1.09,1.17.03.21.02.42.06.63.06.31.21.59.54.67.69.17,1.38.12,2.06-.07.08-.02.19-.06.24-.03.3.2.61.06.91.07.24,0,.34-.14.35-.35,0-.22-.02-.44-.03-.66-.03-.67-.07-1.33-.09-2-.02-.7-.62-1.12-1.17-1.13-.28,0-.56,0-.91,0-.22.01-.52,0-.81.05-.57.08-.95.35-1.05.93-.03.18-.02.34.16.44.19.11.92.02,1.06-.15.3-.38.71-.32,1.09-.29.15.02.36.26.39.42.03.23-.24.2-.41.22Zm.44,1.18c-.08.22-.21.39-.46.4-.13,0-.27,0-.4,0v.03c-.13,0-.25,0-.38,0-.2,0-.31-.13-.33-.31-.02-.19.06-.36.25-.38.38-.04.77-.05,1.16-.04.16,0,.23.14.17.3Zm-12.91,2.04c.19.55.39,1.1.61,1.64.04.11.24.25.33.22.3-.07.6-.19.87-.33.09-.04.17-.24.15-.33-.16-.52-.34-1.03-.53-1.53-.09-.24-.03-.36.2-.44.51-.18,1.02-.36,1.52-.56.37-.15.46-.13.6.24.18.49.36.98.56,1.47.04.1.15.17.24.27.36-.15.68-.27.98-.44.07-.04.1-.25.06-.35-.26-.78-.53-1.54-.81-2.31-.26-.73-.53-1.46-.79-2.19-.07-.2-.22-.25-.4-.19-.25.08-.49.18-.74.27-.2.07-.25.21-.18.4.15.43.3.86.45,1.29.08.22.04.38-.2.46-.54.18-1.08.37-1.63.55-.32.11-.39.06-.5-.25-.14-.39-.27-.78-.42-1.17-.11-.29-.22-.35-.5-.26-.25.08-.49.18-.73.28-.16.07-.23.18-.16.39.35.95.67,1.91,1.01,2.87Zm15.37-.61c.08,0,.17.02.25.03.26.02.4-.1.41-.36.09-1.55.18-3.1.27-4.66.02-.28-.09-.41-.36-.44-.15-.02-.3-.03-.45-.04-.33-.02-.47.1-.49.43-.08,1.45-.15,2.9-.23,4.35q-.03.64.6.69Zm4.73,67.73c-.22,0-.44,0-.66,0-.28,0-.56,0-.84,0-.08-.28,0-.39.18-.41.18-.03.37-.04.55-.03.83.02,1.09-.23,1-.99-.04-.35-.25-.53-.63-.54-.4-.01-.79-.02-1.19,0-.16.01-.36.09-.46.21-.1.11-.12.31-.13.48,0,.05.14.17.18.16.15-.05.29-.14.42-.22.1-.06.19-.17.3-.19.21-.03.42-.01.63,0,.16.01.33.05.33.27,0,.2-.13.31-.32.34-.19.03-.39.04-.58.06-.81.09-.96.25-1,1.05-.01.27.06.36.33.36.62,0,1.25,0,1.87,0,.19,0,.3-.09.29-.27,0-.17-.09-.28-.29-.27Zm6.04-48.22c-1.92-.2-3.84-.53-5.78-.23-.47.07-.95.07-1.41.15-.53.09-1.05.22-1.58.36-.64.17-1.28.35-1.91.56-.35.11-.69.27-1.01.45-.35.19-.69.41-1.02.64-.57.4-1.13.81-1.67,1.23-.61.48-1.09,1.07-1.52,1.72-.62.95-1.02,1.97-1.22,3.08-.4,2.22-.03,4.29,1.17,6.21.41.65.95,1.19,1.56,1.65.48.36,1.02.65,1.53.97.43.26.89.48,1.29.78.56.42,1.11.86,1.6,1.36.28.29.48.69.63,1.07.43,1.06.17,2.1-.3,3.05-.38.76-.93,1.45-1.41,2.16-.26.38-.54.75-.8,1.12.02.03.03.05.05.08.09-.03.19-.04.26-.09.67-.46,1.34-.92,2-1.4.34-.25.66-.54.98-.82.73-.64,1.43-1.32,1.94-2.16.22-.36.43-.74.53-1.14.31-1.15-.02-2.2-.68-3.13-.51-.72-1.11-1.37-1.68-2.05-.36-.42-.72-.83-1.1-1.24-.52-.57-.99-1.16-1.29-1.88-.21-.5-.44-.98-.47-1.54-.05-.75.05-1.48.35-2.15.22-.48.51-.93.82-1.34.27-.35.6-.66.95-.93.51-.39,1.03-.79,1.59-1.09.47-.25.97-.52,1.54-.54.14,0,.28-.07.42-.1.36-.06.73-.15,1.09-.17,1.53-.1,3.07,0,4.58-.4.85-.23,1.73-.37,2.58-.61.59-.17,1.16-.44,1.73-.67.42-.17.84-.34,1.26-.52.12-.05.26-.09.37-.16.38-.22.75-.44,1.12-.67.32-.2.64-.4.96-.6.05-.03.08-.1.13-.17-.09-.02-.14-.05-.2-.05-.32,0-.64,0-.96,0-1.6-.04-3.21.02-4.78-.4-.73-.2-1.49-.31-2.24-.39Zm6.81,16.74s-.06,0-.08,0c-.03.09-.06.18-.08.27-.09.47-.13.96-.29,1.41-.23.65-.48,1.3-.82,1.91-.38.68-.84,1.29-1.37,1.82-.63.63-1.34,1.19-2.07,1.7-.67.48-1.39.89-2.11,1.27-.75.39-1.54.71-2.32,1.05-.38.17-.78.31-1.17.47-.53.21-1.04.45-1.58.63-.64.22-1.29.4-1.93.6-.03,0-.06.02-.1.03-.67.21-1.33.44-2,.62-.87.24-1.75.43-2.63.65-.03,0-.06.02-.1.03-.91.22-1.82.44-2.73.66-.25.06-.52.08-.77.14-.87.2-1.73.43-2.6.62-.65.15-1.3.26-1.96.39-.71.15-1.42.3-2.12.45-.78.16-1.57.32-2.36.47-.42.08-.85.15-1.27.23-.11.02-.21.07-.32.1,0,.04,0,.07,0,.11.12.02.23.05.35.06,2.77.15,5.54.14,8.31-.07,1.14-.08,2.28-.26,3.42-.4.26-.03.52-.08.77-.13.92-.19,1.85-.37,2.77-.57.9-.19,1.79-.4,2.69-.6.05-.01.09-.04.14-.05.7-.22,1.41-.45,2.11-.67.26-.08.53-.17.79-.26.47-.18.94-.36,1.41-.54.51-.2,1.02-.4,1.52-.6.02,0,.03-.02.04-.02.38-.21.76-.41,1.14-.63.62-.35,1.25-.69,1.85-1.07.57-.37,1.1-.79,1.64-1.2.21-.16.41-.32.59-.51.35-.35.69-.7,1.02-1.07.3-.34.6-.7.87-1.07.23-.33.43-.68.61-1.04.39-.75.68-1.55.82-2.38.14-.83.14-1.68-.02-2.52-.02-.1-.06-.19-.09-.29Zm-32.08,7.34c.23-.18.47-.35.71-.53.03-.02.07-.05.1-.08.33-.29.66-.59.98-.88.21-.19.4-.41.63-.6.26-.21.59-.36.81-.6.19-.2.38-.36.62-.47.03-.01.04-.05.06-.07.19-.2.35-.44.57-.58.3-.19.48-.55.86-.61.03,0,.05-.06.08-.09.19-.19.37-.4.57-.57.24-.21.51-.38.75-.59.18-.15.35-.33.52-.49,0,0,.01.01.02.02.49-.44.97-.87,1.48-1.33-.33-.51-.62-.96-.91-1.41-.23-.35-.49-.69-.67-1.07-.22-.46-.36-.95-.55-1.44q-.39-.19-.64.16s-.05.04-.07.07c-.19.22-.38.43-.56.66-.29.37-.56.75-.85,1.12-.16.21-.33.41-.49.62-.29.38-.46.85-.85,1.16-.02.02-.04.05-.06.08-.15.22-.3.45-.46.67-.15.21-.32.4-.47.6-.17.21-.34.42-.51.64-.15.19-.32.38-.47.58-.29.4-.57.82-.86,1.22-.12.17-.27.32-.39.49-.2.28-.39.58-.59.86-.09.09-.15.19-.23.28-.15.19-.31.37-.44.57-.19.3-.3.65-.53.75-1.04,1.4-2.01,2.71-3.05,4.12-.19.32-.45.75-.71,1.19.26.05,1.45-.82,1.5-.94.37-.34.67-.61.97-.87.15-.13.33-.23.5-.35.1-.07.16-.18.26-.25.24-.18.49-.36.74-.54,0,0,.01-.01.02-.02.02-.06.05-.12.07-.18.18-.12.3-.29.46-.41.3-.24.62-.46.96-.7.03-.05.05-.14.11-.19Zm.63-11.94c.05.02.12,0,.24.02-.1-.13-.14-.21-.21-.27-.4-.38-.68-.85-.84-1.36-.43-1.38-.23-2.71.46-3.96.51-.93,1.27-1.63,2.11-2.26.88-.65,1.78-1.28,2.76-1.77.95-.47,1.88-.99,2.84-1.45.7-.34,1.43-.63,2.15-.93.46-.19.93-.34,1.4-.52.17-.06.34-.14.51-.22,0-.03-.01-.06-.02-.09-.07-.02-.15-.04-.22-.04-1.13,0-2.26-.02-3.4,0-1.61.02-3.18.29-4.7.82-.75.26-1.49.58-2.2.94-.62.32-1.21.7-1.78,1.1-.67.47-1.22,1.09-1.71,1.75-.79,1.06-1.34,2.22-1.39,3.57-.04.97.17,1.83.85,2.56.88.96,1.96,1.61,3.14,2.11Zm11.12-27.92c-14.69.02-26.96,12.01-27.03,27.09-.07,14.74,12.03,27.56,27.78,27.24,14.23-.29,26.42-11.87,26.55-26.98.12-14.94-11.98-27.42-27.3-27.36Zm.12,53.32c-14.38-.04-25.46-11.46-26.08-24.8-.72-15.51,11.65-27.42,25.91-27.49,14.53-.06,26.23,11.58,26.32,25.96.1,14.51-11.6,26.28-26.15,26.32Zm33.39-38.71c.09-.04.15-.15.24-.24-.13-.28-.23-.53-.34-.77-.1-.21-.25-.27-.47-.16-.36.17-.73.3-1.09.46-.73.31-1.46.62-2.19.93-.14.06-.24.17-.16.35.11.24.23.49.36.72.08.16.21.18.38.11.53-.24,1.07-.45,1.61-.68.56-.24,1.12-.47,1.67-.72ZM53.74,12.38c-22.9.12-42.04,18.94-41.33,42.94.65,22.14,18.82,40.52,42.01,40.29,22.95-.22,41.37-18.86,41.18-41.99-.19-23.1-18.97-41.35-41.86-41.25Zm-.9,81.63c-21.91-.62-39.39-18.86-38.86-40.98.54-22.3,19.08-39.5,40.7-39.04,22.41.37,39.9,19,39.33,41.01-.57,22.11-18.98,39.64-41.17,39.01Zm31.75-53.38c.07-.05.13-.24.09-.32-.09-.24-.23-.47-.36-.69-.09-.15-.22-.22-.38-.12-.26.16-.42.03-.55-.17-.13-.2-.23-.41-.34-.62-.12-.23-.1-.43.12-.58.29-.19.59-.36.89-.53.29-.17.49-.14.67.14.12.18.21.39.32.57.13.22.14.41-.04.62-.07.08-.1.26-.06.36.08.21.21.4.32.6.12.2.29.23.47.11.4-.25.65-.59.64-1.08,0-.05,0-.1-.01-.15-.19-.82-.57-1.56-1.11-2.19-.37-.44-.97-.49-1.41-.25-.46.26-.96.46-1.42.72-.62.34-1,1.02-.62,1.78.25.48.49.96.76,1.43.47.82,1.34.84,2.03.36Zm3.48,6.35c-.57.05-1.14.12-1.7.24-.89.19-1.16.6-1.04,1.51.08.53.14,1.07.25,1.6.13.66.61.98,1.25.99.21,0,.33-.13.3-.35-.03-.23-.06-.45-.12-.67-.03-.11-.13-.25-.22-.28-.24-.08-.31-.25-.34-.46-.04-.23-.07-.47-.09-.7,0-.11.02-.25.09-.33.07-.08.22-.15.32-.14.09,0,.22.13.23.21.11.6.22,1.21.3,1.82.06.48.39.79.87.75.24-.02.48-.08.72-.13.55-.12.84-.47.86-1.2-.08-.5-.17-1.17-.31-1.83-.14-.7-.67-1.09-1.38-1.03Zm.33,2.82c-.18.05-.32-.07-.36-.24-.08-.34-.16-.67-.2-1.02-.03-.21.13-.33.32-.36.19-.03.33.08.38.26.07.32.12.65.18.96,0,.22-.14.34-.32.39Zm-2.14-2.9c.1-.04.21-.07.31-.1.45-.13.72-.42.72-.89,0-.34-.09-.68-.16-1.01-.06-.29-.19-.56-.23-.85-.02-.11.08-.28.18-.36.05-.04.28.03.31.1.19.43.54.84.24,1.36-.04.07-.05.17-.03.25.05.23.12.46.2.68.06.17.2.22.37.16.37-.13.74-.7.65-1.08-.18-.7-.37-1.4-.61-2.09-.17-.49-.57-.74-1.04-.67-.32.05-.64.14-.94.27-.4.17-.57.53-.47.9.14.5.28.99.43,1.48.1.34.04.46-.33.56-.38-.16-.39-.54-.48-.86-.05-.17-.05-.42.03-.57.12-.19.15-.34.07-.54-.06-.16-.11-.32-.16-.48-.11-.35-.28-.42-.6-.22-.4.24-.63.76-.52,1.23.09.38.18.76.3,1.13.13.4.28.8.48,1.16.29.52.71.64,1.27.44Zm-25.07-8.12c.43.34.89.63,1.44.72,1.05.16,2.05.06,2.86-.75.16-.16.33-.3.47-.48.19-.24.4-.49.5-.77.25-.64.33-1.3.21-2.01-.17-.99-.74-1.72-1.51-2.25-.52-.36-1.14-.63-1.84-.52-.69-.12-1.28.21-1.82.53-.6.36-1.02.91-1.3,1.58-.43,1.03-.35,2,.16,2.96.21.39.48.71.83.99Zm1.2,48.09c0-.4-.09-.49-.48-.49-.85,0-1.71,0-2.56.01-.1,0-.2,0-.3-.02-.16-.02-.23-.11-.24-.27,0-.12-.01-.24-.01-.35,0-.17.08-.28.25-.29.1,0,.2,0,.3,0,.73,0,1.47,0,2.2,0,.31,0,.42-.12.44-.43,0-.08,0-.15,0-.23,0-.41-.11-.51-.53-.5-.76.01-1.52.01-2.28,0-.12,0-.31-.08-.35-.17-.21-.45.01-.74.51-.74.84,0,1.69,0,2.53,0,.26,0,.36-.15.4-.37.02-.11,0-.22,0-.33,0-.41-.09-.52-.49-.52-1.34,0-2.69,0-4.03,0-.28,0-.38.1-.38.38,0,.78,0,1.55,0,2.33,0,.76,0,1.52,0,2.28,0,.4.06.49.46.49,1.28,0,2.57,0,3.85-.02.7,0,.7-.02.71-.74Zm-15.18,3.95c-.23-.08-.3-.22-.31-.46,0-.29.04-.49.37-.55.08-.01.13-.15.2-.23-.08-.07-.16-.15-.26-.2-.08-.04-.19-.05-.29-.07-.06-.44-.13-.52-.37-.49-.18.02-.54.82-.4.93.25.22.23.49.18.75-.1.5.17.87.79.81.12-.01.23-.14.35-.21-.09-.1-.17-.24-.28-.28Zm-.43-3.65c-.01-.89-.02-1.77-.03-2.66,0-.08.03-.15.07-.3.12.11.21.17.27.26.58.88,1.14,1.77,1.73,2.64.15.23.28.52.63.52.3,0,.61,0,.91,0,.25,0,.36-.13.36-.39,0-.2,0-.4,0-.61,0-1.23-.01-2.47-.01-3.7,0-.74,0-.74-.72-.78,0,0-.02,0-.03,0-.5-.03-.59.05-.59.54,0,.9,0,1.81,0,2.71,0,.06-.03.12-.05.23-.11-.07-.2-.11-.25-.17-.21-.31-.4-.63-.6-.94-.44-.7-.89-1.39-1.34-2.09-.12-.19-.29-.27-.51-.26-.23,0-.46,0-.68,0-.37-.02-.49.09-.49.46,0,1,.01,1.99.01,2.99,0,.52-.02,1.05-.02,1.57,0,.39.1.48.48.46.13,0,.25,0,.38,0,.35.01.48-.11.47-.46Zm2.48,2.91c-.18.02-.38.06-.58.05-.1,0-.19-.1-.29-.16.09-.07.18-.21.26-.21.21.01.42.09.64.15,0,.03,0,.06,0,.09.13-.05.25-.1.38-.16-.03-.31-.21-.43-.44-.46-.29-.03-.59-.02-.89-.01-.28,0-.43.15-.48.42-.05.32.02.59.32.73.32,0,.65-.15.93.11-.11.3-.48.38-.73.15-.22-.2-.4-.16-.62,0,.07.28.22.49.47.51.33.03.68,0,1.01-.04.31-.04.4-.21.46-.51.07-.37-.17-.51-.44-.68Zm-22.78-50.18c-.44-.23-.66-.34-.86.28-.11.33-.36.49-.58.4-.41-.16-.82-.35-1.23-.54-.21-.1-.24-.26-.12-.46.08-.15.16-.3.2-.46.13-.45-.3-.41-.51-.55-.16-.11-.34-.12-.46.08-.04.06-.07.13-.11.2-.05.11-.1.21-.15.32-.13.27-.25.31-.52.17-.16-.08-.31-.18-.48-.22-.09-.02-.25.04-.3.11-.14.22-.24.46-.35.7-.07.16-.03.3.14.38.18.08.36.15.52.26.11.07.18.21.26.32-.03.02-.06.05-.1.07.06.09.1.21.18.27.14.11.3.18.46.26.17.09.32.05.42-.1.11-.17.25-.19.42-.11.37.17.74.36,1.12.54.84.39,1.4.35,1.92-.58.12-.22.22-.46.32-.69.17-.38.15-.45-.2-.64Zm19.03,50.84c-.35,0-.71,0-1.06,0-.16,0-.32,0-.33-.22-.01-.22.15-.24.31-.25.28,0,.56,0,.84,0,.18,0,.36-.03.35-.26-.01-.22-.19-.22-.36-.22-.27,0-.54,0-.81,0-.15,0-.32-.04-.31-.25,0-.21.17-.23.33-.23.34,0,.68.01,1.01.01.17,0,.27-.08.28-.26,0-.18-.1-.27-.26-.27-.57,0-1.15,0-1.72,0-.18,0-.28.08-.27.28.01.31,0,.62,0,.94h0c0,.33,0,.66,0,.99,0,.22.09.33.32.33.57,0,1.13,0,1.7,0,.18,0,.32-.08.32-.28,0-.2-.11-.31-.32-.31Zm11.2-3.59c0-.4,0-.79,0-1.19,0-1.14,0-2.28,0-3.42,0-.24-.12-.36-.35-.37-.24-.01-.49-.01-.73,0-.23.01-.34.14-.34.38.01.45,0,.89,0,1.34,0,.26-.11.36-.37.36-.57,0-1.13,0-1.7,0-.34,0-.41-.06-.41-.39,0-.42,0-.84.02-1.27,0-.27-.09-.41-.35-.42-.25,0-.51,0-.76.02-.24.01-.34.14-.34.38,0,.78,0,1.55,0,2.33h0c0,.79,0,1.59,0,2.38,0,.23.09.37.35.37.21,0,.42,0,.63,0,.37,0,.47-.09.46-.45,0-.5,0-1,0-1.5,0-.24.12-.36.36-.36.59,0,1.18,0,1.77.01.23,0,.34.1.33.34,0,.51,0,1.03,0,1.55,0,.3.12.42.41.41.18,0,.35,0,.53,0,.39,0,.5-.11.5-.49Zm1.98,2.27c-.05-.34-.28-.59-.59-.6-.37-.02-.74-.03-1.11,0-.39.02-.64.26-.67.63-.03.39-.04.79-.02,1.19.03.53.4.81.92.76.2-.02.4,0,.61,0,.54.01.89-.34.88-.87,0-.12,0-.24,0-.35,0,0,.02,0,.02,0-.01-.24,0-.49-.04-.73Zm-.55.65c0,.64-.4.91-1,.66-.1-.04-.21-.17-.22-.27-.03-.25-.01-.51,0-.76,0-.06.02-.12.05-.17.1-.16.57-.24.86-.15.23.07.32.23.31.46,0,.08,0,.15,0,.23ZM25.14,42.89c-.75-.24-1.49-.49-2.25-.71-.84-.25-1.36-.06-1.68.7-.25.58-.41,1.2-.55,1.81-.11.51.18.95.65,1.17.2.09.37.04.44-.15.07-.19.14-.38.18-.58.02-.13,0-.29-.05-.41-.16-.33-.04-1.05.27-1.26.1-.07.28-.08.39-.03.06.03.08.24.06.35-.07.27-.18.53-.25.8-.08.31-.14.62-.17.78,0,.68.16.92.65,1.1.22.08.45.13.68.18.6.12.99-.12,1.16-.73.15-.53.45-1.03.36-1.61,0-.03.01-.08.03-.09.25-.18.25-.49.35-.74.12-.33.07-.46-.27-.57Zm-1.34,2.37c-.08.19-.28.14-.45.09-.17-.05-.25-.17-.21-.32.11-.39.23-.78.38-1.15.02-.06.22-.11.26-.08.15.12.26.29.36.41-.13.4-.21.74-.35,1.05Zm26.75,45.22c-.21-.01-.42.18-.42.39,0,.22.17.41.4.41.2,0,.43-.2.44-.38.01-.17-.22-.4-.41-.41Zm5.09.33c-.4-.01-.79,0-1.19-.01-.11,0-.22-.04-.32-.06-.05-.28.09-.35.28-.36.32-.03.64-.02.96-.06.46-.07.62-.33.57-.92-.03-.36-.26-.55-.67-.56-.39,0-.78-.03-1.17,0-.16.01-.34.09-.47.19-.2.15-.22.44-.07.58.14.13.36.06.54-.15.08-.09.21-.17.33-.19.18-.03.37-.02.56,0,.17.01.36.02.37.25.01.18-.15.35-.37.37-.18.02-.35.03-.53.03-.62.02-1.07.27-.99,1.03,0,.03,0,.05,0,.08-.01.22.11.31.31.31.62,0,1.23,0,1.85,0,.17,0,.34-.05.35-.25.02-.22-.16-.26-.33-.26Zm8.47-.02c-.41,0-.81,0-1.22,0-.11,0-.22-.04-.32-.06-.05-.27.08-.36.27-.37.34-.03.67-.04,1.01-.08.24-.03.46-.13.52-.38.13-.6.01-1.07-.74-1.1-.34-.01-.68-.03-1.01.01-.2.03-.42.12-.58.25-.18.14-.16.45-.01.57.14.11.33.04.5-.17.07-.08.15-.2.24-.2.28-.02.56-.02.83.01.22.03.3.25.15.42-.08.09-.2.15-.32.18-.21.04-.42.02-.63.05-.71.08-.91.35-.87,1.06.02.26.12.36.38.36.61,0,1.22,0,1.83,0,.18,0,.3-.08.3-.26,0-.2-.13-.28-.32-.27Z"/>
  </g>
</svg>