<?xml version="1.0" encoding="UTF-8"?>
<svg xmlns="http://www.w3.org/2000/svg" viewBox="0 0 108 108">
  <defs>
    <style>
      .cls-1 {
        fill: #282828;
      }

      .cls-1, .cls-2 {
        stroke-width: 0px;
      }

      .cls-2 {
        fill: #e9d5bd;
      }
    </style>
  </defs>
  <g id="bg">
    <circle class="cls-1" cx="54" cy="54" r="54"/>
  </g>
  <g id="icon">
    <path class="cls-2" d="m83.48,38.23c.23.41.56.62.89.55.83-.17,1.58-.53,2.23-1.08.19-.17.34-.37.33-.75-.04-.11-.1-.32-.18-.52-.05-.13-.18-.18-.31-.13-.13.05-.26.13-.38.19-.81.4-1.61.8-2.42,1.21-.3.15-.33.25-.16.54Zm-50.52-13.89c.09.11.21.15.33.06.19-.16.38-.32.55-.5.19-.21.14-.45.01-.67-.13-.23-.29-.44-.69-.43-.25.07-.54.27-.78.51-.04.04-.04.18,0,.23.18.27.38.53.58.79Zm56.34,58.49c-2.02.1-4.26,1.83-4.08,4.75.13,1.99,1.94,4.06,4.37,3.93,2.38.12,4.4-1.93,4.37-4.36-.03-2.35-1.94-4.45-4.66-4.31Zm.29,7.82c-1.9.03-3.5-1.53-3.47-3.46-.06-1.87,1.61-3.39,3.26-3.46,2.13-.09,3.67,1.62,3.67,3.42,0,1.99-1.49,3.47-3.46,3.5ZM54,9.41c-24.05,0-43.62,19.57-43.62,43.62s19.57,43.62,43.62,43.62,43.62-19.57,43.62-43.62S78.05,9.41,54,9.41Zm0,86.52c-23.65,0-42.9-19.24-42.9-42.9S30.35,10.13,54,10.13s42.9,19.24,42.9,42.9-19.24,42.9-42.9,42.9Zm40.85-45.26c-.34-6.61-2.27-12.76-5.66-18.44-3.88-6.49-9.16-11.56-15.82-15.14-6.79-3.65-14.07-5.2-22.72-4.73-8.84.6-17.34,4.26-24.58,10.88-8.94,8.62-13.23,19.15-12.96,31.56.55,10.6,4.54,19.69,11.93,27.3,9.09,8.75,19.92,12.81,32.51,11.81,9.89-.78,18.32-4.88,25.42-11.77,8.47-8.79,12.51-19.26,11.88-31.47Zm-2.96-2.72c.04.24.07.48.1.71.03.3-.01.35-.31.39-.6.08-1.2.15-1.8.23-1.24.16-2.48.32-3.72.48-.11.01-.23.02-.32.03-.29,0-.36-.06-.4-.32-.03-.22-.07-.44-.09-.66-.02-.25.04-.33.29-.36,1.7-.22,3.4-.44,5.09-.66.26-.03.51-.08.77-.12.23-.04.34.03.38.27Zm-1.14-5.49c.12.48.24.95.36,1.43.15.63.3,1.25.46,1.88.11.44.06.54-.4.63-.24.05-.49.12-.73.18-.17.05-.29-.01-.33-.18-.08-.28-.15-.56-.21-.84-.06-.29-.12-.34-.42-.27-.26.06-.52.13-.78.19-.85.21-1.7.43-2.54.65-.31.08-.62.15-.93.22-.25.06-.32,0-.37-.25-.04-.2-.1-.39-.16-.58-.09-.33-.02-.44.3-.52.95-.23,1.91-.47,2.86-.7.43-.1.86-.2,1.3-.29.17-.03.29-.09.3-.3-.07-.26-.14-.53-.21-.8-.08-.32-.04-.41.29-.5.29-.08.58-.16.86-.23.2-.05.29.02.36.27Zm-1.38-2.8c.27-.1.39-.04.49.23.08.22.16.43.24.65.07.19.04.28-.16.35-.64.24-1.28.47-1.93.7-.56.2-1.12.41-1.68.62-.7.26-1.4.52-2.11.78-.13.05-.24.02-.29-.1-.11-.28-.2-.56-.3-.84,0-.03,0-.06,0-.07,0-.19.11-.27.25-.33.75-.27,1.51-.53,2.26-.81.52-.19,1.05-.39,1.57-.58.56-.21,1.12-.42,1.68-.62Zm-1.95-5.06c.31.63.63,1.25.92,1.89.27.59.12,1.12-.25,1.62-.42.56-.96.97-1.58,1.28-.49.25-1.01.47-1.53.66-.3.11-.64.13-.96.19-.9-.01-1.41-.57-1.79-1.28-.25-.46-.47-.92-.71-1.38-.09-.17-.04-.28.11-.36.25-.14.51-.27.77-.4.91-.46,1.82-.92,2.72-1.38.63-.32,1.27-.65,1.9-.97.17-.08.31-.04.39.12Zm-3.89-5.21c.18-.13.27-.13.41.04.16.19.3.4.45.6.13.18.06.35-.03.51-.3.54-.6,1.07-.91,1.61-.24.42-.48.83-.72,1.25-.04.07-.05.16-.08.24.02.02.04.04.06.06.08-.03.18-.04.25-.09.72-.53,1.45-1.05,2.16-1.59.39-.29.41-.39.78.12.07.1.16.19.23.3.14.2.11.33-.08.47-.92.66-1.84,1.32-2.76,1.99-.68.49-1.35.99-2.03,1.48-.23.17-.33.15-.49-.09-.13-.19-.27-.38-.4-.56-.11-.15-.11-.3-.02-.46.48-.85.95-1.69,1.43-2.54.11-.2.23-.39.35-.61-.23-.06-.35.06-.48.15-.73.53-1.46,1.07-2.19,1.6-.24.18-.32.16-.5-.08-.12-.16-.24-.33-.35-.49-.14-.2-.14-.25.06-.4.53-.39,1.06-.77,1.59-1.15,1.08-.78,2.17-1.57,3.25-2.35Zm-3.01-3.67c.72.4,1.17,1.01,1.21,1.86.01.7-.3,1.27-.69,1.8-.5.68-1.1,1.26-1.81,1.72-.42.27-.87.47-1.37.5-.71.04-1.28-.27-1.73-.81-.69-.82-.57-1.68-.12-2.56.33-.64.8-1.18,1.35-1.64.33-.28.68-.53,1.06-.74.68-.38,1.4-.53,2.12-.13Zm-8.72-.16c.21-.89.71-1.61,1.25-2.32.33-.43.73-.77,1.19-1.04.35-.21.71-.39,1.13-.36,1.23,0,2.2,1.17,1.97,2.35-.04.22-.11.43-.17.64-.05.16-.15.24-.33.18-.24-.08-.48-.15-.71-.23-.16-.06-.22-.17-.18-.34.03-.11.04-.23.05-.34.02-.6-.51-.94-1.07-.7-.34.15-.59.4-.81.67-.38.46-.74.94-.93,1.51-.14.4-.07.74.25.98.22.17.69.17.96-.01.11-.08.21-.17.32-.25.16-.13.28-.12.39.05.15.23.28.46.4.7.03.07.02.21-.03.25-.42.38-.86.72-1.45.84-.54.11-.96-.07-1.38-.35-.81-.55-1.04-1.31-.82-2.25Zm-5.77-5.23c.45-.12.48-.19.46-.66-.02-.43.05-.84.27-1.22.45-.75.98-.91,1.76-.67.67.2,1.08.76,1.02,1.34-.04.46-.2.89-.57,1.19-.26.21-.56.37-.85.53-.26.14-.27.13-.19.42.05.19.09.38.15.56.06.2.18.22.34.08q.21-.19.44,0,.46.37.11.86s-.04.07-.06.1c-.43.31-.29.68-.1,1.04.09.18.08.3-.1.41-.18.11-.34.26-.51.38-.24.17-.35.13-.46-.14-.03-.06-.05-.13-.08-.19-.16-.34-.2-.36-.57-.24-.56.18-1.06-.02-1.56-.21-.15-.06-.29-.16-.41-.26-.41-.33-.63-.75-.56-1.24-.06-.87.61-1.84,1.47-2.07Zm-9.11,1.07c.11-.7.24-1.4.35-2.1.08-.49.15-.99.23-1.48.12-.76.24-1.52.36-2.28.05-.29.15-.36.43-.3.23.04.45.08.68.11.23.03.27.09.24.33-.09.56-.18,1.12-.27,1.68-.05.31-.01.35.29.4.32.05.64.11.97.17.23.04.3,0,.34-.23.09-.52.17-1.04.24-1.57.06-.41.11-.46.51-.4.23.03.46.07.68.1.17.02.24.1.22.27-.12.69-.24,1.38-.36,2.07-.12.76-.24,1.52-.35,2.28-.08.54-.16,1.08-.25,1.63-.03.19-.14.29-.34.28-.26-.05-.53-.1-.79-.16-.2-.04-.26-.17-.23-.37.11-.64.22-1.29.34-1.93.05-.29-.04-.41-.33-.45-.3-.04-.61-.1-.91-.14-.27-.04-.33,0-.37.26-.1.63-.2,1.26-.29,1.88-.05.37-.12.43-.49.4-.23-.02-.46-.06-.69-.1-.2-.03-.25-.18-.22-.34Zm-4.82-5.97c.02-.29.12-.38.4-.38,1.18,0,2.35,0,3.53,0,.29,0,.36.08.36.36,0,.28,0,.56,0,.84,0,.27-.08.35-.34.36-.22,0-.44,0-.66,0-.4-.02-.45.03-.45.43,0,.69,0,1.39,0,2.08h0v2.17c0,.28-.07.37-.35.37-.27,0-.54-.02-.81-.03-.19-.01-.26-.13-.25-.31,0-1.41.01-2.81.01-4.22,0-.09,0-.17,0-.26-.02-.18-.11-.25-.29-.24-.28.01-.56.02-.84.02-.23,0-.32-.08-.32-.31,0-.29,0-.58.02-.87Zm-5.54,2c.07-.58.28-1.12.71-1.55.4-.39.9-.53,1.44-.59,1.08-.11,1.55.29,2.03,1.25.08.15.04.28-.12.36-.24.12-.48.23-.73.34-.19.08-.35.02-.44-.16-.18-.37-.51-.37-.84-.34-.33.04-.55.24-.63.55-.07.28-.09.56-.14.85.03.67.13,1.31.41,1.92.29.63.96.81,1.54.42.3-.2.45-.43.37-.79-.03-.16-.11-.24-.27-.23-.14.01-.29.04-.42.07-.15.04-.26,0-.29-.15-.07-.31-.15-.62-.19-.93,0-.06.1-.2.17-.21.54-.1,1.08-.18,1.63-.25.26-.03.31.03.35.29.09.65.17,1.3.29,1.94.06.32.01.55-.21.81-.38.44-.8.79-1.36.93-1.16.29-1.88.1-2.53-.83-.47-.67-.69-1.44-.76-2.24-.04-.49-.06-.98,0-1.47Zm-6.04.02c.2-.07.41-.12.6-.2.25-.11.44-.03.62.16.28.31.56.6.84.91.41.46.82.92,1.24,1.37.08.09.2.16.29.24.02-.02.05-.03.07-.04,0-.09,0-.18-.02-.26-.26-.84-.53-1.67-.79-2.5,0-.03-.02-.05-.03-.08q-.17-.43.26-.59c.15-.05.31-.11.47-.15.25-.06.35,0,.44.24.1.29.2.58.29.88.21.66.4,1.33.61,1.98.27.85.56,1.7.84,2.55.02.06.04.13.06.19.07.3.03.34-.25.44-.18.06-.36.13-.54.2-.2.07-.37.04-.52-.13-.65-.71-1.3-1.42-1.95-2.12-.11-.12-.21-.25-.33-.36-.04-.04-.13-.07-.17-.05-.04.02-.06.11-.06.17,0,.04.01.09.03.14.29.87.58,1.73.87,2.6.1.31.02.43-.3.52-.18.05-.34.12-.52.18-.19.07-.29.03-.36-.16-.16-.47-.3-.95-.45-1.43-.21-.65-.42-1.3-.63-1.95-.2-.63-.4-1.27-.6-1.9-.05-.15-.09-.29-.15-.44-.09-.23-.06-.32.16-.4Zm-4.89,2.26c.9-.45,1.8-.91,2.71-1.36.2-.1.32-.06.43.13.12.22.23.44.35.66.09.16.04.29-.1.37-.21.13-.44.24-.66.35-.33.17-.65.32-.98.49-.24.12-.25.18-.12.42.08.14.14.3.22.44.13.23.24.27.47.15.44-.22.87-.45,1.3-.68.24-.13.39-.08.52.16.08.15.16.31.24.46.14.26.09.4-.17.53-.47.23-.93.46-1.39.7-.23.12-.23.14-.11.38.11.22.21.45.34.67.06.1.16.16.24.23.12-.05.19-.08.26-.11.42-.21.84-.43,1.25-.65.09-.05.19-.1.28-.15.16-.1.3-.1.39.06.15.27.3.54.42.82.09.19.02.32-.18.43-.95.48-1.91.96-2.86,1.43-.17.09-.28.02-.36-.13-.32-.64-.63-1.27-.95-1.91-.36-.71-.71-1.43-1.07-2.14-.21-.42-.43-.84-.64-1.26-.13-.27-.09-.38.17-.51Zm-4.97,3.25c.4-.28.8-.56,1.21-.84.28-.19.56-.38.84-.56.49-.33.97-.29,1.45.03.47.31,1.14,1.19,1.17,1.91-.07.22-.13.44-.21.65-.08.23-.07.25.18.27.35.02.64.2.92.39.45.3.88.62,1.32.93.24.17.23.29-.01.46-.22.15-.45.3-.67.46-.19.14-.35.14-.55,0-.5-.37-1.02-.72-1.54-1.07-.21-.15-.44-.29-.72-.19-.22.07-.26.2-.12.39.41.57.81,1.14,1.22,1.72.14.2.13.28-.07.43-.16.11-.32.21-.47.33-.31.22-.42.21-.64-.09-.49-.7-.97-1.41-1.47-2.11-.63-.9-1.27-1.79-1.91-2.68-.12-.16-.08-.29.07-.39Zm-4.29,3.86c.27-.27.53-.54.8-.79.59-.55,1.18-1.1,1.77-1.65.28-.27.34-.27.6.01.18.19.35.38.53.57.18.2.18.27,0,.46-.19.19-.38.38-.57.57-.19.2-.18.26,0,.45.55.59,1.1,1.18,1.65,1.77.41.43.83.86,1.24,1.29.09.09.17.2.25.31-.05.08-.07.14-.12.19-.19.2-.39.4-.59.59-.13.13-.25.11-.37-.02-.58-.61-1.18-1.22-1.75-1.83-.44-.47-.86-.95-1.29-1.43-.12-.13-.24-.14-.37-.02-.21.19-.42.37-.62.56-.25.24-.34.24-.56-.01-.19-.22-.38-.43-.58-.64-.12-.13-.12-.25,0-.38Zm-2.71,3.12c.28-.58.69-1.04,1.34-1.23.11-.03.24-.07.34-.04.35.1.7.21,1.03.35.21.09.22.2.1.39-.12.17-.24.35-.35.53-.11.19-.23.24-.45.16-.41-.15-.68-.07-.88.2-.14.19-.15.41-.02.59.14.2.36.3.58.2.28-.12.54-.29.8-.45.36-.22.75-.39,1.17-.47.35-.07.68.04.97.19.46.23.84.58,1.13,1.01.49.73.48,1.48-.05,2.2-.28.38-.6.74-1.08.87-.15.04-.3.05-.45.08-.51,0-.94-.23-1.36-.46-.17-.09-.19-.23-.09-.39.13-.2.27-.4.4-.6.11-.17.26-.17.43-.09.14.06.28.14.42.17.31.06.66-.1.79-.36.14-.26.06-.6-.19-.84-.25-.25-.57-.3-.87-.14-.27.15-.54.3-.8.46-.98.62-1.94.31-2.61-.46-.31-.35-.55-.76-.49-1.25.02-.21.09-.43.18-.63Zm-4.67,7.88c.27-.51.5-1.04.78-1.54.32-.59.79-.93,1.5-.94.84-.02,1.58.27,2.31.63.54.26,1.06.55,1.49.97.41.39.74.83.77,1.59-.07.22-.17.59-.31.93-.21.48-.46.95-.7,1.42-.09.19-.2.23-.4.13-.28-.13-.55-.27-.83-.41-1.47-.71-2.94-1.43-4.41-2.14-.37-.18-.4-.27-.2-.63Zm-1.89,5.3c.1-.34.2-.68.31-1.02.21-.65.42-1.3.63-1.95.08-.25.16-.3.4-.22.26.08.51.18.76.26.16.06.19.17.14.32-.13.39-.25.79-.38,1.18-.06.2-.13.4-.2.6-.04.12-.02.21.1.26.2.09.41.18.62.24.2.06.31,0,.38-.2.16-.47.31-.95.46-1.43.09-.3.17-.37.48-.3.22.05.44.14.65.22.18.07.2.18.13.37-.2.52-.37,1.05-.55,1.58-.04.13.02.23.14.27.27.1.54.19.82.27.24.07.35.01.42-.22.18-.56.36-1.12.53-1.68.08-.28.2-.35.46-.26.23.07.46.15.69.21.17.05.28.13.27.36,0,.02,0,.08-.03.13-.31.98-.63,1.96-.94,2.94-.08.25-.16.3-.43.23-.39-.11-.77-.23-1.16-.35-.83-.27-1.66-.54-2.5-.8-.65-.21-1.3-.41-1.95-.61-.26-.08-.32-.16-.25-.42Zm-.68,2.94c.04-.2.08-.4.13-.59.07-.29.17-.35.45-.29,1.73.34,3.46.68,5.19,1.03.21.04.42.08.62.14.23.07.27.16.21.39-.05.21-.08.42-.11.62-.04.23-.12.3-.39.29-.09-.01-.23-.03-.36-.05-1.19-.24-2.38-.47-3.57-.71-.64-.13-1.28-.27-1.92-.41-.27-.06-.31-.14-.25-.41Zm-.64,4.89c.07-.53.11-1.07.17-1.6.04-.38.09-.76.12-1.14.02-.23.17-.29.36-.29.26.01.52.03.77.08.08.01.16.12.2.21.03.08,0,.19,0,.29,0,0,.01,0,.01,0-.05.4-.1.8-.15,1.2-.04.3.1.46.39.48.15,0,.31.03.46.05.22.03.31-.02.34-.23.05-.37.1-.74.12-1.12.03-.33.09-.41.43-.39.23.01.46.05.69.08.15.02.21.12.19.27-.04.39-.07.78-.11,1.18-.02.24.06.36.31.39.48.05.96.09,1.44.13.23.02.46.03.69.04.17.01.24.12.22.27-.03.3-.05.6-.1.89-.01.08-.12.18-.2.19-.16.03-.33.01-.49,0-1.16-.12-2.31-.24-3.47-.36-.69-.07-1.38-.12-2.07-.18-.32-.03-.37-.11-.33-.42Zm-.03,2.39c0-.3.06-.35.36-.36.85,0,1.69,0,2.54,0h0c.76,0,1.52,0,2.28,0,.35,0,.69-.04,1.04-.05.32,0,.37.06.36.37,0,.23,0,.46,0,.69,0,.24-.07.31-.31.33-.11.01-.23,0-.35,0-.8,0-1.6,0-2.4,0-1.04.01-2.08.04-3.12.05-.39,0-.42-.03-.42-.43,0-.2,0-.4,0-.61Zm.99,6.59s-.06,0-.09.01c-.34.03-.41-.03-.45-.36-.05-.44-.09-.88-.14-1.32-.09-.73-.19-1.47-.29-2.2-.02-.16.03-.28.19-.3.37-.06.74-.11,1.11-.16.19-.02.28.08.29.27.02.28.06.56.07.83.01.2.1.29.29.27.25-.02.5-.05.75-.08,1.16-.14,2.31-.27,3.47-.41.03,0,.06,0,.09,0,.43-.05.43-.05.49.39.03.2.07.4.1.6.03.2-.03.29-.23.32-.68.09-1.36.17-2.03.25-.76.09-1.53.18-2.29.27-.34.04-.42.16-.37.51.03.2.06.4.1.6.05.29-.01.39-.31.44-.25.04-.5.06-.75.09,0,0,0,0,0,0Zm.77,5.01c-.11-.35-.2-.7-.29-1.06-.11-.4-.21-.8-.31-1.2-.2-.76.15-1.2.66-1.52.44-.27.93-.4,1.45-.41.41,0,.77.12,1.08.4.26.23.27.19.45-.09.17-.26.41-.48.65-.67.39-.31.81-.58,1.22-.87.3-.21.41-.17.5.18.06.25.14.5.21.75.06.21,0,.35-.19.48-.58.39-1.14.82-1.71,1.23-.08.06-.14.14-.19.21-.1.14-.12.29-.02.43.1.15.23.08.36.04.59-.17,1.19-.33,1.78-.49.39-.11.45-.08.56.3.06.18.11.37.16.55.07.25,0,.37-.24.43-.73.2-1.47.4-2.2.6-.83.22-1.65.45-2.48.67-.33.09-.66.19-1,.28-.26.07-.37,0-.45-.26Zm2.03,5.06c-.41-.92-.81-1.85-1.23-2.77-.09-.19-.07-.31.11-.41.26-.13.51-.26.77-.38.18-.08.29.03.36.19.24.55.49,1.11.73,1.67.09.21.14.24.34.15.19-.09.39-.17.58-.26.18-.08.19-.2.11-.38-.22-.48-.43-.97-.64-1.45-.11-.25-.08-.31.17-.42.19-.08.37-.17.55-.25.24-.1.32-.08.44.16.14.28.26.58.39.87.09.21.19.42.28.63.06.14.16.19.3.13.3-.12.61-.24.9-.39.06-.03.09-.19.07-.27-.07-.23-.18-.45-.28-.67-.17-.38-.36-.76-.53-1.15-.03-.07,0-.23.04-.25.32-.17.65-.32.98-.48.02,0,.04,0,.06,0,.01-.01.03-.03.04-.04.09.09.2.16.25.27.42.94.84,1.88,1.25,2.82.11.26.06.4-.2.51-.99.43-1.98.85-2.96,1.28-.79.35-1.57.71-2.36,1.07-.29.13-.39.09-.52-.19Zm7.38,2.56c-.58.73-1.35,1.23-2.19,1.62-.36.17-.76.29-1.15.37-1.05.22-1.94-.34-2.35-1.33-.23-.56-.15-1.09.17-1.59.14-.21.28-.42.44-.6.17-.19.28-.17.47-.01.15.13.31.27.46.4.14.12.18.24.05.4-.07.08-.12.17-.17.27-.25.53.09,1.07.68,1.09.37.01.68-.13.99-.29.54-.28,1.06-.6,1.47-1.06.18-.2.29-.42.27-.71-.02-.35-.26-.63-.61-.65-.25,0-.5.02-.74.07-.28.06-.34.03-.39-.25-.03-.21-.07-.42-.12-.62-.04-.2.03-.31.22-.36.38-.11.74-.29,1.04-.24.86-.01,1.37.35,1.75.98.54.89.35,1.68-.32,2.52Zm7.62,12.95c-.47.17-.93.1-1.34-.12-.36-.19-.72-.41-.96-.77-.26-.39-.44-.79-.28-1.27.1-.3.19-.61.31-.9.1-.22.2-.24.41-.12.19.11.39.21.58.32.23.13.26.23.13.47-.14.26-.15.54-.03.8.14.29.41.4.72.36.26-.03.49-.25.58-.54.06-.21.04-.4-.08-.58-.21-.32-.44-.63-.64-.96-.43-.69-.39-1.38.03-2.07.2-.32.45-.57.77-.77.4-.26.84-.3,1.27-.16.41.14.78.38,1.09.69.3.3.44.65.47,1.08-.09.3-.16.61-.28.9-.08.21-.27.24-.45.13-.15-.09-.3-.17-.45-.26-.26-.15-.3-.23-.23-.53.06-.24.05-.48-.14-.67-.2-.22-.48-.28-.67-.13-.23.19-.38.41-.18.73.21.34.46.66.69,1,.6.87.46,1.7-.23,2.53-.3.36-.64.65-1.1.82Zm4.25.08c-.54-.29-.54-.3-.82.22-.22.42-.43.86-.63,1.3-.17.39-.26.43-.63.25-.17-.08-.35-.17-.52-.25-.21-.1-.25-.24-.14-.45.44-.92.89-1.83,1.33-2.75.41-.86.82-1.72,1.22-2.58.11-.23.26-.27.5-.15.6.3,1.2.6,1.8.9.5.25.76.65.79,1.29-.13.81-.46,1.59-1.14,2.19-.57.5-1.17.37-1.77.05Zm6.81-.37c-.37-.1-.73-.23-1.1-.34-.2-.07-.4-.14-.6-.21-.14-.05-.25-.01-.31.13-.09.22-.18.45-.24.68-.02.06.06.18.13.22.12.08.26.13.4.17.39.12.79.24,1.19.36.17.05.28.13.26.42-.07.19-.15.48-.28.75-.03.06-.21.09-.3.07-.49-.14-.98-.29-1.46-.45-.3-.1-.39-.07-.5.23-.08.21-.15.42-.22.63-.08.25,0,.38.28.47.54.17,1.08.34,1.62.51.31.1.35.18.24.49-.08.24-.14.48-.22.71-.08.22-.21.26-.43.19-.69-.23-1.39-.45-2.09-.67-.32-.1-.64-.2-.96-.29-.19-.05-.2-.19-.16-.34.06-.22.12-.45.19-.67.37-1.14.75-2.28,1.12-3.43.17-.53.34-1.06.5-1.6.1-.32.14-.33.45-.23.83.27,1.67.52,2.51.79.17.05.34.12.51.19.16.06.21.18.15.35-.08.22-.16.43-.23.65-.09.25-.17.32-.43.25Zm4.95,1.52c-.23.06-.47.11-.71.13-.25.02-.32-.04-.36-.3-.06-.33-.21-.58-.55-.67-.38-.1-.69.02-.9.35-.1.15-.19.32-.24.49-.17.55-.29,1.12-.28,1.7-.02,0-.04,0-.06.01.07.27.1.57.22.82.22.46.81.53,1.17.16.15-.16.27-.37.36-.58.1-.21.17-.27.37-.15.22.13.44.28.65.43.14.1.17.24.1.39-.24.5-.49,1.01-.97,1.33-.37.24-.77.38-1.23.3-.52-.1-1.01-.26-1.36-.7-.32-.4-.49-.87-.57-1.37-.14-.94.06-1.83.3-2.73.19-.68.55-1.25,1.12-1.67.18-.13.4-.23.62-.29.72-.17,1.78.09,2.19.9.18.35.25.73.33,1.1.04.16-.05.29-.21.33Zm2.51-.19c-.02.59-.02,1.17-.05,1.76-.03.56-.08,1.11-.11,1.67-.02.38-.02.77-.05,1.15-.02.31-.07.35-.37.35-.25,0-.5-.03-.75-.05-.15-.02-.24-.1-.24-.27,0-.13,0-.27,0-.4.05-.97.11-1.94.16-2.91.03-.6.05-1.21.08-1.81.02-.31.05-.61.08-.92.02-.17.12-.26.29-.26.1,0,.19,0,.29,0,0,0,0-.02,0-.03.2.04.39.07.59.11.13.03.19.12.18.26-.03.45-.07.9-.09,1.35Zm5.5,4.74c-.19.01-.38.04-.57.06-.39.04-.53-.06-.6-.44,0-.05-.01-.1-.03-.14-.1-.46-.18-.51-.65-.47-.23.02-.46,0-.69.02-.39.02-.51.14-.55.52,0,.05,0,.1,0,.14-.02.44-.11.52-.56.54-.21,0-.42.02-.63.04-.15.02-.22-.05-.23-.19,0-.06,0-.12.01-.17.08-.4.15-.79.23-1.19.2-.95.4-1.9.59-2.85.12-.58.22-1.17.33-1.76.08-.47.17-.55.64-.56.05,0,.1,0,.14,0,0,0,0,0,0,.01.17-.02.34-.03.52-.05.2-.02.32.04.39.25.25.79.5,1.58.76,2.36.2.6.42,1.2.62,1.8.11.34.21.68.32,1.02.07.22.15.44.23.65.1.26.02.38-.26.4Zm4.75-.87c-.55.12-1.09.22-1.64.33-.41.08-.83.18-1.24.25-.26.05-.33-.02-.38-.26-.23-1.15-.46-2.3-.69-3.45-.15-.75-.32-1.51-.47-2.26-.01-.06-.02-.11-.02-.12-.01-.24.07-.35.27-.38.2-.03.4-.07.59-.11.31-.07.45.01.51.33.06.3.12.6.18.91.12.63.24,1.27.36,1.9.09.45.17.91.27,1.36.06.28.19.35.49.28.49-.1.98-.21,1.47-.31.3-.06.35,0,.4.29.04.27.1.55.17.82.06.26,0,.37-.27.43Zm2.53-.75c-.24.09-.49.18-.74.24-.07.02-.21-.05-.25-.12-.08-.14-.13-.3-.18-.45-.41-1.29-.81-2.59-1.22-3.88-.15-.49-.31-.99-.46-1.48-.01-.05-.02-.09-.04-.2.05-.05.12-.15.21-.19.24-.09.49-.16.74-.23.21-.06.34,0,.41.24.2.64.38,1.29.58,1.93.25.82.52,1.63.78,2.45.13.41.26.82.39,1.24.07.24.02.36-.22.45Zm3.72-1.31c-.26.12-.54.21-.82.26-.67.13-1.17-.2-1.59-.68-.12-.14-.22-.29-.33-.44-.13-.16-.12-.31.05-.42.22-.15.45-.29.69-.41.14-.07.26,0,.35.12.09.11.18.23.28.33.24.22.6.27.86.14.24-.13.37-.4.34-.68-.04-.32-.29-.61-.6-.66-.22-.03-.46-.02-.69,0-.45.03-.9.05-1.33-.15-.67-.3-1.01-.85-1.17-1.52-.22-.86.19-1.66.99-1.98.23-.09.46-.2.69-.27.4-.12.78-.02,1.09.23.26.22.48.49.71.75.1.12.08.23-.06.31-.26.15-.51.3-.78.42-.07.03-.21-.05-.29-.11-.12-.08-.2-.21-.32-.29-.22-.14-.45-.1-.65.04-.18.12-.25.35-.18.59.06.21.2.33.45.34.21,0,.42-.02.63-.03.28,0,.56-.03.84-.01.8.06,1.32.54,1.65,1.23.18.37.31.77.28,1.08,0,.92-.38,1.48-1.1,1.8Zm4.79-2.64c-.18.11-.35.23-.53.34-.21.14-.34.1-.48-.12-.64-1.05-1.28-2.1-1.92-3.15-.11-.19-.22-.39-.34-.57-.06-.09-.16-.15-.22-.21-.1.03-.16.04-.21.07-.22.14-.43.28-.65.43-.22.16-.39.13-.53-.1-.16-.25-.32-.5-.47-.76-.11-.18-.07-.33.13-.46.57-.35,1.15-.7,1.72-1.05.45-.28.9-.55,1.35-.83.2-.12.29-.12.4.06.18.29.35.59.53.89.1.16.08.27-.11.37-.27.14-.53.31-.79.47-.14.09-.16.2-.07.34.58.94,1.15,1.89,1.73,2.83.19.3.38.6.56.9.17.28.15.36-.12.53Zm-18.68-3.32c-8.44.21-15.55-2.37-21.47-7.97-5.47-5.17-8.52-11.57-9.02-19.08-.57-8.7,2.26-16.25,8.34-22.46,5.09-5.19,11.37-8.08,18.64-8.56,8.15-.54,15.37,1.94,21.45,7.4,5.73,5.15,8.97,11.64,9.54,19.34.61,8.16-1.8,15.41-7.25,21.55-5.45,6.13-12.36,9.31-20.24,9.79Zm31.09-9.16c-.18.45-.45.86-.82,1.17-.35.3-.76.44-1.23.35-.16-.03-.32-.07-.48-.11-.37-.1-.4-.16-.27-.53.07-.2.14-.4.2-.6.05-.16.15-.24.32-.21.37.07.67-.05.87-.37.23-.38.15-.76-.11-1.08-.24-.28-.53-.53-.83-.75-.41-.29-.84-.52-1.33-.66-.79-.23-1.34.39-1.35,1,0,.34.12.54.39.7.15.09.26.07.35-.06.08-.12.16-.24.23-.36.11-.19.18-.23.37-.12.23.13.45.27.66.41.17.12.19.25.08.43-.25.41-.51.82-.77,1.22-.17.26-.27.27-.54.1-.58-.37-1.17-.73-1.76-1.1-.18-.11-.28-.26-.32-.46-.04-.25-.06-.49-.09-.74.02-.98.63-1.97,1.51-2.31.27-.1.59-.14.87-.11,1.4.12,2.51.84,3.46,1.83.43.45.69,1,.74,1.62.02.24-.05.5-.14.73Zm3.29-6.92c-.09.21-.18.43-.27.64-.08.17-.21.24-.41.25-.63.02-1.26.08-1.89.11-.28.02-.56,0-.84.02-.19,0-.39,0-.58.03-.1.01-.19.06-.28.09,0,.03,0,.07,0,.1.28.1.55.19.82.3.7.29,1.4.58,2.09.88.29.13.29.18.15.46-.09.18-.16.37-.25.55-.1.2-.2.24-.39.16-1.1-.46-2.2-.92-3.29-1.38-.73-.31-1.47-.61-2.2-.92-.2-.08-.25-.19-.18-.38.09-.23.19-.46.3-.69.08-.17.22-.25.41-.25,1.07-.03,2.13-.08,3.2-.12.1,0,.2-.03.33-.06-.14-.24-.35-.3-.53-.37-.8-.34-1.6-.66-2.4-.99-.16-.07-.22-.18-.14-.35.09-.21.18-.42.28-.63.09-.2.25-.25.45-.17.93.39,1.86.78,2.79,1.17.65.28,1.3.57,1.96.85.24.1.48.2.72.29.25.1.27.15.16.41Zm.85-2.81c-.05.18-.07.36-.15.53-.05.1-.17.17-.24.24-.11-.03-.15-.04-.2-.05-1.41-.4-2.83-.8-4.24-1.2-.49-.14-.98-.28-1.47-.43-.24-.07-.27-.15-.2-.38.07-.23.15-.46.21-.69.06-.19.16-.27.36-.21.43.12.87.23,1.31.35.42.12.83.25,1.24.37.97.27,1.95.53,2.92.8.03,0,.05.02.08.03.46.15.49.2.36.66Zm1.21-6.14c-.03.17-.04.34-.07.52-.03.26-.18.42-.43.49-.68.2-1.37.39-2.05.59-.33.09-.67.18-1,.28-.08.03-.14.11-.21.17.07.05.14.13.22.14.59.1,1.18.19,1.77.28.32.05.65.08.97.13.28.05.36.16.32.44-.02.16-.04.33-.06.49-.05.31-.16.4-.48.35-.41-.06-.82-.13-1.23-.19-1.03-.16-2.05-.32-3.08-.48-.47-.07-.93-.14-1.4-.2-.32-.05-.4-.14-.36-.46.03-.22.07-.44.1-.66.03-.17.13-.27.29-.32,1.07-.31,2.14-.62,3.21-.93.08-.02.15-.1.22-.15-.08-.05-.16-.12-.25-.14-.93-.14-1.87-.27-2.8-.41-.32-.05-.36-.12-.3-.44.03-.16.05-.32.07-.49.04-.32.07-.35.51-.32.22.04.55.09.87.14.82.12,1.64.24,2.45.37.8.13,1.59.26,2.39.39.3.05.34.12.3.41Zm-.2-3.07c-.45.5-1.02.76-1.67.9-.67.14-1.34.18-2.01.09-.62-.09-1.24-.19-1.77-.57-.65-.47-.94-1.12-.87-1.75-.06-1,.56-1.61,1.3-1.95.53-.24,1.09-.33,1.67-.39.63-.06,1.25,0,1.85.14.79.19,1.49.56,1.82,1.37.27.67.2,1.57-.34,2.17Zm-25.33-31.25c.46,0,.56-.14.44-.57-.09-.29-.16-.59-.24-.89-.08-.3-.27-.37-.51-.18-.11.09-.22.19-.3.31-.2.28-.19.62-.08.91.11.27.37.44.69.41Zm24.76,65.88c-.26-.46-.43-.97-.87-1.31-.13-.1-.09-.2.1-.26.88-.27.96-1.32.64-1.86-.3-.51-.8-.62-1.31-.64-.63-.03-1.27,0-1.91,0-.38,0-.43.06-.43.44,0,.64,0,1.29,0,1.93h0c0,.66,0,1.33,0,1.99,0,.25.05.32.29.33.21,0,.42,0,.64,0,.22,0,.29-.08.29-.3,0-.34,0-.67,0-1.01,0-.17-.06-.39.15-.45.21-.07.34.12.47.27.02.02.03.05.04.07.23.4.46.8.68,1.2.08.15.19.23.36.23.29,0,.58,0,.87,0,.08,0,.17-.04.21-.1.03-.04-.01-.14-.04-.2-.05-.11-.12-.22-.18-.32Zm-1.47-2.27c-.24.11-.51.17-.77.18-.27.02-.31-.05-.32-.32,0-.09,0-.17,0-.26,0-.02,0-.04,0-.06-.05-.49.02-.54.57-.5.19.02.4.09.57.19.32.19.3.61-.04.77Zm-21.93-66.75c.29-.06.63-.48.64-.88-.05-.06-.12-.22-.24-.31-.14-.11-.31-.08-.46.02-.27.19-.4.7-.27.99.07.15.17.2.33.17Zm9.41,10.02c.25.21.53.32.85.16.19-.09.38-.18.56-.3.45-.31.84-.71,1.16-1.15.19-.26.37-.55.36-.88,0-.36-.18-.58-.46-.73-.4-.22-.75-.05-1.08.16-.5.33-.93.75-1.28,1.24-.15.21-.27.47-.35.72-.09.29-.01.58.23.78Zm13.24,22.39c-.14-.09-.3-.17-.46-.23-.55-.18-1.12-.17-1.69-.1-.3.03-.61.11-.88.23-.62.27-.71,1.04-.16,1.42.17.12.38.19.58.23.31.06.63.06.95.09,0,0,0-.01,0-.02.14,0,.29,0,.43,0,.38-.03.76-.07,1.11-.26.46-.25.61-1.05.12-1.36Zm-45.84-18.25c0,.14.08.21.2.24.31.09.51-.05.51-.37,0-1.23,0-2.47,0-3.7,0-.1.02-.2.03-.3.03-.01.05-.03.08-.04.1.1.21.18.28.29.33.51.65,1.02.97,1.54.49.78,1,1.55,1.49,2.34.12.18.26.27.48.26.14,0,.29,0,.43,0,.27-.01.34-.08.35-.35,0-1.55,0-3.1,0-4.65,0-.3-.18-.43-.47-.37-.21.04-.26.14-.26.44,0,1.19,0,2.39,0,3.58,0,.12-.02.24-.03.37-.03.01-.06.03-.08.04-.08-.07-.18-.13-.24-.22-.77-1.22-1.53-2.44-2.3-3.66-.37-.59-.38-.59-1.06-.56-.3.01-.39.1-.39.41,0,1.47,0,2.95,0,4.42,0,.1,0,.19,0,.29Zm1.58,41.15c-.39-.05-.79-.05-1.18-.07-.28-.02-.43-.13-.45-.35-.02-.26.1-.43.41-.45.32-.03.64-.03.95,0,.12,0,.29.1.32.19.1.28.31.27.54.27.2,0,.28-.1.26-.29-.04-.42-.39-.79-.93-.81-.45-.01-.9-.02-1.35,0-.32.01-.61.12-.79.4-.22.32-.2.68-.13,1.03.05.24.19.45.46.52.27.07.54.13.82.16.26.03.52,0,.78.03.17.02.35.05.44.23.16.33-.11.7-.51.68-.27,0-.54-.02-.81-.03-.31-.01-.42-.12-.48-.42-.01-.07-.07-.18-.13-.19-.17-.03-.34-.04-.51-.02-.05,0-.13.12-.14.19-.04.5.26.96.7,1.01.33.03.66.1.96.14.35-.04.65-.06.95-.12.7-.14,1.04-1.04.63-1.66-.2-.3-.5-.4-.81-.43Zm-5.22-2.29c.69,0,1.39,0,2.08,0,.32,0,.39-.11.34-.42-.04-.2-.12-.25-.41-.25-.93,0-1.85,0-2.78,0-.37,0-.43.06-.43.44,0,.7,0,1.41,0,2.11,0,.69,0,1.39,0,2.08,0,.35.06.42.42.42.93,0,1.85,0,2.78,0,.07,0,.14,0,.2-.01.17-.03.25-.14.24-.31-.01-.24-.12-.33-.41-.33-.68,0-1.37,0-2.05,0-.28,0-.37-.08-.38-.35,0-.32,0-.64,0-.95,0-.22.09-.31.32-.32.67,0,1.35,0,2.02,0,.28,0,.36-.05.36-.31,0-.26-.08-.33-.35-.32-.66,0-1.33.01-1.99.02-.27,0-.36-.09-.36-.37,0-.24,0-.48,0-.72,0-.37.03-.42.41-.42Zm-.23-8.22c.08-.6.13-1.2.18-1.81.05-.61.1-1.23.12-1.84.02-.56,0-1.12,0-1.68h0c0-.59,0-1.18,0-1.76,0-.35-.05-.41-.39-.41-.88,0-1.75,0-2.63,0-.05,0-.1,0-.14,0-.18.02-.27.12-.28.3-.02.6-.04,1.19-.06,1.79-.02.7-.05,1.4-.3,2.08-.19.52-.49.92-1.09.97-.33.02-.67.02-1.01,0-.37-.03-.69-.22-.89-.53-.16-.26-.28-.54-.38-.83-.25-.72-.26-1.48-.3-2.23-.05-.95-.07-1.9-.07-2.86,0-2.2.04-4.41.06-6.61.01-.86.02-1.71.06-2.57.03-.61.12-1.21.36-1.77.24-.56.65-.95,1.31-.98.21,0,.42,0,.64,0,.53,0,.93.26,1.15.73.14.3.23.63.31.96.18.77.15,1.55.13,2.33-.01.44.04.5.49.5.85,0,1.7,0,2.54,0,.44,0,.49-.05.48-.48-.02-.83-.04-1.65-.07-2.48-.02-.56-.03-1.12-.07-1.67-.06-.89-.13-1.78-.23-2.67-.12-1.05-.32-2.07-.77-3.03-.47-.98-1.15-1.71-2.27-1.89-.4-.07-.8-.08-1.2-.14-.64-.09-1.27-.02-1.89.09-.66.11-1.28.34-1.81.77-.72.58-1.19,1.33-1.5,2.19-.21.6-.39,1.21-.52,1.83-.16.77-.29,1.55-.38,2.33-.07.58-.08,1.17-.11,1.76-.04.69-.14,1.38-.13,2.07.04,4.36-.11,8.73.07,13.09.04.88.06,1.77.14,2.65.12,1.32.31,2.64.7,3.92.2.66.47,1.28.85,1.86.61.92,1.5,1.39,2.57,1.53.91.11,1.82.15,2.74.04.67-.08,1.27-.35,1.74-.83.57-.58.92-1.3,1.21-2.05.33-.85.53-1.73.65-2.63Zm8.84,11.21c-.19,0-.25.07-.28.32,0,.05,0,.1-.01.14-.05.27-.19.39-.45.39-.27,0-.36-.07-.42-.37-.02-.08-.03-.17-.03-.26,0-.5,0-1,0-1.5,0-.25.08-.32.33-.33.26,0,.52,0,.78,0,.25,0,.34-.1.34-.33,0-.22-.1-.3-.33-.31-.22,0-.44,0-.66,0-.42,0-.46-.04-.45-.47,0-.15-.02-.27-.17-.33-.33-.14-.58.04-.55.39.02.27-.01.34-.28.42-.19.05-.19.19-.2.33-.01.16.06.23.21.26.22.04.29.19.29.4,0,.29,0,.58,0,.87h0c0,.19,0,.39,0,.58,0,.19.01.39.05.57.06.36.27.61.64.64.3.02.61.02.91-.03.54-.08.76-.59.71-1.06-.03-.26-.12-.34-.4-.35Zm6.67,11.25c-.04-.15-.08-.32-.26-.38-.03.03-.06.04-.07.06-.1.64-.19,1.27-.29,1.91-.02.17.06.23.22.22.15-.01.31-.01.46-.02.31-.01.37-.1.3-.39-.12-.46-.24-.93-.37-1.39Zm21.54-32.1c-.09-.98-.24-1.95-.56-2.88-.24-.69-.64-1.27-1.24-1.7-.7-.5-1.51-.75-2.34-.91-.61-.12-1.23-.25-1.84-.37-.56-.1-.89-.43-1.01-.98-.03-.13-.06-.26-.07-.4-.03-.31-.05-.61-.08-.92-.06-.79-.02-1.58.15-2.35.13-.57.54-.92,1.11-1.01.42-.07.86-.04,1.29-.03.46.01.75.31.89.71.12.33.17.69.21,1.04.04.45.04.9.05,1.36,0,.27.08.33.36.32.14,0,.29,0,.43,0,.69,0,1.39,0,2.08,0,.3,0,.4-.09.39-.36-.04-1.36-.08-2.71-.13-4.07-.05-1.36-.27-2.7-.73-3.99-.16-.44-.36-.85-.65-1.21-.47-.6-1.07-.99-1.83-1.11-1.17-.2-2.34-.19-3.5.02-.98.17-1.7.71-2.21,1.57-.56.94-.79,1.98-.95,3.04-.13.87-.19,1.76-.25,2.64-.06.87-.11,1.75-.11,2.62,0,.96.03,1.92.07,2.89.03.68.08,1.36.16,2.04.12,1.03.28,2.06.65,3.04.47,1.23,1.36,1.96,2.63,2.22.92.19,1.86.32,2.78.53.61.14.84.4.92.91.05.32.09.65.1.97.02.53.06,1.06.03,1.59-.03.51-.11,1.01-.2,1.51-.1.61-.6,1.01-1.25,1.02-.39,0-.79.01-1.18,0-.64-.04-1.07-.41-1.23-1.03-.18-.7-.25-1.42-.23-2.14,0-.13,0-.27,0-.4-.01-.17-.1-.25-.29-.24-.42.01-.85,0-1.27,0h0c-.39.01-.77.02-1.16.01-.51,0-.54.02-.53.54.02.75.04,1.5.07,2.25.03.7.04,1.41.12,2.1.1.86.26,1.71.4,2.57.12.74.37,1.43.73,2.09.58,1.07,1.51,1.59,2.69,1.67.67.05,1.35.05,2.02,0,1.37-.12,2.51-.67,3.31-1.84.64-.95.91-2.03,1.1-3.13.11-.62.14-1.26.18-1.89.05-.94.1-1.88.11-2.82,0-.84-.04-1.67-.05-2.51,0-.98-.04-1.96-.13-2.94Zm-17.42-20.77c.08-.01.18-.11.22-.19.1-.21.19-.42.26-.64.06-.21.18-.3.39-.3.71,0,1.42,0,2.14,0,.2,0,.32.08.38.28.07.22.16.43.25.65.09.2.38.3.59.22.16-.06.17-.17.05-.45,0,0,0-.02-.01-.03-.28-.71-.56-1.41-.84-2.12-.31-.8-.62-1.59-.92-2.4-.1-.28-.26-.45-.54-.38-.47,0-.53.03-.69.42-.06.14-.1.29-.15.44-.28.75-.57,1.51-.86,2.26-.22.58-.45,1.16-.67,1.75-.05.13-.09.34-.03.42.07.08.28.08.42.06Zm.88-1.97c.21-.58.44-1.15.65-1.73.07-.18.11-.37.19-.54.03-.07.11-.17.16-.17.08,0,.18.08.21.15.19.48.37.97.56,1.45.1.28.21.56.3.84.07.22.02.29-.2.3-.28.01-.56,0-.84,0h0c-.28,0-.56,0-.84,0-.22-.01-.27-.1-.19-.3Zm-10.1-.57c.56.05,1.13.09,1.69.14.12.01.25.03.37.04.27.04.39.21.46.45.09.32.03.63-.05.94-.05.19-.17.3-.35.34-.64.15-1.28.15-1.92.01-.22-.05-.35-.19-.39-.42-.02-.13-.03-.27-.05-.4-.03-.21-.2-.23-.37-.24-.17,0-.29.06-.3.24-.07.85.28,1.35,1.12,1.44.63.06,1.27.03,1.9,0,.52-.02.99-.37,1.04-.8.05-.44.07-.88.03-1.32-.03-.38-.26-.67-.66-.75-.31-.06-.62-.11-.94-.13-.4-.03-.81-.04-1.21-.06-.25-.02-.49-.2-.53-.46-.04-.23-.05-.48-.04-.71.02-.26.25-.5.51-.51.52-.02,1.04-.02,1.55,0,.32.01.5.2.57.52.01.07.02.13.03.2.03.14.12.23.27.2.14-.02.32,0,.38-.19.13-.44-.23-1.13-.68-1.22-.42-.09-.85-.11-1.28-.17,0,.02,0,.03,0,.05-.26,0-.52-.02-.78,0-.51.04-.97.19-1.16.74-.16.43-.17.88-.06,1.31.11.42.38.72.84.76Zm-11.62,51.09c-.17-.08-.28-.03-.36.12-.16.31-.32.61-.46.93-.04.08-.02.25.04.3.36.36.94.29,1.18-.14.08-.15.12-.32.15-.4.02-.39-.17-.63-.56-.81Zm15.55-50.23c0,.17.02.35.05.52.12.54.38.97.96,1.12.21.05.43.11.65.11.53,0,1.06-.02,1.59-.05.62-.04,1.03-.38,1.11-.9.03-.24.03-.48.02-.72,0-.08-.08-.18-.16-.21-.29-.13-.51.03-.51.35,0,.07,0,.13,0,.2-.02.4-.21.63-.61.67-.49.05-.98.08-1.47.07-.55-.01-.88-.31-.92-.81-.07-.86-.1-1.72-.03-2.59.04-.46.39-.76.74-.79.53-.04,1.07-.04,1.61-.03.34.01.55.26.59.6.01.11.01.21.02.32.02.21.13.23.42.25.16.01.25-.11.24-.26,0-.22,0-.45-.05-.66-.1-.39-.33-.69-.76-.78-.08-.02-.15-.05-.22-.05-.75,0-1.5-.09-2.25.08-.53.12-.92.51-.99,1.04-.06.5-.06,1.02-.09,1.52,0,0,.02,0,.03,0,0,.34,0,.67,0,1.01Zm8.59,41.96c.34-.32.35-.74.32-1.15-.05-.78-.34-1.08-1.01-1.18-.32-.05-.65-.04-1.06-.06-.3.02-.67.03-1.04.08-.29.04-.53.18-.69.43-.29.45-.26,1.42.08,1.83.12.15.11.24-.04.36-.18.13-.28.31-.29.54,0,.3-.01.6,0,.9.02.5.35.92.85.98.52.07,1.05.08,1.58.08.29,0,.59-.05.88-.1.45-.07.69-.38.74-.81.04-.32.04-.65.03-.98,0-.25-.1-.47-.32-.62-.12-.08-.14-.2-.04-.3Zm-2.83-1.37c.02-.1.15-.25.25-.27.59-.12,1.19-.09,1.78,0,.09.01.21.09.25.17.16.32.17.65,0,.97-.09.17-.23.28-.44.28-.23,0-.46.02-.78.04-.19-.02-.47-.04-.74-.08-.2-.03-.31-.17-.33-.35-.02-.25-.03-.5.01-.75Zm2.4,3.04c-.03.24-.23.35-.44.4-.25.05-.51.07-.76.1-.3-.04-.59-.06-.87-.11-.3-.05-.42-.18-.43-.48,0-.19-.01-.38,0-.58.02-.31.2-.49.51-.5.48,0,.96,0,1.43,0,.3,0,.52.16.56.44.03.23.02.48,0,.72Zm4.68-2.36c-.66-.13-1.32-.15-1.97.04-.18.05-.26-.01-.27-.18-.01-.13,0-.27,0-.4,0-.4.01-.42.42-.42.74,0,1.48,0,2.23,0,.35,0,.43-.12.36-.45-.05-.22-.22-.22-.38-.22-.5,0-1,0-1.5,0-.51,0-1.02,0-1.53,0-.27,0-.36.07-.36.33,0,.67-.01,1.35,0,2.02,0,.1.1.26.19.28.21.05.44.09.6-.13.14-.19.34-.25.56-.25.37,0,.73-.02,1.1-.01.35,0,.68.2.7.48.03.43.01.86-.01,1.29-.01.21-.19.33-.39.38-.46.12-.94.11-1.41.06-.44-.05-.58-.2-.62-.64-.01-.14-.04-.24-.19-.28-.45-.12-.64.03-.59.49.01.1.03.19.06.28.13.39.37.64.8.75.51.13,1.02.08,1.52.08.3,0,.62-.04.91-.13.35-.1.63-.35.66-.73.05-.55.06-1.11.03-1.67-.03-.48-.43-.87-.9-.97Zm-16.94,2.59c-.38,0-.44.07-.44.43,0,.34.07.39.44.4.38,0,.44-.06.44-.39,0-.36-.07-.43-.44-.43Zm10.6-6.27c1.06-.01,1.85-.52,2.44-1.37.56-.81.9-1.72,1.14-2.67.3-1.2.45-2.42.52-3.65.05-1.03.05-2.06.08-3.09,0,0,0,0-.01,0,0-.62,0-1.23,0-1.85,0-.29-.07-.37-.35-.37-.93,0-1.85,0-2.78,0-.23,0-.3.07-.31.29-.02.58-.02,1.15-.05,1.73-.03.5-.06,1-.14,1.49-.05.3-.15.6-.27.88-.18.43-.51.71-.98.74-.34.03-.69.02-1.04,0-.35-.03-.62-.24-.85-.5-.3-.34-.42-.77-.49-1.19-.12-.63-.19-1.28-.22-1.92-.05-.95-.06-1.91-.06-2.86,0-2.5.04-5.01.05-7.51,0-.88.06-1.75.21-2.61.06-.37.19-.76.38-1.08.31-.51.79-.78,1.41-.71.12.01.25,0,.38,0,.57.03.98.3,1.21.83.28.64.34,1.32.4,2,.04.42,0,.85,0,1.27,0,.35.08.42.43.42.86,0,1.72,0,2.57,0,.42,0,.48-.06.48-.48-.02-1.02-.03-2.04-.06-3.06-.01-.55-.03-1.1-.06-1.64-.01-.28-.03-.56-.07-.83-.09-.67-.18-1.33-.28-2-.13-.87-.36-1.71-.76-2.5-.61-1.23-1.65-1.75-2.95-1.83-.53-.03-1.06-.03-1.58,0-.47.03-.94.1-1.39.23-.81.24-1.44.75-1.94,1.43-.75,1.04-1.09,2.25-1.32,3.48-.18.95-.28,1.92-.37,2.89-.09.97-.16,1.94-.16,2.91,0,4.59.02,9.17.05,13.76,0,.41.02.83.07,1.24.12,1.06.23,2.12.41,3.18.17,1.05.47,2.08.98,3.03.67,1.26,1.76,1.85,3.13,1.95.72.06,1.44.01,2.16,0ZM20.95,37.76c.57.29,1.15.58,1.72.87.32.16.63.33.95.48.14.07.33.17.44,0,.13-.21.21-.45.27-.6-.03-.39-.16-.63-.4-.8-.52-.38-1.08-.69-1.69-.87-.83-.25-1.12-.14-1.45.5-.12.24-.1.3.15.43Zm32.35,25.48c.07-.85.12-1.71.11-2.56,0-.9.05-1.8-.06-2.71-.09-.68-.04-1.38-.06-2.08-.02-1.14-.18-2.26-.5-3.36-.25-.86-.68-1.6-1.42-2.11-.71-.49-1.52-.72-2.36-.89-.68-.14-1.36-.28-2.03-.44-.38-.09-.62-.36-.69-.74-.09-.47-.16-.95-.2-1.42-.07-.83-.05-1.65.18-2.46.16-.56.57-.86,1.1-.94.45-.07.92-.03,1.38-.01.12,0,.26.08.37.15.33.21.49.55.54.92.08.63.12,1.26.14,1.9.02.39.08.46.48.46.79,0,1.58,0,2.37,0,.37,0,.41-.04.41-.41-.01-1.36.02-2.71-.12-4.07-.06-.54-.07-1.08-.16-1.61-.14-.86-.33-1.71-.66-2.54-.52-1.31-1.44-2.09-2.84-2.21-.81-.07-1.63-.03-2.45,0-.39.02-.79.1-1.16.23-.79.28-1.35.83-1.75,1.56-.5.93-.73,1.94-.88,2.97-.12.83-.18,1.66-.24,2.5-.06.89-.09,1.79-.11,2.68-.01.49.05.98.04,1.47,0,1.02.04,2.04.14,3.05.11,1.19.29,2.36.72,3.49.47,1.23,1.37,1.93,2.62,2.19.88.19,1.78.32,2.67.5.65.14.92.36,1.02.91.08.43.13.88.13,1.32,0,.76-.04,1.52-.1,2.28-.02.28-.12.57-.22.83-.17.41-.52.6-.94.68-.49.09-.98.07-1.47,0-.14-.02-.28-.06-.41-.12-.55-.24-.73-.73-.8-1.25-.09-.67-.11-1.34-.15-2.01-.02-.36-.07-.42-.42-.42-.41,0-.83,0-1.24,0h0c-.39,0-.77.01-1.16,0-.4,0-.44.01-.43.41.01.57.03,1.13.06,1.7.04.8.09,1.59.12,2.39.06,1.18.23,2.34.53,3.48.17.66.4,1.29.79,1.85.43.62.99,1.06,1.74,1.25.59.15,1.18.17,1.78.18.88.02,1.74-.08,2.57-.44.53-.23,1-.54,1.38-.97.79-.91,1.19-2.02,1.38-3.19.13-.8.21-1.6.27-2.41Zm1.39,11.52c0-.61,0-1.21,0-1.82,0-.76.02-.71-.7-.71-.19,0-.36.01-.51.16-.4.4-.81.8-1.21,1.2-.05.05-.11.19-.08.22.1.13.22.27.37.33.07.03.23-.06.31-.14.23-.23.43-.49.66-.73.07-.07.18-.09.27-.14.03.09.1.19.1.28,0,1.16,0,2.31,0,3.47,0,.32.07.4.38.4.35,0,.42-.07.42-.39,0-.71,0-1.43,0-2.14h0Zm4.68-.75c0-.26-.02-.52-.06-.78-.06-.39-.23-.72-.63-.86-.26-.09-.54-.16-.81-.18-.37-.03-.75-.02-1.13,0-.19,0-.39.02-.57.07-.4.11-.71.32-.82.76-.12.49-.13.97-.03,1.46.12.57.39.79.97.87.23.03.46.06.69.08.45.03.9,0,1.34-.15.18-.06.26-.02.26.18,0,.26-.03.52-.06.77-.03.22-.18.35-.37.4-.6.14-1.2.13-1.8,0-.19-.04-.34-.15-.36-.39-.03-.31-.13-.36-.51-.33-.19.01-.25.12-.26.4-.02.4.3.93.93,1,.78.09,1.55.12,2.33-.04.47-.09.82-.45.85-.92.03-.52.05-1.04.08-1.55,0,0-.02,0-.02,0,0-.26,0-.52,0-.78Zm-.85.36c-.08.25-.3.32-.52.34-.23.02-.46,0-.69,0h0c-.19,0-.38,0-.58,0-.42,0-.67-.24-.67-.66,0-.21,0-.42.01-.63.03-.37.17-.53.54-.54.49-.02.98,0,1.47.01.22,0,.35.14.42.34.12.37.15.75.03,1.13Zm-38.72-11.38c-.08-.21-.17-.43-.27-.63-.11-.22-.31-.31-.55-.29-.05,0-.1,0-.14,0-.37.06-.66.42-.58.73.04.16.08.31.12.47.06.24.16.31.39.26.29-.07.57-.15.86-.24.15-.04.23-.15.17-.31Z"/>
  </g>
</svg>