<?xml version="1.0" encoding="UTF-8"?>
<svg xmlns="http://www.w3.org/2000/svg" viewBox="0 0 108 108">
  <defs>
    <style>
      .cls-1 {
        fill: #282828;
      }

      .cls-1, .cls-2 {
        stroke-width: 0px;
      }

      .cls-2 {
        fill: #e9d5bd;
      }
    </style>
  </defs>
  <g id="bg">
    <circle class="cls-1" cx="54" cy="54" r="54"/>
  </g>
  <g id="icon">
    <path class="cls-2" d="m65.74,84.42c-.09-.31-.21-.61-.4-.87-.27-.37-.64-.61-1.09-.72-.55-.13-1.08-.05-1.6.17-.85.37-1.35,1.23-1.23,2.13.05.34.14.67.32.97.35.6.87.9,1.56.93.35.01.68-.08,1-.21.25-.1.5-.22.67-.44.12-.16.23-.15.29.04.07.23.14.46.16.7.03.36-.13.65-.44.85-.42.27-.89.3-1.37.22-.13-.02-.26-.05-.39-.08-.1-.02-.18.01-.22.11-.07.2-.14.4-.18.61-.03.12.03.19.15.23.34.1.69.21,1,.18.53.01.99-.1,1.42-.33.75-.4,1.12-1.01,1.09-1.87-.02-.42-.17-.8-.28-1.19-.14-.48-.31-.96-.45-1.44Zm-1.1.97c-.1.22-.28.37-.49.47-.29.14-.6.22-.93.15-.24-.05-.41-.19-.53-.39-.14-.23-.24-.49-.24-.76,0-.42.19-.74.57-.93.2-.1.4-.18.6-.16.39,0,.68.15.87.45.23.36.35.75.15,1.18Zm5.7-2.28c-.37-.11-.73-.11-1.09.04-.08.03-.16.08-.22,0-.03-.05-.03-.14-.02-.2.06-.21.13-.42.19-.63.09-.29.16-.58.27-.86.13-.34.17-.66-.07-.97-.01-.02-.02-.04-.03-.06-.07-.12-.14-.14-.27-.08-.35.17-.71.35-1.06.52-.46.23-.92.46-1.39.7-.21.1-.42.21-.62.32-.12.07-.17.14-.12.24.09.19.19.38.29.56.05.09.15.13.25.08.26-.13.52-.27.78-.4.34-.18.69-.35,1.03-.53.04-.02.11-.02.14,0,.03.02.03.09.02.14-.03.11-.09.22-.12.33-.15.51-.29,1.02-.44,1.53-.04.13-.01.23.07.32.23.26.37.28.65.08.03-.02.06-.04.09-.06.25-.15.51-.27.82-.29.35-.02.63.11.82.4.09.13.15.28.21.43.17.41,0,.91-.39,1.17-.38.26-.81.4-1.28.38-.14,0-.28-.03-.41-.04-.2-.02-.29.04-.34.23-.03.12-.06.24-.09.36-.04.15,0,.24.14.3.06.03.14.05.21.06.2.02.39.04.59.06.58.03,1.1-.15,1.59-.43.57-.33.98-.8,1.09-1.48.13-.82-.3-1.94-1.28-2.24Zm7.41-60.99c-.89-.67-1.81-1.3-2.77-1.89-.55-.34-1.11-.67-1.68-.98-.47-.26-.95-.51-1.43-.76-.45-.23-.9-.45-1.35-.66-.52-.24-1.04-.46-1.57-.68-.35-.15-.7-.29-1.06-.42-.42-.16-.85-.3-1.28-.44-.48-.16-.97-.33-1.46-.47-.55-.16-1.1-.3-1.65-.43-.71-.17-1.42-.35-2.14-.47-.95-.17-1.91-.29-2.86-.42-1.39-.19-2.8-.25-4.2-.26-1.57-.01-3.14.05-4.7.25-.72.09-1.45.19-2.17.3-.48.07-.95.18-1.42.27-.31.06-.62.12-.92.2-.39.09-.78.19-1.17.29-.3.08-.61.16-.91.25-.48.14-.97.28-1.45.44-.44.14-.87.31-1.3.47-.54.2-1.08.4-1.61.62-.61.26-1.21.54-1.81.83-.55.26-1.11.53-1.64.82-.83.46-1.65.94-2.45,1.44-1.09.68-2.14,1.43-3.15,2.22-1.18.93-2.32,1.91-3.39,2.97-.98.96-1.91,1.97-2.79,3.03-.7.84-1.37,1.7-1.99,2.61-.48.72-.97,1.44-1.42,2.18-.42.68-.82,1.38-1.19,2.09-.36.67-.67,1.36-1,2.04-.15.32-.29.64-.43.96-.15.36-.31.73-.45,1.09-.16.41-.3.82-.45,1.23-.16.45-.32.89-.46,1.35-.16.51-.3,1.02-.43,1.54-.17.64-.34,1.27-.47,1.91-.26,1.25-.47,2.51-.62,3.78-.18,1.51-.24,3.03-.26,4.55,0,.28,0,.56,0,.83.03.71.05,1.42.11,2.12.08.89.18,1.79.29,2.68.06.53.16,1.05.26,1.58.09.48.19.96.29,1.44.08.39.17.77.27,1.15.14.53.28,1.06.44,1.58.14.47.3.93.46,1.39.15.44.29.87.46,1.3.2.52.41,1.03.63,1.54.32.73.64,1.46,1,2.17.37.74.78,1.45,1.18,2.17.59,1.04,1.24,2.05,1.94,3.02.47.65.96,1.29,1.46,1.92.68.86,1.4,1.69,2.16,2.47.44.46.89.9,1.34,1.35.15.16.2.16.35,0,.32-.34.65-.67.97-1.01.97-1.01,1.95-2.02,2.92-3.02.85-.88,1.7-1.75,2.54-2.63.58-.6,1.17-1.2,1.75-1.81.16-.16.15-.23,0-.38-.42-.42-.85-.82-1.25-1.26-.94-1.02-1.82-2.1-2.58-3.26-.46-.7-.9-1.42-1.32-2.14-.3-.52-.55-1.06-.81-1.6-.14-.28-.26-.57-.38-.86-.16-.38-.32-.75-.46-1.13-.16-.44-.32-.89-.46-1.35-.16-.52-.33-1.05-.45-1.58-.17-.71-.32-1.43-.43-2.15-.13-.81-.24-1.63-.31-2.46-.09-1.2-.09-2.41-.04-3.61.04-.86.13-1.72.27-2.57.12-.78.3-1.55.46-2.32.2-.93.48-1.84.8-2.73.27-.75.57-1.48.9-2.21.43-.96.92-1.89,1.47-2.79.72-1.19,1.53-2.33,2.43-3.4.61-.73,1.26-1.44,1.95-2.1.94-.92,1.94-1.77,3.01-2.54.58-.42,1.18-.81,1.78-1.19.59-.36,1.2-.7,1.81-1.03.4-.22.82-.41,1.24-.6.37-.17.75-.33,1.13-.48.37-.15.75-.3,1.13-.42.46-.16.93-.3,1.4-.44.6-.17,1.19-.34,1.8-.47.87-.19,1.75-.33,2.64-.44,1.77-.22,3.54-.23,5.32-.11,1.13.07,2.25.23,3.36.47.33.07.66.14.98.22.54.14,1.09.28,1.63.44.44.13.87.29,1.3.45.67.26,1.34.51,1.99.8.68.31,1.34.65,1.98,1.02.66.37,1.31.77,1.94,1.18.85.56,1.65,1.18,2.43,1.83,1.24,1.04,2.37,2.19,3.4,3.43.72.87,1.4,1.78,2,2.74.47.76.91,1.53,1.34,2.31.23.43.42.88.63,1.33.14.31.27.61.39.93.16.4.32.8.46,1.21.16.46.3.92.43,1.38.17.61.34,1.22.48,1.84.22,1.01.37,2.02.48,3.05.11,1.07.13,2.14.12,3.22,0,1.24-.12,2.48-.31,3.71-.07.46-.15.92-.25,1.38-.13.61-.27,1.21-.43,1.81-.13.49-.3.98-.46,1.46-.2.56-.39,1.13-.63,1.68-.32.73-.66,1.44-1.02,2.16-.45.9-.98,1.76-1.54,2.6-.57.85-1.19,1.68-1.86,2.46-.61.71-1.23,1.41-1.92,2.04-.33.3-.22.33,0,.55.4.42.8.83,1.21,1.24,1.02,1.05,2.03,2.1,3.05,3.15.7.72,1.4,1.45,2.1,2.17.58.6,1.17,1.21,1.75,1.81.14.14.22.15.35.02.43-.43.86-.85,1.28-1.29,1.05-1.12,2.05-2.28,2.98-3.5.71-.94,1.39-1.91,2.01-2.92.35-.57.7-1.15,1.02-1.74.35-.63.68-1.27,1.01-1.92.21-.42.41-.84.59-1.27.22-.49.42-.99.62-1.5.22-.57.45-1.14.65-1.72.23-.67.43-1.35.62-2.03.16-.56.31-1.13.45-1.69.08-.33.15-.65.22-.98.09-.48.19-.96.26-1.44.11-.68.21-1.37.3-2.06.2-1.57.28-3.14.27-4.72,0-1.06-.06-2.12-.13-3.17-.04-.68-.13-1.35-.22-2.03-.07-.56-.17-1.11-.27-1.67-.06-.37-.13-.73-.2-1.1-.14-.63-.28-1.27-.44-1.9-.14-.54-.3-1.07-.46-1.6-.14-.47-.29-.95-.45-1.42-.2-.57-.41-1.14-.64-1.7-.26-.64-.52-1.28-.81-1.91-.32-.69-.67-1.36-1.01-2.04-.57-1.12-1.22-2.19-1.92-3.24-.68-1.04-1.41-2.04-2.19-3-.86-1.07-1.77-2.1-2.74-3.07-1.41-1.43-2.93-2.75-4.54-3.95Zm-59.07,21.28c.03-.09.11-.13.22-.13.01,0,.04,0,.07.02.68.2,1.35.41,2.03.6.73.21,1.46.41,2.19.62.43.12.86.24,1.28.37.24.07.28.18.2.41-.05.14-.08.3-.13.44-.06.18-.17.23-.36.17-.39-.12-.78-.23-1.17-.35-.22-.06-.43-.12-.65-.19-.52-.16-1.05-.32-1.57-.47-.51-.15-1.03-.29-1.54-.43-.21-.06-.42-.12-.63-.19-.1-.03-.17-.1-.15-.21.06-.23.13-.45.2-.67Zm-1.36,6.49c.06-.39.12-.78.18-1.17.12-.75.23-1.5.35-2.25.03-.17.1-.22.27-.21.15.01.29.03.44.05.19.02.25.1.24.31-.01.11-.03.23-.04.35-.1.66-.21,1.33-.32,1.99-.04.25,0,.32.25.36.45.07.89.14,1.34.22.13.02.19-.02.22-.18.06-.33.11-.66.16-.99.06-.38.11-.75.17-1.13.03-.16.09-.21.26-.2.16.02.32.04.48.07.16.03.22.12.21.28,0,.06-.02.12-.02.17-.09.6-.19,1.2-.29,1.8-.05.28,0,.34.27.38.53.08,1.06.15,1.58.23.13.02.26.03.39.07.16.05.21.14.19.3-.03.18-.06.36-.09.54-.03.15-.09.19-.25.18-.11,0-.22-.02-.33-.03-.61-.09-1.21-.2-1.82-.29-.97-.15-1.94-.29-2.9-.43-.24-.04-.48-.08-.71-.12-.2-.04-.24-.1-.21-.31Zm-.18,3.01c.01-.22.07-.29.29-.29.29,0,.58,0,.88.02.66.02,1.31.03,2.09.06.83.01,1.77.03,2.72.04.24,0,.32.07.32.31,0,.18,0,.36-.02.55-.01.15-.1.21-.27.21-.17,0-.34-.01-.5-.01-1.15-.03-2.31-.06-3.46-.08-.55-.01-1.11-.02-1.66-.04-.34-.01-.42-.01-.39-.4,0-.12,0-.23,0-.35Zm.71,7.36c-.19.01-.29-.07-.31-.26-.07-.7-.15-1.39-.22-2.09-.07-.72-.15-1.44-.22-2.16-.02-.25.01-.3.26-.33.13-.02.26-.03.39-.05.01,0,.03,0,.04,0,.16,0,.23.05.26.23.05.43.1.86.14,1.28,0,.07,0,.13.02.2.03.13.09.17.22.16.68-.08,1.36-.16,2.04-.23.91-.1,1.81-.19,2.72-.29.04,0,.07,0,.11,0,.16,0,.22.04.24.19.03.19.06.38.07.56.01.15-.05.23-.19.27-.08.02-.16.03-.24.04-1.49.15-2.98.3-4.47.46-.03,0-.06,0-.09,0-.22.03-.29.11-.27.33.04.44.09.87.14,1.31.03.25,0,.29-.25.33-.14.02-.27.04-.41.05Zm1.6,5.56c-.08.02-.16.04-.23.05-.14,0-.21-.04-.24-.17-.13-.48-.25-.96-.39-1.43-.1-.36-.21-.72-.23-1.09-.06-.76.18-1.38.83-1.81.36-.24.78-.33,1.19-.34.63.02,1.11.28,1.46.78.13.18.18.19.32.01.49-.61.99-1.23,1.48-1.84.01-.02.03-.04.04-.05.11-.11.21-.09.26.06.05.16.08.33.14.48.13.32.05.57-.18.83-.47.52-.89,1.08-1.34,1.62-.1.12-.14.25-.09.4.04.13.08.25.12.37.05.14.13.17.27.13.32-.1.64-.2.96-.29.24-.07.49-.14.74-.2.21-.05.3,0,.36.2.06.17.1.35.15.52.03.1-.01.18-.1.22-.13.06-.26.1-.39.14-.35.1-.7.2-1.05.29-.34.09-.67.18-1.01.28-.23.06-.46.13-.7.19-.32.09-.63.18-.95.27-.31.09-.62.17-.93.26-.16.05-.32.1-.48.14Zm7.95,4.33c.75.3,1.32.8,1.73,1.48.25.4.41.84.41,1.32,0,.61-.26,1.1-.71,1.5-.27.24-.57.44-.86.64-.42.3-.84.6-1.27.89-.49.32-1.03.4-1.6.26-.43-.11-.8-.36-1.1-.68-.54-.57-.84-1.25-.92-2.03-.03-.26.06-.35.32-.35.07,0,.13,0,.2,0h0c.07,0,.15,0,.22,0,.18,0,.24.06.25.23,0,.26.09.5.18.74.13.32.33.58.58.81.39.36,1.01.35,1.36.1.6-.42,1.19-.84,1.79-1.26.08-.06.16-.13.22-.21.33-.39.38-.86.14-1.32-.26-.52-.67-.89-1.2-1.13-.06-.03-.13-.05-.17-.1-.04-.05-.09-.14-.07-.19.07-.21.15-.41.24-.61.06-.12.14-.13.26-.09Zm-.3-1.53c.09.19.06.27-.13.36-.58.28-1.17.57-1.75.85-.44.21-.88.41-1.32.62-.43.2-.85.41-1.28.62-.29.14-.58.28-.86.42-.11.05-.2.04-.27-.05-.03-.03-.05-.07-.07-.11-.21-.43-.42-.87-.62-1.3-.22-.46-.44-.92-.67-1.38-.06-.13-.13-.26-.19-.39-.04-.09-.02-.18.06-.23.2-.11.4-.22.6-.31.09-.04.16.03.21.12.11.23.22.46.33.69.24.5.48,1,.72,1.5.09.19.12.19.3.1.32-.15.65-.31.97-.46.05-.02.1-.05.15-.09.14-.11.15-.16.07-.32-.3-.61-.59-1.22-.9-1.83-.11-.21-.04-.31.12-.42.13-.08.27-.14.41-.21.12-.05.23,0,.31.13.07.14.14.29.21.43.21.44.41.89.63,1.32.22.43.18.39.6.19.33-.15.66-.32.99-.47.08-.04.14-.07.15-.19-.02-.03-.03-.08-.06-.13-.36-.74-.72-1.48-1.07-2.23-.07-.15-.05-.25.1-.33.14-.08.29-.15.43-.21.16-.07.24-.05.33.11.1.19.19.38.28.57.42.87.83,1.74,1.25,2.6Zm-.46-28.42c-.34.75-.65,1.51-.98,2.27-.11.27-.23.54-.35.8-.02.05-.05.11-.08.15-.07.11-.17.12-.29.07-.53-.23-1.05-.46-1.58-.69-.49-.21-.97-.43-1.46-.64-.35-.15-.7-.29-1.05-.44-.42-.18-.83-.36-1.24-.54-.16-.07-.19-.17-.11-.37.08-.2.17-.39.25-.58.16-.36.31-.72.47-1.08.2-.47.4-.94.61-1.41.08-.18.2-.21.37-.13.1.05.2.09.3.13.24.1.28.21.18.44-.22.51-.44,1.02-.67,1.52-.08.17-.15.35-.23.52-.08.18-.03.3.16.39.36.16.72.31,1.08.47.12.05.16.04.24-.08.03-.05.06-.1.09-.15.2-.48.41-.95.61-1.43.07-.15.13-.31.2-.46.06-.14.14-.18.28-.13.17.06.34.14.5.21.08.04.12.12.12.24,0,.02-.01.06-.03.1-.24.56-.49,1.12-.73,1.68-.03.07-.07.14-.11.21-.08.16-.05.23.1.32.03.01.05.03.08.04.37.16.73.32,1.1.47.23.09.25.07.35-.14.31-.72.62-1.43.92-2.15.02-.05.05-.11.08-.16.08-.11.18-.14.3-.08.1.05.21.1.32.15.26.11.3.23.2.45Zm2.1-3.49c-.42.66-.86,1.3-1.29,1.95-.11.17-.2.17-.36.06-.5-.34-1-.68-1.51-1.01-.77-.51-1.54-1.03-2.31-1.54-.32-.21-.63-.42-.94-.63-.21-.14-.22-.23-.08-.43.36-.53.72-1.06,1.08-1.59.26-.39.57-.74.99-.97.41-.23.84-.32,1.31-.21.37.09.7.24,1.01.45.55.38,1.11.73,1.64,1.13.52.39.82.92.84,1.58-.01.45-.14.86-.37,1.23Zm2.33-6.06c-.67,0-1.13-.6-1.13-1.11,0-.55.56-1.12,1.11-1.12.54.01,1.11.49,1.11,1.14,0,.58-.51,1.09-1.09,1.09Zm7.08-5.22c-.28.22-.59.4-.89.59-.14.09-.28.16-.42.24-.19.11-.2.21-.08.39.26.43.52.86.77,1.3.07.12.04.2-.08.27-.17.11-.35.21-.52.32-.12.07-.22.05-.31-.09-.09-.14-.17-.29-.26-.43-.67-1.13-1.34-2.26-2-3.39-.23-.39-.46-.78-.69-1.17-.12-.2-.1-.26.11-.38.57-.34,1.14-.68,1.71-1.01.39-.23.8-.41,1.27-.42.49-.01.9.16,1.26.48.39.35.65.78.81,1.28.06.18.06.37.09.56,0,.63-.3,1.1-.76,1.47Zm7.13-.86c-.12.05-.24.1-.36.15-.73.27-1.47.53-2.2.8-.24.09-.47.19-.71.28-.05.02-.11.04-.17.05-.11.02-.19-.03-.22-.13-.12-.32-.24-.64-.36-.96-.15-.4-.29-.81-.44-1.21-.23-.62-.45-1.23-.68-1.85-.16-.42-.31-.85-.48-1.27-.15-.37-.1-.46.27-.59.45-.16.9-.33,1.35-.49.42-.15.84-.3,1.25-.46.1-.04.19-.08.28-.12.07-.03.14-.04.17-.05.14,0,.21.04.25.13.06.15.13.31.18.47.06.19,0,.26-.18.33-.42.15-.83.31-1.25.47-.25.09-.49.18-.74.27-.03.01-.07.02-.1.04-.28.11-.31.19-.2.46.11.27.21.55.31.82.02.05.03.11.06.17.08.17.17.22.35.16.19-.06.37-.14.55-.21.42-.16.83-.32,1.25-.47.04-.02.08-.03.12-.05.2-.06.32,0,.39.2.04.12.09.23.13.35.07.19.02.29-.17.35-.46.17-.91.34-1.37.51-.2.07-.4.14-.6.21-.18.06-.21.12-.15.29.05.17.12.33.18.49.09.23.17.47.26.7.08.21.17.24.38.16.58-.22,1.16-.44,1.74-.66.18-.07.35-.14.53-.2.13-.05.25,0,.31.13.07.17.14.35.2.53.04.1,0,.17-.12.22Zm5.67-1.11c-.24.04-.47.08-.71.12-.14.02-.24-.05-.33-.14-.3-.29-.59-.59-.88-.88-.26-.26-.52-.53-.78-.8-.1-.1-.21-.15-.35-.12-.13.03-.26.04-.39.07-.14.03-.18.09-.18.23,0,.04,0,.07.02.11.1.55.2,1.11.3,1.66.04.25.01.29-.23.35-.15.03-.3.07-.45.1-.19.04-.28-.02-.34-.21-.02-.06-.03-.13-.04-.19-.18-1.04-.37-2.09-.55-3.13-.14-.78-.27-1.55-.4-2.33-.04-.25-.01-.29.24-.34.68-.12,1.35-.24,2.03-.35.13-.02.26-.02.36-.03.38.01.72.04,1.05.21.42.21.71.54.87.97.09.25.15.52.16.79.03.68-.27,1.21-.84,1.58-.01,0-.03.01-.04.02-.24.15-.23.21-.03.4.41.39.8.78,1.21,1.18.14.14.29.27.42.42.15.16.11.28-.11.31Zm5.69-1.56c-.1.74-.56,1.17-1.24,1.41-.36.12-.72.19-1.08.16-.85.04-1.55-.28-2.19-.76-.19-.15-.2-.25-.06-.44.08-.11.16-.22.25-.33.13-.17.21-.18.39-.06.2.12.4.23.6.36.26.16.56.22.86.25.38.04.76-.01,1.08-.26.49-.37.42-1.02-.13-1.28-.21-.1-.44-.16-.66-.22-.53-.14-1.06-.26-1.54-.54-.89-.53-1.1-1.59-.6-2.37.17-.26.41-.45.7-.58.76-.33,1.53-.34,2.31-.13.4.11.76.31,1.09.55.11.08.13.15.06.26-.11.17-.23.34-.36.5-.08.1-.17.1-.29.03-.23-.12-.45-.23-.69-.33-.41-.18-.84-.18-1.27-.12-.22.03-.42.13-.57.29-.26.29-.23.69.06.93.1.09.23.16.36.21.25.09.52.15.78.22.46.13.92.24,1.33.49.69.41.92,1.01.81,1.77Zm6.65-1.65c-.03.28-.09.55-.14.82-.1.49-.2.99-.33,1.47-.19.67-.6,1.17-1.24,1.44-.36.15-.75.19-1.14.15-.51-.06-1-.18-1.45-.46-.52-.34-.84-.8-.93-1.41-.07-.43-.02-.86.06-1.28.1-.51.19-1.02.31-1.52.16-.66.47-1.23,1.09-1.57.35-.19.73-.29.99-.27.76.02,1.34.16,1.85.5.77.51,1.03,1.25.93,2.14Zm5.08,5.83c-.05.11-.09.23-.14.34-.09.2-.19.24-.38.16-.18-.07-.37-.14-.54-.23-.16-.07-.24-.2-.27-.37-.18-1.28-.36-2.56-.53-3.84-.02-.17-.03-.33-.04-.5,0,0,0,0,0,0,0-.1,0-.21,0-.31,0-.06-.04-.14-.08-.16-.08-.03-.1.06-.12.12-.11.31-.22.62-.34.92-.16.4-.32.8-.48,1.2-.14.35-.29.7-.44,1.05-.07.18-.14.35-.22.53-.08.18-.18.22-.37.15-.18-.07-.35-.14-.52-.22-.12-.06-.15-.13-.09-.27.12-.29.24-.58.36-.87.16-.37.31-.74.47-1.11.16-.38.33-.76.49-1.15.14-.34.28-.67.42-1.01.18-.42.35-.85.54-1.27.06-.15.14-.19.3-.13.22.09.44.2.66.3.12.05.17.15.19.27.16,1.33.33,2.67.49,4,.03.25.03.49.05.74,0,.05,0,.1.01.15,0,.03.04.07.07.07.03,0,.07-.02.09-.05.06-.14.12-.28.18-.42.16-.41.31-.82.47-1.22.22-.53.44-1.06.66-1.6.09-.22.18-.43.28-.64.09-.19.17-.22.37-.13.14.06.28.12.42.18.2.08.24.22.15.42-.18.4-.34.8-.52,1.21-.22.52-.44,1.03-.66,1.55-.14.34-.28.67-.42,1.01-.16.38-.32.75-.47,1.13Zm5.2,3.84c-.05.15-.15.21-.28.12-.21-.12-.4-.27-.59-.41-.11-.08-.09-.19-.06-.3.09-.34.19-.67.29-1.01.05-.18.06-.2-.1-.31-.33-.24-.67-.47-1.01-.7-.22-.15-.45-.3-.67-.45-.15-.1-.2-.1-.33,0-.27.22-.55.44-.82.65-.17.14-.22.14-.41.02-.17-.11-.33-.22-.49-.33-.18-.13-.19-.19,0-.33.39-.3.78-.59,1.17-.88,1.25-.93,2.5-1.86,3.74-2.78.18-.13.23-.13.41,0,.21.15.42.29.63.44.08.05.13.12.12.23-.06.24-.12.49-.19.73-.16.61-.32,1.21-.48,1.82-.07.26-.14.52-.21.78-.22.81-.44,1.62-.65,2.43-.02.09-.03.19-.06.28Zm5.46-2.75c-.23.25-.47.5-.71.75-.86.89-1.72,1.78-2.58,2.68-.02.02-.03.03-.04.05-.16.17-.15.23.03.4.53.51,1.07,1.02,1.6,1.53.04.04.07.1.11.16-.04.06-.06.11-.1.15-.11.12-.23.25-.35.37-.13.13-.22.13-.35,0-.68-.66-1.37-1.31-2.05-1.97-.08-.08-.17-.16-.26-.24-.21-.19-.21-.27-.02-.47.42-.43.83-.86,1.25-1.29.86-.9,1.71-1.79,2.57-2.69.06-.06.11-.12.17-.17.12-.11.19-.12.3-.02.15.14.3.28.44.43.12.13.12.21,0,.34Zm6.17,46.68c-.4.56-.8,1.13-1.21,1.69-.26.35-.58.63-.99.81-.44.19-.89.19-1.34,0-.36-.14-.66-.37-.91-.66-.39-.45-.48-.97-.37-1.54.07-.34.04-.37-.32-.36-.74.01-1.49.01-2.23.01-.06,0-.15-.03-.16-.07-.02-.06,0-.15.03-.2.13-.2.28-.39.42-.59.08-.12.19-.17.34-.16.4,0,.8,0,1.2,0h0c.38.01.76,0,1.14.02.18,0,.31-.06.4-.21.06-.09.13-.18.19-.26.09-.12.08-.19-.03-.28-.09-.07-.19-.14-.28-.2-.4-.29-.81-.58-1.21-.86-.19-.14-.2-.23-.07-.42.09-.13.19-.26.29-.39.13-.16.21-.17.38-.05.81.58,1.63,1.16,2.44,1.74.57.41,1.14.81,1.71,1.22.17.12.35.24.52.37.18.14.19.21.06.4Zm2.94-5.62c-.23.48-.45.96-.68,1.44-.24.52-.49,1.04-.73,1.56-.04.08-.09.15-.25.14-.03,0-.1-.03-.18-.06-.1-.04-.2-.1-.29-.14-.18-.08-.22-.18-.14-.37.05-.12.12-.24.17-.35.21-.44.41-.88.62-1.33.07-.16.16-.31.23-.47.05-.11.03-.19-.09-.25-.23-.11-.46-.22-.69-.33-.13-.06-.26-.13-.39-.19-.18-.08-.29-.05-.38.13-.2.43-.4.86-.6,1.29-.09.2-.18.4-.28.59-.1.19-.2.22-.39.13-.12-.06-.24-.11-.36-.17-.17-.09-.21-.18-.13-.36.24-.51.49-1.03.73-1.54.06-.13.13-.26.19-.39.06-.11.04-.19-.08-.26-.07-.04-.14-.08-.21-.11-.34-.16-.69-.32-1.03-.47-.18-.08-.21-.07-.3.12-.34.72-.68,1.44-1.02,2.16-.02.05-.05.1-.08.16-.05.09-.13.12-.22.08-.19-.08-.37-.16-.56-.26-.11-.06-.13-.14-.07-.26.33-.7.66-1.4.99-2.09.17-.36.34-.73.51-1.09.02-.05.04-.09.08-.13.07-.08.15-.1.26-.05.53.25,1.05.5,1.58.75.71.34,1.42.68,2.13,1.01.45.21.9.41,1.35.62.06.03.11.06.17.1.23.13.24.16.12.41Zm2.21-7.21c-.05.18-.11.37-.14.55-.03.15-.11.25-.25.3-.09.03-.18.07-.27.09-.54.15-1.08.29-1.63.44-.29.08-.57.17-.86.24-.61.16-1.21.32-1.82.47-.08.02-.2,0-.2.12,0,.1.11.11.18.13.1.03.2.05.3.07.78.18,1.56.37,2.34.55.33.08.67.16,1,.24.11.03.21.06.31.1.13.05.17.14.13.28-.05.18-.09.35-.14.53-.04.14-.1.19-.25.18-.05,0-.1-.01-.15-.02-.35-.09-.71-.19-1.06-.28-.37-.09-.74-.18-1.1-.27-.27-.07-.54-.13-.81-.2-.6-.16-1.2-.31-1.8-.47-.25-.06-.5-.12-.74-.19-.23-.07-.25-.12-.18-.35.05-.18.09-.35.13-.53.04-.16.13-.26.28-.3.32-.1.64-.2.96-.3.33-.1.66-.2.98-.3.5-.15,1.01-.3,1.51-.44.31-.09.62-.15.93-.24.09-.02.17-.07.28-.13-.11-.13-.22-.14-.33-.16-.52-.11-1.04-.22-1.56-.34-.6-.14-1.21-.29-1.81-.44-.12-.03-.24-.07-.35-.11-.16-.07-.18-.13-.13-.29.04-.14.07-.28.11-.42.05-.23.14-.3.38-.24.38.09.75.19,1.13.29.37.09.75.19,1.13.28.26.07.52.13.79.2.6.16,1.2.31,1.8.47.25.07.51.12.76.2.19.06.21.12.16.31Zm.43-3.45c-.01.13-.02.26-.03.39-.02.21-.09.27-.3.27-.59-.06-1.18-.13-1.76-.19-1.31-.13-2.62-.26-3.92-.39-.27-.03-.32-.08-.29-.35.02-.17.04-.33.06-.5.03-.19.09-.23.29-.21.9.1,1.8.2,2.7.29.98.1,1.96.19,2.94.29.3.03.34.09.31.39Zm-.11-5.59c.16.05.25.15.25.31,0,.14,0,.28,0,.42h.03c0,.1,0,.2,0,.31,0,.14-.05.24-.18.3-.23.1-.47.2-.71.29-.6.24-1.19.47-1.79.7-.38.15-.76.29-1.14.43-.36.14-.72.28-1.08.43-.36.15-.73.3-1.09.44-.12.05-.23,0-.24-.14-.02-.25-.02-.5-.02-.74,0-.1.05-.17.14-.21.12-.05.24-.11.36-.15.22-.08.44-.15.66-.23.19-.07.24-.17.23-.37-.03-.63-.05-1.25-.07-1.88,0-.22-.02-.26-.24-.33-.33-.1-.66-.2-.98-.3-.2-.06-.24-.1-.25-.3-.01-.2-.02-.41-.02-.61,0-.16.08-.22.24-.2.06.01.13.03.19.05.35.11.71.22,1.06.33.48.15.96.31,1.44.46.29.09.59.18.88.27.24.07.47.14.71.22.54.17,1.07.34,1.61.5Zm-1.35-8.12c.19-.04.29.01.33.19.17.8.34,1.6.5,2.4.01.07,0,.15.01.22-.03.62-.2,1.19-.75,1.56-.62.42-1.3.55-2.02.26-.34-.14-.6-.38-.79-.7-.1-.18-.17-.2-.31-.04-.5.55-.99,1.11-1.49,1.67-.05.05-.09.11-.15.16-.1.08-.19.06-.24-.06-.02-.04-.02-.08-.03-.13-.04-.19-.07-.39-.13-.58-.05-.16-.02-.28.09-.4.39-.43.78-.85,1.16-1.28.14-.15.27-.31.42-.45.13-.13.18-.27.12-.46-.03-.09-.03-.19-.05-.28-.04-.16-.11-.2-.27-.19-.08,0-.16.02-.24.04-.4.1-.81.19-1.21.29-.13.03-.26.06-.39.07-.15.02-.2-.02-.24-.16-.05-.19-.1-.38-.15-.57-.03-.13.02-.22.16-.27.12-.04.25-.07.38-.1.39-.09.79-.17,1.18-.25.76-.17,1.51-.34,2.26-.51.33-.08.67-.15,1-.23.28-.07.57-.14.85-.2Zm-5.36-3.09c.54-.23,1.09-.46,1.63-.69.4-.17.8-.34,1.2-.52.13-.06.14-.13.08-.27-.2-.45-.4-.91-.6-1.36-.04-.1-.02-.2.07-.25.19-.1.39-.2.59-.28.1-.04.18.04.22.13.11.24.21.48.32.72.15.35.29.7.44,1.05.22.53.45,1.06.67,1.59.09.21.18.41.27.62.03.06.06.12.06.19,0,.06-.03.16-.08.18-.19.09-.39.16-.58.24-.01,0-.03,0-.03,0-.12.01-.18-.05-.21-.14-.12-.27-.23-.53-.35-.8-.08-.18-.15-.37-.22-.55-.06-.14-.15-.17-.31-.11-.27.11-.54.22-.8.34-.21.09-.42.19-.64.28-.56.24-1.12.48-1.69.72-.36.15-.72.29-1.07.44-.1.04-.19.1-.3.14-.14.05-.22.01-.28-.12-.08-.18-.16-.36-.23-.54-.06-.14-.05-.2.09-.27.22-.11.45-.21.67-.31.35-.15.71-.3,1.07-.45Zm-1.24-5.89c0,.56-.54,1.08-1.13,1.09-.6.01-1.11-.57-1.09-1.11-.02-.64.6-1.11,1.13-1.11.61,0,1.09.58,1.09,1.13Zm5.97,53.55c-.16-.21-.32-.41-.48-.62-.13-.17-.1-.25.09-.36.1-.06.19-.13.27-.22.22-.23.22-.53.2-.82-.02-.3-.15-.52-.39-.7-.19-.13-.4-.19-.62-.2-.44-.03-.89-.03-1.33-.03-.14,0-.19.05-.21.2,0,.05,0,.1,0,.15,0,.44,0,.88,0,1.31h0c0,.41,0,.82,0,1.23,0,.39.05.44.44.42.21-.01.27-.08.28-.28,0-.07,0-.15,0-.22,0-.15,0-.31,0-.46.01-.2.16-.26.32-.15.06.04.11.1.15.16.16.22.32.44.48.65.21.28.44.37.78.3.14-.03.19-.13.11-.26-.02-.03-.05-.06-.07-.08Zm-.96-1.48c-.21.05-.43.05-.65.06-.1,0-.15-.08-.16-.18,0-.17-.01-.35,0-.52,0-.1.07-.16.17-.16.09,0,.19,0,.28,0h0c.09,0,.17,0,.26,0,.21.02.39.18.4.36.02.21-.08.38-.31.44Zm-47.42-2.96c-.59-.31-1.19-.62-1.79-.92-.23-.12-.24-.17-.12-.41.16-.31.32-.62.48-.93.09-.18.19-.22.37-.13.27.14.53.28.79.42.4.21.8.42,1.2.63.06.03.12.04.14.05.15.03.21-.04.25-.12.08-.13.15-.27.22-.4.1-.19.08-.29-.12-.39-.46-.24-.93-.49-1.39-.73-.52-.27-1.05-.54-1.58-.81-.21-.11-.29-.09-.4.12-.25.48-.5.97-.75,1.46-.27.53-.54,1.07-.82,1.6-.36.7-.72,1.4-1.09,2.1-.08.15-.07.21.07.29.19.11.38.21.58.31.43.22.86.44,1.28.66.45.23.91.47,1.36.7.14.07.19.06.27-.07.11-.17.21-.35.3-.53.04-.08.01-.16-.05-.22-.05-.04-.11-.08-.17-.11-.52-.27-1.05-.54-1.58-.81-.2-.1-.4-.21-.6-.32-.13-.07-.15-.14-.1-.25.13-.25.26-.5.4-.75.08-.15.16-.31.26-.46.08-.12.13-.13.26-.07.32.16.63.33.95.49.32.16.63.33.95.49.17.09.22.07.33-.09.08-.12.13-.25.2-.36.14-.23.11-.33-.12-.45Zm47.51.16c-.52-.07-1.03-.03-1.53.14-.69.24-1.21.66-1.57,1.29-.3.51-.39,1.08-.38,1.66,0,.45.08.89.27,1.3.4.86,1.09,1.39,2,1.58.83.17,1.64.11,2.4-.33.45-.26.81-.62,1.05-1.08.26-.49.38-1.01.36-1.6.03-.4-.05-.83-.23-1.22-.45-1.03-1.26-1.6-2.36-1.74Zm1.9,3.68c-.13.56-.4,1.02-.88,1.34-.43.29-.92.43-1.47.43-.5,0-1-.13-1.44-.43-.48-.32-.76-.78-.89-1.33-.19-.81-.08-1.57.41-2.25.28-.39.67-.61,1.13-.75.59-.18,1.17-.16,1.74.04.5.17.9.48,1.15.95.34.63.41,1.3.25,1.99Zm-46.2-3.63c-.43-.1-.86-.11-1.29.08-.59.26-.91,1.15-.49,1.78.24.36.59.6.95.83.21.14.44.27.63.43.24.22.15.55-.16.65-.1.03-.22.03-.32.03-.29-.01-.53-.14-.77-.29-.23-.14-.41-.32-.58-.53-.14-.17-.22-.17-.38-.04-.11.09-.22.19-.33.29-.12.12-.13.19-.03.32.06.08.13.16.2.23.57.61,1.28.92,2.07.96.59-.02.9-.11,1.21-.53.4-.54.44-1.15-.08-1.68-.25-.25-.56-.42-.85-.61-.2-.13-.4-.27-.58-.42-.11-.08-.18-.21-.12-.35.06-.16.18-.29.37-.31.14,0,.28,0,.41.03.34.1.65.26.91.5.04.04.08.08.13.12.12.1.21.1.34,0,.08-.06.14-.12.22-.18.29-.24.3-.3,0-.57-.41-.38-.89-.64-1.43-.76Zm17.09,1.48c-.04-.26-.12-.51-.26-.74-.41-.7-1.04-1.02-1.83-1.01-.32,0-.62.05-.93.16-.85.31-1.35,1.11-1.35,1.96,0,.35.07.68.21,1,.17.41.46.74.88.91.76.31,1.5.24,2.2-.21.02-.02.05-.03.08-.05.15-.08.22-.05.24.12.02.21.04.42.04.63,0,.13-.04.26-.09.38-.17.36-.48.54-.86.59-.46.07-.9-.03-1.31-.24-.18-.09-.22-.09-.33.1-.08.15-.15.3-.23.45-.08.15-.07.23.07.31.2.11.4.22.62.27.72.2,1.45.21,2.13-.14.44-.23.77-.57.95-1.04.15-.4.15-.8.09-1.21-.11-.74-.21-1.49-.31-2.23Zm-1.55,1.3c-.39.21-.82.27-1.24.07-.3-.15-.43-.43-.49-.74-.02-.09-.02-.19-.02-.28-.02-.38.12-.7.44-.9.62-.39,1.4-.28,1.7.39.25.55.2,1.16-.38,1.47Zm36.7-36.12c-.08-.61-.12-1.22-.18-1.83-.12-1.1-.29-2.19-.52-3.27-.19-.88-.4-1.75-.62-2.62-.16-.62-.34-1.24-.54-1.85-.23-.7-.47-1.4-.73-2.08-.28-.74-.59-1.48-.91-2.2-.31-.71-.63-1.41-1-2.09-.53-.98-1.07-1.96-1.65-2.91-.67-1.12-1.43-2.19-2.22-3.23-.68-.9-1.39-1.77-2.14-2.6-1.29-1.43-2.64-2.79-4.12-4.02-.72-.6-1.45-1.2-2.21-1.76-.91-.69-1.85-1.33-2.82-1.92-.76-.46-1.53-.92-2.31-1.34-.66-.36-1.34-.68-2.02-1.01-.51-.24-1.04-.47-1.56-.7-.18-.08-.36-.15-.55-.22-.41-.16-.81-.32-1.22-.48-.25-.09-.49-.18-.74-.26-.44-.15-.88-.3-1.33-.45-.35-.11-.71-.21-1.07-.31-.42-.11-.85-.22-1.27-.33-.38-.1-.76-.2-1.15-.27-.78-.15-1.56-.31-2.35-.42-.9-.13-1.81-.23-2.72-.34-.28-.03-.55-.06-.83-.09-.18-.02-.36-.07-.54-.07-1.11-.01-2.22-.03-3.33-.02-.73,0-1.46-.03-2.18.09-.55.1-1.12.11-1.68.17-1.09.12-2.17.28-3.25.5-.94.19-1.87.39-2.79.65-.71.21-1.43.41-2.14.62-.21.06-.42.13-.62.21-.42.16-.85.31-1.27.48-.53.2-1.06.41-1.59.63-.47.2-.93.42-1.39.64-.67.33-1.34.64-1.99,1-.7.38-1.4.79-2.08,1.21-.79.49-1.56,1-2.32,1.53-.97.68-1.91,1.42-2.82,2.19-1.39,1.17-2.69,2.45-3.92,3.78-1.12,1.22-2.16,2.51-3.12,3.86-.66.93-1.29,1.88-1.87,2.86-.41.7-.8,1.41-1.18,2.12-.3.55-.57,1.12-.84,1.68-.2.43-.39.86-.58,1.3-.17.4-.33.8-.48,1.2-.16.41-.31.82-.45,1.23-.15.43-.29.86-.43,1.29-.1.31-.2.61-.28.92-.15.56-.3,1.11-.44,1.67-.1.39-.2.78-.28,1.17-.15.78-.31,1.56-.42,2.35-.13.9-.23,1.8-.33,2.7-.03.26-.05.52-.08.78,0,.09-.03.18-.14.19v5.66c.08,0,.12.04.13.12.01.09.03.17.04.26.03.39.05.79.1,1.18.17,1.4.35,2.8.66,4.17.07.31.13.63.21.94.14.59.29,1.18.45,1.76.14.49.29.98.45,1.46.2.62.4,1.24.63,1.84.26.68.54,1.35.83,2.02.25.59.51,1.18.8,1.75.45.88.92,1.74,1.4,2.6.63,1.12,1.33,2.19,2.08,3.24.69.97,1.42,1.9,2.19,2.81,1.17,1.39,2.45,2.69,3.78,3.92.93.86,1.92,1.67,2.93,2.43.8.6,1.61,1.18,2.45,1.72.52.33,1.04.65,1.56.97.48.28.95.56,1.45.82.66.35,1.34.68,2.02,1.01.51.24,1.02.46,1.54.69.18.08.36.15.55.22.41.16.81.32,1.22.48.24.09.48.17.72.25.45.15.9.31,1.35.45.35.11.7.21,1.05.3.43.12.86.23,1.29.33.38.1.76.2,1.15.28.85.16,1.69.33,2.54.46.82.12,1.65.21,2.48.3.28.03.57.05.85.08.09,0,.16.02.17.13h5.66c.01-.14.12-.12.22-.13.52-.05,1.03-.08,1.55-.14.71-.09,1.42-.18,2.13-.3.77-.13,1.54-.27,2.3-.43.62-.13,1.24-.29,1.85-.46.7-.19,1.4-.4,2.1-.61.21-.06.42-.14.62-.21.42-.15.83-.31,1.25-.47.4-.15.8-.31,1.2-.47.33-.14.66-.28.98-.43.46-.21.92-.41,1.37-.63.64-.32,1.27-.65,1.89-1,.77-.44,1.53-.88,2.28-1.35,1.33-.85,2.6-1.78,3.83-2.77,1.18-.97,2.31-2,3.38-3.08,1.35-1.37,2.6-2.82,3.76-4.36.65-.86,1.27-1.75,1.84-2.67.48-.78.95-1.58,1.39-2.38.35-.63.67-1.28.99-1.93.22-.46.43-.93.63-1.39.14-.32.27-.64.41-.97.16-.39.32-.78.47-1.18.16-.44.31-.88.45-1.32.16-.47.32-.94.45-1.42.22-.82.44-1.64.63-2.46.18-.76.33-1.53.47-2.3.22-1.28.35-2.57.48-3.87.05-.55.07-1.09.08-1.64,0-.2,0-.39,0-.59-.03-1.34.08-2.69-.09-4.02Zm-41.72,44.2c-22.7-.04-40.94-18.39-41.06-40.83-.12-22.83,18.43-41.43,41.34-41.29,22.39.14,40.93,18.4,40.78,41.37-.15,22.4-18.38,40.7-41.05,40.75Zm1.09-7.6c0-.61,0-1.23,0-1.84,0-.34,0-.69-.01-1.03,0-.22-.05-.27-.27-.27-.15,0-.31,0-.46,0-.12,0-.23.03-.33.11-.34.24-.68.48-1.02.72-.11.08-.23.15-.34.24-.11.08-.13.17-.07.27.1.17.22.33.33.49.06.09.14.1.23.06.06-.03.12-.06.17-.1.15-.11.29-.23.44-.33.06-.04.15-.08.21-.06.04,0,.07.12.07.18.01.15,0,.31,0,.46.02,1.2.04,2.41.07,3.61,0,.15,0,.31.02.46.02.16.09.23.21.23.2,0,.39,0,.59-.01.12,0,.19-.07.21-.19.01-.07.01-.15.01-.22-.02-.93-.03-1.85-.05-2.78h-.02Zm-5.97,1.61c-.33-.04-.64.28-.64.67,0,.36.3.64.67.63.36-.01.63-.3.64-.66,0-.3-.32-.68-.67-.64Zm-1.16-3.48c-.19-.04-.37-.09-.55-.14-.16-.05-.2-.1-.18-.27.03-.2.06-.4.09-.61.04-.23-.03-.34-.26-.4-.11-.03-.23-.04-.34-.06-.21-.03-.3.03-.35.23-.08.33-.15.67-.22,1.01-.17.77-.34,1.54-.5,2.31-.06.31-.11.62-.14.8,0,.7.23,1.13.74,1.4.3.16.62.22.94.28.13.03.2-.03.24-.16.05-.16.09-.32.13-.49.04-.16,0-.23-.17-.27-.11-.03-.21-.05-.32-.08-.43-.1-.57-.5-.5-.82.13-.57.24-1.14.37-1.71.06-.27.13-.31.4-.24.13.03.27.07.4.11.23.06.33,0,.38-.23.02-.11.04-.22.06-.32.04-.23,0-.27-.23-.33Zm-1.77-55.34c-.06,0-.15,0-.18.04-.05.05-.08.13-.1.21-.14.75-.27,1.51-.4,2.26-.09.48-.17.96-.26,1.44-.05.29-.11.59-.15.88-.03.17.02.24.19.24.15,0,.29,0,.44,0,.15,0,.2-.05.23-.21.06-.33.12-.66.18-.99.12-.71.24-1.43.36-2.14,0-.03,0-.06.02-.08.02-.03.06-.08.09-.08.03,0,.07.04.09.08.02.04.03.08.05.12.13.33.27.66.4.99.16.38.32.77.48,1.15.13.32.27.63.4.95.06.14.16.21.3.22.13,0,.26,0,.39,0,.14,0,.21-.06.25-.2.02-.06.03-.11.04-.17.09-.55.18-1.11.28-1.66.16-.91.33-1.81.49-2.72,0-.04.02-.09.02-.13.01-.14-.04-.21-.18-.21-.13,0-.26,0-.39,0-.21,0-.26.06-.3.27-.08.47-.16.94-.24,1.4-.08.48-.17.96-.26,1.44-.01.06-.03.11-.05.17-.04.07-.11.08-.16.01-.02-.03-.04-.06-.05-.1-.11-.28-.23-.57-.34-.85-.27-.66-.54-1.32-.82-1.98-.18-.42-.13-.38-.56-.37,0,0-.01,0-.02,0h0c-.07,0-.15-.01-.22,0Zm27.48-5.67c-.59.46-1.17.92-1.76,1.38-.19.15-.19.2,0,.33.32.22.64.43.96.65.3.21.37.19.46-.18.09-.33.18-.66.28-.99.11-.38.22-.76.33-1.13.01-.05,0-.1.01-.14-.02-.01-.03-.03-.05-.04-.08.04-.17.07-.24.13Zm-14.91,10.76c.14,0,.28-.01.42,0,.16.01.26-.04.33-.19.13-.28.27-.56.41-.85.07-.16.19-.22.36-.22.43,0,.86,0,1.29,0,.23,0,.27.03.29.25.03.23.06.46.09.69.04.27.09.31.35.3.07,0,.13,0,.2,0,.44,0,.44,0,.36-.45-.1-.65-.19-1.3-.29-1.95-.12-.83-.24-1.66-.36-2.49-.02-.16-.08-.2-.23-.2-.14,0-.28,0-.42,0h0c-.12,0-.25.01-.37,0-.14-.01-.23.04-.3.17-.35.71-.71,1.42-1.06,2.13-.29.58-.57,1.16-.86,1.75-.13.26-.26.52-.39.78-.08.17-.03.26.17.26Zm1.74-2.26c.1-.24.22-.48.33-.71.15-.32.29-.65.44-.97.02-.05.07-.13.11-.14.09-.01.11.08.12.15.05.4.1.81.15,1.22.02.14.03.28.04.41,0,.18-.05.24-.23.24-.14,0-.28,0-.42,0h0c-.14,0-.28,0-.41,0-.15,0-.19-.06-.13-.2Zm-38.91,30.75c-.05-.18-.1-.37-.16-.54-.1-.3-.17-.62-.38-.88-.18-.22-.4-.33-.69-.33-.22.01-.44.07-.64.18-.33.18-.49.47-.46.85.04.47.2.91.33,1.36.05.15.11.18.27.14.52-.14,1.04-.28,1.56-.43.17-.05.22-.16.16-.34ZM58.39,30.33c-.12-.05-.25-.07-.38-.08-.28-.01-.57,0-.85,0h0c-.32,0-.64-.01-.96,0-.38.02-.69.19-.86.54-.09.18-.14.38-.18.58-.17.95-.34,1.9-.5,2.85-.03.16-.04.32-.03.48.02.25.14.44.39.53.11.04.22.08.34.08.59,0,1.18,0,1.77,0,.05,0,.1,0,.15-.01.37-.07.66-.24.83-.6.15-.31.15-.65.23-.98.03-.1-.05-.17-.15-.17-.15,0-.29,0-.44-.01-.2,0-.25.03-.3.24-.03.13-.06.27-.09.41-.06.23-.14.31-.38.31-.39,0-.77,0-1.16,0-.26,0-.34-.11-.29-.36.09-.5.19-.99.28-1.49.08-.42.15-.83.22-1.25.04-.24.15-.35.39-.36.39,0,.79,0,1.18,0,.2,0,.29.11.27.31-.01.12-.04.24-.06.37-.03.2.02.27.23.28.11,0,.22,0,.33,0,.19,0,.28-.05.31-.24.05-.28.09-.56.11-.85.02-.29-.14-.49-.39-.6Zm25.34,43.41c-.43-.31-.86-.61-1.29-.91-.16-.11-.21-.1-.32.05-.21.3-.43.59-.62.9-.12.19-.21.4-.23.68.01.06.03.16.07.25.1.26.3.43.53.56.37.22.77.21,1.08-.07.08-.07.16-.15.23-.23.21-.27.41-.55.61-.82.14-.19.14-.27-.06-.41ZM27.07,34.39c-.38-.26-.76-.52-1.15-.76-.23-.15-.49-.27-.88-.26-.28.02-.57.21-.79.52-.22.31-.43.62-.64.94-.12.18-.1.24.09.37.77.51,1.53,1.02,2.29,1.53.3.2.6.41.91.61.14.09.2.08.3-.04.05-.06.09-.12.12-.18.21-.35.44-.69.64-1.04.23-.41.12-.86-.24-1.19-.2-.18-.42-.33-.64-.49Zm59.81,11.38c.07.33.14.67.23,1,.06.22.16.42.33.58.37.33,1.05.29,1.42-.06.22-.2.28-.45.27-.73,0-.05,0-.1,0-.15-.08-.4-.15-.8-.23-1.2-.02-.1-.09-.15-.19-.14-.06,0-.13.02-.19.04-.46.1-.92.21-1.39.31-.25.05-.3.12-.25.36Zm-25.21-26.89c-.31-.18-.65-.27-1-.26-.59.01-.97.29-1.14.88-.17.58-.26,1.18-.39,1.77-.03.16-.06.33-.06.5-.02.48.14.89.57,1.13.27.15.58.25.9.22.22,0,.43,0,.63-.12.25-.15.42-.35.54-.62.12-.27.16-.56.21-.85.08-.42.18-.84.25-1.27.03-.17.04-.35.02-.52-.05-.37-.2-.68-.54-.88Zm-12.48.32c-.14-.44-.5-.68-.99-.65,0,0-.04,0-.07,0-.4.06-.79.12-1.19.19-.14.02-.17.09-.15.24.04.24.08.47.12.71.05.31.11.62.17.92.03.15.09.2.23.17.42-.08.85-.15,1.27-.25.21-.05.38-.17.52-.35.24-.32.21-.66.09-1Zm21.53,38.7c-.13,0-.19.05-.19.18,0,.13.06.19.18.19.16,0,.27-.07.26-.19,0-.11-.1-.18-.25-.18Zm-19.61-24c.02-.12-.03-.19-.15-.19-.18,0-.37,0-.55,0-.1,0-.17.07-.18.16-.03.28-.07.57-.07.85,0,.25.14.43.37.52.14.05.3.08.45.09.27.01.54,0,.81,0h0c.31,0,.63,0,.94-.01.45-.03.84-.32.94-.73.09-.38.16-.77.21-1.16.06-.4-.1-.7-.56-.83-.24-.07-.48-.12-.72-.18-.28-.07-.56-.12-.83-.19-.23-.06-.31-.18-.27-.42.02-.14.05-.29.08-.43.06-.26.16-.34.43-.35.34,0,.69,0,1.03,0,.22,0,.31.12.29.34,0,.08-.03.16-.03.24,0,.17.05.22.22.23.11,0,.22,0,.33,0,.19,0,.28-.05.31-.24.04-.22.06-.45.08-.67.02-.26-.12-.45-.35-.56-.13-.06-.28-.1-.42-.1-.55-.01-1.1-.01-1.64,0-.58,0-.97.35-1.08.92-.04.2-.08.4-.12.6-.03.16-.05.32-.05.48,0,.23.11.41.3.53.13.08.28.14.42.17.34.08.68.15,1.03.22.16.04.31.08.46.13.11.04.2.11.18.24-.03.25-.06.49-.11.73-.04.15-.16.24-.33.24-.41,0-.82,0-1.23,0-.21,0-.3-.13-.26-.33.02-.1.05-.2.06-.3Zm19.61,23.37c-.67-.02-1.06.42-1.07,1.03-.01.66.43,1.11,1.08,1.1.55,0,1.05-.37,1.04-1.09,0-.61-.42-1.07-1.06-1.04Zm.41,1.42s.06.06.06.09c0,.06,0,.12,0,.18-.06,0-.13.01-.18-.02-.06-.03-.1-.1-.15-.16-.04-.04-.06-.1-.11-.14-.04-.03-.11-.06-.15-.05-.04.01-.06.08-.08.13-.02.05,0,.11-.02.15-.02.04-.07.08-.11.09s-.1-.04-.12-.07c-.03-.06-.03-.13-.03-.19,0-.14,0-.28,0-.42h0c0-.14,0-.28,0-.42,0-.14.06-.2.19-.22.14-.01.29-.02.44,0,.27.03.45.26.4.5-.02.08-.07.16-.12.22-.12.14-.12.18-.02.32Zm-15.12.95c0-.05,0-.1,0-.15-.02-.2-.13-.32-.33-.34-.05,0-.1,0-.15,0-.97,0-1.94,0-2.91,0-.24,0-.31.06-.31.31,0,.56,0,1.12,0,1.69s0,1.12,0,1.69c0,.25.03.29.29.3.27,0,.54,0,.81,0,.74,0,1.48,0,2.21,0,.29,0,.39-.1.4-.4,0-.03,0-.06,0-.09,0-1,0-2,0-3Zm31.24-7.67c-.24-.06-.29-.01-.28.25,0,.18,0,.36,0,.55.02,0,.03,0,.05,0,0,.21,0,.42,0,.63,0,.23.1.29.33.21.2-.07.39-.15.59-.22.48-.17.96-.34,1.44-.52.09-.03.2-.05.2-.17,0-.12-.13-.12-.22-.15-.38-.11-.76-.21-1.13-.32-.32-.09-.64-.18-.97-.27Zm-18.04-5.71c-.07-.28-.13-.55-.2-.83-.12-.5-.23-1-.35-1.49-.02-.07-.06-.14-.09-.2-.02,0-.04,0-.05,0-.02.06-.06.11-.07.17-.11.48-.22.95-.32,1.43-.06.28-.13.57-.2.85-.15.63-.29,1.25-.44,1.88-.06.27-.14.54-.21.8-.03.13.02.21.17.21.75,0,1.5,0,2.26,0,.13,0,.19-.08.16-.2-.06-.23-.12-.47-.18-.7-.16-.64-.31-1.28-.47-1.91Zm-31.89-23.3c-.17-.17-.38-.25-.61-.27-.15.03-.32.03-.45.1-.39.2-.78.43-1.16.66-.17.1-.17.15-.06.32.13.21.25.43.38.64.19.32.37.64.57.96.1.16.21.18.37.07.08-.05.16-.1.24-.15.28-.18.57-.34.83-.53.34-.25.48-.6.36-1.03-.08-.31-.24-.56-.46-.78Zm39.07,45.32c.41-.66.81-1.34,1.18-2.02.45-.84.84-1.7,1.17-2.59.22-.6.45-1.2.64-1.81.25-.8.45-1.62.63-2.44.19-.93.33-1.87.43-2.81.11-1.02.13-2.04.1-3.06-.02-.72-.05-1.43-.11-2.14-.07-.71-.17-1.42-.29-2.13-.11-.65-.26-1.3-.42-1.95-.13-.52-.31-1.02-.46-1.53-.22-.76-.51-1.49-.82-2.21-.25-.58-.53-1.15-.82-1.72-.46-.92-.99-1.8-1.57-2.65-.26-.39-.54-.76-.81-1.15-.12-.18-.28-.27-.5-.25-.12.01-.25,0-.37,0-6.78,0-13.56,0-20.34,0s-13.59,0-20.38,0c-.11,0-.22.01-.33,0-.24-.03-.4.07-.53.27-.27.39-.55.77-.82,1.17-.28.43-.56.86-.82,1.3-.29.5-.57,1-.84,1.51-.21.4-.4.81-.58,1.23-.22.52-.43,1.05-.63,1.58-.16.43-.32.86-.45,1.3-.24.81-.45,1.63-.63,2.46-.21,1.02-.36,2.04-.45,3.08-.13,1.46-.13,2.92-.02,4.38.09,1.12.25,2.23.48,3.34.21,1.02.47,2.02.81,3,.25.73.55,1.44.84,2.16.31.77.69,1.51,1.1,2.24.72,1.31,1.56,2.55,2.49,3.73.81,1.02,1.69,1.97,2.64,2.86.14.13.29.21.49.19.11-.01.22,0,.33,0,11.53,0,23.06,0,34.59,0,.12,0,.23,0,.35,0,.17.01.31-.04.43-.16.12-.12.25-.24.38-.36.81-.77,1.55-1.61,2.25-2.48.6-.74,1.16-1.5,1.66-2.31Zm-21.45-25.53c.18-.49.53-.82,1.01-.99.37-.13.75-.17,1.14-.17,1.15,0,2.29,0,3.44,0,.4,0,.79.04,1.17.17.39.13.7.37.91.74.2.36.27.76.29,1.16.02.57,0,1.14,0,1.71,0,.18-.06.24-.23.25-.04,0-.07,0-.11,0-.55,0-1.1,0-1.64,0-.26,0-.31-.05-.3-.31,0-.41,0-.82,0-1.23,0-.3-.09-.39-.39-.39-.94,0-1.87,0-2.81,0-.27,0-.36.1-.38.38,0,.12,0,.23,0,.35,0,2.47,0,4.94,0,7.41,0,.09,0,.19.02.28.03.16.11.22.27.24.05,0,.1,0,.15,0,.9,0,1.8,0,2.7,0,.36,0,.43-.07.43-.44,0-.37,0-.75,0-1.12,0-.07,0-.13,0-.2.02-.15.06-.19.21-.2.05,0,.1,0,.15,0,.52,0,1.04,0,1.56,0,.03,0,.06,0,.09,0,.22.01.27.06.27.28,0,.58.01,1.17,0,1.75-.01.37-.08.74-.26,1.08-.26.48-.66.76-1.19.85-.35.06-.71.09-1.07.09-1.05.01-2.1.01-3.16,0-.34,0-.69-.03-1.02-.09-.65-.13-1.1-.51-1.3-1.16-.1-.33-.14-.67-.14-1.01,0-1.39,0-2.78,0-4.16s0-2.78,0-4.16c0-.38.05-.74.18-1.1Zm-16.68,6.51c-.43-.82-.86-1.64-1.3-2.46-.04-.08-.08-.16-.11-.24-.03-.07-.05-.15-.14-.14-.11.01-.09.11-.1.19,0,.02,0,.04,0,.07,0,1.41.01,2.82.02,4.23,0,1.06,0,2.12,0,3.18,0,.04,0,.09,0,.13-.02.17-.07.22-.23.23-.12,0-.25,0-.37,0-.43,0-.86,0-1.29,0-.27,0-.33-.06-.33-.34,0-4.05,0-8.09,0-12.14,0-.36.03-.39.39-.38.57,0,1.14,0,1.71,0,.19,0,.31.05.4.23.27.55.57,1.08.85,1.63.28.54.56,1.07.84,1.61.27.52.54,1.03.81,1.55.28.53.55,1.06.83,1.59.19.36.38.72.57,1.08.03.06.08.12.12.17.02,0,.05,0,.07,0,.01-.07.03-.15.03-.22,0-.2-.01-.39-.01-.59,0-2.22,0-4.44,0-6.66v-.04c0-.29.04-.33.33-.33.51,0,1.02,0,1.53,0,.06,0,.12,0,.18,0,.1,0,.16.07.17.17,0,.07,0,.13,0,.2,0,3.97,0,7.95,0,11.92,0,.12,0,.23,0,.35-.01.17-.07.22-.23.22-.58,0-1.15,0-1.73,0-.18,0-.3-.09-.38-.24-.47-.9-.95-1.81-1.43-2.71-.39-.75-.79-1.5-1.18-2.25Zm7.05,9.81c-.92,0-1.84,0-2.76,0-.05,0-.1,0-.15.01-.16.03-.23.1-.24.26,0,.07,0,.13,0,.2v7.69s0,.04,0,.07c0,.34.07.41.42.41.91,0,1.81,0,2.72,0,.07,0,.13,0,.2-.01.13-.02.21-.09.23-.23,0-.07.01-.15.01-.22,0-.38,0-.76,0-1.14,0-.01,0-.03,0-.04,0-.23.07-.3.31-.3.48,0,.96,0,1.45,0,.09,0,.19,0,.28,0,.17,0,.22.05.24.22,0,.03,0,.06,0,.09,0,.55,0,1.1,0,1.64,0,.32-.05.64-.17.94-.22.56-.63.9-1.21,1.04-.35.09-.71.11-1.07.11-1.13,0-2.25,0-3.38,0-.34,0-.67-.03-1-.12-.49-.13-.85-.43-1.08-.89-.15-.3-.19-.61-.22-.93-.01-.2-.02-.39-.02-.59,0-2.62,0-5.25,0-7.87,0-.31.02-.63.07-.94.07-.45.28-.83.65-1.11.27-.21.59-.31.93-.36.18-.03.36-.05.54-.05,1.31,0,2.62,0,3.92,0,.39,0,.77.08,1.11.28.34.2.58.48.73.85.13.32.17.65.17.99,0,.54,0,1.08,0,1.62,0,.24-.06.29-.3.29-.55,0-1.1,0-1.64,0-.27,0-.34-.06-.33-.33,0-.39,0-.77,0-1.16,0-.35-.08-.43-.42-.43Zm1.73-4.64c-.36,0-.73-.06-1.06-.23-.51-.26-.81-.67-.91-1.21-.06-.32-.07-.65-.08-.98-.01-.29,0-.58,0-.88,0-.23.07-.3.3-.3.54,0,1.08,0,1.62,0,.26,0,.31.06.31.31,0,.26,0,.51,0,.77,0,.08,0,.16.02.24.02.13.09.19.22.21.07.01.15.01.22.01.89,0,1.78,0,2.67,0,.43,0,.48-.05.48-.48,0-.61,0-1.23,0-1.84,0-.09,0-.18,0-.26-.03-.19-.11-.35-.32-.4-.21-.05-.41-.11-.61-.15-.31-.07-.63-.13-.94-.2-.77-.18-1.54-.34-2.3-.55-.43-.12-.82-.34-1.13-.68-.34-.39-.47-.85-.47-1.35,0-.76,0-1.52,0-2.28,0-.3,0-.6.04-.9.07-.67.39-1.19,1.02-1.47.33-.15.68-.21,1.05-.21,1.23,0,2.45,0,3.68,0,.33,0,.66.07.96.18.46.18.78.5.95.97.13.35.19.72.18,1.1,0,.31,0,.63,0,.94,0,.25-.05.3-.29.3-.56,0-1.11,0-1.67,0-.21,0-.27-.07-.27-.28,0-.23,0-.47,0-.7,0-.34-.11-.45-.46-.46-.19,0-.38,0-.57,0-.61,0-1.23,0-1.84,0-.07,0-.13,0-.2,0-.21.03-.32.15-.33.36,0,.02,0,.04,0,.07,0,.61,0,1.23,0,1.84,0,.11.02.23.05.34.04.13.13.21.26.25.15.04.29.1.44.13.95.2,1.9.39,2.85.61.45.1.89.24,1.28.49.57.35.84.87.91,1.52.01.11.01.22.01.33,0,.87,0,1.74,0,2.61,0,.37-.04.73-.17,1.08-.15.42-.42.74-.83.94-.46.23-.96.23-1.46.24-.53.01-1.07,0-1.6,0v-.02c-.66,0-1.33.01-1.99,0Zm11.17,9.62c-.18.54-.54.91-1.08,1.09-.37.13-.75.17-1.14.17-1.07,0-2.15,0-3.22,0-.06,0-.12,0-.18,0-.26,0-.3.05-.3.31,0,1.29,0,2.59,0,3.88,0,.25-.06.31-.31.31-.59,0-1.18,0-1.78,0-.24,0-.31-.07-.31-.32v-6.12h0v-6.05c0-.35.03-.37.37-.37,1.83,0,3.65,0,5.48,0,.41,0,.82.02,1.22.13.64.18,1.07.57,1.26,1.21.11.36.15.73.15,1.1,0,1.17,0,2.34,0,3.51,0,.39-.04.77-.17,1.14Zm9.75-4.93c-.07,0-.13,0-.2,0-.83,0-1.65,0-2.48,0-.27,0-.3.03-.3.31,0,3.35,0,6.69,0,10.04,0,.04,0,.07,0,.11-.02.19-.08.24-.27.24-.23,0-.45,0-.68,0-.4,0-.8,0-1.21,0-.17,0-.22-.04-.24-.21,0-.04,0-.09,0-.13v-5.04h0v-5s0-.06,0-.09c0-.18-.06-.23-.24-.23-.59,0-1.18,0-1.78,0-.29,0-.58,0-.88,0-.26,0-.29-.05-.29-.32,0-.47,0-.94,0-1.4,0-.06,0-.12,0-.18,0-.23.07-.28.29-.28,1.1,0,2.19,0,3.29,0,1.62,0,3.24,0,4.87,0,.05,0,.1,0,.15.01.1.02.16.07.16.17,0,.05,0,.1,0,.15,0,.53,0,1.05,0,1.58,0,.18-.05.23-.23.25Zm2.79.59c-.8.02-1.43-.55-1.42-1.36-.04-.75.55-1.39,1.34-1.39.81,0,1.38.52,1.41,1.34.03.8-.58,1.39-1.33,1.41Zm2.51-5.25c-.6,0-1.2,0-1.8,0-.23,0-.31-.05-.37-.28-.1-.37-.18-.74-.26-1.11-.09-.4-.19-.8-.28-1.19-.03-.14-.07-.27-.09-.41-.05-.25-.1-.29-.35-.29-.61,0-1.23,0-1.84,0-.41,0-.82,0-1.23,0-.27,0-.34.07-.4.33-.1.46-.21.91-.32,1.36-.09.39-.18.78-.27,1.17-.01.06-.02.12-.04.17-.06.17-.13.24-.32.24-.61,0-1.23,0-1.84,0-.25,0-.29-.08-.23-.32.15-.56.3-1.13.45-1.69.07-.27.14-.54.21-.8.22-.8.44-1.61.65-2.41.21-.8.41-1.6.62-2.39.15-.58.32-1.15.47-1.73.15-.56.29-1.12.43-1.67.07-.28.14-.55.22-.83.06-.24.12-.48.19-.72.07-.25.14-.29.39-.29.46,0,.92,0,1.38,0h0c.47,0,.93,0,1.4,0,.16,0,.22.03.27.2.11.39.22.77.32,1.16.1.37.2.75.3,1.12.15.59.3,1.17.46,1.76.08.31.16.62.25.93.21.8.43,1.59.64,2.39.21.81.42,1.62.64,2.44.22.83.44,1.66.66,2.5.08.32.03.37-.3.37Zm.42-5.15c-.18-.01-.25-.08-.25-.26,0-.23,0-.45,0-.68,0-.25,0-.5,0-.74,0-.29.05-.34.35-.34.96,0,1.93,0,2.89,0,.11,0,.22,0,.33,0,.14,0,.2.05.22.19.01.09,0,.17,0,.26,0,.42,0,.85,0,1.27,0,.26-.05.31-.3.31-.52,0-1.05,0-1.57,0-.51,0-1.02,0-1.53,0-.04,0-.09,0-.13,0Z"/>
  </g>
</svg>