<?xml version="1.0" encoding="UTF-8"?>
<svg xmlns="http://www.w3.org/2000/svg" viewBox="0 0 108 108">
  <defs>
    <style>
      .cls-1 {
        fill: #282828;
      }

      .cls-1, .cls-2 {
        stroke-width: 0px;
      }

      .cls-2 {
        fill: #e9d5bd;
      }
    </style>
  </defs>
  <g id="bg">
    <circle class="cls-1" cx="54" cy="54" r="54"/>
  </g>
  <g id="icon">
    <path class="cls-2" d="m70.35,38.24c.52.24,1.03.52,1.5.84.55.37,1.08.78,1.59,1.19.19.15.32.14.49,0,.23-.21.35-.45.32-.76-.08-.92-.16-1.84-.26-2.76-.13-1.28-.42-2.52-.72-3.77-.21-.84-.67-1.19-1.55-1.19-1.19,0-2.37,0-3.56,0h-1.87c-.62,0-1.24,0-1.87,0-.44,0-.69.15-.81.51-.06.19-.09.4-.07.6.06.56.16,1.11.22,1.67.11,1.03.22,2.06.31,3.1.05.55.06,1.1.09,1.64,0,.06.01.12.03.17.18.48.38.97.89,1.17.55.22,1.13.14,1.7.03.08-.01.15-.08.22-.13.31-.2.44-.51.54-.85.19-.7.58-1.25,1.31-1.49.5-.17,1.01-.16,1.48.05Zm-12.94-16.28c-2.66.03-5.32.01-7.99.01-.97,0-1.71.52-2.01,1.45-.62,1.91-1.22,3.83-1.84,5.74-.31.97.35,1.51,1.1,1.5,2.23-.03,4.46-.01,6.68-.01s4.51-.02,6.77.01c.7.01,1.39-.58,1.09-1.49-.64-1.93-1.27-3.87-1.86-5.82-.22-.73-1.23-1.41-1.94-1.4Zm12.68,3.34c-.47-.78-1.02-1.51-1.44-2.31-.42-.79-1.07-1.1-1.9-1.11-1.76-.01-3.53,0-5.29,0-.12,0-.23,0-.35,0-.41.06-.6.32-.51.74.02.11.06.22.1.33.26.7.56,1.39.79,2.09.45,1.41.88,2.82,1.29,4.24.26.88.75,1.28,1.64,1.28,1.13,0,2.26,0,3.38,0s2.14,0,3.21,0c.17,0,.35.01.52,0,.45-.04.65-.26.63-.7,0-.18-.05-.37-.12-.54-.55-1.39-1.2-2.74-1.97-4.02Zm-4.03,18.72c.82-.44,1.68-.76,2.6-.85.64-.06,1.29-.04,1.93.12.17.04.38.04.54-.01.4-.13.47-.46.18-.76-.22-.23-.43-.47-.68-.67-.62-.52-1.29-.95-2.1-1.14-.39-.09-.67,0-.91.29-.3.36-.69.61-1.16.69-.69.13-1.38.23-2.08.35-.74.12-1.4.39-1.95.93-.42.41-.87.8-1.34,1.16-1.22.91-2.61,1.36-4.12,1.38-.69,0-1.37-.06-2.12-.1.26,1.68.09,3.34-.54,4.97.31-.03.61-.04.91-.1,1.05-.21,2.07-.54,3.04-.99,2.1-.96,3.98-2.28,5.75-3.74.65-.54,1.28-1.11,2.04-1.52Zm-10.16,8.69c.68-.19,1.36-.37,2.05-.51.29-.06.6,0,.9-.01.4,0,.8-.05,1.19-.42h-4.54c-.07.09-.14.16-.18.25-.12.21-.16.43,0,.65.18.23.37.11.58.05Zm6.28-4.11c.03-.14.07-.32-.13-.47-1.67.71-3.3,1.55-4.95,2.46.29.28.6.21.87.23,1.1.08,2.19.06,3.12-.68.06-.04.12-.09.18-.12.58-.3.79-.85.92-1.43Zm-30.51-11.46c.13-.37.27-.69.34-1.02.1-.43.19-.87.21-1.31.02-.47-.2-.74-.58-.84-.23-.06-.5-.2-.67.06-.17.25,0,.47.16.66.4.49.51,1,.27,1.61-.12.29-.07.59.28.85Zm-.64,7.52c.37,1.14,1.12,1.92,2.32,2.2.77.18,1.47-.2,1.65-.91.2-.79.05-1.53-.34-2.24-.4-.73-.97-1.32-1.51-1.94-.43-.49-.84-.99-1.12-1.57-.14-.29-.23-.61-.34-.93-.51.77-1.3.55-2.06.6.61.87.81,1.82.97,2.79.11.67.23,1.36.44,2Zm-.78-5.41c.55,0,.85-.26.94-.77.08-.44-.06-.84-.15-1.26-.11-.52-.4-.78-.92-.87-.77-.14-1.52.42-1.54,1.21-.01.57.35.96.72,1.32.26.26.59.41.95.37Zm15.51-17.29c-1.9.02-3.79,0-5.69.01-.73,0-1.3.34-1.65,1-.08.15-.18.29-.27.44-.56.89-1.12,1.78-1.69,2.68q.86.28,1.14,1.12c.04.11.12.21.19.34.17-.07.31-.12.43-.19.52-.31,1.04-.62,1.55-.94.22-.13.41-.32.72-.33.05.1.12.19.15.29.1.38.22.75.25,1.13.1,1.01-.32,1.94-1.29,2.44-.27.14-.54.27-.81.41-.11.06-.2.14-.3.2,0,.02.02.05.03.07h.42c1.2,0,2.4,0,3.6,0,.9,0,1.44-.42,1.68-1.31.51-1.89,1.06-3.76,1.8-5.57.13-.32.24-.65.36-.97.2-.53-.16-.86-.63-.85Zm-10.26,28.65c1.26,0,2.52-.02,3.77-.02.77,0,1.54,0,2.31,0-.02-.02-.03-.05-.05-.06-.26-.08-.51-.17-.77-.25-2.08-.61-4.17-1.19-6.11-2.2-.24-.13-.54-.16-.8-.23-.06.1-.12.15-.12.2-.03.66.06,1.3.37,1.88.29.54.82.69,1.4.68Zm27.62,3.41c.37-.04.73-.09,1.06-.28-.18-.48-.52-.8-.95-.98-.7-.28-1.41-.52-2.11-.78-.59.66-1.3.86-2.1.83-.51-.02-1.01-.02-1.52,0-.52.02-1.03.11-1.46.43-.22.17-.41.39-.63.6-.36-.24-.55-.63-.76-1-.18-.32-.34-.66-.52-.98-.1-.18-.24-.27-.51-.24-.02.27-.09.53.04.79.12.24.25.48.38.72.21.38.26.77.03,1.14-.38.61-1.17.9-1.87.71-.22-.06-.44-.12-.66-.18-.95-.26-1.14-.86-1.06-1.65.04-.43.06-.86.07-1.29,0-.14-.07-.29-.09-.38-.42-.07-.77-.15-1.13-.19-.43-.04-.89-.15-1.29.17.05.09.09.17.14.23.83,1.07,1.66,2.14,2.51,3.19.36.44.68.92,1.15,1.28.92.71,1.96.93,3.08.8.8-.09,1.56-.36,2.29-.69.97-.45,1.92-.94,2.89-1.4.63-.3,1.25-.63,1.96-.71.36-.04.71-.08,1.07-.12Zm-27.46-27c-.61.64-1.35.77-2.17.65-.51-.07-1.02-.16-1.53-.21-.26-.03-.52-.01-.77.03-1.01.16-1.53.88-1.87,1.75-.14.35-.16.74.1,1.1.07-.05.11-.08.16-.11.89-.63,1.85-1.05,2.96-.96.53.05,1.05.14,1.56.28.25.07.41.04.56-.14.25-.31.53-.61.75-.94.37-.54.7-1.09,1.31-1.4.05-.02.07-.08.13-.15-.41-.37-.76-.35-1.17.09Zm4.08,2.07c.33-.36.7-1.32.31-2-.09.04-.16.06-.21.1-.3.23-.58.47-.88.69-.24.17-.47.35-.82.22-.19-.07-.43-.04-.64,0-1.22.2-1.9,1.06-2.56,2.07.27.07.47.14.67.17.69.09,1.33-.05,1.96-.33.63-.27,1.28-.5,1.91-.75.09-.04.19-.08.25-.15Zm-3.6,14.52c.68,0,1.34-.5,1.35-1.38,0-.89-.67-1.41-1.38-1.4-.77.01-1.37.63-1.38,1.41,0,.79.73,1.43,1.4,1.38Zm1.31.52c.34.16.66.22,1.01-.02.19-.13.45-.2.68-.23.69-.1,1.39-.18,2.09-.27.41-.05.79-.19,1.1-.45,1.21-1,1.73-2.28,1.52-3.84-.16-1.19-.87-2-1.89-2.56-.47-.26-1.01-.29-1.53-.39-.51-.1-.9.05-1.3.3-.33.21-.34.47-.06.74.08.08.17.15.27.21.36.23.74.44,1.09.7.27.2.53.43.75.7.16.2.22.46.09.73-.27.54-.52,1.09-.81,1.61-.38.68-.91,1.15-1.77,1.05-.04,0-.09,0-.14.01-.2.29-.4.58-.6.88-.21.32-.57.41-.91.6.16.09.28.17.4.23Zm2.22-2.84c.29-.41.54-.85.8-1.28.09-.14.14-.31.18-.4-.02-.3-.08-.48-.29-.61-.97-.62-1.92-1.26-2.88-1.89-.4-.26-.76-.13-.97.16-.32.44-.64.88-.96,1.32-.33.47-.27.72.21,1.02.35.22.71.43,1.06.66.63.41,1.24.84,1.87,1.23.48.3.6.35.99-.21Zm-.9,18.12c.5.68,1.17,1.12,2.04,1.13,1.68.02,3.35,0,5.03,0,.17,0,.35-.03.51-.09.31-.1.42-.34.31-.64-.08-.21-.2-.41-.29-.63-.85-2.07-1.58-4.19-2.1-6.37-.12-.5-.42-.85-.94-.95-.25-.05-.51-.08-.77-.08-1.06,0-2.13,0-3.19,0h0c-1.12,0-2.24,0-3.36,0-.19,0-.38.01-.56.06-.35.09-.48.27-.45.63.01.19.07.39.15.58.96,2.26,2.17,4.38,3.62,6.36Zm41.64-27.61c-1.72,0-3.44,0-5.17,0-.52,0-.87.31-.82.87.02.2.06.4.12.59.35,1.31.56,2.65.74,3.99.09.7.12,1.41.19,2.11.07.71.55,1.15,1.26,1.16,1.03,0,2.06,0,3.08,0,1.06,0,2.11,0,3.17,0,.61,0,.99-.3,1.23-.84.17-.38.13-.76.1-1.15-.14-1.76-.51-3.48-.96-5.18-.18-.68-.96-1.59-2.02-1.54-.3.01-.61,0-.91,0Zm-47.01,2.79c-.03.07-.05.11-.06.15-.11.59-.24,1.19-.31,1.78-.11.9-.19,1.81-.27,2.71,0,.09.04.19.07.28.29.73.9,1.06,1.58,1.3.13.04.29.03.43.01.39-.05.61-.45.42-.8-.1-.18-.27-.33-.42-.48-.24-.23-.27-.29-.15-.6.31-.84.77-1.58,1.37-2.24.09-.09.18-.18.29-.26.33-.22.63-.25.92,0,.33.29.61.22.93.02.39-.24.79-.48,1.2-.69.46-.23.96-.31,1.47-.23.72.11,1.44.26,2.15.58.04-.31.07-.57.1-.83.1-.77.22-1.54.31-2.31.09-.75-.34-1.16-.99-1.13-1.18.06-2.37.02-3.55.02h-1.19c-.81,1.91-2.32,2.71-4.31,2.71Zm2.31,13.17c.13.08.28.15.43.2,1.66.56,3.32,1.12,4.99,1.66.79.26,1.58.51,2.41.6.64.07,1.28.14,1.93.19.9.06,1.81.11,2.72.15.48.02.95.03,1.43.02.36,0,.71-.03,1.07-.04.12-1.1-.09-2.12-.26-3.2-.37-.06-.73-.12-1.1-.17-.68-.11-1.35-.24-1.99-.52-.62-.28-1.18-.65-1.56-1.25-.3-.47-.46-.99-.32-1.56.09-.37.19-.74.29-1.14-.14-.1-.28-.23-.44-.3-.31-.14-.63-.25-.99-.39-1.14,1.53-2.5,2.57-4.49,2.46-.49.51-1.08.53-1.71.35-.26-.07-.52-.17-.78-.23-.35-.07-.69-.18-1.06-.04-.22.08-.37.15-.42.41-.15.67-.33,1.33-.49,1.99-.09.37.02.6.35.8Zm23.05-3.4c.58.05.88-.01,1.37-.4.72-.57,1.41-1.18,2.13-1.77-.3-.31-.62-.41-1.01-.41-1.92,0-3.84,0-5.76,0h-.36c.75.35,1.44.63,2.09.97.7.36,1.12,1.02,1.55,1.61Zm3.84-5.54c-.13-1.45-.28-2.9-.42-4.35-.04-.42-.08-.83-.15-1.25-.15-.83-.76-1.35-1.59-1.35-1.7,0-3.41,0-5.11,0-1.3,0-2.6-.01-3.9-.01-1.5,0-3,0-4.5.01-.27,0-.55-.02-.82,0-.63.06-1.24.61-1.36,1.22-.05.27-.07.54-.1.82-.08.79-.16,1.58-.23,2.37-.03.37-.09.75-.03,1.11.07.39.19.78.19,1.19,0,.08.04.16.07.27.14-.02.27-.02.39-.05.76-.21,1.51-.17,2.27,0,1.38.32,2.68.87,3.98,1.41.48.2.94.39,1.49.38,1.5-.03,3,0,4.5-.01,1.36,0,2.71-.02,4.07,0,.67,0,1.1-.43,1.23-.9.07-.27.06-.57.04-.86Zm-15.01,20.28c.27.83,1.1,1.44,1.96,1.44,2.56,0,5.12,0,7.68,0,.81,0,1.65-.61,1.91-1.39.33-.98.65-1.96.98-2.94.03-.1.05-.21.07-.32-.03-.02-.06-.04-.09-.07-.54.27-1.08.53-1.62.81-.9.46-1.82.86-2.8,1.11-1.1.28-2.2.31-3.26-.16-.75-.33-1.42-.78-1.98-1.37-.64-.67-1.23-1.38-1.81-2.1-.51-.63-.97-1.29-1.46-1.94-.2-.27-.46-.41-.82-.34-.4.08-.68.31-.74.69-.05.28,0,.61.1.89.61,1.9,1.24,3.79,1.87,5.68Zm9.6-14.5c.1-.02.21-.05.31-.08-.01-.28-.16-.4-.37-.5-.87-.41-1.72-.85-2.59-1.24-2.3-1.02-4.6-2.04-6.91-3.03-.74-.32-1.51-.32-2.27-.04-.25.09-.49.22-.64.47-.27.45-.18.87.04,1.33.7.16,1.35.44,1.82,1.05.22,0,.39,0,.57,0,.72.03,1.45.01,2.16.11,1.36.19,2.68.57,4,.96.26.08.5.17.67.43.1.15.31.25.49.34.89.41,1.82.33,2.74.2Zm-3,1.18c.02-.79-.4-1.31-1.15-1.56-.12-.04-.24-.08-.37-.12-1.13-.33-2.26-.63-3.43-.75-.64-.07-1.29-.15-1.93-.16-.94-.01-1.5,1.05-1.02,1.86.33.55.81.91,1.41,1.07.62.17,1.26.25,1.89.36.56.1,1.12.15,1.65.41.09,1.49.17,2.97.26,4.47.45.28.9.36,1.39.33.32-.02.37-.05.43-.36.23-1.12.48-2.23.67-3.36.12-.72.17-1.46.19-2.19Zm-2.1,6.43c-.73-.06-.88.25-1.05.77-.03.08-.04.17-.07.25-.11.41-.02.67.33.87.25.14.51.26.78.34.56.16,1.22-.18,1.45-.74.04-.09.06-.2.04-.29-.19-.7-.59-1.26-1.48-1.21Zm-23.48-18.15c-.17.3-.35.59-.48.91-.19.45-.23.91.07,1.37.79-.46,1.66-.54,2.59-.61-.01-.18.03-.35-.04-.46-.14-.28-.33-.53-.5-.79-.15-.24-.36-.46-.45-.72-.14-.38.17-.78.57-.83.38-.04.71.07,1.03.26.27.16.54.36.84.42.81.17,1.62.12,2.42-.12.88-.27,1.56-.78,2.06-1.53.25-.38.39-.79.09-1.27-.12.11-.2.19-.29.26-.44.38-.93.47-1.48.25-.21-.09-.41-.19-.61-.31-.35-.2-.68-.43-1.03-.62-.36-.19-.76-.32-1.16-.27-1.03.15-1.91.61-2.6,1.4-.25.28-.55.58-.53,1,.04.62-.22,1.14-.51,1.66Zm10.88,46.61c-.28-1.61-1.12-2.92-2.4-3.93-1.2-.95-2.57-1.49-4.1-1.51-2.5-.04-5.01-.01-7.51,0-.11,0-.22.02-.31.03v4.98c.13,0,.23,0,.33,0,1.37,0,2.75,0,4.12,0,.9,0,1.79,0,2.69,0,.8,0,1.63.71,1.57,1.67-.06.94-.75,1.65-1.77,1.64-2.16-.01-4.31,0-6.47,0h-.47v12.67h5v-7.64c.89,0,1.74,0,2.6,0,.36,0,.72-.03,1.07-.1,1.34-.26,2.56-.8,3.56-1.74,1.76-1.65,2.5-3.68,2.09-6.06Zm4.92-5.38c1.84,5.44,3.65,10.82,5.48,16.22h-6.18c.81-2.63,1.62-5.22,2.42-7.82h-5.32c-1.36,4.21-2.71,8.4-4.06,12.61h20.28c-2.43-7.03-4.84-14.03-7.25-21.01h-5.37Zm-16.61-17.18c.37.53.74,1.07,1.12,1.59.45.61,1.1.83,1.82.84,2.08.01,4.17,0,6.25,0,.09,0,.18,0,.26-.01.3-.07.44-.28.34-.58-.09-.24-.19-.48-.34-.69-.95-1.36-1.8-2.79-2.51-4.29-.35-.74-.65-1.5-.96-2.26-.19-.46-.49-.78-.99-.86-.24-.04-.49-.07-.73-.07-.94,0-1.87,0-2.81,0-.99,0-1.99,0-2.98,0-.2,0-.4.02-.6.07-.4.1-.59.36-.65.76-.06.45.11.84.29,1.24.69,1.49,1.53,2.9,2.48,4.25Zm3.74-37.35c.29.1.61.17.92.17,1.59.02,3.18,0,4.77.02.51,0,.96-.12,1.4-.35.51-.26.93-.63,1.3-1.06,1.03-1.18,2.14-2.27,3.34-3.27,1.28-1.06,2.63-2.01,4.08-2.82.59-.33,1.19-.65,1.77-.98.18-.1.38-.22.37-.53-.11-.04-.2-.11-.29-.11-.45,0-.9-.03-1.34.04-.67.1-1.33.25-1.99.39-2.54.54-4.99,1.33-7.34,2.44-2.6,1.24-4.92,2.88-6.94,4.93-.13.13-.24.29-.33.45-.18.33-.11.56.25.68Zm-5.9,9.89c.11.02.23.01.35.01.54,0,1.07,0,1.61,0h.7c0-.35-.02-.65,0-.95.07-.65.39-1.19.72-1.74.25-.42.6-.69,1.04-.86.71-.27,1.45-.34,2.2-.33.88,0,1.76.09,2.62-.25.08-.13.16-.23.22-.35.52-1.06,1.19-2.04,1.89-2.99.04-.06.09-.12.12-.18.24-.45.09-.82-.39-.98-.13-.04-.28-.06-.42-.06-1.78,0-3.56-.02-5.34,0-.81.01-1.54.35-2.06.96-.99,1.16-1.92,2.37-2.7,3.69-.5.84-.94,1.72-1.28,2.64-.26.7.04,1.24.72,1.38Zm3.14,19.95c1,0,2,0,2.99,0,.69,0,1.06-.38,1.07-1.08,0-.16.01-.32,0-.48-.07-.67-.33-1.23-.86-1.67-.31-.26-.62-.52-.9-.81-.7-.75-1.11-1.64-1.28-2.65-.12-.7-.23-1.41-.34-2.14h-.48c-1.62,0-3.24.01-4.86,0-1.03-.01-1.48.71-1.44,1.5.02.42.05.84.1,1.25.19,1.53.51,3.03.95,4.51.29.98.96,1.59,2.09,1.58.98-.01,1.97,0,2.95,0Zm-4.71-10.02c1.54-.03,3.09,0,4.63,0,.12,0,.24-.02.39-.04-.13-.33-.21-.62-.35-.88-.23-.45-.45-.9-.75-1.3-.31-.41-.5-.8-.2-1.27-.06-.08-.09-.13-.13-.17-.67-.65-.79-1.34-.38-2.19.29-.59.5-1.21.72-1.83.11-.32.17-.66.26-1.02-.16,0-.25-.02-.35-.02-.69,0-1.39.07-2.08,0-1.1-.1-2.02.85-2.22,1.68-.33,1.38-.68,2.76-.84,4.18-.06.49-.1.98-.1,1.47,0,.67.51,1.42,1.38,1.4Zm36.86,29.58c2.62-.57,5.16-1.39,7.56-2.59,2.48-1.23,4.7-2.81,6.62-4.81.12-.12.24-.25.33-.4.19-.33.11-.59-.26-.72-.25-.09-.53-.15-.8-.15-1.71-.01-3.41,0-5.12,0-.14,0-.28.04-.42.07-.83.16-1.45.68-2.02,1.26-.64.66-1.26,1.35-1.92,2-1.6,1.58-3.39,2.91-5.33,4.03-.58.34-1.19.64-1.78.98-.26.14-.56.24-.65.64.35.19.7.24,1.06.18.91-.16,1.82-.29,2.72-.48Zm23.72,5.54c-.05-.2-.27-.18-.44-.18-.14,0-.29,0-.45,0v1.23c.41,0,.1-.37.32-.51.09.02.22.06.26.07.2.16.01.44.38.44-.05-.2-.09-.38-.12-.54.03-.18.1-.36.06-.52Zm-.24.36h-.44c.01-.15.02-.26.03-.41.16.03.29.06.45.09-.02.12-.03.21-.04.32Zm-10.07,4.26c-.93-1.67-2.16-3.07-3.81-4.05-1.02-.6-2.1-1.01-3.31-1.01-2.88,0-5.76,0-8.64,0-.14,0-.28.01-.44.02v5.02h.49c1.97,0,3.94,0,5.9,0,.43,0,.87.02,1.29.1,3.04.56,4.92,3.42,4.32,6.35-.46,2.25-1.92,3.64-4.12,4.25-.85.23-1.72.16-2.59.17-.09,0-.19-.02-.31-.04v-7.57h-4.98v12.62c.14,0,.27.02.4.02,2.92,0,5.85,0,8.77,0,.1,0,.2,0,.3,0,1.51-.19,2.86-.75,4.06-1.69,1.54-1.22,2.62-2.78,3.31-4.61.72-1.89.93-3.84.64-5.83-.19-1.32-.64-2.56-1.29-3.74Zm9.69-34.61c.16-.85.24-1.71.29-2.58.05-.93-.5-1.45-1.43-1.46-.83,0-1.65,0-2.47,0-1.23,0-2.46,0-3.69,0-.44,0-.83.11-1.04.51.95,1.05,1.91,2.03,2.79,3.09.65.77,1.2,1.62,1.78,2.45.17.24.25.54.36.82.14.37.05.7-.24.95-.36.31-.76.57-1.14.85-.07.05-.14.1-.26.18.43,0,.79,0,1.15,0,.36,0,.72,0,1.08,0,1.08,0,1.81-.56,2.08-1.61.27-1.06.55-2.12.75-3.19Zm.21,29.3c-.6-.04-1.14.38-1.19,1.09-.04.58.5,1.14,1.09,1.17.63.02,1.15-.49,1.16-1.13.01-.61-.47-1.08-1.06-1.13Zm-.05,2.08c-.5.02-.96-.45-.97-.97,0-.51.41-.94.92-.94.55,0,.97.39.97.93.02.61-.44.97-.93.99Zm-7.2,19.08h5.13v-20.9h-5.13v20.9ZM31.86,61.7c-.37.12-.47.41-.27.75.08.14.18.27.29.37.56.54,1.11,1.1,1.7,1.61,1.72,1.46,3.63,2.64,5.69,3.58,2.09.96,4.25,1.67,6.49,2.16,1.04.23,2.09.4,3.14.56.32.05.69.06.97-.21-.12-.37-.44-.5-.73-.65-3.42-1.72-6.38-4.02-8.9-6.9-.26-.3-.57-.57-.9-.81-.47-.33-.99-.58-1.6-.58-1.72,0-3.44,0-5.16,0-.24,0-.49.04-.72.11Zm46.31-2.41c.13-.19.26-.38.39-.57.52-.73,1.05-1.45,1.56-2.18.68-.98,1.25-2.03,1.75-3.12.25-.55.17-1.17-.19-1.48-.27-.24-.61-.23-.94-.23-1.89,0-3.79,0-5.68,0-.27,0-.55.03-.82.06-.41.05-.74.25-.92.63-.15.33-.26.69-.42,1.12.61.03,1.13.06,1.65.08.69.03,1.39.03,2.08.09.49.04.97.15,1.39.43.44.29.56.69.43,1.19-.19.72-.64,1.09-1.37,1.14-1.29.1-2.57.07-3.85-.06-.54-.05-1.09-.09-1.58-.13-.68,1.06-1.34,2.08-1.99,3.1-.08.12-.13.26-.18.39-.17.49-.03.7.5.7,2.03,0,4.05,0,6.08,0,.9,0,1.6-.41,2.11-1.16Zm-6.22-6.56c.21-.6-.01-.95-.64-1.02-.04,0-.09,0-.13,0-1.26,0-2.51,0-3.77,0,0,.03-.01.06-.02.09,1.36.72,2.84,1.09,4.34,1.47.08-.19.16-.36.22-.53Zm-3.78,6.66c.61-.86,1.18-1.74,1.75-2.62.16-.24.3-.51.46-.78-.36-.08-.65-.15-.95-.2-1.02-.19-2.04-.39-3.06-.55-.65-.1-1.32-.14-1.98-.21-.76-.08-1.52-.13-2.27.07-.36,1-.7,1.96-1.06,2.91-.2.52-.43,1.03-.67,1.55-.22.49-.07.73.42.87.16.05.34.03.52.03,1.56,0,3.12-.02,4.69,0,.91.01,1.64-.34,2.15-1.07Zm5.78-3.99c1.04.06,2.08.08,3.12.1.13,0,.27-.07.43-.12-.02-.17-.03-.3-.05-.46-.5-.04-.93-.07-1.36-.11-.76-.06-1.52-.1-2.28-.2-.81-.11-1.61-.25-2.41-.41-1.15-.24-2.27-.57-3.35-1.03-.91-.38-1.7-.95-2.51-1.49-.92-.61-1.86-1.19-2.96-1.43-.52-.11-1.05.32-1.04.89.09.05.19.11.3.15.62.25,1.25.48,1.88.74.72.3,1.34.75,1.71,1.45.18.35.44.53.8.64,1.74.54,3.55.78,5.35,1.03.8.11,1.6.2,2.4.25Zm-17.54,13.94c.82-.38,1.63-.78,2.42-1.22,1.76-1,3.38-2.2,4.84-3.61.68-.65,1.33-1.33,1.97-2.01.19-.2.39-.44.25-.73-.13-.27-.43-.26-.69-.26-1.59,0-3.18-.02-4.77,0-.69,0-1.27.28-1.58.95-.37.8-.73,1.59-1.08,2.4-.59,1.37-1.16,2.75-1.98,4.01-.08.13-.13.28-.2.44.3.28.59.14.81.04Zm-4.09-.95c.33.52,1.07.88,1.79.27.24-.2.46-.45.61-.72.77-1.41,1.52-2.84,2.28-4.26.18-.34.35-.69.52-1.04.25-.51-.1-1.1-.71-1.07-.13,0-.26,0-.39,0-.99,0-1.99,0-2.98,0h0c-.91,0-1.82,0-2.72,0-.29,0-.58-.02-.86.01-.47.05-.74.43-.63.89.06.22.16.43.26.63.72,1.36,1.44,2.72,2.17,4.08.22.4.43.81.67,1.2Zm-10.69-49.07c-.29.31-.57.65-.81,1.01-.19.29-.09.47.25.57.1.03.2.04.3.04,1.66,0,3.33.02,4.99,0,.63,0,1.16-.28,1.45-.86.3-.6.56-1.22.83-1.84.69-1.59,1.32-3.21,2.28-4.68.08-.13.12-.28.21-.53-.25,0-.39-.02-.52,0-.25.06-.51.12-.74.23-.79.41-1.59.82-2.36,1.27-2.2,1.31-4.15,2.92-5.9,4.78Zm9.4,50.2c.11.02.23-.03.42-.07-.14-.27-.22-.46-.31-.63-.22-.4-.48-.79-.68-1.2-.74-1.6-1.5-3.2-2.19-4.83-.36-.85-.96-1.2-1.84-1.2-1.52,0-3.04,0-4.55,0-.29,0-.63-.03-.76.27-.14.32.11.58.31.8.89.94,1.8,1.87,2.79,2.72,1.81,1.56,3.81,2.83,5.96,3.88.27.13.57.19.87.26Zm5.95-54.44c.73,1.56,1.44,3.13,2.13,4.71.32.72.85,1.07,1.61,1.07,1.63,0,3.27,0,4.9,0,.1,0,.21,0,.3-.02.31-.08.42-.31.27-.59-.11-.21-.25-.43-.42-.6-.87-.86-1.73-1.75-2.65-2.56-1.77-1.57-3.76-2.81-5.88-3.86-.22-.11-.45-.2-.69-.25-.2-.04-.43-.13-.66.13.1.18.19.36.29.53.26.48.56.94.79,1.43Zm-7.92,4.76c-.26.59.08,1.08.71,1.11.09,0,.17,0,.26,0h3.34c.85,0,1.71,0,2.56,0,.35,0,.69,0,1.04,0,.61-.02.9-.37.78-.97-.04-.21-.15-.4-.25-.59-.76-1.47-1.53-2.93-2.3-4.39-.21-.39-.4-.8-.66-1.16-.55-.75-1.47-.83-2.13-.16-.26.26-.46.59-.63.91-.64,1.19-1.26,2.39-1.88,3.59-.28.55-.58,1.09-.83,1.66Zm21.49,24.47c-.73-.37-1.5-.38-2.28-.22-1.63.35-2.97,1.22-4.16,2.34-.17.16-.3.4-.35.63-.14.68-.24,1.36-.34,2.04-.04.26.03.53.24.71.49.42,1.02.74,1.7.73,1.01-.02,2.02,0,3.03,0h0c1.04,0,2.08.02,3.12,0,.27,0,.55-.05.8-.14.43-.15.57-.4.58-.84.03-1.33-.38-2.55-.92-3.74-.3-.66-.76-1.18-1.42-1.52Zm-12.42-31.75c1.49.77,2.93,1.61,4.27,2.61,1.37,1.02,2.66,2.13,3.82,3.38.48.52.95,1.05,1.48,1.52.57.51,1.24.82,2.03.82,1.39-.01,2.78-.02,4.16-.02.39,0,.78.02,1.17-.01.28-.02.6-.08.73-.38.13-.31-.06-.56-.28-.76-.75-.7-1.49-1.41-2.27-2.07-1.86-1.56-3.97-2.71-6.2-3.64-2.25-.94-4.59-1.57-6.98-2.05-.66-.13-1.33-.26-2.02-.22-.21.01-.45-.02-.57.24.11.31.37.44.64.58Zm12.53,9.35c-.33,0-.62.1-.81.38-.11.43.09.74.32,1.05.84,1.12,1.57,2.31,2.15,3.58.36.78.67,1.59.99,2.39.31.78.96,1.29,1.72,1.29,2.04,0,4.08,0,6.11,0,.83,0,1.21-.52.99-1.32-.02-.05-.04-.11-.06-.16-.37-.76-.71-1.54-1.11-2.29-.68-1.28-1.62-2.38-2.48-3.53-.65-.88-1.54-1.33-2.58-1.37-1.75-.07-3.5-.02-5.25-.02Zm3.32,27.81c.09.52.4.64.76.66.13,0,.26,0,.39-.03.31-.06.58.04.87.15.28.11.6.2.91.2.41-.01.81-.17,1.16-.41.57-.4,1.15-.8,1.8-1.26-.62-.95-1.19-1.9-1.83-2.79-.55-.76-1.17-1.46-1.78-2.17-.69-.82-1.47-1.55-2.31-2.21-.96-.74-1.93-1.44-2.89-2.18-.52-.4-1.05-.69-1.73-.58-.5.08-.8.38-.76.76.6.37,1.19.67,1.71,1.06.68.51,1.29,1.11,1.97,1.61.58.43.47,1.32-.07,1.69-.09.06-.18.12-.27.18,1.01,1.46,1.28,1.99,1.61,3.06.23.73.33,1.51.47,2.27Z"/>
  </g>
</svg>