<?xml version="1.0" encoding="UTF-8"?>
<svg xmlns="http://www.w3.org/2000/svg" viewBox="0 0 108 108">
  <defs>
    <style>
      .cls-1 {
        fill: #282828;
      }

      .cls-1, .cls-2 {
        stroke-width: 0px;
      }

      .cls-2 {
        fill: #e9d5bd;
      }
    </style>
  </defs>
  <g id="bg">
    <circle class="cls-1" cx="54" cy="54" r="54"/>
  </g>
  <g id="icon">
    <path class="cls-2" d="m17.21,65.67s-.12.06-.13.11c-.07.27-.13.55-.19.84-.37-.31-.74-.34-1.12-.06-.45.32-.61.79-.57,1.32.04.43.33.67.77.62.21-.02.41-.14.58-.2-.07.15.04.18.22.16.05,0,.1,0,.14,0,.13.02.18-.05.2-.16.15-.75.31-1.49.47-2.24.09-.43.08-.43-.37-.4Zm-.82,2.34c-.32.18-.62.01-.62-.36,0-.25.06-.5.25-.68.09-.08.2-.15.32-.17.23-.05.46.09.43.43-.04.3-.08.6-.38.77Zm66.64-1.6c-.32-.1-.61-.02-.85.2-.07.06-.08.05-.15-.01-.1-.1-.24-.19-.38-.21-.28-.05-.53.07-.76.27.11-.26-.04-.24-.2-.23-.06,0-.13-.02-.18,0-.06.02-.14.07-.15.13-.12.52-.22,1.03-.33,1.55-.07.37-.07.36.31.36.12,0,.19-.03.21-.15.05-.25.09-.5.15-.74.05-.2.11-.41.21-.59.08-.15.34-.2.48-.13.18.09.1.25.08.38-.04.28-.11.55-.17.83-.09.43-.05.48.39.4.04,0,.09-.07.1-.11.08-.34.14-.69.22-1.03.04-.14.1-.31.21-.39.1-.08.29-.09.42-.06.13.04.11.19.08.32-.07.29-.12.57-.18.86-.09.42-.09.42.35.41.11,0,.15-.04.17-.14.1-.46.2-.92.28-1.38.05-.25-.1-.47-.34-.54Zm-68.29.04c-.24-.05-.49-.08-.73-.06-.31.02-.58.16-.75.44-.04.06-.05.13-.08.19.07.01.13.03.2.03.09,0,.18,0,.27,0,.04,0,.09-.03.11-.06.11-.21.29-.25.49-.22.07.01.2.08.2.12,0,.09-.05.2-.11.27-.05.05-.15.05-.23.07-.29.07-.6.11-.88.22-.24.09-.37.47-.3.71.06.23.25.36.57.34.23-.02.46-.1.71-.15,0,.01.04.1.07.1.15.02.31.02.46,0,.03,0,.03-.19.04-.29,0-.03.01-.06.02-.09.08-.39.16-.77.23-1.16.05-.24-.05-.42-.29-.47Zm-.5,1.39c-.11.24-.38.35-.63.27-.15-.05-.19-.23-.06-.36.08-.08.19-.12.3-.16.07-.03.16-.03.24-.04.07-.01.15-.03.25-.05-.04.13-.06.24-.1.34Zm64.79-1.46c-.18.03-.35.14-.51.21q.04-.17-.16-.17-.36,0-.42.37s-.01.04-.02.07c-.16.76-.32,1.53-.48,2.29h.57c.06-.3.12-.6.19-.91.27.3.66.36,1.01.16.48-.28.67-.72.68-1.24.02-.55-.32-.86-.86-.77Zm-.22,1.68c-.27.08-.5-.07-.48-.34.02-.22.09-.45.17-.65.07-.18.25-.26.43-.27.18,0,.3.08.36.25.13.39-.12.9-.48,1.01Zm-55.69-1.64s-.09,0-.14,0q-.29,0-.34.23c-.1.47-.19.94-.29,1.41-.09.43-.09.44.35.4.05,0,.13-.07.14-.12.14-.59.26-1.18.39-1.77.02-.1,0-.17-.12-.15Zm-4.17-.04c-.64-.05-1.16.34-1.34.97-.09.32-.11.65.14.91.44.47,1.47.24,1.7-.37,0-.02-.03-.08-.05-.08-.18,0-.36-.04-.53.13-.09.09-.26.13-.4.13-.1,0-.23-.07-.3-.15-.06-.07-.05-.2-.04-.3,0-.02.13-.03.2-.04.17,0,.34,0,.52,0,.2,0,.4,0,.6,0,.04,0,.12-.02.13-.05.17-.46,0-1.11-.63-1.15Zm-.06.85c-.08,0-.17,0-.25,0-.11,0-.21,0-.32,0-.11,0-.12-.04-.07-.13.1-.21.37-.35.59-.29.08.02.17.09.21.17.1.18.05.25-.15.25Zm7.9-10.03c.08-.38.11-.77.15-1.16.02-.2-.06-.28-.26-.28-.48-.01-.96,0-1.44-.04-.55-.05-1.04-.25-1.37-.74-.25-.37-.28-.8-.24-1.23.04-.53.12-1.05.18-1.58.07-.64.14-1.29.22-1.93.07-.56.15-1.11.2-1.67.01-.13.06-.15.17-.15.53,0,1.06,0,1.58,0,.52,0,1.04,0,1.57,0,.2,0,.32-.11.35-.32.04-.32.09-.64.14-.96.04-.26-.07-.39-.33-.39-1.01,0-2.02,0-3.03,0-.22,0-.21-.09-.19-.24.06-.42.12-.84.17-1.26.08-.64.16-1.27.24-1.91.03-.19-.07-.33-.27-.33-.52,0-1.04,0-1.57,0-.23,0-.34.09-.38.32-.03.19-.04.38-.06.56-.07.54-.14,1.09-.21,1.63-.07.53-.13,1.05-.2,1.58-.06.52-.13,1.04-.19,1.56-.06.53-.12,1.05-.19,1.58-.07.54-.14,1.08-.2,1.61-.06.52-.11,1.04-.19,1.56-.1.63-.07,1.25.15,1.85.38,1.02,1.16,1.6,2.15,1.94.9.31,1.84.27,2.77.25.09,0,.24-.15.27-.26Zm49.86,9.17c-.09,0-.18,0-.26.03-.59.14-.98.59-1.05,1.19-.05.46.17.79.57.89.72.17,1.43-.3,1.56-1.02.12-.68-.18-1.08-.82-1.08Zm-.03,1.59c-.16.13-.34.17-.53.08-.17-.09-.22-.26-.18-.42.05-.21.12-.43.24-.61.08-.12.25-.17.38-.24.25.05.41.18.4.43,0,.29-.07.58-.31.78Zm-48.05-2.3c-.4,0-.79,0-1.19,0-.1,0-.13.02-.16.13-.18.85-.36,1.7-.55,2.54-.02.11.01.14.11.13.12,0,.25.01.37,0,.05,0,.12-.07.14-.13.05-.14.07-.28.1-.43q.11-.46.56-.46c.07,0,.14,0,.21,0,.55,0,.96-.31,1.1-.84.15-.55-.15-.94-.71-.94Zm-.23,1.27c-.2.03-.41.04-.62.04-.03,0-.09-.08-.09-.11.03-.21.08-.41.13-.62,0-.04.07-.08.1-.08.09-.01.19,0,.28,0h0s.08,0,.12,0c.29,0,.4.07.42.25.03.25-.12.5-.36.54Zm-7.72-.22q0-.3-.27-.3s-.05,0-.07,0c-.13-.03-.17.05-.19.16-.1.49-.21.99-.32,1.48-.09.4-.09.39.32.4.15,0,.19-.05.21-.18.05-.28.11-.55.18-.83.08-.33.3-.54.57-.55q.3-.02.36-.32s0-.05.02-.07c.05-.11,0-.15-.11-.14-.28,0-.48.15-.68.35Zm2.73-.72q.08-.34-.27-.34s-.02,0-.04,0c-.16-.03-.21.05-.23.19-.04.27-.05.27.23.27q.28,0,.31-.12Zm1.55.37c-.28-.01-.51.1-.77.32.15-.33-.05-.27-.19-.27-.05,0-.11-.02-.16,0-.05.02-.13.07-.14.12-.11.5-.22,1.01-.32,1.51-.09.44-.08.44.37.41,0,0,.01,0,.02,0,.04-.03.1-.06.11-.1.06-.21.09-.42.15-.63.07-.25.14-.5.24-.73.07-.16.37-.24.52-.15.16.09.14.25.11.41-.06.26-.1.53-.16.79-.09.46-.09.47.38.41.04,0,.11-.06.12-.1.1-.45.2-.91.28-1.36.07-.39-.14-.62-.54-.63Zm61.37-19.17c-.08.02-.19.01-.27-.02-.26-.1-.52-.24-.79-.31-1.29-.33-2.58-.32-3.88-.08-1.48.27-2.5,1.1-3.06,2.5-.58,1.44-.74,2.95-.81,4.56.02.27.04.62.09.97.19,1.39.85,2.24,2.23,2.61.81.22,1.64.26,2.48.18.82-.08,1.6-.27,2.35-.62.3-.14.37-.11.41.22.02.15.08.25.24.25.3,0,.59,0,.89,0,.17,0,.31-.08.33-.26.06-.37.1-.75.14-1.12.08-.63.15-1.27.23-1.9.09-.73.18-1.45.27-2.18.1-.83.2-1.65.3-2.48.1-.82.21-1.64.31-2.46.03-.21-.08-.3-.29-.23-.39.12-.77.25-1.16.37Zm-.71,5.41c-.07.55-.12,1.1-.22,1.65-.21,1.15-.93,1.84-2.03,2.15-.64.18-1.3.24-1.97.15-.36-.05-.73-.08-1.07-.2-.82-.28-1.21-.91-1.31-1.75-.1-.84,0-1.68.1-2.51.1-.81.22-1.61.5-2.38.43-1.2,1.29-1.85,2.55-1.97.25-.02.51-.04.76-.05.58,0,1.15.05,1.69.28.99.41,1.34,1.17,1.29,2.12-.05.84-.19,1.68-.3,2.51Zm15.9-9.03c-.1-.63-.17-1.26-.32-1.87-.21-.85-.43-1.71-.72-2.53-.4-1.11-.9-2.18-1.56-3.17-.5-.75-1.01-1.49-1.57-2.19-.72-.9-1.54-1.71-2.46-2.41-.63-.49-1.27-.97-1.95-1.39-.67-.41-1.39-.74-2.08-1.11-.02-.01-.04-.04-.05-.06h-.28s-.03.04-.05.05c-.3.08-.61.16-.91.24-.31.08-.62.15-.93.23-.41.11-.81.23-1.21.33-.12.03-.11.05-.04.12.03.03.06.07.1.1.49.49.96,1,1.46,1.48.38.36.69.77,1.18,1.03,1.25.66,2.39,1.49,3.42,2.46.93.88,1.76,1.84,2.47,2.91.54.81,1.01,1.66,1.39,2.55.41.96.77,1.95.96,2.98.15.82.3,1.64.38,2.47.06.73.04,1.47,0,2.2-.02.58-.08,1.17-.19,1.74-.15.76-.35,1.51-.55,2.25-.34,1.21-.88,2.33-1.51,3.41-.53.92-1.16,1.77-1.87,2.57-.88.99-1.85,1.86-2.93,2.62-.78.55-1.6,1.04-2.48,1.43-.68.3-1.37.57-2.07.81-.49.17-1,.27-1.51.38-.49.11-.99.22-1.49.26-.79.06-1.58.08-2.38.09-.51,0-1.03-.03-1.54-.08-.4-.04-.79-.12-1.18-.21-.55-.12-1.1-.26-1.65-.4-.2-.05-.4-.12-.6-.18.12.09.24.14.37.18.33.11.67.23,1,.33.3.09.61.16.91.24.27.07.54.14.82.19.36.06.72.11,1.08.15.44.05.88.1,1.32.13.19.02.38.01.57.01.58,0,1.16,0,1.74-.02.31-.01.61-.05.91-.1.36-.05.72-.11,1.08-.18.4-.07.8-.13,1.19-.23.45-.12.9-.26,1.35-.41.64-.23,1.28-.46,1.9-.74.62-.29,1.22-.62,1.81-.97,1.1-.66,2.11-1.44,3.04-2.32.84-.81,1.61-1.67,2.29-2.62.57-.8,1.09-1.64,1.53-2.53.49-1.01.91-2.04,1.21-3.12.13-.49.25-.99.35-1.48.1-.49.17-.98.24-1.48.04-.3.07-.59.11-.89v-2.28c-.04-.31-.06-.62-.11-.93Zm-12.21,22.84c-.11,0-.13-.04-.11-.13.03-.12.06-.24.07-.36,0-.04-.05-.11-.08-.11-.43-.04-.43-.04-.53.38,0,0,0,.01,0,.02,0,.17-.08.24-.26.22-.04,0-.12.03-.14.07-.11.23-.06.3.19.31.02,0,.05,0,.08,0-.08.4-.17.8-.24,1.19-.05.28.07.44.35.47.06,0,.12,0,.18,0,.41,0,.31.06.41-.34.03-.12,0-.12-.1-.12-.24,0-.28-.04-.23-.27.05-.25.13-.5.16-.76.02-.17.1-.21.25-.2.07,0,.18-.02.2-.07.11-.24.07-.3-.2-.31Zm1.33-23.4c-.19,0-.32.09-.35.3-.08.63-.16,1.26-.24,1.9-.09.73-.17,1.47-.26,2.2-.1.84-.21,1.68-.31,2.51-.1.83-.19,1.65-.29,2.48-.1.83-.21,1.66-.31,2.5-.09.75-.18,1.5-.27,2.25-.02.17.07.29.24.3.15,0,.3,0,.44,0,.14,0,.29,0,.43,0,.22,0,.33-.11.36-.33.06-.51.12-1.02.18-1.53.09-.76.19-1.51.28-2.27.08-.62.15-1.24.22-1.86.08-.66.16-1.31.24-1.97.06-.53.12-1.06.19-1.58.07-.55.14-1.1.2-1.65.07-.54.14-1.09.2-1.63.05-.45.11-.89.15-1.34.02-.2-.06-.27-.26-.28-.28,0-.57,0-.85,0Zm-24.14,14.44c.21,0,.42-.01.62,0,.3.03.5-.06.58-.38.05-.19.18-.22.36-.13.77.42,1.61.61,2.47.67.73.05,1.46,0,2.17-.17.76-.18,1.45-.5,2.02-1.07.66-.66,1.01-1.49,1.25-2.36.25-.89.37-1.81.43-2.74.06-.78.06-1.55-.11-2.31-.23-.99-.8-1.68-1.77-2.02-.56-.2-1.14-.28-1.73-.32-.83-.05-1.66-.03-2.47.15-.48.11-.95.29-1.43.44.02-.14.04-.31.06-.48.08-.61.16-1.23.24-1.84.06-.52.13-1.03.19-1.55.03-.25-.06-.33-.31-.34-.25,0-.5,0-.75,0-.27,0-.37.11-.4.37-.07.62-.16,1.24-.23,1.86-.09.68-.17,1.36-.26,2.04-.07.53-.14,1.07-.2,1.6-.08.61-.15,1.22-.23,1.83-.08.61-.16,1.22-.24,1.83-.06.5-.13,1.01-.19,1.51-.08.61-.15,1.23-.23,1.84-.05.42-.11.83-.16,1.25-.03.24.06.32.31.32Zm1.56-3.42c.08-.63.15-1.27.23-1.9.09-.72.15-1.45.31-2.15.28-1.22,1.1-1.91,2.3-2.17.4-.08.82-.1,1.23-.15.53.03,1.04.07,1.54.25.74.26,1.12.81,1.25,1.56.13.69.1,1.39,0,2.09-.11.79-.22,1.58-.36,2.36-.11.56-.32,1.08-.67,1.54-.47.62-1.12.93-1.87,1.04-.82.12-1.64.14-2.44-.1-1.15-.33-1.65-1.21-1.5-2.36Zm4.42-16.51c.69-.52,1.42-.99,2.23-1.32.67-.27,1.35-.53,2.04-.74.51-.15,1.04-.22,1.56-.3.44-.07.89-.11,1.34-.13.39-.02.78-.03,1.17-.02.56.02,1.11.03,1.66.1.49.06.98.17,1.46.28.51.11,1.03.22,1.53.37.46.14.91.3,1.35.49.66.28,1.33.56,1.96.9.94.49,1.81,1.11,2.62,1.8,1.06.9,1.99,1.94,2.75,3.1.46.7.85,1.44,1.22,2.2.28.58.47,1.19.69,1.8.12.34.21.68.31,1.02.02,0,.04-.02.07-.03-.12-5.36-2.37-9.57-6.97-12.39-4.42-2.71-10.23-2.77-14.94.26-2.33,1.5-4.06,3.55-5.24,6.06-.01.03,0,.07,0,.09.34-.48.68-.97,1.04-1.44.62-.8,1.34-1.49,2.14-2.09Zm12.48,28.84c-.7-.04-1.22.46-1.36,1.1-.09.45.07.81.41.96.51.22,1.21-.03,1.46-.53.01-.02,0-.06,0-.1-.17.03-.36-.07-.52.09-.19.2-.47.25-.66.11-.09-.07-.11-.22-.16-.34.08-.03.15-.08.23-.08.17-.01.34,0,.52,0,.09,0,.19,0,.28,0q.5,0,.5-.51c0-.38-.32-.68-.7-.7Zm.04.85c-.12.01-.23,0-.35,0-.08,0-.15,0-.23,0-.06,0-.11-.01-.17-.02.02-.06.03-.14.07-.19.13-.17.31-.24.52-.22.16.02.29.18.27.33,0,.04-.07.08-.12.09Zm-73.18-.82c-.57.14-.97.6-1.04,1.18-.05.4.12.73.45.86.51.21,1.18-.04,1.43-.53.01-.02-.03-.1-.05-.1-.18,0-.37-.04-.52.13-.07.08-.23.13-.35.13-.12,0-.26-.07-.35-.16-.06-.06-.04-.2-.03-.3,0-.01.12-.03.19-.03.18,0,.36,0,.53,0,.2,0,.4,0,.6,0,.05,0,.12-.05.13-.09.09-.32.07-.62-.16-.88-.23-.26-.54-.28-.85-.21Zm.28.82c-.07,0-.14,0-.21,0-.09,0-.19,0-.28,0-.05,0-.09-.02-.14-.03.02-.05.03-.1.05-.14.12-.19.31-.27.53-.24.06,0,.13.03.16.07.05.09.08.2.11.3-.07.02-.14.05-.22.06Zm-.96-6.43c.05-.53.12-1.05.18-1.58s.14-1.05.2-1.58c.01-.14.05-.17.18-.17,1.06,0,2.12.02,3.19,0,.49-.01.99-.05,1.48-.15,1.52-.32,2.54-1.25,3.13-2.67.38-.92.57-1.9.69-2.89.09-.84.15-1.67,0-2.51-.19-1.07-.76-1.83-1.81-2.19-.62-.21-1.25-.29-1.89-.3-.89-.02-1.78,0-2.67,0h0c-.94,0-1.89,0-2.83,0-.19,0-.33.08-.36.27-.07.47-.12.95-.18,1.42-.07.53-.13,1.06-.19,1.6-.07.54-.13,1.08-.2,1.61-.06.53-.12,1.07-.19,1.6-.08.63-.16,1.26-.24,1.89-.08.63-.14,1.26-.22,1.9-.08.63-.16,1.26-.24,1.89-.08.64-.15,1.28-.22,1.91-.03.22.05.33.27.33.52,0,1.03,0,1.55,0,.26,0,.37-.12.4-.37Zm.88-7.07c.08-.63.15-1.25.22-1.88.07-.54.14-1.08.2-1.61.06-.53.13-1.07.18-1.6.01-.11.04-.14.15-.14,1.03,0,2.05-.01,3.08,0,.47.01.95.06,1.4.25.48.21.72.6.79,1.09.1.66.04,1.32-.06,1.98s-.21,1.31-.37,1.96c-.17.68-.52,1.26-1.17,1.6-.49.26-1.02.34-1.57.35-.54,0-1.09,0-1.63,0,0,0,0,.02,0,.03-.43,0-.87,0-1.3,0-.12,0-.17-.03-.16-.16.08-.63.16-1.25.24-1.88Zm40.08,3.74c.14,0,.27,0,.41,0,.15,0,.3,0,.44,0,.2,0,.32-.11.34-.31.06-.51.12-1.02.19-1.53.08-.64.16-1.28.24-1.92.08-.64.15-1.28.23-1.92.08-.64.16-1.29.24-1.93.08-.64.16-1.29.24-1.93.07-.54.13-1.08.19-1.62.06-.53.13-1.07.2-1.6.06-.47.11-.95.17-1.42.02-.17-.08-.26-.24-.26-.3,0-.59-.01-.89,0-.19,0-.32.1-.34.31-.05.42-.11.84-.16,1.27-.08.63-.15,1.27-.22,1.9-.07.63-.15,1.25-.22,1.88-.08.64-.16,1.29-.24,1.93-.08.63-.15,1.25-.22,1.88-.08.65-.16,1.3-.24,1.95-.08.64-.16,1.28-.24,1.92-.04.38-.09.75-.12,1.13-.02.19.07.27.26.27Zm-41.69,10.47c-.34.01-.69,0-1.03,0-.16,0-.18-.04-.15-.19.15-.66.28-1.32.42-1.98,0-.03,0-.1,0-.1-.19,0-.38,0-.57,0-.01,0-.03.06-.04.09-.1.44-.19.88-.29,1.32-.09.42-.19.83-.28,1.25v.14c.53,0,1.07,0,1.6-.01.4,0,.4,0,.46-.38.02-.09.01-.15-.12-.15Zm20.35-10.54c.88.26,1.78.3,2.7.18.73-.1,1.43-.28,2.09-.59.27-.13.35-.08.37.21.01.18.09.27.28.27.26,0,.52,0,.78,0s.55,0,.82,0c.16,0,.29-.08.32-.25.05-.28.08-.57.11-.86.06-.52.12-1.04.19-1.56.07-.54.14-1.09.2-1.63.05-.43.1-.85.15-1.28.07-.54.14-1.09.2-1.63.07-.54.14-1.07.2-1.61.06-.53.13-1.05.19-1.58.03-.26-.07-.33-.33-.24-.59.19-1.17.38-1.76.57-.08.03-.2.01-.27-.03-.87-.47-1.8-.73-2.78-.77-.42-.02-.85.02-1.27.06-.74.07-1.43.28-2.06.67-.9.57-1.43,1.42-1.77,2.4-.29.84-.45,1.71-.54,2.6-.09.88-.13,1.77.04,2.65.24,1.22.91,2.07,2.14,2.43Zm.02-5c.09-.67.2-1.34.34-2,.1-.48.31-.92.64-1.28.4-.44.93-.65,1.5-.72.41-.06.84-.08,1.26-.07.59.02,1.18.09,1.68.44.36.26.59.61.58,1.06,0,.48-.06.97-.11,1.45-.06.53-.13,1.07-.2,1.6-.06.46-.1.93-.19,1.38-.19.89-.8,1.36-1.65,1.53-.42.09-.85.11-1.28.16-.54-.03-1.07-.06-1.57-.25-.59-.22-.89-.67-1-1.27-.13-.68-.07-1.36.03-2.03Zm56.66,13.97c-.3-.02-.56.07-.77.29q-.01-.24-.25-.24s-.08,0-.12,0c-.1,0-.15.02-.17.14-.09.5-.21,1-.31,1.5-.09.42-.09.42.34.41.1,0,.14-.03.16-.14.05-.27.11-.54.17-.81.04-.17.1-.35.18-.51.09-.17.37-.26.53-.15.08.05.14.2.13.29-.04.3-.11.6-.18.9-.1.45-.08.48.39.41.04,0,.1-.05.11-.09.1-.49.21-.98.29-1.47.05-.31-.17-.51-.48-.53Zm-34.14.14c-.13.61-.27,1.22-.39,1.83,0,.04.06.1.1.13.04.02.1,0,.19,0,.2.06.27-.05.31-.27.08-.46.19-.92.28-1.38.02-.13.02-.26.02-.39-.14,0-.28,0-.43,0-.03,0-.08.05-.09.08Zm-.69.3c-.29,0-.58,0-.87,0-.09,0-.13-.02-.11-.12.03-.12.07-.25.09-.38.01-.11.07-.13.16-.13.27,0,.55,0,.82,0,.39,0,.38,0,.47-.38.04-.14-.02-.15-.13-.15-.28,0-.56,0-.84,0-.28,0-.57,0-.85,0-.05,0-.14.06-.15.11-.16.75-.32,1.49-.47,2.24-.03.14-.05.28-.07.43.15,0,.29,0,.44.02.13.01.18-.06.2-.17.06-.29.11-.59.19-.88.01-.05.09-.11.15-.12.23-.01.46,0,.69,0,.34,0,.34,0,.42-.33.04-.15-.02-.16-.14-.16Zm14.52-1.11c-.26-.04-.52-.04-.78-.05,0,0,0,.01,0,.02-.2,0-.4,0-.6,0-.11,0-.16.01-.19.14-.17.85-.36,1.7-.54,2.55-.03.13.05.12.13.12.33,0,.65.02.98,0,.26-.02.53-.06.77-.16.7-.31,1.01-1.25.92-1.88-.06-.38-.28-.65-.68-.71Zm-.13,1.76c-.16.38-.51.48-.89.48-.38,0-.38,0-.29-.37.08-.38.18-.77.24-1.16.03-.2.12-.25.3-.23.03,0,.07,0,.14,0,.05,0,.13,0,.2,0,.28.02.5.21.48.49-.02.26-.07.54-.17.78Zm-13.31-1.8c-.15,0-.23.02-.26.19-.04.28-.05.27.24.27.08-.05.25.1.3-.11.07-.35.08-.34-.28-.35Zm1.7.89s-.05-.11-.09-.12c-.27-.04-.27-.03-.22-.3.01-.06.03-.13.04-.19,0-.04-.02-.11-.03-.11-.16,0-.32-.02-.47,0-.05,0-.08.16-.1.24-.04.19-.03.38-.33.35-.16-.01-.11.19-.13.3,0,.02.09.07.13.07.19-.03.17.08.15.2-.08.35-.16.7-.23,1.05-.04.18.06.36.24.39.18.03.38.03.56.03.04,0,.09-.06.1-.1.03-.11.05-.23.07-.35-.05,0-.1,0-.15,0-.18.02-.25-.04-.2-.23.07-.28.13-.56.18-.84.02-.13.08-.17.19-.14.22.05.3-.06.31-.26Zm-4.9-19.71c-.39.12-.77.25-1.16.38-.06.02-.13.03-.18,0-.57-.33-1.2-.47-1.85-.53-1.03-.1-2.06-.08-3.07.15-1.06.24-1.91.78-2.49,1.72-.36.59-.61,1.24-.75,1.92-.15.76-.26,1.52-.36,2.29-.11.81-.1,1.63.08,2.44.22,1.04.81,1.77,1.82,2.14.55.2,1.12.29,1.7.32,1.03.06,2.04-.09,3.01-.45.3-.11.59-.26.91-.4-.03.37-.04.73-.1,1.08-.17.97-.68,1.7-1.62,2.07-.42.17-.87.22-1.32.23-1.19,0-2.37,0-3.56,0-.58,0-.64-.08-.69.66-.02.25.03.31.28.31,1.17,0,2.34,0,3.51,0,.32,0,.65,0,.97-.04,1.2-.13,2.26-.58,3.07-1.52.45-.52.72-1.13.82-1.81.08-.6.15-1.19.23-1.79.08-.64.16-1.28.24-1.92.08-.62.15-1.24.23-1.86.08-.64.16-1.28.24-1.92.08-.64.16-1.28.24-1.92.05-.43.11-.86.15-1.28.02-.27-.06-.32-.31-.24Zm-1.69,4.68c-.07.62-.15,1.23-.23,1.84-.07.59-.11,1.19-.41,1.72-.4.71-1.02,1.13-1.8,1.32-1.02.25-2.04.27-3.04-.08-.74-.25-1.11-.83-1.24-1.57-.15-.85-.03-1.7.06-2.54.09-.77.2-1.53.43-2.27.23-.72.58-1.37,1.26-1.78.4-.24.84-.36,1.3-.42.28-.03.57-.04.85-.06.65,0,1.27.07,1.86.37.73.37,1.09.99,1.09,1.79,0,.56-.09,1.12-.15,1.67Zm23.13,14.9c-.16,0-.24.04-.31.19-.18.38-.39.76-.61,1.18-.04-.36-.07-.66-.11-.97-.06-.41-.07-.41-.48-.4-.12,0-.13.06-.12.15.07.49.14.99.21,1.49.06.41.06.4.48.41.13,0,.21-.03.27-.15.29-.53.58-1.05.87-1.58.17-.32.17-.31-.18-.32Zm-6.7-17.51c-.2-.93-.72-1.61-1.63-1.92-.49-.17-1.01-.27-1.53-.32-.92-.1-1.84-.06-2.76.13-.83.17-1.57.51-2.16,1.13-.49.52-.8,1.15-1.02,1.82-.3.89-.45,1.8-.54,2.73-.09.89-.13,1.78.05,2.67.22,1.08.82,1.83,1.88,2.2.71.25,1.45.32,2.22.31.67.02,1.34-.05,2-.22.97-.24,1.77-.74,2.35-1.57.44-.63.69-1.34.87-2.08.22-.93.34-1.87.4-2.82.05-.7.03-1.38-.12-2.07Zm-1.42,2.75c-.1.76-.2,1.53-.37,2.28-.11.46-.3.92-.53,1.34-.37.66-.98,1.02-1.71,1.18-.96.2-1.91.21-2.85-.08-.81-.25-1.21-.85-1.34-1.66-.12-.81-.05-1.62.07-2.42.11-.74.22-1.48.4-2.2.22-.88.67-1.63,1.53-2.04.61-.28,1.26-.36,1.9-.33.52-.01,1.02.02,1.51.18.8.25,1.24.82,1.39,1.63.13.71.1,1.43,0,2.14Zm-.27,14.8c-.14-.07-.3-.07-.5-.12-.19.05-.42.09-.62.19-.26.13-.4.38-.35.67.04.26.27.29.48.35.16.04.32.08.47.14.06.03.13.14.12.19-.05.2-.23.23-.4.23-.17,0-.3-.05-.35-.23,0-.03-.04-.08-.07-.09-.13,0-.26,0-.39,0-.02,0-.06.05-.07.07-.04.2.05.38.23.49.36.22,1.06.17,1.37-.1.22-.19.34-.43.27-.71-.06-.24-.31-.29-.52-.34-.14-.03-.29-.06-.42-.12-.06-.03-.12-.15-.1-.21.05-.15.2-.16.33-.14.1.02.24.07.29.15.05.08.08.11.16.1.07,0,.13,0,.2,0,.2,0,.27-.08.18-.27-.06-.12-.17-.23-.28-.29Zm-6.67-.08c-.28,0-.5.1-.76.32.13-.28,0-.29-.16-.27-.06,0-.12-.01-.18,0-.06.02-.14.07-.15.12-.12.52-.22,1.03-.33,1.55-.07.37-.07.36.31.37.15,0,.2-.06.22-.18.05-.24.09-.49.15-.72.05-.2.12-.4.22-.59.08-.15.39-.21.51-.13.15.1.13.26.1.41-.06.26-.1.53-.16.79-.09.43-.05.48.39.4.04,0,.1-.05.1-.09.1-.45.2-.9.28-1.36.07-.4-.14-.62-.55-.64Zm4.59.08c-.14-.06-.31-.07-.48-.11-.18.04-.36.07-.54.13-.28.1-.5.4-.48.66.03.3.27.37.51.43.16.04.32.08.47.14.05.02.11.12.1.17-.03.18-.17.23-.32.24-.17.02-.36.01-.41-.19-.03-.12-.07-.14-.17-.13-.09,0-.18,0-.27,0-.12-.01-.16.06-.13.15.04.13.08.27.17.36.21.22.5.22.78.2.49-.02.82-.26.94-.66.07-.25,0-.43-.24-.53-.09-.04-.18-.06-.27-.08-.14-.04-.29-.06-.42-.11-.12-.04-.19-.13-.1-.26.09-.13.54-.15.58,0,.06.21.21.17.34.17.26,0,.33-.12.19-.35-.06-.09-.15-.17-.25-.21Zm-12.14-.8c-.15,0-.2.04-.23.18-.17.82-.34,1.63-.52,2.44-.03.12-.02.2.14.18.04,0,.08,0,.15,0,.15.03.26,0,.3-.22.14-.74.31-1.48.46-2.22.08-.36.07-.36-.31-.37Zm9.64.71c-.63-.04-1.22.41-1.35,1.11-.06.3-.05.63.23.85.49.38,1.4.14,1.64-.43,0-.02,0-.07-.01-.08-.08-.05-.42,0-.5.08-.19.18-.49.25-.68.11-.09-.07-.11-.22-.16-.34.08-.03.16-.08.24-.08.17-.01.34,0,.52,0,.1,0,.19,0,.28,0q.49,0,.49-.5c0-.4-.31-.69-.71-.72Zm.08.85c-.12,0-.24,0-.35,0h0c-.12,0-.24,0-.35,0-.02,0-.06-.07-.05-.1.08-.22.35-.37.59-.32.16.03.28.19.26.35,0,.03-.05.07-.09.07Zm10.16-.85c-.62,0-1.16.45-1.27,1.09-.08.44.02.76.32.93.5.28,1.22.09,1.54-.49,0-.02-.04-.09-.06-.09-.18,0-.37-.04-.52.13-.07.08-.21.12-.32.13-.16.02-.32-.02-.4-.19-.1-.2-.04-.31.18-.31.17,0,.34,0,.52,0,.16,0,.32-.02.48,0,.21.03.29-.04.32-.25.06-.51-.22-.97-.78-.96Zm.03.86c-.08,0-.15,0-.23,0h0c-.11,0-.22,0-.34,0-.11,0-.11-.04-.07-.13.1-.2.36-.35.57-.29.08.02.18.1.22.17.1.18.05.25-.16.25Zm-25.86-.82c-.73-.2-1.44.3-1.58,1.07-.13.7.31,1.05.84,1.03.74,0,1.31-.61,1.3-1.38,0-.36-.21-.63-.56-.72Zm-.52,1.64c-.29.09-.53-.06-.52-.36,0-.28.07-.57.31-.76.09-.07.21-.11.32-.16.2.04.32.1.38.3.1.36-.15.89-.48.99Zm-2.45-1.55c-.17-.07-.36-.11-.54-.17-.36.04-.54.09-.76.25-.2.15-.3.36-.26.61.04.23.24.28.43.34.17.06.35.09.52.15.13.04.18.16.1.25-.08.09-.21.15-.32.17-.14.03-.33.02-.36-.14-.05-.21-.18-.18-.32-.18-.27,0-.35.12-.21.36.06.11.17.21.28.26.45.17.9.14,1.29-.16.22-.16.32-.4.27-.67-.05-.24-.27-.29-.47-.35-.07-.02-.15-.03-.22-.05-.11-.03-.21-.06-.31-.11-.1-.05-.1-.14-.04-.22.1-.13.52-.15.57,0,.07.21.22.16.36.16.24,0,.3-.08.19-.3-.04-.08-.1-.17-.18-.21Zm34.6-.84c-.11,0-.15.04-.16.14-.03.14-.05.29-.08.43-.15.69-.3,1.38-.45,2.06-.03.13,0,.19.15.17.04,0,.07,0,.11,0,.28,0,.28,0,.31-.16.16-.73.31-1.47.47-2.2.1-.45.1-.45-.34-.44Zm-36.77.79c-.14-.06-.29-.07-.5-.12-.19.06-.42.11-.63.21-.25.12-.35.36-.34.62.01.26.25.33.47.39.18.05.35.09.52.16.05.02.11.17.1.18-.09.09-.2.18-.31.22-.15.04-.36.03-.4-.14-.05-.22-.17-.18-.3-.17-.09,0-.26.03-.27.05,0,.12,0,.25.06.35.04.08.13.15.22.2.38.2,1.04.13,1.35-.16.19-.17.3-.39.25-.65-.05-.25-.28-.3-.48-.36-.15-.05-.31-.07-.46-.12-.11-.04-.2-.11-.12-.24.1-.16.27-.12.42-.11.11,0,.19.04.21.17,0,.03.05.07.09.07.07.01.14,0,.21,0,.28,0,.34-.09.19-.34-.06-.09-.16-.18-.26-.22Zm-2.49-.08c-.69-.03-1.22.46-1.34,1.09-.06.32-.05.66.26.88.49.35,1.36.11,1.61-.45.01-.02-.01-.09-.02-.09-.18.02-.36-.07-.53.1-.17.19-.45.23-.63.1-.09-.07-.12-.23-.17-.36.08-.03.16-.07.24-.07.17-.01.34,0,.52,0,.1,0,.2,0,.3,0q.49,0,.47-.5c-.01-.4-.32-.69-.71-.71Zm.06.85c-.11.01-.22,0-.34,0h0c-.09,0-.18,0-.27,0-.05,0-.1-.01-.15-.02.02-.05.03-.11.05-.16.11-.18.36-.29.56-.25.14.03.27.21.25.34,0,.03-.07.07-.11.08Zm-3.73-.86c-.08,0-.17,0-.25.03-.63.15-1.01.6-1.06,1.24-.04.43.19.75.59.84.72.17,1.4-.29,1.55-1.05.13-.65-.18-1.05-.82-1.06Zm-.2,1.68c-.3.1-.54-.05-.53-.36,0-.25.06-.51.25-.7.08-.08.19-.15.29-.18.28-.08.49.11.49.41,0,.39-.21.74-.49.83Zm2.62-1.54c0-.17-.15-.05-.22-.09-.05-.03-.13-.07-.12-.09.02-.13.07-.24.23-.25.24-.02.3-.08.29-.33,0-.03-.05-.09-.08-.09-.45-.04-.86.04-1.02.64-.01.05-.1.11-.15.11-.17-.02-.23.07-.24.22,0,.05-.02.1-.02.16.04,0,.08.01.12,0,.15-.02.21,0,.16.19-.1.36-.15.72-.23,1.09-.08.4-.08.39.32.39.11,0,.17-.02.19-.15.08-.44.19-.87.27-1.31.03-.15.07-.24.25-.22.18.02.25-.07.24-.29Zm6.74-.08c-.05,0-.13.07-.14.12-.13.55-.24,1.11-.36,1.67-.05.25-.05.25.2.25.01,0,.02,0,.07,0,.21.06.27-.06.31-.27.08-.46.19-.91.28-1.36.09-.43.09-.44-.35-.41Zm-10.31.18s0-.07.02-.1c.05-.12-.01-.14-.11-.13-.29,0-.5.16-.7.36q.05-.31-.25-.31s-.1-.01-.14,0c-.05.02-.11.06-.11.1-.11.51-.22,1.02-.32,1.53-.09.43-.08.43.35.4.05,0,.13-.07.14-.12.07-.26.12-.53.18-.79.08-.37.31-.65.59-.63.25.02.35-.08.36-.31Zm17.14-.2c-.2-.03-.4-.05-.6-.03-.35.04-.67.17-.83.52-.02.04-.04.11-.01.14.06.07.51-.01.56-.09.1-.15.24-.2.41-.19.13,0,.27.01.28.17,0,.14-.08.24-.23.27-.13.02-.25.04-.38.06-.28.04-.57.07-.77.31-.16.2-.24.43-.13.67.1.23.32.28.54.26.24-.02.47-.1.72-.15,0,.23.2.1.32.11.14.02.24.03.26-.19.04-.42.15-.84.24-1.26.07-.34-.04-.53-.38-.59Zm-.9,1.75c-.09-.06-.22-.11-.25-.19-.05-.13.02-.27.17-.32.19-.06.4-.1.6-.14.01,0,.06.06.05.09-.02.31-.24.51-.57.55Zm-1.59-1.78c-.21.01-.41.12-.62.19.06-.15-.05-.16-.18-.15-.04,0-.08,0-.12,0-.17-.03-.23.05-.27.21-.09.48-.19.95-.3,1.43-.09.41-.1.41.32.41.12,0,.17-.04.2-.16.06-.33.13-.66.22-.98.04-.15.11-.32.23-.4.11-.08.3-.09.44-.06.14.03.13.2.11.32-.05.31-.12.62-.18.93-.07.35-.07.35.29.35.13,0,.21-.01.24-.16.08-.4.17-.79.25-1.19.1-.52-.1-.77-.63-.73Zm28.1.02c-.63-.16-1.35.31-1.5,1.01-.07.31-.07.61.17.86.44.45,1.45.22,1.68-.38,0-.02-.04-.08-.06-.08-.18,0-.37-.04-.52.14-.07.08-.21.11-.32.13-.26.04-.43-.12-.43-.36,0-.09.02-.14.13-.13.2,0,.4,0,.6,0,.2,0,.39,0,.59,0,.12,0,.17-.05.18-.16,0-.05.02-.1.03-.16.04-.35-.14-.77-.55-.87Zm-.19.83c-.08,0-.17,0-.25,0-.09,0-.19,0-.28,0-.05,0-.09-.01-.13-.02.01-.05.01-.11.04-.15.13-.2.31-.29.54-.25.09.02.19.1.23.18.1.17.05.24-.15.24Zm-32-1.57c-.17,0-.24.03-.26.21-.03.26-.05.26.23.26s.29,0,.31-.11c.08-.35.08-.34-.28-.35Z"/>
  </g>
</svg>