<?xml version="1.0" encoding="UTF-8"?>
<svg xmlns="http://www.w3.org/2000/svg" viewBox="0 0 108 108">
  <defs>
    <style>
      .cls-1 {
        fill: #282828;
      }

      .cls-1, .cls-2 {
        stroke-width: 0px;
      }

      .cls-2 {
        fill: #e9d5bd;
      }
    </style>
  </defs>
  <g id="bg">
    <circle class="cls-1" cx="54" cy="54" r="54"/>
  </g>
  <g id="icon">
    <path class="cls-2" d="m23.37,31.31s.08-.06.12-.09c.16-.16.34-.16.52-.05.24.16.48.32.7.51.51.43,1.01.87,1.52,1.31.53.47,1.07.93,1.59,1.41.24.22.25.38.12.68-.02.05-.07.09-.06.13,0,.08.02.19.07.22.05.03.16,0,.23-.03.06-.03.1-.11.15-.16.25-.3.51-.59.76-.89.65-.79,1.3-1.58,1.95-2.37.18-.21.18-.28.01-.49-.35-.43-.72-.85-1.08-1.27-.04-.05-.17-.09-.22-.06-.05.03-.1.15-.08.22.04.16.12.3.19.45.4.84.27,1.59-.34,2.27-.3.33-.45.36-.8.09-.5-.39-.98-.79-1.46-1.2-.07-.06-.12-.15-.18-.23.27-.44.63-.58,1.06-.4.22.09.42.23.64.32.09.04.24.03.31-.02.11-.09.05-.2-.05-.29-.07-.06-.13-.12-.2-.17-.6-.51-1.19-1.01-1.79-1.51-.14-.12-.29-.22-.43-.32-.16.1-.22.19-.11.33.14.19.27.4.39.61.23.42.18.72-.22,1.14-.21-.19-.4-.37-.6-.54-.34-.3-.7-.58-1.03-.89-.2-.19-.2-.31-.03-.52.14-.17.27-.33.42-.49.43-.46.89-.57,1.48-.34.14.05.27.14.4.21.1.06.22.11.3,0,.1-.14.01-.23-.1-.32-.26-.22-.51-.45-.78-.67-.18-.15-.37-.29-.57-.45-.09.09-.17.15-.23.23-.56.67-1.12,1.34-1.67,2.01-.34.41-.67.82-1.01,1.23-.05.06-.11.12-.12.19-.02.06,0,.17.03.2.06.04.16.04.24.03Zm1.01,8.95c.73-.09,1.35-.41,1.79-1.02.7-.96.73-1.99.26-3.05-.12-.27-.19-.28-.56-.12.02.09.05.19.07.28.08.32.18.63.24.95.14.8-.41,1.85-1.63,1.71-.42-.05-.82-.15-1.19-.34-.64-.33-1.29-.64-1.84-1.11-.26-.22-.51-.46-.7-.73-.46-.67-.21-1.46.54-1.79.54-.24,1.1-.36,1.7-.22.15.04.29.02.35-.14.06-.16-.05-.25-.19-.32-.54-.27-1.07-.56-1.61-.83-.08-.04-.18-.02-.27-.03,0,.09-.04.2-.02.28.15.43.14.45-.21.71-.54.4-.89.92-1.04,1.58-.27,1.21.11,2.22,1.01,3.04.93.85,2.01,1.3,3.29,1.14Zm-7.39,5.52c.3-.18.6-.3.96-.17.36.13.72.22,1.08.33.97.31,1.95.62,2.92.92.37.12.64.31.59.75-.01.13.03.23.17.25.15.02.19-.1.22-.21.1-.34.19-.68.29-1.02.04-.15.1-.29.11-.44,0-.08-.07-.17-.11-.25-.08.04-.2.07-.24.13-.19.37-.5.43-.87.35-.12-.03-.25-.06-.37-.09-.82-.25-1.64-.5-2.46-.76-.25-.08-.49-.17-.74-.26,0-.04,0-.07,0-.11.13-.05.25-.1.38-.14.68-.22,1.37-.44,2.05-.66.76-.24,1.51-.48,2.27-.73.3-.1.6-.19.9-.3.12-.04.24-.11.22-.27-.02-.14-.13-.16-.25-.19-.8-.24-1.59-.49-2.39-.73-.43-.13-.87-.26-1.3-.4-.48-.15-.96-.3-1.44-.46-.31-.11-.58-.27-.58-.66,0-.11-.01-.24-.17-.26-.18-.02-.2.12-.23.24-.14.41-.27.82-.4,1.22-.02.07-.06.15-.04.22.01.06.08.13.13.15.04.02.12-.02.16-.05.04-.03.05-.08.08-.13.23-.34.42-.42.8-.31.82.24,1.65.48,2.47.73.07.02.12.1.23.18-.13.06-.2.1-.28.12-.25.08-.51.15-.76.23-1.07.34-2.14.69-3.21,1.02-.18.06-.28.15-.33.33-.11.36-.23.72-.33,1.09-.04.15-.19.32-.04.45.19.16.32-.05.46-.14Zm6.15,23.47c.53-.24,1.05-.48,1.58-.73.28-.13.51-.06.71.16.1.12.19.33.38.18.18-.13.02-.31-.04-.44-.3-.65-.61-1.3-.92-1.95-.05-.1-.1-.21-.18-.29-.04-.04-.15-.06-.2-.03-.05.02-.09.12-.09.18,0,.11.06.22.08.3-.02.24-.11.41-.31.51-.61.3-1.21.62-1.82.91-.65.31-1.3.61-1.95.9-.23.1-.46.2-.71.26-.23.05-.45,0-.59-.23-.02-.04-.05-.1-.09-.12-.06-.03-.15-.05-.2-.03-.05.03-.09.12-.09.18,0,.07.05.14.08.21.16.34.32.68.48,1.03.18.38.35.76.52,1.14.05.11.12.21.26.16.13-.05.13-.17.1-.29,0-.02-.02-.05-.03-.07-.08-.21-.01-.38.15-.5.18-.14.37-.27.57-.36.76-.37,1.53-.72,2.29-1.07Zm-2.86-3.04c.44-.28.66-.72.81-1.2.14-.43.24-.88.35-1.32.07-.29.2-.55.44-.73.51-.4,1.15-.31,1.44.21.14.26.2.54.11.84-.17.58-.55.98-1.05,1.29-.11.07-.23.11-.32.19-.05.04-.06.16-.04.23.02.05.11.08.18.09.06,0,.12-.03.18-.04.58-.18,1.16-.35,1.73-.54.09-.03.19-.12.23-.2.02-.04-.09-.18-.17-.21-.21-.08-.23-.23-.24-.42,0-.33.02-.66-.06-.98-.15-.63-.44-1.2-1.1-1.44-1.17-.42-2.59.09-2.97,1.39-.13.46-.21.94-.34,1.4-.06.23-.15.46-.28.66-.21.32-.75.53-1.18.3-.36-.2-.55-.6-.41-1.04.08-.24.2-.46.34-.67.18-.28.45-.47.74-.63.13-.07.25-.16.18-.32-.08-.17-.24-.09-.37-.06-.17.05-.33.11-.5.17-.39.12-.77.23-1.15.35-.07.02-.14.11-.15.18-.01.04.07.12.13.16.08.05.18.08.3.13,0,.34-.02.66,0,.97.04.6.27,1.13.82,1.41.79.42,1.59.3,2.33-.17Zm5.07,7.72c.06-.52-.02-1.03-.04-1.55-.01-.31.06-.58.22-.82.23-.36.82-.56,1.17-.41.43.18.69.63.63,1.1-.05.38-.18.73-.42,1.04-.15.2-.33.39-.47.59-.04.06-.03.19,0,.27.02.03.15.03.23,0,.08-.02.15-.09.23-.13.46-.3.93-.6,1.39-.91.05-.03.11-.07.15-.12.13-.15.08-.29-.11-.33-.08-.02-.17,0-.32,0-.06-.24-.11-.44-.16-.65-.15-.67-.56-1.15-1.14-1.48-.21-.12-.48-.18-.72-.2-1.02-.07-2.35.91-2.32,2.17.01.45.03.91.07,1.36.03.33-.03.63-.17.92-.17.33-.58.53-.92.47-.36-.06-.61-.37-.65-.78-.06-.54.12-.99.44-1.41.09-.12.21-.22.29-.35.04-.06.04-.19,0-.23-.04-.05-.15-.05-.23-.05-.06,0-.11.06-.16.1-.24.16-.48.32-.72.48-.23.15-.47.29-.69.45-.06.04-.09.15-.09.23,0,.04.11.09.17.1.32.04.36.09.44.39.07.28.14.56.27.82.36.75,1.18,1.11,1.97.87.24-.07.46-.2.68-.33.63-.36.91-.93,1-1.64Zm-9.42-22.13c.3.12.61.23.91.36,1.47.63,2.94,1.27,4.4,1.91.34.15.67.32.74.73.23.05.33-.04.34-.25.02-.21.04-.43.05-.64.02-.21.03-.43.03-.64,0-.13-.04-.26-.2-.28-.16-.02-.17.12-.2.23-.02.07-.03.15-.06.22-.08.13-.19.25-.37.19-.3-.11-.59-.22-.88-.34-.16-.07-.21-.2-.2-.37.03-.43.04-.86.09-1.28,0-.1.09-.24.17-.26.33-.1.66-.18.99-.22.22-.03.32.07.37.29.01.05.02.1.02.15,0,.13.02.26.2.25.18-.01.17-.15.18-.28.01-.16.03-.33.04-.49.04-.55.08-1.11.11-1.66.01-.18.03-.39-.26-.44-.13.29-.34.49-.64.59-.53.16-1.06.34-1.59.5-1.41.41-2.81.81-4.22,1.21-.14.04-.28.08-.28.26,0,.17.11.24.25.3Zm2.42.23c.55-.16,1.11-.31,1.66-.46.1.29.08.97-.03,1.33-.24,0-1.54-.51-1.84-.74.08-.05.14-.11.22-.13Zm-.04,8.59c-.02-.06-.14-.11-.23-.13-.24-.05-.5-.06-.74-.14-.43-.13-.69-.46-.84-.86-.08-.22,0-.33.22-.38.06-.01.12-.02.19-.03.67-.07,1.33-.13,2-.21.85-.1,1.7-.22,2.55-.33.55-.07.7.01.9.51.08.2.19.2.42.1-.12-.94-.24-1.86-.37-2.79-.03-.22-.19-.19-.35-.12,0,.05-.02.08-.02.12.01.52-.06.63-.56.72-.52.09-1.05.16-1.57.23-.76.1-1.53.19-2.29.28-.42.05-.85.09-1.26.14-.17-.49-.03-.99.37-1.26.22-.15.49-.25.74-.36.12-.05.31-.05.27-.25-.03-.19-.21-.14-.34-.13-.05,0-.1,0-.15.02-.44.05-.88.11-1.32.16-.19.02-.27.11-.26.29,0,.08.02.15.03.23.16,1.38.33,2.76.49,4.14.01.09.02.18.05.26.04.14.12.22.28.2.54-.06,1.08-.12,1.62-.19.12-.02.24-.09.2-.22Zm74.05-5.9c-.26-.22-.27-.25-.14-.58.07-.2.15-.4.2-.61.26-1.06-.18-2.24-1.05-2.89-.49-.37-1.04-.55-1.63-.65-.98-.16-1.91-.04-2.77.48-.96.59-1.45,1.44-1.41,2.58.04,1.08.63,1.8,1.46,2.36.38-.24.39-.32.08-.55-.34-.26-.55-.61-.77-.96-.45-.74-.04-1.61.59-1.94.52-.27,1.07-.39,1.63-.43.9-.06,1.8-.08,2.65.27.8.33,1.09,1.01.68,1.74-.35.61-.87,1.01-1.51,1.25-.14.05-.23.11-.18.26.04.15.15.17.29.16.28-.03.55-.04.83-.05.4-.02.8-.03,1.23-.05q-.02-.26-.17-.38Zm-60.08,23.25s.05.02.07.03c.23-.19.25-.22.08-.4-.27-.3-.56-.58-.84-.88-.55-.59-1.1-1.19-1.64-1.78-.23-.25-.46-.5-.7-.75-.37.24-.71.47-1.06.69-.16.1-.31.21-.48.31-.12.07-.22.16-.15.3.06.12.18.11.3.06.11-.04.22-.06.33-.09.91-.3,1.66-.07,2.26.67.22.27.23.44-.02.69-.39.4-.79.77-1.19,1.16-.13.13-.27.25-.41.37-.4-.31-.51-.67-.32-1.07.08-.18.22-.34.33-.5.05-.07.12-.13.15-.21.02-.06,0-.16-.04-.2-.04-.04-.14-.06-.21-.05-.05,0-.1.07-.15.11-.63.6-1.26,1.19-1.9,1.79-.06.06-.12.13-.18.2-.08.09-.14.19-.02.3.09.09.18.04.27-.02.16-.1.32-.2.49-.28.44-.22.85-.09,1.13.37-.59.54-1.18,1.08-1.79,1.64-.35-.31-.66-.59-.86-.98-.17-.33-.23-.67-.05-1.02.11-.21.24-.41.36-.61.08-.12.12-.23,0-.34-.13-.11-.22-.03-.32.07-.34.34-.69.67-1.03,1-.25.25-.26.25-.02.51.78.86,1.56,1.72,2.33,2.58.18.2.35.4.54.58.06.05.17.04.26.06.02-.09.05-.18.05-.27,0-.04-.04-.09-.07-.13-.14-.18-.09-.36.02-.53.08-.11.17-.22.27-.32.3-.29.6-.57.91-.86.73-.7,1.46-1.39,2.2-2.08.41-.39.59-.4,1.07-.12Zm-1.27-52.69c.07.12.17.19.32.11.13-.07.1-.19.06-.3-.05-.14-.12-.28-.17-.42-.23-.62.03-1.29.57-1.64.15.21.28.4.41.6.77,1.11,1.53,2.22,2.29,3.33.12.18.22.37.33.55.14.22.07.41-.07.59-.05.06-.13.09-.16.15-.04.07-.08.2-.05.23.06.06.17.09.26.09.05,0,.11-.05.16-.09.66-.46,1.32-.93,1.98-1.39.05-.04.12-.07.14-.12.03-.06.07-.16.04-.2-.04-.06-.13-.12-.21-.12-.06,0-.14.05-.2.09-.27.14-.39.13-.61-.08-.1-.09-.19-.2-.27-.31-.68-.96-1.35-1.92-2.02-2.88-.24-.34-.48-.68-.71-1.03-.15-.22-.13-.27.1-.41.41-.24.99-.2,1.39.11.14.11.26.24.39.36.09.09.18.19.32.07.13-.11.07-.22,0-.33-.03-.05-.06-.11-.1-.16-.28-.37-.56-.74-.85-1.11-.05-.07-.12-.12-.2-.19-1.38.98-2.74,1.94-4.14,2.93.2.29.37.54.53.79.16.25.32.51.48.77Zm42.08,1.98c-.04.85.3,1.57.9,2.16.56.55,1.23.92,1.99,1.12.31.08.42.06.62-.19.19-.24.35-.49.56-.72.15-.16.32-.31.51-.43.18-.11.36,0,.53.09.05.03.16,0,.2-.05.04-.04.04-.15.01-.2-.07-.1-.16-.19-.25-.27-.13-.11-.29-.21-.42-.32-.43-.35-.86-.7-1.29-1.05-.1-.08-.23-.16-.34-.05-.12.12-.03.21.07.31.3.28.33.54.09.87-.21.29-.43.56-.67.82-.23.26-.53.31-.81.14-.32-.19-.56-.46-.64-.85-.09-.46.01-.89.23-1.28.23-.43.49-.85.79-1.24.52-.67,1.08-1.31,1.83-1.73.63-.35,1.39-.15,1.67.49.26.61.29,1.22.08,1.85-.03.1-.1.19-.1.28,0,.1.03.23.09.29.11.11.21,0,.28-.1.17-.2.33-.42.49-.62.23-.29.46-.57.68-.87.04-.06.07-.2.04-.23-.06-.06-.17-.06-.26-.09-.02,0-.05.01-.07.02-.33.1-.32.1-.49-.19-.17-.29-.3-.62-.53-.87-.93-1.04-2.28-1.11-3.33-.61-.8.38-1.44.95-1.92,1.71-.35.55-.56,1.13-.54,1.79Zm5.96,6.8c-.06.04-.1.16-.08.22.02.06.12.11.19.13.09.03.19.03.23.03.17.45.28.87.49,1.24.43.78,1.31,1.24,2.22.95,1.05-.34,1.74-1.25,1.65-2.47-.03-.35-.07-.7-.1-1.06-.02-.34-.04-.68.14-.99.19-.33.56-.56.9-.51.34.06.63.34.68.72.03.21.03.43,0,.64-.07.42-.27.78-.55,1.1-.18.2-.17.21.04.46.53-.38,1.06-.75,1.59-1.14.05-.04.09-.16.07-.22-.02-.06-.12-.15-.18-.15-.3.02-.33-.18-.4-.4-.1-.32-.2-.65-.37-.94-.29-.49-.73-.74-1.32-.75-.64,0-1.15.27-1.59.69-.56.53-.63,1.24-.61,1.96.01.38.06.76.11,1.13.04.35-.07.66-.31.9-.24.25-.54.44-.91.34-.39-.1-.7-.34-.76-.76-.04-.27-.02-.56.05-.82.12-.45.4-.81.73-1.14.1-.1.2-.23.07-.36-.12-.13-.25-.04-.37.04-.27.19-.54.38-.8.57s-.54.38-.8.58Zm8.3,9.6c-.69.17-1.37.34-2.06.49-.36.08-.52-.02-.7-.35-.04-.06-.08-.12-.12-.18-.3.09-.31.11-.25.39.14.56.29,1.13.43,1.69.2.83.41,1.67.6,2.5.05.2.14.31.36.29.53-.04,1.06-.05,1.59-.1.09,0,.23-.1.25-.17.03-.14-.1-.21-.24-.24-.18-.04-.37-.08-.55-.13-.37-.1-.68-.28-.95-.58-.3-.33-.39-.73-.47-1.14-.07-.33-.01-.42.32-.52.53-.16,1.07-.31,1.6-.46.19-.05.38-.1.57-.15.2.51.12.84-.31,1.16-.2.15-.44.24-.66.36-.09.05-.19.09-.14.23.04.12.13.15.24.13.17-.04.34-.09.51-.14.7-.17,1.4-.33,2.09-.5.11-.03.23-.05.32-.11.06-.04.11-.13.11-.2,0-.05-.09-.12-.15-.14-.08-.03-.18,0-.26-.01-.2-.01-.41,0-.6-.05-.41-.08-.63-.42-.58-.85.48-.12.97-.23,1.46-.35.21-.05.42-.1.63-.14.15-.03.29.02.33.18.09.31.2.63.23.95.03.38-.06.76-.43.99-.22.14-.44.28-.67.42-.12.07-.2.17-.14.31.06.14.18.11.29.08.49-.13.97-.27,1.46-.41.27-.08.28-.1.22-.37-.1-.44-.21-.89-.31-1.33-.23-.93-.45-1.86-.69-2.8-.03-.13-.11-.24-.16-.34-.23.02-.27.13-.26.3.02.29-.13.48-.4.57-.28.1-.57.2-.86.28-.55.15-1.1.29-1.65.42Zm-50.76-23.77c.32-.07.5.1.64.35.05.1.1.2.15.31.57,1.27,1.14,2.53,1.71,3.8.19.41.33.82-.19,1.11-.04.02-.07.15-.05.2.02.05.12.09.18.09.08,0,.17-.04.25-.07.44-.19.87-.39,1.31-.59.26-.12.53-.23.79-.35.11-.05.21-.13.14-.26-.04-.06-.16-.09-.25-.11-.03,0-.07.02-.11.03-.17.06-.33.02-.45-.11-.1-.11-.21-.22-.27-.35-.24-.52-.46-1.04-.69-1.56-.03-.07-.03-.16-.06-.33.19.1.33.16.44.24.77.57,1.54,1.15,2.3,1.73.14.11.26.12.41.05.35-.16.72-.31,1.07-.46.06-.02.13-.04.17-.09.05-.06.1-.14.1-.22,0-.04-.1-.11-.16-.12-.38-.05-.67-.28-.96-.49-.4-.27-.78-.56-1.16-.84-.25-.18-.51-.36-.79-.57.11-.12.17-.19.23-.25.61-.63.56-1.87-.26-2.49-.59-.44-1.24-.45-1.9-.19-.84.34-1.66.71-2.49,1.07-.13.05-.25.12-.36.2-.04.03-.06.14-.05.2,0,.04.09.07.15.08.05.01.1,0,.15-.01Zm2.38-.95c.41-.1.72.05.96.37.28.37.45.79.51,1.25.06.44-.14.83-.54,1.03-.1.05-.21.09-.34.15-.06-.09-.14-.18-.18-.27-.27-.6-.53-1.2-.79-1.8-.19-.43-.08-.61.38-.72Zm23.45,4.25c.78.26,1.55.52,2.33.78.18.06.29,0,.33-.21-.63-.42-.66-.52-.43-1.24.35-1.07.68-2.14,1.03-3.21.11-.35.24-.69.39-1.03.12-.27.31-.47.65-.36.03.01.09.02.11,0,.06-.05.14-.1.17-.17.01-.04-.06-.13-.11-.17-.06-.04-.14-.05-.21-.08-.44-.15-.89-.29-1.33-.44-.32-.11-.64-.22-.97-.33-.11-.04-.22,0-.23.12,0,.07.04.15.09.21.04.05.11.06.16.09.2.09.28.25.26.46-.01.12-.04.25-.07.37-.46,1.43-.92,2.86-1.4,4.28-.22.64-.38.6-.87.53-.02,0-.05.01-.08.03-.1.19,0,.3.18.36Zm20.72,15.29c-.32.15-.65.27-.9-.13-.02-.03-.05-.06-.08-.08-.14-.09-.29,0-.29.16,0,.06.02.12.05.18.3.71.61,1.41.91,2.12.05.12.11.24.27.21.17-.04.15-.18.13-.3-.06-.43-.02-.51.36-.72.32-.18.65-.34.98-.5.24-.11.48-.21.73-.32.07.12.13.2.17.29.15.28.28.57.45.83.42.67,1.33,1,2.09.7.53-.21.94-.52,1.15-1.08.15-.4.14-.81-.01-1.19-.4-1-.83-1.98-1.26-2.96,0-.02-.02-.05-.04-.06-.06-.03-.14-.09-.19-.07-.06.02-.11.1-.13.16-.02.05,0,.13.02.18.08.23-.03.4-.19.53-.12.1-.27.18-.42.25-.25.12-.5.24-.75.35-1.01.48-2.03.97-3.04,1.44Zm4.82-.66c.21-.1.31-.06.44.13.2.29.15.75-.12,1-.39.37-.86.61-1.39.71-.59.11-.94-.14-1.11-.78.08-.06.17-.13.27-.18.64-.3,1.27-.6,1.91-.89Zm-32.23-15.84c.13.05.27.08.4.1.31.05.62.09.94.13.07.01.15.02.23.03.18,0,.25-.09.22-.26-.05-.03-.09-.06-.14-.08-.52-.26-.58-.4-.49-.99.12-.79.23-1.57.34-2.36.06-.41.12-.82.18-1.23.03,0,.06-.01.08-.02.05.07.1.14.14.21.81,1.62,1.61,3.23,2.41,4.85.05.1.09.21.16.3.07.08.17.17.26.18.15,0,.14-.15.16-.26.07-.51.13-1.03.2-1.54.18-1.24.37-2.47.55-3.71.06-.46.23-.8.73-.88.03,0,.06-.04.08-.05.06-.16.01-.26-.15-.28-.5-.07-1-.13-1.5-.2-.1-.01-.21,0-.23.14-.02.12.04.18.15.22.44.17.54.34.48.8-.08.69-.17,1.38-.27,2.07-.03.22-.09.44-.14.66-.03.02-.06.04-.09.05-.03-.07-.07-.13-.1-.2-.38-.77-.76-1.54-1.13-2.31-.23-.47-.44-.94-.68-1.4-.07-.13-.19-.31-.32-.34-.52-.12-1.04-.19-1.57-.26-.05,0-.15.05-.18.1-.03.05,0,.15.03.2.04.06.13.09.17.15.2.27.44.52.38.91-.11.69-.2,1.37-.3,2.06-.12.77-.24,1.55-.35,2.32-.05.35-.2.59-.61.57-.06,0-.17.09-.17.14,0,.06.07.16.13.19Zm41.23,29.22c-.13-1.88-.39-3.74-.77-5.59-.18-.89-.38-1.78-.62-2.66-.27-1.01-.58-2.02-.9-3.01-.19-.6-.4-1.2-.65-1.78-.47-1.1-.96-2.2-1.48-3.28-.44-.92-.93-1.82-1.43-2.71-.39-.69-.81-1.37-1.25-2.03-.54-.81-1.09-1.61-1.67-2.39-.55-.74-1.14-1.45-1.74-2.15-.54-.63-1.08-1.27-1.66-1.86-.75-.77-1.55-1.48-2.3-2.25-.79-.79-1.67-1.47-2.55-2.14-1.11-.84-2.25-1.62-3.44-2.33-1.67-1-3.35-1.96-5.15-2.7-1.04-.42-2.09-.84-3.14-1.23-.63-.23-1.26-.44-1.91-.62-.91-.25-1.83-.49-2.75-.7-.91-.21-1.82-.42-2.74-.56-1.03-.16-2.08-.27-3.12-.35-1.18-.09-2.37-.14-3.56-.2-1.42.02-2.83.07-4.24.22-.55.06-1.1.13-1.65.2-.57.08-1.15.17-1.72.27-.49.08-.97.15-1.45.26-.95.22-1.89.47-2.83.71-.46.12-.92.25-1.38.4-.59.2-1.17.46-1.77.65-1.31.41-2.54.99-3.77,1.56-.86.4-1.69.85-2.5,1.33-.98.57-1.94,1.18-2.89,1.8-.63.41-1.25.86-1.84,1.32-.66.51-1.3,1.04-1.92,1.59-1.06.92-2.12,1.83-3.04,2.9-.2.23-.4.46-.6.69-.61.7-1.26,1.38-1.84,2.11-.79,1-1.53,2.04-2.27,3.07-.34.47-.64.97-.94,1.47-.45.76-.92,1.51-1.32,2.3-.55,1.07-1.07,2.15-1.56,3.24-.39.86-.77,1.73-1.08,2.63-.36,1.02-.65,2.07-.95,3.12-.63,2.22-1.07,4.47-1.36,6.76-.21,1.68-.24,3.38-.27,5.07,0,.37.03.73.04,1.1.02.43.04.86.05,1.29.07,1.55.25,3.09.53,4.63.29,1.6.61,3.2,1.07,4.77.44,1.5.89,3.01,1.54,4.43.56,1.22,1.1,2.44,1.71,3.63.73,1.43,1.58,2.79,2.47,4.12.84,1.26,1.72,2.5,2.7,3.65.65.77,1.32,1.52,2.02,2.26.66.71,1.35,1.39,2.06,2.06.54.51,1.1,1,1.68,1.47,1.05.86,2.15,1.68,3.29,2.42.99.63,1.96,1.3,2.98,1.86,1.16.64,2.36,1.2,3.57,1.74,1.51.68,3.07,1.22,4.65,1.72.9.29,1.82.52,2.74.73,1.11.26,2.22.51,3.34.69,1.06.17,2.13.23,3.2.35,1.64.17,3.27.19,4.92.13.28,0,.56,0,.83-.02,1.21-.11,2.42-.2,3.62-.35.8-.09,1.6-.24,2.39-.39.51-.09,1.01-.22,1.51-.35.93-.23,1.88-.39,2.79-.7.99-.34,2.01-.59,2.96-1.03.91-.42,1.86-.72,2.77-1.13,1.06-.49,2.13-1,3.14-1.58,1.23-.72,2.44-1.47,3.6-2.3,1-.71,1.98-1.44,2.89-2.26.85-.76,1.66-1.54,2.47-2.34.62-.61,1.21-1.25,1.79-1.89.36-.4.7-.83,1.03-1.26.48-.6.96-1.2,1.42-1.82.98-1.32,1.83-2.72,2.66-4.14.88-1.49,1.59-3.07,2.3-4.65.65-1.44,1.13-2.95,1.59-4.46.59-1.95,1.01-3.94,1.31-5.96.22-1.48.36-2.96.43-4.45.08-1.69.06-3.39-.06-5.08Zm-2.7,8.79c-.19,1.39-.45,2.77-.79,4.13-.2.81-.44,1.61-.7,2.4-.39,1.19-.78,2.38-1.22,3.55-.27.71-.62,1.38-.96,2.06-.36.72-.76,1.42-1.14,2.14-1.07,2.01-2.32,3.91-3.78,5.66-.66.78-1.29,1.59-1.98,2.34-.82.89-1.65,1.78-2.59,2.55-.92.77-1.84,1.54-2.78,2.28-.5.4-1.05.73-1.59,1.09-.36.24-.71.48-1.08.7-.87.51-1.73,1.03-2.62,1.5-.75.4-1.52.74-2.29,1.08-.63.28-1.28.55-1.92.79-.63.24-1.27.47-1.92.68-.67.22-1.35.42-2.03.61-1.67.45-3.36.82-5.08,1.05-1.34.18-2.69.24-4.04.34-.34.03-.68.02-1.02.03-1.66.06-3.31-.06-4.96-.2-1.58-.13-3.12-.45-4.67-.77-1.2-.25-2.37-.59-3.54-.95-.84-.26-1.66-.59-2.48-.92-.99-.4-1.98-.82-2.95-1.27-1.07-.5-2.14-1.03-3.13-1.68-.5-.33-.98-.67-1.48-.99-1.27-.8-2.46-1.73-3.61-2.69-1.05-.87-2.03-1.82-2.96-2.82-.46-.5-.96-.97-1.4-1.49-.78-.94-1.58-1.88-2.27-2.88-.9-1.3-1.72-2.64-2.53-4-.55-.93-1.05-1.9-1.52-2.88-.39-.82-.72-1.67-1.07-2.51-.61-1.45-1.05-2.95-1.47-4.46-.25-.89-.4-1.8-.57-2.71-.18-.97-.35-1.94-.46-2.92-.11-1-.19-2.01-.22-3.02-.04-1.21-.05-2.43,0-3.64.04-1.1.17-2.19.28-3.28.17-1.68.57-3.31.93-4.95.21-.95.58-1.85.86-2.79.29-.98.67-1.93,1.07-2.87.47-1.1.99-2.19,1.52-3.26.73-1.47,1.6-2.86,2.52-4.23.46-.68.96-1.33,1.46-1.98.55-.71,1.1-1.42,1.69-2.09.63-.72,1.3-1.41,1.98-2.08.74-.73,1.5-1.43,2.27-2.12.32-.29.68-.52,1.02-.78.63-.48,1.25-.99,1.9-1.44.69-.48,1.41-.93,2.14-1.36.97-.57,1.93-1.14,2.93-1.64,1.02-.51,2.05-1.03,3.14-1.37.25-.08.49-.21.73-.3.85-.29,1.69-.6,2.55-.85.94-.27,1.9-.5,2.86-.73.74-.17,1.48-.31,2.23-.44.5-.09,1-.15,1.5-.2.74-.08,1.48-.13,2.22-.21,1.4-.14,2.8-.13,4.2-.08,1.41.06,2.82.17,4.22.37,1.33.19,2.64.45,3.94.76,1.09.26,2.17.58,3.24.92,1.55.5,3.04,1.14,4.52,1.82,1.61.74,3.13,1.63,4.63,2.57,1.53.95,2.93,2.05,4.31,3.2.96.8,1.86,1.67,2.69,2.6.41.46.88.88,1.26,1.36.84,1.03,1.63,2.09,2.46,3.12,1.17,1.47,2.08,3.11,2.96,4.76.63,1.18,1.22,2.38,1.75,3.61.42.97.74,1.99,1.06,3,.49,1.53.95,3.07,1.28,4.64.12.59.25,1.19.33,1.79.19,1.33.41,2.65.44,3.99.02.88.08,1.76.12,2.65,0,1.91-.16,3.81-.41,5.71ZM45.55,23.14c.28-.06.57-.12.85-.18.21-.04.41-.09.61-.13q-.02-.29-.27-.3c-.41-.03-.53-.16-.5-.58.02-.24.06-.48.09-.71.02-.16.11-.24.26-.27.43-.09.87-.17,1.3-.27.14-.03.25-.02.32.11.15.28.32.55.45.83.12.28.03.45-.26.56-.03.01-.08,0-.11.03-.06.05-.14.11-.15.18,0,.12.09.17.21.17.11,0,.23-.02.34-.04.54-.11,1.09-.22,1.63-.33.2-.04.39-.1.59-.15,0-.21-.09-.27-.23-.31-.25-.07-.41-.23-.53-.45-.3-.52-.61-1.04-.92-1.56-.6-1-1.21-2.01-1.82-3.01-.14-.24-.28-.48-.43-.71-.04-.06-.14-.11-.21-.1-.07.01-.13.1-.18.16-.03.04-.02.1-.03.15-.11.81-.23,1.62-.34,2.44-.16,1.14-.32,2.28-.48,3.41-.04.28-.12.54-.37.72-.06.05-.11.17-.1.25.03.14.16.13.28.11Zm1.14-4.75s.08-.02.12-.03c.34.59.67,1.17,1.03,1.79-.45.24-.91.18-1.4.3.09-.74.17-1.4.25-2.06Zm5.02-2.61c.47.13.57.26.6.73.03.73.05,1.46.08,2.19.02.48.05.96.06,1.44,0,.37.02.73,0,1.1-.02.29-.17.49-.5.52-.06,0-.13.02-.17.06-.04.04-.07.11-.06.16,0,.05.08.1.13.11.07.02.15,0,.23,0,.68-.01,1.36-.02,2.04-.04.13,0,.25,0,.38-.01.15,0,.23-.07.21-.26-.05-.02-.1-.07-.16-.08-.47-.05-.65-.34-.66-.78,0-.1-.02-.2-.02-.3-.01-.45-.02-.91-.04-1.36-.04-.86-.09-1.71-.12-2.57,0-.17.02-.35.05-.53.04-.24.17-.41.43-.48.11-.03.22-.1.31-.14-.03-.25-.17-.27-.33-.26-.69.04-1.39.06-2.08.1-.11,0-.23-.01-.34.02-.08.02-.18.09-.21.17-.03.11.06.17.18.2Zm16.16,5.55c-.36.72-.71,1.45-1.07,2.17-.06.12-.15.23-.25.33-.16.16-.36.14-.57.09-.06-.01-.21.04-.21.08,0,.08.03.18.08.25.04.05.13.07.2.1.4.2.79.39,1.19.59.1.05.19.08.27-.02.09-.11.03-.21-.06-.3-.02-.02-.04-.03-.06-.05-.32-.3-.35-.43-.18-.83.04-.09.09-.18.13-.27.32-.67.64-1.35.96-2.01.19-.4.4-.78.6-1.17.03,0,.05,0,.08,0,.03.09.06.19.08.28.08.52.15,1.05.22,1.58.2,1.31.4,2.62.6,3.93.02.1.03.2.07.29.06.15.22.18.33.06.05-.06.07-.13.11-.2.78-1.57,1.55-3.15,2.32-4.72.18-.37.37-.7.88-.57.12.03.25-.03.25-.16,0-.08-.08-.19-.15-.22-.44-.23-.88-.44-1.32-.64-.07-.03-.2,0-.26.04-.09.09-.02.18.06.25.1.09.21.19.27.31.1.19.04.4-.05.58-.38.8-.76,1.59-1.15,2.39-.03.06-.09.1-.17.19-.03-.13-.06-.21-.07-.29-.2-1.22-.39-2.44-.6-3.66-.17-.97.01-.72-.82-1.14-.26-.13-.51-.28-.77-.41-.06-.03-.19-.03-.23.01-.04.04-.03.15-.03.23,0,.03.04.06.06.1.25.41.29.81.05,1.25-.28.51-.53,1.04-.78,1.56Zm-24.91,42.82c.34.08.69.16,1.04.22.82.14,1.65.25,2.49.2.74-.04,1.48-.15,2.2-.38.37-.12.77-.18,1.15-.19.77-.01,1.54.03,2.31.06.14,0,.21-.06.24-.18.04-.14.01-.26-.14-.3-.18-.04-.37-.06-.56-.07-.23-.01-.45,0-.68,0-.65.03-1.31-.07-1.96.11-.12.03-.26.04-.38-.04.16-.06.32-.08.47-.12.69-.17,1.4-.17,2.1-.15.26,0,.53.06.79.07.22.01.37-.19.26-.37-.05-.08-.18-.14-.28-.14-.53-.02-1.06-.04-1.59-.04-.7,0-1.38.1-2.05.32-.41.13-.83.24-1.26.25-.97.04-1.94-.03-2.88-.32-.26-.08-.53-.12-.79-.18-.19.39-.17.48.17.55.69.14,1.39.28,2.09.35.6.06,1.2.01,1.81.01-.07.05-.13.12-.2.13-.25.04-.5.06-.75.07-1.17.07-2.32-.04-3.45-.35-.21-.06-.31-.01-.36.16-.05.17,0,.27.21.32Zm5.37-.49s.01.06.02.09c-.1.01-.2.03-.3.04,0-.03,0-.05-.01-.08.1-.02.2-.03.29-.05Zm-.56.18c-.11.16-.18.04-.25-.02.08,0,.16.01.25.02Zm-.11-.91c.56-.11,1.12-.21,1.68-.29.31-.04.63-.04.94-.04.36,0,.73,0,1.09.01.18,0,.35.04.53.06.05,0,.1.01.15,0,.16-.02.25-.12.26-.28.01-.17-.08-.26-.25-.26-.31,0-.63,0-.94,0-.64.02-1.28-.09-1.92.05-.12.03-.25,0-.37,0,0-.02,0-.05-.01-.07.27-.06.53-.16.8-.18.83-.06,1.66-.12,2.49.03.2.04.3-.03.32-.21.02-.17-.06-.28-.25-.29-.98-.05-1.97-.1-2.94.08-.43.08-.86.22-1.29.3-.43.08-.87.13-1.31.17-.74.07-1.45-.15-2.17-.29-.31-.06-.32-.06-.4.32.47.25,1.02.23,1.5.45-.59.08-1.13-.14-1.73-.26-.04.13-.08.26-.12.38.35.21.71.21,1.05.28.96.2,1.93.21,2.89.02Zm.4-.62s.09,0,.13,0c0,0,0,.01,0,.02h-.13s0-.02,0-.03Zm-.11-1.73c.53-.16,1.07-.34,1.62-.37.83-.06,1.66,0,2.49.02.14,0,.25,0,.31-.14.08-.18-.02-.34-.25-.36-.39-.02-.78-.01-1.17-.03-1-.04-1.99.06-2.95.37-1.03.33-2.06.29-3.11.15-.37-.05-.38-.07-.45.42.33.05.63.11.94.13.86.06,1.71.07,2.55-.18Zm28.18,13c.5-.57,1-1.14,1.46-1.74,1.16-1.52,2.1-3.18,2.94-4.9.68-1.4,1.21-2.86,1.65-4.35.37-1.24.63-2.5.79-3.78.2-1.57.38-3.14.35-4.72-.03-.63-.04-1.26-.1-1.89-.11-1.09-.24-2.18-.38-3.28-.16-1.31-.52-2.58-.9-3.83-.29-.94-.64-1.86-1.04-2.77-.46-1.04-.96-2.06-1.53-3.04-.68-1.15-1.4-2.28-2.24-3.33-1.11-1.38-2.3-2.68-3.62-3.86-.68-.61-1.36-1.2-2.1-1.73-.95-.69-1.94-1.31-2.97-1.89-.67-.38-1.34-.76-2.04-1.07-.91-.41-1.83-.79-2.76-1.14-.68-.26-1.38-.49-2.09-.68-.79-.21-1.59-.4-2.4-.52-1.18-.18-2.38-.34-3.57-.41-1.51-.1-3.03-.08-4.54.11-.89.11-1.78.21-2.66.37-.78.15-1.54.39-2.31.58-1.03.25-2.03.6-3.01,1.01-1.07.45-2.13.91-3.13,1.52-.81.5-1.66.96-2.46,1.49-.62.41-1.18.91-1.78,1.34-.77.56-1.46,1.21-2.12,1.88-.66.66-1.26,1.38-1.88,2.07-.77.87-1.45,1.82-2.08,2.79-.92,1.41-1.75,2.87-2.4,4.42-.25.61-.53,1.21-.73,1.83-.31.96-.58,1.94-.82,2.92-.23.93-.45,1.87-.59,2.82-.25,1.71-.35,3.44-.3,5.17.04,1.32.13,2.63.36,3.92.19,1.07.44,2.13.71,3.18.21.83.46,1.66.75,2.46.54,1.47,1.22,2.88,2,4.24.6,1.04,1.25,2.05,1.97,3,.84,1.12,1.76,2.17,2.75,3.17.73.74,1.5,1.42,2.3,2.08.98.8,2,1.53,3.07,2.2,1.13.7,2.32,1.27,3.52,1.83,1.23.57,2.51.99,3.8,1.38.49.15,1,.26,1.51.37.72.15,1.44.27,2.16.41,1.1.2,2.2.3,3.31.34.67.02,1.34,0,2.01,0,1.17,0,2.32-.17,3.46-.34.76-.11,1.52-.26,2.27-.43.78-.18,1.56-.41,2.33-.63.25-.07.49-.22.74-.28,1.27-.34,2.42-.94,3.59-1.5,1.09-.52,2.12-1.17,3.12-1.84,1-.67,1.94-1.4,2.84-2.2.98-.86,1.91-1.76,2.76-2.74Zm-3.72.35c-.61.63-1.31,1.15-2.02,1.66-.69.5-1.39,1.01-2.11,1.48-.57.37-1.18.68-1.78.99-.51.27-1.03.54-1.56.77-.59.26-1.19.49-1.79.71-1.39.52-2.81.9-4.27,1.15-1.36.24-2.72.39-4.1.44-1.53.06-3.05-.05-4.57-.27-1.06-.15-2.12-.37-3.15-.63-.82-.21-1.61-.52-2.41-.79-1.4-.48-2.72-1.14-4-1.88-.96-.55-1.85-1.22-2.77-1.85-1.13-.77-2.1-1.72-3.06-2.7-.63-.64-1.25-1.28-1.79-2-.52-.68-1.01-1.39-1.49-2.1-.31-.45-.58-.92-.86-1.38-.64-1.06-1.12-2.2-1.6-3.34-.75-1.8-1.19-3.68-1.54-5.58-.22-1.21-.32-2.43-.36-3.66,0-.26,0-.53,0-.8,0-1.43.08-2.86.32-4.26.38-2.2.94-4.34,1.82-6.4.49-1.14,1.04-2.24,1.66-3.32.25-.44.54-.85.84-1.26.71-.97,1.43-1.93,2.16-2.88.24-.32.53-.61.82-.88.62-.59,1.24-1.19,1.88-1.75.45-.4.93-.77,1.41-1.14.84-.65,1.75-1.19,2.67-1.72.99-.56,2.01-1.04,3.05-1.5,1.15-.5,2.34-.86,3.54-1.21.62-.18,1.25-.3,1.89-.4,1.01-.15,2.02-.31,3.04-.38.97-.07,1.94-.05,2.91-.01.81.03,1.61.15,2.41.22,1.21.1,2.4.36,3.56.71.98.3,1.93.66,2.89,1.01,1.2.44,2.32,1.06,3.42,1.69,1.13.64,2.2,1.38,3.21,2.2.52.42,1.06.82,1.54,1.28.62.59,1.2,1.22,1.78,1.86.5.55,1.01,1.1,1.44,1.7.62.86,1.19,1.76,1.75,2.66.37.6.72,1.22,1.03,1.85.84,1.75,1.47,3.57,1.95,5.45.44,1.74.67,3.5.74,5.28.1,2.47-.05,4.92-.65,7.34-.37,1.49-.79,2.95-1.38,4.37-.55,1.32-1.19,2.59-1.97,3.79-.38.58-.72,1.19-1.14,1.74-.54.71-1.13,1.39-1.73,2.05-.53.58-1.1,1.12-1.65,1.67Zm-27.66-14.15c.07.02.14.05.22.06,1.11.11,2.22.1,3.3-.22,1.22-.36,2.45-.45,3.7-.27.07.01.15.03.22.02.15-.02.2-.14.2-.28,0-.13-.06-.22-.19-.23-.48-.03-.96-.09-1.43-.08-1.05.01-2.08.17-3.1.46-1.01.29-2.02.18-3.07.03-.21.34-.19.39.15.5Zm27.01,7.74c.14-.09.23-.16.32-.22.28-.17.56-.34.84-.52.29-.19.53-.43.64-.77.08-.24.24-.31.48-.35.38-.06.76-.17,1.14-.25.92-.21,1.73-1.51,1.61-2.48-.04-.32-.04-.66-.04-.98,0-1.68-.01-3.36-.01-5.05,0-.12.02-.24.04-.39h2.63c.09-.35.1-5.35,0-5.68-.86-.08-1.75.04-2.64-.05-.01-.16-.04-.28-.04-.4,0-1.48,0-2.96.02-4.44,0-.26.06-.53.04-.79-.06-.96-.58-1.7-1.23-2.35-.06-.06-.14-.11-.22-.15-.22-.12-.45-.24-.67-.36-.32-.19-.66-.29-1.05-.27-.1,0-.25-.03-.3-.1-.41-.64-1.1-.88-1.73-1.17-.84-.39-1.76-.47-2.66-.15-.55.2-1.13.38-1.43.96-.02.03-.05.06-.07.09-.38.5-.63,1.03-.6,1.7.04,1.31.01,2.63.01,3.95,0,1.05,0,2.1,0,3.15,0,.29-.05.34-.32.34-.9,0-1.8-.01-2.69-.02-.33,0-.34,0-.43-.33-.29-1.05-.95-1.73-2.03-1.97-.08-.02-.15-.1-.24-.16.09-.11.14-.2.21-.27.65-.75,1.27-1.54,1.79-2.39.54-.88,1.07-1.77,1.4-2.76.25-.75.32-1.51.25-2.28-.07-.71-.33-1.37-.7-1.99-.95-1.61-2.1-3.06-3.49-4.3-.82-.73-1.61-1.5-2.43-2.22-.79-.7-1.6-1.39-2.43-2.05-1.21-.95-2.5-1.8-3.9-2.45-.07-.03-.15-.06-.26-.09-.02.12-.05.2-.05.29,0,.67,0,1.34,0,2.01,0,.67,0,1.34-.16,2-.14.6-.28,1.21-.6,1.75-.62,1.06-1.51,1.85-2.48,2.57-1.06.79-2.12,1.58-3,2.59-.55.63-.95,1.33-1.07,2.18-.08.58-.06,1.15,0,1.73.1.87.37,1.68.79,2.44.59,1.05,1.23,2.06,2.17,2.85.1.08.16.2.28.34-.31.03-.55.05-.78.08-.77.09-1.41.45-1.9,1.05-.27.33-.44.71-.55,1.12-.06.21-.17.27-.38.26-.57-.02-1.14,0-1.71,0-.14,0-.27,0-.44,0-.01-.15-.03-.23-.02-.3,0-.47.01-.94.02-1.4,0-1.93,0-3.87.03-5.8,0-.77-.31-1.39-.84-1.88-.65-.6-1.42-.99-2.35-.96-.8.02-1.56.11-2.2.65-.05.04-.11.06-.17.09-.38.14-.69.37-.9.72-.07.11-.15.16-.28.14-.64-.07-1.17.2-1.68.56-.43.3-.71.72-.98,1.14-.16.24-.29.51-.36.78-.08.3-.11.62-.11.94,0,1.64,0,3.29,0,4.93,0,.11-.02.22-.03.38h-2.68v5.72h2.71c0,.23,0,.41,0,.6,0,1.71,0,3.41,0,5.12,0,.44,0,.89.03,1.33.03.49.26.85.75,1.04.3.12.63.22.88.43.34.28.7.38,1.12.34.08,0,.15,0,.23,0,.18,0,.28.06.32.25.12.59.47.96,1.04,1.15.12.04.24.08.35.13.06.03.15.09.16.14.02.23.05.48,0,.7-.05.22-.17.42-.28.62-.56,1.03-1.12,2.07-1.68,3.1-.08.14-.13.29-.21.46.12.02.19.05.26.05.59,0,1.19,0,1.78,0,3.36,0,6.73,0,10.09,0,.91,0,1.82,0,2.73,0,.35,0,.39.04.39.39,0,.2-.02.4-.03.61-.04,1.39.05,2.76.7,4.03.35.69.85,1.28,1.55,1.62,1.1.52,2.24.55,3.37.04.44-.2.77-.52,1.04-.91.51-.73.75-1.56.87-2.44.14-.99.08-1.97,0-2.95,0-.11,0-.22,0-.37.24,0,.43,0,.63,0,3.73,0,7.46.02,11.19.03,1.57,0,3.13,0,4.7,0,.12,0,.24-.03.41-.05-.89-1.45-1.66-2.89-2.46-4.34Zm5.01-15.87c.49,0,.98,0,1.47,0,.06,0,.14,0,.18.03.07.06.14.14.15.22.02.12-.08.18-.19.18-.28,0-.55,0-.83,0v-.02c-.26,0-.53,0-.79,0-.15,0-.24-.07-.25-.22,0-.17.12-.2.26-.2Zm-.27,1.3c0-.27.04-.32.3-.32.52-.01,1.03,0,1.55,0,.16,0,.24.08.24.22,0,.87-.02,1.74-.03,2.61,0,.02-.02.05-.05.11h-1.99c-.01-.13-.03-.24-.03-.35,0-.76,0-1.52,0-2.27Zm-.9,5.43c0-1.2,0-2.4-.01-3.6-.01-1.88-.03-3.76-.04-5.64,0-1.29,0-2.58,0-3.86,0-.21-.01-.43-.01-.64,0-.13.02-.26.03-.49.09.13.14.17.15.22.18.49.3.97.3,1.51-.03,1.82,0,3.64,0,5.46,0,1.35-.01,2.7-.01,4.06,0,2.34,0,4.67,0,7.01,0,.5-.03.99-.35,1.41-.04.06-.1.11-.14.16l-.08-.04c.05-.27.1-.54.15-.81.02-.12.05-.25.05-.37,0-1.45-.02-2.9-.03-4.36Zm-2.42,5.35c0-1.68,0-3.36.01-5.04,0-2.3.01-4.6.01-6.9,0-2.54-.02-5.08-.02-7.62,0-.35.04-.7.09-1.05.03-.25.13-.32.38-.32.28,0,.52.1.71.3.2.21.41.42.57.66.09.13.13.33.14.49,0,1.49-.01,2.98,0,4.48,0,1.74.03,3.49.03,5.23,0,1.38,0,2.76,0,4.13,0,1.12.03,2.25.04,3.37,0,.35-.01.71,0,1.06.02.49-.1.95-.26,1.41-.16.45-.46.64-.95.64-.19,0-.38,0-.57,0-.04,0-.07-.02-.19-.05,0-.27,0-.53,0-.79Zm-1.08-21.66c.21-.02.21.12.26.21.09.17.18.33.25.5.05.12.08.26.08.39-.02.58-.07,1.16-.07,1.74,0,1.95,0,3.89,0,5.84,0,3.92,0,7.83,0,11.75,0,.71.03,1.41.03,2.12,0,.26-.04.53-.08.79-.03.22-.17.36-.37.42-.16-.09-.11-.23-.11-.35,0-1.33.02-2.65.03-3.98,0-1.69,0-3.38,0-5.08-.01-2.34-.04-4.67-.05-7.01,0-2.02,0-4.04,0-6.07,0-.33,0-.66,0-.99,0-.11.02-.21.04-.31Zm-40.01,11.95s0,0,0,0c0,.38,0,.76,0,1.14,0,.29-.03.31-.3.31-.47,0-.93,0-1.4,0-.29,0-.35-.06-.35-.36,0-.72,0-1.44,0-2.16,0-.35.02-.38.36-.38.48,0,.96,0,1.44,0,.19,0,.27.07.27.27-.01.39,0,.78,0,1.18Zm-.24-2.06c-.25,0-.5,0-.76,0h0c-.26,0-.53,0-.79,0-.07,0-.15-.02-.21-.07-.04-.03-.07-.13-.04-.16.04-.06.12-.13.19-.13.34-.02.68-.01,1.02-.01.2,0,.4.01.6.01.13,0,.23.02.24.17,0,.17-.12.2-.26.2Zm.98,11.81c-.2-.57-.28-1.15-.27-1.75.02-1,0-1.99,0-2.99,0-1.33.03-2.65.03-3.98,0-1.41-.01-2.83-.01-4.24,0-.95.01-1.9.02-2.84,0-.87-.02-1.74.02-2.61.01-.34.15-.68.24-1.02,0-.03.05-.04.12-.09.02.12.04.21.04.31-.01,1.38-.04,2.75-.05,4.13-.02,1.87-.03,3.74-.05,5.61-.03,2.21-.06,4.42-.09,6.63,0,.61.01,1.21,0,1.82,0,.42.08.8.3,1.16.05.08.07.18.11.27-.24-.05-.33-.21-.4-.39Zm2.58.66c-.46.04-.87.08-1.29-.03-.08-.02-.16-.09-.21-.15-.31-.42-.59-.85-.59-1.4,0-.81.01-1.62.02-2.43.01-1.97.02-3.94.03-5.91.01-1.91.02-3.82.03-5.72.01-1.57.03-3.13.04-4.7,0-.55.5-1.17,1.04-1.28.09-.02.2,0,.3.02.21.05.41.11.63.16v21.45Zm.62.53c-.06-.34-.06-.7-.06-1.06,0-1.34,0-2.68,0-4.02,0-1.29.02-2.58.02-3.87,0-1.61-.02-3.21-.02-4.82,0-1.18.03-2.35.03-3.53,0-1.3,0-2.6,0-3.9,0-.46.09-.91.25-1.33.07-.18.2-.34.34-.58.02,8.04.04,15.99.06,23.99-.48-.17-.56-.54-.62-.89Zm31.35-.9c.34.62.66,1.25.99,1.87.05.09.06.19.08.29.03.23-.03.37-.25.45-.22.07-.47.13-.7.13-1.3.02-2.6.02-3.9.03-.36,0-.73.07-1.09.06-.41,0-.83-.05-1.24-.1-.12-.02-.22-.12-.32-.22.36-.14.72-.04,1.08-.07.38-.02.76-.03,1.13-.05.37-.02.73-.05,1.09-.08.36-.03.73-.07,1.09-.11.38-.04.75-.06,1.13-.11.36-.04.72-.11,1.15-.18-.05-.16-.08-.3-.14-.42-.18-.4-.38-.8-.56-1.2-.06-.14-.1-.28-.14-.42.33-.17.44-.16.6.12Zm-24.19-3.91c.21-.47.42-.95.63-1.42.12-.26.13-.26.4-.21,1.46.23,2.91.32,4.36-.05.72-.18,1.43-.41,2.14-.6.34-.09.69-.16,1.04-.2.48-.04.95-.11,1.43-.02.33.07.36.07.36.4,0,1.82,0,3.64,0,5.46,0,.43,0,.86,0,1.29,0,.06-.01.12-.03.2-.42-.05-.83-.09-1.24-.15-.92-.15-1.81,0-2.69.28-.42.13-.8.37-1.22.5-.41.13-.83.24-1.25.27-.73.04-1.46.03-2.19.01-1.32-.03-2.62-.19-3.92-.37-.02,0-.05-.02-.14-.06.2-.47.38-.92.58-1.37.57-1.32,1.15-2.64,1.73-3.96Zm-1.54-3.39c0-.34.01-.36.36-.36,2.1,0,4.19,0,6.28.01.47,0,.93,0,1.43,0v.88c-.35.11-.7.25-1.07.31-.52.1-1.05.15-1.57.2-.68.07-1.36.02-2.04-.03-.43-.03-.86-.08-1.23-.32-.14-.09-.26-.05-.38.05-.47.39-.94.77-1.4,1.15-.09.08-.19.15-.35.28-.02-.19-.04-.31-.04-.43,0-.58,0-1.16,0-1.74Zm9,.55v-2.24h1.42c.02.08.06.14.06.19,0,.53,0,1.06,0,1.59,0,.15-.04.27-.22.3-.32.05-.64.11-.97.16-.08.01-.17,0-.29,0Zm7.43.89c1.37.4,2.75.64,4.18.52.43-.03.85-.1,1.28-.15.33-.04.34-.05.47.23.23.51.45,1.01.67,1.52.38.87.75,1.74,1.12,2.61.34.79.68,1.58,1.02,2.36.02.06.04.12.08.24-.17.04-.3.08-.44.09-.82.08-1.63.17-2.45.23-.79.06-1.59.1-2.38.11-.7.01-1.39-.06-2.06-.27-.14-.05-.29-.1-.42-.18-.68-.38-1.43-.52-2.19-.66-.83-.16-1.63,0-2.44.11-.09.01-.17.02-.29.04,0-.13-.02-.24-.02-.35,0-2.19,0-4.37,0-6.56,0-.39.03-.41.43-.46.58-.08,1.16-.03,1.73.1.58.13,1.15.29,1.72.45Zm-.95-1.41c0-.29.04-.36.34-.36,1.3,0,2.6.01,3.9.02,1.69,0,3.38.01,5.08.02.34,0,.38.03.38.35,0,.61,0,1.21,0,1.82,0,.07-.02.14-.04.23-.06,0-.12,0-.16-.01-.62-.3-1.25-.6-1.87-.9-.06-.03-.13-.05-.16-.1-.18-.27-.43-.24-.7-.21-.74.09-1.48.22-2.22.24-.69.01-1.39-.04-2.07-.17-.73-.13-1.44-.38-2.15-.58-.16-.05-.34-.09-.34-.34Zm2.46,9.76s-.02.05-.03.08c-.52-.12-1.06-.22-1.57-.37-.82-.25-1.62-.3-2.44.03-.39.16-.81.27-1.22.39-.25.07-.31.03-.34-.24,0-.05,0-.1-.01-.15-.04-.42-.01-.43.39-.59.72-.28,1.46-.42,2.22-.28.44.08.88.22,1.3.37.45.16.89.35,1.33.54.13.06.25.15.38.22Zm-3.88-9.42c-.57-.1-1.13-.02-1.68.15-.08.03-.17.03-.26.01-.27-.05-.54-.12-.81-.17-.3-.06-.34-.1-.34-.4,0-.53,0-1.06,0-1.64.57-.01,1.07-.03,1.57-.03.57,0,1.14.02,1.71.02.35,0,.37.02.37.36,0,.55,0,1.11,0,1.7-.22,0-.39.02-.56,0Zm-2.2,9.62c-.48-.15-.95-.27-1.38-.46-.88-.39-1.74-.29-2.62-.02-.32.1-.66.16-.99.23-.08.02-.16-.01-.25-.09.23-.1.47-.21.7-.31.51-.2,1.02-.42,1.55-.59.85-.27,1.69-.2,2.52.11.04.01.07.03.11.04.58.22.67.45.37,1.09Zm-3.92.14c.65-.15,1.31-.27,1.99-.2.71.07,1.31.35,1.82.84.25.24.24.3.07.59-.15.25-.3.49-.46.74-.12.2-.16.21-.39.08-.52-.29-1.05-.56-1.62-.72-.79-.22-1.58-.24-2.35.03-.75.27-1.53.33-2.3.4-1.32.12-2.64.24-3.97.18-.72-.03-1.44-.07-2.15-.16-.5-.06-.99-.2-1.48-.31-.12-.03-.22-.11-.4-.21.24-.37.45-.7.66-1.02.08-.13.19-.13.33-.1.81.14,1.61.28,2.43.39,1.31.17,2.63.11,3.93,0,1.31-.11,2.61-.25,3.9-.54Zm4.26,1.3c.57.86,1.01,1.69,1.48,2.55-.35.15-.66.05-.96.06-.33.02-.65,0-.98,0-.31,0-.62-.01-1.02-.02.51-.9.98-1.71,1.49-2.59Zm1.01.89c-.23-.37-.46-.7-.66-1.04-.13-.22-.08-.38.17-.59.35-.29.75-.5,1.19-.63.87-.26,1.73-.06,2.58.08.85.14,1.69.29,2.54.41.82.11,1.65.22,2.48.26.75.04,1.51,0,2.27-.05.78-.05,1.56-.16,2.33-.25.21-.03.42-.09.63-.13.29-.07.34-.05.5.2.14.22.28.45.42.67.11.18.09.27-.1.35-.15.07-.31.12-.47.15-1.2.25-2.42.39-3.65.37-.66-.01-1.31,0-1.97-.04-1.03-.08-2.06-.17-3.09-.3-.42-.05-.82-.23-1.24-.34-.79-.21-1.58-.16-2.34.12-.47.18-.91.43-1.36.65-.07.03-.13.06-.25.12Zm9.08-17.45c1,0,2,0,2.99.01.11,0,.24-.03.27.13.03.14-.06.27-.23.29-.15.02-.3,0-.45,0-.96,0-1.92,0-2.88,0-.06,0-.13,0-.19,0-.23-.03-.25-.05-.25-.39.25,0,.5-.03.75-.03Zm-.76,1.41c.03-.13.06-.27.09-.42.16,0,.3-.02.44-.02,1.04,0,2.07,0,3.11,0,.38,0,.38.02.38.38,0,.71,0,1.42,0,2.12,0,.14,0,.27,0,.43-.18.02-.31.04-.45.04-2.88,0-5.76-.01-8.64-.02-.32,0-.63,0-.95-.01-.11,0-.25-.07-.31-.16-.12-.2.02-.39.26-.39.82,0,1.64,0,2.46,0,.43,0,.86-.01,1.29-.04.64-.04,1.19-.31,1.68-.7.39-.31.54-.75.64-1.21Zm-1.43-15.94s0-.09,0-.18c.3.2.46.47.63.73.37.6.73,1.21,1.06,1.83.55,1.05.49,2.13.11,3.23-.57,1.68-1.59,3.09-2.71,4.43-.34.41-.7.79-1.04,1.2-.17.21-.36.28-.62.28-.88-.01-1.77-.01-2.65-.02-.15,0-.3-.02-.48-.03-.2-.99-.33-1.97.14-2.9.1-.21.27-.39.45-.55.49-.44,1.01-.84,1.5-1.28.4-.36.8-.74,1.16-1.14.59-.66,1.16-1.33,1.62-2.09.66-1.09.93-2.25.83-3.51Zm-1.37-1.14c-.03-.17-.04-.35-.06-.6.55.34.73.81.84,1.33.33,1.51-.14,2.85-.96,4.08-.73,1.09-1.63,2.05-2.64,2.9-.43.36-.85.72-1.27,1.07-.54.45-.76,1.07-.85,1.72-.08.57-.08,1.16.04,1.73.02.11.02.22.03.34-.07.03-.11.06-.16.07-.41.04-.5,0-.56-.41-.07-.51-.15-1.03-.06-1.55.08-.46.2-.91.31-1.36.03-.11.1-.21.17-.29.51-.62,1-1.26,1.55-1.86.42-.46.88-.91,1.37-1.29,1.06-.81,1.74-1.83,2.09-3.11.25-.92.31-1.84.17-2.77Zm-1.99-2.49c.1.09.21.17.31.26.12.11.22.25.36.34.59.37.72.99.8,1.6.09.68.16,1.36.04,2.04-.2,1.24-.59,2.38-1.55,3.25-.3.27-.6.53-.9.8-.77.69-1.51,1.41-2.12,2.25-.04.05-.07.1-.12.15-.99,1.07-1.08,2.37-.96,3.73,0,.11.03.23.05.34.03.14.09.28-.09.36-.14.06-.4.02-.49-.09-.04-.05-.08-.1-.11-.16-.41-.86-.75-1.74-.79-2.71-.04-1.15.32-2.15,1.05-3.04.49-.59,1.07-1.07,1.66-1.54.86-.68,1.68-1.42,2.36-2.29.41-.52.67-1.12.8-1.78.22-1.11.03-2.16-.31-3.21-.03-.09-.04-.18-.06-.27.02-.01.04-.02.06-.04Zm-1.13-.94c.1.11.17.16.19.22.36.91.71,1.82.81,2.79.09.88-.09,1.71-.52,2.48-.31.56-.74,1.02-1.2,1.46-.46.45-.96.85-1.47,1.25-.74.59-1.45,1.23-1.97,2.03-.51.77-.76,1.64-.79,2.57-.02.67.14,1.3.33,1.93.1.31.24.61.36.92.04.11.14.22-.04.4-.13-.19-.25-.35-.35-.52-.35-.57-.69-1.15-.9-1.79-.18-.58-.34-1.16-.31-1.78.02-.44.15-.84.34-1.23.41-.84,1.02-1.54,1.67-2.18.62-.61,1.29-1.17,1.92-1.77.66-.62,1.19-1.32,1.52-2.19.25-.68.48-1.36.51-2.09.03-.74.07-1.49-.12-2.22-.02-.07,0-.15,0-.31Zm-11.89,10.6s-.08,0-.13,0c-.06-.41-.16-.81-.18-1.22-.02-.51.02-1.03.22-1.52.23-.56.57-1.04,1-1.46.82-.81,1.74-1.49,2.66-2.19.76-.58,1.49-1.21,2.09-1.97.88-1.11,1.22-2.42,1.38-3.79.03-.28.05-.57.14-.87.05.11.11.21.15.32.38,1.13.55,2.28.29,3.46-.18.83-.62,1.52-1.25,2.07-.44.39-.93.73-1.38,1.11-.97.82-1.96,1.62-2.88,2.5-.88.84-1.57,1.84-1.96,3.01-.06.18-.1.36-.15.53Zm1.7,3.34c-.56-.61-.98-1.3-1.11-2.15-.09-.56-.03-1.08.14-1.6.24-.74.66-1.38,1.15-1.99.66-.8,1.42-1.5,2.22-2.15.71-.58,1.45-1.13,2.16-1.71.6-.49,1.14-1.02,1.51-1.72.44-.83.6-1.71.56-2.64-.04-1.01-.34-1.96-.72-2.89-.05-.11-.1-.22-.14-.33.03-.02.05-.05.08-.07.11.05.23.09.33.16.95.66,1.91,1.31,2.77,2.1.42.38.61.91.72,1.43.34,1.61.14,3.17-.62,4.63-.38.73-.96,1.29-1.58,1.82-.93.79-1.82,1.64-2.57,2.6-.7.9-1.21,1.92-1.06,3.11.07.53.22,1.06.41,1.57.22.61.5,1.21.91,1.73.03.04.03.11.06.21-.12.01-.22.03-.31.03-.72,0-1.44-.04-2.16,0-.49.02-.85-.17-1.17-.5-.53-.54-1.07-1.07-1.58-1.63Zm.53,3.48c.13-.24.3-.47.49-.67.08-.09.24-.13.37-.13.64-.01,1.29,0,1.93,0,2.49,0,4.98,0,7.47,0,.68,0,1.36,0,2.05.01.53.01,1.06.04,1.56.26.64.27,1,.76,1.1,1.43.07.52.13,1.06.11,1.58-.04.96-.36,1.4-1.14,1.74-.52.22-1.06.23-1.6.24-1.79.03-3.59.01-5.38.01v-.03h-5.08c-.06,0-.13,0-.19,0-.81.09-1.34-.35-1.73-.98-.2-.32-.29-.69-.34-1.07-.12-.84,0-1.64.39-2.39Zm-2.03-.12c.15-.2.4-.35.63-.46.37-.18.76-.33,1.25-.18-.99,1.76-1.15,3.47.17,5.14-.06.03-.12.08-.17.08-.68-.02-1.34-.18-1.84-.65-.34-.32-.53-.76-.61-1.23-.17-.98-.01-1.89.58-2.69Zm-1.1,3.02c.26,1.35,1.62,2.16,2.85,2.12.77-.02,1.54,0,2.31,0h.37c.04.1.07.17.08.24.04.24-.04.34-.27.34-.73,0-1.46,0-2.2-.01-1.62-.01-3.23-.02-4.85-.03-.38,0-.76,0-1.14,0-.26,0-.29-.03-.29-.28,0-.77,0-1.54,0-2.31,0-.31.03-.34.35-.34.81,0,1.62.01,2.43,0,.2,0,.3.07.34.26Zm-2.85-1.27c.74,0,1.48.01,2.23.02.16,0,.32,0,.47,0,.04.35.02.39-.22.39-.83,0-1.66,0-2.49,0-.13,0-.26-.02-.27-.19,0-.2.13-.22.28-.22Zm-.61,12.3c-.05.14-.09.28-.15.42-.19.44-.39.88-.58,1.32-.11.26-.08.33.21.37.26.04.53.04.79.09,1.19.19,2.4.28,3.6.34.6.03,1.21.03,1.81.05.04,0,.07.02.11.04.03.21-.12.27-.27.29-.3.04-.6.1-.9.09-1.8-.1-3.61-.11-5.41-.13-.88-.01-1.07-.34-.67-1.12.26-.51.53-1,.79-1.51.17-.33.26-.36.66-.23Zm-3.4-22.09c.7-.47,1.45-.58,2.23-.26.6.24.84.78.93,1.38.03.21.02.43.02.64,0,1.3,0,2.6,0,3.91,0,2.14,0,4.27,0,6.41,0,1.98-.02,3.97-.02,5.95,0,.29,0,.58.01.87.02.3-.08.57-.21.83-.38.74-.77,1.48-1.15,2.21-.56,1.06-1.11,2.12-1.67,3.18-.04.07-.1.13-.2.24-.18-.43-.27-.83-.29-1.25-.01-.19,0-.38,0-.57-.01-3.18-.02-6.37-.04-9.55,0-2.07-.02-4.14-.03-6.22-.01-2.31-.01-4.62-.03-6.94,0-.38.16-.65.46-.85Zm9.6,29.17c.07-.07.11-.15.18-.18.62-.27,1.27-.39,1.95-.3.22.03.43.12.51.41-.38.14-2.15.19-2.64.07Zm1.24-.98c-.36.05-.73.1-1.07.21-.86.28-1.74.37-2.64.43-.34.02-.68.08-1.02.09-1.25.04-2.49.14-3.74-.03-.56-.07-1.13-.14-1.68-.23-.38-.06-.77-.12-1.16-.37.24-.37.46-.71.66-1.06.09-.16.22-.15.36-.11,1.1.33,2.23.41,3.36.46.48.02.96.06,1.44.04.74-.03,1.48-.1,2.22-.17.54-.05,1.08-.1,1.62-.18.8-.12,1.59-.26,2.38-.41,1.04-.19,2.01-.08,2.87.58.07.05.13.12.19.18.26.26.26.29.11.62-.07.16-.14.33-.21.48-.14.29-.23.33-.53.24-.38-.12-.76-.25-1.14-.4-.65-.26-1.31-.46-2.02-.37Zm3.46,7.37c-.55-.5-.83-1.16-1.04-1.86-.3-.98-.3-1.99-.25-3,.01-.25.01-.5.02-.76,0-.41.06-.46.46-.46.36,0,.73,0,1.14,0-.02.35-.04.64-.06.94-.07,1.31-.05,2.62.24,3.91.12.54.28,1.07.6,1.54.03.05.06.1.14.24-.55-.03-.91-.26-1.24-.56Zm4.44-2.34c-.09.51-.19,1.02-.37,1.51-.21.6-.61,1.07-1.23,1.3-.4.15-.85.03-1.13-.3-.39-.44-.56-.99-.66-1.55-.2-1.12-.31-2.25-.21-3.39.03-.33.03-.66.05-.98,0-.09.02-.17.04-.28h3.46c.02.25.05.46.05.67.03,1.01.19,2.02,0,3.03Zm4.18-4.06c-.86-.05-1.72.13-2.59.02-.03-.2.07-.3.2-.34.21-.07.44-.16.65-.14.48.03.95.12,1.42.2.12.02.22.1.33.15,0,.04-.02.07-.02.11Zm9.78-.65c-.61.15-1.23.3-1.85.37-.85.1-1.71.11-2.56.17-.95-.06-1.88-.12-2.81-.19-.47-.03-.93-.07-1.39-.14-.42-.07-.84-.16-1.25-.29-.69-.22-1.38-.33-2.09-.18-.52.11-1.01.3-1.52.46-.26.08-.52.19-.79.27-.25.07-.3.04-.42-.22-.1-.19-.19-.38-.29-.57-.08-.15-.06-.28.04-.42.31-.4.73-.65,1.2-.81.66-.23,1.34-.2,2.02-.07,1.16.23,2.33.43,3.51.56.92.1,1.83.24,2.75.24,1.16,0,2.32-.04,3.47-.23.45-.07.9-.1,1.33-.25.15-.05.24.01.31.14.16.26.33.51.49.76.14.23.11.35-.16.41Zm.97-3.34c-.06.12-.22.19-.35.3-.09-.12-.15-.19-.2-.28-.71-1.25-1.44-2.49-2.11-3.77-.33-.62-.55-1.3-.79-1.96-.08-.21-.07-.45-.07-.67,0-2.4,0-4.8,0-7.21,0-3.4,0-6.8,0-10.2,0-.57.32-1.01.77-1.32.64-.43,1.37-.57,2.14-.47.44.05.68.28.77.71.03.15.04.3.04.45,0,5.6,0,11.2-.01,16.8,0,1.56,0,3.11,0,4.67,0,.67.03,1.34.05,2.01.01.34-.09.65-.24.94Zm-23.5-5.45c.6-.14,1.17-.38,1.81-.39.77-.02,1.53-.16,2.3.02.06.01.13.01.19.01.23,0,.32-.06.32-.26,0-.21-.13-.24-.3-.25-.63-.02-1.26-.07-1.89-.04-.77.04-1.53.12-2.28.35-1.06.32-2.14.33-3.21.05-.34-.09-.39-.04-.39.4.24.05.46.1.68.15.93.2,1.85.15,2.77-.06Zm7.69-2.13c.13,0,.23.01.33,0,.56-.1,1.13-.13,1.69-.07.53.05,1.05.07,1.57.22.46.14.92.26,1.39.33.84.13,1.68.13,2.53.01.4-.06.46-.2.22-.56-.08.01-.16.02-.25.04-.93.2-1.85.17-2.77-.05-.61-.15-1.23-.29-1.85-.39-.45-.07-.9-.1-1.35-.11-.51,0-1.02.04-1.56.13.02.17.03.3.05.46Zm7.57.84c-.61.17-1.23.11-1.85.12-.47,0-.92-.12-1.37-.24-.6-.16-1.2-.3-1.81-.36-.64-.06-1.29-.02-1.93-.02-.15,0-.3.02-.45.04-.16.02-.2.13-.19.28.01.16.1.21.26.21.72-.01,1.44-.02,2.16-.04.48-.02.92.1,1.38.22.5.13,1,.31,1.51.36.68.06,1.36.02,2.04.02.14,0,.28-.03.41-.07.15-.04.21-.14.15-.29-.03-.07-.06-.13-.11-.23-.08,0-.14-.01-.18,0Zm-3.29,3.04c-.56-.16-1.13-.32-1.7-.37-.76-.06-1.54-.01-2.31,0-.25,0-.31.1-.25.33.05.18.16.2.32.17.77-.11,1.54-.07,2.3-.02.3.02.6.12.98.19-.22.12-.36.06-.5.05-.33-.03-.65-.05-.98-.07-.19-.01-.38-.01-.57-.01-.39,0-.78,0-1.17,0-.1,0-.2.04-.29.07-.14.04-.22.12-.18.28.04.17.14.23.31.2.84-.17,1.69-.07,2.53-.04.26.01.53.07.78.15,1.41.44,2.85.54,4.31.3.44-.07.87-.12,1.31-.2.17-.03.32-.1.48-.15-.07-.48-.08-.47-.47-.38-1.09.25-2.19.36-3.31.35-.06,0-.13-.05-.19-.07,0-.02,0-.04,0-.06.27-.04.54-.1.81-.1.59,0,1.15-.14,1.72-.25.21-.04.42-.07.63-.13.22-.06.27-.21.17-.4-.08-.15-.19-.13-.32-.09-.81.21-1.61.41-2.45.45-.66.03-1.31,0-1.95-.19Zm0,.55l-.33-.02s0-.07,0-.11c.11.01.22.03.34.04,0,.03,0,.06,0,.09Zm.4.12s-.02-.02-.02-.02c0-.02.02-.03.03-.04.01.01.03.03.04.04-.02,0-.03.02-.05.02Zm.46.01h-.1s0-.03,0-.03c.03,0,.06,0,.09,0,0,0,0,.01,0,.02Zm2.73-2.18c-.26.05-.51.13-.77.18-.95.2-1.88.12-2.81-.12-.34-.09-.68-.19-1.03-.25-.96-.18-1.94-.15-2.91-.11-.09,0-.18.02-.26.04-.19.04-.19.18-.16.32.02.14.11.19.24.16.78-.15,1.56-.1,2.34-.05.33.02.66.1.99.16,0,.03,0,.07-.01.1-.56-.02-1.13-.05-1.69-.06-.49,0-.98,0-1.47,0-.23,0-.29.1-.27.31.03.2.08.24.31.22.45-.03.9-.07,1.36-.09.2,0,.4.04.6.05.25.01.51,0,.75.03.41.06.82.15,1.23.22.8.15,1.6.27,2.41.17.55-.07,1.1-.14,1.65-.23.24-.04.32-.16.28-.32-.05-.2-.16-.25-.41-.19-.12.03-.24.04-.36.06.03-.09.08-.1.12-.12.26-.07.32-.14.29-.31-.03-.19-.14-.25-.4-.19Zm-.95.7c.24-.03.43-.05.67-.08-.21.2-.37.22-.67.08Zm-.45-1.22c-.64.03-1.28-.06-1.9-.24-.37-.11-.75-.22-1.14-.27-1.06-.15-2.13-.19-3.21-.08-.08,0-.16.04-.26.07,0,.13.02.24.03.4.19,0,.34,0,.49,0,.54-.04,1.08-.12,1.62-.05.57.07,1.17,0,1.72.22.68.26,1.39.33,2.11.42.62.08,1.23-.07,1.84-.18.09-.02.18-.08.3-.13-.04-.14-.08-.27-.12-.42-.17.03-.3.05-.43.08-.35.06-.69.17-1.04.18Zm15,21.56s-.07.13-.06.19c.02.1.08.18.12.28.23.55.24,1.08-.17,1.56-.2.24-.32.25-.5,0-.01-.02-.02-.04-.04-.06-.55-.76-1.09-1.51-1.64-2.27-.39-.54-.78-1.09-1.16-1.64-.23-.34-.21-.56.06-.87.03-.03.07-.05.08-.08.01-.09.03-.19,0-.27-.01-.03-.15-.04-.23-.01-.08.02-.15.09-.22.14-.48.34-.97.68-1.45,1.02-.19.13-.37.26-.56.39-.1.07-.11.18-.02.26.05.05.15.05.23.06.03,0,.06-.04.09-.06.34-.17.55-.12.79.17.09.11.17.22.25.33.26.38.52.78.79,1.16.6.84,1.22,1.67,1.82,2.51.23.32.19.44-.18.58-.63.23-1.13-.01-1.57-.45-.07-.07-.13-.16-.21-.21-.05-.03-.16-.02-.2.01-.04.04-.07.14-.05.2.02.08.09.15.14.22.28.39.55.78.83,1.18.1.15.22.21.38.09.05-.04.11-.07.16-.1,1.07-.74,2.13-1.48,3.2-2.22.22-.16.45-.31.72-.49-.4-.55-.77-1.07-1.15-1.58-.03-.04-.16-.05-.23-.02Zm-19.85,3.01c-.16,0-.29,0-.43,0-.74.01-1.49.03-2.23.04-.68.01-1.36.03-2.04.05-.27,0-.3.04-.3.32,0,.35,0,.71,0,1.06,0,.13,0,.25,0,.38,0,.12-.03.28.15.29.17.01.18-.14.21-.26.05-.17.09-.34.15-.51.14-.43.46-.69.86-.85.13-.05.28-.04.44-.05.02.12.03.19.03.27.01.77.02,1.54.04,2.31.01.71.03,1.41.04,2.12,0,.21-.03.43-.03.64-.01.31-.19.48-.47.57-.12.04-.33-.02-.3.19.03.17.22.12.35.14.05,0,.1,0,.15,0,.49,0,.98.01,1.48,0,.28,0,.55-.02.83-.03.13,0,.24-.05.22-.19-.01-.07-.13-.11-.21-.16-.03-.02-.07-.01-.11-.01-.22,0-.35-.14-.41-.33-.04-.13-.07-.27-.08-.41-.02-.77-.03-1.54-.05-2.31-.01-.69-.02-1.39-.03-2.08,0-.22,0-.45,0-.7.31-.07.53-.02.75.11.48.27.66.71.73,1.21.02.14.06.26.22.25.17,0,.18-.15.18-.28-.02-.52-.04-1.03-.06-1.55,0-.07-.03-.14-.06-.23Zm-8.08-.35c-.88-.16-1.77-.3-2.65-.45-.18-.03-.37-.02-.56-.03.03.25.02.26.14.3.32.13.43.37.4.69,0,.09-.02.18-.03.26-.21,1.39-.43,2.77-.65,4.16-.02.12-.05.25-.09.37-.07.24-.22.39-.48.42-.06,0-.13,0-.19.02-.06.03-.12.09-.13.15,0,.03.06.1.1.13.04.03.1.03.15.03.76.14,1.51.28,2.27.41.1.02.21-.01.31-.02.05-.2-.05-.28-.17-.33-.4-.17-.47-.48-.4-.87.09-.53.17-1.07.25-1.61.01-.07.05-.13.09-.2.21.04.23.21.28.34.32.85.64,1.7.95,2.56.06.15.08.32.29.35.45.07.89.16,1.34.24.06,0,.12-.01.23-.02-.04-.12-.05-.23-.1-.32-.11-.2-.26-.38-.34-.58-.29-.7-.57-1.41-.84-2.11-.05-.12-.07-.26-.11-.4.16-.06.29-.11.42-.16.6-.26.95-.73,1.03-1.35.13-1.02-.54-1.8-1.51-1.99Zm-.32,2.7c-.31.44-.74.46-1.28.25.04-.26.07-.5.11-.75.08-.51.16-1.02.26-1.52.07-.37.18-.42.56-.37.33.04.58.22.67.53.18.66.07,1.3-.32,1.87Zm42.04-23.44c-.26-.18-.53-.35-.78-.54-.61-.45-1.2-.92-1.81-1.37-.65-.48-1.31-.95-1.95-1.44-.27-.21-.53-.43-.58-.81,0-.07-.1-.16-.17-.17-.12-.03-.16.08-.19.18-.08.3-.17.61-.26.91-.04.14-.11.29-.13.43-.01.08.06.17.1.26.08-.04.17-.07.24-.12.04-.02.04-.09.07-.13.14-.23.3-.29.54-.16.24.13.47.3.7.45.14.09.16.21.12.36-.06.22-.12.44-.18.66-.25.9-.28.92-1.21.88-.41-.02-.52-.13-.47-.53.02-.2-.02-.32-.3-.34-.05.15-.1.29-.15.44-.19.63-.39,1.25-.58,1.88-.01.05-.05.1-.04.14.02.09.03.22.1.26.06.03.22,0,.25-.06.11-.17.28-.22.45-.25.35-.05.7-.08,1.05-.1,1.4-.07,2.8-.14,4.2-.21.35-.02.71-.04,1.06-.08.22-.03.28-.21.14-.38-.06-.06-.14-.11-.21-.16Zm-3.97-.64c.04-.49.19-.89.36-1.29.31.06,1.41.84,1.59,1.15-.65.08-1.28.1-1.95.13Zm5.38-6.77c-.15-.03-.19.09-.22.2-.08.3-.29.43-.59.43-.23,0-.46-.01-.68-.04-.69-.08-1.38-.17-2.07-.27-.65-.09-1.3-.16-1.95-.27-.44-.07-.52-.18-.59-.62-.02-.12-.02-.23-.17-.24-.15,0-.19.1-.2.22-.09.82-.19,1.63-.28,2.45-.01.14-.03.3.15.35.21.06.2-.14.25-.26.14-.36.24-.42.63-.41.13,0,.25.01.38.02.23.02.46.02.68.05,1.13.15,2.25.31,3.38.47.55.08.66.18.79.73,0,.02,0,.05.02.07.06.12.19.14.27.02.04-.06.07-.14.08-.21.1-.8.19-1.61.28-2.41.02-.13.03-.26-.15-.29Zm-54.32,24.31c-.63-.44-1.26-.88-1.89-1.33-.05-.04-.11-.08-.16-.09-.05-.01-.13,0-.17.03-.04.04-.05.12-.04.17.01.06.06.11.1.16.28.35.28.45.02.83-.3.44-.6.88-.9,1.31-.07.11-.18.19-.26.29-.2-.13-.13-.27-.12-.4.09-.88.17-1.76.28-2.64.04-.37,0-.65-.4-.78-.06-.02-.1-.07-.15-.11-.23-.16-.45-.33-.68-.48-.06-.04-.21-.06-.23-.03-.04.07-.05.18-.04.27.01.14.07.27.06.4-.03.72-.08,1.44-.13,2.16-.02.26-.04.52-.07.82-.2-.02-.36-.04-.52-.05-.56-.02-1.03.18-1.41.61-.55.63-.58,1.79.17,2.38.87.68,1.77,1.33,2.67,1.99.17.13.2.11.35-.14-.38-.49-.39-.62-.02-1.16.11-.16.24-.29.35-.45.69-.98,1.38-1.96,2.07-2.94.1-.14.21-.28.34-.41.14-.14.32-.2.52-.09.07.04.17.08.25.08.06,0,.15-.05.18-.1.02-.05-.01-.14-.05-.2-.02-.04-.08-.06-.12-.09Zm-3.76,2.02c-.36.52-.71,1.04-1.07,1.56-.28.4-.62.4-.89,0-.14-.2-.23-.43-.16-.68.15-.62.53-1.08,1.06-1.42.27-.17.55-.18.82,0,.13.08.25.16.39.26-.06.11-.1.2-.15.28Zm6.51,1.4c-.83-.01-1.53.64-1.57,1.55-.03.76.72,1.65,1.55,1.57.8.08,1.62-.76,1.63-1.52,0-.84-.74-1.59-1.6-1.6Zm40.47-6.73c-.6-.39-1.26-.3-1.91-.14-.32.08-.63.2-.94.28-.57.15-.95.03-1.29-.37-.51-.6-.12-1.52.64-1.62.35-.05.7-.05,1.04.12.3.16.61.3.94.47.21-.18.22-.2.09-.38-.07-.09-.15-.17-.23-.25-.3-.29-.61-.57-.91-.86-.11-.11-.19-.24-.31-.33-.07-.05-.19-.06-.27-.04-.05.02-.1.15-.08.22.07.24-.04.36-.25.43-.1.03-.19.07-.28.12-.67.36-1.15.88-1.24,1.66-.19,1.5,1.25,2.64,2.64,2.39.39-.07.78-.22,1.17-.32.37-.09.74-.24,1.14-.06.36.16.58.43.59.8,0,.38-.17.65-.51.81-.41.19-.84.17-1.25.03-.27-.09-.52-.24-.81-.37-.06.07-.12.15-.19.24.48.46.94.91,1.4,1.35.06.05.18.11.22.08.07-.05.14-.17.13-.24-.07-.31.12-.4.34-.5.2-.09.4-.18.56-.3.52-.39.8-.92.72-1.57-.09-.74-.54-1.27-1.14-1.66Zm4.25-2.2c-.13.09-.26.17-.39.25-.17-.07-.3-.11-.41-.19-.57-.41-1.15-.82-1.7-1.26-.69-.53-1.36-1.08-2.03-1.64-.3-.25-.31-.34-.16-.69.07-.15.14-.29-.04-.4-.2-.12-.26.09-.34.2-.46.6-.91,1.21-1.36,1.82-.05.07-.11.14-.13.23-.01.08,0,.19.05.23.05.04.16.01.24-.01.05-.02.09-.09.14-.13.25-.21.4-.23.68-.02,1.01.76,2.01,1.52,3.01,2.29.25.19.5.38.74.59.28.24.32.46.17.8-.01.03-.05.07-.04.1.01.08.02.19.07.22.05.03.16,0,.23-.04.05-.02.09-.09.12-.14.37-.5.73-.99,1.1-1.49.12-.16.24-.33.35-.49.07-.11.07-.22-.03-.3-.11-.08-.18,0-.26.06Zm3.45-6.11c-.22.27-.36.3-.69.18-.08-.03-.17-.06-.24-.1-1.14-.62-2.28-1.24-3.42-1.87-.19-.1-.38-.21-.55-.33-.3-.22-.36-.38-.26-.7.05-.14.05-.26-.1-.31-.16-.06-.21.07-.27.19-.21.43-.43.86-.65,1.28-.44.85-.87,1.71-1.32,2.56-.09.18-.06.3.1.42.48.36.96.74,1.44,1.1.05.03.11.04.16.06.15-.1.14-.22.07-.34-.04-.08-.11-.14-.16-.21-.26-.34-.52-.68-.6-1.12-.09-.48,0-.92.25-1.35.22-.39.36-.44.76-.25.05.02.09.05.13.08.7.38,1.39.76,2.09,1.14.56.31,1.13.62,1.69.93.39.21.62.48.4.95-.01.02-.01.05-.01.07,0,.13.12.21.23.15.06-.03.12-.1.15-.16.38-.71.76-1.42,1.14-2.14.08-.15.06-.28-.08-.36-.14-.08-.19.05-.26.14Zm-26.63,18.12c-.24-.14-.5-.25-.75-.35-.36-.14-.74-.25-1.1-.41-.2-.09-.4-.23-.54-.39-.41-.49-.19-1.17.4-1.38.33-.12.63-.02.89.16.4.27.76.59.94,1.06.06.17.16.25.37.17,0-.08.02-.17,0-.25-.11-.56-.22-1.12-.34-1.67-.02-.08-.08-.19-.15-.22-.14-.05-.19.07-.24.18-.08.21-.22.24-.42.2-.28-.05-.57-.09-.86-.08-.85.04-1.44.54-1.56,1.37-.13.91.03,1.75.87,2.31.28.19.6.33.91.46.3.13.62.21.93.32.42.15.65.48.73.9.13.61-.49,1.24-1.1,1.12-.47-.1-.87-.34-1.13-.76-.16-.25-.28-.53-.44-.79-.04-.07-.15-.1-.23-.14-.04.08-.13.17-.11.24.11.65.24,1.29.37,1.93.02.12.06.25.2.22.07-.01.17-.11.19-.19.04-.17.15-.19.28-.17.15.02.3.06.45.08.43.07.86.02,1.27-.15.73-.31,1.15-.87,1.19-1.66.04-.87-.22-1.63-1.01-2.11Zm5.65-3.02c-.79,0-1.58.51-1.61,1.47-.03.99.6,1.63,1.61,1.64.85.01,1.54-.68,1.55-1.57.01-.81-.71-1.52-1.56-1.54Z"/>
  </g>
</svg>