<?xml version="1.0" encoding="UTF-8"?>
<svg xmlns="http://www.w3.org/2000/svg" viewBox="0 0 108 108">
  <defs>
    <style>
      .cls-1 {
        fill: #282828;
      }

      .cls-1, .cls-2 {
        stroke-width: 0px;
      }

      .cls-2 {
        fill: #e9d5bd;
      }
    </style>
  </defs>
  <g id="bg">
    <circle class="cls-1" cx="54" cy="54" r="54"/>
  </g>
  <g id="icon">
    <path class="cls-2" d="m25.11,39.56c-.34-.12-.67-.27-1-.41-.17-.07-.28-.06-.35.15-.09.27-.22.52-.33.79-.13.31-.24.62-.36.93.12.06.2.09.28.13.24.14.4.11.48-.19.04-.17.12-.33.21-.48.08-.13.22-.35.3-.34.23.05.51.08.56.41.11.61-.07,1.11-.53,1.51-.51.44-1.1.46-1.7.19-.57-.26-.95-.69-.99-1.33-.04-.65.25-1.14.84-1.45.11-.06.23-.18.25-.28.02-.16-.04-.34-.08-.54-.7.17-1.19.55-1.46,1.17-.38.85-.39,1.7.19,2.46.57.75,1.39,1.03,2.31.91,1.32-.18,2.25-1.76,1.85-3.07-.08-.26-.19-.45-.46-.54Zm-2.14-3.15c-.22.26-.12.4.15.54,1,.54,1.99,1.11,2.99,1.66q.62.35.94-.29s0-.04,0-.1c-1.27-.71-2.54-1.43-3.87-2.17-.08.13-.13.25-.21.34Zm4.15-2.71c-.13.08-.25.18-.37.27-.3.22-.58.47-.9.66-.29.17-.62-.04-.61-.38,0-.19.08-.44.21-.56.27-.26.58-.48.9-.68.17-.1.24-.19.15-.36-.09-.15-.02-.47-.36-.38-.79.21-1.61,1.18-1.63,2.01-.02.75.56,1.35,1.21,1.25.31-.05.62-.21.89-.38.39-.24.73-.56,1.12-.8.11-.07.37-.03.47.06.12.12.18.34.19.52,0,.13-.09.27-.16.39-.3.53-.79.8-1.39.95.05.16.1.3.15.44.06.18.15.24.37.18.87-.25,1.38-.87,1.69-1.66.24-.6.04-1.16-.43-1.53-.45-.35-.9-.35-1.49,0Zm-5.44,16.77c.32-.15.63-.29.95-.44.57-.26.67-.45.59-1.15-.6.3-1.18.58-1.76.86-.06-.13-.1-.22-.14-.31-.28-.67-.82-.93-1.65-.81-.5.07-.96.61-1.02,1.2-.06.61-.1,1.22-.17,1.83-.02.2.05.24.23.26,1.22.11,2.44.22,3.66.36.62.07.54.04.6-.53,0-.07-.12-.2-.19-.21-.4-.06-.81-.09-1.21-.14-.08,0-.18-.05-.21-.11-.11-.21.09-.71.31-.81Zm-.96.13q-.09.75-.83.64t-.58-.72c.01-.19,0-.38.05-.55.12-.44.44-.64.83-.57.34.06.58.39.58.89,0,.05-.03.18-.04.31Zm3.13-5.92c-.27-.09-.36.03-.4.27-.02.09-.03.17-.05.26-.13.54-.27,1.08-.41,1.63-.38-.09-.7-.14-1.01-.24-.07-.02-.16-.19-.14-.27.12-.56.25-1.11.43-1.65.1-.3-.08-.34-.27-.39-.22-.06-.37-.04-.43.24-.12.56-.26,1.11-.41,1.66-.02.07-.17.17-.24.16-.24-.03-.47-.12-.7-.18-.18-.05-.23-.13-.17-.33.16-.55.27-1.11.43-1.65.1-.36-.18-.32-.36-.4-.21-.09-.27.02-.31.2-.2.82-.41,1.64-.61,2.46-.05.21,0,.3.23.36,1.01.23,2.02.5,3.03.75.34.08.67.16,1.03.24.23-.91.44-1.78.68-2.64.09-.32-.06-.37-.3-.44Zm11.79-16.05c-.11-.12-.19-.19-.25-.28-.14-.23-.27-.23-.46-.05-.33.3-.68.59-1.04.86-.56.44-.42.44-.84-.07-.07-.09-.13-.18-.21-.25-.21-.19-.15-.31.05-.47.43-.34.84-.7,1.28-1.04.19-.14.17-.26.03-.39-.13-.12-.21-.38-.46-.16-.3.26-.61.5-.91.76q-.6.52-1.1-.07c-.27-.32-.27-.32.06-.58.48-.39.95-.77,1.45-1.18-.16-.19-.28-.34-.44-.54-.77.63-1.53,1.25-2.27,1.87-.03.03-.02.17.02.22.85,1.05,1.71,2.09,2.56,3.14.13.16.23.14.38.02.5-.42,1-.82,1.5-1.23.22-.18.43-.36.67-.55Zm-6.14.3c.25-.22.07-.34-.07-.5-.17-.19-.29-.17-.45.01-.58.64-1.17,1.28-1.77,1.91-.53.56-.44.4.1.91.26-.27.52-.53.76-.8.12-.14.22-.14.35-.01.35.33.71.66,1.06.99.5.46.99.93,1.53,1.43.19-.19.35-.37.55-.58-.95-.88-1.86-1.74-2.79-2.6.26-.28.48-.53.72-.75Zm17.1,5.25c.07.12.1.19.15.26,1.88,2.95,3.75,5.91,5.62,8.87.12.19.2.45.2.67.02,1.88.02,3.76,0,5.64,0,.35.11.42.43.42,1.11-.02,2.22-.02,3.33,0,.33,0,.4-.11.4-.42-.01-1.89-.01-3.78,0-5.67,0-.23.08-.48.2-.67,1.71-2.72,3.44-5.43,5.16-8.15.19-.3.37-.61.61-.99h-.41c-1.31,0-2.62,0-3.92,0-.26,0-.4.09-.52.3-.87,1.52-1.76,3.04-2.64,4.56-.17.3-.36.59-.56.92-.07-.1-.1-.14-.12-.19-1.05-1.78-2.1-3.55-3.14-5.33-.11-.18-.22-.27-.44-.26-1.35.01-2.7,0-4.06.01-.08,0-.16.02-.28.04Zm11.74-11.23c1.34,0,2.26-.99,2.25-2.41,0-1.19-.92-2.25-2.42-2.2-1.26.04-2.19,1.03-2.18,2.4,0,1.28,1.01,2.23,2.35,2.22Zm-.03-3.92c.86,0,1.53.66,1.49,1.54-.04.94-.57,1.68-1.53,1.68-.85,0-1.53-.69-1.49-1.55.04-1.03.75-1.75,1.53-1.67Zm-1.65,33.58c-1.24-1.01-2.66-1.26-4.22-1-1.32.22-2.34.89-3.11,1.97-.94,1.31-1.23,2.82-1.27,4.35.03,1.07.16,2.07.53,3.04.69,1.79,1.89,3.03,3.83,3.38,1.46.26,2.85.05,4.06-.88,1.45-1.11,2.05-2.67,2.25-4.41.13-1.17.08-2.34-.25-3.49-.34-1.15-.89-2.18-1.83-2.94Zm-1.22,6.55c-.06.5-.23,1-.45,1.46-.35.72-.99.99-1.77.92-.74-.07-1.19-.52-1.46-1.17-.33-.77-.38-1.59-.4-2.43.02-.81.08-1.61.4-2.38.47-1.14,1.81-1.54,2.78-.81.47.35.67.88.8,1.43.23.98.23,1.99.11,2.98Zm9.37-35.02c.23-.06.52-.22.62-.41.2-.38.29-.82.4-1.25.02-.07-.04-.22-.1-.25-.42-.15-.85-.29-1.28-.4-.57-.15-.57-.14-.78.44.03.03.05.05.07.05.3.09.61.19.91.28.18.05.25.13.22.35-.06.46-.4.6-.88.56-.8-.06-1.39-.63-1.46-1.44-.06-.72.32-1.44,1.07-1.72.71-.26,1.36,0,1.81.72.09.14.5.19.67.03.06-.06.04-.27,0-.37-.44-.83-1.17-1.16-2.09-1.18-1.75-.03-2.68,1.89-2.08,3.26.5,1.13,1.76,1.63,2.92,1.31Zm-20.43-.34c.06.24.16.28.37.22.42-.12.84-.25,1.27-.34,1.18-.25,2.08-1.28,1.79-2.69-.22-1.06-1.24-1.91-2.32-1.75-.72.11-1.43.31-2.15.48.06.26.11.47.16.68.29,1.13.6,2.26.88,3.4Zm.04-3.6c.54-.17,1.08-.39,1.66-.18.59.21.98.85.98,1.54,0,.69-.5,1.3-1.17,1.45-.2.04-.4.12-.61.13-.09,0-.25-.08-.27-.16-.19-.63-.35-1.27-.51-1.9-.06-.21-.12-.42-.16-.64-.01-.08.03-.22.08-.24Zm-4,5.19c.09.22.18.29.42.18.66-.3,1.32-.58,1.99-.85.57-.24.58-.23.31-.78,0-.02-.03-.03-.08-.07-.65.28-1.33.56-2.05.87-.14-.32-.26-.62-.39-.9-.09-.18-.05-.27.14-.34.52-.2,1.03-.43,1.54-.65.16-.07.32-.15.17-.36-.1-.14-.05-.49-.43-.29-.41.21-.84.37-1.26.55q-.53.23-.77-.32c-.03-.08-.08-.16-.12-.24-.09-.19-.08-.31.16-.4.54-.21,1.07-.46,1.6-.68.37-.15.1-.35.06-.53-.05-.19-.16-.2-.35-.12-.75.34-1.51.65-2.27.96-.23.09-.3.19-.19.44.52,1.17,1.02,2.35,1.51,3.54Zm-3.66,2.48c.17-.08.32-.21.49-.32-.25-.41-.48-.79-.71-1.18-.04-.07-.09-.16-.08-.24.03-.17.61-.39.78-.3.35.18.7.37,1.04.56.52.28.69.24,1.19-.25-.58-.3-1.14-.6-1.75-.91.08-.11.12-.16.16-.21.34-.46.33-1.09-.02-1.57-.38-.52-1.01-.78-1.53-.52-.71.34-1.37.77-2.02,1.13-.01.08-.02.09-.02.1.73,1.21,1.45,2.43,2.19,3.64.04.06.2.1.27.06Zm-.82-2.51c-.19-.28-.37-.57-.54-.86-.03-.06-.03-.21.01-.23.41-.22.75-.58,1.17-.63.37,0,.56.17.69.42.13.27.11.54-.12.72-.3.25-.65.45-.98.65-.05.03-.19-.02-.23-.08Zm16.9-3.98c-.02.34.02.68.03,1.02,0,.2.1.27.3.24.11-.02.23,0,.32-.04.07-.03.15-.12.15-.19,0-.48-.03-.97-.02-1.45,0-.13.05-.28.12-.4.45-.75.92-1.5,1.37-2.25.03-.06.05-.13.07-.18-.61-.14-1.01.07-1.23.64-.08.21-.22.4-.34.6-.13.21-.26.42-.42.68-.38-.55-.72-1.04-1.06-1.54-.23-.34-.67-.43-1.06-.19.48.67.94,1.35,1.43,2,.24.32.39.64.36,1.05Zm14.22,3.4s.06-.08.09-.09c.09-.02.21-.07.28-.04.5.23.99.46,1.47.72.1.05.17.22.19.35.02.15-.04.31-.03.46,0,.09.06.22.13.26.18.12.38.2.61.32.03-.18.06-.32.07-.46.1-1.23.21-2.47.31-3.7.05-.63.04-.61-.49-.91-.28-.16-.44-.08-.65.11-.58.55-1.18,1.08-1.77,1.62-.47.44-.94.88-1.43,1.33.61.48.71.48,1.21.01Zm2.28-2.19s.07.03.1.05c-.01.13-.03.27-.04.4-.04.47-.09.94-.13,1.41-.02.21-.08.28-.29.16-.37-.2-.76-.37-1.2-.58.56-.52,1.06-.98,1.56-1.45Zm19.55,23.28c-.02-1.38-.92-2.37-2.19-2.38-1.41,0-2.47.95-2.46,2.22,0,1.25.9,2.43,2.25,2.34,1.23.1,2.43-.92,2.4-2.19Zm-3.94-.11c.01-.81.8-1.48,1.74-1.48.85,0,1.5.64,1.5,1.5,0,.85-.76,1.51-1.74,1.51-.68.08-1.52-.53-1.5-1.52Zm-15.8,7.26c-1.39-1.54-3.74-1.87-5.56-1.18-1.85.7-2.77,2.18-3.22,4-.38,1.53-.36,3.06.1,4.58.62,2.04,1.81,3.49,3.99,3.91,2.05.39,4.14-.34,5.3-2.21.79-1.28,1.08-2.69,1.15-4.18-.1-.68-.15-1.37-.29-2.05-.23-1.08-.71-2.05-1.46-2.87Zm-2.09,7.56c-.33.61-.84.94-1.54.96-.72.02-1.24-.31-1.6-.92-.37-.64-.44-1.35-.5-2.06-.07-.99-.02-1.98.33-2.92.3-.8.9-1.22,1.64-1.25.89-.03,1.5.49,1.79,1.24.11.28.21.58.25.88.07.48.09.96.13,1.4-.07.94-.07,1.85-.52,2.67Zm4.58-19.89c-1.32-.41-2.67-.7-4-1.08-.47-.13-.92-.33-1.36-.55-.28-.14-.35-.43-.29-.74.09-.43.47-.75,1.03-.84,1.05-.17,2.06-.01,3.03.36.78.3,1.51.73,2.32,1.13.61-.8,1.27-1.66,1.91-2.52.28-.38.27-.38-.09-.65-1.05-.8-2.2-1.35-3.49-1.63-1.81-.4-3.6-.45-5.39.15-2.01.67-3.7,2.47-3.55,4.93.09,1.46.7,2.58,1.91,3.38,1.29.85,2.79,1.13,4.26,1.47.69.16,1.38.34,2.06.55.36.11.7.35.73.77.03.42-.2.75-.57.93-.35.17-.73.33-1.11.37-1.53.14-2.97-.2-4.27-1.03-.47-.3-.9-.65-1.35-.98-.01,0-.04.01-.05.03-.67.95-1.35,1.89-2.01,2.85-.05.07,0,.26.06.32,1.18,1.1,2.58,1.78,4.14,2.1,1.69.36,3.4.4,5.1.02.93-.21,1.79-.58,2.54-1.19,1.15-.94,1.67-2.19,1.73-3.63.05-1.11-.2-2.15-.97-3.02-.64-.72-1.42-1.23-2.32-1.5Zm3.42-13.7c-.15-.23-.37-.48-.09-.76.21-.21.52-.22.83.07.26.25.49.56.66.88.17.32.2.36.57.24.31-.11.21-.32.14-.51-.23-.6-.63-1.05-1.2-1.34-.45-.23-.92-.28-1.39-.04-.55.28-.76,1-.41,1.6.24.42.54.8.81,1.2.15.23.27.47.03.72-.19.2-.48.23-.78.07-.43-.23-.7-.58-.88-1.02-.2-.5-.21-.5-.73-.34-.03,0-.06.03-.11.06.14.95.7,1.57,1.49,1.99.62.33,1.17.23,1.63-.23.43-.44.49-.89.14-1.53-.2-.36-.48-.68-.7-1.03Zm-5.03,58.43c-.45-.01-.9,0-1.35,0-.17,0-.26-.05-.26-.25,0-.47,0-.95,0-1.42,0-.21.1-.27.28-.26.24,0,.49.02.72,0,.11-.01.2-.13.3-.2-.1-.07-.19-.19-.3-.2-.24-.03-.48-.02-.72,0-.22,0-.29-.09-.29-.3.01-.33.01-.66,0-.99-.01-.27.1-.34.35-.34.44.01.88.02,1.32,0,.12,0,.24-.12.37-.18-.12-.07-.24-.19-.36-.2-.54-.02-1.08-.01-1.62,0-.32,0-.45.14-.45.47,0,1.27,0,2.55,0,3.82,0,.33.12.45.46.46.52,0,1.03.01,1.55,0,.15,0,.29-.08.44-.12,0-.05,0-.11,0-.16-.15-.04-.29-.1-.44-.11Zm-2.99-8.68c-.36.17-.57.09-.66-.3-.06-.24-.09-.5-.09-.75,0-1.81.02-3.63.02-5.44,0-1.01-.51-1.56-1.51-1.61-.38-.02-.77-.03-1.15.03-.83.13-1.54.47-1.79,1.37-.08.28-.12.58-.16.87-.07.55.14.7.66.51.07-.03.15-.04.22-.07.41-.17.53-.34.52-.77,0-.13-.03-.26-.03-.39-.02-.39.16-.73.48-.86.41-.16.83-.25,1.23.01.08.06.17.18.17.27.04.8.06,1.59.07,2.39,0,.3-.22.42-.49.48-.57.12-1.14.24-1.7.4-.71.2-1.4.49-1.67,1.25-.27.74-.27,1.51,0,2.26.2.54.61.89,1.18.91.42.02.85-.06,1.26-.16.55-.14,1.01-.46,1.42-1,.03.2.05.29.06.39.06.5.33.81.83.81.45,0,.89-.07,1.34-.12.11-.01.23-.08.32-.16.07-.06.15-.23.12-.26-.08-.09-.21-.17-.32-.17-.11,0-.22.08-.33.13Zm-2.2-1.36c-.12.46-.45.82-.87,1.08-.52.31-1.09.16-1.31-.4-.27-.68-.21-1.38.01-2.06.15-.46.58-.6.98-.74.31-.1.63-.17.95-.26.24-.07.41-.05.4.27,0,.19,0,.37,0,.56.02,0,.04,0,.07,0-.07.52-.1,1.05-.23,1.55Zm19.6-40.41c-.45.3-.87.57-1.27.85-.17.12-.28.12-.4-.07-.32-.5-.65-.99-.99-1.48-.12-.17-.11-.28.08-.39.37-.23.74-.48,1.09-.74.07-.05.15-.19.12-.24-.1-.19-.24-.35-.36-.54-.35.23-.67.45-.99.66-.84.56-1.68,1.11-2.51,1.68-.08.05-.16.21-.14.27.09.18.22.34.36.53.54-.36,1.05-.7,1.62-1.08.38.56.72,1.11,1.1,1.63.18.25.13.37-.1.51-.43.27-.86.57-1.32.88.15.23.29.43.44.66,1.27-.84,2.49-1.66,3.74-2.5-.17-.24-.31-.44-.46-.65Zm-46.31,14.61c-.02-1.51,0-3.01-.01-4.52,0-.3.1-.38.38-.37.44.02.88.02,1.32,0,.25-.01.4.07.51.31.78,1.58,1.57,3.15,2.35,4.72.11.21.23.31.48.3.79-.02,1.58,0,2.37,0,.65,0,1.29,0,2.03,0-.09-.17-.14-.28-.2-.38-.97-1.75-1.94-3.49-2.91-5.24-.07-.13-.12-.22.07-.31,1.5-.65,2.45-1.77,2.81-3.37.26-1.17.21-2.34-.25-3.45-.88-2.11-2.58-3.06-4.76-3.12-2.66-.07-5.32-.01-7.98-.02-.28,0-.35.1-.35.37,0,5.06,0,10.12,0,15.17,0,.3.1.37.38.36,1.12-.01,2.24-.02,3.36,0,.35,0,.42-.11.42-.43Zm.28-11.84c.54,0,1.08,0,1.61,0,.52,0,1.03-.03,1.55,0,1.13.08,1.9.91,1.64,2.08-.15.65-.8,1.19-1.58,1.22-1.09.04-2.17.02-3.26.03-.18,0-.25-.07-.25-.26,0-.94,0-1.89,0-2.83,0-.22.12-.25.29-.25Zm50.81,11.52c-.65.06-1.31.12-1.96.18-.67.06-1.33.14-2,.2-.24.02-.2.18-.19.33.07.73.14,1.46.2,2.19.01.15.04.29.22.22.17-.06.5.1.46-.3-.05-.48-.08-.96-.14-1.44-.03-.21.03-.3.25-.32,1.07-.09,2.14-.2,3.21-.3.14-.01.36.03.29-.22-.06-.21.12-.59-.35-.55Zm-10.85-16.51c-.19-.02-.38-.11-.54-.22-.95-.69-.8-2.08.28-2.67.51-.28,1.03-.29,1.53.02.51.31.76.77.66,1.39-.01.06.08.18.15.21.16.08.34.12.51.18.3-.9-.11-1.87-.99-2.42-.93-.57-2.04-.44-2.83.34-.8.79-.94,1.88-.38,2.83.5.84,1.46,1.29,2.26,1.03-.09-.63-.09-.62-.67-.69Zm-12.42,48.79c.23.09.43.26.66.35.12.05.27.02.41.02-.05-.11-.07-.25-.16-.32-.45-.39-.98-.57-1.57-.57-.61,0-1.2.21-1.62.61-.77.73-1.01,1.61-.68,2.61.32.96,1.04,1.5,2.04,1.64.7.1,1.33-.12,1.85-.59.08-.07.08-.24.12-.36-.13.02-.26.04-.38.07-.03,0-.05.04-.08.06-.51.35-1.04.51-1.68.38-1.04-.21-1.94-1.41-1.5-2.66.33-.93,1.43-1.68,2.58-1.24Zm21.04-41.26c.07-1.16-.91-2.39-2.23-2.36-1.32.03-2.41.93-2.42,2.28,0,1.34.99,2.37,2.26,2.36,1.21,0,2.47-.95,2.38-2.28Zm-3.93,0c.01-.94.86-1.53,1.81-1.58.77-.04,1.44.72,1.43,1.52-.01.85-.85,1.59-1.8,1.56-.87-.03-1.45-.67-1.44-1.5Zm12.75,11.16c-.08-.79-.1-1.6-.21-2.38-.17-1.25-.36-2.5-.61-3.73-.2-.99-.46-1.96-.74-2.93-.28-.97-.59-1.92-.93-2.87-.76-2.16-1.75-4.22-2.88-6.22-1.55-2.73-3.38-5.25-5.5-7.57-1.24-1.36-2.56-2.62-3.96-3.81-1.6-1.36-3.29-2.58-5.08-3.68-1.78-1.1-3.62-2.07-5.55-2.86-1.42-.58-2.87-1.11-4.33-1.58-1.21-.38-2.44-.7-3.69-.92-1.64-.29-3.29-.46-4.94-.69-.19-.03-.37-.1-.55-.15h-5.74c-.1.04-.19.1-.29.11-.94.11-1.88.16-2.81.31-1.39.23-2.78.48-4.15.82-1.27.31-2.52.7-3.75,1.15-1.44.53-2.86,1.12-4.26,1.75-1.77.8-3.45,1.8-5.07,2.87-1.61,1.07-3.14,2.24-4.58,3.53-1.87,1.68-3.61,3.5-5.17,5.48-1.58,2.01-2.97,4.15-4.17,6.41-1.05,1.98-1.95,4.04-2.64,6.17-.46,1.41-.85,2.85-1.19,4.3-.28,1.2-.45,2.44-.64,3.66-.14.93-.3,1.87-.32,2.8-.07,2.4-.15,4.8.24,7.19.24,1.48.42,2.98.74,4.44.3,1.38.72,2.73,1.13,4.08.5,1.67,1.18,3.27,1.93,4.84.96,2.01,2.05,3.95,3.34,5.76.89,1.24,1.79,2.48,2.8,3.62,1.14,1.29,2.36,2.51,3.62,3.68,1.07.99,2.21,1.91,3.38,2.77,1.1.81,2.25,1.56,3.43,2.25,1.2.71,2.45,1.34,3.7,1.95.92.45,1.87.83,2.83,1.18,1.16.42,2.33.8,3.51,1.16.8.24,1.62.44,2.45.62.79.17,1.59.33,2.39.45.87.13,1.74.21,2.61.3.98.09,1.96.21,2.94.22,1.11.01,2.23-.06,3.34-.12,1.01-.06,2.01-.13,3.01-.26,1-.13,1.99-.31,2.97-.53,1.29-.29,2.58-.58,3.84-.97,1.31-.41,2.59-.91,3.87-1.41,1.83-.72,3.57-1.63,5.26-2.64,1.78-1.06,3.47-2.25,5.07-3.57,2.3-1.89,4.38-3.99,6.24-6.31,1.5-1.87,2.82-3.86,3.98-5.96,1.05-1.9,1.95-3.87,2.68-5.91.39-1.08.73-2.18,1.04-3.28.27-.98.51-1.98.7-2.98.2-1.08.36-2.16.5-3.25.09-.72.11-1.44.18-2.16.03-.28.11-.56.16-.84v-3.5c-.05-.26-.13-.52-.16-.78Zm-14.7,29.19c-7.21,7.43-16.99,11.41-27.14,11.39-21.16-.04-37.38-16.98-38-36.59-.34-10.95,3.31-20.43,10.98-28.21,7.02-7.12,15.64-10.92,25.66-11.25,11.12-.36,20.68,3.45,28.5,11.36,6.85,6.92,10.5,15.34,10.88,25.06.42,10.93-3.25,20.4-10.87,28.24Zm-37.18,4.8c-.27.01-.36-.08-.35-.36.01-1.21.01-2.42,0-3.63,0-.12-.12-.24-.19-.36-.07.12-.19.24-.19.37-.02.65,0,1.3,0,1.94,0,.68,0,1.36,0,2.04,0,.26.11.39.37.39.55,0,1.1.03,1.65,0,.13,0,.25-.14.38-.21-.12-.07-.24-.18-.37-.19-.43-.02-.86-.02-1.28,0Zm2.9-16.32c0-.07,0-.13,0-.2-.03-.18-.09-.29-.31-.18-.24.12-.5.21-.76.3-.26.09-.34.26-.34.53,0,1.74-.03,3.47.02,5.21.02.8-.34,1.34-.9,1.8-.69.56-1.33.32-1.5-.55-.24-1.2-.09-2.41-.06-3.61.02-.92.07-1.84.06-2.76,0-.41-.19-.82-.65-.88-.48-.07-.97-.05-1.46-.03-.18,0-.36.09-.52.17-.07.04-.12.18-.11.26,0,.05.15.14.22.13.2-.03.4-.09.6-.14.39-.1.63.06.64.46,0,.25,0,.51-.01.76-.04,1.63-.09,3.27-.11,4.9,0,.48.03.97.38,1.36.71.77,1.91.96,2.79.41.2-.12.37-.3.64-.52,0,.7.01,1.3,0,1.91-.01.52-.24.79-.72.94-.43.13-.74.02-1.05-.39-.05-.07-.1-.18-.17-.2-.14-.04-.32-.07-.44,0-.07.03-.09.33-.03.38.25.22.52.5.82.55.58.08,1.18.07,1.76,0,.86-.09,1.22-.55,1.22-1.42,0-3.07,0-6.13,0-9.2Zm.64,16.32c-.31.02-.39-.1-.39-.4.02-1.17.02-2.35,0-3.52,0-.14-.15-.28-.22-.42-.07.13-.18.26-.19.4-.02.64,0,1.27,0,1.91h0c0,.67,0,1.34,0,2.01,0,.27.1.42.38.42.57,0,1.14,0,1.71-.01.11,0,.22-.13.33-.19-.11-.07-.22-.18-.34-.19-.43-.02-.86-.02-1.28,0Zm-7.23-4.11c-.06-.12-.23-.26-.35-.26-.12,0-.29.13-.36.25-.28.52-.52,1.06-.78,1.6-.39.82-.8,1.64-1.18,2.46-.05.11.01.27.02.41.11-.08.26-.14.33-.25.18-.3.33-.62.47-.94.09-.22.24-.28.46-.28.68,0,1.36.01,2.04,0,.24,0,.38.07.48.3.15.35.33.69.51,1.03.04.07.17.11.26.13.03,0,.08-.1.12-.15-.03-.09-.05-.15-.07-.21-.65-1.36-1.3-2.73-1.97-4.09Zm-1.52,2.61c.38-.79.74-1.54,1.11-2.29.04,0,.07,0,.11,0,.36.75.72,1.49,1.11,2.3h-2.32Zm7.8-19.74c.29,0,.38-.08.37-.37-.02-.7-.02-1.41,0-2.11,0-.25-.05-.37-.33-.35-.31.02-.62,0-.92,0-1.02,0-2.04,0-3.06,0-.02-.03-.04-.06-.05-.09.31-.23.62-.47.93-.7.93-.71,1.8-1.47,2.5-2.42.75-1.03,1.02-2.17.74-3.4-.42-1.82-1.96-2.8-3.59-3.11-.88-.17-1.76-.17-2.65-.02-1.38.23-2.59.78-3.6,1.77-.18.18-.16.29-.01.46.47.55.94,1.1,1.39,1.67.17.21.27.2.47.04.94-.8,2.02-1.21,3.27-1.16,1.3.06,1.93,1.14,1.22,2.22-.32.49-.74.93-1.2,1.3-1.53,1.21-3.09,2.38-4.66,3.56-.18.14-.24.28-.24.49.01.62.02,1.23,0,1.85-.01.32.11.39.4.38,1.18-.01,2.35,0,3.53,0,1.84,0,3.67,0,5.51,0Zm15.37,16.87s-.09.01-.13.02c-.03.14-.09.27-.09.41,0,.96,0,1.91,0,2.87,0,.24,0,.48,0,.79-.11-.07-.14-.09-.17-.12-1.25-1.24-2.49-2.48-3.75-3.71-.11-.11-.26-.16-.4-.24-.06.15-.16.31-.16.46-.01,1.26,0,2.53,0,3.79,0,.09-.02.19.01.26.04.09.13.15.19.23.06-.08.15-.15.18-.24.03-.08,0-.17,0-.26,0-1.08,0-2.15,0-3.23,0-.09.02-.17.03-.32.1.09.14.12.17.16,1.24,1.23,2.48,2.46,3.73,3.68.1.09.26.15.39.15.06,0,.15-.21.15-.32.01-1.34.01-2.68,0-4.02,0-.12-.1-.24-.16-.36Zm-3.07-1.34c.88-.09,1.26-.55,1.26-1.42,0-1.52-.01-3.03-.02-4.55,0-.13-.02-.26-.03-.39,0-.21-.11-.27-.3-.23-.26.06-.51.12-.77.19-.23.06-.34.22-.32.47.03.47.07.94.07,1.41,0,.71-.37,1.17-.99,1.46-.37.17-.78.07-1.05-.23-.36-.41-.53-.91-.55-1.45-.04-.94-.07-1.88-.05-2.82.01-.64.08-1.29.18-1.93.07-.47.28-.91.79-1.04,1.11-.29,1.75.23,1.73,1.38,0,.05,0,.11,0,.16,0,.27-.12.63.16.75.2.08.51-.08.76-.15.3-.08.43-.3.4-.59-.03-.29-.08-.59-.14-.88-.12-.58-.51-.94-1.06-1.05-.52-.11-1.06-.17-1.59-.18-1.36-.02-2.26.71-2.48,2.06-.26,1.67-.26,3.35.12,5,.15.67.46,1.26,1.17,1.52.54.2,1.1.22,1.65.05.31-.1.6-.23.98-.38-.03.66-.01,1.27-.1,1.86-.07.52-.67.84-1.16.66-.22-.08-.42-.26-.58-.44-.22-.26-.39-.34-.57-.18-.23.23-.07.43.1.55.23.17.49.37.76.4.53.06,1.07.05,1.6,0Zm-5.13,1.53c-.15.29-.29.59-.43.89-.52,1.09-1.04,2.17-1.55,3.26-.05.1,0,.25.02.38.11-.07.26-.1.31-.2.19-.32.32-.67.51-.99.08-.12.25-.24.39-.25.36-.04.72-.01,1.09-.01.35,0,.7,0,1.05,0,.2,0,.32.06.41.25.15.35.32.7.51,1.03.05.09.2.12.3.18.02-.12.09-.26.05-.35-.66-1.4-1.32-2.79-2-4.17-.16-.32-.49-.32-.66,0Zm-.83,2.67c.38-.79.74-1.54,1.1-2.29.04,0,.07,0,.11,0,.36.75.73,1.51,1.1,2.29h-2.31Zm.11-7.57c.41-.63.59-1.32.64-2.05.05-.7.06-1.4.04-2.1-.02-.82-.1-1.64-.43-2.42-.22-.52-.57-.95-1.15-1.03-.63-.09-1.28-.11-1.93-.09-.69.02-1.23.36-1.55,1-.35.71-.47,1.47-.54,2.26-.12,1.3-.09,2.59.29,3.84.16.52.39,1.05.9,1.29.43.21.93.26,1.4.38,0-.04.02-.07.02-.11.15,0,.31,0,.46,0,.77-.03,1.4-.31,1.83-.98Zm-.82-1.78c-.09.59-.31,1.18-.54,1.74-.16.39-.55.55-.98.52-.41-.03-.68-.3-.8-.65-.16-.47-.27-.97-.33-1.46-.08-.65-.09-1.31-.14-2.04.05-.64.09-1.35.16-2.06.03-.25.1-.49.19-.73.22-.56.7-.8,1.39-.73.49.05.86.43.95.99.25,1.47.33,2.95.09,4.42Zm-1.7,6.51c-.05,0-.11,0-.16,0-.03.14-.1.27-.1.41,0,1.31,0,2.61,0,3.92,0,.09,0,.18.02.26.02.05.09.13.13.12.06,0,.15-.05.18-.11.04-.07.04-.17.04-.25,0-1.33,0-2.66,0-3.98,0-.12-.07-.25-.11-.37Z"/>
  </g>
</svg>