<?xml version="1.0" encoding="UTF-8"?>
<svg xmlns="http://www.w3.org/2000/svg" viewBox="0 0 108 108">
  <defs>
    <style>
      .cls-1 {
        fill: #282828;
      }

      .cls-1, .cls-2 {
        stroke-width: 0px;
      }

      .cls-2 {
        fill: #e9d5bd;
      }
    </style>
  </defs>
  <g id="bg">
    <circle class="cls-1" cx="54" cy="54" r="54"/>
  </g>
  <g id="icon">
    <path class="cls-2" d="m24.87,83.05c-.11-.06-.23-.14-.35-.18-.39-.14-.78-.28-1.18-.39-.4-.11-.81-.18-1.21-.28-.2-.05-.41-.12-.59-.21-.46-.23-.53-.76-.15-1.11.09-.08.2-.15.31-.2.35-.17.72-.21,1.09-.19.94.03,1.77.36,2.52.91.09.07.17.11.3.06v-1.98c-.08-.03-.16-.07-.24-.1-.77-.28-1.57-.44-2.39-.47-.73-.03-1.46.02-2.15.27-.59.22-1.1.54-1.51,1.03-.75.89-.71,2.78.64,3.54.46.26.94.43,1.45.55.46.11.92.2,1.38.32.21.06.42.16.6.29.37.26.38.77.04,1.07-.17.15-.36.24-.58.29-.34.07-.69.11-1.04.08-1-.08-1.9-.44-2.69-1.05-.1-.08-.19-.13-.32-.07v2.06s.08.04.12.05c1.24.51,2.53.72,3.87.59.55-.05,1.09-.17,1.59-.42.92-.46,1.52-1.15,1.6-2.22.07-.95-.24-1.73-1.1-2.22Zm18.72-1.92c-.73-.19-1.47-.18-2.2.02-.99.28-1.67.91-2.02,1.88-.32.9-.32,1.82-.06,2.73.25.87.79,1.51,1.62,1.9.5.23,1.04.31,1.72.31.13-.01.39-.02.64-.07,1.29-.23,2.13-.96,2.49-2.22.22-.77.22-1.56.02-2.33-.3-1.16-1.03-1.93-2.21-2.23Zm.45,4.19c-.06.3-.18.57-.36.82-.56.76-1.71.76-2.27,0-.29-.39-.4-.85-.43-1.33,0-.11,0-.22,0-.33-.01-.47.05-.93.25-1.36.35-.74,1.1-1.04,1.86-.76.31.12.54.34.7.63.15.26.24.54.28.83.07.5.07.99-.03,1.49Zm-17.63-4.14v1.26h2.05v5.38h1.77v-5.4h2.05v-1.26c-.51-.04-5.73-.02-5.87.02Zm11.05,3.71c.72-.4,1.11-.99,1.13-1.83.02-.74-.28-1.28-.94-1.62-.15-.08-.31-.15-.48-.18-.28-.05-.57-.1-.86-.11-1.02-.02-2.05-.01-3.07-.01-.04,0-.07.01-.1.02v6.65h1.75v-2.44c.16,0,.3,0,.44,0,.13-.01.22.04.3.15.57.72,1.14,1.44,1.71,2.16.09.11.18.15.31.15.58,0,1.17,0,1.75,0,.05,0,.11,0,.19-.02-.79-.95-1.55-1.87-2.33-2.82.08-.05.13-.08.19-.11Zm-1.4-.77c-.37.08-.76.05-1.16.05v-1.8c.22,0,.42,0,.63,0,.21,0,.42.01.63.05.4.08.59.3.62.7.03.52-.2.88-.72.99Zm15.07-2.21v1.5c0,.25,0,.5,0,.75,0,.24,0,.48,0,.73-.02,0-.03,0-.05,0-.73-1.25-1.46-2.5-2.18-3.73h-2.16v6.66h1.6v-4.55s.03,0,.04,0c.88,1.52,1.77,3.05,2.65,4.56h1.69v-6.67h-1.6v.76Zm32.96,2.29c-.27-.14-.55-.25-.84-.34-.38-.11-.77-.18-1.15-.28-.2-.05-.41-.11-.59-.2-.33-.17-.38-.56-.11-.82.08-.07.18-.13.28-.18.34-.15.7-.16,1.06-.12.62.06,1.18.3,1.69.66.08.05.14.12.25.06v-1.5s-.08-.04-.12-.05c-.86-.31-1.74-.45-2.65-.38-.65.05-1.25.26-1.79.66-1.02.77-.94,2.53.28,3.09.28.13.57.24.86.32.4.11.81.18,1.21.28.16.04.32.12.46.21.31.21.32.62.02.85-.12.09-.26.16-.4.19-.4.1-.81.1-1.21.02-.62-.12-1.18-.36-1.68-.74-.08-.06-.15-.13-.27-.06v1.55s.05.03.06.04c.05.02.1.04.15.06.87.34,1.77.48,2.7.42.49-.03.98-.12,1.43-.34.73-.37,1.2-.92,1.24-1.77.03-.72-.23-1.29-.88-1.63Zm1.25-3.05v1.27h2.05v5.39h1.77v-5.39h2.05v-1.27h-5.87Zm-8.29,3.73c.64-.37,1.04-.9,1.11-1.66.08-.85-.29-1.5-1.07-1.85-.38-.17-.79-.21-1.19-.22-1.02-.01-2.05,0-3.07-.01-.03,0-.06,0-.1.01v6.66h1.74v-2.43c.16,0,.29.01.42,0,.15-.02.24.04.33.16.57.72,1.14,1.44,1.71,2.16.08.1.15.14.28.14.35,0,.71,0,1.06,0h.86s.01-.03.02-.04c-.77-.93-1.53-1.85-2.32-2.79.09-.05.15-.08.21-.11Zm-1.2-.83c-.12.05-.25.08-.38.09-.33.02-.65.03-1,.05v-1.78s.02-.03.03-.03c.39,0,.77,0,1.16.03.42.04.64.27.69.66.06.43-.13.82-.5.97Zm-19.13,1.36h1.34v1.31c-.52.04-1.01.03-1.49-.16-.61-.24-1-.68-1.15-1.32-.1-.43-.12-.87-.04-1.31.16-.92.81-1.54,1.71-1.65.59-.07,1.14.04,1.65.33.26.14.49.32.74.49.08.05.14.12.26.06v-1.54s-.04-.03-.07-.04c-1.12-.55-2.31-.7-3.53-.45-1.2.24-2.04.95-2.45,2.13-.21.61-.21,1.24-.14,1.87.15,1.37,1.05,2.39,2.38,2.72.71.18,1.43.18,2.15.07.57-.09,1.13-.24,1.68-.44v-3.28h-3.04v1.24Zm4.68,2.42h2.23v-3.82h3.47v-1.71h-3.46v-1.68c1.26,0,2.51,0,3.76,0v-1.69h-6.02c-.05.36-.03,8.77.02,8.9Zm6.72-5.51h.98v4.34h-.98v1.15h3.75v-1.16h-.97v-4.35h.98v-1.16h-3.75v1.17Zm6.56-32.8c.19-.59.34-1.22.49-1.82l.13-.52c.12-.48.23-.97.33-1.45l.11-.5c.11-.51.22-1.03.29-1.54.1-.76.18-1.51.26-2.27.05-.47.1-.94.15-1.41.18-1.55.14-3.11.09-4.3-.01-.26-.04-.52-.08-.79v-.1c-.07,0-.11,0-.17,0l-6.95.04c-3.58.02-7.16.03-10.74.05-.15.02-.26-.02-.39-.03l-.49-.06v-11.65l-.31.11c-.43.16-.85.31-1.27.46-.28.1-.56.19-.84.29-.34.11-.68.23-1.02.35-.44.16-.89.32-1.33.49-.45.17-.91.34-1.36.5-.47.17-.95.33-1.42.5-.4.14-.8.28-1.2.42-1.24.44-2.48.88-3.71,1.33-.05.02-.09.04-.14.06l1.07,2.28c.31.66.62,1.32.94,1.98.05.11.1.22.14.33.07.18.13.34.23.46l.21-.05c.27-.06.54-.12.8-.19l1.2-.31c.47-.12.95-.25,1.42-.37.13-.03.25-.03.36-.02h.48v3.04l-.48.06c-.13.02-.25.03-.38.04-.12,0-.23,0-.35,0h-.22s-2.77,0-2.77,0c-3.38,0-6.76,0-10.14,0-.14,0-.26-.03-.36-.06l-.39-.09v-.46c0-.12,0-.22,0-.32l.08-2.41c.02-.71.04-1.41.06-2.12l.02-1.21c.01-.71.02-1.41.05-2.12,0-.05,0-.1,0-.16-.02-.24-.04-.63.32-.93l.13-.07.24-.07c.19-.06.4-.11.6-.16.25-.06.5-.12.74-.18.38-.09.76-.18,1.13-.27,1.11-.29,2.21-.59,3.31-.9.7-.2,1.4-.41,2.1-.62l.56-.17c.31-.09.62-.19.93-.29l.48-.16c.46-.15.92-.31,1.36-.49.5-.2.99-.43,1.48-.65.27-.12.54-.25.81-.36.72-.32,1.44-.63,2.16-.94.59-.26,1.1-.27,1.61-.03.56.26,1.16.49,1.72.7.62.23,1.24.45,1.85.67l1.8.65c.85.31,1.69.62,2.54.91.98.34,1.96.65,2.95.96l.38.12c.89.28,1.77.55,2.66.81.38.12.77.23,1.16.34l.77.22.06.37c.02.11.05.23.05.37,0,.8,0,1.61,0,2.41v1.69c0,.08,0,.16,0,.24.05,0,.1.01.15.01,1.73.01,3.45.02,5.17.02h0s.01,0,.02,0v-8.88c-.06-.02-.12-.04-.18-.06-.17-.05-.34-.1-.52-.14l-3.6-1c-.54-.15-1.09-.3-1.63-.45-.65-.19-1.3-.38-1.95-.58l-1.22-.36c-.24-.07-.49-.14-.73-.21-.48-.13-.96-.26-1.43-.43-1.31-.46-2.68-.96-4.2-1.53-.75-.28-1.5-.61-2.22-.93-.87-.38-1.69-.75-2.52-1.11l-1.98-.88c-.08-.03-.12-.03-.19.02-.43.28-.81.5-1.17.69-.82.42-1.65.84-2.49,1.24-.81.38-1.68.79-2.59,1.17-.8.33-1.65.67-2.77,1.07-.9.33-1.71.6-2.45.83-.78.24-1.6.46-2.42.66-1.28.3-2.35.55-3.46.76-.9.17-1.88.32-3.08.47-.46.06-.91.08-1.4.11-.14,0-.28.01-.42.02-.01.05-.02.1-.02.14-.02.62-.04,1.23-.05,1.85l-.03,1.37c-.02.97-.04,1.94-.05,2.9-.04,3.69-.08,7.37-.11,11.06l-.02,1.58s0,.08,0,.12c.05,0,.1.02.15.02.13,0,.25,0,.38,0,.1,0,.2,0,.29,0h3.77c5.03,0,10.06,0,15.09,0,.24,0,.54.04.77.33l.08.1v21.33c0,.44,0,.88,0,1.31,0,.21,0,.43,0,.64,0,.3-.01.59,0,.88h5.84s0-.04,0-.06c0-.26,0-.53,0-.8v-.4s0-22.61,0-22.61c0-.11.01-.21.03-.32l.04-.41.38-.06c.09-.02.2-.02.28-.03l7.31.07c1.5.01,3.01.02,4.51.04.14,0,.27.04.38.08l.4.11-.02.51c0,.15,0,.29-.03.43l-.08.72c-.14,1.28-.29,2.6-.64,3.88-.1.38-.19.77-.29,1.15-.13.54-.26,1.1-.43,1.64-.35,1.13-.75,2.25-1.18,3.33-.51,1.27-1,2.38-1.51,3.38-.55,1.09-1.17,2.15-1.77,3.14-.85,1.41-1.82,2.81-2.99,4.28-1.11,1.39-2.32,2.75-3.6,4.03-1.14,1.14-2.42,2.3-3.93,3.52l-.16.13-.29-.11c-.1-.03-.23-.08-.35-.17-.17-.13-.34-.27-.5-.4-.21-.18-.43-.35-.65-.51-1.42-1.01-2.68-2.14-3.72-3.12-1.28-1.2-2.34-2.3-3.24-3.37-.99-1.17-1.81-2.18-2.54-3.28-.64-.95-1.25-1.87-1.8-2.81-.47-.79-.92-1.67-1.39-2.68-.33-.7-.61-1.43-.88-2.13l-.15-.38c-.16-.39-.28-.8-.4-1.21-.13-.46-.25-.92-.36-1.38l-.1-.39c-.11-.46-.23-.92-.31-1.39-.1-.56-.17-1.13-.24-1.71l-.06-.45s-.1-.01-.15-.01c-1.8,0-3.6,0-5.39,0-.06,0-.12,0-.18.02v.05c.05.27.08.52.11.78.14,1.34.45,2.79.98,4.55.33,1.09.71,2.25,1.21,3.33.16.35.32.71.48,1.06.31.7.63,1.42.99,2.1.56,1.06,1.22,2.29,2.01,3.4l.64.92c.46.66.92,1.33,1.41,1.98.87,1.18,1.84,2.27,2.76,3.29,1.38,1.53,2.99,3.08,4.91,4.74.88.76,1.79,1.46,2.63,2.11,1,.77,2.02,1.5,2.8,2.06.43.31.88.6,1.33.9l.45.3s.04-.02.05-.02c.27-.19.53-.38.8-.57.66-.46,1.34-.94,1.97-1.45,1.3-1.04,2.57-2.15,3.65-3.09,1.38-1.21,2.61-2.52,3.62-3.64,1-1.1,1.99-2.32,3.03-3.72,1.01-1.37,1.86-2.65,2.6-3.93.61-1.06,1.18-2.13,1.7-3.18.42-.85.97-1.98,1.43-3.16.49-1.26.93-2.56,1.32-3.79Z"/>
  </g>
</svg>