<?xml version="1.0" encoding="UTF-8"?>
<svg xmlns="http://www.w3.org/2000/svg" viewBox="0 0 108 108">
  <defs>
    <style>
      .cls-1 {
        fill: #282828;
      }

      .cls-1, .cls-2 {
        stroke-width: 0px;
      }

      .cls-2 {
        fill: #e9d5bd;
      }
    </style>
  </defs>
  <g id="bg">
    <circle class="cls-1" cx="54" cy="54" r="54"/>
  </g>
  <g id="icon">
    <path class="cls-2" d="m63.3,53.86c-1.55-1.63-3.1-3.27-4.64-4.92-.34-.37-.69-.75-.95-1.18-.74-1.23-.64-3.24,1.34-3.92.71-.24,1.49-.35,2.24-.36,3.53-.04,7.06-.02,10.6-.02.39,0,.78,0,1.1,0,1.32-2.64,3.06-7.25,3.03-8.04-.36,0-.72,0-1.08,0-11.47,0-22.94-.01-34.41.02-1.59,0-3.22.12-4.77.46-4.31.93-7.54,3.23-8.75,7.69-.86,3.18-.32,6.11,1.89,8.65.57.66,1.19,1.27,1.79,1.91,1.39,1.48,2.84,2.92,4.17,4.46.97,1.11,1.32,2.44.61,3.84-.69,1.36-1.85,1.97-3.37,2.01-1.42.03-2.54-.61-3.49-1.56-1.24-1.23-2.41-2.52-3.61-3.79-.89-.94-1.79-1.87-2.72-2.84-.13.18-.21.26-.25.35-.92,2.44-1.83,4.89-2.76,7.33-.17.46-.09.82.26,1.18.98,1.02,1.9,2.11,2.92,3.09,2.32,2.25,4.97,3.88,8.29,4.21,3.56.36,6.72-.5,9.35-2.95.87-.81,1.58-1.78,2.43-2.77.24.23.51.46.74.72,1.06,1.16,2.23,2.18,3.56,3.03,3.22,2.05,6.7,2.66,10.33,1.42,3.73-1.28,6.44-3.82,7.94-7.46,1.59-3.85,1.17-7.45-1.81-10.58Zm-6.39,8.89c-.72,1.22-2.32,1.92-3.87,1.68-1.2-.18-2.17-.82-2.99-1.67-2.61-2.73-5.2-5.47-7.81-8.2-1.9-2-3.83-3.97-5.7-6-.48-.52-.88-1.16-1.14-1.82-.42-1.06,0-2.17,1.03-2.68.66-.33,1.44-.56,2.18-.58,3.09-.06,6.18-.03,9.27-.02.24,0,.48.08.8.13-.41,1.36-.72,2.57-.55,3.88.23,1.88,1.08,3.44,2.35,4.79,1.74,1.85,3.5,3.68,5.25,5.53.25.26.5.53.72.81,1.1,1.39,1.25,2.79.45,4.13Zm22.87-27.27c-4.63,12.35-9.25,24.66-13.9,37.06h8.84c.79-1.44,13.75-36.26,13.79-37.06h-8.73Zm7.63,34.37c0-.52-.38-.68-.85-.68h-.79v2.2h.5v-.79h.27l.42.79h.56l-.5-.88c.23-.11.39-.31.39-.63Zm-.89.33h-.25v-.62h.25c.26,0,.4.07.4.29s-.14.33-.4.33Zm.03-2.09c-1.26,0-2.22.93-2.23,2.16-.01,1.26,1,2.33,2.22,2.33,1.13,0,2.21-1.05,2.26-2.21.04-1.24-.98-2.28-2.24-2.28Zm.04,4.14c-1.05.05-1.92-.82-1.92-1.91,0-1.09.74-1.84,1.82-1.86,1.08-.02,1.91.73,1.96,1.76.04,1.02-.83,1.98-1.86,2.02Z"/>
  </g>
</svg>