<?xml version="1.0" encoding="UTF-8"?>
<svg xmlns="http://www.w3.org/2000/svg" viewBox="0 0 108 108">
  <defs>
    <style>
      .cls-1 {
        fill: #282828;
      }

      .cls-1, .cls-2 {
        stroke-width: 0px;
      }

      .cls-2 {
        fill: #e9d5bd;
      }
    </style>
  </defs>
  <g id="bg">
    <circle class="cls-1" cx="54" cy="54" r="54"/>
  </g>
  <g id="icon">
    <path class="cls-2" d="m62.47,53.45c.28-.52.52-1.09.64-1.67.49-2.41.54-4.84.12-7.26-.48-2.75-1.85-4.18-4.59-4.71-1.26-.24-2.55-.4-3.82-.41-5.28-.05-10.56-.03-15.84-.03-.15,0-.3.02-.44.03-.14.65-.1,28.79.03,29.17h6.67v-10.59c.14-.03.19-.05.24-.05,2.52,0,5.04-.04,7.56.02,1.84.04,3.18,1.16,3.56,2.87.11.51.14,1.05.15,1.58.02,1.83,0,3.67,0,5.5,0,.2.02.4.03.59h6.69c.01-.19.03-.35.03-.5,0-1.92.02-3.84,0-5.76,0-.75-.06-1.51-.18-2.25-.4-2.45-1.57-4.12-4.12-4.55-.02,0-.03-.02-.07-.04.25-.05.48-.09.71-.14,1.12-.25,2.07-.76,2.63-1.8Zm-5.9-3.04c-.21,1.02-.85,1.51-2.04,1.63-.63.06-1.26.1-1.9.1-2.28.01-4.56,0-6.83,0-.17,0-.33-.01-.53-.02v-6.92c.15-.02.28-.05.41-.05,2.79,0,5.58.01,8.38.03.41,0,.82.08,1.22.16.73.15,1.18.62,1.31,1.35.23,1.24.24,2.49-.02,3.73Zm-46.9-5.31c.25.01.47.03.69.03,2.85,0,5.69,0,8.54,0q.71,0,.72.69c0,.1,0,.21,0,.31,0,7.22,0,14.43,0,21.65,0,.25.02.5.04.78h6.72v-23.44h9.94v-5.73H9.67v5.7Zm74.5,8.93c-.38-.56-.38-.44,0-1.02,2.87-4.33,5.74-8.65,8.62-12.98.12-.18.23-.37.39-.62-.24-.01-.4-.03-.57-.03-2.21,0-4.42.01-6.63-.01-.4,0-.61.14-.81.47-1.46,2.42-2.95,4.83-4.43,7.24-.4.65-.81,1.31-1.25,2.03-.14-.21-.24-.36-.33-.52-1.79-2.92-3.59-5.84-5.37-8.77-.19-.31-.4-.44-.78-.44-2.23.02-4.46,0-6.69,0-.15,0-.3.02-.56.03,3.15,4.74,6.25,9.42,9.37,14.12-3.35,5-6.69,9.99-10.09,15.06.28.01.44.03.6.03,2.23,0,4.46,0,6.69,0,.41,0,.65-.12.87-.47,1.98-3.19,3.97-6.37,5.96-9.55.09-.15.2-.29.33-.47.18.29.32.5.46.72,1.96,3.1,3.92,6.2,5.86,9.31.2.32.42.47.82.47,2.23-.02,4.46,0,6.69-.01.16,0,.32-.02.57-.04-.15-.24-.25-.41-.37-.58-3.12-4.66-6.24-9.31-9.36-13.97Zm12.36-13.59c-.46-.06-.94-.01-1.42-.01v2.45h.49c.02-.3.04-.56.06-.84.49-.19.62.08.74.42.18.51.2.5.7.38-.13-.32-.25-.63-.41-1.01.08-.05.19-.09.25-.17.39-.46.18-1.14-.41-1.21Zm-.01.72c-.04.12-.2.24-.33.28-.15.05-.33.01-.55.01-.01-.2-.02-.36-.04-.62.26,0,.44,0,.62,0,.2.01.36.12.3.32Zm-.37-1.75c-1.25,0-2.27.99-2.29,2.22-.01,1.23,1.01,2.24,2.25,2.24,1.25,0,2.2-.97,2.2-2.22s-.93-2.24-2.17-2.24Zm-.09,4.1c-1.05,0-1.81-.79-1.81-1.88,0-1.08.74-1.83,1.79-1.83,1.05,0,1.83.79,1.82,1.87,0,1.04-.79,1.84-1.8,1.84Z"/>
  </g>
</svg>