<?xml version="1.0" encoding="UTF-8"?>
<svg xmlns="http://www.w3.org/2000/svg" viewBox="0 0 108 108">
  <defs>
    <style>
      .cls-1 {
        fill: #282828;
      }

      .cls-1, .cls-2 {
        stroke-width: 0px;
      }

      .cls-2 {
        fill: #e9d5bd;
      }
    </style>
  </defs>
  <g id="bg">
    <circle class="cls-1" cx="54" cy="54" r="54"/>
  </g>
  <g id="icon">
    <path class="cls-2" d="m37.76,22.59c.25.61.43,1.1.54,1.47.04,0,.17-.04.4-.14.23-.1.35-.15.35-.17,0,0-.01-.03-.03-.06-.02-.03-.03-.05-.03-.07l-.06-.14,3.79-1.57.06.14s.02.04.03.07c.01.03.02.05.02.06.01.02.14-.03.38-.13.25-.1.38-.17.41-.2-.25-.47-.55-1.11-.88-1.91l-.8-1.93c-.33-.8-.58-1.45-.73-1.96-.02-.05-.06-.07-.1-.05-.45.25-1,.5-1.63.76l-1.67.69c-.74.31-1.37.54-1.9.69-.04.02-.04.05-.02.11.19.35.41.82.66,1.43l1.21,2.91Zm2.11-5.18l-.16.42c.14.01.35.07.61.15l-.66.27c-.06-.13-.15-.31-.25-.54l-.6.25c.03.06.07.15.13.27.06.12.1.21.13.27l-.83.34c-.34.14-.62.24-.84.3,0,.02.03.13.11.32.08.19.13.29.15.3.27-.14.55-.27.83-.39l.84-.35c.34.66.66,1.19.97,1.59-.07.21-.12.36-.17.45l-.15-.32c-.63.37-1.17.68-1.62.93l.3.54c.28-.18.71-.44,1.28-.79-.07.11-.11.18-.14.21.19.06.39.16.58.3.16-.24.3-.51.41-.82.22.17.44.25.64.24.25.01.42-.08.5-.28.08-.2.07-.5-.04-.91-.21-.03-.41-.1-.6-.18.15.44.19.66.11.67-.11.02-.25-.06-.42-.23.06-.35.09-.7.08-1.05-.01-.13,0-.23.04-.29.04-.07.05-.12.05-.17,0-.07-.09-.11-.26-.13-.16-.02-.32-.02-.48.01.04.3.06.61.05.93-.18-.29-.36-.6-.53-.94l.55-.23c.18-.08.37-.14.55-.2,0-.02-.03-.12-.1-.3-.08-.18-.12-.28-.14-.27-.01,0-.03.02-.06.03-.03.01-.05.03-.07.03l-.15.06.14-.38c-.2-.09-.42-.15-.67-.17l.76-.32,1.72,4.16-3.79,1.57-1.73-4.16,2.95-1.22Zm-11.37,7.33l2.34,3.1c-.16.16-.32.32-.51.49l.66.6c.77-.77,1.51-1.51,2.21-2.23l-.52-.65c-.21.21-.63.62-1.25,1.24l-.78-1.03,1.33-1.01c.59.47,1.16.79,1.71.94.54.15.98.11,1.32-.14.25-.19.37-.4.37-.65,0-.24-.15-.61-.45-1.09-.25.1-.51.13-.78.09.38.55.51.87.39.96-.15.12-.4.12-.75,0-.35-.12-.73-.32-1.13-.62l.76-.58c.32-.24.59-.43.79-.55,0-.03-.09-.15-.25-.36-.16-.21-.25-.33-.28-.34-.31.27-.58.5-.81.67l-.84.63c-.17-.16-.33-.33-.48-.5l.68-.52c.29-.22.52-.38.71-.48.02-.02.03-.04.01-.06-.23-.25-.47-.55-.73-.89l-.7-.92-2.19,1.66c-.64.48-1.19.86-1.66,1.15-.03.02-.02.06.01.1.24.25.51.58.82,1Zm1.68.88l-.42-.55,1.14-.87c.15.17.31.34.48.5l-1.21.91Zm1.18-3.69l.46.61-2.52,1.91-.46-.61,2.52-1.91Zm35.61-4.69l.71-.3c-.07.19-.1.29-.1.3.11.03.22.06.33.11l.32.12.14-.35,2.54.99-.14.35.34.13c.15.06.26.11.33.15.02,0,.08-.16.2-.47.12-.31.18-.47.17-.5-.38-.12-.71-.23-.98-.33l-1.94-.76c-.36-.14-.67-.28-.94-.42-.02.02-.09.18-.21.48-.02.06-.05.12-.06.17-.13-.38-.35-.76-.66-1.14l-.67.28c.13.18.25.39.37.61.12.23.2.41.24.56Zm26.24,36.73c-.08.02-.18.13-.21.21-.21.54-.03.79.55.78.12,0,.24.01.35,0,.15-.02.22-.12.21-.27-.02-.17-.04-.34-.06-.51-.02-.16-.1-.27-.26-.27-.19,0-.39,0-.58.05Zm-18.67-26.98c.68-.05,1.3-.29,1.88-.71.58-.42,1.19-1.04,1.84-1.85l.48.35c-.68.9-1.18,1.54-1.49,1.92-.32.38-.54.58-.65.62-.09.03-.17.02-.25-.04-.16-.12-.34-.26-.52-.42-.04.29-.14.55-.29.78.18.14.33.25.47.34.13.09.27.15.4.18.14.03.28.01.43-.05.17-.07.45-.32.82-.76.37-.44,1.01-1.26,1.92-2.46.04-.05.11-.15.22-.3l-1.08-.79c.19-.25.48-.64.87-1.18l-.61-.44c-.39.54-.68.93-.87,1.18l-.5-.36.23-.31-1.03-.75.2-.28c.37.21.73.39,1.08.55l.09-.71c-.64-.27-1.48-.74-2.51-1.4-.05.21-.12.41-.2.58.26.18.57.39.93.61l-.17.23-.53-.39c-.17-.12-.34-.26-.51-.4-.02,0-.09.09-.21.25-.12.17-.18.26-.18.28.24.16.42.27.54.36l.53.39-.16.22-.92-.67-1.27,1.75.92.67-.16.22-.47-.34c-.16-.11-.31-.23-.45-.36-.02,0-.09.09-.2.25-.12.16-.18.25-.17.27.22.13.38.24.48.32l.47.34-.25.34c-.33-.2-.71-.44-1.14-.71l-.34.62c.26.15,1.02.59,2.28,1.32.06.25.07.49.05.72Zm1.45-3.9l.42.31-.18.25-.42-.31.18-.25Zm-.05.95l-.19.26-.42-.31.19-.26.42.31Zm-.94-1.67l.42.3-.18.25-.42-.3.18-.25Zm-.66.9l.19-.26.42.3-.19.26-.42-.3Zm.18,1.84l.48.35c.16.12.32.24.47.38.02,0,.09-.09.21-.25.12-.16.18-.25.17-.27-.22-.14-.39-.25-.51-.33l-.48-.35.16-.22.95.69,1.27-1.75-.95-.69.16-.22,1.03.75-.32.44.48.35c-.42.53-.81.97-1.18,1.3-.37.33-.76.57-1.17.72-.4-.24-.73-.44-.99-.6l.21-.29Zm15.39,25.83c0-.18.07-.36.08-.54,0-.09-.04-.23-.11-.26-.26-.12-.84.19-.88.48-.1.76.04,1.47.5,2.08.46.61,1.07.96,1.62.9,1.34-.04,2.22-.38,2.63-1.49.28-.75.18-1.49-.12-2.21-.09-.21-.65-.29-.8-.13-.05.05-.08.15-.07.23,0,.08.05.16.09.24.39.81.1,1.74-.67,2.1-1.13.52-2.27-.15-2.26-1.39Zm3.08-1.87c.09-.03.19-.04.28-.07.14-.04.19-.13.17-.27-.03-.16-.05-.33-.12-.47-.06-.11-.19-.19-.27-.27-.27.06-.47.09-.66.16-.07.03-.17.15-.16.21.05.25.09.53.23.72.12.17.36.03.54-.02Zm-26.71-30.62l.7-.33c-.1-.3-.33-.67-.69-1.12l-.66.29c.12.15.25.35.38.6.13.23.22.42.27.56Zm19.84,22.95s-.03.01-.04.01c-.01.01.03.14.15.39.11.25.18.38.21.39.3-.17.65-.35,1.06-.54l1.08-.5-1.63-3.52-1.09.5c-.41.19-.78.34-1.1.46-.01.03.04.16.15.4.11.24.18.35.2.35,0,0,.01,0,.03-.02.02-.01.03-.02.05-.02l.09-.04.97,2.1-.08.04s-.02,0-.04.02Zm.65-2.84l.97,2.1-.25.12-.97-2.1.25-.12Zm-1.01.47l.26-.12.97,2.1-.26.12-.97-2.1Zm-21.58-18.33l.04.91c.44-.17.82-.32,1.14-.47.09.32.24.59.47.8.22.22.53.41.91.58.89.38,1.81.73,2.76,1.05.12-.22.3-.44.52-.66-1-.3-2-.67-3-1.1-.66-.3-1.03-.69-1.11-1.18l.66-1.68-.69-.27c-.23-.09-.46-.19-.68-.31-.02.01-.08.14-.17.39s-.14.37-.13.39c.12.03.23.07.35.11l.35.14-.4,1.02c-.33.12-.67.22-1.01.29Zm15.2,10.37s.08.14.25.35c.17.2.27.31.31.33.38-.39.88-.84,1.5-1.35l1.56-1.28.43.52.05-.04c-.04.26-.11.48-.19.64l-.13-.15c-.12.1-.29.23-.51.4l-.17-.21c-.06-.07-.11-.15-.16-.21-.01,0-.1.06-.27.19-.17.14-.25.21-.24.22.07.08.13.14.16.18l.15.19c-.67.46-1.28.67-1.81.61,0,.24-.05.46-.14.65.71.06,1.5-.19,2.37-.76l.19.23c-.76.6-1.19.9-1.3.91-.06.01-.12-.01-.16-.07-.05-.05-.11-.15-.2-.28-.08.18-.21.36-.4.53.11.13.19.23.25.29.06.06.14.12.22.17.09.05.18.07.26.06.09-.01.19-.05.3-.12,0,.24-.04.46-.14.67.72.07,1.5-.16,2.36-.71l.2.24c-.75.59-1.18.89-1.28.9-.07,0-.12-.02-.16-.07-.09-.11-.16-.21-.22-.3-.1.21-.23.39-.41.55.02.02.04.05.07.09.16.19.28.32.37.38.09.07.21.09.37.08.12,0,.31-.1.58-.29.27-.19.73-.54,1.38-1.05.04-.03.12-.09.22-.17l-.58-.71c.13-.09.3-.23.54-.41l-.43-.52c-.16.12-.34.26-.53.41l-.16-.19c-.06-.07-.1-.13-.15-.2-.01,0-.1.06-.27.19-.17.14-.25.21-.24.22.07.07.12.12.15.16l.15.18c-.67.44-1.26.63-1.78.55.28-.16.84-.57,1.68-1.24.05-.03.12-.09.22-.17l-.56-.68c.18-.14.35-.27.51-.39l-.28-.35c.42.22.81.34,1.18.37.37.03.74-.03,1.1-.17l.61.75c-.37.25-.61.37-.72.36-.05,0-.11-.04-.18-.12-.15-.18-.27-.35-.37-.49-.07.2-.21.4-.41.59.19.26.35.45.49.57.15.15.31.23.46.23.24,0,.73-.26,1.49-.8l.23-.16-1.01-1.23c.25-.15.45-.28.58-.37l-.47-.57c-.2.14-.38.27-.57.39l-.37-.45c-.12-.15-.24-.3-.35-.47-.02,0-.11.07-.29.21-.17.14-.26.22-.26.24.11.12.22.24.32.36l.31.38c-.5.15-1.03.05-1.61-.28l.51-.42-.43-.52.78-.64c.16-.13.37-.23.62-.3.03-.03-.02-.13-.15-.31-.13-.18-.26-.34-.38-.48-.24.23-.46.43-.67.6l-.68.56-.23-.28c-.1-.12-.17-.22-.21-.29-.02,0-.12.07-.32.24-.2.16-.3.25-.3.27.09.08.17.17.25.27l.23.28-2.35,1.93c-.29.24-.56.44-.8.6Zm-9.09-12.06c.27.11.5.21.69.31.02-.01.06-.11.14-.29.07-.18.1-.29.1-.31-.27-.08-.5-.16-.72-.24l-.71-.28.05-.13s.06-.08.13-.11c.02-.04-.07-.1-.25-.19s-.35-.16-.52-.21l-.06.2-.07.17-.69-.27c-.27-.1-.49-.2-.67-.3-.02.01-.06.11-.14.29-.07.18-.1.29-.1.31.26.08.49.16.7.24l.69.27-.09.23-.63-.25c-.21-.08-.41-.17-.61-.27-.02,0-.04,0-.05.01-.07.25-.18.57-.33.97l-.38.96,1.25.49-.09.24-.8-.31c-.33-.13-.6-.25-.78-.35-.02.01-.07.12-.14.31-.08.2-.11.3-.11.33.27.08.54.17.81.27l.8.31-.09.22s-.05.11-.1.2c0,.02.12.08.36.18.24.09.36.13.38.11.02-.07.04-.14.07-.22l.08-.22.84.33c.35.14.63.26.82.37.02-.01.07-.12.14-.31.08-.2.11-.3.11-.33-.29-.08-.57-.18-.85-.29l-.84-.33.09-.24,1.31.51.75-1.92-1.31-.51.09-.23.71.28Zm-2.07,1.12l-.63-.25.1-.26.63.25-.1.26Zm.27-.7l-.63-.25.1-.26.63.25-.1.26Zm1.09,1.23l-.66-.26.1-.26.66.26-.1.26Zm.37-.96l-.1.26-.66-.26.1-.26.66.26Zm-23.48-2.37l.37,2.71c.05.38.08.68.08.9.02.02.15.01.38-.02.23-.03.35-.06.35-.08-.02-.09-.04-.18-.05-.28l-.04-.28c.19.16.34.33.44.51.21-.23.39-.5.52-.83.28.21.59.34.92.4.34.05.74.05,1.19-.02l1.64-.23c0-.28.05-.54.14-.78-.24.04-.85.13-1.83.27-.4.05-.74.05-1.04,0s-.56-.17-.79-.37c.16-.68.2-1.55.13-2.61l-.41-.02-.12.03-.25.03c.17-.68.31-1.31.42-1.89l-.5-.07-.11.05-.74.1s0-.05.02-.08c0-.04.01-.07.01-.09,0-.03.02-.05.04-.06.02,0,.03-.02.04-.03,0,0,0-.01-.02-.02-.01,0-.04-.02-.07-.03-.03,0-.06-.02-.1-.03-.04,0-.08-.02-.13-.03-.05-.01-.1-.02-.14-.04-.05-.01-.1-.02-.15-.03-.05-.01-.11-.02-.16-.03-.14,1.07-.41,1.96-.82,2.67.18.26.34.55.46.86.14-.25.24-.46.31-.62Zm.67-2.2l.06.42.51-.07c-.19.88-.35,1.57-.49,2.07l.65.06.08-.3.32-.04c.01.44,0,.86-.06,1.26-.13-.25-.24-.5-.33-.76l-.56.26c.2.57.43,1.03.68,1.39-.12.33-.27.59-.45.78l-.59-4.29c.09-.33.15-.59.18-.76Zm-7.38,5.48l-.51-1.23-1.36.57.51,1.23,1.36-.57Zm-.83-.62l.17.42-.4.17-.17-.42.4-.17Zm9.89-4.7c.13-.03.26-.06.41-.08l.4-.06.04.31-.62.09c-.2.03-.41.05-.62.06-.01.02,0,.13.03.33.03.21.05.32.07.33.28-.06.48-.09.62-.11l.62-.09.04.33-.4.06c-.18.02-.32.04-.41.04-.01.01,0,.12.02.32.03.2.05.31.06.32.13-.03.26-.06.41-.08l.4-.06.04.33-.44.06c-.2.03-.35.04-.45.04-.01.01,0,.12.02.32.03.2.05.31.06.32.15-.03.29-.06.45-.08l.44-.06.05.34-.53.07c-.18.02-.36.04-.53.04-.01.02,0,.13.03.33.03.21.05.31.07.33.29-.06.46-.1.52-.11l.53-.07.04.33c.02.11.03.21.03.31,0,.02.13,0,.37-.02.24-.03.36-.06.36-.08-.02-.1-.04-.2-.06-.31l-.04-.33.97-.13c.12-.02.23-.03.33-.03.01-.01,0-.12-.02-.32-.03-.2-.05-.31-.06-.32-.28.06-.5.1-.65.12l-.65.09-.05-.34.57-.08c.19-.03.38-.04.57-.05.01-.02,0-.13-.03-.33-.03-.2-.05-.31-.06-.32-.25.05-.44.09-.56.11l-.57.08-.05-.33,1.11-.15-.13-.92.16-.02s.05,0,.09,0c.04,0,.07,0,.08,0,.01,0,0-.11-.02-.31-.03-.2-.05-.3-.06-.31-.02,0-.04,0-.08.01-.04,0-.06.01-.08.01l-.16.02-.12-.9-1.11.15-.03-.22c-.01-.08.01-.16.07-.24,0-.04-.11-.06-.3-.04-.2.01-.37.03-.53.06.02.12.04.21.05.28l.04.26-.4.06c-.18.02-.32.04-.41.04-.01.01,0,.12.02.32.03.2.05.31.06.32Zm2.14.94l-.46.06-.04-.33.46-.06.04.33Zm-.17-1.24l.04.31-.46.06-.04-.31.46-.06Zm4.94,5.22c1.43-.29,2.7-.78,3.79-1.47l-.1.89c-.01.1-.08.15-.2.14-.29-.01-.63-.05-1-.12.12.35.18.65.18.9.66.08,1.11.08,1.35,0,.15-.05.26-.14.33-.26.07-.13.12-.31.15-.56l.18-1.63c.25-.21.52-.47.81-.77.08-.1.16-.16.23-.17.07-.02.12-.05.15-.08.04-.05-.01-.15-.16-.3-.15-.16-.31-.3-.5-.42-.09.13-.22.29-.39.48l.11-.97c.04-.4.09-.72.14-.96,0-.02,0-.04-.04-.04-.23,0-.5-.02-.82-.05l-.82-.09c.19-.29.31-.47.36-.55l-.94-.2c-.06.16-.15.38-.28.65l-.69-.07c-.26-.03-.49-.06-.67-.11-.02,0-.03,0-.04.03,0,.23-.02.5-.05.82l-.26,2.43c-.38-.03-.71-.05-.97-.06l.02.84c.36.02,1.21.04,2.57.06-.87.4-1.83.69-2.88.85.2.3.35.57.45.82Zm1.87-4.95l2.28.25-.04.41-2.28-.25.04-.41Zm-.11,1l2.28.25-.05.42-2.28-.25.04-.42Zm-.16,1.49l.05-.46,2.28.25v.13s-.06.04-.13.08-.12.08-.16.11c-.85-.04-1.53-.08-2.04-.1Zm29.65,19.42s-.04.03-.03.06c.17.29.34.62.53,1.02l.96,2.08c.18.39.33.75.44,1.06.01.02.03.03.06.02.19-.12.46-.26.81-.42l.83-.39c0,.09.01.23.03.41.39.03.66.07.82.12-.1-.54-.13-1.09-.09-1.65.04-.57.14-1.09.32-1.57l-.31-.67c-.4-.11-.84-.33-1.32-.66-.48-.32-.91-.69-1.28-1.1-.1.21-.24.42-.42.64.12.12.24.23.34.33l-.83.39c-.45.21-.74.33-.85.35Zm1.3,1.58l-.28-.61.3.33c.21-.15.4-.33.57-.56l.21.46-.8.37Zm.27.57l.8-.37.2.44c-.21.04-.48.07-.82.08l.06.4-.25-.55Zm.56,1.21l-.23-.51h.38s.12,0,.22,0c.1,0,.18,0,.23,0l-.09-.53.3.65-.8.37Zm1.82-2.67c-.1.28-.17.58-.23.91l-.6-1.3c.34.19.62.32.83.39Zm-1.25-.65l-.24.11.97,2.1.22-.1c-.03.37-.05.73-.04,1.09l-1.79-3.86c.33.27.62.5.88.67Zm-.82.67l-.36-.4c-.19.23-.37.4-.56.51l-.19-.42.8-.37.31.67Zm-40.2,2.99c0-1.38-1.12-2.51-2.51-2.51s-2.51,1.12-2.51,2.51,1.12,2.51,2.51,2.51,2.51-1.12,2.51-2.51Zm14.26,50.46c-.32-.14-.62-.34-.92-.53-.14-.09-.26-.2-.23-.39.04-.21.2-.31.38-.35.22-.05.44-.07.67-.08.25,0,.33-.09.27-.34-.09-.37-.3-.53-.67-.51-.45.03-.87.15-1.26.38-.41.23-.66.67-.53,1.05.18.54.48,1.01,1.05,1.24.3.12.58.28.84.47.44.3.4.68-.08.91-.08.04-.19.07-.28.06-.21,0-.43-.04-.64-.06-.21-.03-.26.02-.23.22.09.56.24.69.91.68.49-.04,1.08-.15,1.51-.65.27-.31.36-.81.16-1.18-.22-.41-.52-.73-.96-.92Zm4.01-42.5h-.71v.47h.71v-.47Zm20.52,5.77c0-18.34-14.92-33.26-33.27-33.26s-33.26,14.92-33.26,33.26,14.92,33.27,33.26,33.27,33.27-14.92,33.27-33.27ZM54.19,22.19c17.89,0,32.44,14.55,32.44,32.44,0,2.25-.23,4.44-.67,6.56.8-11.01-9.94-22.79-25.73-27.42-15.38-4.5-30.39-.71-36.03,8.47,4.88-11.76,16.48-20.06,29.98-20.06Zm17.5,30.46c-.06.07-.12.1-.17.1s-.09-.03-.09-.09l-.18-.58c.96-.18,1.89-.45,2.8-.81v-.75h-1.99v-.49h1.99v-.39h-2.63v.08c0,.64-.06,1.22-.16,1.72-.08.38-.23.86-.45,1.44l-.74-.29c.22-.49.36-.92.45-1.29.1-.54.16-1.07.16-1.59v-2.35h3.24v-.44l.76.05c.14.01.22.04.22.09,0,.03-.06.09-.16.15v.16h2.97v.54h-2.87v.38h2v.83h1.01v.52h-1.01v.88h-1.82c.24.32.53.6.84.83.42-.21.8-.42,1.12-.64l.53.42s.05.07.05.1c0,.04-.09.05-.24.05-.31.15-.62.28-.93.41.42.24.93.46,1.51.65l-.74.44c-.59-.24-1.09-.5-1.51-.81-.29-.19-.54-.42-.79-.68v.82c0,.26-.09.45-.28.58-.16.13-.55.2-1.18.2l-.3-.6h.62c.22,0,.34-.09.35-.29v-.23c-.57.24-1.36.53-2.36.88Zm-.2-1.68l.5-.36c.54.18,1,.37,1.38.57l-.47.39c-.44-.22-.92-.42-1.42-.6Zm-10.91-.7l-.54-.41c.36-.45.67-.91.93-1.37.24-.42.48-.95.72-1.59l.67.23c.07.03.11.05.11.08,0,.07-.07.12-.2.16-.2.44-.38.82-.54,1.13v4.38h-.67v-3.28c-.16.22-.31.44-.48.66Zm1.52.36l.54-.16c.17.32.35.58.5.77.12-.33.22-.8.28-1.41h-.63l-.18.29-.61-.16,1.14-1.86h-.84v-.52h1.01l.16-.03c.07,0,.13.02.18.05l.39.19c.05.03.08.05.08.08,0,.05-.06.11-.17.15l-.84,1.3h.98c-.05.86-.14,1.5-.27,1.91-.06.19-.13.34-.2.48.27.19.57.31.9.39.47.13,1.39.2,2.78.2h.91l-.34.57c-1.18,0-2.08-.04-2.71-.11-.52-.06-.93-.15-1.26-.28-.22-.09-.42-.19-.6-.31-.02.03-.03.05-.05.06-.19.2-.48.41-.86.64l-.54-.39c.33-.16.58-.32.75-.48.08-.07.15-.14.22-.22-.23-.24-.48-.62-.73-1.14Zm2.3-2.69v-.47h1.12v-.54l.66.04c.12,0,.18.03.18.07,0,.03-.04.09-.13.15v.29h1.42v.94h.44v.46h-.44v.93h-1.42v.44h1.42v.44h-1.42v.44h1.62v.49h-1.62v.5h-.71v-.5h-1.35v-.49h1.35v-.44h-1.12v-.44h1.12v-.44h-1.12v-.46h1.12v-.47h-1.45v-.46h1.45v-.46h-1.12Zm-25.78-11.16c1.47-.46,3.04-.71,4.66-.71,4.48,0,8.52,1.89,11.36,4.92-4.48.93-8.19,3.67-10.17,7.33.06-4.64-2.22-8.85-5.85-11.54Zm2.01,10.37c-.43,6.71-3.97,12.35-8.82,15.06-2.56-2.78-4.12-6.48-4.12-10.55,0-6.97,4.57-12.86,10.87-14.86,1.53,2.99,2.31,6.56,2.06,10.35Zm13.56,39.94c-17.89,0-32.44-14.55-32.44-32.44,0-1.11.06-2.2.17-3.29.56,10.39,10.93,21.03,25.75,25.37,11,3.22,21.8,2.2,29.13-2h-19.22v-16.84c-2.4,5.51-7.9,9.37-14.3,9.37-4.53,0-8.61-1.94-11.46-5.03,4.85-.72,8.98-3.65,11.11-7.75.03,4.73,2.69,8.89,6.71,11.34-1.75-2.78-2.78-6.19-2.78-9.87,0-6.43,3.15-12.03,7.8-14.93,2.61,2.79,4.21,6.53,4.21,10.65,0,1.14-.12,2.24-.36,3.31h19.56v.54h-19.69c-.08.32-.17.64-.27.95v8.12h19.76v.54h-19.76v9.07h19.57c2.39-1.52,4.36-3.39,5.78-5.59-5.23,10.93-16.39,18.49-29.28,18.49Zm23.18-17.35v2.67h-.78v-.39h-2.77v.42h-.78v-2.69h1.76v-.86h-2.46v-.54h2.46v-.94c-.54.06-1.1.11-1.65.14l-.51-.52c.88-.03,1.64-.07,2.27-.15.56-.05,1.26-.15,2.09-.3l.53.4s.05.06.05.09c0,.04-.03.05-.1.05l-.2-.03c-.1,0-.23.01-.36.03-.43.07-.87.13-1.3.19v1.03h2.3v.54h-2.3v.86h1.76Zm-6.68-1.43c.52.23.95.47,1.31.72l-.5.42c-.42-.27-.87-.51-1.36-.73l.54-.41Zm-.14-1.35l.54-.42c.48.19.9.38,1.25.6l-.5.42c-.4-.22-.82-.42-1.29-.6Zm1.38,3.03l.48.44c-.46.66-.94,1.27-1.45,1.84,0,.14-.06.21-.16.21l-.65-.42c.66-.61,1.25-1.3,1.79-2.07Zm3.93-9.16c-.04.13-.09.24-.12.32-.18.39-.44.7-.79.94-.27.19-.62.36-1.06.52l-.51-.49c.55-.17.94-.36,1.17-.57.22-.18.39-.4.5-.66,0-.02.02-.04.03-.07h-1.18v-.52h1.33c.02-.15.03-.3.05-.46l.75.07c.1,0,.16.03.16.06,0,.06-.06.11-.17.16-.02.07-.03.13-.03.18h1.69c0,.89-.05,1.45-.14,1.68-.06.23-.19.38-.39.46-.21.09-.56.14-1.05.14l-.37-.6c.49,0,.79-.02.88-.07.09-.03.16-.12.21-.25.06-.11.1-.4.11-.85h-1.06Zm1.54-.83c-.5-.11-.92-.23-1.27-.38-.07-.03-.14-.06-.19-.09-.41.18-.97.34-1.68.47l-.48-.36-.37.81-.64-.19.38-.83h-.58v2.54c0,.22-.1.38-.29.48-.16.11-.55.17-1.19.17l-.3-.57h.67c.23,0,.36-.06.38-.18v-1.75c-.12.24-.22.43-.33.58-.22.32-.5.64-.86.98l-.64-.44c.38-.28.7-.58.98-.91.16-.19.35-.5.57-.91h-1.38v-.52h2.08c-.55-.23-1.09-.42-1.61-.57l.5-.36c.23.07.47.13.69.21l.74-.7h-2.2v-.52h2.59l.21-.05c.07,0,.13.02.19.05l.41.21c.05.03.08.05.08.08,0,.05-.06.11-.17.16l-1.21.99c.2.08.39.15.57.23l-.39.29h.56l.2-.05c.07,0,.13.02.2.05l.4.2c.05.03.08.06.08.09,0,.05-.06.11-.16.16l-.06.12c.62-.08,1.09-.19,1.42-.31.02,0,.03,0,.03-.01-.05-.03-.1-.07-.14-.11-.24-.2-.43-.42-.57-.68-.02-.03-.03-.05-.04-.08-.17.21-.35.4-.54.59l-.72-.31c.6-.5,1.08-1.12,1.45-1.84l.65.18c.09.03.13.05.13.08s-.03.05-.07.08c-.05.01-.14.12-.26.31h2.63v.52h-.61c-.03.38-.12.67-.28.86-.09.15-.21.27-.36.39.07.03.14.05.21.07.31.1.73.18,1.25.23l-.64.54Zm-11.77.77c-.16-.26-.31-.62-.43-1.08h-.29v2.73h-.71v-5.57h3.45c0,.79-.04,1.29-.13,1.49-.06.21-.18.34-.35.41-.19.08-.52.12-.97.12l-.34-.57c.43,0,.7-.01.79-.05.07-.03.13-.1.18-.22.05-.09.09-.32.1-.68h-2.02v1.86h2.52c.07-.03.13-.05.18-.05l.1.06.31.27c.03.05.06.09.06.12,0,.04-.09.09-.24.15-.24.65-.47,1.12-.67,1.41-.06.1-.13.19-.2.28.3.27.71.54,1.21.8l-.71.42c-.36-.27-.68-.52-.94-.75-.25.23-.59.48-1.01.75l-.54-.44c.48-.28.85-.54,1.11-.78-.19-.23-.34-.44-.45-.66Zm-4.1-.25c-.03.23-.06.44-.1.64-.1.56-.27,1.05-.48,1.49l-.71-.29c.22-.41.39-.84.48-1.29.1-.56.16-1.11.16-1.66v-2.59h2.63v5.29c0,.25-.21.42-.61.5-.32.07-.63.1-.94.1l-.28-.54h.79c.22-.03.33-.09.33-.21v-1.43h-1.28Zm.23,9.75v-.54h2.37v-1.3h-2.14s-.03.06-.05.09c-.26.38-.55.72-.88,1.03l-.78-.38c.42-.34.74-.7.99-1.07.25-.35.48-.82.71-1.42l.82.21c.08.03.12.06.12.11,0,.03-.09.06-.27.1-.1.29-.22.56-.35.8h1.83v-1.4l.71.05c.13.01.2.04.2.09,0,.03-.05.09-.14.15v1.11h2.6v.54h-2.6v1.3h2.27v.54h-2.27v1.35h3.04v.54h-7.39v-.54h3.58v-1.35h-2.37Zm4.51,20.29c-.42-.21-.89-.3-1.27-.61-.32-.26-.33-.45.04-.65.24-.13.47-.25.76-.22.18.02.29-.08.27-.27-.03-.3-.39-.59-.69-.54-.45.08-.88.22-1.25.49-.58.43-.65.89-.26,1.51.3.47.73.74,1.25.86.32.07.54.26.77.46.21.19.19.44-.05.6-.32.22-.66.35-1.06.21-.22-.08-.31.01-.24.24.04.12.11.24.15.36.08.21.23.3.52.29.63-.1,1.32-.21,1.76-.85.09-.14.16-.31.18-.47.06-.49-.39-1.15-.88-1.39Zm3.13-3.85c-1.28.01-2.62,1.17-2.53,2.47.08,1.19.99,2.61,2.47,2.52,1.52.02,2.49-1.04,2.48-2.47-.02-1.34-1.01-2.54-2.42-2.52Zm.51,4.07c-.46.16-.91.05-1.25-.3-.41-.41-.7-.9-.69-1.53-.13-.64.89-1.45,1.58-1.24.49.14.83.52,1.03.97.15.32.2.67.15,1.04-.07.53-.35.89-.83,1.06Zm-3.15-30.22c.12-.23.26-.52.41-.88h-1.31c.16.52.38.93.66,1.26.09-.12.16-.25.25-.38Zm-3.95-1.62h-1.21v.46c0,.23,0,.43-.03.62h1.24v-1.09Zm12.46-.66c.11.17.29.34.53.5.05.04.09.07.14.09.07-.05.12-.09.17-.14.22-.19.35-.46.4-.82h-1.44c.03.13.1.26.2.37Zm-1.45,13.18h2.77v-1.19h-2.77v1.19Zm2.25,16.26c-.13-.29-.23-.31-.48-.11-.15.12-.28.28-.44.37-.25.14-.52.3-.79.33-.39.05-.77-.09-1.07-.35-.27-.23-.42-.53-.54-.87-.18-.54.02-1.24.5-1.54.27-.17.53-.36.89-.35.2,0,.26-.12.2-.3-.18-.52-.67-.7-1.14-.42-.24.14-.49.28-.71.45-.58.44-.92,1.04-.92,1.77,0,.44.15.87.37,1.26.45.77,1.02,1.37,2.01,1.35.27-.04.56-.05.82-.13.49-.15.89-.47,1.29-.78.17-.13.22-.29.11-.48-.04-.07-.07-.13-.1-.2ZM22.44,31.41c-.32.4-.59.72-.82.95.01.03.11.11.29.26.18.14.28.21.3.21.08-.12.14-.2.19-.27l.21-.27.33.26-.37.46c-.12.15-.25.3-.38.44,0,.02.1.1.28.25.19.15.29.22.31.22.15-.22.26-.38.34-.48l.37-.46.34.27-.23.29c-.1.12-.17.21-.24.27,0,.02.09.1.28.24.18.15.29.22.32.22.26-.39.47-.69.62-.88l.66-.84.32.26-.78.98c-.31.39-.58.7-.81.94.01.03.12.12.31.27.19.15.31.23.34.24.24-.36.48-.7.72-1l.78-.98.33.26c.12.09.22.18.31.28.02,0,.12-.09.28-.3.16-.21.24-.32.23-.34-.08-.05-.2-.13-.34-.24l-.33-.26.8-1.01c.32-.4.6-.73.83-.97-.01-.03-.12-.12-.31-.27-.19-.15-.31-.23-.34-.24-.25.38-.5.73-.75,1.04l-.8,1.01-.32-.26.7-.88c.24-.3.48-.58.74-.85,0-.02-.11-.11-.29-.26-.19-.15-.28-.22-.3-.21-.07.11-.14.22-.23.32l-.25.32-.34-.27.37-.46c.12-.15.25-.3.38-.44,0-.02-.1-.1-.28-.25-.19-.15-.29-.22-.31-.22-.14.21-.26.37-.34.47l-.37.46-.33-.26.22-.28c.09-.11.17-.2.23-.26,0-.02-.09-.1-.28-.24-.19-.15-.29-.22-.32-.23-.25.37-.49.71-.73,1.01l-1.55,1.97Zm.95.58l-.33-.26.42-.54.33.26-.42.54Zm.89.71l-.34-.27.42-.54.34.27-.42.54Zm1.01-1.99l.34.27-.45.57-.34-.27.45-.57Zm-.55-.43l-.45.57-.33-.26.45-.57.33.26Zm35.71,63.38c-.58-1.1-1.17-2.2-1.74-3.31-.13-.24-.3-.36-.57-.33-.1,0-.19.02-.29.03-.45.04-.49.06-.61.48-.15.51-.28,1.02-.43,1.52-.14.51-.3,1.01-.44,1.52-.1.36-.22.72-.31,1.09-.06.24.06.37.32.34.13-.01.26-.04.39-.04.23,0,.36-.12.42-.33.09-.33.18-.67.24-1.01.04-.2.12-.31.33-.33.24-.02.47-.07.7-.12.44-.1.58-.03.76.36.12.24.23.49.34.73.09.2.24.3.46.27.16-.02.32-.04.48-.08.27-.06.33-.2.18-.45-.07-.12-.17-.23-.23-.35Zm-2.12-1.42c-.1.07-.24.07-.42.12-.04-.06-.15-.15-.14-.21.04-.29.11-.57.19-.85.04-.13.18-.13.24,0,.1.22.2.45.27.69.02.07-.06.21-.13.25Zm34.42-31.34c-.22,0-.4.31-.41.72,0,.29.2.41.74.43.24,0,.46-.3.47-.67,0-.25-.36-.47-.81-.48Zm.11,1.83c-.47.1-.94.22-1.42.33-.4.09-.43.09-.48-.3-.08-.53-.84-1.11-1.35-1.05-.53,0-1.08.52-1.18,1.09-.09.5-.22.99-.36,1.47-.12.4-.07.52.33.64.08.02.17.03.25.05.54.12,1.07.25,1.6.38.64.15,1.27.32,1.92.47.26.06.35,0,.43-.26.02-.06.03-.13.05-.19.12-.34.1-.41-.25-.51-.41-.12-.84-.2-1.26-.3-.63-.15-1.26-.31-1.88-.46-.17-.04-.28-.14-.23-.32.08-.25.16-.51.3-.74.13-.23.39-.24.63-.1.33.2.43.48.35.86-.06.29,0,.36.29.36.18,0,.37-.03.55-.06.37-.06.74-.17,1.12-.19.52-.03.86-.18.96-.76.06-.37.03-.48-.35-.4Zm-17.61,20.98c-.17-.24-.33-.26-.57-.09-.07.05-.13.11-.2.16-.3.21-.32.3-.11.6.73,1.06,1.45,2.12,2.18,3.17.05.07.1.15.17.19.22.13.87-.28.87-.59-.03-.05-.07-.14-.12-.21-.73-1.08-1.47-2.15-2.21-3.23ZM54.19,11.3c-23.89,0-43.33,19.44-43.33,43.33s19.44,43.33,43.33,43.33,43.33-19.44,43.33-43.33S78.08,11.3,54.19,11.3Zm0,85.84c-23.44,0-42.51-19.07-42.51-42.51S30.75,12.12,54.19,12.12s42.51,19.07,42.51,42.51-19.07,42.51-42.51,42.51Zm36.16-27.35c-.51-.23-1.03-.44-1.54-.67-.55-.25-1.09-.51-1.64-.75-.32-.14-.47-.07-.6.26-.15.39-.1.53.23.67.52.22,1.04.46,1.56.69.21.09.41.19.61.29.05.03.07.1.11.15-.06.03-.12.08-.18.09-.65.06-1.31.12-1.96.18-.28.03-.56.06-.84.09-.39,0-.51.07-.65.43-.05.13-.12.25-.19.37-.15.27-.07.52.21.64.45.2.91.38,1.36.59.72.32,1.43.65,2.14.99.28.13.49.06.6-.22.03-.07.05-.14.08-.21.09-.18.04-.32-.13-.4-.28-.14-.57-.26-.85-.39-.41-.19-.82-.37-1.23-.56-.13-.06-.25-.13-.37-.2.14-.05.28-.14.42-.15.72-.09,1.43-.17,2.15-.25.2-.02.41-.05.6-.11.15-.05.32-.12.4-.24.15-.21.25-.45.34-.69.03-.08-.02-.24-.09-.3-.16-.12-.35-.21-.54-.29Zm3.46-13.09c-.45-.77-1.14-1.22-2.04-1.29-.79-.06-1.49.13-2.04.75-.43.48-.59,1.06-.62,1.81.02.13.06.37.11.61.12.54.41.97.87,1.27.57.37,1.2.49,1.88.42.67-.07,1.18-.36,1.59-.88.28-.36.39-.78.52-1.21.16-.54,0-1.04-.27-1.49Zm-1.27,2.28c-.18.07-.36.15-.54.21-.09.03-.19.02-.25.02-.56-.02-1.04-.14-1.4-.55-.54-.63-.29-1.78.51-2.02.86-.25,1.59-.16,2.17.61.43.57.17,1.47-.5,1.73Zm-10.85,24.69c-.06-.04-.13-.08-.19-.12-.73-.42-1.46-.83-2.19-1.25-.49-.28-.97-.56-1.46-.83-.09-.05-.25-.07-.32-.02-.23.16-.44.35-.64.54-.06.05-.07.15-.09.2.02.14.03.25.06.36.15.49.3.97.45,1.45.11.35.22.7.33,1.05.14.48.27.97.41,1.46.03.09.07.18.13.26.09.11.2.13.31.03.15-.13.31-.24.42-.4.08-.11.15-.29.12-.4-.09-.33-.21-.66-.35-.97-.09-.2-.07-.35.09-.49.24-.2.48-.4.72-.6.15-.12.31-.14.48-.04.21.13.43.25.63.39.46.31.47.32.92-.03.05-.04.11-.07.16-.11.23-.16.23-.3,0-.47Zm-3.31,0s-.17-.04-.2-.1c-.1-.24-.18-.48-.25-.72-.01-.05.03-.11.06-.19.13.06.22.1.3.15.08.05.16.11.23.17.09.09.26.25.25.28-.1.15-.24.29-.39.4Zm7.25-10.72c-1.2-.02-2.37,1.19-2.39,2.65-.01,1.27,1.51,2.45,2.6,2.34,1.06.16,2.47-1.21,2.43-2.38-.04-1.44-1.23-2.58-2.64-2.61Zm1.44,3.49c-.26.35-.62.45-.98.48-.82-.04-1.63-.59-1.84-1.3-.14-.48.27-1.3.75-1.47.78-.28,1.74.13,2.14.87.27.5.28.95-.06,1.42Zm-4.15,4.04c-.45-.42-.9-.84-1.35-1.26-.14-.13-.17-.27-.03-.42.15-.17.3-.34.44-.51.05-.06.14-.18.12-.21-.11-.18-.23-.36-.39-.49-.16-.13-.3,0-.41.13-.38.41-.76.83-1.14,1.24-.26.29-.53.56-.79.86-.31.35-.3.36.04.65.03.03.06.06.09.09.17.15.28.15.44-.03.13-.15.24-.31.36-.45.21-.23.3-.24.53-.03.49.44.97.89,1.45,1.33.29.26.57.53.86.79.21.18.35.17.53-.03.11-.12.21-.25.3-.38.04-.05.05-.12.08-.19-.03-.05-.06-.12-.1-.16-.34-.31-.69-.61-1.04-.93Zm2.3-1.82c-.85-.66-1.71-1.32-2.55-1.98-.28-.22-.38-.22-.61.05-.05.06-.09.12-.14.18-.27.33-.27.37.07.64,1.03.82,2.07,1.62,3.1,2.43.06.05.14.09.23.14.09-.07.17-.11.24-.18.1-.1.18-.21.27-.32.18-.21.17-.35-.04-.52-.18-.15-.38-.29-.57-.43Zm-22.4-21.32h-1.21v1.11h1.21v-1.11Zm-35.49,26.33c-.17-.16-.17-.27,0-.44.1-.1.2-.2.3-.3.2-.21.27-.21.48,0,.27.26.54.52.82.78.21.2.28.19.48-.02.06-.06.12-.12.18-.19.12-.15.11-.29-.03-.43-.27-.25-.53-.51-.8-.76-.26-.24-.27-.25-.04-.55.03-.04.06-.09.1-.13.21-.26.39-.27.62-.04.29.29.59.57.88.86.12.12.25.22.39.12.17-.12.3-.29.48-.46-.16-.19-.28-.34-.41-.47-.51-.48-1.03-.94-1.55-1.42-.24-.22-.31-.23-.53,0-.25.27-.5.54-.75.81-.65.7-1.31,1.4-1.96,2.11-.21.22-.21.32-.03.49.57.54,1.14,1.09,1.71,1.63.18.17.32.17.52.02.07-.06.14-.14.2-.21.18-.22.17-.3-.04-.48-.34-.3-.68-.6-1.01-.91Zm-8.18-17.68c.3-.08.36-.03.43.26.06.22.13.43.22.64.11.23.32.26.53.09.07-.05.15-.1.19-.17.05-.08.1-.2.07-.29-.26-.89-.54-1.77-.82-2.65-.17-.54-.23-.62-.76-.34-.18.1-.24.22-.16.42.09.21.13.43.2.65.05.16-.02.25-.16.3-.28.09-.55.19-.83.27-.75.22-1.51.44-2.27.66-.18.05-.26.17-.26.41.04.1.08.26.14.4.09.23.21.3.46.24.41-.11.81-.23,1.21-.35.6-.18,1.2-.36,1.8-.53Zm-3.37-2.39c-.08-.41-.17-.82-.28-1.23-.07-.26-.05-.32.22-.38.93-.19,1.86-.38,2.79-.55.69-.13.72-.15.59-.83-.05-.24-.13-.31-.38-.3-.62.12-1.26.25-1.89.38-.68.14-1.35.28-2.02.42-.34.07-.4.12-.33.48.13.66.27,1.31.4,1.96.02.08.04.17.07.25.1.25.17.28.42.2.07-.02.14-.04.22-.07.16-.05.22-.18.19-.33Zm8.64,11.14c-.21-.08-.39-.08-.59.01-.31.15-.56.37-.74.66-.1.16-.21.18-.38.14-.93-.23-1.9.53-1.96,1.5.03.15.05.3.09.44.12.49.49.77.87,1.05.2.14.32.29.39.55.07.27.28.5.45.73.1.13.24.07.3-.08.02-.06.03-.13.03-.19-.02-.4.2-.6.56-.73.25-.09.49-.23.72-.37.07-.04.15-.2.12-.25-.09-.19-.2-.39-.36-.53-.06-.06-.25,0-.38.03-.13.03-.21,0-.18-.13.12-.57.24-1.14.63-1.6.18-.21.36-.21.54.01.07.08.12.18.17.27.22.46.28.47.66.14.03-.03.06-.06.1-.09.14-.13.17-.28.08-.44-.27-.47-.56-.92-1.11-1.12Zm-1.96,2.76c-.07.23-.16.26-.39.16-.27-.11-.38-.35-.39-.59,0-.15.14-.35.28-.47.14-.12.34-.16.52-.24.21.02.27.11.22.3-.08.28-.15.56-.23.84Zm-.25-7.02c-.06-.13-.11-.26-.16-.39-.11-.26-.25-.3-.51-.19-.33.15-.68.28-1.01.44-.21.1-.32.04-.41-.15-.15-.36-.32-.7-.47-1.06-.14-.33-.08-.47.25-.61.28-.12.56-.22.84-.34.25-.1.33-.28.26-.55-.1-.37-.3-.58-.54-.55-.07,0-.13.06-.2.1-.12.07-.24.14-.36.2-.48.2-.96.39-1.43.59-.54.23-1.08.49-1.63.71-.4.16-.43.2-.27.61.02.05.04.1.06.15.14.34.27.39.6.24.4-.18.81-.35,1.21-.53.16-.07.26-.03.33.14.17.4.34.79.52,1.18.12.28.12.33-.14.46-.38.18-.77.34-1.15.5-.19.08-.32.18-.34.45.05.11.13.26.2.42.15.31.24.35.55.21.32-.15.64-.3.97-.44.89-.38,1.78-.75,2.67-1.13.22-.09.26-.21.16-.44Zm-7.35-10.16c.44-.25.89-.47,1.34-.7.77-.38,1.54-.76,2.32-1.12.26-.12.3-.34.26-.57-.05-.29,0-.66-.36-.81-.31-.12-.63-.21-.95-.31-.39-.12-.79-.22-1.17-.35-.69-.23-1.38-.48-2.07-.71-.2-.07-.46.02-.37.33.04.14.03.3.03.45,0,.16.05.28.21.33.34.1.68.21,1.03.27.24.04.37.14.39.38.02.28.04.56.08.83.04.28-.03.45-.29.57-.23.1-.45.2-.68.29-.44.18-.47.23-.44.7.05.62.16.68.66.4Zm1.95-2.72c.19.05.38.07.56.13.18.05.21.17.05.26-.22.12-.47.21-.71.28-.14.04-.25-.16-.25-.41,0-.27.08-.33.35-.26Zm.63-18.32l-.46,1.04c-.17.39-.34.73-.5,1.02-.01.02,0,.04.03.06.21.06.49.17.83.32l1.62.71c.34.15.6.28.8.39.02,0,.09-.14.2-.39.11-.25.16-.38.14-.39-.05-.01-.11-.04-.18-.06l-.18-.08.59-1.36,1,.44c.38.17.71.33.99.48.03-.01.1-.15.22-.41.12-.27.17-.41.16-.44-.35-.11-.69-.25-1.03-.39l-1-.44.6-1.37.16.07s.05.02.09.04c.04.02.06.03.07.04.02,0,.09-.12.2-.38.11-.26.17-.41.16-.45-.46-.15-1-.37-1.63-.64l-.8-.35c-.31-.14-.58-.27-.79-.38-.03-.01-.05,0-.06.01-.11.32-.25.68-.42,1.08l-.47,1.07-.53-.23c-.17-.08-.32-.2-.46-.38-.04-.02-.11.08-.22.3-.11.21-.2.42-.28.6.22.08.42.16.59.23l.56.24Zm1.69-1.8l1.38.61-.6,1.37-1.38-.61.6-1.37Zm-.93,2.13l1.38.61-.59,1.36-1.38-.61.59-1.36Zm-4.06,15.38c.09,0,.17,0,.26,0,.34,0,.4-.07.39-.4,0-.4,0-.8,0-1.2,0-.37.06-.43.42-.42.1,0,.19,0,.29-.01.2-.02.31.09.34.27.02.1.01.21.01.32,0,.29-.02.58-.01.87,0,.26.26.47.54.46.2,0,.29-.14.31-.45.01-.29.04-.58.06-.87.02-.49.03-.5.52-.51.04,0,.09,0,.13,0,.31.01.39.12.36.43-.03.41-.05.82-.05,1.23,0,.11.08.27.17.32.38.21.71,0,.71-.44,0-.73.03-1.47.05-2.2,0-.29-.11-.41-.41-.38-.17.01-.34.03-.52.02-.64-.02-1.27-.06-1.91-.09,0,0,0,.01,0,.02-.51,0-1.02,0-1.52,0-.29,0-.36.08-.36.37,0,.79-.02,1.58-.03,2.36,0,.19.08.28.26.3Zm6.53-22.79c.2.16.31.23.33.24.14-.21.27-.4.4-.56l.43-.55.15.12s.08.07.14.14c.02.01.11-.09.27-.29.16-.2.23-.31.22-.33-.06-.03-.11-.07-.16-.11l-.15-.12.95-1.2.15.12c.05.04.1.09.15.13.02.01.11-.08.27-.28.16-.2.23-.31.22-.33-.06-.03-.11-.07-.16-.11l-.15-.12.44-.56c.17-.21.32-.39.46-.53,0-.02-.11-.11-.31-.27-.2-.16-.31-.23-.33-.24-.14.22-.28.41-.41.57l-.44.56-.13-.1s-.06-.08-.07-.16c-.03-.03-.12.04-.25.18-.14.15-.25.29-.35.43.08.05.14.09.17.12l.16.12-.95,1.2-.13-.1s-.06-.08-.07-.16c-.03-.03-.12.04-.25.18-.14.15-.26.29-.36.43.12.07.18.11.18.12l.16.12-.43.55c-.17.21-.32.38-.45.52,0,.02.11.11.31.27Zm-6.16,19.15s.08.02.13.02c1.21.13,2.42.26,3.63.39.23.02.33-.06.37-.3.01-.06.01-.13.02-.19.06-.45-.01-.55-.47-.61-.32-.04-.64-.06-.97-.08-.2-.02-.3-.13-.27-.32.07-.48.15-.96.22-1.43.03-.19.13-.24.32-.21.32.06.64.1.96.15.43.06.62-.12.62-.56,0-.38-.1-.47-.47-.51-1.15-.12-2.29-.25-3.44-.4-.67-.09-.67-.11-.81.55-.07.31-.04.36.27.41.46.08.92.15,1.37.22.26.04.32.11.29.35-.06.42-.12.83-.18,1.25-.04.26-.13.33-.39.3-.42-.05-.83-.12-1.25-.16-.11,0-.28.03-.34.11-.38.47-.21.92.38,1.03Zm24.34,38.52c.64.06,1.19-.31,1.41-.94.1-.27.1-.53-.04-.78-.2-.35-.48-.63-.87-.79-.13-.05-.25-.11-.38-.17-.36-.17-.72-.34-1.08-.5-.15-.06-.31-.07-.4.09-.11.18-.19.38-.28.57-.46.97-.92,1.94-1.36,2.92-.26.58-.25.54.25.77.06.03.12.06.18.08.17.07.3,0,.38-.15.11-.21.2-.43.3-.64.33-.69.65-1.39.98-2.07.08-.16.05-.45.28-.46.17-.01.36.11.54.19.21.1.41.24.41.49,0,.27-.16.48-.42.61-.23.11-.44.05-.65-.06-.32-.16-.42-.08-.41.28.01.34,0,.69,0,1.03,0,0-.02,0-.03,0,0,.37,0,.73,0,1.1,0,.23.09.4.3.49.16.07.32.13.49.18.18.05.24-.03.21-.2-.02-.16-.03-.32-.04-.48-.02-.31-.04-.62-.05-.93,0-.13-.01-.26-.01-.39,0-.19.1-.26.3-.24Zm37.26-41.07h-1.25v.33h1.25v-.33Zm-24.79,41.52c-.08,0-.15,0-.23,0-.63-.06-1.27-.1-1.9-.17-.35-.04-.4-.04-.43.31-.09.91-.18,1.82-.26,2.73-.04.43-.05.86-.07,1.29-.01.21.06.37.29.39.8.06,1.59.13,2.39.18.27.02.38-.12.4-.43.02-.37-.05-.47-.35-.49-.38-.03-.75-.08-1.13-.06-.47.02-.55-.1-.49-.59,0-.06.01-.13.03-.19.08-.3.2-.35.5-.3.34.06.68.09,1.02.1.26,0,.39-.19.4-.52,0-.23-.08-.31-.37-.34-.27-.02-.54-.05-.81-.07-.69-.04-.7-.06-.61-.75.03-.2.1-.28.32-.26.36.04.73.04,1.1.06,0,0,0,0,0,0,.14.01.28.05.42.03.09-.01.22-.09.24-.16.09-.47.05-.75-.45-.73Zm22.76-41.52h-1.99v-.5h1.99v-.38h-2.63v1.21h2.63v-.33Zm-26.06,41.18c-.35-.18-.72-.22-1.11-.25-.24.05-.5.05-.7.17-.46.26-.62.69-.53,1.21.09.49.36.87.68,1.23.17.19.34.4.46.62.19.35.02.63-.38.65-.29.01-.57-.04-.81-.25-.21-.19-.37-.13-.46.13-.14.4-.08.58.29.77.54.28,1.12.3,1.7.2.45-.08.81-.54.82-.99.01-.55-.23-.99-.57-1.4-.21-.25-.41-.52-.58-.8-.19-.3-.05-.56.31-.59.27-.03.54,0,.76.19.13.11.26.12.36-.03.15-.23.01-.72-.23-.84Zm28.09-40.33h-1.25v.39h1.25v-.39Zm-41.64,35.18c.01-.09-.05-.2-.12-.27-.09-.1-.22-.18-.32-.27-.17-.16-.34-.2-.56-.09-.3.14-.61.26-.92.38-.08.03-.2.03-.27-.02-.04-.02-.04-.15-.03-.23.04-.34.09-.68.14-1.1-.04-.07-.08-.2-.17-.3-.12-.14-.26-.26-.41-.36-.1-.06-.25-.11-.35-.08-.07.02-.13.19-.14.29-.05.56-.09,1.12-.13,1.68-.03.38-.14.54-.51.66-.2.07-.41.13-.62.2-.42.14-.83.28-1.25.41-.22.07-.29.19-.14.37.12.14.29.23.41.36.21.2.43.21.68.09.29-.14.58-.28.88-.39.1-.04.24-.05.33,0,.05.03.05.19.05.29,0,.11-.05.21-.07.32q-.17.95.42,1.49s.05.05.07.06c.23.16.39.1.42-.18.07-.67.13-1.35.18-2.03.01-.2.06-.33.26-.4.65-.24,1.29-.47,1.93-.72.08-.03.21-.09.21-.15Zm-.29,3.17c.1-.16.23-.18.38-.08.28.18.57.35.86.52.1.06.21.11.27.15.34.03.39-.22.5-.39.1-.16.02-.29-.12-.38-.29-.18-.58-.36-.88-.54-.42-.25-.42-.25-.17-.67.02-.03.03-.06.04-.09.17-.29.32-.31.61-.13.35.23.71.45,1.07.67.17.1.31.08.41-.09.03-.06.06-.11.1-.17.19-.26.17-.38-.12-.56-.65-.39-1.3-.77-1.94-1.17-.32-.19-.4-.19-.59.12-.65,1.08-1.29,2.16-1.95,3.24-.26.43-.26.46.17.73.62.39,1.24.77,1.87,1.15.22.14.43.07.6-.2.15-.24.13-.45-.08-.59-.17-.12-.35-.22-.52-.32-.25-.15-.5-.31-.74-.46-.12-.07-.16-.18-.09-.3.1-.16.21-.3.31-.46Zm11.43,1.71c-.07-.07-.15-.18-.26-.24-.11-.06-.24-.08-.37-.12-.31-.09-.42-.03-.51.3-.33,1.28-.66,2.56-.99,3.84-.06.23,0,.33.21.39.15.05.31.09.47.13.16.05.28,0,.34-.16.08-.21.15-.43.21-.64.26-1.02.51-2.05.76-3.07.03-.12.08-.25.14-.43Zm21.35-41.76h-.71v.46h.71v-.46Zm-24.1,44.79c-.36-.07-.72-.13-1.05-.28-.22-.1-.41-.31-.56-.51-.36-.48-.29-.98-.04-1.49.28-.59.83-.95,1.47-.88.35.04.66.18.92.42.17.16.33.13.44-.08.22-.41.12-.72-.27-.96-.46-.29-.98-.3-1.51-.4-.39.1-.84.08-1.2.36-.41.32-.73.72-.89,1.2-.18.51-.35,1.03-.17,1.6.13.43.33.79.65,1.09.43.42.98.58,1.54.71.6.14.6.13.89-.4.13-.23.05-.34-.21-.39Z"/>
  </g>
</svg>