<?xml version="1.0" encoding="UTF-8"?>
<svg xmlns="http://www.w3.org/2000/svg" viewBox="0 0 108 108">
  <defs>
    <style>
      .cls-1 {
        fill: #282828;
      }

      .cls-1, .cls-2 {
        stroke-width: 0px;
      }

      .cls-2 {
        fill: #e9d5bd;
      }
    </style>
  </defs>
  <g id="bg">
    <circle class="cls-1" cx="54" cy="54" r="54"/>
  </g>
  <g id="icon">
    <path class="cls-2" d="m18.03,62.63c.27-.55.53-1.1.81-1.64.26-.5.54-.99.82-1.48.14-.25.29-.5.43-.75.19-.33.37-.67.55-1.01.19-.36.36-.72.55-1.07.25-.47.53-.93.77-1.41.2-.38.37-.79.57-1.17.23-.44.48-.88.76-1.39-.12,0-.2-.02-.27,0-.3.1-.59.23-.88.34-.49.18-.98.37-1.47.54-.86.29-1.74.34-2.63.23-.1-.01-.22-.05-.29-.12-.47-.41-1.03-.38-1.59-.38-.14,0-.24.06-.23.26.02.55,0,1.09,0,1.64,0,3.86,0,7.72,0,11.58,0,.17.04.35.07.52,0,.05.06.09.13.17.05-.2.08-.35.13-.5.2-.57.41-1.14.63-1.7.19-.49.4-.98.61-1.47.17-.4.36-.79.55-1.19Zm-1.81-12.53c.51-.1,1.03-.21,1.55-.26.47-.04.91-.18,1.34-.35.3-.12.62-.22.94-.31.33-.1.68-.17,1.01-.26.48-.14.96-.3,1.45-.44.71-.22,1.43-.41,2.09-.8.24-.14.51-.24.78-.34.42-.16.84-.3,1.27-.45.11-.04.23-.07.34-.13.14-.08.3-.15.39-.28.15-.22.23-.48.35-.72.05-.1.11-.23.19-.27.24-.13.3-.33.27-.58-.02-.18.02-.32.21-.37.06-.02.11-.08.16-.12.26-.24.49-.51.63-.85.06-.14.17-.14.27-.02.06.07.1.14.15.21.12.15.27.14.37-.03.04-.07.09-.14.13-.21.21-.37.43-.73.63-1.1.13-.26.16-.29.44-.19.15.05.3.07.41-.05.18-.19.4-.26.65-.28.12-.01.25-.07.37-.1.21-.06.42-.14.64-.17.24-.04.38.11.35.36-.01.09-.05.18-.1.26-.1.19-.22.37-.31.57-.08.18-.03.36.12.42.28.11.31.35.33.58.04.4-.16.74-.3,1.1-.13.35-.27.69-.41,1.03-.04.11.02.17.12.18.07,0,.15-.01.22-.03.49-.15.97-.34,1.46-.45.63-.15,1.22-.4,1.83-.63.36-.13.71-.31,1.11-.25.25.04.5.09.75.16.22.06.45.14.66.23.12.05.12.16,0,.23-.07.04-.14.07-.23.12.06.05.09.09.13.1.21.08.42.14.62.24.22.12.43.07.61-.05.47-.29.92-.6,1.39-.88.46-.28.92-.54,1.39-.81.91-.51,1.89-.85,2.88-1.13.84-.23,1.7-.37,2.55-.55.7-.15,1.4-.3,2.09-.45.57-.13,1.14-.27,1.72-.38.28-.05.56-.08.83,0,2.35-3.15,4.51-4.72,5.87-5.46-.09,0-.17,0-.26,0-11.15,0-22.31,0-33.46,0-.46,0-.94.04-1.38.14-.61.14-1.23.24-1.8.51-.4.19-.83.31-1.19.57-.45.32-.94.57-1.37.92-.43.35-.83.76-1.19,1.18-.36.42-.67.87-.97,1.33-.2.31-.36.64-.52.97-.09.17-.15.36-.21.54-.14.42-.28.84-.4,1.26-.22.84-.24,1.69-.24,2.55-.01,1.25,0,2.5,0,3.74,0,.24.07.28.31.23Zm30.86-2.73c-.06.06-.12.14-.19.18-.31.17-.62.34-.94.5-.64.31-1.21.7-1.77,1.14-.55.43-1.03.92-1.48,1.44-.26.3-.44.65-.66.99-.23.35-.41.69-.24,1.15.12.33.28.56.59.69.23.1.47.19.71.26.43.12.87.22,1.3.34.07.02.13.04.19.06.42.13.85.26,1.27.4.39.13.77.29.95.71.06.13.18.24.29.36,0,0,.01-.02.02-.02.65-3,1.65-6.3,3.07-9.26-.22.1-.45.2-.66.31-.41.22-.85.32-1.32.33-.42.01-.83.1-1.14.43Zm-.72,18.34s0-.07,0-.1c0-.86,0-1.71,0-2.57,0-.12.03-.26-.14-.33-.02.02-.04.04-.06.07-.04.05-.08.1-.12.14-.26.25-.53.49-.79.74-.08.08-.15.17-.24.24-.36.24-.61.62-1.03.79-.31.13-.59.35-.88.52-.65.38-1.31.74-1.96,1.12-.11.06-.21.15-.32.2-.2.1-.41.18-.6.28-.64.35-1.28.71-1.93,1.05-.64.33-1.28.65-1.94.94-.56.25-1.13.47-1.7.68-.68.26-1.37.49-2.05.74-.22.08-.44.13-.65.22-.34.14-.68.3-1.02.44-.35.14-.7.26-1.05.39-.36.14-.72.3-1.09.41-.29.09-.6.18-.91.19-.39,0-.77-.05-1.16-.11-.08-.01-.2-.14-.2-.2.01-.19.05-.4.13-.58.2-.42.57-.66.97-.87.07-.04.15-.13.14-.19,0-.06-.09-.15-.15-.18-.4-.17-.79-.1-1.17.09-.2.1-.39.22-.58.33-.1.05-.18.07-.22-.07-.02-.1-.03-.2-.06-.34.35-.23.72-.5.39-1.04.17-.09.31-.06.45-.01.21.07.41.06.6-.06.22-.14.44-.26.65-.4.06-.04.13-.12.12-.16-.01-.06-.09-.13-.15-.16-.33-.17-.66-.33-.99-.49-.05-.03-.09-.09-.14-.13.05-.04.09-.1.14-.12.26-.1.52-.17.78-.27.34-.13.68-.28,1.02-.42.05-.02.08-.06.16-.11-.12-.08-.22-.13-.3-.21-.07-.06-.15-.15-.15-.23,0-.23.18-.41.4-.41.11,0,.22.03.34.05.12.02.24.06.35.03.81-.19,1.62-.31,2.46-.19.11.02.24-.03.35-.08.3-.13.59-.3.89-.43.62-.26,1.26-.51,1.89-.76.39-.16.78-.33,1.17-.49.42-.17.84-.33,1.25-.52.6-.27,1.19-.58,1.75-.94.45-.29.83-.63,1.19-1.01.57-.61,1.06-1.28,1.41-2.04.11-.25.05-.65-.15-.78-.29-.18-.58-.35-.88-.5-.5-.25-1.01-.47-1.52-.7-.17-.08-.35-.14-.51-.24-.57-.35-1.13-.73-1.7-1.08-.41-.25-.7-.6-.97-.98-.27-.38-.48-.8-.59-1.25-.08-.3-.16-.61-.15-.91.03-.57.15-1.13.36-1.67.03-.06.05-.18.02-.2-.06-.04-.16-.07-.24-.05-.36.08-.72.17-1.08.26-.74.18-1.47.4-2.23.44-.03,0-.07.02-.1.02-.22.05-.44.12-.67.13-.69.04-1.36.19-1.98.5-.25.13-.51.31-.66.54-.25.39-.43.84-.61,1.27-.21.5-.57.91-.87,1.35-.22.33-.46.63-.68.96-.18.27-.31.58-.51.83-.17.21-.34.47-.69.39-.03,0-.1.04-.11.07-.08.21-.25.39-.16.65.01.04,0,.08,0,.12,0,.31-.1.58-.23.85-.16.34-.3.7-.45,1.05-.18.41-.36.81-.53,1.22-.25.59-.49,1.19-.76,1.78-.19.41-.43.79-.64,1.19-.29.57-.57,1.15-.86,1.73-.25.5-.51.99-.76,1.49-.25.53-.47,1.08-.74,1.6-.22.43-.36.9-.7,1.26-.12.13-.22.13-.3-.03-.05-.12-.12-.14-.21-.05-.12.12-.24.24-.35.36-.09.1-.19.15-.32.06-.1-.07-.18-.05-.22.06-.05.14-.16.17-.29.16-.11-.01-.21-.04-.32-.05-.08,0-.16.02-.24.03.01.09,0,.2.05.28.08.16.21.29.29.45.31.62.79,1.11,1.24,1.62.11.13.25.22.37.35.35.39.78.68,1.21.96.24.15.48.28.73.43.08.05.15.12.23.16.54.21,1.09.43,1.64.62.35.12.71.24,1.07.28.71.08,1.42.13,2.14.13,7.19,0,14.38,0,21.58,0,1.02,0,2.05,0,3.07.01-3.73-3.63-4.08-7.35-4.28-10.21,0-.13-.02-.26-.03-.39Zm13.92,4.21c.61-.54,1.22-1.08,1.68-1.76.51-.75.98-1.53,1.45-2.3.33-.55.65-1.11.96-1.68.26-.49.47-.96.98-1.25.43-.24.81-.12,1.27-.13.2,0,.35.03.39.26,0,0,.02.01.07.03,0-.02.02-.05.04-.08.3-.52.6-1.03.89-1.55.14-.25.27-.5.37-.76.05-.13,0-.29,0-.43-.21-.04-.38-.07-.55-.12-.14-.04-.17-.16-.06-.24.15-.11.32-.21.48-.32.04-.03.1-.08.09-.11,0-.05-.05-.11-.09-.13-.06-.04-.14-.04-.21-.07-.06-.03-.11-.08-.16-.13.05-.04.1-.09.16-.13.27-.16.56-.29.82-.46.33-.21.58-.53.95-.69.2-.09.41-.27.4-.52,0-.22.09-.32.25-.4.2-.1.36-.24.48-.44.17-.28.36-.55.55-.81.21-.29.43-.56.63-.85.17-.24.32-.51.5-.75.26-.34.53-.66.8-.99.14-.16.27-.34.43-.47.3-.24.65-.42.92-.68.37-.35.69-.74,1.03-1.12.25-.29.48-.59.74-.87.39-.42.79-.83,1.18-1.25.16-.17.36-.17.53.05-.06.07-.13.16-.2.23-.09.08-.15.19-.06.28.04.04.2.02.26-.03.33-.26.6-.56.82-.93.19-.32.43-.61.66-.91.28-.36.58-.72.87-1.08.25-.3.51-.61.77-.9.24-.27.48-.54.73-.79.26-.26.53-.51.79-.76.12-.12.22-.27.35-.39.15-.14.31-.27.47-.4.38-.32.7-.7,1.14-.94.29-.16.45-.11.53.2.02.08.03.16.05.24.05.17.1.34.16.57,1.16-.89,2.15-1.91,3.24-2.79.5.28.67.24,1.03-.18.15-.18.31-.36.47-.53.04-.04.12-.05.2-.09,0,.37.02.69,0,1.01-.03.4-.09.8-.13,1.2-.02.15-.04.31.12.43.11-.2.22-.39.31-.58.17-.38.29-.78.49-1.15.21-.38.23-.4-.04-.73-.17-.2-.3-.44-.49-.61-.47-.42-.95-.83-1.44-1.22-.37-.29-.76-.54-1.19-.74-.49-.22-.96-.49-1.49-.61-.43-.1-.85-.24-1.3-.32-.63-.12-1.26-.13-1.89-.13-5.53,0-11.06,0-16.6,0-.07,0-.16,0-.22.03-.02.01-.03.03-.05.04.87.49,2.7,1.74,3.58,3.92,1.18,2.92,1.73,9.36.84,12.57-.13.47-.28.84-.43,1.15-.01.04-.03.07-.05.1-.4.73-1.07,1.18-1.93,1.07-1.23-.16-1.47-1.11-1.41-2.19.08-1.23.51-6.35-.93-8.45-1.43-2.1-3.91-1.78-3.91-1.78,0,0-1.26-.2-3.09,1.71-1.83,1.91-2.71,3.28-2.71,3.28,0,0-2.34,4-2.81,6.45s-1.34,5.61-1.39,8.07c-.05,2.41.32,4.64,1.03,6.83.03.03.04.08.04.14.03.59.42,1.09.82,1.5.51.52,1.06.92,1.81,1,.76.08,1.53-.02,2.24-.3.17-.07.33-.14.48-.22.55-.3,1.01-.7,1.48-1.11Zm33.01-25.17c-.02-.48-.11-.96-.21-1.44-.07-.31-.2-.61-.31-.91-.06-.16-.1-.32-.18-.47-.04-.07-.13-.13-.21-.16-.03-.01-.12.08-.14.14-.15.4-.32.8-.43,1.21-.14.53-.24,1.07-.36,1.61-.1.45-.21.89-.31,1.33-.24.97-.48,1.95-.72,2.92-.17.69-.35,1.37-.52,2.05-.04.17-.1.35-.14.52-.11.56-.22,1.12-.33,1.68-.1.47-.06.44.31.76.09.08.13.15.13.27,0,.22-.16.29-.31.39-.06.04-.12.08-.2.13.05.06.07.11.11.13.26.1.27.29.25.53,0,.1.04.22.09.31.11.18.12.36,0,.53-.25.4-.15.68.32.76.01,0,.03,0,.04.01.05.04.11.09.16.13-.05.05-.09.12-.15.14-.16.07-.32.13-.48.2-.36.14-.72.26-1.02.52-.07.06-.15.14-.18.22-.1.31-.19.62-.27.93-.28,1.13-.57,2.26-.84,3.39-.25,1.03-.49,2.06-.74,3.09-.08.33-.15.67-.23,1-.08.35-.19.7-.23,1.06-.11,1.01-.21,2.02-.51,3-.02.08-.09.14-.14.2-.02,0-.05-.02-.07-.03,0-.09-.02-.18-.02-.27,0-.41.01-.82.01-1.23,0-.2-.09-.25-.25-.13-.17.12-.34.24-.37.47-.02.12-.06.24-.09.37-.07,0-.12,0-.21-.01,0,.11,0,.21,0,.31-.01.22-.02.44-.04.66,0,.15-.02.3-.02.44-.01.53-.02,1.07-.04,1.6-.01.25-.2.36-.42.25-.16-.07-.32-.15-.46-.25-.16-.11-.31-.12-.48-.06-.22.07-.45.13-.68.2-.25.08-.49.17-.73.26-.19.07-.4.01-.44-.15-.14-.57-.26-1.14-.4-1.71-.11-.46-.04-.97-.35-1.38-.03-.03-.03-.09-.03-.14-.02-.14-.03-.28-.05-.42-.05-.57.06-1.09.47-1.51.05-.05.14-.07.22-.1.02.07.07.15.07.22-.05.45-.12.89-.17,1.34-.07.66-.02,1.31.12,1.95.01.06.05.11.07.17.03,0,.05,0,.08,0,.02-.11.06-.22.06-.33,0-.82,0-1.63,0-2.45,0-.26-.02-.51.15-.74.04-.05.04-.14.06-.21.1-.65.2-1.3.3-1.96.03-.19.05-.39.08-.58.09-.54.18-1.09.26-1.63.09-.6.15-1.2.24-1.8.07-.49.17-.98.26-1.47.06-.34.12-.67.18-1.01.01-.07,0-.18-.04-.21-.05-.04-.16-.03-.22,0-.2.08-.39.18-.58.27-.1.05-.23.02-.21-.09.02-.19.1-.37.15-.56.12.03.2.05.32.08,0-.11.04-.21,0-.29-.01-.04-.14-.04-.22-.03-.06,0-.13.03-.19.05-.44.17-.89.35-1.33.52-.25.1-.51.17-.76.27-.88.34-1.75.68-2.66.94-.47.13-.93.31-1.4.45-.26.08-.53.17-.8.2-.49.06-.97.14-1.35.5-.17.17-.34.34-.49.52-.14.17-.23.37-.37.55-.22.29-.47.56-.68.86-.11.15-.14.36-.22.54-.22.52-.56.94-.93,1.36-.14.16-.22.37-.36.52-.3.33-.58.67-.78,1.07-.16.32-.36.37-.69.2-.17-.09-.33-.1-.48.05-.16.16-.33.31-.5.46-.14.12-.34.15-.49.08-.12-.06-.19-.16-.17-.29.02-.13.06-.26.12-.38.17-.37.34-.74.52-1.11.22-.45.42-.91.66-1.35.29-.54.6-1.06.9-1.6.04-.07.03-.17.05-.26-.04-.02-.07-.04-.11-.07-.02.05-.03.1-.06.15-.08.12-.16.24-.25.36-.28.38-.55.76-.84,1.13-.19.23-.38.48-.62.64-.31.21-.47.46-.46.83,0,.06-.08.16-.14.17-.21.06-.12.23-.18.39-.06.2-.24.41-.34.6-.64,1.17-1.37,2.26-2.16,3.33-.29.39-.51.81-.84,1.17-1.2,1.3-2.35,2.79-3.84,3.74-.15.1-.3.19-.46.28-.07.04-.78.45-.81.4.1.18.22.24.39.24.96-.01,1.92-.02,2.87-.02,6.98,0,13.95,0,20.93,0,.55,0,1.09,0,1.64-.03.47-.03.94-.06,1.41-.15.34-.06.67-.19,1-.32.55-.21,1.11-.4,1.62-.67.58-.31,1.15-.65,1.62-1.12.41-.4.85-.77,1.21-1.2.37-.45.7-.94.98-1.45.28-.51.51-1.07.72-1.62.13-.34.22-.69.3-1.05.2-.91.2-1.84.2-2.76,0-6.07,0-12.14,0-18.22,0-.99-.02-1.98-.07-2.97Zm-10.09,5.29c-.19.18-.36.38-.54.57-.35.38-.78.68-1.07,1.11-.15.22-.34.43-.45.67-.25.51-.45,1.05-.69,1.57-.08.18-.18.35-.3.5-.2.26-.43.49-.64.74-.04.05-.05.12-.07.18.01.02.02.04.03.06.09-.01.19-.03.28-.03.28-.01.56-.15.83.02.22.14.42.15.64,0,.03-.02.08-.03.12-.04.57-.17,1.13-.34,1.7-.51.4-.12.41-.15.45-.58.04-.44.1-.88.17-1.32.03-.19.11-.37.16-.55.09-.34.17-.69.27-1.03.09-.3.19-.6.3-.9.18-.46.38-.91.56-1.37.06-.14.1-.29.15-.44-.02-.02-.05-.04-.07-.06-.02.04-.02.09-.05.13-.09.1-.17.24-.29.29-.13.06-.3.06-.45.06-.22,0-.28.08-.2.28.01.04.02.08.03.14-.16.08-.32.16-.48.25-.14.08-.29.15-.4.26Zm-30.45-7.62c-.01-.12-.12-.1-.2-.08-.01,0-.03,0-.04.01-.24.08-.49.16-.73.24,0,0-.01.02-.03.07.11.01.21.05.31.03.09-.01.17-.04.26-.06.1-.02.21-.04.31-.07.06-.02.14-.11.14-.16Z"/>
  </g>
</svg>