<?xml version="1.0" encoding="UTF-8"?>
<svg xmlns="http://www.w3.org/2000/svg" viewBox="0 0 108 108">
  <defs>
    <style>
      .cls-1 {
        fill: #282828;
      }

      .cls-1, .cls-2 {
        stroke-width: 0px;
      }

      .cls-2 {
        fill: #e9d5bd;
      }
    </style>
  </defs>
  <g id="bg">
    <circle class="cls-1" cx="54" cy="54" r="54"/>
  </g>
  <g id="icon">
    <path class="cls-2" d="m97.27,43.55l-.03-.17c-.29-1.53-.6-3.11-1.12-4.57-1.47-4.1-4.08-7.57-7.74-10.3-3.57-2.66-7.72-4.16-12.34-4.47-.23-.02-.49-.19-.6-.4-.29-.55-.57-1.11-.85-1.67l-.32-.64c-1.19-2.36-2.33-4.01-3.68-5.37-3.43-3.44-7.48-5.63-12.04-6.53-1.46-.29-2.93-.43-4.4-.43-1.75,0-3.53.21-5.29.62-3.04.71-5.87,2.04-8.41,3.94-2.22,1.67-3.89,3.41-5.09,5.34-.59.95-1.11,1.97-1.61,2.96-.28.56-.57,1.12-.87,1.67-.13.23-.44.48-.74.51-2.27.19-4.28.59-6.16,1.24-2.91,1-5.52,2.54-7.77,4.59-3.39,3.08-5.69,6.91-6.85,11.37-.94,3.66-.95,7.38-.02,11.06.9,3.55,2.64,6.81,5.16,9.67.51.58,1.09,1.13,1.66,1.66.32.3.65.61.96.92.15.15.24.43.2.66-.07.42-.15.83-.23,1.24-.13.67-.26,1.35-.35,2.03-.49,3.88.04,7.68,1.55,11.29,1.85,4.41,4.85,7.95,8.94,10.53,2.86,1.81,6,2.93,9.32,3.33,1.09.13,2.15.2,3.16.2,1.57,0,3.1-.16,4.54-.48,2.31-.52,4.44-1.6,6.51-2.66l1.03-.52c.1-.05.23-.08.36-.08.11,0,.2.02.28.06.55.26,1.09.53,1.63.82,3.56,1.92,6.66,2.86,9.48,2.86.19,0,.38,0,.59-.01h.18c2.95,0,5.3-.35,7.63-1.13,4.25-1.42,7.77-3.8,10.45-7.06,2.55-3.09,4.18-6.68,4.86-10.66.49-2.86.45-5.78-.13-8.73-.27-1.39-.24-1.51.79-2.5l.18-.17c1.31-1.26,2.66-2.57,3.67-4.11,1.94-2.95,3.16-6.21,3.6-9.69.3-2.33.27-4.36-.08-6.21Zm-2.22,7.31c-.6,3.18-1.72,5.81-3.41,8.04-1.43,1.88-2.89,3.31-4.44,4.35-.72.48-.85.95-.55,1.9.76,2.33,1.07,4.53.95,6.72-.14,2.75-.76,5.34-1.83,7.71-1.65,3.63-4.1,6.54-7.29,8.65-3.52,2.33-7.35,3.51-11.37,3.51-.15,0-.31,0-.46,0-4.51-.1-8.48-1.41-11.79-3.9-.25-.19-.47-.32-.68-.42,0,0-.14.01-.16.03-.34.22-.67.44-1.01.67-.58.39-1.17.79-1.79,1.13-2.18,1.22-4.63,2-7.29,2.33-.89.11-1.79.17-2.66.17-2.23,0-4.43-.36-6.54-1.08-4.81-1.64-8.53-4.59-11.05-8.76-2.23-3.69-3.25-7.48-3.03-11.26.07-1.24.33-2.47.58-3.67.1-.5.21-1,.3-1.49.07-.38.16-.75.25-1.14l.08-.36c-.19-.15-.39-.3-.58-.45-.54-.41-1.08-.82-1.59-1.26-2.4-2.05-4.23-4.68-5.44-7.8-1.06-2.73-1.54-5.55-1.44-8.38.22-6.06,2.66-11.13,7.25-15.07,3.83-3.29,8.47-4.96,13.79-4.96h.26s.08-.03.08-.03c0,0,0,0,0,0,.25-.57.49-1.15.74-1.73.33-.79.67-1.59,1.02-2.37.74-1.62,1.84-3.14,3.38-4.63,1.68-1.63,3.37-2.89,5.19-3.86,2.3-1.23,4.77-1.99,7.35-2.25.76-.08,1.53-.12,2.27-.12,1.74,0,3.45.21,5.1.64,2.96.76,5.63,2.09,7.94,3.97,2.66,2.16,4.67,4.81,5.95,7.86.24.56.44,1.13.65,1.7.1.28.21.56.31.84h.32c5.53,0,10.34,1.81,14.31,5.37,2.73,2.46,4.67,5.45,5.77,8.9,1.07,3.34,1.26,6.88.57,10.51Zm-41.13-16.54c4.58.13,8.03-3.35,8.1-7.57.07-4.25-3.26-7.63-7.31-7.84-4.48-.23-8.13,3.35-8.12,7.71-.06,4.01,3.38,7.58,7.33,7.69Zm-2.32-5.26c-.93.26-1.8.51-2.78.79.74-.74,1.38-1.38,2.06-2.06.22.39.45.79.72,1.26Zm-.48-2.52c0-1.64,1.46-3.12,3.08-3.12,1.83,0,3.29,1.4,3.3,3.15,0,1.81-1.41,3.25-3.2,3.24-1.81,0-3.18-1.42-3.18-3.28Zm1.97,3.66c-.57.63-1.16,1.25-1.74,1.88-.06-.05-.13-.1-.19-.15.23-.86.47-1.72.71-2.6.45.24.81.44,1.17.65.05.03.09.19.06.23Zm1.31,2.5c-.06,0-.12.02-.18.03-.23-.84-.46-1.69-.7-2.55h1.57c-.24.88-.47,1.7-.69,2.53Zm1.06-2.64c.41-.24.8-.47,1.25-.73.26.9.52,1.77.79,2.7-.71-.68-1.36-1.31-2.04-1.96Zm1.55-1c.25-.47.47-.88.67-1.25.67.65,1.34,1.29,2.13,2.05-1.04-.3-1.89-.54-2.8-.8Zm3.48-2.5s0,.1,0,.15c-.87.23-1.74.46-2.64.7v-1.55c.9.24,1.77.47,2.64.7Zm-2.75-1.06c-.24-.42-.46-.8-.74-1.3.9-.25,1.76-.49,2.67-.75-.67.71-1.28,1.36-1.92,2.05Zm-.27-4.29c-.19.74-.38,1.35-.5,1.98-.11.64-.33.83-.89.37-.18-.15-.41-.23-.62-.35.65-.65,1.27-1.28,2-2.01Zm-3.26-.74c.06,0,.12,0,.18,0,.23.87.45,1.73.69,2.65h-1.54c.23-.91.46-1.78.68-2.65Zm-1.14,2.77c-.29.18-.6.39-.94.57-.07.04-.3-.04-.32-.1-.23-.79-.43-1.59-.68-2.53.72.76,1.33,1.41,1.95,2.07Zm-1.49.93c-.22.46-.38.83-.57,1.18-.03.06-.23.11-.27.07-.61-.6-1.21-1.21-1.76-1.94.86.23,1.71.45,2.6.69Zm-3.53,2.4c.88-.23,1.76-.46,2.71-.71v1.54c-.92-.23-1.81-.46-2.7-.68,0-.05,0-.09,0-.14Zm35.65,5.17c-3.1-1.93-6.45-2.87-10.11-2.58-.68.05-1.37,0-1.89,0-.59-1.67-1.08-3.29-1.72-4.84-.99-2.37-2.57-4.33-4.5-5.98-1.9-1.64-4.06-2.81-6.48-3.5-2.36-.67-4.73-.85-7.16-.54-2.43.32-4.68,1.1-6.78,2.38-2.27,1.39-4.13,3.21-5.59,5.44-1.37,2.08-2.24,4.37-2.71,6.83-.02.09-.19.23-.29.23-.73,0-1.46.02-2.19-.03-2.8-.2-5.44.41-7.96,1.6-2.38,1.13-4.4,2.75-6.08,4.81-1.79,2.19-2.97,4.66-3.58,7.41-.59,2.67-.55,5.35.09,8.03.57,2.38,1.56,4.56,3.04,6.51,1.54,2.04,3.3,3.83,5.65,4.91.49.22.46.45.28.83-.87,1.88-1.45,3.84-1.63,5.92-.28,3.1.1,6.09,1.36,8.93,1.69,3.79,4.4,6.6,8.03,8.53,2.34,1.24,4.82,1.92,7.45,2.04,3.98.18,7.6-.89,10.82-3.27.81-.6,1.57-1.26,2.36-1.9.08.05.12.06.15.09,1.19.89,2.33,1.86,3.58,2.66,2.52,1.61,5.33,2.31,8.28,2.4,3.22.09,6.27-.61,9.11-2.2,2.07-1.16,3.82-2.71,5.27-4.58,1.6-2.06,2.72-4.37,3.3-6.93.47-2.06.56-4.13.32-6.23-.23-2.03-.93-3.9-1.68-5.77-.04-.1.06-.35.16-.4,1.96-1,3.67-2.32,5.09-4.01,2.29-2.73,3.71-5.86,4.16-9.41.41-3.26-.01-6.4-1.34-9.43-1.47-3.36-3.71-6.02-6.81-7.95Zm-65.37,13.44c.19-.95.28-1.92.54-2.85.43-1.52,1.1-2.95,2.09-4.21.61-.78,1.19-1.58,1.88-2.28,1.28-1.29,2.79-2.27,4.48-2.97.67-.27,1.33-.62,2.03-.77,1.22-.25,2.46-.47,3.69-.5,1.16-.03,2.34.18,3.49.34.74.11,1.47.34,2.26.52.07-.46.15-.81.18-1.16.09-.91.07-1.84.25-2.74.34-1.65.98-3.18,1.87-4.63.72-1.18,1.49-2.32,2.54-3.18,1.17-.96,2.41-1.86,3.73-2.6.94-.53,2.05-.79,3.1-1.13,1.83-.59,3.72-.63,5.59-.39,1.14.15,2.26.51,3.35.87.78.25,1.54.6,2.25,1.01.73.42,1.44.9,2.06,1.46.87.78,1.7,1.62,2.46,2.5,1.21,1.4,2.09,3.02,2.48,4.84.27,1.27.42,2.56.62,3.84.06.37.05.76.2,1.08.06.12.5.11.75.07.8-.13,1.58-.37,2.38-.46,1.2-.13,2.4-.18,3.6-.24,1.16-.05,2.26.26,3.32.68,1.06.42,2.14.85,3.11,1.45,1.07.66,2.07,1.47,3.02,2.31.62.55,1.15,1.21,1.63,1.89.5.72.92,1.51,1.32,2.29.1.2.2.4.29.6-1.79,1.65-4.33,3.39-7.4,5.06-.03-.06-.06-.12-.09-.18-.48-.97-1.13-1.86-1.73-2.77-.53-.81-1.18-.75-1.58.13-.83,1.82-1.64,3.64-2.45,5.46-3.93,1.54-7.63,2.59-9.65,2.73-.22.02-.45.03-.68.04.28-.54.66-1.04,1.02-1.53.37-.5.83-.94,1.17-1.46.32-.5.56-1.05.78-1.6.16-.39.29-.81.32-1.22.05-.61,0-1.22,0-1.83,0-.38.09-.77.06-1.14-.08-.81.44-1.72,1.21-2.01.85-.32,1.06-.97.53-1.7-.56-.77-1.09-1.55-2.11-1.81-.28-.07-.55-.4-.72-.68-.52-.82-1.24-1.35-2.16-1.63-.82-.25-1.23.42-1.76.8-.69.5-1.36.86-2.27.49-.54-.21-1.15-.37-1.72.08-.28.22-.61.4-.94.53-.66.25-1.38.39-2.01.71-.35.18-.52.74-.87.91-.63.31-1.33.53-2.03.66-.53.11-.96.27-1.29.71-.17.23-.41.4-.62.59-.07-.04-.14-.08-.2-.12.18-.44.26-.96.54-1.31.61-.77.41-2.08-.48-2.52-.72-.35-1.45-.26-1.98.24-.47.45-.61,1.31-.31,1.99.07.17.13.34.21.53-.58.17-1.09.32-1.61.46-.22.06-.46.19-.67.17-1.3-.11-2.59-.3-3.89-.39-.77-.05-1.3.51-1.23,1.2.05.47-.17.58-.56.61-.93.06-1.86.13-2.79.21-.54.05-1.09.19-1.63.19-.88,0-1.76-.08-2.64-.1-.09,0-.25.14-.25.23-.04.56.38,1.13.91,1.28.19.06.37.13.57.2,0,.05,0,.1.01.15.04.16.09.32.13.48.17-.06.37-.08.52-.18.91-.64,1.89-.93,2.99-.64.07.02.13.07.23.12-.69.54-1.31,1.08-1.99,1.55-.52.36-1.04.67-.79,1.43.01.04-.03.12-.06.16-.33.31-.58.64-1.18.54-.91-.16-1.86-.08-2.79-.16-.9-.08-1.81-.1-2.57-.76-.19-.17-.6-.18-.9-.13-.58.09-1.15.36-1.73.38-1.31.05-2.62,0-3.94-.03-.29,0-.42.06-.38.36.04.4.13.8.09,1.19-.02.15-.05.3-.09.46-2.3.32-3.94.74-5.03,1.1-.21-1.27-.33-2.56-.08-3.86Zm56.94,12.81c-.59.12-1-.33-.84-.91.22-.77.43-1.55.63-2.32.02-.06,0-.13,0-.36-.52,1.27-1.25,2.19-2.35,2.85.05-.18.08-.36.15-.53,1.61-3.72,3.22-7.44,4.83-11.16.22-.52.45-1.03.69-1.54.25-.53.81-.56,1.14-.08,1.4,2.02,2.22,4.28,2.75,6.66.13.57.25,1.14.35,1.71.02.14.02.32-.06.43-.97,1.4-1.88,2.85-2.95,4.17-.9,1.11-2.23,1.64-3.61,1.96-.1.02-.27-.01-.32-.08-.05-.07,0-.22.03-.33.06-.17.15-.33.23-.49.01-.02,0-.06.01-.11-.26.05-.48.08-.71.13Zm-28.29,19.42c-.75-1.16-1.43-2.4-2.35-3.41-.48-.53-1.07-1.02-1.6-1.56-.32-.33-.79-.55-1.04-.92-.26-.38-.36-.88-.49-1.33-.29-1.02-.54-2.04-.81-3.06-.02-.08-.04-.16-.04-.24-.03-.79-.05-1.59-.08-2.38,0-.1,0-.22-.05-.29-.63-1-.26-2.05-.22-3.1.03-.91-.24-1.86-.07-2.73.34-1.74.22-3.6,1.22-5.2.27-.43.34-.99.52-1.53.35.47.83.56,1.24.17.47-.44.83-.98,1.3-1.42.29-.27.67-.44,1.03-.63,1.61-.84,2.96-2,4.23-3.29.28-.28.79-.32,1.11-.57.44-.33.82-.74,1.18-1.16.38-.45.65-.99,1.07-1.4.62-.61.57-1.28-.2-1.71-.32-.18-.63-.38-1.01-.61.19-.14.27-.21.35-.27.15-.13.4-.23.44-.38.25-.83.9-.72,1.54-.8.99-.13,1.93-.45,2.5-1.39.33-.54.79-.81,1.44-.86.71-.06,1.36-.27,1.94-.81.2-.19.83.09,1.27.14.38.05.84.21,1.14.08.75-.34,1.43-.83,2.14-1.25.08-.05.21-.08.3-.06.94.2,1.63.74,2.04,1.6.19.42.5.57.92.66.61.13,1.11.43,1.4,1.02.15.31.38.58.5.9.04.11-.09.39-.2.44-1.15.44-1.77,1.38-1.75,2.61.01.8-.05,1.6-.1,2.39-.03.48-.03.98-.18,1.43-.19.58-.45,1.16-.8,1.67-.45.66-1.01,1.25-1.53,1.85-.64.74-.93,1.64-1.27,2.54-.3.81-.84,1.53-1.26,2.3-.23.42-.41.88-.65,1.3-.17.3-.49.54-.59.86-.19.59-.33,1.21-.39,1.82-.11,1.02-.74,1.77-1.19,2.62-.47.88-1.07,1.71-1.1,2.77,0,.14-.1.27-.14.38-1.52-.83-2.65-.06-3.73.81-.35.28-.69.19-1.06.21-.66.03-1.37-.04-1.98.18-1.06.38-1.86,1.17-2.5,2.1-.28.41-.5.86-.71,1.31-.06.14.03.34.04.51.14-.05.28-.09.42-.14.21-.07.46-.26.62-.2.52.2.71-.12.92-.46.06-.1.12-.21.18-.32.2.25.35.5.56.68.46.39,1.16.23,1.49-.27.05-.08.27-.12.37-.08.27.1.51.26.85.43-.25.43-.47.9-.76,1.33-.67,1.01-1.43,1.91-2.39,2.69-.81.65-1.34,1.6-1.47,2.67-.12.96-.29,1.87-.69,2.77-.24.53-.21,1.19-.32,1.78-.05.27-.08.58-.22.8-.11.16-.45.35-.58.29-.53-.24-1.03-.55-1.52-.88-.14-.1-.3-.38-.25-.52.22-.7.13-1.55.92-1.98.08-.04.15-.18.15-.27,0-.21.03-.46-.07-.61Zm-18.82-27c1.59-.98,3.33-1.64,5.2-1.83,1.37-.14,2.57-.64,3.56-1.59,1.12-1.09,2.37-1.89,3.99-1.92.13,0,.26.05.39.08-.03.12-.04.25-.1.36-.41.73-.55,1.5-.28,2.32.03.08.02.17.03.34-1.47.44-2.89.88-4.33,1.28-1.36.38-2.72.62-4.15.63-.87,0-1.75.38-2.61.66-.76.25-1.5.59-2.43.97.28-.52.4-1.08.73-1.28Zm-1.09,1.64c-.07.18-.38.26-.58.39-.56.35-1.13.68-1.68,1.05-.61.42-1.23.53-1.93.22-.66-.29-1.33-.54-1.99-.81-.06-.02-.11-.07-.23-.15,2.29-.91,4.78-.99,6.87-2.35-.16.6-.27,1.15-.47,1.66Zm2.99-5.16c.19-.31.41-.33.8-.25.94.2,1.92.28,2.88.37.52.05,1.04.05,1.56.06.25,0,.51,0,.76,0,.02.06.05.12.07.19-.53.26-1.05.57-1.61.78-.95.36-1.9.2-2.86-.03-.57-.13-1.18-.09-1.77-.14-.1,0-.19-.05-.33-.08.18-.34.33-.63.5-.91Zm-.71.72c-.17.17-.51.2-.77.26-1.11.21-2.22.43-3.34.6-.53.08-1.07.07-1.5.09.05-.78.09-1.48.14-2.23.29.03.67.13,1.04.1,1.41-.13,2.82-.3,4.23-.44.28-.03.58-.02.86.03.26.05.34.2.15.46-.28.37-.49.81-.81,1.14Zm6.93-5.44c-.24-.31-.77-.39-1.18-.58.13-.01.27-.06.39-.04,1.53.24,3.03-.13,4.55-.18,1.99-.07,3.86-.55,5.71-1.17.8-.27,1.58-.23,2.36.14.35.17.34.39.18.65-.61,1.01-1.09,1.44-2.5,1.25-.96-.13-1.97.06-2.96.11-1.47.08-2.94.21-4.41.21-.76,0-1.27.45-1.89.72-.05.02-.1.06-.16.11-.02-.43.1-.95-.1-1.22Zm.05.79c-.56-.15-1-.27-1.42-.38-.08-.27-.14-.5-.26-.91.54.19,1.04.31,1.49.55.14.07.12.44.19.74Zm6.86-3.26c.45-.08.93-.04,1.39-.04.44,0,.87.04,1.33.19-1.04.29-2.08.58-3.12.86-.21-.55-.07-.93.4-1.01Zm-.63,11.65c.11-.13.33-.26.32-.38-.02-.36-.12-.72-.21-1.22.37-.17.88-.41,1.38-.65.43.66.33,1.25-.39,1.88-.4.35-.69,1.02-1.33.77-.12-.53-.22-.94-.3-1.34-.02-.07-.03-.19,0-.22.1-.08.23-.14.36-.18.04-.01.14.08.16.15.09.24.16.48.24.75-.09.11-.2.24-.32.37.02.02.05.04.07.07Zm.22-6.53c0-.06-.02-.12,0-.17.1-.27,1.33-.46,1.48-.22.32.51.6,1.04.93,1.54.32.49.67.97,1,1.44-.37.5-1.27.64-1.74.31-1-.71-1.54-1.69-1.68-2.9Zm1.77-.39c.88-.49.85-.47,1.27.27.35.62.75,1.21,1.18,1.77.25.33.26.52-.12.71-.13.06-.26.15-.46.27-.63-1.01-1.25-2.01-1.87-3.01Zm1.01,3.85c.7-.31,1.31-.83,1.98-1.22.52-.3,1.08-.53,1.72-.84-1.16,1.45-2.45,2.56-4.1,3.25-.24-.56-.24-.91.4-1.19Zm2.26-1.66c-.25.16-.42.14-.58-.13-.54-.86-1.09-1.72-1.64-2.58-.15-.24-.19-.51.17-.52.2,0,.54.15.58.29.34,1.14,1.08,1.77,2.25,1.92.23.03.47-.02.7-.03l.05.11c-.51.31-1.03.62-1.53.94Zm-1.7-3.62c.17-.17.33-.37.52-.51.07-.05.23.05.35.07,0,.05.02.09.03.14-.26.14-.52.29-.79.43-.04-.05-.08-.09-.12-.14Zm2.16-1.31c.14-.31.34-.59.52-.88.1.11.3.24.28.33-.06.31-.19.61-.3.92-.07,0-.15,0-.22,0-.1-.13-.32-.31-.29-.38Zm1.17-.75c.67.04,1.28.07,1.9.13.07,0,.18.16.19.24.06,1.38-.36,2.57-1.39,3.52-.25.23-.42.1-.54-.14-.62-1.23-.68-2.49-.16-3.74Zm.18-.24c.36-.79.59-1.48,1.48-1.47.1,0,.27.17.28.27.03.38.01.77.01,1.28-.55-.03-1.12-.05-1.77-.08Zm1.27-1.92c-.59,0-1.08-.51-1.08-1.11,0-.6.53-1.12,1.12-1.12.6,0,1.07.51,1.07,1.14,0,.64-.46,1.09-1.11,1.08Zm-.73.38c-.41,1.03-1.1,1.21-2.17.61.68-.19,1.36-.38,2.17-.61Zm-4.48,3.45c.06,0,.12.01.17.02-.2.22-.41.44-.61.66-.03-.05-.05-.1-.08-.15-.39.21-.76.45-1.17.63-.33.15-.7.23-1.06.32-1.24.3-2.5.57-3.73.91-.61.17-1.18.49-1.77.74-.05-.06-.1-.11-.15-.17.26-.27.51-.56.79-.81.49-.42.99-.85,1.53-1.21.41-.27.87-.58,1.33-.63,1.57-.17,3.16-.23,4.74-.33Zm-7.05,6.5c.7-.21,1.4-.39,2.09-.63.56-.19.84.33,1.27.46.09.03.16.1.26.16-.07.16-.14.33-.22.51-1.37.68-4.37.7-5.04-.02.56-.17,1.1-.33,1.64-.49Zm13.53-5.7c.11-.56.21-1.06.33-1.62.11.13.36.29.38.47.06.5-.26.84-.71,1.15Zm-.37,24.13c.32.35.53.55.72.78.06.08.12.26.08.3-.13.15-.4.39-.46.35-.3-.2-.63-.42-.77-.73-.07-.14.27-.47.43-.71Zm-1.29.89c-.35.29-.75.52-1.19.83-.03-.77,1.95-2.77,2.97-3.09-.38.45-.12,1.1-.83,1.36-.38.14-.61.62-.95.9Zm2.08-2.19c.06-.09.23-.16.35-.16.55-.01,1.11-.04,1.66.02.19.02.39.26.54.44.44.55.83,1.14,1.3,1.66.17.19.5.24.94.43-.55.16-.94.32-1.34.38-1.19.18-2.28-.11-3.21-.86-.62-.51-.7-1.25-.23-1.91Zm3.12.67c-.6-1.08-.59-1.04.46-1.69.32-.2.67-.35,1.03-.49.49-.19.89-.07,1.22.37.09.13.32.23.47.22.96-.07,1.93-.12,2.88-.28.42-.07.78-.39,1.19-.54,1.65-.59,3.21-1.36,4.64-2.38.19-.14.56-.15.8-.07.18.06.34.34.4.55.03.1-.19.3-.33.4-1.57,1.1-3.17,2.18-4.73,3.3-1.18.85-2.5,1.34-3.89,1.68-.74.18-1.48.33-2.06.45-1.1-.16-1.66-.78-2.07-1.52Zm-2.12,5.3c.09-.11.19-.23.29-.34.28-.32.56-.64.75-1.04.26-.56.47-.81,1.12-.95,1.71-.36,3.54-.56,5.59-.62.78-.02,1.63-.21,2.39-.53.37.06.74.13,1.11.2,5.7,1.02,11.6,2.06,17.05-.04.11.71.15,1.41.12,2.1,0,.07,0,.13,0,.2-1.95.56-6.75,1.72-12.74,1.57-.9-.02-1.83-.06-2.72-.09-4.55-.16-9.25-.32-13.72.48.24-.29.51-.62.76-.93Zm7.49-3.8c-.47.03-.94.07-1.41.1-.11,0-.23-.02-.35-.03,0-.04,0-.07-.01-.11.53-.16,1.06-.33,1.59-.47,1.89-.48,3.36-1.67,4.88-2.81,1.04-.78,2.15-1.49,3.27-2.14.29-.17.79-.11,1.14.01.28.1.28.44-.03.64-2,1.32-3.99,2.65-5.99,3.96-.94.62-2.01.77-3.09.85Zm7.03-7.41c-.98.73-1.93,1.51-2.96,2.15-.62.38-1.4.5-2.06.83-.96.49-1.94.85-3.02.92-.27.02-.54,0-.78,0,.12-.44.23-.82.33-1.19.08-.28.13-.57.25-.83.57-1.2,1.18-2.38,1.75-3.59,0,0,0-.01,0-.02,3.27-.08,6.42-.36,9.36-.86-.17.25-.35.49-.54.72-.62.75-1.54,1.26-2.35,1.86Zm-6.31-2.26c.03-.17.06-.33.1-.5.07-.33.07-.7.21-.98.4-.77.85-1.51,1.31-2.25.19-.31.53-.54.68-.86.33-.71.58-1.45.89-2.17,0,0,.01,0,.02,0,.03-.06.05-.11.08-.17.33-.01.65-.03.95-.05,1.98-.13,5.47-1.1,9.23-2.53,0,.02-.02.04-.03.06.03-.02.06-.04.09-.05-.02.06-.05.11-.07.17-.96,2.18-1.86,4.38-2.87,6.53-.31.65-.64,1.29-1.02,1.91-.02,0-.05,0-.07,0-.05,0-.1,0-.14,0-2.94.51-6.08.8-9.35.89Zm-36.73.9c-2.52-1.71-4.4-3.98-5.55-6.8-.42-1.03-.81-2.11-1-3.2,1.01-.34,2.55-.75,4.73-1.06-.03.1-.06.2-.09.31.78-.05,1.53-.03,2.26-.16,1.4-.24,2.76-.78,4.23-.56.48.07.98.06,1.47.08v.13c-.07.03-.15.07-.23.1-.91.38-1.83.74-2.74,1.14-1.02.45-2,1.02-3.05,1.38-1.45.5-2.94.84-4.41,1.28-.25.07-.44.31-.66.48.22.2.4.46.66.58.61.3,1.27.5,1.87.82.84.44,1.65.44,2.37-.15,1.06-.87,2.29-1.42,3.5-2.02,1.28-.63,2.62-1.05,4.02-1.28,1.1-.18,2.2-.34,3.3-.51.31-.05.63-.22.93-.18.75.08,1.49.33,2.24.37.97.05,1.94-.04,2.93-.07,0-.02,0,.07-.03.15-.4,1.03-.88,2.05-1.2,3.11-.33,1.11-.53,2.26-.75,3.4-.12.64-.22,1.29-.25,1.93-.02.51,0,1.01.02,1.52-3.53,1.21-9.1,3.57-13.17,7.46.02-.08.03-.16.05-.24.49-2.25,1.54-4.24,2.91-6.15-1.62-.39-3.05-.96-4.33-1.84Zm1.2,9.2c2.02-2.07,6.09-5.33,13.35-7.83,0,.11,0,.23,0,.34-.02.96-.45,1.94.26,2.84.06.08.04.23.04.35.04.82.07,1.63.11,2.45,0,0,0,.02,0,.03-5.89,1.83-11.3,5.33-13.62,6.97-.36-1.76-.38-3.46-.14-5.15Zm6.9,15.06c-1.67-1.04-3.1-2.36-4.28-4-1.15-1.6-1.95-3.37-2.42-5.29,2.13-1.52,7.66-5.2,13.7-7.07.19.63.39,1.26.55,1.9.29,1.16.45,2.36,1.51,3.15.22.16.47.31.67.5.34.33.66.69.99,1.03.37.38.79.71,1.09,1.14.17.25.33.5.48.75-4.3,1.89-8.28,4.41-11.86,7.5-.15.13-.29.26-.44.39Zm48.53-9.12c-.34,1.29-.92,2.54-1.53,3.73-1,1.94-2.42,3.58-4.23,4.79-1.13.76-2.4,1.32-3.64,1.91-.63.3-1.31.58-1.99.67-1.39.19-2.8.32-4.2.34-.91.01-1.85-.09-2.72-.34-1.22-.35-2.43-.81-3.58-1.34-1.31-.61-2.49-1.47-3.47-2.54-.54-.58-1.06-1.19-1.53-1.83-.44-.6-.71-.64-1.2-.09-.83.93-1.63,1.89-2.53,2.74-.58.54-1.29.97-2,1.34-1.03.54-2.09,1.01-3.17,1.45-.51.21-1.07.33-1.62.39-1.12.13-2.25.26-3.37.25-2.14,0-4.17-.54-6.11-1.47-.39-.19-.77-.39-1.14-.6.11-.1.22-.2.33-.29,3.55-3.07,7.5-5.56,11.76-7.43.2.35.4.7.59,1.04.07.13.08.35.03.49-.31.81-.68,1.59-.95,2.41-.06.18.11.54.28.69.47.41.99.74,1.49,1.11.55.4,1.35.32,1.52-.16.15-.41.27-.84.37-1.26.2-.81.36-1.63.56-2.44.13-.53.28-1.05.43-1.57.15-.54.18-1.16.48-1.59.32-.45.66-.88,1.01-1.31l.67-.11c4.62-.93,9.54-.76,14.29-.6.9.03,1.83.06,2.73.09,6.05.16,10.9-1.01,12.88-1.58-.06,1.05-.17,2.1-.44,3.11Zm7.04-21.95c-.66,1.7-1.63,3.27-3.02,4.51-.85.76-1.67,1.57-2.61,2.2-.91.61-1.94,1.04-2.94,1.51-.39.18-.82.28-1.2.4.77,1.46,1.57,2.78,2.17,4.18.37.87.66,1.76.84,2.68-5.4,2.19-11.32,1.14-17.04.12-.4-.07-.79-.14-1.18-.21h-.07s-.07.02-.07.02c-.42.18-.86.32-1.3.41.55-.12,1.1-.3,1.58-.55,1.57-.8,3.05-1.8,4.58-2.68,1.83-1.05,3.76-1.93,5.32-3.42.29-.28.66-.51,1.04-.65,1.46-.53,2.69-1.42,3.81-2.46,1.47-1.35,2.68-2.93,3.75-4.6,3.31-1.55,5.69-3.21,7.28-4.52-.23,1.04-.55,2.07-.93,3.06Zm1.19-4.44c-.02.17-.05.34-.08.5-1.42,1.25-3.68,2.94-6.94,4.55.02-.05.05-.09.07-.14,0,0,0,0,0,0,.19-.37.32-.76.3-1.11-.12-2.03-.7-3.98-1.54-5.82.06-.03.13-.06.2-.08,0,0,0,0,0-.01,2.96-1.62,5.42-3.31,7.2-4.92.4.98.66,2.01.76,3.07.12,1.31.23,2.67.04,3.96Z"/>
  </g>
</svg>