<?xml version="1.0" encoding="UTF-8"?>
<svg xmlns="http://www.w3.org/2000/svg" viewBox="0 0 105 105">
  <defs>
    <style>
      .cls-0 {
        fill: #28282;
      }

      .cls-0, .cls-2, .cls-3 {
        stroke-width: 0px;
      }

      .cls-2 {
        fill: #e3d1b0;
      }

      .cls-3 {
        fill: #e4d2b1;
      }
    </style>
  </defs>
  <g>
    <rect class="cls-0" x="0" width="105" height="105" rx="52.22" ry="52.22"/>
    <path class="cls-2" d="m49.77,32.22c-.74,0-1.34-.6-1.34-1.33s.6-1.33,1.34-1.33h15.06c.74,0,1.33.6,1.33,1.33s-.6,1.33-1.33,1.33h-15.06Z"/>
    <path class="cls-2" d="m49.77,29.49c-.77,0-1.4.63-1.4,1.4s.63,1.4,1.4,1.4h15.06c.77,0,1.4-.63,1.4-1.4s-.63-1.4-1.4-1.4h-15.06Zm15.06,2.98h-15.06c-.87,0-1.58-.71-1.58-1.58s.71-1.58,1.58-1.58h15.06c.87,0,1.58.71,1.58,1.58s-.71,1.58-1.58,1.58"/>
    <path class="cls-2" d="m49.77,41.15c-.74,0-1.34-.6-1.34-1.33s.6-1.33,1.34-1.33h15.06c.74,0,1.33.6,1.33,1.33s-.6,1.33-1.33,1.33h-15.06Z"/>
    <path class="cls-2" d="m49.77,38.42c-.77,0-1.4.63-1.4,1.4s.63,1.4,1.4,1.4h15.06c.77,0,1.4-.63,1.4-1.4s-.63-1.4-1.4-1.4h-15.06Zm15.06,2.98h-15.06c-.87,0-1.58-.71-1.58-1.58s.71-1.58,1.58-1.58h15.06c.87,0,1.58.71,1.58,1.58s-.71,1.58-1.58,1.58"/>
    <path class="cls-2" d="m49.77,49.66c-.74,0-1.34-.6-1.34-1.33s.6-1.33,1.34-1.33h8.73c.74,0,1.34.6,1.34,1.33s-.6,1.33-1.34,1.33h-8.73Z"/>
    <path class="cls-2" d="m49.77,46.93c-.77,0-1.4.63-1.4,1.4s.63,1.4,1.4,1.4h8.73c.77,0,1.4-.63,1.4-1.4s-.63-1.4-1.4-1.4h-8.73Zm8.73,2.98h-8.73c-.87,0-1.58-.71-1.58-1.58s.71-1.58,1.58-1.58h8.73c.87,0,1.58.71,1.58,1.58s-.71,1.58-1.58,1.58"/>
    <path class="cls-2" d="m43.65,32.72c-1.01,0-1.84-.82-1.84-1.84s.82-1.84,1.84-1.84,1.84.82,1.84,1.84-.82,1.84-1.84,1.84"/>
    <path class="cls-2" d="m43.65,28.98c-1.05,0-1.9.85-1.9,1.9s.85,1.9,1.9,1.9,1.9-.85,1.9-1.9-.85-1.9-1.9-1.9m0,3.99c-1.15,0-2.09-.93-2.09-2.08s.93-2.08,2.09-2.08,2.08.94,2.08,2.08-.94,2.08-2.08,2.08"/>
    <path class="cls-2" d="m43.65,41.65c-1.01,0-1.84-.82-1.84-1.84s.82-1.84,1.84-1.84,1.84.83,1.84,1.84-.82,1.84-1.84,1.84"/>
    <path class="cls-2" d="m43.65,37.91c-1.05,0-1.9.85-1.9,1.9s.85,1.9,1.9,1.9,1.9-.85,1.9-1.9-.85-1.9-1.9-1.9m0,3.99c-1.15,0-2.09-.93-2.09-2.08s.93-2.08,2.09-2.08,2.08.94,2.08,2.08-.94,2.08-2.08,2.08"/>
    <path class="cls-2" d="m43.65,50.17c-1.01,0-1.84-.82-1.84-1.84s.82-1.84,1.84-1.84,1.84.82,1.84,1.84-.82,1.84-1.84,1.84"/>
    <path class="cls-2" d="m43.65,46.42c-1.05,0-1.9.85-1.9,1.9s.85,1.9,1.9,1.9,1.9-.85,1.9-1.9-.85-1.9-1.9-1.9m0,3.99c-1.15,0-2.09-.93-2.09-2.08s.93-2.08,2.09-2.08,2.08.94,2.08,2.08-.94,2.08-2.08,2.08"/>
    <path class="cls-2" d="m39.22,23.16c-.9,0-1.64.73-1.64,1.64v33.91c0,.9.74,1.64,1.64,1.64h29.52c.9,0,1.64-.73,1.64-1.64V24.8c0-.9-.73-1.64-1.64-1.64h-29.52Zm0,39.68c-2.28,0-4.14-1.86-4.14-4.14V24.8c0-2.28,1.86-4.14,4.14-4.14h29.52c2.28,0,4.14,1.86,4.14,4.14v33.91c0,2.28-1.86,4.14-4.14,4.14h-29.52Z"/>
    <path class="cls-2" d="m39.22,23.34c-.8,0-1.46.65-1.46,1.46v33.91c0,.8.65,1.46,1.46,1.46h29.52c.8,0,1.46-.65,1.46-1.46V24.8c0-.8-.65-1.46-1.46-1.46h-29.52Zm0,36.87c-.83,0-1.51-.67-1.51-1.51V24.8c0-.83.68-1.51,1.51-1.51h29.52c.83,0,1.51.68,1.51,1.51v33.91c0,.83-.68,1.51-1.51,1.51h-29.52Zm0-39.68c-2.36,0-4.27,1.92-4.27,4.27v33.91c0,2.35,1.91,4.27,4.27,4.27h29.52c2.35,0,4.27-1.92,4.27-4.27V24.8c0-2.35-1.92-4.27-4.27-4.27h-29.52Zm0,42.5c-2.38,0-4.32-1.94-4.32-4.32V24.8c0-2.38,1.94-4.32,4.32-4.32h29.52c2.38,0,4.32,1.94,4.32,4.32v33.91c0,2.38-1.94,4.32-4.32,4.32h-29.52Z"/>
  </g>
  <g>
    <path class="cls-3" d="m14.89,77.28c.77-.64,1.38-1.16,1.83-1.57s.84-.84,1.17-1.28c.33-.44.52-.88.59-1.31.02-.13.03-.26.03-.38,0-.34-.08-.6-.25-.79-.17-.19-.44-.28-.81-.28-.41,0-.75.15-1.03.44-.28.29-.46.69-.56,1.18h-1.17c.16-.9.51-1.58,1.05-2.06s1.17-.71,1.89-.71c.67,0,1.19.18,1.55.54s.55.85.55,1.46c0,.19-.01.37-.04.53-.08.54-.3,1.07-.64,1.58-.34.51-.72.97-1.13,1.38s-.95.88-1.59,1.43l-.56.48h3.36l-.18,1.12h-5.15l.16-.98.93-.78Z"/>
    <path class="cls-3" d="m20.8,79.03c-.12-.13-.18-.3-.18-.51,0-.28.09-.51.28-.71.19-.2.4-.3.64-.3.19,0,.34.07.46.2.12.13.17.3.17.51,0,.28-.09.51-.28.71-.18.2-.4.3-.64.3-.19,0-.35-.07-.47-.2Z"/>
  </g>
  <g>
    <path class="cls-3" d="m25.08,72.88c.43-.64.97-1.13,1.6-1.49s1.29-.54,1.98-.54c.78,0,1.45.21,2,.64.55.43.9,1.04,1.04,1.82h-1.45c-.13-.41-.35-.72-.66-.92-.3-.21-.68-.31-1.12-.31-.49,0-.94.12-1.36.36-.42.24-.77.59-1.06,1.04-.29.45-.48.97-.57,1.56-.04.26-.05.48-.05.66,0,.71.19,1.27.57,1.68.38.42.89.62,1.53.62.45,0,.86-.1,1.23-.31.38-.21.69-.52.94-.92h1.45c-.4.79-.94,1.39-1.62,1.81-.68.42-1.41.64-2.19.64-.61,0-1.15-.14-1.63-.42-.48-.28-.85-.68-1.12-1.19-.27-.51-.4-1.1-.4-1.77,0-.25.02-.52.06-.8.13-.8.41-1.52.84-2.16Z"/>
    <path class="cls-3" d="m34.05,78.91c-.38-.23-.67-.55-.88-.97-.21-.42-.31-.89-.31-1.42,0-.73.15-1.4.46-2,.31-.6.73-1.08,1.27-1.44.54-.35,1.14-.53,1.81-.53.49,0,.93.12,1.31.35.38.23.68.55.9.97.22.41.32.89.32,1.43,0,.73-.16,1.4-.48,2-.32.6-.75,1.08-1.29,1.43s-1.15.52-1.81.52c-.5,0-.93-.11-1.3-.34Zm2.56-1.17c.34-.25.6-.59.79-1.01s.29-.87.29-1.35c0-.54-.14-.96-.41-1.25-.28-.29-.62-.44-1.04-.44s-.78.13-1.1.38c-.32.26-.57.6-.75,1.03s-.27.89-.27,1.37c0,.53.13.94.39,1.23.26.29.59.44,1,.44s.77-.13,1.11-.38Z"/>
    <path class="cls-3" d="m45.67,73.1c.36.37.55.89.55,1.57,0,.17-.02.39-.05.65l-.62,3.83h-1.2l.58-3.63c.03-.22.04-.38.04-.47,0-.43-.11-.76-.32-.99-.22-.23-.51-.34-.9-.34-.46,0-.85.16-1.16.47s-.51.76-.6,1.34v-.04l-.58,3.66h-1.21l1.03-6.49h1.21l-.12.75c.24-.27.52-.48.85-.63.33-.15.67-.23,1.02-.23.62,0,1.1.18,1.47.55Z"/>
    <path class="cls-3" d="m48.77,79.03c-.33-.15-.59-.37-.78-.65-.19-.28-.29-.6-.29-.96,0-.06,0-.15.02-.26h1.18c-.03.3.05.55.24.74s.46.29.81.29.62-.07.84-.2.33-.33.33-.59c0-.22-.09-.4-.27-.53-.18-.13-.47-.28-.86-.45-.38-.17-.68-.32-.91-.46-.23-.14-.43-.34-.6-.58-.17-.25-.25-.55-.25-.92s.1-.71.29-1c.19-.29.47-.51.82-.67.35-.16.75-.24,1.2-.24.41,0,.78.08,1.1.23.32.15.57.37.75.65.18.28.27.6.27.96,0,.11,0,.19-.01.25h-1.15c.03-.31-.05-.55-.24-.74-.19-.19-.45-.28-.8-.28-.3,0-.55.07-.74.21s-.28.33-.28.58.1.44.29.58c.19.15.48.3.88.48.36.16.65.31.88.45.23.14.42.33.58.57.16.24.24.53.24.88,0,.38-.1.72-.31,1.01-.21.29-.5.51-.86.66s-.78.23-1.25.23c-.4,0-.77-.08-1.1-.23Z"/>
    <path class="cls-3" d="m60.33,72.66l-1.03,6.49h-1.21l.12-.77c-.23.27-.51.48-.84.63-.33.15-.67.23-1.01.23-.62,0-1.11-.18-1.47-.55-.37-.37-.55-.89-.55-1.57,0-.18.02-.4.05-.65l.6-3.82h1.2l-.57,3.62c-.03.22-.04.38-.04.47,0,.43.11.76.32.99.22.23.51.34.9.34.45,0,.82-.15,1.13-.44.31-.29.52-.72.62-1.28l.58-3.7h1.21Z"/>
    <path class="cls-3" d="m64.12,70.43l-1.39,8.72h-1.21l1.39-8.72h1.21Z"/>
    <path class="cls-3" d="m66.66,77.35c-.01.11-.02.18-.02.21,0,.17.05.29.14.36.09.08.24.11.46.11h.74l-.18,1.12h-.95c-.47,0-.82-.1-1.07-.31-.25-.21-.37-.54-.37-1,0-.17.01-.34.04-.5l.57-3.59h-.69l.17-1.1h.7l.25-1.61h1.22l-.25,1.61h1.41l-.17,1.1h-1.42l-.57,3.59Z"/>
    <path class="cls-3" d="m70.3,74.14c.32-.5.72-.89,1.18-1.17.47-.28.95-.42,1.46-.42.46,0,.84.1,1.16.3s.54.45.7.75l.15-.94h1.22l-1.03,6.49h-1.22l.16-.97c-.25.31-.57.56-.96.77s-.8.31-1.26.31-.83-.11-1.17-.33c-.34-.22-.61-.53-.81-.94s-.29-.87-.29-1.4c0-.24.02-.47.06-.72.11-.65.32-1.23.64-1.73Zm4.18,1.27c0-.53-.14-.94-.42-1.24s-.63-.45-1.04-.45c-.31,0-.61.08-.91.25s-.56.42-.77.74-.36.71-.43,1.16c-.03.15-.04.31-.04.48,0,.53.14.96.42,1.27s.63.46,1.04.46c.31,0,.61-.09.91-.26s.56-.43.77-.76c.22-.33.36-.72.43-1.17.03-.15.04-.31.04-.48Z"/>
    <path class="cls-3" d="m82.82,73.1c.36.37.55.89.55,1.57,0,.17-.02.39-.05.65l-.62,3.83h-1.2l.58-3.63c.03-.22.04-.38.04-.47,0-.43-.11-.76-.32-.99-.22-.23-.51-.34-.9-.34-.46,0-.85.16-1.16.47s-.51.76-.6,1.34v-.04l-.58,3.66h-1.21l1.03-6.49h1.21l-.12.75c.24-.27.52-.48.85-.63.33-.15.67-.23,1.02-.23.62,0,1.1.18,1.47.55Z"/>
    <path class="cls-3" d="m86.57,77.35c-.01.11-.02.18-.02.21,0,.17.05.29.14.36.09.08.24.11.46.11h.74l-.18,1.12h-.95c-.47,0-.82-.1-1.07-.31-.25-.21-.37-.54-.37-1,0-.17.01-.34.04-.5l.57-3.59h-.69l.17-1.1h.7l.25-1.61h1.22l-.25,1.61h1.41l-.17,1.1h-1.42l-.57,3.59Z"/>
  </g>
</svg>