<?xml version="1.0" encoding="UTF-8"?>
<svg xmlns="http://www.w3.org/2000/svg" viewBox="0 0 105 105">
  <defs>
    <style>
      .cls-0 {
        fill: #282828;
      }

      .cls-0, .cls-2, .cls-3 {
        stroke-width: 0px;
      }

      .cls-2 {
        fill: #e3d1b0;
      }

      .cls-3 {
        fill: #e4d2b1;
      }
    </style>
  </defs>
  <rect class="cls-0" x="0" width="105" height="105" rx="52.22" ry="52.22"/>
  <path class="cls-2" d="m52.99,62.56c-9.33,0-17.58-6.6-19.62-15.69-2.14-9.56,2.82-19.23,11.78-22.99,2.6-1.09,5.25-1.65,7.86-1.65,2.93,0,5.9.7,8.82,2.07.45.21.78.54.94.93.16.39.14.81-.06,1.22-.26.56-.78.89-1.39.89-.26,0-.51-.06-.76-.18-1.67-.8-3.12-1.28-4.56-1.49-1.08-.16-2.13-.25-3.15-.25-5.13,0-9.5,2.1-12.99,6.23-2.91,3.45-4.18,7.58-3.79,12.3.62,7.49,6.49,13.87,13.96,15.18.99.17,1.99.26,2.98.26,8.14,0,15.17-5.81,16.7-13.82.4-2.12.4-4.28-.02-6.42-.2-1.01.2-1.8,1.04-2.04.15-.05.32-.07.47-.07.79,0,1.42.54,1.52,1.32l.08.61c.18,1.23.35,2.49.3,3.72-.36,8.43-4.44,14.54-12.12,18.18-2.35,1.11-4.97,1.66-8.01,1.68"/>
  <path class="cls-2" d="m50.36,48.49c-.21,0-.42-.03-.64-.1-.4-.12-.8-.35-1.09-.64-1.4-1.35-2.78-2.76-4.13-4.13l-.18-.19c-.65-.66-.67-1.6-.04-2.23.3-.3.69-.47,1.1-.47s.84.18,1.16.49c.87.86,1.74,1.73,2.6,2.6l.68.69c.07.07.13.15.21.24.04.06.1.12.16.19l.11.13s.33-.36.43-.47c.19-.21.36-.4.53-.57l7.19-7.21c4.09-4.1,8.18-8.21,12.27-12.31.39-.39.79-.58,1.22-.58.14,0,.29.02.44.06.52.14.92.53,1.08,1.03.16.51.04,1.07-.31,1.48-.22.26-.47.51-.72.75-.09.09-.19.19-.28.28l-5.24,5.25c-4.94,4.95-9.87,9.89-14.8,14.84-.56.57-1.14.84-1.75.84"/>
  <g>
    <path class="cls-3" d="m25.73,72.01l.2-1.23h2.21l-1.34,8.37h-1.22l1.13-7.14h-.99Z"/>
    <path class="cls-3" d="m29.27,79.03c-.12-.13-.18-.3-.18-.51,0-.28.09-.51.28-.71.19-.2.4-.3.64-.3.19,0,.34.07.46.2.12.13.17.3.17.51,0,.28-.09.51-.28.71-.18.2-.4.3-.64.3-.19,0-.35-.07-.47-.2Z"/>
  </g>
  <g>
    <path class="cls-3" d="m41.8,71.51c.38.37.57.85.57,1.44,0,.1-.01.26-.04.46-.08.53-.3,1.01-.65,1.45-.35.44-.83.74-1.43.9l1.28,3.39h-1.44l-1.17-3.28h-.93l-.52,3.28h-1.21l1.3-8.19h2.54c.74,0,1.3.18,1.69.55Zm-.68,1.56c0-.34-.1-.6-.29-.78s-.49-.28-.89-.28h-1.34l-.45,2.8h1.34c.45,0,.81-.12,1.09-.38.27-.25.44-.59.5-1.02.02-.12.03-.23.03-.34Z"/>
    <path class="cls-3" d="m48.91,73.24c.43.46.65,1.07.65,1.84,0,.18-.02.4-.05.65-.03.17-.08.38-.15.64h-4.46c0,.05-.01.14-.01.25,0,.46.13.83.39,1.11.26.28.6.41,1.01.41.66,0,1.16-.3,1.52-.91h1.3c-.27.6-.66,1.09-1.19,1.47-.52.38-1.13.57-1.81.57-.49,0-.92-.11-1.28-.32-.37-.21-.65-.52-.86-.91s-.31-.86-.31-1.4c0-.23.02-.47.06-.73.11-.67.32-1.25.65-1.76.33-.51.73-.9,1.21-1.17.48-.27,1.01-.41,1.59-.41.73,0,1.31.23,1.74.68Zm-.59,1.85c0-.43-.13-.77-.39-1.03-.26-.25-.59-.38-1-.38-.43,0-.82.15-1.17.46-.35.31-.58.72-.71,1.25h3.24c.01-.14.02-.24.02-.31Z"/>
    <path class="cls-3" d="m51.83,79.03c-.33-.15-.59-.37-.78-.65-.19-.28-.29-.6-.29-.96,0-.06,0-.15.02-.26h1.18c-.03.3.05.55.24.74s.46.29.81.29.62-.07.84-.2.33-.33.33-.59c0-.22-.09-.4-.27-.53-.18-.13-.47-.28-.86-.45-.38-.17-.68-.32-.91-.46-.23-.14-.43-.34-.6-.58-.17-.25-.25-.55-.25-.92s.1-.71.29-1c.19-.29.47-.51.82-.67.35-.16.75-.24,1.2-.24.41,0,.78.08,1.1.23.32.15.57.37.75.65.18.28.27.6.27.96,0,.11,0,.19-.01.25h-1.15c.03-.31-.05-.55-.24-.74-.19-.19-.45-.28-.8-.28-.3,0-.55.07-.74.21s-.28.33-.28.58.1.44.29.58c.19.15.48.3.88.48.36.16.65.31.88.45.23.14.42.33.58.57.16.24.24.53.24.88,0,.38-.1.72-.31,1.01-.21.29-.5.51-.86.66s-.78.23-1.25.23c-.4,0-.77-.08-1.1-.23Z"/>
    <path class="cls-3" d="m62.38,73.24c.43.46.65,1.07.65,1.84,0,.18-.02.4-.05.65-.03.17-.08.38-.15.64h-4.46c0,.05-.01.14-.01.25,0,.46.13.83.39,1.11.26.28.6.41,1.01.41.66,0,1.16-.3,1.52-.91h1.3c-.27.6-.66,1.09-1.19,1.47-.52.38-1.13.57-1.81.57-.49,0-.92-.11-1.28-.32-.37-.21-.65-.52-.86-.91s-.31-.86-.31-1.4c0-.23.02-.47.06-.73.11-.67.32-1.25.65-1.76.33-.51.73-.9,1.21-1.17.48-.27,1.01-.41,1.59-.41.73,0,1.31.23,1.74.68Zm-.59,1.85c0-.43-.13-.77-.39-1.03-.26-.25-.59-.38-1-.38-.43,0-.82.15-1.17.46-.35.31-.58.72-.71,1.25h3.24c.01-.14.02-.24.02-.31Z"/>
    <path class="cls-3" d="m67.16,72.88c.33-.22.69-.33,1.1-.33l-.22,1.39h-.31c-.47,0-.84.13-1.12.39-.28.26-.48.71-.59,1.34l-.55,3.48h-1.21l1.03-6.49h1.21l-.18,1.14c.24-.39.52-.7.85-.92Z"/>
    <path class="cls-3" d="m71.4,77.95l2.49-5.29h1.3l-3.26,6.49h-1.46l-1.19-6.49h1.29l.82,5.29Z"/>
    <path class="cls-3" d="m81.01,73.24c.43.46.65,1.07.65,1.84,0,.18-.02.4-.05.65-.03.17-.08.38-.15.64h-4.46c0,.05-.01.14-.01.25,0,.46.13.83.39,1.11.26.28.6.41,1.01.41.66,0,1.16-.3,1.52-.91h1.3c-.27.6-.66,1.09-1.19,1.47-.52.38-1.13.57-1.81.57-.49,0-.92-.11-1.28-.32-.37-.21-.65-.52-.86-.91s-.31-.86-.31-1.4c0-.23.02-.47.06-.73.11-.67.32-1.25.65-1.76.33-.51.73-.9,1.21-1.17.48-.27,1.01-.41,1.59-.41.73,0,1.31.23,1.74.68Zm-.59,1.85c0-.43-.13-.77-.39-1.03-.26-.25-.59-.38-1-.38-.43,0-.82.15-1.17.46-.35.31-.58.72-.71,1.25h3.24c.01-.14.02-.24.02-.31Z"/>
  </g>
</svg>