<?xml version="1.0" encoding="UTF-8"?>
<svg xmlns="http://www.w3.org/2000/svg" viewBox="0 0 105 105">
  <defs>
    <style>
      .cls-0 {
        fill: #282828;
      }

      .cls-0, .cls-2, .cls-3 {
        stroke-width: 0px;
      }

      .cls-2 {
        fill: #e3d1b0;
      }

      .cls-3 {
        fill: #e4d2b1;
      }
    </style>
  </defs>
  <g>
    <rect class="cls-0" x="0" width="105" height="105" rx="52.22" ry="52.22"/>
    <path class="cls-2" d="m70.46,59.36c-.57,0-1.09-.32-1.35-.83-3.2-6.23-9.56-10.1-16.6-10.1-1.11,0-2.23.1-3.33.29-5.58.98-10.53,4.65-13.24,9.81-.27.51-.79.82-1.36.82-.54,0-1.04-.28-1.32-.74-.29-.47-.3-1.04-.05-1.53,3.09-5.96,8.86-10.21,15.46-11.37,1.28-.22,2.59-.34,3.88-.34,8.18,0,15.58,4.5,19.3,11.75.24.48.22,1.04-.06,1.5-.28.46-.77.73-1.3.73"/>
    <path class="cls-2" d="m52.36,22.68c-2.17.02-4.22.89-5.77,2.47-1.59,1.62-2.45,3.75-2.43,6.01.04,4.45,3.8,8.21,8.19,8.21h.13c4.66-.08,8.41-3.82,8.36-8.35-.05-4.68-3.75-8.34-8.42-8.34h-.07Zm0,19.74c-6.03,0-11.18-5.14-11.24-11.22-.03-3.08,1.14-5.98,3.3-8.18,2.12-2.16,4.93-3.36,7.92-3.38h.09c6.36,0,11.4,4.99,11.47,11.36.07,6.2-5.02,11.32-11.36,11.43-.06,0-.12,0-.18,0"/>
  </g>
  <g>
    <g>
      <path class="cls-3" d="m13.69,77.36l.16-1.01,4.46-5.68h1.46l-.87,5.53h.99l-.19,1.17h-.99l-.29,1.79h-1.19l.29-1.79h-3.84Zm4.74-5.33l-3.16,4.16h2.5l.66-4.16Z"/>
      <path class="cls-3" d="m21.22,79.03c-.12-.13-.18-.3-.18-.51,0-.28.09-.51.28-.71s.4-.3.64-.3c.19,0,.34.07.46.2.12.13.17.3.17.51,0,.28-.09.51-.28.71s-.4.3-.64.3c-.19,0-.35-.07-.47-.2Z"/>
    </g>
    <g>
      <path class="cls-3" d="m25.5,72.88c.43-.64.97-1.13,1.6-1.49s1.29-.54,1.98-.54c.78,0,1.45.21,2,.64.55.43.9,1.04,1.04,1.82h-1.45c-.13-.41-.35-.72-.66-.92s-.68-.31-1.12-.31c-.49,0-.94.12-1.36.36-.42.24-.77.59-1.06,1.04-.29.45-.48.97-.57,1.56-.04.26-.05.48-.05.66,0,.71.19,1.27.57,1.68.38.42.89.62,1.53.62.45,0,.86-.1,1.23-.31.38-.21.69-.52.94-.92h1.45c-.4.79-.94,1.39-1.62,1.81s-1.41.64-2.19.64c-.61,0-1.15-.14-1.63-.42-.48-.28-.85-.68-1.12-1.19-.27-.51-.4-1.1-.4-1.77,0-.25.02-.52.06-.8.13-.8.41-1.52.84-2.16Z"/>
      <path class="cls-3" d="m39.54,72.66l-1.03,6.49h-1.21l.12-.77c-.23.27-.51.48-.84.63-.33.15-.67.23-1.01.23-.62,0-1.11-.18-1.47-.55-.37-.37-.55-.89-.55-1.57,0-.18.02-.4.05-.65l.6-3.82h1.2l-.57,3.62c-.03.22-.04.38-.04.47,0,.43.11.76.32.99.22.23.51.34.9.34.45,0,.82-.15,1.13-.44.31-.29.52-.72.62-1.28l.58-3.7h1.21Z"/>
      <path class="cls-3" d="m41.79,79.03c-.33-.15-.59-.37-.79-.65-.19-.28-.29-.6-.29-.96,0-.06,0-.15.02-.26h1.18c-.03.3.05.55.24.74.19.2.46.29.81.29s.62-.07.84-.2c.22-.13.33-.33.33-.59,0-.22-.09-.4-.27-.53-.18-.13-.47-.28-.86-.45-.38-.17-.68-.32-.91-.46-.23-.14-.43-.34-.6-.58-.17-.25-.25-.55-.25-.92s.1-.71.29-1c.19-.29.47-.51.82-.67.35-.16.75-.24,1.2-.24.41,0,.78.08,1.1.23s.57.37.75.65c.18.28.27.6.27.96,0,.11,0,.19-.01.25h-1.15c.03-.31-.05-.55-.24-.74s-.45-.28-.8-.28c-.3,0-.55.07-.74.21s-.28.33-.28.58.1.44.29.58c.19.15.48.3.88.48.36.16.65.31.88.45.23.14.42.33.58.57.16.24.24.53.24.88,0,.38-.1.72-.31,1.01-.21.29-.5.51-.86.66-.37.15-.78.23-1.25.23-.4,0-.77-.08-1.1-.23Z"/>
      <path class="cls-3" d="m48.72,77.35c-.01.11-.02.18-.02.21,0,.17.05.29.14.36.09.08.24.11.46.11h.74l-.18,1.12h-.95c-.47,0-.82-.1-1.07-.31-.25-.21-.37-.54-.37-1,0-.17.01-.34.04-.5l.57-3.59h-.69l.17-1.1h.7l.25-1.61h1.22l-.25,1.61h1.41l-.17,1.1h-1.42l-.57,3.59Z"/>
      <path class="cls-3" d="m52.86,78.91c-.38-.23-.67-.55-.88-.97-.21-.42-.31-.89-.31-1.42,0-.73.15-1.4.46-2,.31-.6.73-1.08,1.27-1.44.54-.35,1.14-.53,1.81-.53.49,0,.93.12,1.31.35s.68.55.9.97c.22.41.32.89.32,1.43,0,.73-.16,1.4-.48,2s-.75,1.08-1.29,1.43c-.54.35-1.15.52-1.81.52-.5,0-.93-.11-1.3-.34Zm2.56-1.17c.34-.25.6-.59.79-1.01.19-.42.29-.87.29-1.35,0-.54-.14-.96-.41-1.25-.28-.29-.62-.44-1.04-.44s-.78.13-1.1.38c-.32.26-.57.6-.75,1.03-.18.43-.27.89-.27,1.37,0,.53.13.94.39,1.23.26.29.59.44,1,.44s.77-.13,1.11-.38Z"/>
      <path class="cls-3" d="m68.6,73.11c.37.37.55.89.55,1.57,0,.18-.02.4-.05.65l-.62,3.83h-1.2l.58-3.63c.03-.22.04-.38.04-.47,0-.43-.11-.76-.32-.99-.22-.23-.51-.34-.9-.34-.46,0-.85.16-1.16.47s-.51.76-.6,1.34l-.58,3.63h-1.2l.58-3.63c.03-.22.04-.38.04-.47,0-.43-.11-.76-.32-.99-.22-.23-.51-.34-.9-.34-.46,0-.85.16-1.16.47s-.51.76-.6,1.34v-.04l-.58,3.66h-1.21l1.03-6.49h1.21l-.12.75c.23-.27.51-.48.84-.63.33-.15.67-.23,1.02-.23.47,0,.87.11,1.2.33s.57.54.71.95c.23-.39.56-.71.96-.94.41-.23.83-.35,1.26-.35.61,0,1.11.18,1.47.55Z"/>
      <path class="cls-3" d="m72.9,72.66l-1.03,6.49h-1.21l1.03-6.49h1.21Zm-.92-1.06c-.12-.13-.18-.3-.18-.51,0-.27.09-.51.28-.71.19-.2.4-.3.64-.3.19,0,.34.07.46.2.12.13.17.3.17.51,0,.28-.09.51-.28.71-.18.2-.4.3-.64.3-.19,0-.35-.07-.47-.2Z"/>
      <path class="cls-3" d="m75.35,78.05h2.65l-.18,1.1h-4.05l.18-1.1,3.34-4.3h-2.66l.17-1.1h4.05l-.17,1.1-3.33,4.3Z"/>
      <path class="cls-3" d="m85.02,73.24c.43.46.65,1.07.65,1.84,0,.18-.02.4-.05.65-.03.17-.08.38-.15.64h-4.46c0,.05-.01.14-.01.25,0,.46.13.83.39,1.11.26.28.59.41,1.01.41.66,0,1.16-.3,1.52-.91h1.3c-.27.6-.67,1.09-1.19,1.47-.52.38-1.13.57-1.81.57-.49,0-.92-.11-1.28-.32s-.65-.52-.86-.91-.31-.86-.31-1.4c0-.23.02-.47.06-.73.11-.67.32-1.25.65-1.76.33-.51.73-.9,1.21-1.17.48-.27,1.01-.41,1.59-.41.73,0,1.31.23,1.74.68Zm-.59,1.85c0-.43-.13-.77-.39-1.03-.26-.25-.59-.38-1-.38-.43,0-.82.15-1.17.46-.35.31-.58.72-.71,1.25h3.24c.01-.14.02-.24.02-.31Z"/>
      <path class="cls-3" d="m87.65,74.14c.32-.5.72-.89,1.18-1.17.47-.28.96-.42,1.47-.42.38,0,.74.09,1.08.28.34.18.6.43.77.74l.5-3.13h1.22l-1.39,8.72h-1.22l.16-.98c-.25.32-.57.58-.95.78s-.79.3-1.25.3-.84-.11-1.19-.33c-.35-.22-.62-.53-.81-.94s-.29-.87-.29-1.4c0-.24.02-.47.06-.72.11-.65.32-1.23.64-1.73Zm4.18,1.27c0-.53-.14-.94-.42-1.24s-.63-.45-1.04-.45c-.31,0-.61.08-.91.25s-.56.42-.77.74c-.22.33-.36.71-.43,1.16-.03.15-.04.31-.04.48,0,.53.14.96.42,1.27s.63.46,1.04.46c.31,0,.61-.09.91-.26s.56-.43.77-.76.36-.72.43-1.17c.03-.15.04-.31.04-.48Z"/>
    </g>
  </g>
</svg>