<?xml version="1.0" encoding="UTF-8"?>
<svg xmlns="http://www.w3.org/2000/svg" viewBox="0 0 105 105">
  <defs>
    <style>
      .cls-0 {
        fill: #282828;
      }

      .cls-0, .cls-2, .cls-3 {
        stroke-width: 0px;
      }

      .cls-2 {
        fill: #e3d1b0;
      }

      .cls-3 {
        fill: #e4d2b1;
      }
    </style>
  </defs>
  <g>
    <rect class="cls-0" x="0" width="105" height="105" rx="52.22" ry="52.22"/>
    <path class="cls-2" d="m51.74,47.94c-.23,0-.46-.04-.7-.11-.44-.13-.87-.39-1.2-.7-1.52-1.47-3.03-3-4.49-4.49l-.22-.22c-.71-.72-.73-1.76-.05-2.46.33-.33.76-.52,1.21-.52s.92.19,1.28.54c.94.93,1.89,1.88,2.8,2.81l.78.79c.07.08.14.16.23.26.05.06.11.13.17.21l.11.14.12-.13c.12-.13.23-.25.33-.37.21-.23.39-.44.59-.63,3.48-3.49,4.36-4.36,5.21-5.2.87-.86,1.69-1.68,5.29-5.29.43-.43.87-.64,1.35-.64.15,0,.32.02.48.07.57.16,1.01.58,1.18,1.14.17.57.05,1.18-.34,1.63-.24.29-.52.56-.79.82-.1.1-.21.2-.31.31-3.56,3.57-4.54,4.54-5.49,5.49-.98.97-1.9,1.88-5.63,5.63-.62.62-1.25.92-1.92.92m-8.28-22.11c-2.98,0-5.68,1.42-7.42,3.89-1.87,2.66-2.2,6.01-.89,8.96.57,1.28,1.48,2.33,2.65,3.5,3.62,3.59,7.35,7.32,10.63,10.61l4.09,4.09.11-.11s7.37-7.37,9.17-9.17c.68-.67,1.36-1.34,2.04-2.01,1.37-1.35,2.79-2.75,4.13-4.14,2.66-2.76,3.39-5.94,2.17-9.45-1.26-3.62-3.82-5.67-7.61-6.09-.4-.04-.8-.07-1.19-.07-3.19,0-5.78,1.51-7.69,4.47-.13.2-.26.4-.39.62l-.23.37c-.11.17-.29.28-.5.28-.2,0-.39-.1-.5-.28l-.24-.39c-.16-.25-.29-.47-.43-.69-1.75-2.72-4.11-4.15-7.22-4.38-.22-.01-.44-.02-.66-.02m9.06,33.87c-.74,0-1.44-.31-2.03-.9-1.58-1.58-3.16-3.16-4.74-4.75l-.12-.12c-3.04-3.05-6.49-6.5-9.82-9.8-1.14-1.13-2.41-2.52-3.2-4.28-1.57-3.52-1.38-7.45.51-10.78,1.88-3.31,5.13-5.48,8.92-5.93.55-.07,1.1-.1,1.62-.1,3.28,0,6.17,1.28,8.58,3.82l.25.26.25-.26c1-1.07,2.1-1.9,3.35-2.53,1.65-.84,3.51-1.29,5.38-1.29,1.96,0,3.9.49,5.63,1.41,3.48,1.85,5.74,5.13,6.22,9.01.48,3.87-.69,7.25-3.48,10.06-1.61,1.62-3.22,3.22-4.78,4.77-.95.94-1.9,1.89-2.84,2.83-1.2,1.19-2.39,2.39-3.59,3.59l-.49.49c-1.21,1.21-2.41,2.42-3.62,3.62-.59.58-1.28.89-2.01.89"/>
  </g>
  <g>
    <g>
      <path class="cls-3" d="m36.47,70.97c.53-.41,1.16-.61,1.88-.61.66,0,1.16.17,1.52.51s.53.78.53,1.32c0,.13-.01.27-.03.41-.08.49-.26.9-.54,1.25-.28.35-.6.58-.95.7v.05c.33.12.58.32.75.59.18.28.26.63.26,1.07,0,.2-.01.38-.04.54-.11.71-.42,1.28-.93,1.73-.51.45-1.15.67-1.94.67-.69,0-1.25-.18-1.66-.55s-.63-.89-.63-1.57c0-.18,0-.32.02-.41h1.17s-.01.1-.01.18c0,.37.11.67.33.9.22.23.53.34.94.34.44,0,.8-.13,1.07-.39.28-.26.45-.6.51-1.02.02-.13.03-.25.03-.35,0-.42-.14-.71-.42-.9-.28-.18-.71-.27-1.29-.27h-.28l.18-1.11h.29c.57,0,1.03-.11,1.36-.32.33-.2.53-.53.6-.97.01-.12.02-.22.02-.27,0-.3-.09-.53-.28-.71s-.45-.26-.81-.26c-.4,0-.72.11-.98.34-.26.22-.43.5-.53.83h-1.18c.16-.73.5-1.3,1.03-1.71Z"/>
      <path class="cls-3" d="m41.53,79.03c-.12-.13-.18-.3-.18-.51,0-.28.09-.51.28-.71.19-.2.4-.3.64-.3.19,0,.34.07.46.2.12.13.17.3.17.51,0,.28-.09.51-.28.71-.18.2-.4.3-.64.3-.19,0-.35-.07-.47-.2Z"/>
    </g>
    <g>
      <path class="cls-3" d="m50.78,70.96l-.17,1.05h-1.96l-1.13,7.14h-1.21l1.13-7.14h-1.97l.17-1.05h5.14Z"/>
      <path class="cls-3" d="m54.25,72.88c.33-.22.69-.33,1.1-.33l-.22,1.39h-.31c-.47,0-.84.13-1.12.39-.28.26-.48.71-.59,1.34l-.55,3.48h-1.21l1.03-6.49h1.21l-.18,1.14c.24-.39.52-.7.85-.92Z"/>
      <path class="cls-3" d="m57.73,72.66l.86,4.95,2.49-4.95h1.25l-5.09,9.54h-1.25l1.69-3.16-1.29-6.38h1.35Z"/>
    </g>
    <g>
      <path class="cls-3" d="m69.18,70.96l-1.3,8.19h-1.21l1.3-8.19h1.21Z"/>
      <path class="cls-3" d="m71.8,77.35c-.01.11-.02.18-.02.21,0,.17.04.29.14.36.09.08.24.11.46.11h.74l-.18,1.12h-.95c-.47,0-.82-.1-1.07-.31s-.37-.54-.37-1c0-.17.01-.34.04-.5l.57-3.59h-.69l.17-1.1h.7l.25-1.61h1.22l-.25,1.61h1.41l-.17,1.1h-1.42l-.57,3.59Z"/>
    </g>
  </g>
</svg>