<?xml version="1.0" encoding="UTF-8"?>
<svg id="uuid-d2b01df8-5a10-47cf-ab98-16426431679b" data-name="圖層 1" xmlns="http://www.w3.org/2000/svg" viewBox="0 0 90 75">
  <defs>
    <style>
      .uuid-c4532539-3cb8-4b71-bec3-1027985e2ac7 {
        fill: none;
      }

      .uuid-c4532539-3cb8-4b71-bec3-1027985e2ac7, .uuid-0f480255-46fe-4fbe-ae4d-7a4e70200eca {
        stroke-width: 0px;
      }

      .uuid-0f480255-46fe-4fbe-ae4d-7a4e70200eca {
        fill: #e3d1b0;
      }
    </style>
  </defs>
  <path class="uuid-0f480255-46fe-4fbe-ae4d-7a4e70200eca" d="m38.83,23.03c1.83,0,3.32-1.49,3.32-3.32s-1.49-3.32-3.32-3.32-3.32,1.49-3.32,3.32,1.49,3.32,3.32,3.32Zm15.49,4.55c1.83,0,3.32-1.49,3.32-3.32s-1.49-3.32-3.32-3.32-3.32,1.49-3.32,3.32,1.49,3.32,3.32,3.32Zm24.17-12.91c-.39-.39-.95-.57-1.49-.46l-8.13,1.56c-.61.12-1.1.56-1.28,1.15-.18.59-.02,1.23.41,1.67l2.06,2.06-15.36,15.36c-.58.58-1.41.91-2.28.91s-1.7-.33-2.28-.91l-5.52-5.52c-1.27-1.27-2.96-1.97-4.76-1.97s-3.49.7-4.76,1.97l-17.69,17.69c-.68.68-.68,1.8,0,2.48.33.33.77.51,1.24.51s.91-.18,1.24-.51l17.69-17.69c1.26-1.26,3.3-1.26,4.56,0l5.52,5.52c1.27,1.27,2.96,1.97,4.76,1.97s3.49-.7,4.76-1.97l15.36-15.36,2.04,2.03c.44.44,1.08.6,1.67.42.59-.18,1.03-.67,1.15-1.28l1.56-8.13c.1-.54-.07-1.1-.46-1.49Zm-6.78,43.52H18.82c-2.37,0-4.3-1.93-4.3-4.3V15.06c0-.97-.79-1.75-1.75-1.75s-1.75.79-1.75,1.75v38.84c0,4.3,3.5,7.8,7.8,7.8h52.91c.97,0,1.75-.79,1.75-1.75s-.79-1.75-1.75-1.75ZM25.43,30.89c1.83,0,3.32-1.49,3.32-3.32s-1.49-3.32-3.32-3.32-3.32,1.49-3.32,3.32,1.49,3.32,3.32,3.32Z"/>
  <rect class="uuid-c4532539-3cb8-4b71-bec3-1027985e2ac7" width="90" height="75"/>
</svg>