<?xml version="1.0" encoding="UTF-8"?>
<svg id="uuid-eef59c4a-b332-43b2-ac70-6d11b3663359" data-name="圖層 1" xmlns="http://www.w3.org/2000/svg" viewBox="0 0 90 75">
  <defs>
    <style>
      .uuid-f50c5023-106b-4a32-a727-385d7235504a {
        fill: none;
      }

      .uuid-f50c5023-106b-4a32-a727-385d7235504a, .uuid-0aacf8c5-d18d-4cc4-9bc4-0a732183f37a {
        stroke-width: 0px;
      }

      .uuid-0aacf8c5-d18d-4cc4-9bc4-0a732183f37a {
        fill: #e3d1b0;
      }
    </style>
  </defs>
  <path class="uuid-0aacf8c5-d18d-4cc4-9bc4-0a732183f37a" d="m32.1,53.34c-.18.14-.34.3-.51.48l-4.8,4.75c-.11.11-.23.22-.37.35l-.65.61-1.31-1.45c-.43-.48-.85-.96-1.29-1.42-.42-.44-.93-.57-1.59-.39-.56.16-.9.55-1.04,1.19-.07.31-.1.8.43,1.39.28.32.57.63.85.95l.19.21c.77.85,1.57,1.72,2.31,2.63.39.47.87.72,1.38.72s.98-.23,1.41-.67c1.59-1.64,3.29-3.31,4.79-4.78.68-.67,1.37-1.34,2.14-2.11.09-.09.18-.17.25-.27.49-.63.45-1.55-.1-2.1-.53-.53-1.48-.57-2.1-.08Zm8.84-19.97c.84,0,1.68,0,2.52,0h9.7c.13,0,.26,0,.39-.02.44-.05.83-.3,1.08-.68.25-.39.32-.86.18-1.29-.24-.74-.8-1.13-1.63-1.13-4.05-.02-8.1,0-12.17,0-.17,0-.38.04-.6.1-.38.12-.7.39-.88.76-.19.38-.23.81-.1,1.19.23.68.77,1.06,1.51,1.07Zm39.04,19.74c-.85-2-2.13-3.62-3.8-4.83l-.81-.62.42-.59c.06-.09.12-.18.19-.26,1.28-1.46,1.97-3.28,2.11-5.57.08-1.27-.02-2.65-.29-4.21-.15-.88-.63-1.37-1.47-1.52-2.7-.48-4.56-.46-6.38.02-.47.12-.92.31-1.48.54-.19.08-.38.16-.56.23-.07.03-.14.06-.27.12l-1.13.54v-7.98c0-4.77,0-6.41,0-11.18,0-.48-.02-1.1-.16-1.66-.5-2.07-2.26-3.41-4.48-3.44-.89,0-1.79-.01-2.68-.01h-5.35s-.18-.3-.18-.3c-.12-.2-.23-.4-.34-.6-.22-.39-.42-.76-.66-1.08-1.16-1.55-2.71-2.34-4.72-2.41-.31,0-.61-.01-.92-.01h-2.81s-.1-.49-.1-.49c-.4-1.93-1.3-3.36-2.77-4.36-1.1-.75-2.31-1.13-3.61-1.13h-.15c-1.58.03-2.93.56-4.13,1.6-1.15,1-1.85,2.27-2.16,3.88l-.09.51h-2.13c-.33,0-.67,0-1,0h-.26c-.61.03-1.18.05-1.71.18-1.81.45-3.1,1.48-3.95,3.16l-.5,1.05h-5.25c-.95,0-1.9,0-2.85,0-1.45,0-2.6.5-3.5,1.51-.72.8-1.09,1.69-1.12,2.71-.01.28-.01.57-.01.85,0,17.66,0,32.2,0,49.87v.18c0,.48,0,.94.1,1.35.43,1.78,1.52,2.9,3.33,3.41.09.03.19.06.28.1l.07.03h59.71l.16-.03c.17-.07.33-.13.5-.19,1.43-.46,2.57-1.24,3.49-2.4,1.98-2.48,3.27-4.94,3.96-7.52.9-3.4.73-6.49-.53-9.45Zm-13.08-10.82c.66-2.18,2.22-3.52,4.51-3.88,1.31-.2,2.15-.18,3.05.05l.44.11.03.45c.09,1.3.14,2.81-.43,4.27-.52,1.33-1.48,2.28-2.88,2.83-1.31.52-2.8.72-4.49.64l-.57-.03-.03-.57c-.05-1.15-.05-2.51.36-3.88ZM24.7,13.8c.26-1.37,1.42-2.34,2.82-2.36.54,0,1.09-.01,1.63-.01h3.18c.17,0,.33,0,.5,0,.79-.03,1.36-.52,1.49-1.27.05-.3.06-.63.06-.99,0-.18,0-.36.02-.54.07-1.53,1.04-2.71,2.51-3.1.26-.07.52-.1.79-.1,1.54,0,2.92,1.1,3.22,2.56.11.53.15,1.09.12,1.68-.03.5.11.91.42,1.24.33.35.8.53,1.39.53h0c.62-.03,1.24-.03,1.87-.03.44,0,2.99.01,2.99.01.79,0,1.47.23,2.01.68.92.78,1.25,2.01.84,3.13-.41,1.12-1.4,1.82-2.59,1.83-1.51,0-3.02,0-4.53,0h-4.76s-5.66,0-5.66,0c-1.71,0-3.41,0-5.12,0-.46,0-.95-.02-1.42-.18-1.24-.44-2.03-1.8-1.78-3.1Zm-10.82,55.76h-.27c-.1,0-.2,0-.3-.01-.72-.08-1.17-.54-1.24-1.27-.02-.17-.02-.34-.01-.51V17.76c0-1.52.41-1.93,1.91-1.93h7.64s.44.85.44.85c1.13,2.26,2.85,3.42,5.27,3.54.18,0,.37.01.55.01h19.66c1.15,0,1.99-.14,2.72-.47,1.4-.63,2.41-1.61,3.07-2.99.04-.07.27-.59.39-.88l.55-.04c.15-.02.29-.03.44-.03h7.08c.1,0,.2,0,.3.01.71.1,1.14.51,1.26,1.21.03.2.04.43.04.68v28.34c0,.15-.01.3-.02.47l-.05.99-.85-.21c-.12-.02-.21-.05-.29-.08-3.59-1.45-6.78-.74-9.82,2.18-1.42,1.37-2.43,3.15-3.08,5.42l-.31,1.07s-.34,1.8-.18,3.2l.05.54c.28,3.03,1.39,5.95,3.37,8.93l.65.97H13.88Zm63.15-6.39c-.67,1.76-1.68,3.46-3,5.04-.76.92-1.71,1.36-2.9,1.36-.84-.02-1.68-.02-2.52-.02h-3.6s-3.67,0-3.67,0c-.84,0-1.69,0-2.57.01-1.19,0-2.21-.48-2.94-1.37-2.23-2.72-3.47-5.41-3.8-8.21-.42-3.55.55-6.47,2.87-8.65.84-.79,1.82-1.31,2.9-1.54,1.71-.36,3.3.11,4.7,1.41.31.28.57.59.82.89.14.17.28.34.43.5.67.72,1.69.71,2.36-.01.06-.07.12-.15.2-.24.09-.11.17-.22.28-.33l.22-.24c.25-.27.51-.55.81-.79,1.92-1.59,4.33-1.72,6.41-.36,1.76,1.15,2.95,2.87,3.54,5.11.62,2.37.44,4.88-.55,7.46Zm-25.61-15.97c.89,0,1.55-.63,1.59-1.47.02-.45-.13-.86-.41-1.16-.28-.3-.67-.47-1.11-.48-.39-.01-.79-.02-1.19-.02l-8.16.02c-.39,0-.78,0-1.22-.02-.74,0-1.57.64-1.57,1.57,0,.83.7,1.52,1.6,1.57.11,0,.23,0,.34,0h8.01c.7,0,1.41,0,2.11,0Zm-19.31-7.62c-.18.14-.34.3-.51.48l-4.8,4.75c-.11.11-.23.22-.37.35l-.65.61-1.31-1.45c-.43-.48-.85-.96-1.29-1.42-.42-.44-.93-.57-1.59-.39-.56.16-.9.55-1.04,1.19-.07.31-.1.8.43,1.4.28.32.57.63.85.95l.19.21c.77.85,1.57,1.72,2.31,2.63.39.47.87.72,1.38.72s.98-.23,1.41-.67c1.59-1.64,3.29-3.31,4.79-4.78.68-.67,1.37-1.34,2.14-2.11.09-.09.18-.17.25-.27.49-.63.45-1.55-.1-2.1-.53-.53-1.48-.57-2.1-.08Zm1.51-14.09c-.64-.22-1.17-.09-1.69.43-.74.72-1.47,1.45-2.2,2.18l-3.92,3.88-1.55-1.74c-.33-.38-.66-.76-1.02-1.12-.48-.48-.98-.62-1.58-.45-.61.18-.97.57-1.11,1.22-.08.34-.09.82.48,1.45l.85.96c.86.97,1.72,1.94,2.6,2.89.21.23.5.42.77.53.19.07.36.1.53.1.15,0,.61,0,1.25-.64,1.45-1.44,2.89-2.88,4.34-4.31l2.73-2.71c.09-.09.18-.18.26-.29.3-.4.38-.9.24-1.38-.15-.48-.5-.85-.97-1.01Z"/>
  <rect class="uuid-f50c5023-106b-4a32-a727-385d7235504a" width="90" height="75"/>
</svg>