<?xml version="1.0" encoding="UTF-8"?>
<svg id="uuid-534ddc85-f783-417e-99c5-390d20d3688b" data-name="圖層 1" xmlns="http://www.w3.org/2000/svg" viewBox="0 0 90 75">
  <defs>
    <style>
      .uuid-89d1f218-c666-4582-a3d7-8ba77d1c2939 {
        fill: none;
      }

      .uuid-89d1f218-c666-4582-a3d7-8ba77d1c2939, .uuid-9695b87c-53c2-4896-b6a4-c12abbec6cc0 {
        stroke-width: 0px;
      }

      .uuid-9695b87c-53c2-4896-b6a4-c12abbec6cc0 {
        fill: #e3d1b0;
      }
    </style>
  </defs>
  <path class="uuid-9695b87c-53c2-4896-b6a4-c12abbec6cc0" d="m49.06,40.31c-.35-.16-.75-.17-1.11-.04-.37.14-.66.42-.82.79-1.15,2.62-3.7,4.31-6.49,4.31s-5.35-1.69-6.5-4.31c-.16-.37-.45-.65-.82-.79-.36-.13-.76-.12-1.11.04-.73.34-1.06,1.22-.73,1.97,1.62,3.68,5.21,6.06,9.16,6.06s7.53-2.38,9.15-6.06c.08-.2.12-.4.12-.61,0-.56-.31-1.11-.85-1.36Zm-14.56-7.16c0-1.5-1.2-2.72-2.67-2.72s-2.68,1.22-2.68,2.72,1.2,2.73,2.68,2.73,2.67-1.22,2.67-2.73Zm15.46-2.54c-1.37,0-2.49,1.14-2.49,2.54s1.12,2.54,2.49,2.54,2.49-1.14,2.49-2.54-1.11-2.54-2.49-2.54Zm34.29,15.45c-.9-3.68-3.08-6.03-6.5-6.97-.76-.21-1.59-.3-2.41-.24-.76.05-1.16.14-1.17.15-.62.11-1.21.3-1.77.57.17-.3.34-.59.5-.89,2.85-5.26,3.61-10.71,2.28-16.22-1.88-7.74-6.46-12.67-13.63-14.64-1.56-.43-3.25-.6-4.97-.49-1.41.09-2.23.25-2.44.3-4,.75-7.38,2.86-10.32,6.46-.21.26-.98,1.29-2.18,2.89-.49.62-1.51.61-1.99-.03-.03-.03-3.02-3.68-3.62-4.33-2.16-2.32-4.78-3.92-7.81-4.73l-.45-.12c-1.99-.48-3.93-.61-5.91-.37-.33.04-.55.08-.66.1-3.24.51-5.85,1.61-7.98,3.38-6.51,5.41-8.95,12.68-7.26,21.61.65,3.43,2.27,6.75,5.23,10.73,3.04,4.08,6.65,7.5,9.78,10.3,4.21,3.77,8.67,7.68,12.88,11.35l.52.45c1.73,1.55,3.95,2.4,6.24,2.4s4.44-.84,6.18-2.36l1.24-1.09c1.13-.99,2.27-1.98,3.49-3.03,1.44-1.25,2.89-2.51,4.34-3.79,1.05,1.17,2.15,2.2,3.15,3.1,1.92,1.71,3.95,3.49,5.74,5.05l.29.25c.87.78,1.99,1.21,3.15,1.21s2.24-.42,3.12-1.19l.56-.48c.42-.37.85-.74,1.29-1.12l.27-.24c2.02-1.75,4.11-3.57,6.04-5.5,1.65-1.67,2.83-3.19,3.7-4.8,1.35-2.49,1.71-5.07,1.08-7.67Zm-32.16,4.73c.23,1.23.73,2.42,1.55,3.73-2.17,1.92-4.27,3.77-6.24,5.51l-2.18,1.89c-1.3,1.13-2.96,1.75-4.67,1.75s-3.37-.62-4.67-1.75c-1.89-1.64-3.9-3.39-4.79-4.19l-1.29-1.14c-3.36-2.99-6.82-6.08-10.18-9.26-3.46-3.28-5.92-6.26-7.73-9.37-3.44-5.9-3.93-11.91-1.46-17.86,2.36-5.67,7.47-9.19,13.35-9.19.28,0,.57,0,.86.02,3.83.21,7.14,1.98,9.84,5.24.9,1.08,1.71,2.29,2.41,3.59.75,1.41,2.12,2.25,3.69,2.25s2.98-.87,3.72-2.32c1.26-2.32,2.75-4.18,4.57-5.69,2.43-2.03,5.39-3.1,8.55-3.1,4.07,0,7.96,1.8,10.67,4.95,2.94,3.41,4.33,7.66,4.14,12.61-.15,4.08-1.63,7.91-4.65,12.05-.28.38-.56.75-.85,1.13-.08-.08-.15-.16-.22-.24-1.04-1.12-2.3-1.89-3.76-2.28l-.21-.06c-.96-.23-1.93-.29-2.85-.17-.19.02-.3.04-.33.05-1.54.24-2.79.77-3.82,1.63-3.09,2.56-4.25,6-3.45,10.22Zm27.64,3.06c-.96,1.31-2.13,2.59-3.48,3.8-1.82,1.63-3.66,3.24-5.49,4.85l-.98.85c-.9.79-2.33.79-3.24,0-.85-.73-1.74-1.51-2.15-1.87l-.56-.5c-1.51-1.35-3.07-2.74-4.57-4.17-.46-.43-.88-.86-1.25-1.27-.07-.06-.13-.13-.18-.2-.07-.06-.13-.13-.18-.2-.62-.7-1.12-1.38-1.55-2.07-.05-.08-.1-.16-.15-.24-.01-.02-.03-.05-.04-.07-.03-.05-.06-.11-.09-.16-1.34-2.38-1.51-4.79-.52-7.18.94-2.27,2.99-3.68,5.34-3.68.11,0,.22.01.33.01,1.51.09,2.82.79,3.9,2.09l.03.03c.05.07.11.15.16.22.06.07.12.15.17.22.5.69.92,1.47,1.24,2.31.01.02.01.03.02.05l.05.13s.02.07.04.1c.03.09.06.18.11.27.03.11.07.21.12.32.28.59.74.89,1.38.89s1.09-.3,1.35-.87c.08-.18.15-.37.25-.64l.13-.31c.64-1.59,1.42-2.73,2.46-3.6.96-.8,2.12-1.22,3.37-1.22,1.62,0,3.17.72,4.25,1.97,1.18,1.38,1.75,3.11,1.67,5.14-.06,1.68-.68,3.26-1.94,5Z"/>
  <rect class="uuid-89d1f218-c666-4582-a3d7-8ba77d1c2939" width="90" height="75"/>
</svg>