<?xml version="1.0" encoding="UTF-8"?>
<svg xmlns="http://www.w3.org/2000/svg" viewBox="0 0 80 80">
  <defs>
    <style>
      .cls-1 {
        fill: none;
      }

      .cls-1, .cls-2 {
        stroke-width: 0px;
      }

      .cls-2 {
        fill: #e4d2b1;
      }
    </style>
  </defs>
  <g id="board">
    <rect class="cls-1" width="80" height="80"/>
  </g>
  <g id="icon">
    <path class="cls-2" d="m77.35,37.46h-.96v-10.98c0-2.49-2.23-4.51-4.96-4.51h-5.55v-1.01c0-2.49-2.23-4.51-4.96-4.51h-7.22c-.97,0-1.75.78-1.75,1.75v19.26h-23.31v-19.26c0-.97-.78-1.75-1.75-1.75h-7.22c-2.74,0-4.96,2.02-4.96,4.51v1.01h-5.55c-2.74,0-4.96,2.02-4.96,4.51v10.98h-1.54c-1.38,0-2.5,1.12-2.5,2.5s1.12,2.5,2.5,2.5h1.54v11.05c0,2.49,2.23,4.51,4.96,4.51h5.55v1.01c0,2.49,2.23,4.51,4.96,4.51h7.22c.97,0,1.75-.78,1.75-1.75v-19.33h23.31v19.33c0,.97.78,1.75,1.75,1.75h7.22c2.74,0,4.96-2.02,4.96-4.51v-1.01h5.55c2.74,0,4.96-2.02,4.96-4.51v-11.05h.96c1.38,0,2.5-1.12,2.5-2.5s-1.12-2.5-2.5-2.5Zm-52.21,22.58h-5.47c-.86,0-1.46-.53-1.46-1.01v-24.11c0-.97-.78-1.75-1.75-1.75s-1.75.78-1.75,1.75v19.6h-5.55c-.86,0-1.46-.53-1.46-1.01v-27.03c0-.48.6-1.01,1.46-1.01h5.83c.31.48.85.8,1.46.8.97,0,1.75-.78,1.75-1.75v-3.56c0-.48.6-1.01,1.46-1.01h5.47v40.08Zm47.76-6.52c0,.48-.6,1.01-1.46,1.01h-5.84c-.31-.48-.85-.8-1.46-.8-.97,0-1.75.78-1.75,1.75v3.55c0,.48-.6,1.01-1.46,1.01h-5.47V19.96h5.47c.86,0,1.46.53,1.46,1.01v24.11c0,.97.78,1.75,1.75,1.75s1.75-.78,1.75-1.75v-19.6h5.55c.86,0,1.46.53,1.46,1.01v27.03Z"/>
  </g>
</svg>