<?xml version="1.0" encoding="UTF-8"?>
<svg xmlns="http://www.w3.org/2000/svg" viewBox="0 0 80 80">
  <defs>
    <style>
      .cls-1 {
        fill: none;
      }

      .cls-1, .cls-2 {
        stroke-width: 0px;
      }

      .cls-2 {
        fill: #e4d2b1;
      }
    </style>
  </defs>
  <g id="board">
    <rect class="cls-1" width="80" height="80"/>
  </g>
  <g id="icon">
    <path class="cls-2" d="m22.47,29.31c3.83,0,6.94-1.66,6.94-3.7s-3.11-3.7-6.94-3.7-6.94,1.66-6.94,3.7,3.11,3.7,6.94,3.7Zm46.67,4.05h-29.93v-7.75c0-6.03-7.35-10.75-16.74-10.75S5.73,19.57,5.73,25.6v24c0,8.57,6.97,15.54,15.54,15.54h47.86c2.83,0,5.13-2.3,5.13-5.13v-21.54c0-2.83-2.3-5.13-5.13-5.13Zm-46.67-15.51c7.45,0,13.74,3.55,13.74,7.75s-6.29,7.75-13.74,7.75-13.74-3.55-13.74-7.75,6.29-7.75,13.74-7.75Zm48.79,42.17c0,1.17-.95,2.13-2.13,2.13h-6.59v-6.32c0-.83-.67-1.5-1.5-1.5s-1.5.67-1.5,1.5v6.32h-8.38v-10.84c0-.83-.67-1.5-1.5-1.5s-1.5.67-1.5,1.5v10.84h-8.38v-6.32c0-.83-.67-1.5-1.5-1.5s-1.5.67-1.5,1.5v6.32h-8.38v-10.84c0-.83-.67-1.5-1.5-1.5s-1.5.67-1.5,1.5v10.84h-4.13c-6.92,0-12.54-5.63-12.54-12.54v-17.8c2.73,2.51,7.09,4.21,12.18,4.5.12.03.24.05.36.05h47.86c1.17,0,2.13.95,2.13,2.13v21.54Z"/>
  </g>
</svg>