<?xml version="1.0" encoding="UTF-8"?>
<svg xmlns="http://www.w3.org/2000/svg" viewBox="0 0 80 80">
  <defs>
    <style>
      .cls-1 {
        fill: none;
      }

      .cls-1, .cls-2 {
        stroke-width: 0px;
      }

      .cls-2 {
        fill: #e4d2b1;
      }
    </style>
  </defs>
  <g id="board">
    <rect class="cls-1" width="80" height="80"/>
  </g>
  <g id="icon">
    <path class="cls-2" d="m20.37,15.74c0-1.08-.87-1.95-1.95-1.95h-5.66v-5.66c0-1.08-.87-1.95-1.95-1.95s-1.95.88-1.95,1.95v5.66H3.2c-1.08,0-1.95.88-1.95,1.95s.87,1.95,1.95,1.95h5.66v5.66c0,1.08.87,1.95,1.95,1.95s1.95-.88,1.95-1.95v-5.66h5.66c1.08,0,1.95-.88,1.95-1.95Zm58.32.41c-.23-.45-.64-.79-1.13-.92-1.96-.53-4.39-.83-6.84-.83-5.83,0-16.74,1.63-24.31,12.51-1.49,2.14-3.29,6.42-3.97,11.17l-.35,2.47-1.79-1.74c-1.99-1.93-4.29-3.72-6.85-5.31-.27-.17-.59-.26-.92-.26-.63,0-1.22.32-1.54.83-.52.83-.26,1.94.57,2.46,5.25,3.27,9.12,7.25,11.52,11.8l.07.17c.93,2.89,2.53,5.44,4.75,7.57l.51.49-.17.61c-.77,2.79-1.16,5.66-1.14,8.53l.02,6.32c0,1.06.87,1.93,1.93,1.93s1.93-.87,1.93-1.93v-7.17c0-2.26.25-4.52.73-6.73l.06-.26,1.21.18c.95.15,1.9.22,2.84.22,8.11,0,16.23-5.33,19.75-12.96,2.72-5.9,2.51-11.94,2.33-17.28-.14-4.07-.26-7.58.86-10.42.18-.47.16-1-.07-1.46Zm-4.14,3.47c-.42,2.66-.33,5.53-.22,8.57.18,5.16.36,10.5-2,15.62-2.5,5.42-8.93,10.91-16.39,10.91-.58,0-1.17-.03-1.77-.1l-1.52-.18.46-1.46c.24-.76.51-1.55.81-2.4l.2-.39.19-.22c3.84-5.75,10.96-8.27,13.64-9.21.92-.33,1.39-1.33,1.06-2.27-.25-.71-.93-1.18-1.69-1.18-.23,0-.45.04-.71.14-.89.31-2.54.9-4.37,1.76l-4.17,1.95,2.58-3.81c1.99-2.94,4.16-5.48,6.28-7.35.36-.31.57-.75.6-1.23.03-.48-.13-.94-.44-1.29-.32-.37-.82-.58-1.35-.58-.45,0-.86.15-1.17.42-5.66,4.99-11.14,13.77-14.32,22.93l-.9,2.59-1.39-2.37c-.07-.12-.2-.37-.31-.58l-.1-.21-.03-.14c-.02-.12-.06-.23-.1-.33-.25-.61-.52-1.22-.86-1.93-2.33-7.56,1.23-16.07,2.79-18.32,6.28-9.03,15.01-10.93,21.22-10.93.98,0,1.94.05,2.85.14l1.34.13-.21,1.33Zm-34.93,36.99c-6.5,0-11.69-5.33-13.6-8.92-2.19-4.12-2.26-8.94-2.33-13.62-.04-2.61-.08-5.07-.48-7.38l-.23-1.35,1.37-.12c.77-.07,1.53-.1,2.26-.1,2.98,0,7.46.52,11.86,2.98.25.14.55.22.84.22.66,0,1.28-.36,1.58-.91.23-.41.29-.89.16-1.36-.13-.46-.43-.84-.84-1.07-5.08-2.84-10.21-3.44-13.63-3.44-2.92,0-5.09.42-6.4.78-.49.13-.91.47-1.13.92-.23.46-.25.99-.07,1.46,1.03,2.61,1.07,5.95,1.12,9.51.07,4.82.15,10.29,2.75,15.17,2.77,5.21,9.2,10.81,16.75,10.81.99,0,1.79-.8,1.79-1.79s-.8-1.79-1.79-1.79Z"/>
  </g>
</svg>