<?xml version="1.0" encoding="UTF-8"?>
<svg xmlns="http://www.w3.org/2000/svg" viewBox="0 0 80 80">
  <defs>
    <style>
      .cls-1 {
        fill: none;
      }

      .cls-1, .cls-2 {
        stroke-width: 0px;
      }

      .cls-2 {
        fill: #e4d2b1;
      }
    </style>
  </defs>
  <g id="board">
    <rect class="cls-1" width="80" height="80"/>
  </g>
  <g id="icon">
    <path class="cls-2" d="m54.75,46.66c-1.22.72-2.61,1.11-4.03,1.11-2.22,0-3.43-1-4.71-2.06-1.19-.98-2.41-2-4.47-2.28-.28-.04-.58-.04-.86,0-2.05.28-3.28,1.3-4.47,2.28-1.28,1.06-2.48,2.06-4.71,2.06-1.42,0-2.81-.38-4.03-1.11-1.12-.67-2.53-.54-3.5.31-.97.85-1.27,2.18-.76,3.37,1.01,2.37,2.89,4.13,4.87,6,2.46,2.31,4.77,4.5,5.02,7.63v9.94c0,.94.76,1.7,1.7,1.7s1.7-.76,1.7-1.7v-9.94s0-.19,0-.23c-.34-4.48-3.39-7.35-6.08-9.88-1.3-1.22-2.54-2.39-3.39-3.63,1.41.61,2.93.93,4.47.93,3.45,0,5.43-1.64,6.88-2.85,1-.83,1.66-1.38,2.7-1.53,1.09.15,1.76.7,2.76,1.53,1.45,1.2,3.43,2.84,6.88,2.84,1.55,0,3.07-.32,4.48-.93-.83,1.22-2.04,2.36-3.39,3.63-2.69,2.53-5.73,5.4-6.08,9.91,0,.03,0,.17,0,.2v9.94c0,.94.76,1.7,1.7,1.7s1.7-.76,1.7-1.7v-9.91c.24-3.16,2.56-5.35,5.02-7.67,1.99-1.87,3.86-3.64,4.87-6.01.51-1.2.21-2.52-.76-3.37-.97-.85-2.38-.98-3.5-.31ZM19.19,24.58c-.65-.65-1.7-.65-2.35,0-10.48,10.48-10.48,27.52,0,38,.31.31.73.49,1.17.49s.86-.17,1.17-.49c.65-.65.65-1.7,0-2.35-4.44-4.44-6.89-10.36-6.89-16.65s2.45-12.21,6.89-16.65c.65-.65.65-1.7,0-2.35Zm46.19,0c-.65-.65-1.7-.65-2.35,0-.65.65-.65,1.7,0,2.35,4.44,4.44,6.89,10.36,6.89,16.65s-2.45,12.21-6.89,16.65c-.65.65-.65,1.7,0,2.35.31.31.73.49,1.17.49s.86-.17,1.17-.49c10.48-10.48,10.48-27.52,0-38Zm-12.32-.85c-2.12-1.86-3.96-3.47-3.94-5.08.04-3.06.02-9.35,0-12.83,0-.94-.76-1.69-1.7-1.69h0c-.94,0-1.7.77-1.69,1.71.01,3.47.03,9.75,0,12.78-.04,3.17,2.46,5.36,5.1,7.68,2.57,2.26,5.24,4.59,5.24,7.42s-2.39,5.34-5.34,5.34c-1.3,0-1.89-.49-3.07-1.47-1.35-1.12-3.19-2.64-6.29-2.91-.16-.01-.32-.01-.5,0-3.1.26-4.94,1.79-6.29,2.91-1.18.98-1.77,1.47-3.07,1.47-2.94,0-5.34-2.39-5.34-5.34s2.66-5.17,5.24-7.43c2.64-2.32,5.13-4.5,5.1-7.67-.04-3.36-.01-10.63,0-12.78,0-.94-.75-1.7-1.69-1.71h0c-.94,0-1.7.76-1.7,1.69,0,2.15-.04,9.45,0,12.83.02,1.61-1.81,3.22-3.94,5.08-2.85,2.5-6.39,5.61-6.39,9.98,0,4.82,3.92,8.74,8.74,8.74,2.52,0,3.9-1.14,5.24-2.25,1.22-1.01,2.37-1.96,4.33-2.14,2.03.17,3.19,1.13,4.4,2.14,1.33,1.11,2.71,2.25,5.24,2.25,4.82,0,8.74-3.92,8.74-8.74,0-4.37-3.55-7.48-6.4-9.98Z"/>
  </g>
</svg>