<?xml version="1.0" encoding="UTF-8"?>
<svg xmlns="http://www.w3.org/2000/svg" viewBox="0 0 80 80">
  <defs>
    <style>
      .cls-1 {
        fill: none;
      }

      .cls-1, .cls-2 {
        stroke-width: 0px;
      }

      .cls-2 {
        fill: #e4d2b1;
      }
    </style>
  </defs>
  <g id="board">
    <rect class="cls-1" width="80" height="80"/>
  </g>
  <g id="icon">
    <path class="cls-2" d="m67.04,38.8c-1.51-3.53-3.77-6.4-6.73-8.54l-2.31-1.77,1.34-1.89c.14-.21.28-.41.44-.59,2.23-2.53,3.43-5.71,3.67-9.73.14-2.27-.03-4.75-.52-7.58-.21-1.2-.77-1.79-1.88-1.98-2.21-.37-4.3-.55-6.21-.55-5.87,0-10.3,1.74-13.17,5.16l-.3.37c-.53.67-1.01,1.41-1.43,2.21-.38.72-.72,1.5-1.02,2.33-.26.74-.48,1.53-.67,2.35-.17.75-.29,1.52-.38,2.28-.08.7-.14,1.4-.16,2.11-.02.61-.03,1.22,0,1.84,0,.24.03.48.06.8.05.58.1,1.19,0,1.8-.1.58-.37,1-.78,1.24-.25.14-.54.21-.86.21-.17,0-.34-.02-.64-.09-.33-.07-.66-.15-.97-.28-2.09-.85-4.13-1.28-6.06-1.28-3.87,0-7.48,1.67-11.06,5.11-2.51,2.41-4.29,5.56-5.44,9.61-.65,2.29-.96,4.46-.95,6.63,0,2.25.44,4.85,1.27,7.72.09.32.19.64.29.96.1.32.21.64.33.96.11.32.23.64.36.96.13.32.26.64.4.95.14.32.28.64.43.96.15.31.3.63.46.94.15.3.31.6.47.9.16.3.33.6.5.9.18.3.36.61.54.9l1.2,1.87c1.51,2.27,3.64,5.03,6.71,6.21,2.34.91,4.67,1.03,6.65,1.03.8,0,1.6-.02,2.4-.04.84-.02,1.68-.04,2.53-.04h12.72c.48,0,.97,0,1.45.01.48.01.95.02,1.43.02.51,0,1.02-.01,1.53-.04.38-.03.74-.07,1.11-.14,1-.17,1.94-.48,2.89-.95,1.24-.61,2.37-1.44,3.35-2.45.28-.29.55-.6.8-.91,3.58-4.48,5.92-8.93,7.16-13.59,1.62-6.08,1.31-11.6-.94-16.87Zm-24.33-20.8c1.35-4.46,4.54-7.21,9.23-7.93,1.19-.19,2.16-.27,3.06-.27,1.05,0,2.01.12,3.02.38l1.54.4.11,1.58c.18,2.53.27,5.46-.87,8.39-1.07,2.75-3.06,4.72-5.93,5.86-2.21.87-4.64,1.3-7.42,1.3-.44,0-.89-.01-1.34-.03l-2.01-.09-.09-2.01c-.1-2.23-.1-4.86.72-7.57Zm20.78,39.47c-1.29,3.38-3.23,6.63-5.75,9.66-1.63,1.96-3.66,2.91-6.19,2.91h-22.95c-2.53-.01-4.7-1.03-6.27-2.95-1.27-1.55-2.41-3.18-3.41-4.85-.24-.42-.48-.84-.81-1.42-1.69-3.17-2.69-6.28-3.07-9.53-.82-6.95,1.08-12.65,5.65-16.96,1.7-1.6,3.68-2.65,5.89-3.13.75-.16,1.51-.24,2.25-.24,2.68,0,5.18,1.05,7.42,3.11.63.58,1.15,1.2,1.67,1.81.24.28.47.55.72.82.39.43.89.66,1.41.66s1.04-.24,1.45-.68c.08-.09.15-.18.4-.49.16-.19.31-.39.48-.56l.4-.44c.43-.47.96-1.05,1.6-1.58,2.09-1.73,4.52-2.64,7.03-2.64,2.1,0,4.21.66,6.12,1.9,3.5,2.28,5.86,5.69,7.02,10.11,1.21,4.62.86,9.5-1.05,14.49Z"/>
  </g>
</svg>