<?xml version="1.0" encoding="UTF-8"?>
<svg xmlns="http://www.w3.org/2000/svg" viewBox="0 0 80 80">
  <defs>
    <style>
      .cls-1 {
        fill: none;
      }

      .cls-1, .cls-2 {
        stroke-width: 0px;
      }

      .cls-2 {
        fill: #e4d2b1;
      }
    </style>
  </defs>
  <g id="board">
    <rect class="cls-1" width="80" height="80"/>
  </g>
  <g id="icon">
    <path class="cls-2" d="m39.44,52.73c-.91,0-1.77.31-2.47.89-.71.59-1.24,1.36-1.67,2.42l-.07.19c-.06.16-.1.26-.14.35-.02.05-.02.05-.1.05-.04,0-.06,0-.06,0,0,0-.01-.01-.04-.06,0,0,0,0,0,0v-.02s-.04-.08-.04-.08l-.03-.08-.03-.07-.04-.1-.02-.04h0s-.01-.03-.01-.03c-.22-.57-.48-1.06-.78-1.49-.03-.05-.08-.12-.14-.19-.03-.04-.05-.07-.08-.11-.02-.03-.04-.05-.06-.08v-.02s-.02,0-.02,0c-.76-.92-1.73-1.44-2.82-1.51-.09,0-.17,0-.25,0-1.7,0-3.17,1.01-3.85,2.63-.64,1.55-.55,3.18.25,4.73v.16l.23.24.02.03c.26.43.59.88,1,1.35l.11.12.02.03.02.02.03.03s.04.05.07.07c.21.23.44.47.75.76.89.84,1.79,1.64,2.71,2.47l.32.29c.13.11.32.28.55.48.22.19.48.42.72.63.41.35.92.54,1.46.54s1.05-.19,1.45-.53l.58-.51c1.08-.95,2.16-1.9,3.23-2.86.81-.72,1.54-1.51,2.15-2.35.84-1.15,1.25-2.22,1.29-3.36.05-1.36-.35-2.59-1.17-3.55-.78-.91-1.9-1.42-3.08-1.42Zm31.33-20.41c-5.62,0-10.38-3.02-10.38-6.6v-7.06s0-.01,0-.02c-.01-7.99-6.52-14.49-14.51-14.49s-14.51,6.51-14.51,14.51c0,5.37,2.94,10.05,7.28,12.56-3.17,1.59-5.48,4.65-6.27,8.25-11.72,1.09-20.76,11.15-20.43,23.07.13,4.54,1.65,8.88,4.41,12.56.34.46.87.7,1.4.7.37,0,.73-.11,1.05-.35.77-.58.93-1.68.35-2.45-2.32-3.09-3.6-6.74-3.71-10.55-.29-10.49,8-19.26,18.49-19.56.88-.03,1.61-.73,1.7-1.61.29-3.06,2.09-5.73,4.69-6.98,3.32-1.6,6.88-1.48,9.75.33,2.78,1.75,4.45,4.76,4.45,8.04v18.93c0,.97.78,1.75,1.75,1.75s1.75-.78,1.75-1.75v-18.93c0-4.5-2.27-8.61-6.08-11.01-1.7-1.07-3.57-1.69-5.51-1.89-.17-.06-.36-.1-.55-.1-6.07,0-11.01-4.94-11.01-11.01s4.94-11.01,11.01-11.01,11.01,4.94,11.01,11.01c0,0,0,0,0,0v7.05c0,5.67,6.09,10.1,13.88,10.1.97,0,1.75-.78,1.75-1.75s-.78-1.75-1.75-1.75Z"/>
  </g>
</svg>