<?xml version="1.0" encoding="utf-8"?>
<!-- Generator: Adobe Illustrator 27.8.1, SVG Export Plug-In . SVG Version: 6.00 Build 0)  -->
<svg version="1.1" id="uuid-06c9175a-68cd-448c-ae96-aaf6ae7cf607"
	 xmlns="http://www.w3.org/2000/svg" xmlns:xlink="http://www.w3.org/1999/xlink" x="0px" y="0px" viewBox="0 0 120 330"
	 style="enable-background:new 0 0 120 330;" xml:space="preserve">
<style type="text/css">
	.st0{fill:#282828;}
	.st1{fill:#FFFFFF;}
</style>
<g>
	<path class="st0" d="M106.6,330h-95c22.1,0,40-17.9,40-39.9V22c0-4.1,3.4-7.5,7.5-7.5c4.1,0,7.5,3.4,7.5,7.5v268.1
		C66.6,312.1,84.5,330,106.6,330z"/>
</g>
<path class="st1" d="M0,0v330h11.6c22.1,0,40-17.9,40-39.9V22c0-4.1,3.4-7.5,7.5-7.5s7.5,3.4,7.5,7.5v268.1c0,22,17.9,39.9,40,39.9
	H120V0H0z"/>
</svg>
