<?xml version="1.0" encoding="utf-8"?>
<!-- Generator: Adobe Illustrator 27.8.1, SVG Export Plug-In . SVG Version: 6.00 Build 0)  -->
<svg version="1.1" id="uuid-06c9175a-68cd-448c-ae96-aaf6ae7cf607"
	 xmlns="http://www.w3.org/2000/svg" xmlns:xlink="http://www.w3.org/1999/xlink" x="0px" y="0px" viewBox="0 0 330 120"
	 style="enable-background:new 0 0 330 120;" xml:space="preserve">
<style type="text/css">
	.st0{fill:#282828;}
	.st1{fill:#FFFFFF;}
</style>
<g>
	<path class="st0" d="M330,13v95c0-22.1-17.9-40-39.9-40H22c-4.1,0-7.5-3.4-7.5-7.5S17.9,53,22,53h268.1C312.1,53,330,35,330,13z"/>
</g>
<path class="st1" d="M0,120.4h330v-11.6c0-22.1-17.9-40-39.9-40H22c-4.1,0-7.5-3.4-7.5-7.5s3.4-7.5,7.5-7.5h268.1
	c22,0,39.9-17.9,39.9-40V0.5H0V120.4z"/>
</svg>
