<?xml version="1.0" encoding="UTF-8"?>
<svg id="_圖層_1" data-name="圖層 1" xmlns="http://www.w3.org/2000/svg" viewBox="0 0 371.47 227.14">
  <defs>
    <style>
      .cls-1 {
        stroke-width: 0px;
      }
    </style>
  </defs>
  <path class="cls-1" d="m179.53,60.46c1.3-1.02,2.39-2.69,2.99-4.23.84-2.2.14-3.27-.8-5.23,3.67-2.24,6.56-5.5,10.1-7.93.2,2.96-1.71,11.32,2.96,11.16,2.11-.07,3.17-2.72,4.3-4.33,1.1-1.56,2.26-3.04,3.42-4.55,6.25,7.68,11.89-1.42,16.31-6.18,1.64,2.38,4.39,3.06,6.63,1.02,3.03-2.76,3.34-6.56,5-10.01,1.04,1.44,1.01,3.47,1.55,5.12.67,2.05,1.75,3.92,3.03,5.65,2.23,3,5.24,5.53,8.72,6.96,3.56,1.46,8.68,2.12,11.4-1.24.74-.92,1.69-2.77.98-3.93-1.22-1.99-3.17-1.28-3.17.85-5.73,7-14.58-1.91-16.49-7.92-2.8-8.77-2.41-19.64-1.2-28.63.25-1.81.76-4.21-.5-5.76-1.12-1.36-3.01-1.83-4.14-.46-1.14,1.4-.64,4.4-.73,6.12-.12,2.36-.17,4.72-.29,7.08-.24,4.52-1.26,9.94-2.75,14.23-.72,2.05-1.39,1.13-3.19,1.97-1.9.88-3.21,3.05-4.43,4.63-.55-.19-1.14-.38-1.74-.59-1.11.44-.99,1.35-1.57,2.23-.81,1.22-1.92,2.41-2.91,3.49-1.58,1.73-4.13,4.58-6.55,5.06-1.11-1.74-2.31-3.66-4.64-3.78-2.47-.12-4.08,2.84-5.54,4.52-.96-2.91-2.37-7.36-6.51-5.96-2.02.67-4.07,3.46-5.54,4.97-1.64,1.68-3.24,3.2-5.09,4.64-.64-.3-1.16-.55-1.66-.79.1-.87.91-.88,1.32-1.24.21-1.48.04-2.37-1.5-2.75-1.93-.48-2.32,1.02-3.12,2.57-1.59,3.11-2.89,6.45-2.4,10.12.52,3.92,4.55,5.64,7.75,3.12Zm43.17-25.94c.21-.19.45-.38.71-.5.28-.13.61-.25.92-.21.16,0,.3.04.43.11.06.05.12.09.18.14.16.14.25.4.25.61,0,.4-.11.79-.25,1.16-.14.56-.35,1.11-.71,1.56-.23.29-.6.49-.97.49-.22-.01-.44-.06-.62-.18-.17-.1-.29-.23-.4-.37-.28-.31-.45-.71-.42-1.13.04-.65.4-1.25.88-1.68Zm-46.7,19.08c1-.23,1.84-.52,2.77-.95,1.79.63-2.36,5.06-3.05,5.48-.52-1.43-.45-2.49.28-4.53Zm194.3-18.53c-.52-1.1-1.34-2.15-2.21-2.98-1.61-1.53-3.67-2.44-5.8-2.98-5.27-1.34-11.16-.74-16.47.03-19.11,2.77-37.74,8.45-55.84,15.12-9.5,3.5-19,6.93-28.4,10.7-8.85,3.54-18.59,6.72-26.84,11.54-1.33-.01-2.28.89-3.42,1.41-1.63.75-3.38,1.23-5.01,1.99-3.6,1.66-7.27,3.19-10.86,4.89-6.86,3.25-13.8,6.32-20.65,9.6-14.26,6.84-28.26,14.26-42.56,21.01-.43-1.95.87-5.13,1.09-7.21.23-2.24.51-4.48.71-6.73.47-5.22.39-10.49.33-15.73-.03-2.51-.53-5.14.8-7.37,1.19-2,2.87-3.85,4.3-5.68,1.66-2.13,3.37-4.21,4.93-6.4,1.55-2.19,1.57-3.15-1.19-3.54-1.72,1.95-3.31,4.01-4.89,6.08-.8,1.03-2.68,4.68-4.21,4.78-.33-2.54.43-4.87.62-7.32.18-2.39-1-2.93-3.21-3.55-2.03.87-2.22,4.93-3.21,6.73-1.25,2.28-2.75,4.55-5.02,5.9-.37-2.03-.06-3.75.57-5.49-.66-1.48-2.46-2.37-3.7-1.06-1.21,1.29-1.28,4.85-.85,6.36.61,2.19,2.11,3.66,4.43,3.82,2.51.18,4.01-1.76,5.85-3.13.17,2.49.4,3.81-.92,5.92-1.05,1.68-2.11,3.36-3.13,5.07-2.4,4-4.55,8.21-6.53,12.44-4.01,8.59-7,17.6-8.28,26.99-6.67,4.63-14.95,7.73-22.18,11.42-7.23,3.7-14.48,7.36-21.76,10.96-6.99,3.44-13.94,6.95-20.99,10.25-3.37,1.58-6.75,3.11-10.1,4.73-2.76,1.34-6.82,4.11-9.9,4.11,1.27-5.04,3.39-9.99,4.91-14.98,1.53-5.03,2.91-10.09,4.24-15.17,1.39-5.33,2.6-10.72,3.75-16.1.59-2.75.82-2.86,3.6-3.34,2.86-.49,5.73-1.24,8.53-2.02,9.66-2.69,21.16-7.73,27.12-16.23,3.25-4.63,3.34-9.86-.96-13.84-1.72-1.58-3.85-2.64-6.04-3.41-2.44-.85-5.24-.42-7.52-1.4,3.67-5.26,7.29-14.05,3.07-19.98-1.8-2.54-4.89-4.15-7.94-4.61-1.77-.26-3.7-.23-5.47-.07-1.51.13-3.74,1.11-5.22.55.35-3.24.35-6.52.5-9.77.1-2.16,1.14-6.87-.04-8.77.87-3.82.83-7.96.94-11.88.11-3.54,1.75-7.03-2.49-8.23-2.39,1.57-1.76,7.31-1.87,9.82-.15,3.52-.48,7.02-.56,10.54-.14,6.65-.95,13.25-1.17,19.89-5.29,2.2-10.6,3.78-15.47,6.94-2.08,1.35-4.4,2.86-5.89,4.88-1.45,1.96-1.33,4.73,1.6,4.69,4.52-6.21,12.09-9.72,19.31-12.06-.33,4.24-.91,8.45-1.32,12.68-.3,3.04.03,9.29-1.97,11.67-2.48,2.97-7.14,3.42-8.33,7.76-1.15,4.2,3.66,4.53,6.52,4.98.59,3.44-1.39,8.53-2.13,11.99-.9-.4-1.68-.73-2.39-1.04-1.46.71-3.05,2.25-3.03,4,.03,2.34,2.28,2.83,4.09,3.4-3.43,17.63-8.2,34.8-13.94,51.64-5.58,2.55-11.25,4.57-17.18,6.19-4.63,1.26-11.84,3.27-16.23.4-4.82-3.14-3.41-10.37-1.96-14.95.93-2.94,2.26-5.77,3.76-8.46,1.25-2.24,3.43-4.61,3.6-7.28h.74c1.11-.64,2.12-2.83,2.75-3.95.93-1.64,1.58-2.1,3.08-3.41,2.37-2.08,3.96-4.38,6.65-6.09-.25-.43-.42-.72-.6-1.03-2,.2-2.79.3-4.34,1.79-1.24,1.19-3.56,2.76-4.04,4.42.13.32.26.62.46,1.1-.43-.18-.67-.28-1.05-.45-4.81,5.14-8.96,11-12.01,17.37-2.65,5.52-5.59,13.13-2.6,19.02,3.32,6.53,11.98,6.27,18.21,5.19,3.19-.55,6.43-1.39,9.52-2.38,3.14-1.01,6.46-2.94,9.74-3.29-.76,4.35-2.91,8.79-4.42,12.94-1.38,3.82-2.72,7.67-4.22,11.44-1.68,4.21-3.37,8.38-5.15,12.55-1.41,3.28-3.14,8.66-6.16,10.81-.71-1.13-1.82-.66-2.9-.82-.75,2.27,1.26,3.88,3.5,3.7,2.68-.21,4.22-2.76,5.49-4.87,2.83-4.74,4.88-9.94,6.95-15.03,4-9.83,8.08-19.66,11.35-29.77.68-2.11.91-3.14,2.97-4.09,2.43-1.12,4.91-2.14,7.36-3.23,5.03-2.24,10.04-4.53,15.01-6.89,20.88-9.93,41.24-20.94,62.12-30.84,1.22,4.32,3.51,8.16,8.72,7.26,5.18-.9,8.04-7.68,9.78-11.95.72-1.76.99-4.77,2.49-6.06,1.91-1.66,5.31-2.7,7.58-3.86,5.65-2.9,11.35-5.72,17.01-8.6,10.48-5.34,21.11-10.45,31.76-15.37,4.98-2.3,9.98-4.56,14.98-6.86,2.35-1.08,4.65-2.18,6.93-3.39,1.19-.63,2.71-.75,3.73-1.72,2.81-.55,5.84-2.53,8.42-3.71,3.18-1.45,6.64-2.47,9.86-3.9,6.93-3.06,14.04-5.65,21.07-8.48,12.54-5.04,25.41-9.42,38.33-13.35,12.95-3.95,26.17-7.82,39.69-8.98,5.13-.44,12.97-1.36,15.68,4.34,2.6,5.45-2.87,11.77-6.44,15.38-4.54,4.6-9.8,8.27-15.2,11.76-3.16,2.03-6.44,3.86-9.74,5.64-1.3.69-6.96,2.51-6.96,4.26,2.34,2.79,10.09-2.89,12.45-4.14,4.62-2.44,9.07-5.21,13.2-8.42,3.82-2.98,7.85-5.59,11.09-9.28,1.41-1.59,2.76-3.32,3.85-5.15.4-.67,1.93-5.59,2.56-5.65v-2.4c-.69-.11-.91-2.12-1.17-2.67ZM67.26,55.82c.3-3.53.09-4.25,3.72-5.12,2.73-.66,7.19-1.56,9.85-.3,5.99,2.85,2.05,12.98-.47,16.9-1.83,2.86-2.94,4.45-6.31,5.1-2.67.52-6.06,2.67-8.71,2.45.4-6.35,1.38-12.69,1.92-19.03Zm4.43,21.02c-.65,1.28-5.76,5.21-7.35,5.68-.87-4.06,4.51-4.61,7.35-5.68Zm-8.49,11.5c3.3-1.97,6.55-3.91,9.55-6.32,1.32-1.07,2.7-2.06,3.95-3.21,1.14-1.05,2.29-2.93,3.7-3.56,1.48-.66,4.07-.21,5.64-.19,2.04.03,3.79.23,5.66,1.13,3.21,1.54,5.03,4.54,3.78,8.08-2.26,6.35-9.5,10.78-15.12,13.81-3.1,1.67-6.49,3.08-9.82,4.24-2.96,1.03-7.18,2.82-10.33,2.61,1.01-5.58,1.99-11.04,2.99-16.59Zm-7.69-1.57c.23-1.11,1.25-2.31,3.18-3.75.73,2.42-.55,3.89-3.18,3.75Zm-1.75,18.86c.39-.57.68-1,1.03-1.51.99,1.14-.12,1.64-1.03,1.51Zm83.02,18.9c-1.6-.87-2.4-3.35-1.94-6.36,3.12-1.58,6.33-3.21,9.81-4.97-.84,3.6-3.88,10.32-7.87,11.33Zm13.16-42.44c-.03,2.04-.13,4.07-.32,6.11-.33,3.65-.68,7.34-1.33,10.95-.62,3.42-.49,8.37-3.7,10.19-2.96,1.68-6.28,3.58-9.51,4.67,1.68-13.21,8.14-25.86,14.56-37.31.78,1.37.32,3.85.3,5.39Zm87.96,43.38c-1.28-1.17-1.71-2.67-2.41-4.19-.79-1.73-1.51-2.25-3.12-3.17-2.15,1-.84,3.06-.25,4.7-.61.63-4.21,2.36-5.21,2.5-.05-.51-.1-1.01-.14-1.47.91-2.01.97-4.04,1.3-6.18.37-2.49,1.27-5.05,1.93-7.48.59-2.17,1-4.4,2.32-6.27,1.29-1.82,4.21-2.93,5.09-4.83-.28-1.97-.77-2.39-2.56-3.34-2.37,1.46-3.85,3.28-5.96,4.99-2.55,2.07-5.4,3.88-8.1,5.75-4.02,2.79-9.74,7.55-14.93,7.09-.41-1.85.7-3.36.69-4.85.88-1.43,2.49-2.13,2.71-3.91-.51-.25-.98-.55-1.42-.91-4.12,2-8.58,9.81-2.57,12.29,4.02,1.67,7.85-.29,11.36-2.27,1.6-.9,7.14-3.23,7.28-5.31,1.45.21,2.14-.89,3.19-1.88-1.31,4.18-2,8.31-2.87,12.53-.48,2.3-.84,5.62-1.77,7.76-.33.76-1.18,1.32-1.38,2.1-.17.69.57,1.86.61,2.51.14,2.43-.83,5.26-1.22,7.67-.48,2.89-.96,5.79-1.4,8.69-.86,5.7-1.53,11.44-2.45,17.14-1.71,10.61-3.28,21.25-6.12,31.64-1.4,5.15-3.24,10.29-5.25,15.23-.87,2.15-4.77,13.06-7.87,12.79-.75-.46-2.92-2.2-3.62-.72,1.45,4.16,6.19,3.71,8.55.9,3.18-3.8,5.17-8.71,7.14-13.21,4.15-9.45,7.02-19.55,8.78-29.7,1.76-10.12,3.22-20.32,4.4-30.54.6-5.25,1.67-10.45,2.47-15.67.41-2.71.23-4.09,2.44-5.63,2.16-1.51,4.25-3.1,6.34-4.72,1.32,1.24,3.78,3.68,5.92,2.89,2.66-.98-.12-3.7-1.9-2.92Zm-13.02-5.61c-.12-.15-.08-.25.1-.29.04.05.08.1.12.15-.08.05-.15.09-.22.14Zm-108.81-34.59c1.19-.7,2.18-1.71,3.34-2.42,1.25-.75,2.44-.73,3.82-1.2,5.57-1.88,9.95-6.55,13.68-10.82-1.45-3.71-3.84-.46-5.33,1.03-1.56,1.57-4.63,4.36-6.91,4.71,1.16-4.2-1.71-8.64-6.56-6.76-2.09.81-3.85,3.2-4.44,5.31-.73,2.61.72,3.64,1.71,5.79-1.21,1.4-4.13,2.16-4.87,3.85.33,2.81,4.15,1.34,5.56.51Zm4.88-12.77c1.58.87-2.07,5.51-2.9,6.17-1.15-2.27,1-5.55,2.9-6.17Zm131.9,61.2c-.07,2.64.49,7-.57,9.38-.28.12-.57.25-.89.39-.41,2.02,2.01,3.09,3.52,3.12,1.63-1.94,1.21-6.56,1.53-9,.29-2.21,1.35-6.51-.56-8.28-3.34-3.09-2.99,2.68-3.03,4.4Zm87.88-45.58c-4.42,2.13-4.42,9.17-3.57,13.09.66,3.01,1.17,5.25-.03,8.25-.88,2.2-2.42,4.85-4.37,6.25-2.39-1.2-2.53,1.49-1.21,2.86,1.24,1.29,2.59,1.08,3.9.2,3.61-2.43,6.14-6.59,6.55-10.88.38-3.95-2.41-7.65-1.82-11.64.28-1.89,4.64-7.88.54-8.13Zm12.52,8.75c-1.03-2.08-.48-3.55.11-5.68.4-1.43,1.14-6.69-2.31-5.07-1.07.5-1.78,3.67-2.09,4.73-.52,1.77-.71,3.31-.05,5.07,1.21,3.21,3.69,5.06,3.11,8.76-.6,3.88-2.52,7.71-4.41,11.12-.69,1.23-3.15,3.75-3.14,5.14,0,1.52,1.55,1.58,2.6,2.01,3.22-1.55,5.47-6.6,7.12-9.63,1.78-3.28,3.3-7.25,2.09-11-.65-2.02-2.1-3.58-3.03-5.45Zm-20.72,1.34c-1.62,2.5-7.02,9.19-10.8,7.04,1.03-2.15,5.02-7.34,2.76-9.63-2.01-2.04-4.89.08-6.24,1.77-1.08,1.35-1.79,2.91-1.61,4.66.16,1.6.94,2.49.12,3.98-.78,1.43-2.27,2.65-3.34,3.84-1.27,1.4-2.5,3.14-4.04,4.25-1.36-4.63-4.06-6.45-8.05-5.77-.3-1.26-.46-2.57-2.07-2.75-1.77-.2-1.75,1.12-2.07,2.57-.84,3.86-2.47,8.23-2.78,12.13-.12,1.55.07,2.67,1.85,3.05,1.79.37,1.74-.23,2.26-1.75.8-2.36,2.97-9.58,5.94-9.97,1.68,2.31,1.91,9.57,6.97,6.51,1.9-1.15,3.37-3.9,4.75-5.62.96-1.19,2.38-4.02,3.81-4.64,1.2-.52,3.45.74,4.91.51,1.88-.31,3.49-1.41,4.94-2.57,2.19-1.77,7.19-5.92,2.69-7.61Zm-11.5,3.33c-.07.08-.14.14-.22.18-.13.15-.27.27-.43.32-.4.12-.76-.15-.99-.58-.16-.32-.19-.75-.11-1.11.14-.62.52-1.11.89-1.5.19-.2.39-.4.61-.56.04-.03.08-.05.12-.08.08-.09.18-.14.29-.16.03-.01.06-.03.1-.04.16-.04.31-.03.46.08.03.02.05.06.08.09.1.07.2.17.25.29.09.2.09.41.06.62-.11.78-.46,1.42-.84,2.02-.08.15-.16.3-.27.43Zm-66.07,16.35c-1.69-.56-3.04-1.39-4.37,0,.5,2.09,1.01,2.98,3.08,3.5,1.46.37,3.12.92,4.03-.47-.68-1.87-.86-2.39-2.74-3.02Zm30.85-7.38c-1.54.11-2,1.51-3,2.4-.85.76-2.26,1.56-3.34,1.93-1.23-1.05.72-8.46.96-10.02.59-3.76,1.7-7.22,2.89-10.82-.46-1.56-2.28-3.22-3.92-2.24-1.69,1-2.37,4.96-2.8,6.7-1.06,4.31-1.68,8.86-2.08,13.28-.16,1.72.18,4.63-.7,6.19-.92,1.63-3.98,2.46-5.56,3.46-1.54.97-3.17,2.39-.83,3.74,2.22,1.28,4.18-.5,6.09-1.4.1,3.38.24,10.04,5.56,9.12,1.93-.33,2.97-2.78,3.76-4.34,1.37-2.71,1.46-3.83-1.41-4.99-1.06,1.3-1.59,3.04-3.15,4.17.12-2.39-.4-6.11,1.01-8.07,1.42-1.98,4.97-3.6,6.86-5.13,1.55-1.25,3.01-4.22-.35-3.98Z"/>
</svg>