<?xml version="1.0" encoding="UTF-8"?>
<svg id="_圖層_1" data-name="圖層 1" xmlns="http://www.w3.org/2000/svg" viewBox="0 0 969.41 280.44">
  <defs>
    <style>
      .cls-1 {
        fill: #e76751;
        stroke-width: 0px;
      }
    </style>
  </defs>
  <path class="cls-1" d="m145.71,132.85c.41-1.33.1-2.36-.86-2.91-.39-.23-.84-.35-1.28-.35-.72,0-1.42.31-1.98.88-.6.61-1.08,1.23-1.4,1.86-1.35,2.58-3.39,4.6-5.2,6.29-4.59,4.29-9.52,7.9-14.63,10.7-2.47,1.36-5.1,2.51-7.83,3.43-1.72.58-3.73.89-5.89.91-1.88,0-3.32-.61-4.17-1.77-.82-1.12-.99-2.65-.5-4.41.43-1.56,1.19-3.17,2.2-4.66,3.26-4.82,6.74-8.86,10.65-12.35.88-.79,1.09-1.58.65-2.43-.33-.63-.87-.98-1.51-.98-.26,0-.53.06-.82.17-.69.27-1.68.74-2.49,1.47-4.92,4.5-8.54,8.61-11.41,12.92-1.3,1.96-2.17,4.01-2.58,6.09-.9,4.56,1.1,8.77,4.98,10.48,1.43.63,3.23,1.02,5.22,1.13.3.02.59.03.89.03,3.66,0,7.11-1.28,10.28-2.66,5.37-2.34,10.05-5.74,13.92-8.76.38-.29.76-.58,1.24-.93l1.01-.75-.05.31c-.05.29-.09.53-.12.74-.06.39-.1.67-.19.95l-.22.66c-.41,1.26-.83,2.56-1.32,3.82-.77,1.99-1.52,3.98-2.28,5.98-1.84,4.88-3.74,9.92-5.9,14.76-3.25,7.29-6.73,14.62-10.1,21.71-1.64,3.44-3.28,6.89-4.89,10.34l-3.22,6.87c-3.79,8.07-7.71,16.42-11.48,24.66-3.64,7.96-7.06,15.84-10.85,24.58-1.83,4.23-3.58,8.58-5.26,12.79l-.43,1.08c-.27.66-.43,1.46-.49,2.43-.08,1.15.41,1.95,1.41,2.31.38.14.75.21,1.1.21.71,0,1.32-.28,1.81-.84.65-.73,1.2-1.57,1.59-2.43,2.89-6.32,5.94-13.07,9.61-21.24,1.77-3.95,3.53-7.9,5.29-11.85,3.3-7.42,6.71-15.08,10.16-22.59,3.56-7.77,7.24-15.64,10.8-23.26,3.05-6.52,6.1-13.05,9.12-19.58,3.13-6.79,5.9-13.75,8.23-20.7.86-2.58,1.69-5.16,2.51-7.75.73-2.29,1.46-4.58,2.22-6.86l.43-1.31c.85-2.65,1.74-5.39,3.43-7.79.29-.41.47-.94.61-1.4Zm792.49-37.02l-.47-.33c-.31-.22-.62-.45-.95-.63-.74-.42-1.51-.58-2.23-.45-.84.16-1.59.7-2.14,1.57-.84,1.32-1.23,2.83-1.14,4.35.15,2.43,1.75,4.05,3.99,4.03.25,0,.5-.03.74-.07,1.77-.33,3.25-1.69,3.85-3.56.71-2.2.23-3.62-1.66-4.91ZM104.08,17.77c1.84-3.36,3.41-6.41,3.97-9.84.38-2.33-.07-4.41-1.28-5.87-1.1-1.33-2.77-2.06-4.71-2.06-.73,0-1.5.1-2.29.31-1.61.42-3.31,1.19-5.35,2.43-3.7,2.26-6.83,5.29-9.48,7.96-6.54,6.6-12.49,14.68-18.18,24.7-2,3.52-3.94,7.15-5.82,10.66-1.22,2.29-2.45,4.58-3.7,6.85-.49.89-1.07,1.87-1.9,2.34-4.18,2.37-9.8,5.16-16.16,5.66-.54.04-1.09.07-1.63.07-1,0-1.88-.09-2.68-.26-3.58-.79-6.12-4.05-6.48-8.31-.18-2.13.18-4.33,1.08-6.72,2.34-6.19,5.66-12.1,9.87-17.56.52-.68.94-1.41,1.2-2.11.36-.95.12-1.83-.65-2.47-.46-.38-.98-.59-1.51-.59-.43,0-.85.13-1.26.38-.72.43-1.41,1.05-2,1.77-5.85,7.15-9.81,14.13-12.11,21.33-1.64,5.14-1.18,9.97,1.39,14.36,2.1,3.59,5.12,5.72,9.21,6.51,1.38.27,2.83.4,4.28.4,2.9,0,5.93-.5,9.53-1.58l3.47-1.06s-.36.93-.47,1.2c-.2.52-.35.92-.54,1.31l-15.58,32.01c-8.52,17.51-17.05,35.02-25.56,52.54-2.41,4.95-4.8,10.03-7.12,15.09-.65,1.42-1.08,2.96-1.5,4.45l-.07.26c-.23.82.06,1.55.77,1.96.32.18.64.27.97.27.48,0,.94-.2,1.37-.58.59-.53,1.03-1.02,1.34-1.51.64-1,1.3-2,1.96-2.99,1.6-2.41,3.26-4.9,4.57-7.49,8.9-17.65,18.48-36.88,29.3-58.78,5.12-10.37,10.23-20.95,15.18-31.19l4.82-9.96c.47-.97,1.12-2.07,2.37-2.84,7.98-4.91,15.06-10.82,20.34-15.43,9.02-7.87,15.89-16.24,21.02-25.6Zm-34.68,28.11c-.13.05-.26.11-.39.17l-.14.06-.16-.24.07-.05c.04-.13.08-.27.12-.41.08-.3.17-.61.32-.9,5.92-11.1,11.24-19.1,17.27-25.94,4.07-4.63,7.53-7.79,11.22-10.26l.38-.26c.85-.59,1.73-1.2,2.87-1.2.13,0,.26,0,.39.02h.1s.02.11.02.11c.28,1.28-.21,2.36-.67,3.41-2.65,5.97-6.25,11.58-11,17.16-5.88,6.91-12.86,12.67-19.53,17.87-.26.2-.56.33-.85.45ZM967.57,7.66c-.46-.15-.92-.18-1.36-.09-.93.17-1.74.84-2.3,1.87-.34.63-.63,1.34-.94,2.24-4.99,14.71-10.91,29.51-16.08,42.22-3.02,7.43-5.78,14.94-8.09,21.32-.62,1.71-1.02,3.52-1.41,5.27-.17.77-.34,1.54-.53,2.31l.22.04v.45c-.02.26-.02.51-.01.77.03.94.47,1.57,1.3,1.88.28.1.55.13.83.08.39-.07.8-.3,1.24-.7.41-.36.86-.8,1.14-1.3l.38-.66c.68-1.18,1.39-2.4,1.9-3.67,4.98-12.31,9.91-24.63,14.85-36.96,3.1-7.74,7.03-17.99,10.01-28.66.23-.83.52-1.92.66-3.02.2-1.54-.58-3-1.81-3.39ZM158.91,175.12c-.6-.39-1.23-.7-1.86-.92-1.1-.38-2.39-.81-3.68-1.09-.41-.09-.81-.13-1.18-.13s-.73.05-1.03.14c-1.07.32-2.11.9-3.02,1.4-1.08.59-1.69,1.48-1.86,2.7-.11.82-.31,1.7-.66,2.84-.22.74-.5,1.48-.77,2.21l-.34.92c-.35,1.8-.3,3.35.15,4.74.69,2.13,2.4,3.4,4.56,3.4.34,0,.68-.03,1.03-.09.9-.16,1.72-.43,2.38-.79,3.44-1.87,6.18-4.59,8.13-8.1,1.53-2.74.82-5.52-1.85-7.24Zm-2.18,4.61c-1.59,2.8-3.78,4.89-6.7,6.37l-.1.05-.06-.08c-1.15-1.6-.54-4.71,1.67-8,.46-.09.9-.13,1.31-.13,1.46,0,2.72.53,3.86,1.62l.07.07-.05.09Zm42.6,2.82c-.17,0-.35,0-.55.03-1.11.12-2.21.27-3.31.43-.27.04-.53.06-.79.06-.98,0-1.93-.3-2.81-.88-2.57-1.7-3.95-4.03-4.1-6.92l-.02-.32c-.02-.4-.04-.81-.11-1.2-.2-1.02-.79-1.66-1.76-1.89-.27-.06-.52-.1-.77-.1-.76,0-1.41.31-1.94.93-.4.47-.74,1.01-1.1,1.61-1.28,2.1-2.93,3.87-4.88,5.27-.47.33-.98.61-1.52.91-.27.15-.55.3-.84.47l-.13.07-.05-.12c-.84-1.91-.51-3.42-.03-4.78.18-.5.4-.99.62-1.48.14-.29.27-.59.39-.89.31-.75.18-1.43-.39-2-.34-.33-.72-.51-1.15-.51-.28,0-.57.07-.86.22-.7.35-1.2.74-1.49,1.15-2.17,3.07-2.95,6.05-2.37,9.12.54,2.88,2.35,4.59,4.84,4.59.86,0,1.76-.21,2.69-.61,1.25-.55,2.41-1.4,3.53-2.22.42-.3.83-.61,1.25-.9.35-.24.65-.53,1.01-.87.17-.16.35-.34.55-.51l.11-.1.47.61c.25.33.48.62.69.93,1.73,2.48,3.94,4.14,6.58,4.92.98.29,1.95.44,2.89.44,2.15,0,4.18-.77,6.04-2.3.89-.73,1.18-1.46.87-2.22-.27-.68-.73-.96-1.57-.96Zm96.92-36.52c-.32-.94-1.1-1.46-2.2-1.46-.27,0-.56.03-.86.09-1.12.23-2.33.59-3.58,1.06-3.36,1.27-6.72,2.55-10.08,3.83l-5.5,2.1c-.43.16-.86.3-1.39.47l-1.16.38s.28-.75.34-.95c.13-.37.23-.64.36-.89,3.75-7.34,7.92-13.54,12.73-18.94,3.04-3.4,5.71-5.58,8.66-7.04.47-.23.97-.55,1.48-.95,1.18-.91,1.64-2.37,1.11-3.46-.38-.79-1.24-1.27-2.22-1.27-.39,0-.78.08-1.17.22-.79.3-1.57.73-2.31,1.15-.28.16-.57.31-.85.47-.62.33-1.24.68-1.86,1.02-1.22.68-2.48,1.38-3.77,1.96-7.33,3.3-15.2,6.62-23.65,7.89-1.38.21-2.19,1.07-2.22,2.36-.03,1.24.78,2.09,2.18,2.26.66.08,1.23.12,1.75.12.63,0,1.19-.06,1.7-.17,2.28-.52,4.58-1.13,6.8-1.73.85-.23,4.07-1.09,4.82-1.29l1.01-.29.09.25c-.05.09-.09.18-.13.28-.09.21-.19.43-.34.62-4.64,6.17-8.79,13.35-13.06,22.58-1.81,3.91-3.84,8.58-5.19,13.59-.89,3.29-1.08,6.03-.6,8.62.76,4.08,3.69,6.52,7.86,6.52.2,0,.4,0,.6-.02,2.47-.14,4.91-.89,7.24-2.25,6.16-3.58,11.26-8.57,15.58-15.27.55-.85.96-1.93,1.16-3.05.14-.79-.13-1.71-.38-2.34-.3-.76-.98-1.2-1.86-1.2-.07,0-.14,0-.21,0-1.23.09-1.62,1.07-1.73,1.65-.38,1.86-1.58,3.23-2.45,4.11l-.16.16c-2.43,2.46-4.95,5-7.6,7.29-1.64,1.41-3.64,2.52-5.38,3.44-1.02.54-2.26.92-3.8,1.18-.26.04-.51.07-.73.07-1.36,0-2.09-.78-2.17-2.3-.09-1.75.02-3.39.35-4.87.85-3.9,2.36-7.68,3.86-11.18.46-1.07,1.12-1.65,2.22-1.94,7.95-2.07,15.63-5.4,23.05-8.62l.32-.14c.81-.35,1.4-.65,1.92-.98,1.28-.82,1.82-2,1.42-3.15Zm-42.64-94.07c-.78,0-1.43.49-1.75,1.31-.68,1.75-1.9,3.09-3.1,4.4-.46.51-.95.99-1.43,1.48l-.1.1c-6.66,6.69-13.65,11.53-21.37,14.79-3.9,1.65-6.97,2.42-9.96,2.51-.14,0-.27,0-.4,0-3.44,0-5.41-1.44-6.4-4.68-.43-1.41-.66-2.94-.66-4.4,0-1.36.16-2.74.31-4.07.07-.59.13-1.17.19-1.78,1.46-6.33,4-12.32,7.53-17.82,6.76-10.5,16.05-18.48,27.63-23.72,2.38-1.08,4.95-1.82,7.5-2.57,1.03-.3,2.1-.45,3.18-.45.96,0,1.93.12,2.9.36,2.01.49,3.19,1.48,3.73,3.12.18.56.42.99.7,1.28.31.33.72.51,1.13.51.65,0,1.23-.44,1.48-1.11.16-.44.17-.94.15-1.28-.18-2.89-1.29-4.83-3.4-5.95-1.54-.82-3.03-1.4-4.43-1.71-.91-.21-1.89-.31-2.9-.31-1.54,0-3.25.24-5.2.73-5.1,1.28-10.05,3.38-14.71,6.24-10.54,6.47-18.3,14.09-23.72,23.29-4.39,7.45-7.02,14.45-8.06,21.4-.63,4.22-.44,7.61.58,10.69,1.89,5.69,6.12,8.73,12.23,8.81h.26c2.53,0,5.14-.44,8.21-1.4,6.62-2.06,12.87-5.56,19.1-10.69,4.75-3.92,8.45-7.74,11.29-11.69.86-1.2,1.44-2.68,1.85-3.83.35-.99.05-2-.83-2.87-.45-.44-1-.68-1.54-.68Zm79.46,107.11c-.29,0-.61.08-.95.24-.35.17-.7.35-1.04.56-.43.26-.85.53-1.27.79-.7.45-1.4.89-2.12,1.31l-.95.55c-1.94,1.14-3.95,2.31-5.98,3.38-1.03.55-2.3,1.11-3.89,1.11-.17,0-.34,0-.52-.02h-.08s-.02-.08-.02-.08c-.07-.21-.15-.43-.23-.64-.18-.48-.36-.97-.46-1.48-.12-.62-.21-1.24-.29-1.86-.1-.71-.2-1.44-.35-2.14-.27-1.24-.56-2.12-.95-2.87-.7-1.33-1.83-2.04-3.28-2.04-.37,0-.77.05-1.18.14-.38.09-.75.18-1.12.27l-.62.15-.33-.32c-.17-.17-.32-.32-.48-.45-.5-.39-1.01-.58-1.51-.58-.68,0-1.32.38-1.85,1.1-.27.37-.46.83-.59,1.19-1.04,2.82-2.47,5.39-4.27,7.61-.67.83-1.26,1.7-1.77,2.61-.37.65-.64,1.4-.8,2.15-.23,1.1.17,1.97,1.12,2.47.46.24.91.36,1.34.36.53,0,1.02-.18,1.46-.54.57-.46,1.11-1.05,1.56-1.72.44-.64.84-1.29,1.24-1.95.36-.58.71-1.17,1.09-1.73,1.28-1.91,2.95-3.5,5.4-5.18l.17-.12.43,2.51c.08.48.15.95.22,1.43.15,1.03.3,2.1.58,3.11.77,2.75,2.43,4.03,5.37,4.15.12,0,.25,0,.37,0,.82,0,1.62-.11,2.3-.32l.2-.06c1.43-.44,2.91-.9,4.18-1.65,2.82-1.66,5.53-3.52,7.81-5.12,1.39-.97,2.52-2.31,3.26-3.85.41-.86.36-1.5-.16-2.01-.32-.31-.66-.46-1.06-.46Zm-102.2,2.98c-.14,0-.28.01-.43.03-2.81.36-5.53,1.22-8.33,2.61-3.18,1.59-6.26,3.78-9.42,6.7-.2.19-.43.35-.68.51-.11.08-.52.36-.52.36,0,0-.18-.97-.25-1.35-.16-.86-.3-1.67-.51-2.46-.14-.55-.41-1.09-.75-1.53-.39-.48-.89-.74-1.46-.74-.27,0-.55.06-.83.17-.81.33-1.29,1.1-1.27,2.04,0,.19.03.37.06.56.02.17.05.34.06.51.02.41.05.83.08,1.24.07,1.01.15,2.05.09,3.07-.12,1.84-.43,3.71-.74,5.57-.34,2.07-.02,2.73,1.74,3.52,1.71-.24,1.92-.39,2.71-1.8l.14-.26c.28-.5.56-1.02.93-1.48,4.75-5.95,9.87-10.03,15.63-12.47,1.06-.45,2.11-.98,3.12-1.49l.85-.43c1-.5,1.39-1.14,1.3-2.03-.39-.59-.86-.85-1.52-.85ZM366.42,10.27c.38,0,.79-.08,1.23-.24l.59-.21c1.52-.55,3.09-1.12,4.67-1.49,2.94-.68,6.07-1.01,9.56-1.01.6,0,1.19.01,1.79.03,3.52.11,6.73,1.1,9.56,2.94,4.24,2.76,5.43,7.13,3.29,12-1.6,3.63-4.42,6.28-6.97,8.38-1.53,1.26-3.09,1.9-4.92,1.99-3.88.2-7.72,1.34-11.41,3.38-.71.39-1.37.83-1.96,1.31-1.14.9-1.59,2.05-1.32,3.32.28,1.32,1.27,2.07,2.71,2.07,1.76,0,3.27-.15,4.62-.45,3.46-.78,6.85-2.11,10.08-3.97.66-.38,1.29-.56,1.94-.56.6,0,1.22.16,1.89.5,1.96.98,3.09,2.64,3.36,4.95.21,1.84-.1,3.8-.96,6-1.43,3.67-3.77,6.83-6.96,9.38-6.84,5.47-14.82,9.08-23.7,10.72-1.25.23-2.59.45-3.94.44-1.36,0-2.55-.22-3.66-.67-.19-.08-.39-.12-.58-.12-.44,0-.86.2-1.24.6-.64.66-.5,1.36-.28,1.83.24.51.56.99.93,1.39.8.88,1.88,1.42,3.31,1.65.88.14,1.78.21,2.74.21,1.69,0,3.47-.21,5.79-.67,7.36-1.46,14.48-4.51,21.15-9.06,1.83-1.25,3.64-2.81,5.54-4.78,4.18-4.33,6.55-9.3,7.04-14.78.4-4.46-1.1-8.01-4.46-10.54-.2-.15-.39-.3-.64-.5l-.56-.45.8-.8c.46-.46.86-.87,1.28-1.28,2.2-2.16,3.84-4.39,5-6.81,2.6-5.4,2.51-10.22-.27-14.72-1.51-2.44-3.84-4.35-7.11-5.82-3.19-1.43-6.69-2.16-10.4-2.16h-.12c-5.95.03-11.03.95-15.55,2.84-.96.4-1.97,1.11-2.99,2.11-.79.77-.73,1.89-.23,2.49.3.35.76.54,1.33.54Zm6.64,138.19c.07-.47.14-.95.12-1.42-.02-.85-.49-1.47-1.32-1.76-.2-.07-.4-.1-.6-.1-.72,0-1.22.45-1.51.83-.4.52-.71,1.2-.86,1.87-.9,4.22-2.13,8.4-3.65,12.43-.19.51-.31,1.09-.35,1.67-.06,1.07.42,1.85,1.45,2.32.34.16.67.23,1.01.23.56,0,1.09-.21,1.59-.63.53-.46.96-1.09,1.32-1.65,2.71-4.25,5.18-7.22,7.99-9.61.87-.74,1.62-1.45,2.29-2.17.71-.77.84-1.42.41-2.13-.36-.6-.88-.73-1.26-.73-.21,0-.42.04-.64.11-1.35.48-2.69,1.12-3.94,1.73-.4.2-.77.48-1.24.84-.25.19-.54.41-.87.65l-.23.16s.15-1.72.18-1.95c.02-.23.06-.46.09-.69Zm-25.34-78.22c.32.2.66.3,1.03.3.63,0,1.26-.3,1.83-.86.41-.41.8-.93,1.17-1.55,1.59-2.68,3.18-5.36,4.78-8.04,3.96-6.63,8.05-13.48,11.89-20.31,3.65-6.49,7.17-13.19,10.58-19.67,1.48-2.81,2.96-5.62,4.45-8.42.18-.34.3-.62.37-.87.23-.84.06-1.5-.52-1.98-.36-.29-.76-.45-1.17-.45-.3,0-.59.08-.86.25-.56.34-1.34.9-1.86,1.63-.85,1.19-1.71,2.55-2.61,4.19-2.05,3.7-4.1,7.4-6.14,11.11-3.48,6.3-7.07,12.82-10.66,19.2-2.54,4.51-5.21,9.05-7.78,13.45-1.36,2.31-2.72,4.62-4.06,6.94-.33.57-.61,1.16-.83,1.62l-.22.44c-.39,1.53-.19,2.49.64,3.02Zm266.14,69.25c.25.07.5.11.73.11.65,0,1.18-.27,1.59-.81.45-.59.79-1.25.96-1.86.23-.82.47-1.63.7-2.44.84-2.91,1.71-5.92,2.38-8.92.95-4.26,1.79-8.62,2.61-12.83.35-1.81.7-3.61,1.06-5.42l.09-.14,3.65-18.3c.11-.57.23-1.15.29-1.73.1-.84-.29-1.47-1.13-1.86-.18-.08-.38-.13-.59-.13-.55,0-1.08.31-1.47.86-.38.53-.68,1.21-.84,1.9-1,4.1-1.82,7.52-2.58,11.08-.65,3.02-1.25,6.04-1.86,9.06-.41,2.04-.82,4.08-1.24,6.11-.46,2.25-.88,4.08-1.3,5.74-.83,3.27-1.68,6.54-2.52,9.81-.56,2.18-1.13,4.36-1.69,6.53-.14.53-.2.94-.2,1.31,0,.96.5,1.68,1.35,1.92Zm-339.1-69.88c.85,0,1.74-.18,2.64-.53,1.58-.61,3.08-1.61,4.73-3.14.31-.29.65-.56,1.01-.87l.67-.56.4.89c.2.46.37.85.57,1.22.15.28.29.55.43.84.43.84.87,1.72,1.44,2.47.57.75,1.46,1.3,2.18,1.71.23.13.48.2.73.2.4,0,.78-.16,1.11-.48.53-.51.67-1.14.41-1.83-.26-.71-.57-1.41-.88-2.11l-.15-.35c-1.44-3.29-2.74-6.54-2.87-10.16-.01-.36-.11-.73-.26-1.06-.44-.92-1.15-1.39-2.18-1.39h0c-1.02.02-1.85.69-2.16,1.74-.1.34-.14.7-.18,1.05-.04.35-.08.71-.18,1.06l-.09.33c-.18.69-.38,1.39-.84,1.86-1.15,1.16-2.48,2.32-4.2,3.65-.39.3-.89.43-1.37.57-.22.06-.44.12-.65.2l-.09.03-.05-.06c-.89-1.07-.78-2.01-.58-2.96.51-2.39,1.69-4.61,3.63-6.8,1.08-1.22,2.28-2.4,3.97-2.4.35,0,.71.05,1.08.15.1.03.2.04.3.04.5,0,.96-.34,1.12-.82.17-.51.15-1.2-.05-1.73-.15-.39-.68-.71-1.07-.91-.74-.39-1.51-.59-2.28-.59-1.12,0-2.26.39-3.5,1.21-2.93,1.92-5.15,4.62-6.8,8.25-1.01,2.22-1.39,4.25-1.18,6.19.35,3.12,2.39,5.13,5.21,5.13Zm-146.09,9.77c.69.39,1.42.58,2.22.58s1.61-.18,2.58-.54c2.13-.8,3.81-2.24,5.31-3.68.34-.33.68-.65,1.05-.99l.7-.66.66.84c.39.5.73.94,1.08,1.37,1.35,1.67,2.9,3.32,5.12,4.1.95.33,2.11.52,3.55.57h.09c.96,0,1.67-.49,1.92-1.33.24-.81-.09-1.48-1.03-2.11-.59-.39-1.13-.7-1.65-.95-1.33-.63-2.46-1.54-3.44-2.77-1.79-2.25-3.27-4.35-3.22-7.27.02-1.15-1.01-1.92-2.02-2-.07,0-.14,0-.2,0-1.07,0-1.98.67-2.37,1.76-.1.27-.16.56-.22.85-.04.22-.09.44-.15.66l-.09.34c-.1.4-.21.82-.45,1.17-1.47,2.21-3.35,3.92-5.57,5.11-.21.11-.44.14-.67.17-.1.01-.19.02-.28.04l-.1.02-.04-.09c-.88-2.22.12-5.96,2.06-7.69.98-.87,1.28-1.71.93-2.57-.33-.81-1.31-1.4-2.33-1.4-.15,0-.29.01-.44.04-1.05.18-1.93.73-2.53,1.59-2.59,3.65-3.6,7.23-3.08,10.94.24,1.74,1.13,3.05,2.63,3.9Zm-22.13-15.24c-4.04,0-7.87,1.49-11.08,4.32-1.17,1.03-1.74,2.32-1.55,3.53.19,1.27.04,2.51-.1,3.72-.06.5-.12,1.01-.16,1.52-.32,4.39,2.74,7.92,6.96,8.04h.19c1.79,0,3.56-.68,5.56-2.13,2.93-2.12,5.19-4.7,6.7-7.66.76-1.49,1.2-2.84,1.32-4.01.35-3.73-2.38-6.59-6.96-7.29-.29-.02-.59-.03-.88-.03Zm2.78,6.27l.1.04-.03.11c-.09.33-.15.62-.21.87-.11.48-.19.87-.38,1.2-1.64,2.97-3.69,5.12-6.29,6.55-.63.35-1.19.53-1.67.53-.96,0-1.61-.71-1.93-2.1-.6-2.58,1.42-6.41,3.85-7.32,1.32-.49,2.82-.62,4.25-.68h.06s0,0,0,0c.47,0,.94.22,1.44.45.25.12.51.24.8.35Zm190.35-5.19c.43,0,.87-.1,1.3-.3.63-.29,1.2-.77,1.73-1.24.49-.43.95-.9,1.41-1.35.38-.38.77-.76,1.16-1.13.35-.33.74-.63,1.17-.96.2-.16.77-.61.77-.61l.5.97c.28.54.53,1.03.8,1.51,1.27,2.28,2.87,3.4,4.89,3.4.95,0,2-.25,3.13-.75,4.6-2.03,8.41-4.96,11.34-8.7.62-.8,1.04-1.79,1.4-2.74.24-.66.37-1.56-.44-2.14-.38-.28-.79-.42-1.22-.42-.46,0-.92.16-1.37.48-.92.65-1.73,1.32-2.43,2-2.36,2.3-5.03,4.21-7.93,5.69-.43.22-.88.4-1.37.59-.24.09-.84.34-.84.34l-.44-.71c-.27-.44-.52-.84-.76-1.24-.14-.23-.26-.47-.39-.71-.2-.38-.39-.76-.64-1.11-.9-1.29-2.02-1.95-3.32-1.95-.72,0-1.49.2-2.3.59-.35.17-.69.35-1.08.54l-.72.37v-.18c-.03-.35-.04-.68-.05-1-.02-.69-.05-1.28-.14-1.88-.13-.89-.81-1.56-1.68-1.67-.07-.01-.15-.01-.23-.01-.75,0-1.52.48-1.91,1.19-.22.4-.34.86-.46,1.3l-.04.14c-.55,2.02-1.09,4.03-1.61,6.06l-.13.48c-.2.77-.42,1.57-.49,2.36-.15,1.61.88,2.82,2.39,2.82Zm62.36,99.36c.16-.22.32-.44.48-.65.56-.75.57-1.49.03-2.16-.31-.38-.69-.58-1.13-.58-.31,0-.65.1-1,.28-.88.47-1.79,1.03-2.85,1.77-3.03,2.12-6.56,3.15-11.21,3.23-1.66,0-2.45-.83-2.65-2.78v-.12s.35-.13.35-.13c.2-.07.41-.15.62-.23.52-.21,1.04-.41,1.57-.6,1.18-.45,2.41-.9,3.52-1.51,2.56-1.38,4.6-3.14,6.08-5.24,1.64-2.33,1.59-4.93-.14-6.8-1.19-1.29-3.56-2.59-6.16-2.59-1.66,0-3.18.51-4.51,1.53-1.75,1.33-3.03,2.75-3.94,4.34-1.6,2.8-2.54,5.44-2.89,8.05-.31,2.32-.2,4.2.32,5.9.96,3.09,2.93,4.83,5.87,5.17.84.09,1.69.15,2.51.15,4.84,0,9.34-1.67,13.36-4.96.68-.56,1.23-1.32,1.77-2.06Zm-17.54-7.39c.59-2.24,1.71-3.89,3.43-5.05.51-.34,1.01-.51,1.51-.51.65,0,1.3.3,1.93.9l.07.07-.06.1c-1.41,2.28-4.5,4.41-6.74,4.65l-.17.02.04-.17Zm232.81-73.57c.37-.36.75-.71,1.12-1.06.5-.46,1-.92,1.47-1.41.82-.84,1.03-1.87.55-2.67-.34-.55-.96-.89-1.66-.89-.37,0-.75.09-1.11.27-.81.39-1.64.93-2.46,1.6-5.65,4.61-9.83,10.05-12.42,16.17-2.77,6.54-2.44,12.19,1.03,17.27.1.15.19.3.28.45.07.12.15.25.22.36,3.5,5.34,4.07,11.33,1.74,18.33-1.95,5.84-5.17,10.98-9.87,15.71-9.26,9.32-20.52,16.62-34.4,22.31-3.54,1.45-6.75,2.24-9.8,2.41-.35.02-.7.03-1.06.05-.43.02-.86.03-1.29.06-.94.06-1.59.48-1.92,1.24-.38.87.05,1.59.52,2.18,1.06,1.32,2.61,1.79,4.09,2.16h.32c.28.02.57.03.86.03h.2c3.17,0,6.51-.73,10.49-2.29,12.64-4.96,23.99-12.04,33.71-21.03,7.45-6.89,12.19-14.31,14.48-22.7,2.06-7.52,1.36-14.11-2.13-20.13l-.31-.54c-.4-.7-.81-1.42-1.28-2.07-2.39-3.32-2.7-7.17-.95-11.77,1.9-5.01,5.04-9.6,9.58-14.05Zm-64.12,65.04h0c2.85,0,5.66-1.05,8.35-3.13.2-.15.38-.34.51-.54.35-.51.45-1.08.27-1.56-.18-.48-.63-.8-1.22-.88-.2-.02-.4-.03-.6-.03-.59,0-1.19.09-1.89.19-.63.09-1.25.21-1.88.33-.78.15-1.59.3-2.39.4-.25.03-.48.05-.71.05-1.81,0-2.78-.88-3.27-1.61-.74-1.11-.9-2.68-.4-4.1.87-2.49,2.13-4.46,3.84-6.03.36-.33.76-.61,1.17-.91.18-.13.37-.27.56-.41l.09-.06.48.35c.24.18.44.32.64.46.39.25.8.38,1.18.38.41,0,.77-.14,1.06-.41.35-.33.56-.81.61-1.4.18-2.06-1.13-3.79-3.17-4.22-.35-.07-.7-.11-1.04-.11-1.11,0-2.24.37-3.35,1.11-4.78,3.19-7.51,7.42-8.12,12.6-.47,3.97,1.92,7.82,5.56,8.95,1.25.39,2.5.58,3.73.58Zm-23.12-35.26c-.18-.03-.36-.05-.53-.05-.77,0-1.47.3-1.98.84-.51.56-.76,1.31-.69,2.11.11,1.27.68,2.48,1.66,3.49.46.47,1.06.73,1.7.73.74,0,1.43-.34,1.88-.94,1.1-1.44,1.06-2.7.84-3.5-.36-1.29-1.49-2.34-2.88-2.68Zm344.54-33.72c.35,0,.73-.11,1.16-.32.39-.2.82-.34,1.22-.48.27-.09.54-.18.8-.29.59-.24,1.02-.65,1.22-1.14.21-.53.15-1.12-.18-1.66-.5-.84-1.7-1.43-2.93-1.43-.23,0-.46.02-.68.07-1.26.25-2.15,1.21-2.39,2.58-.2,1.01.03,1.76.72,2.3.33.26.68.39,1.06.39Zm-230.99,51.8h-.01c-.47.02-1.02.18-1.62.49-.66.33-1.31.73-1.94,1.11l-.63.38c-1.95,1.15-4.06,1.74-6.28,1.74-.26,0-.52,0-.79-.02-1.6-.1-3.41-.45-4.76-2.34l-.1-.13s.73-.33.98-.44c.48-.21.87-.38,1.23-.59.47-.27.95-.55,1.43-.82,1.57-.89,3.18-1.81,4.68-2.85.99-.68,1.97-1.65,2.93-2.88,1.88-2.42,1.57-4.95-.81-6.78-1.41-1.08-2.99-1.65-4.58-1.65-1.78,0-3.55.71-5.11,2.06-2.12,1.83-3.85,4.21-5.27,7.28l-1.02,2.18-.58.07c-.29.03-.54.06-.79.11-1.45.27-2.39,1.17-2.5,2.4-.11,1.21.68,2.18,2.12,2.6.38.11.76.2,1.15.3l.61.19.28.52c.18.35.36.68.55,1.02,1.02,1.78,2.42,3.01,4.17,3.67,1.91.72,3.82,1.09,5.68,1.09,3.35,0,6.62-1.18,9.73-3.52.88-.66,1.73-1.61,2.59-2.91.33-.5.41-1.04.2-1.48-.23-.49-.76-.78-1.54-.78Zm-15.22-5.13c.77-2.01,1.87-3.48,3.46-4.63.51-.37,1.02-.56,1.53-.56.58,0,1.12.25,1.6.73l.06.06-.04.09c-.91,1.85-3.5,3.64-6.46,4.47l-.24.07.09-.23Zm233.84-19.4c-.16-.12-.31-.25-.46-.38-2.46-2.3-5.24-5.56-4.84-10.41.12-1.46-.47-2.43-1.76-2.91-.59-.22-1.11-.55-1.47-.93-1.59-1.72-3.48-2.08-4.78-2.08-1.25,0-2.51.33-3.64.95-4.35,2.4-6.92,5.95-7.63,10.54-.3,1.93.09,3.65,1.09,4.84.92,1.1,2.34,1.7,3.98,1.71.68,0,1.39-.1,2.18-.32.41-.11.84-.23,1.2-.44,1.59-.93,3.19-1.91,4.9-2.99.36-.23.7-.49,1.09-.79.2-.15.76-.58.76-.58l1.06,1.88c1.11,2.01,2.2,3.36,3.54,4.39,1.02.78,2.18,1.18,3.45,1.18.21,0,.42,0,.64-.03.73-.07,1.27-.46,1.56-1.12.33-.76.23-1.44-.32-2.01-.17-.18-.36-.33-.55-.48Zm-11.41-8.75c-2.23,2.48-4.65,4.03-7.63,4.88l-.16.04v-.16c-.06-3.28,1.79-5.25,3.8-6.89.86-.7,1.67-1.04,2.49-1.04.63,0,1.27.2,2.01.68.25,1,.07,1.83-.51,2.49Zm-321.37,33.46c-.33-.15-.67-.23-1.01-.23-.75,0-1.44.37-1.96,1.05-.38.49-.72,1.1-1.04,1.85-1.82,4.25-3.39,8.76-4.8,13.78-.06.32-.13.63-.2.93-.14.64-.27,1.25-.34,1.85-.12,1.11.39,2,1.34,2.31.18.06.37.09.58.09.83,0,1.68-.5,2.11-1.26.37-.64.63-1.36.92-2.15l.27-.73c1.04-2.83,2.08-5.67,3.08-8.51.82-2.34,1.49-4.41,2.06-6.34.35-1.19-.03-2.18-1.02-2.64ZM933.16,9.35c.5-1.56.22-2.67-.84-3.29-.52-.31-1.1-.41-1.7-.3-.56.1-1.1.39-1.56.84-.53.51-.99,1.13-1.29,1.74l-.09.18c-.72,1.45-1.47,2.95-2.01,4.48-1.77,5.04-3.6,10.25-5.22,15.43-4.34,13.83-8.58,27.65-11.79,38.15-1.27,4.16-1.99,7.95-2.26,11.89.02.15.03.33.04.54.03.54.08,1.22.28,1.84.32.96,1.13,1.5,2.02,1.33.51-.09.97-.42,1.31-.91.64-.92,1.18-2.06,1.62-3.37.54-1.6,1.02-3.24,1.49-4.83.3-1.02.6-2.04.92-3.05,5.2-16.69,10.41-33.37,15.63-50.05.72-2.29,1.47-4.58,2.22-6.86.41-1.25.82-2.5,1.23-3.76Zm-273.6,64.05c-.23,0-.46.02-.69.05-3.23.48-5.7,2.13-7.55,5.04-1.38,2.18-2.28,4.5-2.67,6.9-.62,3.79-1.11,7.65-1.6,11.6-.29,2.37-.56,4.75-.83,7.12-.21,1.83-.41,3.65-.63,5.48-.23,1.93-.51,3.98-1.21,6.07l-.03.07-1.89.67c-1.53.54-3.04,1.07-4.55,1.61-.21.07-.42.14-.63.22-.59.2-1.2.4-1.75.69-.96.52-1.53,1.81-1.27,2.88.25,1.06,1.02,1.69,2.1,1.71h.18c.92,0,1.87-.18,2.69-.36.77-.17,1.53-.4,2.4-.66.4-.12.82-.25,1.27-.38l.18-.05-.02.18c-.03.3-.05.55-.07.77-.03.4-.05.69-.12.98-.2.82-.4,1.63-.6,2.45-.55,2.26-1.12,4.6-1.8,6.87-1.4,4.71-2.96,9.69-5.05,16.15-2.03,6.27-4.37,12.96-7.76,19.42-2.13,4.07-4.63,7.39-7.64,10.17-1.09,1.01-2.21,1.86-3.34,2.54-.87.53-1.53.77-2.09.77-.85,0-1.49-.54-2.21-1.85-1.15-2.1-1.73-3.91-1.82-5.69-.11-2.19-.04-4.44.04-6.61v-.18c.06-1.65-.28-2.39-1.17-2.55-.09-.02-.17-.02-.26-.02-.82,0-1.5.71-1.89,1.96-.47,1.53-.76,3-.89,4.37-.41,4.61.54,8.75,2.84,12.29,1.29,1.99,3.02,3.01,5.13,3.01.9,0,1.87-.19,2.88-.56,1.76-.65,3.45-1.69,5.19-3.18,2.44-2.09,4.55-4.4,6.28-6.86,4.35-6.17,7.04-13.09,8.91-18.42,1.79-5.13,3.39-10.28,5.01-15.54,1.01-3.3,2.01-6.85,3.14-11.16.85-3.27,1.6-6.56,2.35-9.92.25-1.1.77-1.74,1.76-2.13,1.38-.55,2.81-1.11,4.13-1.88.91-.54,1.73-1.29,2.23-2.06.36-.55.43-1.18.2-1.73-.26-.61-.85-1.01-1.59-1.07-.09,0-.18-.01-.27-.01-.58,0-1.19.14-1.79.27-.26.06-.52.12-.78.17-.18.03-.37.11-.57.19-.3.12-.61.25-.97.25-.25,0-.48-.06-.72-.18l-.07-.04s.67-5.71.82-7.09c.35-3.1.72-6.3,1.14-9.44.45-3.38,1.02-7.37,1.79-11.41.46-2.43,1.45-4.39,2.94-5.83.93-.9,2.02-1.4,3.09-1.4,1.3,0,2.48.74,3.23,2.04.32.55.43,1.22.54,1.87l.03.18c.05.3.04.6.03.9,0,.22-.02.45,0,.66.07.88.5,1.34,1.3,1.44.07,0,.14.01.21.01.64,0,1.11-.35,1.32-.98.32-.96.64-1.99.71-3.01.34-4.68-4.13-7.78-7.24-7.79Zm96.05,32.37c4.4-1.36,7.82-2.91,10.78-4.89.48-.32.98-.66,1.37-1.08.45-.5.53-1.1.22-1.65-.26-.46-.64-.7-1.12-.7-.12,0-.26.02-.39.05-.51.12-1.02.24-1.52.4l-3.52,1.1c-1.85.58-3.7,1.16-5.55,1.73-.44.14-.9.23-1.41.34-.26.05-.98.21-.98.21v-1.11c0-.59,0-1.1.03-1.6.05-.88.11-1.75.17-2.63.06-.87.12-1.75.17-2.62.38-6.81.77-13.62,1.13-20.42l.04-.67c.08-1.38.16-2.8.04-4.17-.18-2.06-1.4-3.39-3.11-3.39-.79,0-1.64.29-2.46.85-1.33.9-2.53,2.01-3.46,3.19-1.85,2.36-3.78,5.01-6.06,8.35-1.17,1.71-2.31,3.45-3.44,5.19-1.7,2.6-3.45,5.28-5.3,7.84-6.79,9.36-15.42,17.98-27.16,27.11-1.96,1.52-4.11,2.84-6.2,4.11-.6.37-1.21.74-1.83,1.12-.5.31-1.06.66-1.76.66-.31,0-.61-.07-1-.3-.03-.15-.07-.32-.11-.49-.09-.39-.2-.84-.19-1.29.02-1.49.06-3.08.26-4.67.11-.88.3-1.76.49-2.61.13-.61.26-1.21.37-1.82.19-1.12-.1-1.76-.95-2.08-.27-.1-.53-.15-.79-.15-.65,0-1.21.33-1.63.94-.41.61-.86,1.33-1.03,2.06l-.26,1.13c-.53,2.26-1.08,4.6-1.33,6.91-.17,1.57.2,3.26.6,4.7.48,1.76,1.81,2.86,3.66,3.03.45.04.91.07,1.37.07.88,0,1.61-.1,2.23-.31,1.6-.53,3.3-1.32,5.19-2.39,3.83-2.18,7.26-4.85,11.23-8.2,12.45-10.49,21.85-21.43,28.74-33.45,1.52-2.64,3.21-5.24,4.86-7.75.65-.99,1.3-1.99,1.94-2.99.21-.33.48-.61.74-.89.12-.13.24-.25.35-.38l.07-.08.59.21v.1c-.56,5.08-.92,10.25-1.26,15.26-.34,4.98-.7,10.12-1.24,15.2v.1s-.99.3-.99.3c-.56.17-1.06.33-1.57.46-1.38.35-2.77.69-4.15,1.03-1.88.46-3.76.93-5.63,1.4-.78.2-1.54.41-2.2.77-.93.51-1.38,1.33-1.27,2.3.12,1.04.75,1.7,1.76,1.82.53.06,1.01.09,1.47.09.58,0,1.11-.05,1.59-.15,1.93-.41,3.88-.9,5.77-1.37.83-.21,1.66-.42,2.49-.62.42-.1.84-.19,1.31-.3l.84-.18.02.93c.02.5.03.92,0,1.35-.09,1.88-.2,3.75-.31,5.62-.21,3.77-.44,7.66-.55,11.49-.13,4.11-.09,8.29-.06,12.34l.02,2.04c0,.96.16,1.99.46,3,.33,1.11,1.34,1.4,2.12,1.46.07,0,.13,0,.19,0,.93,0,1.64-.46,2.07-1.34.23-.48.52-1.21.57-1.99.1-1.59.15-3.18.21-4.77.04-1,.07-2.01.12-3.01l.04-.97c.35-7.72.7-15.43,1.08-23.15.05-1.05.16-2.09.28-3.18.05-.51.11-1.02.16-1.54v-.1s.96-.34.96-.34c.57-.21,1.12-.41,1.67-.58Zm-281.6,38.78c-.25,0-.51.05-.78.16-.56.23-1.12.51-1.65.78-.4.2-.8.4-1.2.59l-.89.4c-1.78.81-3.63,1.64-5.47,2.39-.41.17-.92.34-1.48.34-.53,0-1.05-.15-1.57-.47l-.06-.04s.04-.47.06-.67c.03-.44.07-.88.15-1.31.11-.55.23-1.11.36-1.66.18-.77.36-1.57.48-2.36.22-1.41.95-2.16,2.52-2.59,1.31-.36,2.7-.95,4.13-1.75,1.05-.59,1.5-1.4,1.24-2.22-.2-.64-.64-.9-1.51-.9-.29,0-.62.03-1,.08-.28.04-.56.11-.85.17-.51.12-1.04.24-1.62.24-.25,0-.51-.02-.78-.08l-.13-.03.04-.13c.11-.39.22-.78.32-1.15.22-.82.42-1.6.73-2.34.57-1.4,1.24-2.79,1.88-4.13l.42-.87c.37-.78.52-1.43.04-2.06-.33-.44-.8-.68-1.33-.68-.21,0-.42.04-.63.11-1.06.39-1.8.83-2.26,1.35-.78.88-1.45,1.96-1.95,3.13-.95,2.24-1.84,4.59-2.63,6.99-.45,1.36-1.17,2.03-2.42,2.24-.87.14-1.79.32-2.67.59-1.31.41-1.96,1.28-1.81,2.45.14,1.12,1.01,1.79,2.37,1.79.41,0,.82-.03,1.31-.06l.96-.06-.03.16s-.34,1.69-.42,2.14c-.07.34-.14.68-.21,1.03-.16.79-.33,1.62-.42,2.43-.28,2.49.89,4.54,3.2,5.62.92.43,1.88.64,2.94.64.99,0,2.06-.19,3.26-.57,3.11-1,5.86-2.45,8.16-4.32.92-.74,1.69-1.74,2.46-2.78.49-.66.48-1.41-.03-2-.33-.38-.74-.57-1.21-.57Zm432.75-48.67c-.88-.41-1.74-.55-2.57-.39-.65.12-1.26.42-1.81.89-1.81,1.55-2.76,3.38-2.81,5.46-.06,1.95,1,3.67,2.57,4.18.61.2,1.25.24,1.88.12,1.12-.21,2.18-.92,2.98-1.99.87-1.17,1.3-2.57,1.4-4.53.2-1.96-.3-3.12-1.63-3.74Zm-122.57-2.97c-.39,0-.79.05-1.19.14-.93.22-1.86.6-2.69,1.1-3.04,1.85-5.25,4.34-6.57,7.39-.57,1.32-.93,2.81-1.03,4.31-.19,2.78,1.68,4.79,4.46,4.79.34,0,.69-.03,1.04-.09.43-.08,2.14-.4,2.14-.4v.15c0,.18,0,.34,0,.49,0,.3.01.56-.03.81-.31,1.85-.61,3.7-.91,5.55-.78,4.77-1.58,9.69-2.48,14.53-1.36,7.38-3.51,14.81-6.39,22.08-1.02,2.58-2.33,5.28-3.9,8.01-.85,1.47-2.03,2.78-3.18,4.05l-.42.46c-.82.91-1.64,1.37-2.46,1.37-.22,0-.44-.03-.65-.1-1.38-.43-1.47-1.85-1.53-3.01-.07-1.24-.02-2.49.16-3.71.63-4.16,2.38-8.17,5.53-12.61,1.31-1.86,2.72-3.69,4.07-5.47.79-1.04,1.59-2.08,2.37-3.12.71-.95,1.53-2.08,2.26-3.25.61-.99.58-1.26-.29-2.33-.11-.02-.21-.03-.31-.03-.66,0-1.14.47-1.61.93-.47.46-.95.91-1.42,1.36-1.23,1.18-2.51,2.39-3.66,3.68-3.97,4.42-8.8,10.46-10.98,18.08-1.18,4.14-1.28,7.3-.32,10.26,1,3.09,3.01,4.53,6.3,4.53h.12c1.36-.02,2.73-.47,4.19-1.38,1.83-1.14,3.26-2.5,4.25-4.04,1.38-2.13,2.95-4.61,4.17-7.16,2.24-4.67,3.67-9.48,5.17-14.83,1.92-6.83,3-13.9,4.04-20.73.26-1.68.51-3.35.78-5.03.51-3.17,1.1-6.38,1.68-9.48.24-1.27.47-2.54.7-3.82.05-.25.1-.57.28-.8.75-1.05,1.06-2.28,1.36-3.47.23-.93.47-1.89.92-2.77.21-.42.27-.94.32-1.47.29-2.73-1.65-4.96-4.31-4.96Zm-.12,4.36c-.04.26-.06.48-.08.68-.03.38-.06.68-.2.92-1.2,2.02-2.49,4.17-3.84,6.23-.51.78-1.29,1.19-2.24,1.19-.14,0-.29,0-.44-.03h-.07s-.02-.08-.02-.08c-.61-1.79.31-3.2,1.2-4.56l.25-.39c.97-1.52,2.45-3.37,5.29-4.12l.18-.05-.03.18Zm98.81-11.77c-.28-.16-.57-.24-.87-.24-.41,0-.81.15-1.2.44-.75.55-1.53,1.19-2.46,2-2.96,2.6-6.5,4.62-10.51,6.03-.37.13-.74.21-1.22.3-.25.05-.54.11-.86.18l-.11.03-.43-1.38c-.27-.88-.52-1.7-.81-2.51-.84-2.41-2.22-3.58-4.22-3.58-.74,0-1.59.17-2.51.5-.36.13-.72.24-1.09.35l-.67.21-.03-.12c-.07-.24-.13-.47-.18-.69-.11-.42-.2-.79-.35-1.12-.32-.7-.95-1.12-1.69-1.12-.61,0-1.19.3-1.6.82-.22.29-.36.67-.49,1.03l-.06.17c-1.05,2.83-2.09,5.66-3.11,8.49-.26.71-.51,1.47-.64,2.23-.15.91.22,1.67,1.06,2.14.4.22.8.34,1.2.34.51,0,.98-.18,1.4-.54.58-.5,1.05-1.19,1.43-1.8.98-1.55,2.24-3.32,4.12-4.62.39-.27.81-.49,1.29-.74.23-.12.48-.25.75-.4l.15-.08.26,1.05c.14.56.26,1.05.37,1.54.84,3.6,2.87,5.5,5.87,5.5h0c.96,0,2.02-.19,3.15-.58,2.14-.73,4.19-1.78,6.1-2.8,2.62-1.41,4.86-3.16,6.68-5.2,1.12-1.26,1.76-2.54,1.95-3.93.1-.74.09-1.48-.67-1.9Zm-475.57,46.71c-.33,0-.67.02-1.01.06-1.79.2-3.55.93-5.56,2.31-3.86,2.64-6.87,6.44-9.21,11.63-.47,1.04-.62,2.26-.71,3.19-.24,2.79,1.68,4.9,4.47,4.9.12,0,.24,0,.37-.01.64-.04,1.29-.19,1.92-.33l.58-.13c.33-.07.65-.15,1.07-.27l.97-.26-.16.83c-.06.34-.11.58-.17.82-.25.87-.5,1.73-.75,2.6-.44,1.52-.89,3.05-1.3,4.58-2.1,7.88-4.9,15.75-8.33,23.39-2.27,5.05-5.46,11.58-10.06,17.3-3.46,4.3-7.1,7.34-11.11,9.31-1.36.66-2.62,1.1-3.77,1.29-.45.08-.89.11-1.29.11-2.68,0-4.2-1.68-4.15-4.61.03-1.54.35-3.1.66-4.62.08-.39.16-.79.24-1.18.14-.69.33-1.38.51-2.04.16-.59.33-1.17.46-1.76.26-1.23.07-1.83-.71-2.19-.21-.1-.42-.15-.62-.15-.51,0-1.04.31-1.62.96-.09.11-.18.22-.27.34l-.1.12c-2.32,2.93-3.69,6.37-4.06,10.23-.47,4.92,2.12,9.11,6.46,10.42,1.07.33,2.2.49,3.34.49h0c1.71,0,3.53-.37,5.42-1.11,2.89-1.12,5.69-2.85,8.56-5.28,4.33-3.66,8.08-8.43,11.47-14.56,5.78-10.47,10.26-22.06,14.08-36.49,1.06-3.99,2.12-7.98,3.2-11.96.46-1.68,1.43-2.93,2.82-3.59,1.81-.87,3.14-2.36,4.21-4.7,1.3-2.85,1.11-5.19-.57-7.16-1.38-1.63-3.16-2.45-5.29-2.45Zm1.29,8.05l-.02.08-.08.03c-.25.1-.51.18-.78.27-.58.2-1.18.39-1.72.69-1.25.68-1.97,1.87-2.67,3.03-1.14,1.88-4.16,3.69-6.33,3.79h-.12s0-.12,0-.12c0-.05,0-.11-.02-.17-.02-.15-.03-.3.03-.44,1.83-3.99,4-6.76,6.85-8.69.82-.56,1.71-.97,2.55-1.18.3-.08.59-.11.85-.11.58,0,1.04.2,1.31.57.36.5.42,1.28.16,2.26Zm33.67,10.55c-.4,0-.85.22-1.29.43l-.24.11c-.59.27-1.16.56-1.74.85-.67.33-1.33.66-2.01.97-2.17.99-4.18,1.47-6.14,1.47-.14,0-.28,0-.42,0-1.47-.06-3.01-.33-4.58-.8-1.35-.41-2.18-1.44-2.39-2.97l-.02-.11.64-.25c.35-.13.67-.25.97-.4.66-.32,1.33-.64,2-.96,1.75-.83,3.56-1.69,5.27-2.66,1.9-1.08,3.46-2.48,4.65-4.18,1.85-2.63,1.37-5.57-1.18-7.29-1.43-.97-2.99-1.48-4.49-1.48-1.5,0-2.95.5-4.3,1.48-5.12,3.73-7.96,8.73-8.45,14.85-.32,4.05,2.11,7.63,5.91,8.71,1.82.52,3.65.78,5.42.78,3.89,0,7.69-1.25,11.3-3.73.95-.65,1.7-1.6,2.52-2.69.26-.35.33-1.14.13-1.41-.3-.42-1.01-.68-1.59-.71Zm-16.56-8.36c.09-.12.17-.24.24-.35,1.02-1.57,2.28-2.77,3.74-3.58.59-.33,1.01-.47,1.38-.47.65,0,1.18.44,1.87,1.19l.07.08-.07.1c-1.95,2.52-4.67,3.85-7.55,5.25l-.43.21-.02-.17c-.1-1.05.36-1.69.76-2.26Zm411.95-54.71c-.14-.02-.28-.04-.41-.04-.9,0-1.63.55-2.06,1.54-.08.18-.13.35-.16.53l-.33,1.69c-.59,3.01-1.19,6.02-1.76,9.03-.07.36-.06.77.01,1.3.13.87.55,1.41,1.26,1.58.16.04.33.06.49.06.58,0,1.11-.27,1.47-.75.47-.62.83-1.34,1-2.02.29-1.16.52-2.36.74-3.52.09-.48.18-.97.28-1.45l.1-.13.13-.61c.12-.58.23-1.15.34-1.73l.15-.81c.15-.8.32-1.63.38-2.44.1-1.2-.52-2.03-1.65-2.24Zm-402.3-37.51c.57-.43,1.14-1.05,1.69-1.85.48-.69.48-1.43,0-2.02-.27-.33-.61-.5-1.01-.5-.28,0-.6.08-.98.24-.49.21-.97.46-1.41.7-.58.31-1.15.64-1.72.97-1.2.7-2.44,1.41-3.73,1.95-2.59,1.07-5.36,2.02-8.23,2.84-.47.13-.83.2-1.14.2-1,0-1.41-.69-1.92-2.15l-.04-.11.72-.43c.41-.24.79-.47,1.17-.68,3.54-1.95,6.39-4.17,8.72-6.78.89-.99,1.51-1.84,1.96-2.68,1.41-2.61.99-5.4-1.08-7.28-.92-.83-1.97-1.26-3.14-1.26s-2.44.44-3.72,1.32c-4.27,2.91-7.03,6.38-8.42,10.61-.31.93-.59,1.86-.89,2.82l-.45,1.47s-.75.2-1.08.28c-.73.19-1.49.38-2.22.62-.92.31-1.44.99-1.45,1.92-.02.95.5,1.59,1.45,1.8.54.12,1.13.14,1.7.15.2,0,.8.02.9.02.2,0,.4,0,.6-.01h.52s.21.36.21.36c.12.2.23.39.31.59,1.01,2.67,3.03,4.08,5.84,4.08.71,0,1.47-.09,2.25-.28,5.23-1.24,10.14-3.55,14.57-6.88Zm-17.81-5.57c.25-3.27,4.05-7.92,7.26-8.88l.08-.02.05.06c.9,1.08,1.01,1.61-.03,2.79-1.1,1.24-2.36,2.48-3.97,3.9-.64.56-1.35,1.03-2.1,1.53-.35.23-.71.47-1.08.73l-.22.16.02-.26Z"/>
</svg>