<?xml version="1.0" encoding="UTF-8"?>
<svg xmlns="http://www.w3.org/2000/svg" viewBox="0 0 428 260">
  <defs>
    <style>
      .cls-1 {
        fill: none;
      }

      .cls-1, .cls-2 {
        stroke-width: 0px;
      }

      .cls-2 {
        fill: #e66751;
      }
    </style>
  </defs>
  <g id="board">
    <rect class="cls-1" width="428" height="260"/>
  </g>
  <g id="text">
    <path class="cls-2" d="m124,173.76c.52-.5.65-1.12.35-1.6-.21-.33-.59-.53-1.03-.53-.23,0-.47.05-.7.16-.52.24-1.05.57-1.57.98-3.63,2.83-6.31,6.18-7.98,9.95-1.78,4.01-1.56,7.48.66,10.6.06.09.12.18.18.28.05.08.09.15.14.22,2.26,3.3,2.63,7,1.12,11.33-1.25,3.6-3.33,6.77-6.36,9.69-5.96,5.75-13.2,10.25-22.14,13.75-2.28.9-4.35,1.38-6.31,1.49-.23.01-.45.02-.75.03-.25,0-.51.02-.76.03-.59.04-.99.28-1.2.74-.24.52.03.95.33,1.3.67.8,1.66,1.09,2.59,1.32h.2c.18.01.37.02.55.02h.13c2.04,0,4.17-.45,6.73-1.41,8.13-3.06,15.42-7.41,21.67-12.95,4.79-4.24,7.83-8.8,9.3-13.96,1.32-4.62.87-8.67-1.37-12.37l-.21-.36c-.25-.42-.51-.85-.8-1.24-1.55-2.06-1.75-4.44-.61-7.29,1.23-3.09,3.25-5.92,6.17-8.67.24-.22.48-.44.77-.69.31-.27.61-.54.9-.83Zm-55.53-100.97c-2.59,0-5.04.92-7.09,2.65-.74.62-1.1,1.4-.98,2.14.13.79.03,1.56-.06,2.3-.04.31-.08.62-.1.93-.1,1.34.33,2.58,1.2,3.51.82.87,1.97,1.37,3.23,1.4h.12c1.14,0,2.27-.41,3.55-1.3,1.88-1.3,3.33-2.89,4.3-4.7.49-.91.77-1.74.84-2.46.23-2.27-1.52-4.02-4.44-4.44-.19-.01-.38-.02-.56-.02Zm1.86,3.81l.02.08v.04c-.06.18-.1.33-.15.54-.07.3-.13.54-.25.75-1.06,1.84-2.38,3.16-4.06,4.05-.41.22-.78.33-1.09.33-.64,0-1.07-.45-1.29-1.33-.39-1.61.92-3.99,2.51-4.56.86-.31,1.83-.38,2.75-.42h.04s0,0,0,0c.31,0,.62.14.94.28.16.07.33.15.58.24Zm-3.49-32.43c1.18-2.06,2.19-3.94,2.55-6.05.24-1.42-.05-2.7-.82-3.58-.7-.81-1.76-1.25-2.99-1.25-.47,0-.96.06-1.46.19-1.03.26-2.12.73-3.43,1.49-2.38,1.39-4.39,3.26-6.09,4.9-4.2,4.06-8.03,9.04-11.69,15.21-1.31,2.21-2.6,4.52-3.74,6.56l-.13.23c-.75,1.33-1.49,2.67-2.25,3.99-.32.55-.7,1.16-1.24,1.46-2.69,1.46-6.31,3.18-10.41,3.49-.35.03-.7.04-1.05.04-.64,0-1.21-.05-1.73-.16-2.32-.49-3.97-2.51-4.2-5.16-.12-1.32.11-2.68.7-4.16,1.51-3.82,3.65-7.46,6.35-10.83.33-.41.6-.86.77-1.29.22-.57.08-1.09-.4-1.48-.29-.23-.61-.35-.94-.35-.27,0-.53.08-.79.23-.46.27-.9.64-1.27,1.08-3.76,4.4-6.3,8.69-7.78,13.13-1.05,3.16-.75,6.12.89,8.81,1.35,2.2,3.28,3.51,5.9,3.99.88.16,1.81.25,2.75.25,1.86,0,3.8-.31,6.12-.97l2.32-.68s-.27.66-.35.86c-.12.3-.22.54-.33.77l-12.1,23.81c-4.79,9.42-9.58,18.85-14.36,28.28-1.55,3.06-3.09,6.18-4.57,9.3-.41.87-.69,1.81-.96,2.74l-.05.16c-.14.48.03.92.48,1.16.2.11.4.16.6.16.3,0,.58-.12.85-.35.38-.32.65-.62.85-.92.39-.59.8-1.18,1.21-1.77l.06-.09c1.03-1.48,2.09-3.01,2.92-4.6,5.67-10.78,11.84-22.62,18.84-36.21,3.25-6.31,6.51-12.76,9.65-19l3.21-6.35c.31-.61.73-1.29,1.54-1.77,5.13-3.02,9.68-6.67,13.07-9.5,5.79-4.84,10.21-10,13.51-15.76Zm-21.69,17.1c-.17.12-.36.2-.6.3-.07.03-.14.06-.22.09l-.15.02-.1-.15v-.04s.04-.02.04-.02c.02-.07.04-.14.07-.25.05-.18.11-.38.21-.56,3.81-6.84,7.24-11.77,11.11-15.99,2.62-2.85,4.85-4.81,7.22-6.33l.25-.16c.55-.37,1.12-.74,1.87-.74.08,0,.17,0,.32.02l.04.06v.03c.19.8-.13,1.48-.43,2.13-1.71,3.68-4.02,7.14-7.08,10.59-3.78,4.26-8.27,7.81-12.57,11.01Zm37.56,20.84c.44.24.9.35,1.41.35s1.02-.11,1.64-.33c1.36-.49,2.44-1.37,3.4-2.26.2-.19.41-.37.67-.61l.51-.4.42.52c.25.31.47.58.69.85.86,1.02,1.86,2.04,3.27,2.51.61.2,1.35.32,2.27.35h.06c.59,0,1.04-.29,1.19-.79.15-.48-.06-.88-.64-1.25-.38-.24-.72-.43-1.06-.58-.86-.39-1.59-.96-2.23-1.72-1.16-1.39-2.11-2.69-2.08-4.51.01-.68-.63-1.14-1.26-1.19-.04,0-.09,0-.13,0-.67,0-1.24.41-1.48,1.06-.06.17-.1.34-.14.52-.03.14-.06.27-.1.41l-.06.21c-.07.25-.14.51-.29.73-.95,1.36-2.16,2.43-3.6,3.16-.14.07-.3.09-.46.11-.05,0-.11.01-.22.04l-.06-.05v-.03c-.58-1.38.06-3.71,1.32-4.78.61-.52.8-1.03.58-1.54-.21-.48-.82-.84-1.46-.84-.09,0-.18,0-.28.02-.66.11-1.22.44-1.6.96-1.66,2.24-2.31,4.43-1.97,6.71.16,1.06.72,1.85,1.67,2.37Zm.61,71.47c1.96-4.02,3.92-8.04,5.86-12.06,2.01-4.18,3.79-8.47,5.29-12.75.55-1.59,1.08-3.18,1.61-4.77.47-1.41.94-2.82,1.43-4.23l.27-.8c.55-1.64,1.12-3.33,2.22-4.81.18-.25.29-.57.38-.85.25-.8.06-1.42-.54-1.75-.25-.14-.52-.21-.8-.21-.45,0-.89.19-1.24.53-.39.37-.69.75-.89,1.13-.87,1.6-2.18,2.85-3.35,3.89-2.96,2.65-6.12,4.87-9.42,6.6-1.59.84-3.28,1.55-5.04,2.12-1.11.36-2.42.55-3.8.56-1.22,0-2.16-.38-2.72-1.11-.53-.7-.65-1.65-.33-2.75.28-.97.77-1.96,1.42-2.88,2.1-2.97,4.34-5.46,6.86-7.62.55-.47.68-.94.41-1.45-.21-.38-.54-.58-.93-.58-.16,0-.33.03-.51.1-.44.16-1.07.45-1.59.9-3.16,2.77-5.49,5.3-7.33,7.95-.83,1.2-1.39,2.46-1.65,3.74-.58,2.79.7,5.37,3.18,6.41.91.38,2.07.62,3.34.69.19.01.38.02.57.02,2.35,0,4.56-.79,6.6-1.64,3.45-1.44,6.45-3.53,8.94-5.39.24-.18.49-.36.8-.57l.74-.52s-.1.57-.13.75c-.03.23-.06.41-.12.59l-.15.43c-.26.77-.53,1.56-.84,2.33-.44,1.08-.86,2.16-1.29,3.24l-.18.44c-1.18,3-2.4,6.11-3.79,9.1-2.08,4.48-4.32,8.98-6.5,13.38-1.05,2.12-2.1,4.24-3.15,6.37l-2.08,4.24c-2.44,4.97-4.95,10.11-7.37,15.18-2.36,4.95-4.56,9.79-6.97,15.14-1.17,2.58-2.28,5.23-3.35,7.8l-.31.75c-.17.4-.27.89-.31,1.48-.05.69.25,1.16.87,1.38.24.08.47.13.7.13.44,0,.82-.17,1.13-.5.41-.45.76-.96,1.02-1.48,1.84-3.86,3.81-8.02,6.18-13.09,1.14-2.43,2.27-4.87,3.4-7.3,2.12-4.56,4.31-9.28,6.53-13.92,2.25-4.69,4.57-9.45,6.81-14.05l.13-.28Zm20.9-9.44c.21,0,.43-.02.66-.06.57-.1,1.09-.26,1.52-.48,2.21-1.15,3.96-2.82,5.21-4.97.97-1.67.52-3.36-1.17-4.4-.38-.24-.78-.43-1.19-.56-.71-.24-1.54-.5-2.36-.67-.26-.05-.52-.08-.75-.08s-.46.03-.65.08c-.68.2-1.35.55-1.94.86-.69.36-1.07.89-1.17,1.63-.07.51-.2,1.05-.42,1.75-.15.46-.32.91-.49,1.36l-.22.56c-.22,1.1-.19,2.05.1,2.9.44,1.29,1.52,2.07,2.89,2.07Zm1.49-8.17c.3-.05.58-.08.85-.08.95,0,1.77.33,2.56,1.05v.08s-.03.03-.03.03c-1.03,1.74-2.44,3.03-4.39,3.98l-.07-.04-.02-.03c-.76-1.01-.34-2.96,1.1-4.99Zm114.24-93.95c.23,0,.47-.05.73-.14l.36-.12c.92-.32,1.87-.65,2.84-.87,1.79-.4,3.69-.59,5.81-.59.36,0,.73,0,1.09.02,2.14.06,4.1.64,5.82,1.71,2.59,1.62,3.32,4.18,2.01,7.03-.98,2.12-2.69,3.66-4.24,4.89-.93.74-1.89,1.11-3.01,1.17-2.35.12-4.67.77-6.9,1.96-.43.23-.83.48-1.19.75-.68.51-.95,1.17-.79,1.89.17.74.75,1.17,1.6,1.17,1.06,0,1.98-.09,2.8-.26,2.09-.45,4.15-1.23,6.1-2.3.41-.22.8-.33,1.2-.33.37,0,.75.1,1.17.29,1.2.57,1.9,1.55,2.06,2.91.13,1.08-.06,2.22-.58,3.51-.87,2.14-2.29,3.98-4.24,5.47-4.16,3.19-9,5.29-14.4,6.24-.76.14-1.58.26-2.4.26-.83,0-1.56-.13-2.23-.39-.11-.04-.22-.06-.33-.06-.25,0-.5.11-.72.34-.37.37-.29.76-.16,1.02.15.29.34.57.56.8.48.5,1.13.81,1.98.94.53.08,1.07.12,1.66.12,1.02,0,2.1-.12,3.5-.39,4.46-.85,8.77-2.62,12.82-5.26,1.1-.72,2.2-1.63,3.36-2.77,2.53-2.51,3.96-5.39,4.26-8.56.24-2.58-.66-4.63-2.69-6.09-.12-.09-.24-.18-.39-.29l-.34-.32.51-.49c.27-.26.51-.49.75-.72,1.33-1.25,2.32-2.54,3.03-3.95,1.57-3.13,1.52-5.91-.16-8.51-.91-1.41-2.32-2.51-4.3-3.37-1.93-.83-4.04-1.25-6.37-1.25-3.6.01-6.68.55-9.42,1.65-.58.23-1.18.64-1.8,1.22-.46.43-.43,1.06-.14,1.39.17.19.44.3.77.3Zm9.94,84.79c.33-.13.67-.25,1.03-.38.75-.27,1.53-.55,2.24-.92,1.64-.85,2.95-1.93,3.89-3.21,1.04-1.42,1.01-3-.09-4.14-.76-.79-2.27-1.58-3.93-1.58-1.06,0-2.03.31-2.87.93-1.12.82-1.94,1.69-2.52,2.66-1.03,1.72-1.63,3.34-1.85,4.95-.2,1.42-.13,2.57.2,3.62.61,1.89,1.87,2.95,3.74,3.15.54.06,1.09.09,1.61.09h0c3.1,0,5.98-1.03,8.56-3.05.44-.34.79-.81,1.13-1.26,0,0,.22-.29.31-.4.35-.44.35-.89.02-1.28-.19-.23-.43-.34-.7-.34-.19,0-.4.06-.62.17-.57.29-1.15.63-1.83,1.09-1.96,1.31-4.25,1.95-7.23,2-1.09,0-1.62-.52-1.75-1.75v-.1s.26-.09.26-.09c.13-.04.27-.09.4-.14Zm-.14-3.68c.38-1.39,1.11-2.41,2.22-3.13.33-.21.67-.32.99-.32.43,0,.86.19,1.32.61v.08s-.03.03-.03.03c-.91,1.42-2.91,2.74-4.37,2.88l-.16-.04.03-.11Zm14.11,4.36c.21.09.42.14.63.14.35,0,.68-.13.99-.38.34-.28.61-.67.84-1.01,1.75-2.62,3.33-4.45,5.15-5.93.56-.46,1.04-.9,1.47-1.34.44-.46.52-.85.26-1.26-.22-.36-.54-.43-.77-.43-.13,0-.26.02-.39.07-.87.3-1.73.69-2.53,1.07-.25.12-.49.29-.79.51-.16.12-.35.25-.56.4l-.22.15v-.09s.11-1.06.12-1.2c.01-.14.04-.29.06-.43.04-.29.09-.58.08-.86-.01-.5-.31-.88-.82-1.04-.13-.04-.25-.06-.37-.06-.44,0-.75.27-.94.5-.25.32-.45.73-.54,1.14-.58,2.6-1.37,5.18-2.35,7.66-.12.31-.2.66-.22,1.02-.04.64.27,1.11.9,1.39Zm-35.24-50.61c.19.11.39.17.6.17.37,0,.74-.17,1.08-.49.25-.23.48-.53.7-.89.82-1.33,1.65-2.66,2.47-3.98l.46-.73c2.39-3.84,4.86-7.8,7.18-11.76,2.2-3.75,4.33-7.62,6.38-11.36l.04-.08c.89-1.63,1.79-3.26,2.69-4.89.11-.2.18-.35.22-.5.14-.47.03-.84-.3-1.11-.21-.17-.45-.25-.68-.25-.17,0-.34.05-.5.14-.34.2-.81.52-1.12.94-.52.69-1.04,1.49-1.58,2.43-1.2,2.06-2.39,4.13-3.57,6.19l-.35.61c-2.05,3.55-4.16,7.22-6.27,10.82-1.57,2.67-3.25,5.41-4.72,7.82-.82,1.34-1.65,2.69-2.46,4.04-.2.33-.37.67-.51.94l-.13.25c-.23.87-.11,1.41.37,1.71Zm38.36-9.75c.32.07.68.08,1.02.08,0,0,.51.01.55.01.12,0,.24,0,.37,0h.35s.14.24.14.24c.07.12.14.22.18.34.61,1.53,1.82,2.34,3.5,2.34.43,0,.88-.05,1.36-.16,3.17-.72,6.14-2.06,8.82-3.99.34-.25.69-.61,1.02-1.07.28-.39.28-.8,0-1.12-.16-.18-.35-.27-.58-.27-.17,0-.35.04-.58.14-.29.12-.58.26-.85.4-.35.18-.69.37-1.04.57-.73.4-1.48.82-2.27,1.13-1.58.62-3.26,1.18-5,1.65-.29.08-.51.12-.7.12-.63,0-.89-.41-1.2-1.28l-.04-.1.47-.27c.25-.14.48-.28.71-.4,2.14-1.13,3.87-2.42,5.28-3.93.54-.57.91-1.07,1.18-1.55.84-1.5.6-3.1-.64-4.18-.55-.48-1.18-.72-1.87-.72s-1.46.26-2.23.76c-2.58,1.69-4.25,3.7-5.09,6.14-.19.54-.36,1.08-.54,1.64l-.31.88-.69.17c-.44.11-.88.21-1.31.35-.54.17-.84.56-.85,1.08,0,.53.29.89.85,1.01Zm5.46-4.35c.15-1.91,2.47-4.63,4.44-5.2h.05s.06.01.06.01l.02.02c.55.64.63.97-.02,1.68-.67.72-1.43,1.45-2.41,2.27-.39.33-.82.6-1.28.89l-.07.05c-.19.12-.38.24-.58.38l-.21.14.02-.24Zm-86.58,14.46c.51,0,1.04-.1,1.59-.31.95-.35,1.86-.93,2.86-1.81.18-.16.38-.32.61-.51l.48-.31.24.52c.12.27.22.49.34.7l.26.49c.26.49.52.99.87,1.43.34.43.88.75,1.31.98.13.07.28.11.42.11.23,0,.45-.09.64-.27.31-.28.39-.63.24-1.02-.16-.41-.35-.82-.53-1.22l-.09-.2c-.88-1.92-1.67-3.81-1.75-5.92,0-.2-.06-.41-.16-.6-.26-.53-.68-.78-1.29-.78-.6.01-1.09.39-1.27.98-.06.19-.08.39-.11.62-.02.2-.05.41-.11.61l-.05.19c-.11.4-.23.82-.52,1.1-.7.67-1.51,1.35-2.56,2.12-.24.18-.55.26-.85.34-.13.03-.26.07-.45.13l-.06-.03-.02-.02c-.55-.64-.49-1.19-.36-1.76.31-1.4,1.03-2.7,2.22-3.97.66-.71,1.39-1.41,2.44-1.41.22,0,.44.03.67.09.06.01.12.02.17.02.28,0,.54-.18.64-.45.1-.29.09-.68-.03-.98-.08-.21-.4-.39-.63-.51-.44-.22-.9-.34-1.37-.34-.67,0-1.36.23-2.1.69-1.77,1.11-3.11,2.68-4.11,4.78-.61,1.29-.84,2.46-.71,3.58.21,1.79,1.43,2.94,3.12,2.94Zm-45.57,63.81c.54,0,1.12-.13,1.71-.37.8-.34,1.54-.86,2.26-1.36.27-.19.54-.38.81-.56.22-.15.41-.32.65-.54.11-.1.22-.2.34-.31l.14-.06.35.44c.14.18.27.34.4.51,1.11,1.52,2.52,2.53,4.21,3.02.62.18,1.24.27,1.84.27,1.37,0,2.67-.47,3.86-1.41.56-.44.74-.87.55-1.32-.16-.4-.45-.56-.97-.56-.11,0-.22,0-.35.02-.71.07-1.42.16-2.13.27-.18.03-.35.04-.52.04-.64,0-1.26-.19-1.83-.55-1.66-1.05-2.56-2.5-2.66-4.29v-.2c-.02-.24-.03-.49-.08-.73-.12-.61-.49-.99-1.1-1.13-.17-.04-.33-.06-.48-.06-.47,0-.88.19-1.21.56-.26.28-.47.62-.71.99-.83,1.3-1.89,2.39-3.15,3.26-.31.21-.63.38-1.03.59-.16.08-.32.17-.49.26l-.14.03-.03-.08c-.54-1.19-.33-2.13-.02-2.98.12-.31.26-.61.4-.91.09-.18.17-.36.25-.55.19-.45.11-.85-.24-1.18-.21-.2-.45-.3-.71-.3-.17,0-.35.04-.53.13-.44.21-.76.45-.94.69-1.39,1.88-1.89,3.71-1.51,5.59.34,1.75,1.49,2.8,3.07,2.8Zm9.47-55.96h.16c1.53,0,3.11-.26,4.97-.81,4.02-1.2,7.8-3.23,11.58-6.21,2.88-2.27,5.12-4.49,6.84-6.79.52-.69.87-1.55,1.12-2.22.2-.56.03-1.13-.49-1.62-.26-.25-.58-.38-.9-.38-.45,0-.83.27-1.02.73-.42,1.03-1.16,1.81-1.89,2.57-.28.29-.57.58-.87.86l-.06.06c-4.04,3.89-8.29,6.71-12.98,8.61-2.37.96-4.23,1.41-6.06,1.46-.08,0-.17,0-.25,0-2.11,0-3.32-.85-3.93-2.75-.26-.83-.4-1.72-.4-2.57,0-.79.09-1.58.19-2.37v-.1c.05-.31.08-.62.12-.94.89-3.68,2.43-7.17,4.58-10.37,4.1-6.11,9.75-10.75,16.78-13.8,1.44-.63,3.02-1.07,4.56-1.5.63-.18,1.28-.26,1.94-.26.58,0,1.18.07,1.77.21,1.23.29,1.96.87,2.3,1.84.11.32.25.56.42.73.18.18.41.28.65.28.38,0,.71-.24.86-.62.1-.25.1-.53.09-.73-.11-1.66-.78-2.78-2.04-3.43-.93-.48-1.83-.81-2.68-.99-.55-.12-1.14-.18-1.75-.18-.93,0-1.96.14-3.15.42-3.09.74-6.09,1.96-8.91,3.62-6.39,3.76-11.09,8.18-14.37,13.52-2.66,4.32-4.26,8.39-4.89,12.43-.38,2.44-.27,4.41.35,6.2,1.14,3.29,3.69,5.05,7.38,5.09Zm69.71,47.26c.29.14.57.22.84.22.33,0,.64-.11.91-.33.36-.28.71-.65,1-1.05.28-.39.54-.8.83-1.25.22-.34.44-.68.67-1.02.82-1.18,1.9-2.17,3.48-3.2l.18-.04.27,1.55c.05.29.1.59.14.91.09.63.19,1.28.37,1.89.49,1.68,1.54,2.45,3.41,2.53.08,0,.16,0,.24,0,.53,0,1.03-.07,1.46-.2l.14-.04c.91-.27,1.86-.55,2.67-1.01,1.8-1.02,3.55-2.17,5.02-3.16.89-.6,1.61-1.41,2.08-2.36.26-.51.22-.89-.1-1.19-.19-.18-.41-.27-.65-.27-.18,0-.38.05-.6.15-.23.1-.45.22-.66.34-.27.16-.54.33-.84.51-.44.27-.89.54-1.34.79l-.64.36c-1.24.69-2.52,1.41-3.81,2.07-.67.34-1.49.69-2.52.69-.11,0-.22,0-.39-.02l-.04-.05v-.03c-.05-.13-.11-.26-.16-.4-.11-.3-.23-.6-.3-.92-.07-.36-.13-.72-.19-1.15-.06-.41-.12-.87-.22-1.31-.17-.76-.36-1.3-.6-1.76-.44-.81-1.16-1.23-2.07-1.23-.23,0-.49.03-.75.08-.24.05-.48.11-.72.16l-.44.08-.23-.22c-.1-.1-.19-.18-.29-.25-.31-.23-.63-.35-.94-.35-.42,0-.82.23-1.15.66-.17.23-.29.51-.37.72-.67,1.75-1.59,3.33-2.75,4.7-.42.5-.81,1.04-1.13,1.6-.23.4-.41.85-.51,1.31-.14.66.1,1.18.7,1.48Zm-18.49-57.66c.25,0,.51-.06.77-.17.38-.17.72-.44,1.04-.71.29-.25.57-.52.88-.81.22-.21.45-.43.68-.63.22-.19.45-.37.71-.56l.53-.34.33.61c.16.3.31.57.46.83.76,1.31,1.72,1.95,2.93,1.95.57,0,1.2-.15,1.88-.44,2.78-1.18,5.09-2.88,6.86-5.05.38-.46.63-1.03.84-1.58.14-.37.22-.88-.25-1.2-.22-.16-.46-.23-.71-.23-.27,0-.54.09-.81.27-.55.37-1.05.76-1.47,1.16-1.44,1.34-3.06,2.45-4.82,3.32-.26.13-.53.23-.83.35l-.56.18-.27-.41c-.17-.26-.32-.49-.46-.72-.08-.14-.16-.28-.25-.44-.12-.21-.23-.42-.37-.61-.54-.74-1.2-1.12-1.98-1.12-.43,0-.89.12-1.38.34-.2.1-.4.19-.65.31l-.5.18v-.11c-.02-.19-.02-.38-.03-.58-.01-.38-.03-.74-.08-1.09-.08-.5-.47-.87-.98-.94-.04,0-.09,0-.13,0-.44,0-.89.27-1.12.67-.13.23-.2.49-.28.75l-.02.08c-.33,1.17-.67,2.34-.98,3.52l-.08.28c-.12.42-.25.9-.3,1.37-.04.46.09.88.37,1.17.26.27.63.42,1.03.42Zm174.01,59.27c.32-.94.14-1.6-.52-1.98-.24-.14-.5-.2-.77-.2-.1,0-.19,0-.29.03-.35.06-.69.24-.98.51-.34.31-.63.69-.82,1.06l-.06.11c-.46.89-.94,1.81-1.29,2.76-1.13,3.09-2.3,6.28-3.36,9.51-2.71,8.26-5.35,16.52-7.58,23.5-.82,2.56-1.28,4.89-1.45,7.31.01.09.02.21.03.33.02.33.05.75.18,1.12.17.5.58.81,1.05.81.06,0,.13,0,.19-.02.31-.06.6-.25.81-.54.41-.56.75-1.26,1.04-2.07.35-1,.67-2.05.96-2.98.19-.63.39-1.26.59-1.88,3.34-10.28,6.69-20.56,10.05-30.84.45-1.37.91-2.73,1.38-4.1,0,0,.57-1.67.84-2.45Zm-32.32,41.8c-.17-.09-.35-.14-.54-.14-.25,0-.5.09-.75.26-.48.34-.98.73-1.58,1.23-1.91,1.6-4.19,2.85-6.77,3.72-.24.08-.48.13-.85.2-.15.03-.31.06-.5.1l-.11.03-.3-.92c-.17-.53-.33-1.02-.51-1.51-.53-1.46-1.4-2.17-2.67-2.17-.48,0-1.01.1-1.6.31-.23.08-.46.15-.71.22l-.48.1-.02-.07c-.04-.15-.08-.29-.12-.43-.07-.26-.13-.48-.22-.68-.2-.42-.59-.67-1.05-.67-.38,0-.74.18-.99.49-.14.17-.23.4-.31.62l-.04.1c-.67,1.74-1.34,3.49-2,5.23-.16.44-.33.9-.41,1.37-.09.54.14.99.66,1.27.25.14.5.2.75.2.32,0,.61-.11.87-.32.37-.3.67-.73.92-1.1.63-.96,1.44-2.05,2.66-2.86.26-.17.54-.31.84-.46.15-.07.31-.15.48-.24l.16-.02.17.65c.09.35.17.65.24.95.53,2.2,1.83,3.36,3.74,3.36.61,0,1.29-.12,2.01-.35,1.37-.45,2.69-1.09,3.91-1.72,1.67-.86,3.12-1.94,4.29-3.19.71-.77,1.12-1.55,1.24-2.4.06-.44.05-.88-.41-1.13Zm.31-68.31c-.2-.09-.42-.14-.63-.14-.47,0-.9.22-1.22.63-.24.3-.46.67-.66,1.13-1.17,2.62-2.18,5.4-3.08,8.48-.04.2-.09.39-.13.59-.09.39-.17.75-.22,1.12-.07.67.25,1.19.84,1.38.11.03.23.05.36.05.52,0,1.05-.3,1.32-.75.24-.4.41-.84.59-1.32l.17-.45c.67-1.75,1.34-3.49,1.98-5.24.52-1.42.95-2.7,1.33-3.91.22-.71-.02-1.3-.63-1.58Zm-32.5,62.32c-.31-.51-1.07-.86-1.84-.86-.14,0-.29.01-.43.04-.79.15-1.35.73-1.5,1.56-.13.6.02,1.05.44,1.37.21.15.42.23.66.23.22,0,.45-.06.72-.2.25-.12.52-.21.81-.3.16-.05.33-.11.49-.17.37-.14.64-.39.76-.68.13-.31.09-.66-.11-.99Zm32.91-73.56c-.11-.02-.23-.03-.34-.03-.48,0-.92.18-1.24.51-.32.33-.48.78-.44,1.27.07.78.44,1.51,1.06,2.12.28.28.66.44,1.06.44.46,0,.89-.2,1.18-.56.69-.88.67-1.64.53-2.12-.23-.78-.94-1.42-1.82-1.62Zm-29.79,80.95c-.09-.02-.17-.02-.26-.02-.56,0-1.02.33-1.28.92-.05.11-.08.21-.1.32l-.21,1.04c-.38,1.86-.76,3.71-1.13,5.57-.04.21-.04.46,0,.79.08.52.34.84.78.94.1.02.2.04.3.04.36,0,.69-.16.91-.44.3-.38.53-.82.64-1.23.19-.73.34-1.49.47-2.17l.19-.91.06-.07.08-.38c.08-.35.15-.71.22-1.06l.1-.5c.1-.49.2-1,.24-1.5.06-.71-.32-1.21-1.02-1.33Zm7.47-62.9h.66s-.02.11-.02.11c0,0-.22,1.04-.27,1.32-.04.2-.08.4-.14.64-.1.48-.21.99-.27,1.48-.18,1.52.56,2.76,2.03,3.42.59.26,1.2.39,1.87.39.63,0,1.32-.12,2.08-.35,1.99-.61,3.76-1.51,5.24-2.65.59-.46,1.08-1.07,1.57-1.7.3-.39.3-.83-.02-1.18-.2-.22-.45-.34-.75-.34-.16,0-.32.03-.49.1-.36.14-.72.31-1.11.5-.24.12-.48.23-.72.34l-.64.28c-1.12.49-2.29.99-3.45,1.45-.27.1-.6.21-.97.21s-.69-.1-1.03-.3l-.06-.04.04-.44c.02-.27.04-.55.1-.81.07-.34.15-.68.24-1.06.11-.46.22-.94.3-1.41.14-.89.62-1.36,1.65-1.63.84-.22,1.73-.58,2.65-1.07.65-.35.94-.83.77-1.32-.12-.37-.39-.52-.93-.52-.18,0-.39.02-.64.05-.18.03-.36.07-.54.11-.33.07-.67.15-1.05.15-.18,0-.35-.02-.51-.05l-.11-.07.03-.08c.07-.24.14-.48.2-.71.14-.51.27-.98.47-1.45.37-.87.8-1.72,1.21-2.55l.27-.54c.23-.47.32-.85.03-1.23-.2-.26-.49-.4-.82-.4-.13,0-.26.02-.39.07-.68.23-1.15.5-1.44.82-.5.54-.93,1.2-1.24,1.92-.62,1.39-1.19,2.83-1.69,4.3-.29.85-.77,1.27-1.59,1.41-.52.08-1.13.19-1.71.36-.82.25-1.23.77-1.13,1.46.09.68.63,1.06,1.48,1.06.26,0,.52-.02.84-.04Zm57.17,73.04l-.31-.21c-.2-.14-.39-.27-.6-.39-.36-.2-.72-.3-1.08-.3-.11,0-.22,0-.32.03-.53.09-1,.42-1.35.95-.54.81-.79,1.73-.73,2.66.09,1.46,1.09,2.44,2.49,2.44h.03c.16,0,.32-.02.47-.04,1.12-.2,2.06-1.03,2.44-2.17.45-1.34.15-2.2-1.05-2.98Zm18.9-54.31c-.18-.06-.37-.08-.55-.08-.1,0-.21,0-.31.03-.58.1-1.1.51-1.45,1.13-.21.39-.41.82-.6,1.37-3.21,9.08-7.02,18.19-10.34,26.01-1.93,4.56-3.71,9.19-5.2,13.13-.4,1.05-.66,2.17-.91,3.24-.11.47-.22.95-.38,1.37l.18.07v.34c0,.14-.01.27,0,.4.02.56.29.94.81,1.12.11.04.22.06.34.06.06,0,.12,0,.17-.02.24-.04.5-.18.78-.42.26-.22.55-.49.73-.79l.24-.4c.44-.73.89-1.48,1.22-2.26,3.2-7.58,6.37-15.18,9.55-22.77,1.99-4.77,4.52-11.09,6.43-17.65.15-.51.33-1.18.42-1.85.13-.93-.36-1.81-1.13-2.04Zm-41.27-15.5c.8.24,1.6.36,2.39.36h0c1.82,0,3.62-.65,5.34-1.92.12-.09.24-.21.32-.32.22-.3.28-.64.17-.92-.11-.28-.39-.47-.75-.52-.13-.01-.25-.02-.38-.02-.38,0-.78.06-1.21.12-.4.06-.8.13-1.21.2-.47.09-1.01.18-1.54.25-.16.02-.31.03-.46.03-1.19,0-1.82-.55-2.14-1.01-.48-.7-.59-1.68-.26-2.56.56-1.54,1.37-2.76,2.48-3.73.23-.2.48-.38.76-.56.12-.08.44-.31.44-.31l.36.25c.14.1.27.19.39.27.24.15.5.23.74.23s.47-.08.65-.24c.22-.19.35-.48.38-.84.11-1.25-.71-2.3-2-2.55-.22-.04-.45-.07-.66-.07-.71,0-1.43.23-2.13.68-3.06,1.96-4.81,4.56-5.2,7.73-.3,2.43,1.22,4.78,3.54,5.47Zm2.15,69.84c-.41-.18-.81-.28-1.2-.28-.14,0-.29.01-.43.04-.41.07-.8.26-1.14.54-1.15.94-1.76,2.06-1.79,3.33-.04,1.18.63,2.23,1.62,2.53.24.08.49.11.74.11.15,0,.3-.01.44-.04.71-.13,1.38-.56,1.89-1.21.56-.71.83-1.57.89-2.77.13-1.19-.19-1.89-1.02-2.26Zm-66.82-70.79c1.15-.53,2-1.45,2.69-2.88.83-1.74.71-3.17-.36-4.37-.88-.99-2.01-1.49-3.36-1.5-.21,0-.43.01-.65.04-1.14.12-2.27.57-3.55,1.42-2.47,1.62-4.41,3.96-5.91,7.14-.3.64-.4,1.38-.45,1.95-.07.82.17,1.58.7,2.13.52.55,1.28.85,2.13.85.08,0,.16,0,.23,0,.4-.03.82-.11,1.23-.2l.37-.08c.21-.04.41-.1.68-.17l.68-.11-.1.51c-.04.21-.07.36-.11.51-.16.53-.32,1.07-.49,1.63-.28.93-.57,1.86-.82,2.79-1.35,4.86-3.16,9.71-5.36,14.41-1.46,3.11-3.51,7.14-6.48,10.67-2.23,2.65-4.57,4.53-7.16,5.74-.88.41-1.7.68-2.43.8-.3.05-.58.07-.84.07-.83,0-1.49-.23-1.96-.69-.51-.5-.77-1.25-.75-2.19.02-.96.23-1.92.43-2.85l.15-.73c.09-.43.21-.85.34-1.28.1-.35.21-.71.29-1.06.17-.74.05-1.09-.43-1.3-.13-.06-.25-.09-.38-.09-.32,0-.65.19-1.01.58-.06.07-.12.14-.17.2l-.06.07c-1.49,1.8-2.36,3.91-2.6,6.28-.3,3.01,1.35,5.57,4.12,6.38.69.2,1.41.3,2.13.3,1.09,0,2.26-.23,3.47-.68,1.85-.69,3.65-1.75,5.49-3.25,2.78-2.25,5.19-5.18,7.37-8.96,3.72-6.44,6.59-13.58,9.05-22.47.68-2.46,1.36-4.91,2.06-7.37.3-1.05.93-1.82,1.84-2.24Zm-3.56-1.28c-.74,1.17-2.7,2.29-4.11,2.35l-.13-.04v-.08s0-.07,0-.1c-.01-.09-.02-.2.02-.3,1.18-2.47,2.58-4.18,4.42-5.37.53-.35,1.11-.6,1.65-.73.2-.05.38-.07.55-.07h0c.39,0,.69.13.88.37.24.32.28.81.1,1.48l-.06.04h-.02c-.16.07-.33.12-.53.18-.36.12-.73.24-1.07.41-.79.41-1.25,1.14-1.7,1.85Zm-113.48,61.14c-.33,0-.66.18-.9.49-.25.32-.45.72-.56,1.15-.73,2.62-1.29,4.65-1.82,6.78-.46,1.85-.89,3.7-1.32,5.55l-.09.37c-.26,1.12-.53,2.25-.8,3.37-.33,1.39-.63,2.51-.92,3.52-.55,1.91-1.12,3.82-1.68,5.73,0,0-.9,3.04-1.26,4.28-.09.32-.14.57-.15.8-.01.57.29,1.01.81,1.16.15.05.31.07.46.08h.03c.39,0,.71-.15.97-.46.29-.35.52-.75.64-1.12l.49-1.49c.58-1.78,1.19-3.62,1.65-5.46.68-2.64,1.31-5.42,1.86-7.87.25-1.11.5-2.22.77-3.34l.05-.07,2.61-11.22c.08-.35.16-.7.21-1.05.07-.5-.16-.87-.68-1.12-.11-.05-.23-.08-.38-.08Zm21.07-7.34c-.15,0-.29.01-.44.03-2.06.29-3.64,1.3-4.82,3.08-.89,1.34-1.46,2.76-1.71,4.23-.4,2.38-.73,4.83-1.03,7.15-.19,1.46-.36,2.93-.53,4.39-.13,1.13-.27,2.25-.4,3.38-.15,1.19-.33,2.46-.78,3.75l-.02.06s-3.19,1.08-4.16,1.41c-.13.05-.27.09-.41.13-.38.12-.77.24-1.11.43-.6.31-.96,1.09-.8,1.73.16.63.63,1.01,1.31,1.02h.11c.59,0,1.2-.11,1.72-.22.5-.11,1.01-.25,1.54-.41l.82-.23h.17s-.01.12-.01.12c-.02.18-.03.34-.04.48-.02.24-.03.42-.08.6l-.39,1.51c-.35,1.39-.72,2.82-1.16,4.24-.91,2.93-1.91,6-3.25,9.95-1.3,3.86-2.81,7.98-4.99,11.97-1.37,2.51-2.98,4.56-4.92,6.28-.7.62-1.43,1.15-2.16,1.57-.56.33-1,.48-1.36.48-.57,0-.99-.34-1.46-1.16-.74-1.3-1.12-2.42-1.18-3.53-.07-1.36-.03-2.74.02-4.08v-.11c.04-.99-.17-1.43-.71-1.53-.05,0-.1-.01-.16-.01-.5,0-.93.43-1.17,1.18-.3.94-.49,1.84-.57,2.69-.26,2.83.35,5.37,1.82,7.54.82,1.22,1.92,1.83,3.26,1.83.57,0,1.19-.12,1.83-.34,1.12-.4,2.21-1.04,3.32-1.95,1.57-1.29,2.92-2.71,4.03-4.22,2.79-3.8,4.52-8.06,5.72-11.34,1.14-3.13,2.18-6.32,3.22-9.57.65-2.03,1.29-4.22,2.02-6.87.54-2,1.02-4.03,1.51-6.11.16-.69.51-1.09,1.16-1.34.89-.34,1.8-.68,2.65-1.16.58-.33,1.1-.79,1.42-1.26.22-.33.27-.7.13-1.02-.16-.36-.53-.6-.99-.63-.05,0-.11,0-.17,0-.37,0-.76.09-1.14.17-.17.04-.34.07-.51.1-.11.02-.22.06-.36.12-.2.08-.4.16-.64.16-.17,0-.32-.04-.48-.12l-.07-.04.55-4.53c.22-1.86.45-3.79.72-5.68.29-2.08.65-4.55,1.15-7.03.3-1.51.94-2.72,1.9-3.62.6-.56,1.32-.87,2.01-.87.86,0,1.62.47,2.11,1.28.21.35.28.76.35,1.17l.02.11c.03.18.03.36.02.59,0,.12,0,.25,0,.37.04.52.31.79.8.85.05,0,.09,0,.13,0,.39,0,.68-.2.81-.57.2-.59.41-1.21.45-1.84.11-1.49-.6-2.55-1.22-3.19-.92-.95-2.26-1.56-3.4-1.56Zm118.32-48.57c.15-.2.2-.66.08-.82-.19-.25-.64-.4-.99-.42-.25,0-.53.13-.81.26l-.15.07c-.37.17-.75.34-1.12.52l-.07.03c-.41.19-.81.39-1.23.57-1.4.61-2.7.91-3.96.91-.09,0-.18,0-.27,0-.95-.03-1.94-.2-2.95-.5-.89-.26-1.43-.9-1.57-1.86l-.02-.1.45-.17c.22-.08.43-.15.62-.24.43-.2.86-.39,1.33-.61,1.11-.51,2.26-1.03,3.34-1.62,1.21-.66,2.22-1.52,2.98-2.56.59-.81.82-1.67.66-2.49-.15-.77-.64-1.45-1.41-1.95-.92-.59-1.91-.91-2.86-.91s-1.88.31-2.74.91c-3.28,2.29-5.1,5.36-5.41,9.12-.2,2.47,1.35,4.66,3.77,5.33,1.17.32,2.34.48,3.48.48,2.49,0,4.93-.77,7.24-2.29.6-.39,1.09-.98,1.61-1.65Zm-11.59-6.46c.05-.07.11-.14.16-.22.66-.97,1.47-1.72,2.42-2.22.39-.2.66-.29.91-.29.43,0,.78.27,1.24.75l.07.07-.07.09c-1.26,1.56-3.01,2.38-4.87,3.24l-.34.1v-.11c-.08-.66.22-1.06.49-1.42Zm-138.45,23.79l.09-.16c.17-.29.36-.63.6-.92,3.06-3.68,6.35-6.19,10.07-7.7.67-.27,1.34-.59,2.01-.92l.55-.26c.62-.3.87-.67.82-1.19-.24-.35-.53-.51-.94-.51-.09,0-.17,0-.27.02-1.8.22-3.55.75-5.34,1.6-2.04.97-4.02,2.32-6.05,4.12-.13.12-.28.21-.44.32l-.4.2-.16-.83c-.1-.53-.2-1.03-.33-1.52-.09-.33-.26-.66-.48-.93-.24-.29-.55-.44-.91-.44-.17,0-.34.03-.52.1-.51.2-.8.65-.79,1.22,0,.11.02.21.04.34.02.11.03.21.04.32.01.25.03.49.05.76.05.62.1,1.26.06,1.9-.08,1.16-.28,2.31-.48,3.43-.22,1.25-.01,1.65,1.08,2.12,1.07-.15,1.2-.23,1.7-1.09Zm50.91-9.97c.09-.48-.08-1.03-.24-1.42-.19-.45-.61-.71-1.16-.71-.04,0-.09,0-.13,0-.76.06-1,.64-1.07.98-.25,1.16-1.02,2.01-1.59,2.55l-.1.1c-1.56,1.51-3.17,3.07-4.89,4.49-1.06.87-2.34,1.55-3.47,2.12-.66.33-1.46.57-2.46.73-.17.03-.33.04-.48.04-.9,0-1.38-.49-1.44-1.46-.06-1.09.02-2.1.22-3.01.55-2.4,1.52-4.74,2.49-6.9.3-.67.74-1.04,1.46-1.22,5.11-1.28,10.05-3.33,14.82-5.31l.2-.08c.52-.22.9-.41,1.23-.61.81-.49,1.14-1.2.9-1.89-.2-.56-.69-.87-1.38-.87-.17,0-.35.02-.54.06-.72.14-1.49.36-2.3.65-2.16.78-4.32,1.57-6.48,2.36l-3.54,1.29c-.27.1-.54.18-.9.29l-.83.26s.21-.54.25-.66c.09-.23.15-.4.23-.56,2.41-4.53,5.1-8.35,8.19-11.68,1.96-2.1,3.68-3.44,5.58-4.34.3-.14.62-.34.94-.58.74-.55,1.04-1.42.7-2.08-.24-.47-.77-.76-1.39-.76-.24,0-.49.05-.74.14-.52.19-1.03.46-1.48.71,0,0-.39.21-.55.29-.4.2-.8.42-1.21.63-.78.42-1.59.85-2.42,1.2-4.72,2.03-9.78,4.08-15.22,4.86-.86.12-1.37.64-1.39,1.41-.02.74.49,1.25,1.36,1.35.42.05.79.07,1.12.07.4,0,.76-.03,1.08-.1,1.49-.32,3.02-.72,4.37-1.07,0,0,2.81-.72,3.1-.8l.7-.16.06.19-.08.17c-.06.12-.12.26-.22.39-2.98,3.8-5.65,8.22-8.4,13.91-1.16,2.4-2.46,5.28-3.33,8.37-.57,2.02-.69,3.71-.39,5.29.48,2.49,2.36,3.98,5.01,3.98.13,0,.25,0,.39-.01,1.58-.08,3.14-.55,4.64-1.38,3.95-2.2,7.23-5.27,10.01-9.39.35-.52.61-1.18.74-1.86Zm89.23,61.13c-.1-.08-.2-.16-.3-.24-1.59-1.42-3.38-3.44-3.12-6.45.07-.88-.3-1.46-1.1-1.75-.39-.14-.73-.34-.96-.59-1.01-1.05-2.21-1.27-3.04-1.27s-1.6.2-2.32.58c-2.79,1.47-4.43,3.65-4.89,6.47-.19,1.18.06,2.23.69,2.95.58.67,1.48,1.04,2.52,1.04.44,0,.9-.06,1.4-.2.26-.07.53-.14.76-.27,1.01-.57,2.04-1.17,3.15-1.84.23-.14.44-.3.7-.49l.55-.35.68,1.16c.71,1.23,1.41,2.06,2.27,2.69.65.48,1.39.72,2.19.72.13,0,.27,0,.41-.02.45-.04.79-.27.97-.66.21-.46.14-.86-.2-1.19-.11-.1-.23-.2-.35-.29Zm-7.28-5.4c-1.44,1.54-3,2.5-4.93,3.02h-.15s0-.11,0-.11c-.04-2.04,1.16-3.26,2.46-4.28.56-.44,1.09-.65,1.62-.65h0c.43,0,.85.14,1.34.45.16.63.05,1.16-.34,1.57Zm-137.14,21.26c-.3.01-.64.11-1.03.3-.43.2-.84.45-1.25.68l-.4.23c-1.26.71-2.62,1.08-4.06,1.08-.17,0-.34,0-.51-.01-1.04-.06-2.22-.28-3.1-1.46l-.04-.14s.47-.2.65-.28c.3-.13.54-.23.77-.35l.92-.5c1-.55,2.04-1.11,3.01-1.75.63-.42,1.26-1.01,1.87-1.77.59-.73.85-1.5.75-2.22-.1-.7-.53-1.36-1.27-1.9-.9-.66-1.91-1.01-2.92-1.01-1.13,0-2.26.43-3.26,1.26-1.36,1.12-2.47,2.59-3.38,4.47l-.69,1.37-.38.04c-.19.02-.35.04-.5.07-.91.16-1.5.7-1.57,1.44-.07.73.43,1.31,1.33,1.56.23.06.47.12.74.18l.42.14.21.38c.11.19.21.38.32.56.65,1.09,1.54,1.84,2.66,2.25,1.22.44,2.45.67,3.64.67,2.14,0,4.24-.73,6.23-2.16.56-.41,1.11-.99,1.65-1.78.21-.3.25-.61.13-.87-.14-.3-.48-.46-.96-.46Zm-9.82-3.22c.5-1.24,1.21-2.15,2.24-2.87.33-.23.67-.35,1.01-.35.38,0,.74.16,1.1.5v.08s-.02.03-.02.03c-.59,1.15-2.27,2.26-4.18,2.77l-.23.06.09-.22Zm129.8-21.29c-.25,0-.5.03-.75.09-.6.14-1.19.37-1.72.67-1.94,1.13-3.36,2.66-4.21,4.53-.37.81-.59,1.72-.66,2.64-.06.82.19,1.56.71,2.09.51.53,1.27.82,2.12.82.22,0,.44-.02.66-.06.25-.04,1.18-.21,1.39-.21.02,0,.03,0,.04,0v.09c0,.11,0,.21,0,.3,0,.19,0,.35-.02.51-.2,1.14-.39,2.28-.59,3.42-.5,2.93-1.01,5.96-1.59,8.95-.88,4.55-2.26,9.13-4.11,13.61-.66,1.59-1.5,3.26-2.51,4.94-.54.91-1.3,1.71-2.05,2.5l-.27.28c-.53.57-1.08.86-1.62.86-.14,0-.29-.02-.43-.07-.92-.27-.97-1.17-1.02-1.89-.05-.76-.01-1.54.11-2.29.41-2.57,1.54-5.04,3.56-7.79.83-1.13,1.72-2.25,2.62-3.37l.08-.1c.48-.61.96-1.21,1.44-1.82.46-.59.99-1.28,1.45-2,.38-.59.37-.73-.16-1.37-.07-.01-.13-.02-.19-.02-.41,0-.71.29-1.01.56-.27.25-.91.84-.91.84-.79.72-1.61,1.47-2.35,2.26-2.55,2.72-5.65,6.44-7.05,11.12-.76,2.54-.82,4.48-.2,6.3.64,1.88,1.91,2.76,4.01,2.76h.08c.86,0,1.74-.29,2.68-.84,1.17-.7,2.09-1.53,2.72-2.48.88-1.31,1.89-2.84,2.68-4.4,1.44-2.88,2.36-5.84,3.32-9.13,1.24-4.2,1.93-8.56,2.6-12.82.16-1.01.32-2.03.49-3.04.32-1.94.71-3.91,1.08-5.84l.45-2.36c.03-.16.07-.35.18-.5.48-.64.68-1.39.87-2.13.15-.57.31-1.16.6-1.71.13-.25.17-.56.2-.89.09-.82-.16-1.59-.69-2.16-.51-.55-1.24-.85-2.03-.85Zm-.04,2.65c-.02.15-.03.28-.05.42-.02.24-.04.43-.14.59-.73,1.17-1.57,2.53-2.47,3.84-.34.49-.85.75-1.47.75-.09,0-.19,0-.33-.02l-.04-.05v-.03c-.4-1.12.19-2,.77-2.85l.16-.24c.63-.94,1.59-2.09,3.43-2.55l.18-.05-.03.18Zm-14.41,3c.28-.3.33-.65.14-.97-.16-.27-.39-.41-.68-.41-.08,0-.16,0-.24.03-.33.07-.65.15-.97.25l-2.41.72c-1.14.34-2.28.69-3.43,1.02-.28.08-.56.14-.91.21-.14.03-.48.1-.62.1-.03,0-.05,0-.06,0v-.72c0-.34,0-.65.02-.95.03-.53.07-1.06.11-1.62l.02-.23c.03-.46.07-.92.09-1.38.25-4.19.49-8.39.72-12.58l.02-.41c.05-.85.1-1.72.03-2.56-.11-1.25-.88-2.05-1.95-2.05-.5,0-1.04.18-1.56.52-.86.55-1.62,1.23-2.21,1.95-1.19,1.45-2.43,3.08-3.9,5.14-.75,1.06-1.48,2.13-2.22,3.21-1.09,1.6-2.21,3.25-3.4,4.82-4.37,5.77-9.93,11.08-17.47,16.71-1.26.94-2.65,1.75-3.99,2.54l-.12.07c-.35.2-.69.41-1.05.62-.32.19-.69.41-1.15.41-.23,0-.43-.06-.68-.22-.02-.1-.04-.2-.07-.3-.06-.24-.13-.52-.12-.8.01-.92.04-1.9.17-2.88.07-.53.19-1.06.31-1.61.09-.37.17-.75.24-1.12.12-.66-.06-1.04-.58-1.23-.17-.06-.33-.09-.49-.09-.4,0-.75.19-1.01.56-.26.37-.55.81-.65,1.26l-.17.7c-.34,1.39-.69,2.82-.86,4.25-.11.96.13,1.99.38,2.88.3,1.07,1.15,1.74,2.32,1.84.29.03.58.04.89.04.55,0,1.01-.06,1.41-.19,1.03-.33,2.11-.81,3.33-1.47,2.46-1.34,4.66-2.99,7.22-5.05,8-6.46,14.05-13.19,18.47-20.59.96-1.61,2.05-3.2,3.12-4.77.42-.61.84-1.22,1.25-1.84.14-.21.32-.39.53-.61.06-.06.24-.25.24-.25l.41.14.03.07v.03c-.36,3.12-.59,6.31-.81,9.4-.22,3.06-.45,6.22-.8,9.36v.09s-.72.21-.72.21c-.34.1-.65.19-.96.27-.89.21-3.24.77-3.24.77-1.02.24-2.04.48-3.05.73-.5.12-.99.25-1.4.47-.58.3-.86.79-.8,1.37.07.62.47,1.01,1.09,1.08.35.04.65.06.94.06.37,0,.71-.03,1.01-.09,1.25-.25,2.5-.55,3.71-.84,0,0,1.11-.27,1.6-.38.27-.06.54-.12.84-.18l.59-.07v.57c.02.31.03.57.02.84-.06,1.15-.13,2.31-.2,3.46v.14c-.14,2.27-.28,4.62-.36,6.93-.08,2.53-.06,5.11-.04,7.6v1.26c.01.59.12,1.22.31,1.84.2.66.83.83,1.33.87.04,0,.08,0,.12,0,.58,0,1.03-.28,1.29-.8.15-.29.33-.74.36-1.21.06-.98.1-1.96.13-2.94v-.17c.03-.56.05-1.12.08-1.68l.03-.64c.23-4.74.45-9.48.69-14.22.03-.67.11-1.33.18-1.96.03-.31.07-.63.1-.95v-.09s.64-.22.64-.22c.37-.13.72-.25,1.07-.36,2.82-.84,5.02-1.79,6.92-3.01.31-.2.63-.4.87-.66Z"/>
  </g>
</svg>