<?xml version="1.0" encoding="UTF-8"?>
<svg xmlns="http://www.w3.org/2000/svg" viewBox="0 0 428 260">
  <defs>
    <style>
      .cls-1 {
        fill: none;
      }

      .cls-1, .cls-2 {
        stroke-width: 0px;
      }

      .cls-2 {
        fill: #e76751;
      }
    </style>
  </defs>
  <g id="board">
    <rect class="cls-1" width="428" height="260"/>
  </g>
  <g id="text">
    <path class="cls-2" d="m55.15,118.94c.68-.27,1.31-.7,1.93-1.12l.37-.25c.3-.2.56-.44.84-.7.13-.12.26-.24.39-.35l.07-.06s.33.47.47.66c.3.42.57.83.88,1.21.61.76,1.27,1.15,2.02,1.21h.08c.31,0,.72-.11.87-.32.17-.22.16-.72.04-1.02-.12-.31-.36-.59-.59-.86-.07-.08-.15-.17-.22-.25-1.19-1.47-1.63-2.98-1.35-4.62.13-.77.07-1.28-.2-1.6-.28-.34-.81-.49-1.69-.49h-.05l-.03-.04c-.64-.97-1.18-1.37-1.89-1.37-.24,0-.5.05-.81.14-2.52.79-5.1,4.18-5.19,6.86-.04.98.26,1.84.82,2.44.5.52,1.18.8,1.93.8.42,0,.86-.09,1.3-.26Zm1.2-7.01l.05-.03,1.61,1.31-.05.07c-.98,1.33-2.13,2.65-3.96,3.27l-.1.04-.02-.11c-.25-1.66.79-3.58,2.47-4.56Zm57.76,65.18c-.24,0-.57.11-1.01.33-.78.4-1.55.84-2.29,1.27l-.73.42c-.2.11-.39.24-.61.39l-.51.33v-.16c-.01-.11-.02-.21-.03-.3-.02-.18-.03-.31,0-.46.25-1.62.5-3.24.76-4.86.05-.29.09-.58.14-.88.26-1.69.52-3.44,1.53-4.99.36-.56.43-1.34.5-2.09l.03-.28c.05-.51-.25-.96-.8-1.18-.19-.08-.37-.12-.54-.12-.34,0-.66.15-.95.44-.29.29-.49.58-.59.86-.19.5-.36,1.02-.52,1.53-.1.32-.2.63-.31.95-.03.1-.07.2-.1.31-.1.33-.2.66-.41.91-1.19,1.39-2.48,2.39-3.96,3.05-.13.06-.27.07-.43.09-.08,0-.17.02-.27.04l-.1.02v-.11c.01-1.26.41-2.31,1.22-3.2.66-.72.73-1.35.21-1.87-.23-.23-.53-.36-.85-.36-.38,0-.75.18-1.05.52-1.4,1.6-2.08,3.35-2.03,5.2.04,1.46.99,2.44,2.35,2.44.21,0,.42-.02.64-.07.64-.14,1.27-.43,1.87-.72l.22-.1c.33-.15.64-.36.94-.55.14-.09.28-.18.42-.27l.04-.03.36.21-.39,2.09c-.4,2.15-.81,4.37-1.25,6.55-.09.42-.45.8-.74,1.1-2.01,2.1-3.65,4.15-5,6.28-1.06,1.67-2.35,3.91-2.95,6.51-.36,1.56-.63,3.4.08,5.23.46,1.18,1.36,1.88,2.41,1.88.66,0,1.32-.28,1.91-.8.51-.46,1-1.06,1.42-1.74,1.4-2.31,2.46-4.95,3.22-8.06.57-2.34,1.16-4.88,1.84-7.99.21-.94.58-1.57,1.22-2.06.61-.46,1.2-.93,1.79-1.41.28-.23.57-.46.85-.68l.78-.62c.54-.42,1.07-.84,1.59-1.28.85-.71.88-1.04.63-1.4-.14-.21-.31-.3-.54-.3Zm-9.96,11.3c-.78,4.01-1.76,8.25-4.48,12.2l-.09.14-.06-.15c-.5-1.24-.4-2.22-.25-3.21.4-2.6,1.68-4.84,2.89-6.68.6-.93,1.21-1.7,1.85-2.37l.21-.22-.06.3Zm-11.83-18.88c-1.04-.63-2.08-.94-3.11-.94-.87,0-1.73.23-2.56.67-.56.3-.94.77-1.15,1.43-.14.46-.35.9-.54,1.33l-.08.18c-.19.42-.4.84-.6,1.25l-.24.49c-.39,1.42-.37,2.61.07,3.71.47,1.18,1.4,1.86,2.56,1.86.1,0,.21,0,.31-.02.71-.07,1.43-.28,2.02-.59,1.72-.91,3.12-2.36,4.26-4.44.22-.4.38-.9.5-1.52.27-1.45-.25-2.7-1.42-3.41Zm-.89,3.33c-.97,2.09-2.34,3.44-4.17,4.14-.11.04-.23.05-.31.05h-.29s-.11,0-.11,0l-.03-.04c-.59-.76-.49-1.58-.32-2.29.31-1.25,1-2.38,2.1-3.44.26-.25.68-.39,1.2-.39.65,0,1.45.23,1.77.76.2.33.32.88.17,1.2Zm-31.1,0l.09-.04.03.09c.06.17.11.32.17.47.11.31.21.57.28.85.11.51.22,1.02.32,1.53.11.56.23,1.12.36,1.68.11.47.26.87.45,1.18.2.34.62.56,1.03.56.14,0,.26-.02.37-.07.47-.2.7-.62.61-1.15-.06-.37-.12-.75-.17-1.12-.19-1.3-.39-2.64-.76-3.91-.48-1.63-1.39-2.53-2.59-2.53-.74,0-1.58.35-2.41,1.02-.16.13-.31.26-.46.4-.12.11-.23.21-.35.32-.08.07-.18.13-.31.22l-.43.3.15-.88c.08-.43.14-.81.19-1.19.06-.54-.17-.91-.69-1.07-.11-.04-.23-.05-.33-.05-.35,0-.64.19-.84.56-.18.31-.28.68-.36,1-.6,2.33-1.19,4.66-1.77,6.99-.1.41-.15.75-.15,1.06,0,.48.23.84.67,1.04.18.08.35.12.52.12.26,0,.49-.1.7-.29.22-.2.39-.47.55-.73l.07-.11c.3-.47.6-.94.89-1.41.58-.93,1.19-1.88,1.82-2.8.49-.71,1.16-1.51,2.38-2.02Zm24.19-61.34v.13c.03.14.04.25.06.34.02.16.04.28.03.4-.04.49-.08.98-.13,1.47-.03.38-.14,1.56-.16,1.77-.06.58-.11,1.17-.1,1.75,0,.56.35.95.91,1.05.08.02.17.02.25.02.42,0,.77-.23.99-.68.18-.36.32-.74.39-1.1.13-.65.27-1.4.33-2.15l.03-.44c.07-.89.14-1.82.05-2.7-.16-1.54-1.06-2.45-2.4-2.45-.35,0-.73.06-1.12.19-.17.06-.35.12-.52.17l-.32.11-.14-.18c-.06-.07-.11-.13-.14-.2-.28-.54-.68-.82-1.18-.82-.1,0-.21.01-.32.03-.55.11-.84.58-.9,1.45,0,.1,0,.21,0,.32,0,1.15-.29,2.21-.91,3.26-.44.75-.82,1.53-1.14,2.34-.16.41-.23.91-.18,1.34.07.64.6,1.12,1.23,1.12.21,0,.41-.05.59-.16.35-.2.7-.57.91-.97.43-.82.83-1.72,1.24-2.78.41-1.06,1.18-1.83,2.55-2.58l.12-.06Zm-9.33,57.27c-.06-.01-.12-.02-.18-.02-.54,0-.96.4-1.17,1.13-.1.33-.17.7-.23,1.17-.1.77-.2,1.54-.29,2.31-.12.93-.23,1.86-.36,2.79-.87,6.44-2,12.09-3.47,17.28-.14.45-.27.91-.4,1.36-.29,1-.59,2.03-.93,3.04-1.11,3.32-2.25,5.89-3.6,8.09-.41.67-.87,1.25-1.37,1.71-.43.4-.86.61-1.27.61-.56,0-1.04-.39-1.39-1.13-.22-.47-.36-.98-.49-1.47l-.05-.2c-.11-.39-.2-.78-.3-1.18-.11-.46-.22-.91-.35-1.37-.14-.49-.34-.94-.89-.94-.04,0-.07,0-.11,0-.58.05-.73.55-.79,1.02-.31,2.21.02,4.19.96,5.88.76,1.35,2,2.13,3.42,2.13.79,0,1.6-.26,2.33-.74.72-.48,1.34-1.08,1.76-1.7.93-1.38,1.68-2.66,2.29-3.93,2.39-4.96,4.1-10.52,5.38-17.49.64-3.48,1.14-7.04,1.63-10.49.2-1.41.4-2.81.6-4.22.1-.67.17-1.38.21-2.17.04-.81-.32-1.38-.95-1.48Zm.37-10.6c-.24,0-.49.08-.78.25-.65.38-1.17,1.51-1.02,2.25.11.57.55.98,1.09,1.04.05,0,.1,0,.15,0,.49,0,.84-.24,1.05-.72.08-.18.13-.37.18-.55.02-.06.03-.12.05-.18h-.03s.08-.23.08-.23c.03-.09.07-.19.11-.28.26-.61.19-1.04-.23-1.36-.2-.15-.41-.22-.63-.22Zm295.76-88.66s.1.02.15.02c.58,0,1.45-.62,1.61-1.14.1-.33.04-.72-.17-1.09-.23-.41-.6-.71-.99-.8-.1-.02-.2-.04-.3-.04-.54,0-.98.37-1.13.96-.13.51-.05,1.11.22,1.57.16.28.38.46.61.52Zm-218,24.48s.1.02.15.02c.58,0,1.45-.62,1.61-1.14.1-.33.04-.72-.17-1.09-.23-.41-.6-.71-.99-.8-.1-.02-.2-.04-.3-.04-.54,0-.97.37-1.12.96-.13.51-.05,1.11.22,1.57.16.28.38.46.61.52Zm-4.22,18.79c.19.12.4.19.62.19.32,0,.62-.13.85-.38.26-.27.48-.61.62-.97.86-2.18,1.7-4.37,2.54-6.56l.69-1.79c.18-.47.37-.94.52-1.42.16-.51,0-.95-.45-1.22-.2-.12-.41-.18-.61-.18-.28,0-.54.12-.76.36-.27.29-.49.63-.62.97-.98,2.47-1.94,4.96-2.91,7.43l-.86,2.2c-.19.66-.08,1.06.36,1.35Zm114.79-16.72h.08c.26,0,.52-.04.77-.07.4-.06.79-.13,1.24-.2l.72-.12v.11c-.03.3-.05.59-.07.86-.05.58-.08,1.07-.08,1.58.02,1.72.87,2.8,2.52,3.21.48.12.93.18,1.33.18h.04c2.52-.03,4.88-.99,7.21-2.94.34-.29.66-.74.84-1.2.11-.29.07-.75-.09-1.02-.15-.24-.37-.29-.53-.29s-.35.05-.52.15c-.23.12-.44.26-.66.4-.3.19-.61.38-.93.53l-.32.15c-1.12.53-2.27,1.07-3.45,1.49-.41.14-.8.22-1.18.22-.54,0-1.06-.15-1.58-.51-.17-1.08-.04-2.18.39-3.49l.02-.05s.83-.18,1.21-.26c.92-.2,1.79-.38,2.67-.61.66-.17,1.33-.43,1.99-.77.33-.17.85-.55.6-1.23-.14-.38-.43-.57-.9-.57-.09,0-.18,0-.26.02-.66.09-1.31.19-1.96.3-.38.06-.76.12-1.14.18-.25.04-.5.06-.79.09l-.61.07.05-.14c.1-.28.19-.54.28-.78.17-.5.32-.92.51-1.34.21-.47.4-.94.6-1.42.75-1.82,1.52-3.7,3.04-5.13.37-.35.41-.8.13-1.29-.19-.32-.55-.52-.92-.52-.14,0-.27.03-.39.08-.43.18-.79.43-1.01.71l-.18.22c-.55.68-1.12,1.38-1.52,2.21-1,2.04-2.02,4.16-2.78,6.32-.5,1.44-1.22,2.03-2.55,2.13-.78.05-1.55.3-2.28.56-.59.21-.81.84-.72,1.31.1.52.56.86,1.2.88Zm-160.33,16.89c.17.08.34.12.52.12.49,0,.96-.31,1.28-.85.22-.38.42-.79.61-1.19.12-.25.24-.5.37-.75.54-1.04,1.3-1.78,2.4-2.33l.1-.05.02.12c.15.78.02,1.42-.11,2.03l-.05.28c-.04.19-.08.38-.12.56-.08.37-.17.76-.21,1.14-.07.6.17,1.04.68,1.23.13.05.27.08.4.08.37,0,.69-.21.89-.58,1.09-2.01,1.44-3.84,1.09-5.61-.24-1.18-1.06-1.86-2.25-1.86-.12,0-.24,0-.37.02-.22.03-.44.06-.65.09l-.33.05-.08-.16c-.03-.06-.06-.1-.07-.16-.27-.93-.62-1.31-1.21-1.31h-.09c-.64.04-1.01.53-1.11,1.49-.17,1.54-.8,2.89-1.45,4.13l-.14.27c-.24.45-.48.91-.66,1.39-.31.85-.1,1.53.56,1.86Zm267.04,22.24c-.29.11-.56.26-.88.42-.16.08-.63.32-.63.32l-.03-.42c-.01-.15-.02-.27-.02-.38-.03-.94-.31-1.4-.91-1.5-.07-.01-.15-.02-.22-.02-.55,0-.93.42-1.13,1.24-.57,2.36-1.29,4.38-2.22,6.17-.36.7-.19,1.45.41,1.81.18.11.37.16.57.16.42,0,.84-.25,1.18-.71.05-.07.1-.16.14-.23.06-.11.12-.23.21-.33l.41-.47c.88-.99,1.79-2.02,2.71-2.99.19-.2.45-.34.74-.51.15-.08.31-.17.49-.28l.13-.08v.16c.01.19.02.36.03.51.02.3.04.53,0,.76-.16.98-.34,1.96-.52,2.93l-.17.94c-.02.13-.06.26-.09.39-.06.27-.12.52-.13.77,0,.31.09.59.28.78.15.15.35.24.56.24.19,0,.39-.07.57-.2.45-.32.81-.79.94-1.21.4-1.34.75-2.8,1.04-4.34.12-.64.05-1.33-.03-1.93-.19-1.41-1.03-2.25-2.24-2.25-.38,0-.78.08-1.19.25Zm-2.71-54.05h.04s-.15.46-.15.46c-.09.26-.18.52-.25.78-.31,1.12-.1,1.8.61,2.01.11.03.23.05.33.05.53,0,.94-.42,1.27-1.28.64-1.68,1.29-3.44,1.92-5.21.22-.62.41-1.29.56-1.98.13-.57-.09-1.01-.61-1.24-.16-.07-.33-.11-.48-.11-.32,0-.62.16-.86.47-.21.28-.4.62-.55,1.03-.46,1.24-.91,2.48-1.36,3.72l-.48,1.31Zm-239.36,18.34c-.03-.06-.05-.12-.08-.18-.67-1.35-1.67-2.06-2.89-2.06-.53,0-1.1.14-1.68.41-.51.24-1.01.55-1.44.91-1.48,1.23-2.65,2.74-3.48,4.5-.31.66-.51,1.43-.56,2.16-.04.58.12,1.12.47,1.52.33.38.8.6,1.34.64.07,0,.14,0,.21,0,.65,0,1.33-.18,1.99-.35l.19-.05c.33-.09.64-.25,1.03-.45.2-.1.41-.21.65-.33l.17-.08-1.24,4.99c-.69,2.77-1.38,5.53-2.08,8.29-1.59,6.27-3.82,12.35-6.61,18.06-2.6,5.31-5.57,9.8-9.07,13.71-1.34,1.49-2.84,3.02-4.71,4.04-.84.46-1.79.79-2.75.97-.17.03-.33.05-.48.05-.87,0-1.35-.54-1.42-1.61-.05-.75-.07-1.71.2-2.52.69-2.04,1.38-4.03,2.3-5.9,3-6.13,7.32-11.63,13.18-16.81.79-.7,1.58-1.39,2.38-2.08.71-.62,1.42-1.24,2.12-1.86.32-.28.56-.52.76-.76.31-.38.35-.74.12-1.1-.16-.24-.36-.35-.63-.35-.13,0-.27.03-.42.08-.2.07-.39.16-.57.27-.39.25-.79.49-1.19.73-.92.55-1.86,1.13-2.72,1.79-5.72,4.38-10.49,9.82-14.17,16.16-1.78,3.06-2.96,5.7-3.74,8.33-.41,1.39-.82,3.22-.37,5.13.48,2.04,1.9,3.25,3.97,3.42.2.02.41.02.61.02.97,0,1.85-.2,2.61-.59,1.64-.85,2.83-1.58,3.85-2.37,2.19-1.67,3.97-3.83,5.57-5.91,5.62-7.32,9.85-16.11,12.93-26.87,1.39-4.84,2.57-9.84,3.71-14.67l.35-1.46c.42-1.79,1.14-3.41,1.97-5.19.38-.81.5-1.5-.12-2.23-.1-.12-.17-.27-.23-.42Zm-2.64,2.01c-1.18,1.24-2.58,2.18-4.16,2.8l-.2.08.08-.2c.77-1.86,1.84-3.15,3.26-3.95.1-.06.24-.09.41-.09.18,0,.41.04.55.16.18.15.28.35.3.57.01.23-.07.45-.24.63Zm-33.13,13.36c.18.12.38.18.59.18.33,0,.67-.16.97-.43.12-.11.25-.24.33-.39.93-1.8,1.85-3.61,2.77-5.41l.68-1.32c.07-.8-.1-1.24-.56-1.5-.15-.09-.31-.13-.48-.13-.34,0-.68.17-.96.47-.1.11-.18.22-.24.33l-.79,1.52c-.89,1.71-1.78,3.42-2.64,5.15-.31.62-.19,1.18.33,1.53Zm-54.19-40.85c.25-.09.51-.17.81-.26l.65-.21-.13.53c-.04.19-.08.33-.12.46l-.84,2.49c-.81,2.39-1.61,4.77-2.44,7.15-.37,1.06-.74,2.12-1.1,3.19-1.2,3.46-2.43,7.05-3.75,10.53-2.27,6.02-4.62,12.14-6.9,18.04-1.21,3.14-2.42,6.29-3.62,9.43-.15.39-.25.82-.28,1.24-.05.61.23,1.05.8,1.29.18.07.35.11.53.11.39,0,.74-.19,1.02-.54.23-.3.43-.67.61-1.12.29-.74.57-1.49.85-2.24.18-.48.36-.96.54-1.44.75-1.97,1.49-3.94,2.23-5.91,1.72-4.57,3.5-9.29,5.32-13.9,3-7.59,5.53-15.33,7.87-22.61.4-1.23.82-2.46,1.24-3.68.37-1.09.75-2.17,1.1-3.26.22-.67.62-1.06,1.39-1.34,2.84-1.03,5.82-2.14,8.84-3.29,1.2-.46,2.39-.98,3.49-1.48.37-.17.73-.41,1.05-.71.41-.38.5-.88.27-1.4-.21-.48-.6-.75-1.09-.75-.04,0-.08,0-.12,0-.33.03-.68.12-1.11.29-.56.22-1.12.45-1.67.69-.9.37-1.82.76-2.75,1.09l-5.48,1.93c-6.51,2.3-13.24,4.68-19.9,6.91-4.44,1.49-10.33,3.33-16.55,4.35-1.51.25-3.08.34-4.59.43l-.76.04c-.27,0-.55-.09-.87-.2-.18-.06-.37-.12-.58-.18l-.14-.04.1-.11c.12-.13.21-.25.3-.36.18-.22.33-.39.5-.54.49-.44.61-.79.4-1.23-.19-.38-.52-.58-1-.58-.06,0-.13,0-.2.01-.22.02-.53.08-.78.23-1.14.69-1.71,1.66-1.68,2.88.03,1.06.62,1.84,1.83,2.36.4.17.86.35,1.32.38l.29.02c.7.04,1.43.08,2.15.08.41,0,.81-.01,1.22-.05,3.59-.3,7.05-1.12,9.97-1.89,6.98-1.83,14.12-4.07,21.8-6.83Zm30.32,45.45c.16.07.32.11.47.11.44,0,.84-.31,1.17-.91.03-.05.06-.11.09-.17l.68-1.68c1.02-2.51,2.04-5.02,3.06-7.53.14-.34.2-.81-.28-1.17-.2-.15-.42-.23-.64-.23-.23,0-.45.09-.64.27-.34.32-.64.75-.85,1.2-.67,1.46-1.31,2.96-1.94,4.41l-.21.49c-.36.84-.71,1.68-1.02,2.42l-.35.83c-.3,1.02-.15,1.68.45,1.95Zm-21.35,60.63c-.2,0-.41.13-.62.25l-.13.08c-.28.16-.56.32-.84.49-.38.22-.76.45-1.14.65-1.52.81-3.07,1.22-4.62,1.22-.35,0-.71-.02-1.07-.06-.6-.07-1.33-.27-1.7-1.22l-.02-.06.33-.27c.19-.15.38-.3.56-.46.34-.3.69-.6,1.04-.9.85-.73,1.73-1.48,2.51-2.3.73-.77,1.34-1.69,1.77-2.67.62-1.39.12-2.98-1.14-3.71-.54-.31-1.09-.47-1.63-.47-.46,0-.89.11-1.3.34-1.02.57-1.84,1.21-2.44,1.88-1.56,1.74-2.36,3.88-2.4,6.35,0,.76-.28,1.23-.89,1.57-.61.33-1.2.68-1.8,1.03-.92.54-1.87,1.09-2.83,1.58-2.1,1.06-4.23,1.59-6.33,1.59h-.18c-1.44-.02-2.53-.35-3.41-1.04-.81-.63-.91-.97-.55-1.96.25-.7.18-1.09-.23-1.34-.13-.07-.26-.11-.4-.11-.29,0-.61.18-.92.52-1.02,1.12-1.04,2.61-.05,3.88.99,1.28,2.4,2.08,4.18,2.38.67.11,1.36.17,2.04.17,1.8,0,3.63-.39,5.43-1.17,1.3-.56,2.58-1.25,3.82-1.92.52-.29,1.05-.57,1.58-.85.25-.13.5-.28.75-.42l.43-.25.05.07c.95,1.41,2.23,2.14,3.94,2.21.21.01.41.01.61.01h0c2.89,0,5.46-.95,7.64-2.81.39-.34.72-.75.92-1.15.12-.24.08-.71-.07-.89-.15-.19-.56-.25-.88-.25Zm-10.32-1.83c-.11-1.9,1.36-4.53,2.9-5.22.23-.1.48-.2.71-.2.25,0,.44.11.56.34.17.31.1.87-.07,1.18-.28.5-.68,1-1.15,1.46-.62.59-1.26,1.15-1.94,1.74-.28.25-1,.88-1,.88v-.18Zm11.36-67.1c-.22-.02-.44-.03-.66-.03-.5,0-.98.05-1.43.15-.43.1-.84.29-1.33.51-.24.11-.5.23-.78.35l-.19.08.58-1.53c.37-.98.71-1.87,1.05-2.76.25-.64.18-1.06-.24-1.35-.17-.12-.37-.18-.58-.18-.3,0-.57.13-.77.37-.32.39-.61.9-.84,1.47-1.24,3.14-2.63,6.49-4.39,9.63-.15.28-.32.56-.42.86-.22.63,0,1.33.51,1.62.2.11.41.17.62.17.37,0,.72-.18,1.02-.52.17-.19.31-.42.44-.64l.1-.16c2.04-3.22,4.3-5.12,7.11-5.98.13-.04.26-.1.38-.16.39-.21.75-.48.72-1-.04-.62-.52-.88-.91-.91Zm25.05-9.95c.07.02.14.03.22.03.56,0,1.14-.53,1.33-1.21.2-.72-.18-1.43-.85-1.62-.11-.03-.23-.05-.34-.05-.52,0-.93.36-1.09.96-.14.51-.1,1.02.11,1.39.15.26.36.43.62.5Zm23.07-1.98c.3,0,.69-.2,1.35-.68l.54.05c.08,0,.16.01.24.01.49,0,.77-.17.92-.55.24-.61-.09-1.07-.47-1.3-.53-.32-1.15-.55-1.75-.65-.09-.02-.19-.03-.27-.03-.73,0-1.11.56-1.29,1.03-.32.82-.24,1.56.22,1.91.18.14.33.2.5.2Zm163.68-3.46c.17-.19.23-.66.12-.88-.1-.21-.51-.39-.8-.41-.04,0-.07,0-.11,0-.29,0-.63.08-1,.23-.58.24-1.14.52-1.79.83l-1.06.51.24-1.16c.14-.68.27-1.3.39-1.93.15-.77-.1-1.32-.67-1.52-.12-.04-.23-.06-.35-.06-.5,0-.92.35-1.12.94-.15.42-.25.86-.35,1.29-.05.2-.09.4-.14.6l-.43,1.7c-.41,1.62-.82,3.24-1.22,4.86-.1.39-.18.85-.1,1.24.11.55.58.93,1.13.93.31,0,.61-.12.84-.35.15-.15.27-.36.38-.57.04-.08.08-.16.13-.23.1-.18.2-.36.3-.54.19-.36.39-.73.63-1.05,1.07-1.45,2.28-2.55,3.69-3.38.55-.32.99-.68,1.32-1.06Zm87.3,20.47c-.09-.02-.17-.03-.26-.03-.45,0-.81.32-1.02.9-.18.51-.3,1.03-.4,1.47-.27,1.23-.53,2.47-.79,3.7-.54,2.54-1.09,5.17-1.74,7.73-1.06,4.17-2.22,8.39-3.34,12.47-.52,1.9-1.04,3.8-1.57,5.76-.12.43-.24.87-.27,1.31-.03.51.22.91.7,1.13.21.1.41.14.6.14.27,0,.51-.1.71-.3.21-.2.38-.46.54-.72l.14-.22c.25-.38.5-.76.74-1.15.5-.78,1-1.55,1.53-2.31.16-.23.37-.4.64-.63.14-.11.29-.24.45-.39l.15-.13v.2c0,.19.01.35.02.48.01.26.02.44,0,.62-.08.58-.17,1.15-.26,1.73-.1.65-.2,1.3-.29,1.95v.09c-.07.4-.12.82-.02,1.17.09.31.38.71.65.78.04.01.09.02.15.02.28,0,.64-.15.8-.33.37-.42.63-.93.72-1.39.32-1.73.55-3.48.73-4.96.05-.44-.05-.93-.14-1.26-.28-1.06-.97-1.67-1.91-1.67-.31,0-.65.07-.99.21-.22.09-.43.18-.7.3l-.67.3.2-.75c.08-.29.14-.54.21-.78,2.34-8.42,3.85-14.92,4.91-21.08.07-.38.14-.76.21-1.15.12-.62.24-1.24.32-1.86.1-.72-.18-1.22-.76-1.35Zm-11.39-30.27c-.09,0-.18,0-.28,0-.66,0-1.33.13-1.88.36-.66.27-1.29.66-1.91,1.03-.28.17-.55.33-.83.49-.15.09-.31.17-.53.29l-.58.31.04-.19s.73-3.42.92-4.29c.18-.82-.02-1.31-.61-1.51-.13-.04-.26-.07-.39-.07-.45,0-.81.29-1.06.84-.22.51-.41,1.1-.59,1.85-.27,1.14-.53,2.28-.79,3.42-.17.74-.34,1.49-.51,2.23-.05.23-.12.45-.21.73-.05.15-.21.67-.21.67l-.11-.14c-.34-.45-.72-.66-1.19-.66-.31,0-.62.08-.94.16l-.34.09c-.49.12-.99.25-1.5.29-.08,0-.16,0-.23,0-.89,0-1.56-.4-1.93-1.15-.36-.73-.68-1.69.07-2.66.3-.39.6-.81.8-1.27.23-.52.48-1.12.54-1.73.04-.38-.07-.74-.3-1-.22-.25-.54-.39-.88-.39-.22,0-.44.06-.65.17-.38.21-.75.56-.97.93-.26.41-.47.87-.67,1.3-.13.28-.26.56-.4.83-.06.12-.12.25-.18.37-.19.41-.4.83-.72,1.12-.81.74-1.7,1.39-2.57,2.03l-.25.18c-.21.16-.46.25-.72.35-.12.04-.23.09-.35.14l-.1.04-.03-.1c-.02-.09-.05-.16-.07-.22-.04-.11-.06-.19-.05-.27.25-1.39.59-2.49,1.47-3.39.33-.34.64-.84.26-1.34-.23-.31-.53-.46-.9-.46-.14,0-.3.02-.46.07-.14.04-.3.12-.46.23-.17.12-.35.25-.47.41-1.27,1.66-1.9,3.28-1.91,4.95,0,.89.24,1.61.73,2.11.4.41.94.63,1.56.63.39,0,.8-.09,1.22-.26.71-.28,1.37-.72,2.01-1.14.26-.17.51-.34.77-.49.2-.12.39-.27.58-.41.09-.07.34-.26.34-.26l.05.07c1.55,2.13,2.85,3.04,4.34,3.04,1.09,0,2.32-.46,4-1.49h.08s.05.03.05.03l.07.07v.02c.05.1.09.21.11.32.19.92.42,1.21,1.05,1.32.08.01.15.02.22.02.45,0,.78-.25,1.22-.93.41-.64.92-1.37,1.52-1.99,1.36-1.39,2.92-2.54,4.64-3.42.47-.24,1.01-.53,1.43-.92.28-.26.39-.6.28-.89-.09-.27-.35-.44-.69-.46Zm19.81,54.11c-.11-.03-.21-.04-.31-.04-.59,0-1.03.55-1.37,1.73-.05.17-.09.34-.14.52-.05.18-.09.36-.15.54-.46,1.57-.92,3.15-1.38,4.72-.2.66-.1,1.07.31,1.38.16.12.36.18.57.18.32,0,.65-.15.9-.4.26-.26.47-.57.58-.86.28-.76.54-1.53.79-2.3l.3-.9-.04.08-.08-.02.22-.8c.15-.54.29-1.07.42-1.61.31-1.37.13-2.01-.61-2.21Zm.86-8.52c-.21-.07-.41-.1-.6-.1-.6,0-1.05.31-1.22.86-.1.33-.09.64.05.89.13.25.36.43.68.52.15.04.32.07.49.07.73,0,1.43-.39,1.6-.89.08-.25.07-.48-.03-.69-.15-.29-.48-.51-.96-.66Zm-56.48,19.3c-.19,0-.42.08-.68.25-.35.23-.7.46-1.05.7-.28.19-.56.38-.84.56-1.75,1.15-3.48,1.88-5.32,2.24-.33.06-.66.13-1.02.13-.41,0-.78-.09-1.16-.27l-.16-.08s1.08-.58,1.3-.7c1.67-.88,3.06-2.03,4.14-3.4.31-.4.73-1.02.95-1.77.23-.78.12-1.54-.3-2.14-.43-.61-1.14-.98-1.95-1.01-.08,0-.16,0-.24,0-1.56,0-2.97.65-4.33,1.98-1.14,1.12-1.74,2.52-2.37,4l-.24.55c-.61,1.42-.47,2.44.5,3.51l.06.06c.43.48.88.97,1.41,1.29.58.34,1.24.51,2.02.51.39,0,.81-.04,1.29-.12,2.71-.47,5.18-1.62,7.35-3.41.39-.33.71-.77,1.02-1.2l.14-.19c.24-.33.44-.83-.02-1.27-.15-.15-.32-.22-.5-.22Zm-10.27.44c.6-2.02,2.14-3.35,3.93-3.39h.18s-.1.14-.1.14c-.95,1.35-2.11,2.35-3.87,3.35l-.19.11.07-.21Zm44.59-4.45c-.12-.06-.29-.1-.47-.1-.2,0-.4.04-.54.12-.25.14-.47.35-.69.58-.14.14-.28.28-.43.41l-.36.29c-1.27,1.02-2.57,2.08-3.89,3.09-.26.2-.57.32-.92.47-.18.07-.37.15-.57.24l-.12.06v-.14c0-.2-.02-.38-.03-.54-.02-.32-.04-.58,0-.83.07-.44.16-.88.24-1.32.09-.42.17-.84.23-1.26.15-.97.62-1.46,1.64-1.72,1.21-.3,2.39-.77,3.54-1.23l.43-.17c.7-.28,1.18-.73,1.41-1.34.17-.44.22-.81-.06-1.15-.18-.21-.39-.31-.65-.31-.13,0-.28.03-.44.08-.23.08-.45.17-.67.27-.21.09-.42.18-.63.25-.63.22-1.26.43-1.96.66l-1.1.37.16-.6c.05-.21.09-.36.14-.51l.56-1.64c.32-.94.64-1.87.94-2.81.13-.41.2-.74.21-1.04.01-.41-.16-.9-.67-.96-.04,0-.08,0-.13,0-.33,0-.71.13-.95.33-.22.18-.33.51-.45.83l-.06.18c-.6,1.62-1.2,3.24-1.81,4.91l-.7,1.92h-.05c-1.68.31-3.67.62-5.71.62-.38,0-.75-.01-1.13-.03l-.34-.02c-.21-.02-.43-.03-.64-.03h-.1c-.65.02-1.07.33-1.2.88-.14.59.15,1.1.78,1.37.42.18.8.27,1.12.28.56,0,1.11.01,1.67.01.97,0,1.95-.01,2.92-.02h.26c.25,0,.51-.03.8-.06.15-.02.61-.06.61-.06l-.13.57c-.06.27-.11.49-.15.72-.04.25-.08.5-.12.75-.11.64-.22,1.3-.23,1.95-.01,1.19.28,2.12.85,2.7.42.42.96.64,1.6.64h0c.61,0,1.28-.19,2-.57,2.26-1.19,4.21-2.8,5.79-4.8.28-.35.49-.86.59-1.44.04-.25-.16-.71-.35-.81Zm-30.33-62.56c-.31-.05-.62-.16-.92-.33-.42-.24-.7-.34-.97-.34-.3,0-.59.13-1,.46-.2.15-.4.3-.6.46-.51.38-1.04.78-1.5,1.23-.55.53-.84.98-.87,1.35-.05.65-.29,1.19-.52,1.72l-.15.35c-.26.62-.51,1.25-.72,1.76l-.21.53c-.35,1.52-.49,2.69-.09,3.85.39,1.13,1.26,1.81,2.33,1.81.23,0,.48-.03.72-.1.63-.17,1.27-.46,1.83-.83,1.96-1.29,3.56-2.9,4.77-4.79.49-.77.87-1.68,1.06-2.57.26-1.2.12-2.25-.41-3.03-.54-.8-1.49-1.33-2.74-1.53Zm.66,5.07c-1.13,2.07-2.81,3.72-5.15,5.05-.08.05-.18.07-.33.1-.09.02-.21.05-.37.09l-.12.03v-.12c.01-.22.02-.43.02-.63,0-.4,0-.76.07-1.1.35-1.77,1.14-3.52,2.43-5.35.4-.57,1.56-.95,2.39-.95.32,0,.58.05.78.16.3.16.62.58.62.9,0,.51-.04,1.26-.34,1.82Zm103.64,43.97c-.48,0-.91.18-1.23.51-.38.39-.67.89-.96,1.38-.13.22-.26.45-.38.61-.03,1.1.23,1.71.88,2.12.27.17.57.26.87.26h0c.46,0,.92-.2,1.31-.59.41-.4.76-.9,1.05-1.34.62-.95.57-1.77-.12-2.4-.4-.35-.91-.56-1.41-.56Zm-2.59-54.2c-.16-.15-.32-.22-.51-.22-.27,0-.59.15-1.01.46l-.1.08c-.05.04-.1.08-.16.12-1.82,1.25-3.95,1.98-6.52,2.26-.11.01-.21.02-.32.02-.72,0-1.25-.32-1.63-.97l-.05-.09,1.15-.56c1.8-.85,3.18-1.75,4.33-2.81.39-.36.79-.75,1.07-1.19.48-.74.61-1.53.36-2.23-.25-.72-.87-1.26-1.73-1.52-.43-.13-.87-.2-1.31-.2-.66,0-1.33.15-2,.45-2.19.97-3.65,2.75-4.35,5.34-.13.48-.25.93-.69,1.32-.31.27-.46.55-.45.84.01.31.23.63.65.94.28.2.59.43.74.74.77,1.58,2.04,2.37,3.77,2.37.23,0,.46-.01.7-.04,2.48-.28,4.77-1.1,6.83-2.45.38-.25.74-.57,1.04-.91.55-.63.62-1.33.19-1.74Zm-9.97-1.33c.12-1.62,1.78-3.04,3.55-3.04.21,0,.42.02.62.06l.16.03-.11.12c-1.08,1.16-2.34,2.06-4.08,2.92l-.14.07v-.16Zm-233.41,93.07c-.27,0-.61.12-1.12.39-.24.13-.47.26-.7.38-.61.34-1.25.69-1.9.97-.98.42-1.97.63-2.94.63-.45,0-.91-.05-1.35-.14-.91-.19-1.18-.5-1.23-1.41-.02-.47.02-.95.06-1.42.02-.21.04-.42.05-.62v-.07s.51-.12.51-.12c.27-.06.5-.12.73-.18.45-.12.91-.24,1.36-.35,1.17-.3,2.37-.61,3.53-.99.74-.24,1.45-.75,2.02-1.15.42-.3.56-.78.36-1.26-.15-.36-.44-.54-.88-.54-.1,0-.2,0-.3.02-.53.08-1.06.21-1.58.34-.58.14-1.15.29-1.73.44-.68.18-1.36.35-2.05.52-.17.04-.36.06-.59.08-.13.01-.58.06-.58.06l.36-1.07c.22-.66.42-1.27.64-1.88.13-.38.27-.76.42-1.14.25-.67.51-1.36.72-2.05.2-.68,0-1.21-.55-1.47-.17-.08-.34-.12-.51-.12-.4,0-.77.23-1.07.66-.18.27-.35.59-.49.95-.69,1.71-1.36,3.42-2.06,5.18l-.66,1.66-.19.05c-.12.04-.24.07-.36.1-1.78.3-3.57.65-5.31,1-4.45.88-9.05,1.8-13.71,1.8h-.23c-.86,0-1.46.49-1.49,1.21-.03.72.48,1.24,1.37,1.39.12.02.25.03.41.03,0,0,.39,0,.39,0,.31,0,.62,0,.93.01.31,0,.62.01.92.01.54,0,1.25-.01,1.95-.12,3.22-.49,6.48-1.06,9.64-1.6,1.26-.22,2.52-.44,3.79-.65l1.34-.22v.63c.02.34.03.65.04.96.1,2.31,1.26,3.68,3.46,4.08.61.11,1.23.17,1.82.17,2.09,0,4.1-.69,5.99-2.04.34-.24.66-.58,1.03-1.08.54-.73.65-1.38.29-1.78-.16-.18-.33-.26-.55-.26Zm226.15-42.73c-.58-.5-1.23-.76-1.93-.76-.5,0-1.01.13-1.53.39-2.84,1.43-4.56,3.76-5.12,6.94-.14.82.02,1.55.46,2.09.44.53,1.11.82,1.91.82.23,0,.48-.03.72-.08.25-.05.49-.11.77-.18l.56-.13-.1.52c-.04.22-.07.41-.12.6l-.98,3.7c-.7,2.65-1.41,5.29-2.09,7.94-.19.74-.55,1.34-1.17,1.96-5.31,5.35-9.66,10.74-13.3,16.49-1.3,2.04-2.71,4.52-3.38,7.39-.32,1.35-.6,3.13.01,4.92.51,1.49,1.64,2.39,3.03,2.39.34,0,.69-.05,1.05-.16.72-.21,1.75-.61,2.53-1.31,1.26-1.12,2.34-2.29,3.22-3.49,1.95-2.67,3.32-5.7,4.45-8.34,2.14-4.99,3.66-10.16,5.04-15.02.46-1.64.95-3.08,2.25-4.17.46-.39.82-.96,1.04-1.35.21-.37.26-.69.14-.93-.12-.25-.42-.4-.86-.44-.04,0-.07,0-.11,0l-.56.02.78-2.96c.87-3.28,1.71-6.48,2.57-9.68.13-.49.32-.86.54-1.11.68-.72.88-1.61,1.09-2.56l.02-.09c.32-1.44,0-2.59-.94-3.41Zm-16.98,47.42c-1.04,1.7-2.06,2.92-3.21,3.84-.61.49-1.23.93-2.07.93h-.06l-.03-.03c-.6-.57-.58-1.29-.55-2.01.08-2.37,1.06-4.47,2.01-6.22,2.26-4.15,5.05-7.83,8.54-12.09.6-.73,1.21-1.44,1.83-2.15l.08-.09c.1-.12.22-.22.36-.35l.36-.33.02.18c0,.08.02.15.03.2.02.1.03.18,0,.25-1.74,5.92-3.84,12.18-7.31,17.85Zm15.35-44.24c-.82,1.49-2.11,2.6-3.94,3.38l-.15.06.03-.16c.35-2.04,2.16-4.1,3.96-4.5l.11-.02v.11c0,.12.02.25.04.37.04.29.07.56-.04.77Zm5.45-66.21c.34,0,.63-.21.79-.57l.21-.45c.43-.92.87-1.88,1.16-2.86.45-1.54.04-2.86-1.17-3.84-.58-.46-1.19-.69-1.89-.69-.61,0-1.26.18-2,.54-1.26.62-2.25,1.6-2.86,2.82-.69,1.37-1.39,2.85-1.84,4.4-.54,1.86-.99,3.78-1.43,5.64-.19.81-.38,1.62-.58,2.43l-.36,1.44-5.11.96c-.28.05-.58.11-.85.2-.64.23-1.01.8-.92,1.42.09.59.63,1,1.34,1,.31,0,.62-.06.92-.11l.13-.02c.78-.14,1.56-.28,2.39-.43l1.17-.21-.03.14c-.05.18-.08.34-.12.49-.07.3-.13.56-.21.8-.43,1.19-.86,2.38-1.29,3.57-.45,1.24-.9,2.48-1.34,3.73l-.2.57c-.83,2.31-1.68,4.7-2.47,7.07-.17.5-.23,1.1-.17,1.67.07.63.61.96,1.11.96h.01c.48,0,.78-.27.98-.87.08-.23.15-.46.22-.68.14-.43.28-.86.44-1.29.58-1.57,1.17-3.13,1.75-4.7.92-2.46,1.84-4.92,2.75-7.39.39-1.05.74-2.11,1.1-3.17.17-.49.52-1.52.52-1.52,0,0,.4-.09.57-.12.35-.07.68-.14,1-.24.98-.29,2.14-.64,3.3-1.03.66-.22.92-.58.8-1.1-.1-.43-.39-.61-.95-.61-.09,0-.18,0-.26.01-.63.04-1.26.1-1.9.17l-.58.06c-.23.02-.46.05-.7.08l-.44.05v-.1c0-.09-.01-.16-.02-.22,0-.11-.02-.18,0-.26.17-.7.32-1.41.48-2.11.41-1.79.83-3.65,1.33-5.45.33-1.19.84-2.45,1.57-3.84.34-.65.93-1.17,1.49-1.68l.11-.1c.3-.27.63-.41.94-.41.2,0,.39.06.57.18.55.36.5.99.39,1.49-.06.26-.14.52-.22.78-.06.2-.12.39-.17.59l-.08.29c-.12.46-.24.93-.3,1.4-.04.33,0,.91.66,1.09.09.03.18.04.27.04Zm-26.14-5.34l1.36-4.08.09.02.28-1.09c.26-1.02.52-2.04.76-3.07.11-.44.18-.87.2-1.28.04-.59-.22-1-.75-1.19-.14-.05-.28-.07-.41-.07-.37,0-.69.2-.89.55-.33.58-.59,1.18-.77,1.77-.13.45-.23.91-.33,1.37-.12.56-.25,1.15-.44,1.7-1.57,4.63-3.15,9.25-4.72,13.88-1.61,4.72-3.22,9.45-4.83,14.18-.96,2.84-1.86,5.76-2.65,8.34-.17.54-.26,1.17-.3,1.91-.03.73.34,1.29.92,1.41.08.02.15.02.22.02.47,0,.82-.36,1.05-1.06.42-1.27.84-2.53,1.25-3.8.71-2.16,1.42-4.32,2.14-6.48.8-2.37,1.61-4.73,2.42-7.1.73-2.12,1.45-4.23,2.17-6.35,1.08-3.19,2.15-6.38,3.21-9.58Zm52.13,18.93c-.06,0-.11-.01-.17-.01-.57,0-.88.36-1.13,1.28-.13.49-.36,1.02-.7,1.59-.18.3-.38.59-.58.87-.25.36-.52.73-.72,1.13-.13.26-.1.79.06.98.11.12.4.22.67.22.11,0,.21-.02.27-.05,1.74-.87,2.87-2.07,3.44-3.63.01-.09.02-.19.04-.28.03-.19.06-.39.05-.58-.02-.85-.51-1.44-1.24-1.52Zm-219.89,86.5c-.11,0-.22.01-.31.04-.3.09-.58.27-.86.45-.12.08-.24.15-.35.22-1.83,1.06-3.75,1.61-5.7,1.65h-.18c-.62,0-1.24-.11-1.57-.9l-.03-.07.07-.04c.35-.21.69-.41,1.03-.61.77-.45,1.5-.87,2.17-1.38.82-.63,1.54-1.36,2.08-2.14.6-.86.59-1.92-.05-2.89-.48-.74-1.18-1.11-2.09-1.11-.15,0-.31.01-.47.03-1.33.17-2.47.85-3.41,2.01-.71.88-1.21,1.92-1.55,3.18-.07.26-.16.52-.24.78l-.12.37-.04.05h-.04c-.8.26-1.57.5-2.34.5s-1.38-.23-1.97-.7c-.06-.05-.16-.08-.27-.11-.11-.03-.22-.04-.32-.04-.32,0-.61.14-.79.37-.17.23-.23.52-.15.82.1.39.36.82.69,1.13.7.64,1.59.97,2.67.97.13,0,.25,0,.38-.01.53-.04,1.06-.12,1.61-.2.25-.04.5-.08.76-.11h.06s.13.19.13.19c.07.1.15.21.2.32.59,1.2,1.63,1.84,3.08,1.92.21.01.42.02.62.02,2.43,0,4.75-.74,6.88-2.19.49-.34.86-.93,1.15-1.48.11-.2.02-.69-.15-.86-.1-.1-.33-.17-.57-.17Zm-8.71-1.76c.44-1.74,1.48-2.74,2.85-2.74.09,0,.17,0,.26.01h.11s-.03.12-.03.12c-.38,1.19-1.26,1.68-2.2,2.21-.28.16-.57.32-.85.5l-.19.13.06-.22Zm95.92-37.95c-.15-.06-.31-.09-.46-.09-.43,0-.82.24-1.11.69-.2.31-.36.63-.47.96l-.13.36c-.27.76-.55,1.54-.75,2.33-1.62,6.21-3.34,12.84-5.05,19.56-.37,1.44-.68,2.87-1.01,4.39-.15.7-.3,1.4-.47,2.07.04.14.07.28.1.43.07.35.15.71.3,1.03.21.43.67.71,1.17.71.13,0,.26-.02.39-.06.55-.18.8-.57.82-1.26.01-.47.08-.94.2-1.42.52-2.08,1.04-4.16,1.56-6.25.45-1.8.9-3.6,1.35-5.41.51-2.04,1.01-4.09,1.51-6.13.64-2.59,1.27-5.17,1.92-7.76.11-.45.25-.9.39-1.34.13-.42.27-.85.38-1.27.18-.71-.07-1.32-.65-1.54Zm-64.79-16.98c.22-.77.58-1.27,1.2-1.67,2.57-1.66,4.47-3.24,5.98-4.97.85-.98,1.53-1.96,2.02-2.92.63-1.26.75-2.6.33-3.78-.42-1.17-1.33-2.12-2.58-2.66-1.02-.45-2.07-.67-3.11-.67-.87,0-1.76.16-2.63.47-.76.27-1.42.8-1.84,1.21-.53.5-.69,1.25-.45,2.04.19.6.66.69,1.1.69.12,0,.24,0,.35-.01h.12s-2.01,7.99-2.01,7.99h-.05c-1.36.4-2.28,1.32-2.47,2.48-.14.85.22,1.43,1.2,1.94l.06.03-.06.34c-.03.17-.05.31-.09.45l-.98,3.33c-.94,3.23-1.89,6.46-2.86,9.68-.81,2.7-1.64,5.4-2.47,8.09-.53,1.73-1.06,3.46-1.59,5.19-.15.48-.23.89-.27,1.26-.08.76.23,1.28.84,1.43.1.02.19.04.29.04.44,0,.82-.28,1.09-.81.13-.25.24-.52.33-.79.41-1.28.82-2.55,1.23-3.83,1.01-3.11,2.05-6.33,3.01-9.51,1.28-4.24,2.51-8.58,3.69-12.77l.64-2.25Zm.46-12.9l.23-.21c.13-.12.23-.22.31-.32.17-.18.29-.31.45-.36.78-.27,1.49-.41,2.18-.41.85,0,1.65.21,2.39.63,1.07.6,1.35,1.54.83,2.72-.62,1.39-1.65,2.48-2.67,3.45-.52.49-1.07.96-1.61,1.41-.24.21-.77.66-.77.66l-.38-.24.12-.47c.08-.31.15-.62.24-.92.22-.81,1.15-4.11,1.15-4.11.04-.13.08-.27.1-.41.07-.53,0-.93-.22-1.19s-.6-.39-1.13-.39c-.26,0-.56.03-.9.09l-.31.06Zm-19.86,14.04c-.09-.09-.18-.17-.26-.27-.35-.43-.71-.87-1.06-1.3-.96-1.17-1.95-2.39-2.88-3.63-.76-1.01-1.01-2.01-.81-3.13.12-.67-.03-1.31-.42-1.79-.41-.51-1.04-.8-1.83-.81-.76,0-1.56.18-2.28.5-1.93.87-3.48,2.3-4.59,4.25-.41.72-.68,1.54-.77,2.32-.11.97.12,1.83.64,2.41.47.54,1.18.83,2,.83.32,0,.65-.05,1-.13,1.26-.33,2.42-1.01,3.75-2.23.2-.18.39-.36.6-.56l.39-.37.29.41c.15.21.28.4.43.59l.57.69c.83,1.01,1.69,2.06,2.57,3.06.51.59,1.15.94,1.91,1.04.11.01.21.02.31.02.43,0,.72-.16.9-.5.2-.38.12-.76-.27-1.19-.06-.07-.13-.13-.2-.2Zm-8.08-5.97c-1.23,1.55-2.53,2.43-4.07,2.77l-.1.02v-.11c-.14-2.02,2.6-4.92,4.87-5.17h.07s.02.06.02.06c.33,1.01-.26,1.75-.79,2.42Zm-18.75,59.67c-.61,0-1.24.19-1.88.55-.22.13-.43.26-.68.42l-.6.38.08-.58c.03-.21.05-.37.08-.52.12-.63.26-1.26.4-1.88.29-1.31.58-2.67.74-4.02.49-4.19.92-8.45,1.33-12.57l.41-4.09c.03-.27.02-.57-.03-.85-.09-.55-.4-.85-.92-.92-.06,0-.11-.01-.17-.01-.43,0-.77.22-.98.65-.12.24-.2.55-.25.91-.07.57-.15,1.14-.23,1.71-.22,1.64-.45,3.34-.61,5.02-.62,6.54-1.76,13.14-3.49,20.17-.31,1.25-.59,2.61-.9,4.28-.18.97.13,1.6.89,1.84.15.04.29.07.43.07.59,0,1.09-.41,1.4-1.15.07-.17.14-.35.2-.53.06-.17.12-.33.18-.5.84-2.02,1.69-3.44,2.74-4.6.44-.48.93-1.02,1.8-1.17h.08s.02.06.02.06c.04.13.08.25.12.36.08.25.16.48.2.72.1.65.18,1.33.24,2.07.04.45.06.9.09,1.35.03.53.06,1.07.11,1.6.06.62.36.98.91,1.06.07.01.14.02.21.02.45,0,.8-.22,1.06-.66.13-.23.22-.46.24-.67.25-2.47.1-4.45-.48-6.25-.46-1.44-1.47-2.27-2.77-2.27Zm-9.2-60.21c-.27-.27-.54-.54-.85-.85l-.53-.54.82-1.22c.59-.88,1.16-1.72,1.71-2.57.42-.65.79-1.24,1.05-1.88.29-.69.14-1.28-.42-1.61-.21-.12-.43-.19-.65-.19-.4,0-.77.22-1.04.6l-.16.23c-1.14,1.62-2.31,3.29-3.37,5-.87,1.42-.72,2.68.48,3.98.21.23.43.45.65.66.27.27.54.53.79.81.78.88.77,1.3-.04,2.06-1.44,1.35-3.2,2.42-5.55,3.35l-.05.02-.04-.04c-.09-.08-.17-.16-.24-.24-.15-.16-.28-.29-.42-.33-.11-.03-.33-.07-.55-.07s-.37.04-.45.11c-.59.51-.79,1.26-.58,2.1.18.71.71,1.16,1.39,1.18h.13c.78,0,1.53-.11,2.17-.33,1.91-.65,3.74-1.67,5.44-3.03,1.41-1.13,2.15-2.3,2.21-3.48.06-1.19-.58-2.45-1.89-3.74Zm63.42,28.73c-.11-.04-.23-.06-.33-.06-.49,0-.9.37-1.18,1.08-.2.51-.36,1.04-.48,1.44-.63,2.13-1.27,4.26-1.9,6.39-1.67,5.61-3.4,11.4-5.03,17.12-.72,2.52-1.3,5.13-1.87,7.65-.16.71-.32,1.42-.48,2.13-.11.5-.12,1.1-.02,1.69.1.57.56.96,1.12.96.04,0,.08,0,.12,0,.54-.06.84-.4.96-1.12l.13-.81c.15-.94.31-1.91.56-2.85.99-3.66,2-7.31,3.12-11.34l1.38-4.99.39-1.29c.41-1.34.93-3.07,1.44-4.81.69-2.38,1.35-4.77,2.02-7.15l.65-2.32c.18-.64.22-1.45-.6-1.71Zm41.64,16.42c-.12-.02-.24-.03-.36-.03-.28,0-.57.05-.85.09l-.25.04c-.32.05-.64.13-1,.21-.17.04-.7.16-.7.16l.06-.16c.05-.12.08-.22.11-.31.05-.16.09-.28.16-.38.26-.4.52-.74.77-1.06.41-.5.46-.94.17-1.39-.19-.3-.56-.5-.92-.5-.18,0-.35.04-.5.13-.42.22-.99.6-1.36,1.13-.64.93-1.18,1.91-1.8,3.1-.29.56-.66.88-1.22,1.07-1.39.47-2.81,1.01-4.06,1.47-.31.12-.7.28-1.04.52-.49.34-.69.89-.51,1.42.17.52.67.88,1.22.88.04,0,.09,0,.13,0,.36-.04.73-.16,1.09-.28l.15-.05c.5-.16.99-.33,1.54-.53l.85-.3-.04.6c-.01.21-.02.36-.03.52-.08,2.09.98,3.95,2.64,4.62.43.17.96.26,1.54.26,1.66,0,3.45-.71,4.27-1.7.04-.05.08-.09.11-.14.21-.33.25-.67.12-.95-.12-.26-.38-.41-.72-.44-.08,0-.16-.01-.24-.01-.35,0-.71.06-1.06.12l-.17.03c-.26.04-.51.1-.76.16-.37.09-.76.18-1.15.21-.07,0-.14,0-.21,0-.9,0-1.46-.54-1.51-1.44-.03-.54.1-1.1.21-1.63.05-.21.09-.41.13-.62.11-.59.46-.96,1.13-1.17,1.26-.4,2.32-.75,3.37-1.15.4-.15.97-.4,1.34-.79.22-.24.35-.79.24-1.08-.11-.29-.56-.58-.89-.65Zm-17.35,8.66c-.1,0-.21.01-.33.04-.44.11-.88.25-1.32.39-.28.09-.57.18-.85.26-.35.1-.71.19-1.05.28l-.5.13-.03-.06c-.6-.99-.62-1.16-.3-2.3v-.05s.95-.33.95-.33c.73-.25,1.47-.51,2.21-.8.56-.22,1.06-.49,1.49-.81.44-.32.57-.78.36-1.24-.21-.46-.59-.56-.87-.56-.07,0-.14,0-.21.02-.47.07-.95.2-1.41.33l-.47.12c-.26.07-.51.14-.81.22l-.66.19.05-.16c.05-.18.09-.33.13-.46.07-.24.12-.43.19-.6.18-.41.36-.81.54-1.21.21-.46.42-.92.61-1.38.26-.6.14-1.14-.32-1.45-.18-.12-.37-.17-.57-.17-.31,0-.63.14-.89.41-.19.18-.36.42-.5.67l-.07.13c-.27.49-.55.99-.77,1.51-.36.87-.69,1.75-1.03,2.62l-.39,1.03-.07.07-.02.02s-.09.07-.15.08l-1.58.5c-.82.25-1.63.51-2.45.77l-.14.05c-.39.12-.8.25-1.16.43-.63.31-.91.83-.75,1.39.14.49.58.8,1.12.8.08,0,.16,0,.24-.02.66-.11,1.32-.29,1.95-.46l.45-.12c.45-.12.89-.25,1.35-.39l.74-.22.13.59c.07.32.12.6.2.87.42,1.53,1.46,2.41,2.83,2.41h.02c1.66,0,3.2-.67,4.58-1.98.37-.35.47-.71.29-1.08-.15-.32-.41-.49-.77-.49Zm-11.84-54.9c.15-.11.3-.22.45-.33l.27-.19s.29.24.4.33c.22.18.42.35.64.5,1.29.89,2.39,1.29,3.56,1.3.44,0,.87-.07,1.06-.56.18-.47.01-.86-.49-1.18-.45-.28-.92-.54-1.39-.79l-.49-.27c-.89-.49-1.48-1.08-1.86-1.84-.17-.34-.39-.66-.61-.97-.1-.14-.2-.29-.31-.41l-.16-.03-.03-.62c-.08-1.54-.96-2.5-2.28-2.5-.29,0-.6.05-.92.14-.61.17-1.27.49-1.91.93-1.3.88-2.27,2.08-2.86,3.56-.39.97-.61,1.88-.65,2.7-.05.89.19,1.63.69,2.17.46.49,1.09.75,1.83.75.28,0,.58-.04.88-.12.64-.16,1.25-.42,1.76-.75.59-.38,1.15-.82,1.7-1.24.24-.19.49-.38.73-.56Zm-4.9-.02h-.09s0-.08,0-.08c-.19-2.02,1.59-4.42,3.65-4.95l.06-.02.71,1.06.22.38c-.33,1.48-2.92,3.54-4.55,3.61Zm-1.29,46.63c-.18-.05-.36-.08-.53-.08-.58,0-1,.33-1.15.9-.23.84.14,1.67.81,1.86.09.03.19.04.29.04.63,0,1.24-.53,1.44-1.27.2-.7-.11-1.23-.86-1.45Zm-1.58,5.24c-.13-.05-.26-.08-.4-.08-.44,0-.85.28-1.11.75-.11.2-.18.43-.23.59-.77,2.73-1.54,5.46-2.31,8.19-.11.39-.18.73-.22,1.05-.09.68.21,1.21.76,1.37.09.03.18.04.27.04.44,0,.83-.3,1.08-.83.12-.27.23-.54.31-.8.51-1.69,1.01-3.39,1.51-5.08l.42-1.42-.06-.02.2-.76c.14-.51.27-1.02.39-1.54.15-.7-.07-1.23-.6-1.46Z"/>
  </g>
</svg>