<?xml version="1.0" encoding="UTF-8"?>
<svg id="_圖層_1" data-name="圖層 1" xmlns="http://www.w3.org/2000/svg" viewBox="0 0 965.52 244.16">
  <defs>
    <style>
      .cls-1 {
        fill: #e76751;
        stroke-width: 0px;
      }
    </style>
  </defs>
  <path class="cls-1" d="m308.69,57.38c-.99,0-2,.19-2.85.53-3.1,1.26-6.34,2.71-8.93,5.36-.29.3-.67.51-1.05.73-.22.12-.44.25-.64.39-.15.11-.29.24-.44.36-.38.34-.78.7-1.4.81l-.27.05.03-.27q.63-6.39-.5-8.37l-1.36-.63c-.96.24-1.41.89-1.85,1.66-.37.65-.41,1.32-.45,2.04-.02.36-.04.73-.11,1.1-.12.66-.26,1.32-.41,1.99-.28,1.3-.57,2.65-.7,3.98-.17,1.77-.64,3.46-1.07,4.91-.37,1.25-.64,2.54-.92,3.83-.12.55-.23,1.09-.36,1.48l1.05,2.24,2.58.23c.09-.12.2-.24.33-.41.33-.41.68-.83.96-1.3.24-.4.45-.85.66-1.3.32-.7.66-1.42,1.15-2.02,2.4-2.92,4.81-5.74,7.83-8.13,2.16-1.71,4.78-3.64,7.83-5.04,1.62-.74,2.65-1.69,3.14-2.83-.29-1.25-1.3-1.42-2.26-1.43Zm29.78,95.01c-1.13-.24-2.32-.47-3.39-.47-.73,0-1.38.1-1.98.32-2.29.82-4.72,1.76-6.92,3.17-.56.36-1.15.64-1.78.95-.3.15-.62.3-.95.47l-.26.13-.04-.28c-.04-.25-.09-.48-.14-.74-.11-.51-.2-.95-.13-1.4.28-1.83.19-3.76-.24-5.71-.05-.21-.09-.43-.14-.69-.22-1.2-.45-2.43-1.73-3.08h-.3s-1.37-.08-1.37-.08l-1.49,1.55c.03.2.06.39.08.58.06.45.12.88.26,1.27.42,1.08.44,2.21.46,3.3l.02.63c.01.38-.05.76-.11,1.17-.03.19-.06.38-.08.57-.07.66-.12,1.32-.18,2.02-.12,1.45-.25,2.94-.47,4.41-.16,1.1-.52,2.15-1.01,2.96-1.12,1.83-2.19,3.81-1.88,6.04,1.04,1.05,1.05,1.06,2.65,1.61,1.77-.82,2.7-1.88,3.01-3.44.14-.68.41-1.34.68-1.97l.16-.39c.17-.41.36-.88.71-1.17l.67-.57c1.23-1.04,2.5-2.11,3.85-3.03,4.13-2.8,7.77-4.39,11.37-4.95l1.38-2.22-.29-.36-.41-.58Zm-98.08,33.28c.57-.52,1.16-1.06,1.83-1.45,1.78-1.02,2.89-2.68,3.96-4.28l.39-.57c1.61-2.37,2.54-4.66,2.84-6.99.21-1.63-.04-4.69-1.06-5.98-.7-.88-1.49-1.72-2.13-2.4-.26-.27-.49-.52-.64-.7l-7.56-4.39-.05-.12.02-.08c.09-.28.15-.55.22-.82.13-.52.24-.96.49-1.34.94-1.41,1.97-2.8,3.05-4.12.8-.98,1.68-1.96,2.46-2.82.35-.39.71-.78,1.06-1.18,2.07-2.32,4.13-4.64,6.2-6.96.47-.53,1.97-2.2,2.25-2.51l-1.15-2.25-2.56.41c-.82.86-1.66,1.73-2.54,2.64-1.94,2.01-3.95,4.08-5.83,6.25l-.19.22c-2.64,3.05-5.37,6.2-7.37,9.69l-.46,1.78-.26.9.37,1.93c2.17,2.94,5.22,4.53,7.66,5.6l2.04,1.78.76.71.57,1.98.14.62-1.94,5.1c-2.65,3.36-6.4,7.43-11.93,9.08l-1.16-.72-.76-.55c-1.4.39-1.7,1.41-2.02,2.48-.05.19-.11.38-.16.44.32,1.32,1.16,2.31,2.67,3.1.27-.02.54-.03.82-.04.62-.02,1.2-.04,1.72-.22l.7-.24c2.29-.78,4.66-1.59,6.62-3.17.31-.25.61-.52.93-.82Zm40.01-113.56l-.09.03c-1,.39-2.03.89-3.36,1.62-2.76,1.52-5.47,2.26-8.29,2.26-.19,0-.38,0-.71-.08-.16-.18-.46-.26-.78-.33-.55-.13-1.23-.29-1.55-1.09l-.08-.19.19-.08c4.67-1.93,8.77-3.86,11.62-7.9l.28-.96.42-1.33-.67-2.38-1.23-1.12-1.24-1.17-2.41-.55c-2.37.1-4.21,1.17-6,2.2-.32.18-.63.36-.9.5-2.22,2.4-4.48,5.02-5.64,8.43l-1.72,1.08-.02,2.4,1.62,1.18.58,1.23.96,2.09,3.08,2.11c1.59.44,3.17.67,4.69.67,4.61,0,9.03-2,13.87-6.23l.29-2.4c-.4-.27-.81-.4-1.25-.4-.57,0-1.12.22-1.67.43Zm-13.98-4.2c.93-2.47,2.91-3.52,5.03-4.47l.1-.05.98.68.04.12-.03.07c-.02.06-.04.12-.05.18-.03.13-.06.25-.16.35-1.56,1.54-3.17,3.13-5.71,3.4l-.33.03.12-.31Zm39.4,86.63c-1.09-.73-2.38-1.56-3.9-2.08-.74-.25-1.46-.37-2.2-.37-1.25,0-2.54.34-4.17,1.11-.84.39-1.38,1.12-1.57,2.09l-.05.25c-.17.89-.34,1.82-.82,2.56-.62.96-.9,2.03-1.18,3.07l-.16.59c-.15.54-.2,1.1-.25,1.75-.03.31-.06.64-.1.9l.59,2.39,2.51,2.34c.55.04,1.06.07,1.55.07,2.57,0,4.62-.63,6.64-2.05,2.44-1.71,4.82-3.75,5.69-6.97-.17-2.82-.97-4.56-2.59-5.65Zm-1.94,5.29c-1.77,1.98-3.43,3.84-6.33,4.68l-1.24-.54-.06-.08v-.06c-.31-2.16.59-3.88,1.46-5.55.27-.52.55-1.06.81-1.65l.08-.06h.06c.26-.03.51-.04.75-.04,2.07,0,3.4.86,4.61,3.03l.04.06-.18.2Zm-22.4-4.9l-2.05-1.97-.36-.36-2.77-1.01-.18-.07.03-.08-4.59-.41.45-3.57c-.24-.88-.91-1.37-2.24-1.61l-1.63,1.5h-.05s-1.38,4.71-1.38,4.71l-.35.17c-2.19,1.07-4.46,2.18-5.06,4.91l-.05,2.2.61.41.78.59,2.22-.31-2.75,10.39-.06.07-.05.02c-.36.15-.71.32-1.06.49-.79.39-1.54.75-2.34.83-.19.02-.37.03-.56.03-.71,0-1.43-.13-2.19-.26l-.17-.03-.97-.2c-.95.56-.93,1.58-.83,2.55l.89,1.68.11.28,1.31.33,1.28.34,2.48-.49-.03.27c-.02.27-.03.53-.04.77-.02.51-.03.95-.18,1.37-.44,1.26-.91,2.51-1.38,3.76-.36.94-.71,1.89-1.06,2.83-.5,1.4-.99,2.81-1.49,4.22l-.07.19c-.52,1.49-1.04,2.97-1.57,4.45-.73,2.02-1.61,4.41-2.58,6.8-.47,1.14-.98,2.29-1.47,3.39-.46,1.02-.91,2.04-1.34,3.08-.44,1.07-.85,2.15-1.26,3.22-.46,1.22-.99,2.61-1.55,3.92-.54,1.25-1.13,2.51-1.71,3.72l-.04.08c-.51,1.09-1.04,2.2-1.53,3.32-.61,1.41-1.2,2.9-1.72,4.21l-.06.16c-.31.79-.62,1.58-.94,2.36-.46,1.12-.95,2.3-1.49,3.45-.28.59-.59,1.17-.89,1.75l-.06.11c-.35.67-.71,1.34-1.02,2.02-.58,1.25-1.13,2.51-1.7,3.85l-.04.1c-.27.61-.54,1.24-.8,1.81v.1c-.04.96-.08,2.06,1.06,2.74.29.05.54.07.78.07.85,0,1.57-.28,2.24-.85l5.02-10.57c1.1-2.32,2.25-4.72,3.31-7.1.67-1.5,1.28-3.09,1.83-4.49l.08-.2c.29-.74.58-1.48.87-2.21.46-1.13.92-2.22,1.38-3.24.28-.62.56-1.23.88-1.9.39-.83.77-1.66,1.14-2.49,1.02-2.36,2.01-4.72,3-7.09.11-.26.38-.89.38-.89.39-.89.79-1.81,1.03-2.76.29-1.19.76-2.32,1.23-3.45.45-1.09.92-2.22,1.21-3.39.4-1.61,1.05-3.19,1.68-4.72.36-.89.74-1.8,1.07-2.72.53-1.51,1.01-3.06,1.47-4.55l.53-1.71c.32-1.03.64-2.05.99-3.22l.18-.59.73-2.22.51-.36c.51-.36,1.16-.81,1.83-1.25.57-.37,1.15-.73,1.73-1.08,1.17-.71,2.38-1.45,3.42-2.33.49-.41.99-.81,1.55-1.24,1.71-1.34,3.48-2.72,4.59-4.71.17-.3.45-.51.68-.68.07-.06.15-.11.16-.11,0,0,0,0,0,0l.33-.77,1.11-2.52-.11-.85-.35-2.97Zm-4.22,3c-1.62,3.34-4.39,5.47-7.33,7.73l-.2.15c-.41.32-.83.64-1.25.97l-.41.33.08-.52c.38-2.31.87-4.41,1.35-6.44.34-1.44.66-2.8.96-4.33l.1-.08h.08c.24-.01.48-.03.79-.04.41-.03.82-.05,1.22-.05.19,0,.39,0,.58.02.56.04,1.1.17,1.72.31.24.05.49.11.85.22l1.47,1.56.02.12-.03.06ZM76.75,87.27l1.01-.17c.48-.36,1-.72,1.53-1.1,1.25-.88,2.55-1.78,3.68-2.88,1.51-1.45,3.17-3.26,4.03-5.59l-.42-1.85-1.44-1.02c-.21.12-.43.23-.64.35-.55.29-1.07.56-1.49.94-1.38,1.24-2.54,2.42-3.56,3.62-1.03,1.21-2.29,1.96-3.87,2.71l-.2.1-.39-1.08c-.21-.59-.42-1.16-.65-1.72-.16-.41-.3-.83-.44-1.28-.31-.98-.63-1.99-1.34-2.76-.53-.57-1.11-1.07-1.68-1.56-.25-.22-.5-.43-.59-.58h-1.21s-1.59-.03-1.59-.03l-3.81,1.57v-.32c.03-.72.12-1.42.2-2.11.19-1.57.37-3.04-.17-4.45-.55-.6-1.28-.86-2.38-.86-.18,0-.38,0-.58.02-.08.12-.16.25-.26.39-.25.36-.52.77-.63,1.19-.31,1.29-.51,2.64-.7,3.94l-.07.5c-.65,4.43-2.29,8.66-3.87,12.76l-.19.45.07,1.37v.48s.23.31.23.31c.21.26.43.54.67.8.06.06.17.11.35.2.1.04.21.1.35.16l2.41-.68c.18-.4.35-.78.55-1.22.37-.81.73-1.58,1.03-2.37,1.06-2.76,3.08-5.03,6.18-6.91.31-.19.72-.2,1.1-.21.15,0,.29-.01.51-.04h.08s.3.77.3.77c.18.46.34.88.48,1.31.06.19.08.38.09.57.01.18.03.34.07.49,1.03,3.21,2.11,5.7,5.74,6.1l1.52-.29Zm154.69-5.64l1.87.98,1.85-.79.5-.82c2.41-3.95,4.68-7.69,8.35-10.71l.19-.16.12.22c.69,1.31.4,2.46.11,3.58-.1.4-.2.77-.25,1.16-.06.43-.14.87-.23,1.33-.28,1.43-.54,2.78.09,4.07l1.12.84c1.56-.35,2.5-1.42,2.85-3.26.14-.71.3-1.42.47-2.17.61-2.65,1.24-5.38.61-8.28q-.76-1.49-2.22-2.45c-.28-.05-.57-.07-.84-.07-1.81,0-3.35.96-4.97,1.97-.34.21-.68.43-1.03.63l-.42.25,1.63-6.76c.21-.85.41-1.71.63-2.56l1.78-7.01.59-2.35c.35-1.41.71-2.82,1.07-4.23.2-.78.41-1.56.64-2.38.33-1.18.65-2.37.93-3.56.24-1.01.46-2.03.67-3.07.24-1.17.5-2.37.79-3.55.53-2.12,1.13-4.25,1.72-6.32l.48-1.72c.43-1.54-.01-2.65-1.39-3.5l-.49.22-1.43.57c-.18.5-.37,1.01-.55,1.52l-.06.16c-.46,1.25-.94,2.53-1.33,3.84-.62,2.09-1.19,4.23-1.77,6.37-.24.91-.49,1.83-.74,2.74l-.83,3.01c-.64,2.31-1.28,4.63-1.89,6.95-.26.99-.48,1.99-.7,2.98-.22,1-.44,2-.7,3-.57,2.17-1.16,4.33-1.76,6.49-.33,1.22-.67,2.43-1,3.65-.14.5-.26,1.01-.38,1.51-.17.69-.34,1.39-.54,2.07-.96,3.32-1.95,6.63-2.94,9.93-.26.87-.54,1.73-.83,2.61l-.39,1.07.34,1.02.26.97Zm-75.43,5.56c2.72-4.56,5.45-8.26,8.61-11.66.32-.17.65-.4,1.01-.65.83-.58,1.77-1.24,3.12-1.53l.21-.05.04.21c.65,3.65.29,7.17-.06,10.58-.11,1.03-.21,2.06-.31,2.99.52,1.19,1.36,1.77,2.64,1.81l1.05-1.15.51-.49c.01-.16.01-.32.02-.53,0-.4.02-.82.11-1.22.9-3.89,1.14-7.15.76-10.26-.12-1.02-.37-2.09-.75-3.29-.49-1.54-1.88-2.12-3.22-2.67l-.34-.16c-3.46.02-5.8,2.14-8.52,4.59l-1,.9.29-1.43.92-4.33-.53-1.05-.3-.68-1.5-.71c-1.53.31-2.2,1.52-2.32,2.56-.11,1-.37,1.96-.63,2.9-.23.86-.48,1.75-.58,2.63-.2,1.65-.67,3.24-1.14,4.81-.25.85-.52,1.74-.72,2.62-.06.24-.12.49-.2.77-.39,1.43-.8,2.92.35,4.28l2.49.22Zm211.01,35.01l-.35-1.73-1.59-.61c-.13.13-.27.25-.43.39-.37.33-.72.65-.97,1.03-.44.67-.83,1.38-1.22,2.08-.25.45-.5.9-.76,1.35-1.7,2.88-3.1,5.62-4.28,8.39-.32.75-.67,1.5-1.01,2.24-.21.46-.42.91-.63,1.37-.2.45-.4.9-.59,1.36l-.05.13c-.4.92-.84,1.95-1.33,2.92-.27.52-.47,1.07-.68,1.64-.44,1.18-.89,2.4-2.05,3.52l-.71.05c-.56.04-1.16.09-1.77.12-.64.03-1.27.04-1.97.05l-.86-.02-1.87,1.4.24,1.26.13.89,1.1.61.78.45,3.66.12.1.09v.09c.02.12.05.23.08.37.06.29.12.57.01.82-.66,1.51-.72,3.13-.78,4.69-.01.29-.02.57-.04.86-.06,1.18.14,2.41.55,3.47,1.14,2.89,2.63,4.24,5.5,4.98.79.2,1.55.3,2.28.3,1.05,0,2.04-.21,2.96-.64,1.34-.62,2.58-2.46,2.58-3.74l-1.02-1.43-3.63,1.13-.74-.02-1.59-.11-2.05-2.38c-.42-3.27.15-6.04.77-8.35.45-.77,1.21-1.23,2.32-1.43,2.92-.51,5.48-1.47,7.82-2.89l.98-1.72-.35-.48-.44-.72c-.22-.02-.43-.02-.64-.02-1.19,0-2.35.25-3.48.49-1.16.25-2.36.5-3.63.5h-.55s.1-.28.1-.28c2.61-6.95,5.73-13.94,10.1-22.6ZM65.21,1.63l-1.2-1.11c-.19.04-.38.08-.56.12-.4.08-.79.16-1.15.29l-1.56.52c-2.03.67-4.13,1.36-6.16,2.14-.47.18-.89.27-1.3.27-.44,0-.86-.1-1.34-.31-.49-.22-1.03-.38-1.51-.52-.19-.06-.39-.12-.53-.18l-.54.27-1.45.7-.63.91-1.12,1.54c-8.82,2.89-16.14,4.7-22.98,5.65l-1.28,2.11.17.43c.14.36.27.68.42.99.07.15.17.29.31.48.06.08.12.17.16.25.31.05.62.11.95.18.5.11.96.21,1.4.21.14,0,.28-.01.41-.03,3.49-.6,6.94-1.35,9.85-1.99,1.66-.37,3.25-.79,4.94-1.23l2.6-.67-1,3.33c-.63,2.11-1.25,4.16-1.85,6.22l-.14.49c-.61,2.07-1.29,4.41-1.9,6.67-.29,1.11-.55,2.22-.81,3.33-.22.96-.45,1.93-.69,2.89-.64,2.49-1.26,4.78-1.89,6.98-.52,1.79-1,3.73-1.48,5.92-.29,1.32-.7,2.63-1.11,3.93-.27.86-.55,1.74-.79,2.62-.42,1.55-.81,3.11-1.2,4.67l-.02.1c-.38,1.53-.76,3.06-1.17,4.58-1.14,4.27-2.32,8.53-3.49,12.67-.84,2.95-1.73,5.87-2.65,8.85-.2.66-.46,1.31-.72,1.98-.12.3-.24.6-.47,1.01l-6,2.14-1.2.42c-1.02.36-2.08.73-3.1,1.14-.96.38-1.91.78-2.9,1.2-1.63.69-3.32,1.41-5.02,1.99-1.7.59-2.78,1.48-3.48,2.83l.57,1.97,2.5.88c.43-.13.87-.26,1.29-.38.99-.29,1.93-.56,2.86-.9,2.47-.9,4.93-1.87,7.32-2.81l.46-.18c.81-.32,1.61-.65,2.42-.98l.13-.05c.9-.37,1.81-.74,2.71-1.1,1.32-.52,2.65-1.02,4.04-1.55,1.73-.66,3.47-1.32,5.2-2.01l.59-.23c4.09-1.62,8.32-3.3,12.44-5.04,2.1-.88,4.26-1.91,5.58-3.78.15-.92-.03-1.67-.5-2.2-.48-.1-.98-.15-1.48-.15-1.09,0-2.23.22-3.59.69-2.64.91-5.26,1.93-7.8,2.92-1.37.53-2.75,1.07-4.13,1.59-.35.13-.71.17-1.14.22-.2.02-.41.05-.64.09l-.27.04.03-.27c.02-.19.04-.35.05-.5.02-.26.04-.45.1-.65.28-.89.56-1.77.86-2.7.4-1.25.8-2.5,1.18-3.76.33-1.09.63-2.19.93-3.29l.43-1.56c.17-.6.54-1.91.54-1.91.4-1.4.8-2.8,1.16-4.21.39-1.53.76-3.06,1.14-4.64.36-1.5.73-3.01,1.11-4.51.3-1.16.62-2.32.96-3.54.34-1.21.67-2.43.98-3.65.37-1.47.72-2.95,1.06-4.43.34-1.45.68-2.9,1.04-4.34.49-1.96,1.01-3.91,1.53-5.87.3-1.14.61-2.29.91-3.43.2-.78.4-1.57.59-2.36.33-1.31.67-2.67,1.04-4.01,1.09-3.87,2.02-7.01,2.92-9.89.1-.32.19-.63.3-.99.47-1.61.97-3.28,2.13-4.62.86-.31,1.73-.61,2.59-.91l.1-.03c4.42-1.54,8.6-2.99,12.65-5.33l.32-2.63Zm299.08,69.51c1.33,1.28,2.78,2.15,4.31,2.57,1.74.49,3.41.72,5.1.72.49,0,.99-.02,1.47-.06,4.11-.34,7.49-2.05,10.62-5.31-.02-.12-.03-.23-.05-.35-.03-.2-.05-.38-.1-.54-.08-.23-.18-.44-.29-.65l-.07-.14c-1.73.02-3.08.34-4.96,1.17-2.4,1.06-4.06,1.46-6.13,1.46-.48,0-.96-.02-1.49-.06-3.39-.27-6.02-2.34-7.04-5.52-.18-.58-.2-1.21-.22-1.82,0-.27-.02-.54-.03-.89l.16-.49c.11-.33.22-.65.33-.98.14-.4.26-.8.39-1.22.28-.94.57-1.91,1.09-2.73.84-1.33,1.91-2.53,2.94-3.7l.68-.77c1.26-1.45,2.78-2.74,4.92-4.21,1.55-1.06,3.15-2.16,5.09-2.99l1.41.43c1.02-.33,1.37-1.05,1.77-1.89.06-.12.12-.24.18-.37l-1.06-1.43-.62-.94c-.49-.07-.96-.11-1.41-.11-1.65,0-3.1.49-4.56,1.56-1.33.97-2.75,1.84-4.12,2.68l-.55.34c-2.06,1.27-3.72,3.04-5.33,4.77l-.85.91c-.74.78-1.49,1.63-2.01,2.57-.85,1.54-1.82,3.29-2.41,5.11-.59,1.83-1.14,4.01-.69,6.28.54,2.71,1.66,4.82,3.53,6.61Zm344.38-15.82l.54.05c.12-.12.27-.24.46-.39.35-.29.75-.61.95-1.01,1.24-2.45,3.03-4.46,4.77-6.4,1.4-1.57,2.83-2.62,4.37-3.23l.18-.07.08.17c.6,1.25.47,2.49.34,3.68l-.04.36c-.07.7-.1,1.44-.13,2.1-.05,1.31-.11,2.67-.45,3.95-.32,1.22-.15,2.2.04,3.33v.07s2.05.75,2.05.75c1.07-.74,1.1-.8,1.46-1.51l.07-.14c.64-1.25.85-2.62,1.06-3.96l.12-.79c.62-3.97,1.26-8.07-1.06-11.65l-.3-.15c-1.13-.57-1.87-.94-2.82-.94s-2.05.37-3.78,1.23l-.32.16.02-.35c.01-.15.01-.29.01-.46,0-.33,0-.64.1-.93.43-1.2.87-2.39,1.32-3.58l.05-.13c.33-.89.67-1.78.99-2.67l.34-.92c.64-1.73,1.29-3.52,1.87-5.3.68-2.1,1.34-4.21,2-6.32.36-1.17.73-2.33,1.09-3.5l.13-.41c.26-.83.53-1.68.86-2.5.29-.7.62-1.38.97-2.09.13-.26.26-.52.37-.7-.47-1.27-1.23-2.07-2.33-2.51-1.39.31-2.32,1.15-3.03,2.71-.86,1.9-1.58,3.94-2.27,5.93-.68,1.94-1.33,3.89-1.98,5.83l-.06.18c-.44,1.33-.89,2.65-1.34,3.98-.21.62-.44,1.23-.67,1.85l-.04.12c-.22.59-.43,1.17-.64,1.76-.29.84-.57,1.68-.85,2.52-.49,1.48-.99,3.01-1.56,4.51-.93,2.47-1.95,4.95-2.93,7.37l-.91,2.24c-.42,1.05-.86,2.1-1.31,3.16l-.08.19-.66,1.5c.32,2.7.41,2.91,2.93,2.91Zm-520.8,12.19c-1.59,0-3.06.38-4.12,1.01l-.26.76c-.17.49-.36,1.05-.55,1.61-.06.17-.1.34-.14.52-.07.31-.16.67-.33.98-2.12,3.73-2.31,7.04-.66,10.36l3.08,1.55c5.86-.09,9.62-3.86,12.22-7.1l.68-2.75-.46-2.15c-1.85-2.82-5.74-4.79-9.46-4.79Zm3.01,9.58l-.32.22c-1.27.92-2.83,1.86-4.79,1.88l-.1-.09v-.09c-.37-2.49.38-4.78,2.24-6.81.45-.2.87-.29,1.28-.29.95,0,1.63.53,2.3,1.04.34.27.67.52,1.13.81.53,1.76-.73,2.63-1.74,3.33Zm37.8-4.51h-.16s-1.31-.07-1.31-.07c-.59.46-1.17.91-1.82,1.41-1.39,1.08-2.71,2.09-4.02,3.15-1.15.93-2.29,1.36-3.6,1.36-.17,0-.35,0-.58-.03l-.08-.05-.03-.05c-.06-.12-.15-.23-.24-.36-.22-.32-.45-.65-.43-1.01l.05-.73c.14-2.27.28-4.61,1.62-6.49l6.53-2.16,1.8-.56,1.68-2.09-.86-1.8c-.43-.1-.85-.15-1.3-.15-1.12,0-2.15.3-3.26.62-.79.23-1.6.46-2.46.59l-.38.05.16-.35c.23-.48.51-.91.81-1.36.61-.93,1.19-1.82,1.03-2.93l-1.25-1.36c-1.81.08-3.04.82-3.77,2.25-.26.51-.5,1.03-.74,1.55l-.06.12c-.3.64-.59,1.28-.92,1.9-.22.41-.51.78-.79,1.14-.13.16-.25.32-.5.56l-10.37,1.62-1.38,2,.64,1.28.35.78c.73.17,1.48.26,2.32.26,1.44,0,2.84-.25,4.33-.51.78-.14,1.56-.27,2.35-.37l.25-.03-.02.25c-.06.64-.13,1.26-.2,1.9-.15,1.38-.3,2.68-.29,3.98,0,2.06.74,3.88,2.09,5.24l2.59.94c.12,0,.24,0,.35,0,5.76,0,10.81-5.39,12.4-8.96l-.55-1.52Zm-117.17,38.78l-.62-.85-.16-.3c-.29-.08-.58-.12-.86-.12-.76,0-1.47.28-2.33.9l-.47,1.29c-.34.93-.68,1.87-1,2.81-.59,1.77-1.09,3.66-1.64,6.12-.41,1.85-.99,3.68-1.54,5.46-.33,1.06-.66,2.11-.96,3.18-.51,1.8-.99,3.61-1.47,5.42-.35,1.31-.7,2.61-1.05,3.92-.06.23-.12.47-.19.72-.21.84-.43,1.7-.84,2.46-.47.85-.72,1.78-.96,2.7-.14.53-.29,1.08-.48,1.61-.25.7-.47,1.4-.71,2.16-.21.67-.42,1.34-.66,2-1.21,3.41-2.33,6.52-3.44,9.52-.6,1.62-1.22,3.24-1.85,4.86l-1.6,4.17c-.58,1.51-1.16,3.02-1.72,4.54-.28.77-.53,1.55-.79,2.34-.46,1.44-.94,2.93-1.61,4.32-.55,1.15-.98,2.37-1.39,3.56-.39,1.11-.79,2.27-1.3,3.37-.64,1.4-1.11,2.9-1.56,4.35-.26.84-.52,1.68-.82,2.5-.83,2.32-1.68,4.64-2.53,6.96-.44,1.19-.88,2.39-1.31,3.58-.14.38-.29.76-.44,1.14-.35.9-.72,1.83-.93,2.77-.15.66-.34,1.34-.52,1.93-.55,1.9-1.12,3.86-.59,5.86.65.98,1.42,1.44,2.44,1.44,0,0,.23,0,.27,0l1.26-1.18c.15-.57.29-1.11.43-1.68.28-1.12.54-2.18.89-3.21.4-1.21.86-2.43,1.3-3.6l.03-.09c.34-.9.67-1.8.99-2.7.3-.85.57-1.72.85-2.61.46-1.49.94-3.02,1.57-4.49.86-2.02,1.63-4.1,2.38-6.17.74-2.01,1.5-4.08,2.35-6.1.92-2.16,1.69-4.43,2.43-6.62.33-.97.66-1.93,1-2.89.14-.4.28-.8.41-1.2.24-.71.48-1.42.76-2.12.3-.77.63-1.54.97-2.33.61-1.42,1.24-2.89,1.68-4.37.32-1.07.73-2.12,1.14-3.15.47-1.19.96-2.42,1.29-3.69.21-.82.55-1.64.88-2.45.36-.87.73-1.78.96-2.78.25-1.07.51-2.17,1.06-3.11.56-.94.84-1.97,1.11-2.97.12-.44.24-.87.38-1.31.51-1.55.96-3.15,1.42-4.74.19-.66.38-1.32.57-1.98l.52-1.75c.49-1.66.98-3.32,1.46-4.98l.46-1.57c.47-1.62.97-3.3,1.4-4.96.35-1.36.67-2.73.99-4.1l.05-.2c.2-.83.39-1.66.59-2.5.12-.49.27-.98.42-1.47.27-.9.55-1.82.64-2.74.07-.66.31-1.28.54-1.88.37-.95.75-1.94.45-2.98Zm64.2,56.51c-1.17.82-2.29,1.74-3.38,2.63-2.84,2.32-5.52,4.5-9.16,5.31l-.19.04-.05-.19c-.96-3.67.05-10.28,2.51-16.13.53-.2,1.05-.4,1.66-.64,1.14-.44,2.32-.91,3.51-1.3,2.46-.82,3.89-2.12,4.61-4.22l-1.73-1.43-5.92,1.78.1-.36c.64-2.26,1.59-4.29,2.53-6.28.78-1.66,1.52-3.23,2.07-4.7q-.88-1.34-2.21-2.14c-1.63.68-2.73,1.8-3.35,3.41-.32.83-.7,1.65-1.07,2.48-.21.46-.42.91-.61,1.37-.75,1.74-1.5,3.48-2.29,5.3l-.27.64-1.26,2.76-1.53.5c-1.23.4-2.62.85-3.99,1.26-.36.1-.71.19-1.08.28-1.23.3-2.5.62-3.54,1.47l-.13,2.34,1.92,1.2,6.6-1.41-.07.31c-1.23,5.29-2.2,10.06-1.57,14.92.7,1.64,1.58,2.75,2.71,3.48.6.11,1.19.16,1.76.16,1.48,0,2.88-.38,4.17-1.12l1.15-.66c1-.57,2.04-1.17,3.03-1.79,3.37-2.12,5.9-4.64,7.74-7.69l-.78-1.9-1.87.33Zm-33.82,5.31c-.78,0-1.51.38-2.32.84-1.18.67-2.36,1.34-3.44,1.96l-1.42.76-2.89-.41-.15-.1c-.66-.77-1.28-1.5-1.38-2.71l.05-.1.06-.03c3.82-2.11,7.25-5.12,10.17-8.92l.41-1.35.48-1.55-.2-1.43-.09-.74c-.92-1.44-2.3-2.1-3.6-2.59-.26.05-.53.09-.87.15-.66.11-1.35.21-2.03.39-1.96.52-3.33,1.88-4.67,3.35-1.42,1.56-2.31,3.4-3.17,5.19-.32.66-.65,1.35-.98,1.92-.02,2.43-1.39,3.92-4.15,4.53-.04.02-.09.05-.16.07-.2.04-.4.09-.64.15-.72.18-1.47.36-2.25.36-.7,0-1.32-.15-1.99-.52l-.77-1.58.18-.73.61-2.38.07-.07c.87-.88,1.76-1.8,1.68-3.24l-1.12-1.22-1.72.23-.57.03c-3.47,3.82-4.39,7.33-3.03,11.33l2.02,1.7.9.78c1.16.34,2.3.51,3.49.51,2.59,0,4.98-.82,7.37-1.63l.07-.02,1.01,1.42,1.45,2.12,5.03,1.53.32-.07c2.23-.48,4.16-.9,5.72-2.3.26-.23.52-.46.78-.69l.13-.11c.7-.61,1.5-1.3,2.18-2.03.74-.79.87-1.69.41-2.57-.33-.15-.65-.22-.99-.22Zm-9.86-8.05c.15-.2.39-.31.74-.34l1.51-2.65,2.53-.98-.17.43c-.65,1.62-1.53,3.19-3.46,3.6l-.08.18c-.07.15-.14.3-.23.44-.09.13-.2.24-.35.39l-.52.54-.08-.38c-.12-.6-.09-.99.11-1.24Zm15.3-74.66c-1.29-1.66-1.89-3.65-2.48-5.59l-.06-.2c-.68-2.22-1.38-4.52-1.18-6.88.23-2.73-.44-5.18-1.09-7.56v-.14s-2.23-1.45-2.23-1.45l-.37-.29c-2.13.09-3.97.74-5.96,2.13-1.61,1.12-2.98,2.43-4.47,3.89-1.15,1.12-1.95,2.49-2.72,3.82-.24.42-.49.84-.75,1.25-.53.86-.92,1.75-1.1,2.55-.46,1.98-.84,4.29.37,6.46l1.92,1.39.38.31c.5.06.94.08,1.36.08,1.42,0,2.52-.33,3.43-1.03.38-.29.76-.57,1.17-.87,1.48-1.08,3.01-2.21,4.1-3.77.31-.44.72-.81,1.18-1.23.19-.17.39-.35.58-.54l.23-.23.84,2.59c.43,1.32.83,2.58,1.25,3.84.76,2.3,2.21,4.4,4.56,6.58.52.48,1.22.76,1.98,1.07.31.12.62.25.92.39l.87-.79.46-.38c-.11-1.67-.97-2.76-1.99-3.92-.42-.47-.8-.97-1.21-1.5Zm-9.11-13.35c-.13.09-.26.25-.37.44-1.69,2.88-3.63,5.12-5.96,6.84-.22.17-.41.38-.61.61-.1.11-.2.23-.4.39l-1.76.46-.07-.17c-.03-.08-.08-.17-.12-.25-.1-.2-.22-.42-.19-.65.08-.58.22-1.17.35-1.74l.18-.77c2.38-4.85,5.51-7.99,9.85-9.89l.25-.11.03.28c.21,1.82.4,3.38-1.19,4.54ZM894.29,26.63c-2.29,0-4.33,1.05-6.31,2.06l-.59.3-2.15-2.32-2.42-.34c-1.62.42-2.94,1.35-4.27,2.3-.48.34-.95.68-1.44.98l-.2.13-1.4-3.4-2.57-.22-1.91,3.13c.81,1.25,1.01,2.51.61,3.76-.53,1.62-1.1,3.2-1.7,4.87-.26.71-.52,1.42-.77,2.03l.18.56.28,1.01,1.41.98.36-.08c.21-.04.39-.08.55-.15.28-.12.54-.27.82-.42l.26-.09c1.82-4.25,4.78-7.62,9.3-10.6l.34-.22-.13,2.29-.07,1.02-.91,2.04-1.02,2.22.2,2.2,2.49.92c1.73-.92,2.31-2.46,2.82-3.82.2-.51.38-1,.63-1.45,1.97-2.6,4.02-5.29,7.85-5.29h.02l1.3,1.32c.89,2.57.6,5.07.31,7.49l-.17,1.33c.4,1.05,1.25,1.21,2.09,1.35l1.04-.82.97-.71c1.73-6.13,1.08-10.25-2.07-13.36-1.23-.66-2.45-.98-3.71-.98Zm-129.18,27.96l.03-.03c-.23-1.28-.8-1.92-1.79-2.14-2.82,2.21-5.81,3.33-8.9,3.33-1.47,0-2.98-.26-4.55-.8-.17-.2-.42-.36-.7-.52-.65-.39-1.45-.88-1.24-2.28l.07-.08.06-.02c3.66-1.17,7.05-3.16,10.19-5.07l2.21-3.07c1.26-3.38.63-6.12-1.99-8.87l-2.23-.49-.45-.12-1.93.39-.18.03c-.2.12-.41.23-.66.37-.47.25-.95.52-1.39.84l-.51.37c-1.87,1.35-3.8,2.76-5.14,4.76-1.46,2.18-2.36,3.98-2.92,5.81-.15.49-.42.93-.7,1.38-.11.18-.22.36-.35.6l-.03.05-5.47.54-1.18.09-1.74,1.25.2,1.12.1.9,1.07.74.85.64,6.51-.57h.02s.07-.01.07-.01c.11,0,.28.12.35.21.15.17.3.36.37.59.55,1.69,1.79,3.09,3.81,4.29,1.72,1.02,3.82,1.53,6.24,1.53.6,0,1.23-.03,1.88-.1,3.07-.3,5.97-1.29,8.57-2.9l1.47-2.75Zm-17.15-7.91c1.35-3.14,3.42-5.48,7.15-8.06l.12-.08,1.96,1.42-.49,2.52c-2.32,2.17-5.22,3.31-8.48,4.48l-.44.16.18-.43Zm-43.76,109.68c.44,0,.89-.03,1.36-.07.33-.02.66-.05,1.01-.06l1.05-1.95-.71-1.2-.05-.14-1.23-.29-.94-.25-2.73-2.55c-2.68-6.14-1.95-12.51-.51-16.04l-.71-2.77-.8-.07-1.78-.2q-1.53.99-2.4,2.44l-.11.18c-.2.34-.4.69-.7.95-.85.78-1.65,1.62-2.44,2.44-.68.71-1.38,1.43-2.1,2.12-2.29,2.18-4.84,3.83-7.47,5.46l-.22.13-.09-.24c-.05-.15-.11-.28-.17-.42-.12-.28-.25-.57-.24-.87.12-3.34,1.11-6.27,2.91-8.65l.1-2.65-2.1-1.15-1.67.87-.63.28c-1.32,2.61-2.46,4.99-3.09,7.66-.76,3.2-.69,5.72.18,7.9l.48.49,1.28,1.34,2.22.49.44.12c4.23-.92,7.27-3.59,10.48-6.41.51-.45,1.03-.9,1.55-1.35l.24-.21.09.3c.06.2.12.38.19.6.13.4.26.77.31,1.16.45,3.23,1.24,5.91,2.4,8.19,1.32,2.58,3.26,4.04,5.78,4.36.27.03.54.05.81.05Zm27.04-20.48c-.12-.39-.25-.78-.3-1.08l-5.66-5.3.6-2.05c.25-.33.48-.63.71-.93.45-.6.84-1.12,1.28-1.6l.27-.3c.53-.6,1.07-1.21,1.76-1.51,1.52-.67,2.14-1.75,2.04-3.43-.59-.59-1.23-.87-1.94-.87-.86,0-1.78.41-2.66.8l-.36.15-.48.47c-2.06,2-4.18,4.08-5.5,6.75l-.62,2.39.14.55c.1.38.19.76.31,1.13.34,1.06.79,2.26,1.81,2.95,1.47.99,2.5,2.36,3.48,3.68l.49.71.12,2.75c-.47,1.69-1.33,3.3-2.6,4.94-.54.7-1.12,1.37-1.81,2.17-.48.55-.95,1.12-1.43,1.68-1.13,1.35-2.3,2.74-3.6,3.97-2.14,2.03-4.1,3.77-5.97,5.33-2.17,1.8-4.58,3.43-7.36,4.98-1.12.63-1.99,1.43-2.99,2.36l-.24.23,1.14,1.53.32.54,2.8.25c.28-.1.56-.18.86-.28.64-.19,1.25-.37,1.74-.72.92-.66,1.89-1.26,2.84-1.86,1.5-.93,3.06-1.9,4.42-3.11.2-.18.38-.38.58-.61.31-.35.64-.72,1.05-.96,1.58-.92,2.82-2.24,4.03-3.53.73-.77,1.48-1.57,2.3-2.28.25-.21.46-.51.66-.79.23-.32.47-.65.78-.91,1.34-1.08,2.36-2.46,3.34-3.81.3-.4.59-.81.9-1.21,1.72-2.22,2.81-4.68,3.26-7.29.23-1.34.28-2.4.16-3.31-.11-.86-.38-1.69-.66-2.59Zm-47.77-91.1l-.11.3c-1.65,4.68-1.17,8.28,1.44,11.32.35.11.7.24,1.08.38.8.3,1.64.61,2.5.75.58.09,1.16.14,1.73.14,2.43,0,4.8-.82,7.23-2.5.76-.53,1.51-1.1,2.18-1.61.33-.25.67-.51.96-.72l2.48-3.44-.53-1.5-1.1-.13-1.4.8c-.82.46-1.56.89-2.31,1.32l-.24.14c-.3.17-.6.34-.83.56-1.7,1.6-3.68,2.41-5.9,2.41-.77,0-1.54-.09-2.41-.31-.9-.8-1.21-1.76-1.01-3.11.3-1.98.62-4.03,1.91-5.6.95-.22,1.86-.43,2.81-.65,2.07-.47,4.03-.92,5.97-1.47l.23-.07c1.43-.4,2.92-.82,3.95-2.15l.62-1.99-2.17-.95c-.6.15-1.19.3-1.79.45-2.27.59-4.41,1.14-6.8,1.23h-.25s.04-.23.04-.23c.32-2.03,1.73-2.95,3.09-3.83l.41-.27.61-1.29c-.37-1.2-1.34-1.59-2.37-1.99l-.26-.16-.67.23-1.18.39-2.05,1.91c-.28.44-.56.86-.83,1.25-.57.84-1.07,1.57-1.42,2.36-.48,1.07-1.1,2.26-2.14,2.97l-8.05,1.18-4.86.64-1.56,2.55,1.26,2.2c4.08-.72,7.9-1.13,11.42-1.46l.32-.03Zm-41.39,57.03l-1.02.49-.93.38c-.2.59-.4,1.18-.61,1.78-.47,1.35-.96,2.75-1.34,4.16-.34,1.26-.61,2.57-.88,3.87-.18.91-.37,1.82-.58,2.72-.42,1.77-.85,3.54-1.29,5.31l-.11.44c-.48,1.96-.96,3.93-1.43,5.89-.5,2.14-.97,4.29-1.41,6.32l-.58,2.56c-2,2.57-4.06,4.7-6.67,6.91l-.19.16-1.33-2.37-3.11-2.2-2.43-.24c-.25.1-.83.31-.83.31-.64.24-1.25.47-1.93.78-.55.26-1.17.55-1.49.99l-.45.61c-1.55,2.1-3.16,4.27-3.54,7.03-.07.46-.03.93,0,1.35.04.52.08,1.05-.06,1.45l1.21,2.47,1.09.36,1.71.59c.27-.05.55-.09.85-.14.62-.09,1.27-.18,1.85-.41,2.88-1.13,6.21-2.63,9.03-5.28.78-.74,1.69-1.36,2.69-2.03.47-.32.95-.65,1.45-1.01l.41-.29-.09.5c-.1.59-.21,1.15-.31,1.71-.21,1.13-.4,2.11-.49,3.11l-.06.58c-.14,1.29-.29,2.62.34,3.95l2.26,1.3,2.01-1.3c.06-2.05.45-4.07.82-6.02.22-1.16.45-2.36.61-3.55.21-1.57.62-3.13,1.03-4.67.17-.63.34-1.27.49-1.9.07-.29.17-.59.26-.88.17-.53.35-1.08.36-1.61.04-1.54.45-3.03.84-4.46.25-.91.51-1.85.66-2.81.14-.84.38-1.69.6-2.46.28-1,.57-2.04.67-3.06.14-1.52.53-3,.9-4.44.27-1.06.56-2.15.74-3.25.27-1.66.62-3.27.99-4.97l.51-2.33c1.14-1.83,1.38-3.66.75-5.41l-1.93-.99Zm-20.94,43.61l-.04.04c-1.55,1.73-3.6,2.54-5.58,3.17l-.17.06-.07-.17c-.44-1.01-.07-1.83.35-2.51,1.48-2.37,1.54-2.43,3.06-3.01l.07-.03h.05s.03,0,.03,0c1.46.28,2.02,1.43,2.33,2.34l-.02.1Zm-10.21-80.5l.35-.77c.57-1.26,1.15-2.55,1.69-3.84.57-1.37,1.13-2.83,1.71-4.46l.28-.78c.9-2.51,1.83-5.11,2.33-7.77.12-.64.3-1.26.5-1.99.08-.27.16-.55.25-.89l.07-.07.05-.02c.9-.29,1.81-.55,2.72-.8,3.36-.94,6.54-1.83,8.93-4.59l-.78-1.27h-.2s-.86,0-.86,0c-.34,0-.74.01-1.13.1-.96.21-1.93.46-2.87.7l-.15.04c-.9.23-1.79.46-2.7.66-.11.02-.23.04-.35.04-.27,0-.55-.06-.83-.11-.13-.03-.27-.05-.39-.07l-.22-.03.38-2.19c.24-1.38.46-2.69.71-4,.54-2.79,1.01-5.09,1.49-7.26.59-2.66,1.2-5.41,1.92-8.11.35-1.3.96-2.55,1.45-3.49.31-.59.7-1.11,1.16-1.71l.74-.96,2.47-1.26,1.15.9.62.53c.93,2.77.51,5.34.06,8.08l-.17.81.62,1.43,1.73.46c1.92-1.8,2.26-4.22,2.58-6.55,0,0,.1-.69.13-.92.55-3.61-.69-6.66-3.55-8.78l-2.67-.75c-.29.08-.6.15-.92.23-.75.18-1.54.37-2.28.66-.79.32-1.53.73-2.32,1.17-.35.2-.71.4-1,.52-.29.46-.6.91-.9,1.37-.66.99-1.4,2.11-2.04,3.23-1.22,2.12-1.88,4.4-2.57,6.94-.43,1.6-.81,3.34-1.17,5.3-.18,1-.33,2-.47,3-.17,1.19-.35,2.43-.59,3.65-.37,1.86-.8,3.69-1.27,5.69l-.62,2.65c-.33.62-1.02,1.37-2.39,1.37-.29,0-.58.07-.88.14-.19.04-.38.09-.57.12l-1.18.18c-1.74.27-3.49.54-5.23.78-1.77.25-3.38.45-4.91.6-.71.07-1.41.18-2.17.29-1.31.2-2.67.4-4.04.4h-.29c-.53,0-1.1.19-1.65.38-.27.09-.53.19-.7.2l-1.38,1.5.72,2.15.6.12c.75.16,1.46.31,2.17.31.43,0,.84-.06,1.23-.17.76-.23,1.62-.35,2.64-.37,3.84-.09,7.66-.71,11.55-1.39.32-.06.64-.12.97-.19.91-.18,1.84-.38,2.82-.38.34,0,.66.02.97.07l.22.03-.06.22c-.19.71-.35,1.42-.53,2.18-.38,1.58-.73,3.08-1.26,4.54-.96,2.66-2.06,5.32-3.16,7.97,0,0-.78,1.88-1.1,2.67-.11.26-.21.53-.31.8-.31.84-.64,1.71-1.17,2.43-.6.81-.97,1.74-1.32,2.64-.24.61-.49,1.24-.82,1.85-.95,1.77-1.76,3.67-2.54,5.51-.33.79-.67,1.58-1.01,2.24l.39,2.08,2.04.95,1.23-.73.42-.2c.24-.51.46-1.02.69-1.53.47-1.05.91-2.05,1.44-3.01,1.71-3.09,3.06-5.87,4.13-8.5.26-.64.57-1.27.84-1.84.19-.39.38-.77.55-1.17Zm248.2-33.57c-.53-.2-1.14-.44-1.62-.82-.57-.45-1.21-.57-1.91-.71-.22-.04-.43-.08-.65-.13-1.08-.26-2.23-.38-3.62-.38-.39,0-.79.01-1.19.03-2.73.11-4.53,1.18-5.66,3.33l.08.65.1,1.22c-2.33,3.59-2.22,7.09.25,9.58l2.72.9c5.48-.62,9.73-2.76,12.96-6.53l.88-2.54c-.04-1.61-.73-2.92-1.72-4.35-.18-.08-.39-.16-.61-.25Zm-2.34,4.16c-1.96,3.14-4.97,3.89-8.16,4.69l-.49.12-.06-.18c-.04-.13-.09-.26-.16-.41-.12-.29-.23-.55-.15-.79.1-.27.18-.54.27-.82.5-1.56,1.02-3.18,2.91-4.2l1.92-.45.09.02.04.04c.36.33.87.41,1.41.5.8.13,1.71.28,2.4,1.31v.11s-.03.06-.03.06Zm107.55-7.76h-.98s-1.18-.09-1.18-.09c-.88.96-1.13,2-1.31,2.99-.27,1.47-.7,3.18-1.74,4.78-.25.39-.49.79-.76,1.24-.46.76-.93,1.55-1.5,2.28-.7.9-1.33,1.85-1.95,2.78-.48.73-.97,1.45-1.48,2.15l-.4.56c-.73,1.02-1.49,2.08-2.45,2.89-1.25,1.04-2.05,2.32-2.91,3.67l-.07.1c-.06.09-.1.21-.18.43l-.07.2.79.91c1.4-.12,2.37-.49,3.21-1.24.92-.81,1.88-1.61,2.81-2.38.54-.45,1.08-.9,1.61-1.35.09-.07.16-.18.25-.31.04-.06.08-.13.13-.18l1.26-1.66c.92-1.2,1.83-2.41,2.72-3.63.26-.35.49-.74.73-1.14.38-.63.76-1.28,1.29-1.81.88-.89,1.3-2.01,1.71-3.09.17-.44.33-.88.52-1.31.45-.98.65-2.06.85-3.12.08-.44.17-.9.28-1.2l-1.17-2.46Zm-26.5.47l-2.23,1.13c-1.53.77-2.99,1.52-4.47,2.24-2.54,1.25-5.2,1.8-8.17,2.34-.2.04-.42.09-.68.16-.47.12-.96.25-1.46.25-.6,0-1.09-.19-1.52-.58l-.23-.21.29-.12c.67-.28,1.34-.55,2.02-.83,1.59-.64,3.23-1.3,4.77-2.09.86-.44,1.61-1.17,2.34-1.88.22-.21.44-.42.66-.62.31-.29.57-.64.85-1.01.13-.18.26-.35.35-.42l.34-2.65c-1.14-3.79-3.42-5.64-6.96-5.64-.45,0-.95.03-1.41.08-4.8,2.05-8.01,5.97-9.55,11.73v.05s-3.38,1.36-3.38,1.36c-.31,1.54.12,2.49,1.4,3.18l1.97.17.36.61c.58,1,1.12,1.95,2.23,2.49,1.5.73,3.06,1.1,4.64,1.1.9,0,1.84-.12,2.77-.36l1.43-.36c2.06-.51,4.18-1.04,6.21-1.76l.59-.21c3.13-1.11,6.37-2.26,8.42-5.58l-.35-2.02-1.22-.55Zm-19.14.57l.08-.39c.64-3.05,2.77-4.41,4.9-5.53l.04-.02h.08s.04,0,.04,0c1.03.32,1.98.83,1.91,2.43-1.27,1.45-2.9,2-4.64,2.59-.67.23-1.37.46-2.04.76l-.36.16Zm-320.73,111.6l-.43-.31-2.8.24-4.09,2.43v-.34c-.05-.76.14-1.47.32-2.17.26-.99.51-1.93.09-2.83-.57-.5-1.15-.75-1.73-.75-.54,0-1.12.23-1.66.62l-.49,1.12c-.34.77-.68,1.53-1,2.31-.34.82-.66,1.65-.99,2.49-.6,1.53-1.22,3.11-1.92,4.63-.15.32-.49,1.05-.49,1.05-.81,1.7-1.57,3.31-1.93,4.92.3,1.09,1.09,1.52,2.02,2.03.16.09.33.18.49.27.19-.14.39-.27.59-.41.52-.35,1.06-.72,1.49-1.16.4-.42.76-.9,1.11-1.36.49-.65,1-1.33,1.64-1.85.82-.67,1.53-1.47,2.21-2.25.89-1.02,1.82-2.07,3.01-2.85.15-.1.3-.2.47-.32.68-.47,1.39-.95,2.35-1.23l.12.05.04.07c.05.09.11.17.19.27.15.2.3.4.29.63l-.02.57c-.06,1.64-.12,3.34-.3,5.01-.11,1.01-.28,2.05-.43,2.99-.14.85-.28,1.73-.39,2.59-.13,1.14.16,2,.91,2.7h2.08c1.92-2.87,2.21-6.09,2.49-9.2l.1-1.13c.24-2.43.26-5.02-1.11-7.47l-2.24-1.36Zm230.35-109.27l-1.28-.44-7.42,2.15s.62-1.55.87-2.18c.5-1.25.97-2.43,1.47-3.61.3-.7.63-1.38.98-2.08.34-.68.67-1.37.97-2.07.47-1.08.9-2.2,1.33-3.32.18-.46.36-.92.54-1.39.83-2.11,1.67-4.22,2.52-6.32.96-2.38,1.78-4.86,2.59-7.33.32-.99.65-1.98.98-2.96l-1.16-1.57-.44.02h-1.3s-1.07,1.14-1.07,1.14l-1.08,2.73c-.77,1.94-1.47,3.73-2.19,5.52-.31.75-.64,1.5-.97,2.24-.23.52-.46,1.04-.68,1.56-.3.71-.59,1.42-.89,2.13l-.09.22c-.32.77-.64,1.54-.97,2.31-.44,1.03-.89,2.06-1.34,3.09l-.17.4c-.46,1.06-.92,2.12-1.38,3.18-.22.52-.43,1.04-.64,1.56-.35.87-.71,1.78-1.14,2.65-1.16,2.41-2.35,4.73-3.58,7.1-.5.97-1.02,1.94-1.55,2.92-.83,1.54-1.68,3.13-2.46,4.72-.29.6-.62,1.18-.94,1.75-.84,1.48-1.7,3.01-2.06,4.79l1.66,1.89,2.42-.46.78-1.37c.45-.8.89-1.57,1.34-2.35.21-.37.42-.74.62-1.12.5-.91,1.01-1.86,1.66-2.69,1.56-1.98,3.31-3.73,5.2-5.19,1.99-1.53,4.37-3.19,7.55-3.58l.11.07.03.08c.06.18.13.36.2.54.16.4.31.78.31,1.19.01,1.79-.29,3.62-.89,5.43-.61,1.83-1.28,3.67-1.93,5.45l-.36,1c-.21.59-.45,1.18-.71,1.84l-.4.98-.28,2.34,2.44.83.4-.26,1.16-.71c.23-.48.46-.94.68-1.38.45-.9.88-1.75,1.22-2.63,1.12-2.91,1.96-5.94,2.72-8.79.99-3.72.48-6.83-1.5-9.46l-1.89-.61Zm-62.28,119.62c.02-.61-.11-1.23-.22-1.79-.04-.22-.08-.42-.08-.58l-.96-.56-.85-.53-4.95,1.82c-.34.22-1.51,1.1-2.2,3.09l.21,1.13.2,1.25c1.35,1.36,2.94,1.41,4.47,1.46.4.01.79.03,1.18.06l2.1-.73c1.21-1.04,1.16-2.35,1.12-3.62-.01-.34-.02-.67-.02-1Zm-179.64-91.12c.61-1.44,1.14-3.11.5-4.53l-1.34-1.56-1.4-1.66-3.71-1.92.48-2.12.17-.53c-.66-1.31-1.69-1.55-2.77-1.81-.2-.05-.41-.1-.46-.16-2.2.94-3.8,2.21-4.94,3.92l-1.16.37-.24.04-1.42,1.73c.53,1.82-.12,3.48-.77,4.9-.74,1.61-1.16,3.5-1.24,5.62-.02.43.09.88.22,1.41.07.27.14.55.16.79l1.67,2.5,2.47.86c2.59-.07,5.05-.84,7.52-2.35,2.75-1.68,4.68-3.39,6.25-5.5Zm-4.13-2.71c-1.77,3.19-4.64,4.26-7.41,5.29l-1.06.4-.11-.02-.05-.05c-.7-.69-.89-1.55-.57-2.55.47-1.43.98-2.81,1.53-4.27l.73-1.98.18.06c.57.17,1.15.31,1.71.44,1.75.41,3.56.84,5.06,2.48v.12s-.02.06-.02.06Zm-120.41,2.35c.05-.42.1-.84.19-1.25.4-1.91.76-4.12-.05-6.25-.14-.36-.24-.73-.37-1.19-.06-.22-.13-.46-.16-.67l-2.16-1.09-1.08-.61-5.76,1.75.57-2.26.62-2.17-1.29-1.72-1.48.77-.8.35c-2.39,7.3-4.76,12.68-7.65,17.36l.37.99.27.91,1.78.84,1.79-.95c.64-.84,1.14-1.78,1.63-2.69.57-1.05,1.15-2.14,1.96-3.11,1.48-1.79,3.24-3.19,5.9-4.7.25-.14.53-.22.86-.3.15-.04.32-.08.51-.14l.28-.09-.06,1.02c-.12,2.12-.23,4.13-.81,6.1-.59,2.01-1.34,4.67-1.95,7.39-.14.64-.12,1.34-.09,2.01.01.29.02.59,0,.82l1.36,1.28,1.3-.5.93-.32c.07-.23.13-.44.18-.65.12-.45.23-.83.39-1.2,1.16-2.64,2.05-5.52,2.65-8.56.07-.37.12-.74.17-1.14Zm19.62,100.35c-.43-.46-.88-.93-1.26-1.45-1.19-1.59-1.07-3.43-.74-5.1l-1.78-1.96-1.17.34-1,.25-.29.69c-.24.6-.5,1.21-.78,1.8-.22.47-.47.99-.87,1.36-.76.69-1.66,1.48-2.65,2.09l-.37.23c-1.15.72-2.34,1.46-3.84,1.46-.16,0-.32-.01-.6-.11-.48-.66-.37-1.37-.26-2.05.07-.45.14-.91.03-1.42v-.06s2.48-2.23,2.48-2.23l.25-1.73-1.23-1.27-1.64.15-.47.02-1.39.86-.53.3c-.18.33-.37.65-.56.96-.41.68-.8,1.33-1.04,2.02-.44,1.26-.67,2.45-.68,3.53-.05,3.08,1.29,5.07,3.98,5.93.23.01.46.02.69.02,4.25,0,7.25-2.28,9.62-4.5l.17-.16.14.18c1.94,2.61,3.97,5,7.46,5.6.83-.25,1.64-.65,2.03-1.88l-.95-1c-.89-.93-1.81-1.89-2.74-2.88Zm-31.78-24.53l-1.2-.17c-.58.51-1.15,1.02-1.74,1.54-2.98,2.62-6.06,5.33-8.33,8.73l-.76,3.02c.12,2.09,1.1,3.89,2.14,5.81.69,1.27,1.4,2.57,1.88,4.09l-.02.35c-.01.29-.03.65-.05,1-.01.15-.03.31-.05.47l-.06.29c-3.17,5.04-7.92,8.15-11.76,10.31l-.32-.03c-.28-.03-.56-.06-.85-.06-.77,0-1.36.23-1.86.69l-.88,2.29.66,1.24.2.4,2.61.75c2.79-.56,5.07-2.21,7.28-3.8.49-.35.97-.7,1.46-1.03,3.03-2.09,5.43-4.56,7.16-7.33l1.31-2.72c.02-.3.05-.61.09-.92.07-.67.14-1.35.11-2.02-.09-1.67-.82-3.14-1.6-4.49-.67-1.18-1.31-2.37-1.94-3.55l-.82-1.53v-.09s.02-.05.02-.05c.15-.32.28-.63.4-.93.25-.62.5-1.21.89-1.68,1.45-1.73,2.71-3.06,3.99-4.2,1.31-1.17,2.57-2.55,3.83-4.14l-.24-2.12-1.52-.13Zm-46.09-80.94l-2.62-1.54-.62-.37-1.24-.3-1.42-.37-.3.11c-.24.09-.49.18-.75.23-1.63.35-2.98,1.23-4.23,2.76-1.53,1.87-2.73,3.97-3.66,6.43-1.09,2.88-.95,5.38.42,7.8l2.97,1.48c5.02-.13,9.24-2.51,13.26-7.45l.76-2.62c.13-2.01-.82-3.46-1.85-5.01-.27-.41-.54-.82-.72-1.16Zm-1.89,5.58c-.52,1.52-1.25,2.54-2.17,3.04-.41.22-.82.47-1.23.73-1.44.88-2.92,1.8-4.9,1.8h-.37s-.09-1.11-.09-1.11l-.08-1.22c.76-2.18,1.89-4.32,3.53-6.57.37-.06.73-.1,1.06-.1.94,0,1.76.24,2.53.77l1.71,2.52v.09s0,.05,0,.05Zm36.95-5.3h.36s.36-1.31.36-1.31l.26-.72c-.61-1.02-1.51-1.39-2.31-1.72-.2-.08-.4-.16-.5-.23-.37-.03-.74-.04-1.1-.04-4.06,0-7.47,1.64-11.51,3.78l-.34.18.47-3.87.48-3.47-1.86-2.19-.8.31-1.1.36c-.1.23-.21.46-.32.69-.24.48-.48.97-.57,1.47-.23,1.37-.43,2.78-.6,4.03-.21,1.49-.42,3.03-.69,4.54-.28,1.56-.65,3.13-1.05,4.8l-.29,1.21-.29,1.18c.05.23.04.5.03.79-.02.79-.05,1.76.97,2.4l2.11.32,1.55-1.77-.18-.08,2-4.55c4.83-4.15,9.57-6.09,14.93-6.09Zm53.17,3.19c-.8.15-1.56.29-2.3.48-.78.19-1.56.46-2.32.72-1.6.54-3.25,1.1-5.07,1.1l-.18-.02c-.27-.13-.6-.21-.96-.29-.8-.18-1.7-.39-2.28-1.45v-.11s.05-.05.05-.05c.72-.91,1.71-1.24,2.67-1.56.72-.24,1.4-.47,1.96-.93.96-.8,1.91-1.68,2.75-2.44.36-.33.73-.67,1.1-1l-.02-.07-.04-.27.43-2.3c-.45-1.83-1.78-3.07-3.2-4.39l-.05-.08-2.18-.42-.53-.12c-.15.04-.33.08-.52.13-.39.09-.84.2-1.22.4-.21.11-.43.22-.66.33-.84.41-1.71.84-2.22,1.49-1.68,2.15-3.34,4.48-3.62,7.39v.08s-2.24.37-2.24.37l-1.81.25-1.55,1.87,1.6,2.31,4,.21.52.71c.36.49.7.96,1.05,1.43.08.11.16.23.24.35.19.29.39.58.64.76,1.94,1.42,3.94,2.11,6.1,2.11h.01c3.04,0,5.89-.89,8.48-2.65.25-.17.52-.33.82-.51.96-.57,1.94-1.16,2.48-2.26l-.89-1.75c-.35.07-.69.13-1.04.2Zm-11.51-7.7c.11-.15.23-.31.33-.47l.08-.13,2.32.62-3.17,2.29-.09-.27c-.3-.96.14-1.53.52-2.03Zm94.99,108l-4.3-.4c-.17-.1-.35-.21-.55-.32-.47-.27-.95-.55-1.4-.88l-.17-.12c-.48-.35-1.03-.75-1.25-1.29-.17-.43-.35-.85-.53-1.28-1.15-2.69-2.34-5.47-1.02-8.79.34-.85.36-1.85.37-2.82,0-.44.01-.89.1-1.15l-1.63-1.86c-.15.04-.3.08-.47.12-1.13.28-2.2.53-2.66,1.64l-.22.53c-.4.92-.82,1.88-.81,2.95,0,1.53-.72,2.9-2,3.77-2.02,1.38-4.07,2.35-6.26,2.96l-.21.06-.04-.21c-.43-2.07.31-3.88,1.04-5.66.14-.35.29-.71.43-.99l-.64-1.28-1.9-.45-2.03,1.93c-.11.28-.21.54-.32.8l-.05.12c-.23.58-.45,1.12-.6,1.67-.66,2.47-1.35,5.03.39,7.57l1.15.57,1.57.82c.12-.02.25-.05.42-.09.3-.07.61-.14.93-.15,1.64-.05,3.07-.52,4.37-1.42.78-.55,1.62-.97,2.5-1.42.39-.2.79-.4,1.19-.62l.18-.1,1.49,2.93,1.88,3.74,2.58,1.78.96.68,2.83.83,3.23-.76,1.08-.2,1.3-1.81-.55-.8-.35-.58Zm-43.26-11.92l-.91-1.44-.86-.16-.92-.21c-.26.22-.5.47-.78.74-.59.59-1.21,1.19-1.94,1.53-1.21.55-1.61,1.54-2.03,2.58-.09.22-.17.43-.27.64-.12.27-.12.6-.11.96,0,.32,0,.65-.09.97-.86,2.9-.49,5.49,1.1,7.88,1.48.68,2.65.98,3.81.98.89,0,1.77-.19,2.66-.57.58-.25,1.11-.59,1.63-.93.56-.36,1.14-.74,1.79-.98,1.53-.59,2.47-1.85,3.12-2.88.22-.35.45-.68.67-1l.26-.35c.31-1.64.09-3.05-.66-4.29-1.94-1.46-4.16-2.64-6.48-3.47Zm2.72,6.53c-1.01,1.47-2.47,2.08-3.89,2.66-.61.25-1.23.51-1.82.84l-.16.09-.1-.16c-1.06-1.57-.66-2.99-.28-4.36.11-.41.23-.82.3-1.23l.03-.18h.18c1.75.16,3.79.52,5.7,2.07l.15.12-.11.16Zm-152.37-6.98c.14-.21.28-.41.42-.6.27-.37.52-.72.66-1.09.62-1.64,1.7-3.01,2.74-4.32.27-.34.53-.68.79-1.02l.08-.11c.73-.97,1.43-1.88,1.41-3.17l-.27-.2-1.28-1.06c-2.6.43-3.87,2.23-5.11,3.97-.28.39-.55.78-.84,1.15l-.28.36c-.97,1.24-1.98,2.52-2.29,4.12-.06.33-.29.6-.49.84-.08.09-.14.16-.16.16,0,0,0,0,0-.01l-.07,1.36-.08,1.28.52,1.34.24.68.85.7,3.15,2.67c.03,1.54-.11,2.02-.81,2.84-.55.65-1.09,1.3-1.64,1.98-.62.75-1.23,1.5-1.87,2.24-.34.4-.68.8-1.03,1.22-1.12,1.32-2.28,2.7-3.53,3.94-1.2,1.21-2.51,2.35-3.78,3.45-.59.51-1.19,1.03-1.72,1.47-.31,1.17.14,2.15,1.31,2.97h.09c1.97,0,3.36-.48,4.37-1.5.55-.56,1.16-1.07,1.75-1.57,1.18-.99,2.4-2.02,3.16-3.43.1-.18.26-.36.52-.55,1.23-.92,2.17-2.15,3.09-3.35.49-.64,1-1.31,1.56-1.92,1.14-1.26,2-2.7,2.9-4.23.23-.39.47-.79.68-1.1l.39-2.94-1.33-2.72-.33-.79-2.36-1-.27-.15-1.17-1.73v-.11l.04-.06Zm133.84,1.43c-.25-.09-.47-.16-.55-.24-3.98.6-7.36,2.89-10.35,4.9l-.46.32.15-.54c.14-.5.3-.98.46-1.46.35-1.04.67-2.02.75-3,.04-.42.14-.84.23-1.28.26-1.11.53-2.26-.32-3.34l-1.84-.83-.94.64-.75.45c-.28,1.08-.58,2.16-.87,3.24-.66,2.44-1.34,4.96-1.93,7.47-.76,3.23-1.84,6.55-3.31,10.07l.71,2.36c.49.54,1.06.62,1.6.62.17,0,.35,0,.57-.02.2-.01.41-.02.61-.02.08,0,.15,0,.2.02,1.14-1,1.59-2.4,2.03-3.75.15-.46.3-.92.52-1.43.13-.13.27-.26.41-.39.29-.27.59-.55.8-.86,1-1.43,2.28-2.63,3.51-3.79.59-.56,1.26-1.19,1.88-1.83l.12-.12c.23-.24.46-.5.76-.66.63-.35,1.27-.69,1.94-1.04.96-.51,1.94-1.03,2.88-1.59,1.1-.66,2.23-1.34,2.66-2.52-.14-.9-.75-1.12-1.46-1.36Zm10.05-103.29l-.79-1.64c-.21,0-.42,0-.63,0-2.27,0-4.38.29-6.45.88-4.53,1.3-8.28,3.08-11.45,5.45-.97.72-2.01,1.41-3.09,2.12-.49.32-1,.66-1.53,1.02l-.35.23.03-.42c.15-2.26.19-4.3-.83-6.28l-1.16-.35-1.11-.38c-1.78.71-1.91,2.07-1.78,3.43.43,4.76-.86,9.28-2.03,12.62l.55,1.47.13.44,2.45.87c.17-.16.35-.32.57-.5.47-.4.9-.78,1.2-1.24.98-1.54,2.14-2.91,3.44-4.07l.58-.52c2.04-1.83,4.15-3.71,6.52-5.23,2.71-1.73,5.39-3.37,8.47-4.38.79-.26,1.57-.53,2.36-.81,1.01-.35,2.06-.72,3.1-1.04.89-.28,1.43-.79,1.81-1.63Z"/>
</svg>