<?xml version="1.0" encoding="UTF-8"?>
<svg xmlns="http://www.w3.org/2000/svg" viewBox="0 0 428 260">
  <defs>
    <style>
      .cls-1 {
        fill: none;
      }

      .cls-1, .cls-2 {
        stroke-width: 0px;
      }

      .cls-2 {
        fill: #e66751;
      }
    </style>
  </defs>
  <g id="board">
    <rect class="cls-1" width="428" height="260"/>
  </g>
  <g id="text">
    <path class="cls-2" d="m252.69,43.53c-.01-.07-.02-.14-.03-.22-.02-.13-.03-.25-.07-.36-.05-.15-.12-.3-.2-.44l-.03-.06c-1.16.07-2.08.33-3.35.96-1.67.82-2.82,1.15-4.26,1.21-.33.01-.67.01-1.04,0-2.37-.1-4.22-1.49-4.93-3.72-.13-.41-.15-.86-.16-1.29l-.02-.65.11-.35c.07-.23.15-.47.23-.7.1-.28.18-.57.26-.87.19-.67.39-1.37.76-1.97.59-.97,1.32-1.85,2.04-2.7l.47-.56c.87-1.06,1.93-2.02,3.42-3.12,1.07-.79,2.18-1.61,3.57-2.26l.93.26c.68-.25.91-.76,1.2-1.38l.09-.18-.71-.94-.38-.61c-.34-.04-.66-.05-.97-.04-1.13.05-2.11.43-3.11,1.21-.91.72-1.89,1.37-2.85,2.01l-.38.25c-1.42.94-2.56,2.24-3.67,3.5l-.59.66c-.51.56-1.02,1.18-1.38,1.85-.59,1.11-1.25,2.36-1.66,3.65-.41,1.3-.78,2.83-.47,4.4.37,1.88,1.14,3.31,2.42,4.51.91.85,1.91,1.42,2.95,1.67,1.2.29,2.35.41,3.51.36.34-.01.68-.04,1.01-.09,2.8-.35,5.11-1.62,7.27-3.99ZM113.21,120.26l-1.06,1.8.83,1.43c2.81-.62,5.43-1.01,7.85-1.35l.33-.05-.11.32c-1.13,3.31-.81,5.8.96,7.83.24.07.48.15.75.24.55.19,1.12.38,1.71.45.39.05.79.07,1.19.05,1.67-.07,3.29-.71,4.96-1.95.52-.39,1.04-.81,1.49-1.19l.05-.04c.22-.18.43-.36.61-.48l1.69-2.46-.34-.96-.67-.07-1.1.68c-.51.32-.99.61-1.46.91l-.17.1c-.2.12-.41.25-.56.4-1.18,1.19-2.57,1.82-4.12,1.88-.55.02-1.09-.03-1.71-.17-.64-.56-.87-1.24-.72-2.22.21-1.41.43-2.87,1.37-4.05.65-.18,1.29-.36,1.94-.54,1.43-.39,2.77-.76,4.12-1.2l.16-.05c.98-.32,1.99-.65,2.68-1.58l.41-1.35-1.4-.58c-.39.11-.77.23-1.16.35l-.08.02c-1.57.48-3.06.93-4.71,1.07l-.26.02.04-.26c.22-1.47,1.21-2.16,2.16-2.83l.26-.17.41-.88c-.24-.8-.9-1.04-1.6-1.29l-.12-.1-.47.18-.79.29-1.4,1.39c-.2.32-.39.62-.58.9-.39.6-.73,1.13-.98,1.69-.33.78-.78,1.65-1.53,2.19l-5.56,1.06-3.31.55Zm38.52,49.31c-.5-.15-.99-.21-1.5-.19-.85.04-1.73.31-2.85.89-.56.29-.92.8-1.04,1.46l-.03.18c-.12.64-.24,1.3-.58,1.85-.42.68-.62,1.44-.8,2.17l-.11.42c-.1.38-.13.77-.17,1.22-.02.22-.04.45-.07.62l.39,1.63,1.7,1.56c.38.02.73.02,1.07,0,1.76-.07,3.17-.57,4.55-1.62,1.67-1.27,3.3-2.75,3.9-5-.12-1.95-.66-3.14-1.76-3.85-.75-.48-1.64-1.02-2.68-1.34Zm1.43,5.1c-1.23,1.45-2.39,2.82-4.45,3.5l-.88-.36-.04-.06-.02-.05v-.02c-.22-1.53.41-2.78,1.01-3.98.18-.35.38-.75.58-1.21l.06-.04.06-.02h.02c.18-.03.36-.04.52-.05,1.46-.06,2.4.53,3.27,2.07l.02.04-.16.18Zm153.14-68.57c.05-.05.1-.12.16-.21.03-.05.06-.09.09-.14l.87-1.2c.63-.87,1.26-1.75,1.88-2.63.18-.25.33-.53.51-.83.26-.45.53-.92.89-1.31.6-.64.88-1.43,1.16-2.2.11-.32.23-.63.36-.94.3-.69.44-1.46.58-2.2.05-.3.12-.64.2-.81l-.79-1.66-.64.02-.76-.05c-.59.68-.76,1.41-.89,2.11-.19,1.05-.48,2.28-1.21,3.44-.17.28-.34.56-.53.9-.32.55-.64,1.12-1.04,1.65-.48.65-.92,1.34-1.34,2.01-.33.53-.67,1.05-1.03,1.56l-.28.41c-.51.74-1.03,1.51-1.7,2.11-.85.76-1.41,1.68-2,2.65l-.04.07c-.04.06-.07.14-.12.29l-.04.1.5.56c.94-.12,1.58-.41,2.14-.94.64-.6,1.3-1.19,1.94-1.76.37-.33.74-.66,1.11-.99Zm-177.8-44.82c4-.24,6.57-2.96,8.36-5.29l.47-1.92-.31-1.47c-1.27-1.91-3.93-3.17-6.48-3.07-1.06.04-2.08.34-2.78.78l-.18.54c-.12.35-.25.75-.38,1.15-.04.12-.07.24-.09.37-.05.23-.11.48-.24.72-1.45,2.66-1.59,4.96-.48,7.21l2.11,1Zm2.04-8.59c.32-.16.62-.24.91-.25.68-.03,1.17.33,1.64.68.24.18.46.34.8.57.38,1.27-.51,1.94-1.22,2.47l-.22.16c-.89.69-1.98,1.4-3.38,1.46h-.01l-.07-.06-.03-.08v-.03c-.25-1.77.27-3.42,1.59-4.93Zm170.92-9.45l.86-.37.61-.24c.04-.14.07-.27.11-.43.08-.32.16-.59.27-.87.8-1.88,1.41-3.93,1.83-6.08.05-.25.08-.5.12-.8.03-.3.07-.6.13-.89.28-1.34.52-2.89-.03-4.35-.1-.25-.17-.51-.26-.85-.04-.14-.08-.28-.1-.42l-1.47-.69-.69-.39-4.1,1.44.42-1.73.42-1.51-.84-1.1-.97.56-.51.22c-1.66,5.24-3.29,9.08-5.28,12.38l.25.69.15.59,1.2.53,1.18-.68c.43-.6.78-1.27,1.12-1.93.39-.76.8-1.54,1.36-2.26,1.03-1.31,2.25-2.35,4.1-3.49.18-.11.38-.17.61-.24.11-.03.22-.07.35-.11l.29-.1-.04.82c-.08,1.5-.16,2.92-.56,4.33-.41,1.44-.93,3.33-1.35,5.25-.1.45-.08.93-.06,1.4,0,.19.01.39,0,.55l.88.81ZM51.75,195.28c-.52.02-1.02.3-1.57.64-.81.5-1.63,1.01-2.38,1.47l-1.02.58-2.03-.21-.12-.08c-.46-.53-.9-1.04-.96-1.94l.04-.07.05-.04h.02c2.63-1.6,4.98-3.8,6.99-6.53l.28-.96.33-1.07-.14-1-.05-.49c-.62-.96-1.54-1.38-2.41-1.69-.17.04-.36.08-.6.13-.46.09-.93.19-1.39.33-1.34.42-2.27,1.41-3.19,2.47-.98,1.13-1.59,2.45-2.18,3.72-.22.48-.45.97-.67,1.34-.01,1.75-.97,2.85-2.9,3.37-.03.02-.07.05-.13.06-.14.04-.27.08-.44.13-.5.15-1.02.3-1.57.32-.51.02-.95-.08-1.44-.34l-.54-1.14.12-.52.44-1.72.05-.05c.59-.64,1.19-1.29,1.16-2.23l-.75-.8-1.16.21h-.35c-2.37,2.77-3.01,5.24-2.09,7.96l1.4,1.14.6.51c.8.2,1.58.29,2.39.25,1.77-.07,3.45-.73,5.12-1.38l.05-.02.73,1.01.97,1.42,3.46.92.21-.05c1.53-.4,2.85-.75,3.92-1.77.15-.14.63-.59.63-.59.48-.45,1.03-.96,1.5-1.48.49-.55.58-1.15.31-1.7-.22-.09-.43-.13-.66-.12Zm-6.87-5.49c.11-.15.28-.24.52-.28l1.06-1.91,1.9-.82-.18.47c-.45,1.17-1.06,2.31-2.41,2.67l-.04.09c-.05.11-.1.23-.17.33-.06.1-.14.18-.25.3l-.45.5-.08-.4c-.09-.44-.06-.73.09-.94Zm2.27-126.78c.02-.5.08-1,.13-1.49.13-1.1.26-2.13-.1-3.07-.37-.39-.86-.55-1.59-.52-.11,0-.23.01-.36.03-.05.08-.1.16-.16.25-.17.25-.35.54-.42.83-.22.92-.35,1.87-.48,2.79l-.05.35c-.45,3.14-1.58,6.16-2.67,9.1l-.13.29.05.97-.02.29.17.21c.14.18.29.37.46.54.03.03.11.06.22.11.06.03.13.06.22.09l1.59-.5c.11-.25.21-.49.33-.76l.05-.11c.26-.58.5-1.13.71-1.69.74-1.99,2.14-3.65,4.29-5.08.23-.15.52-.17.8-.19.1,0,.19-.01.39-.05h.06s.23.58.23.58c.13.32.24.61.33.91.04.14.06.28.07.42,0,.11.02.23.05.33.71,2.2,1.44,3.9,3.89,4.08l1.05-.25.67-.14c.33-.27.69-.54,1.06-.82.86-.65,1.75-1.32,2.52-2.12,1.04-1.06,2.17-2.36,2.76-3.98l-.26-1.25-.96-.65c-.13.08-.27.16-.41.24-.37.21-.72.42-1,.69-.95.91-1.75,1.77-2.46,2.64-.72.89-1.6,1.46-2.7,2.04l-.21.11-.3-.82c-.15-.41-.29-.8-.45-1.18-.11-.28-.2-.57-.31-.89-.21-.67-.43-1.37-.91-1.88-.36-.38-.76-.71-1.16-1.04-.16-.13-.32-.26-.4-.37l-.8.03-1.07.02-2.73,1.26v-.33ZM5.35,83.56c.29-.1.58-.2.87-.3.65-.22,1.32-.45,1.97-.71,1.68-.69,3.35-1.43,4.97-2.15l.4-.18c.53-.23,1.05-.47,1.58-.71l.18-.08c.63-.29,1.25-.57,1.88-.85.9-.39,1.79-.78,2.73-1.18l.16-.07c1.16-.5,2.33-1,3.49-1.52l.45-.2c2.81-1.25,5.72-2.55,8.55-3.88,1.44-.68,2.92-1.45,3.82-2.77.1-.62-.01-1.12-.29-1.45-.32-.06-.66-.08-1.01-.06-.74.03-1.52.22-2.45.58-1.81.71-3.61,1.5-5.35,2.26l-.06.03c-.94.41-1.88.82-2.83,1.23-.25.11-.51.15-.8.19-.14.02-.28.05-.44.08l-.28.06.04-.29c.01-.13.02-.25.03-.36.02-.19.03-.32.07-.46.19-.63.39-1.26.6-1.96.27-.88.54-1.76.8-2.64.23-.77.43-1.55.64-2.34l.29-1.11c.12-.43.37-1.36.37-1.36.27-.99.55-1.99.8-2.99.27-1.09.52-2.18.79-3.33.25-1.06.5-2.12.76-3.17.2-.82.43-1.65.68-2.57.23-.85.45-1.69.66-2.54.26-1.05.49-2.09.73-3.14.23-1.03.47-2.06.72-3.09.33-1.36.68-2.72,1.03-4.08l.02-.09c.21-.81.42-1.62.63-2.44.14-.55.27-1.1.41-1.67.23-.93.46-1.9.72-2.85.75-2.74,1.39-4.98,2.02-7.04.07-.22.13-.45.2-.7.33-1.15.67-2.35,1.52-3.36.6-.24,1.19-.48,1.79-.71l.07-.03c3.04-1.2,5.91-2.34,8.7-4.09l.21-1.78-.78-.7-.36.09c-.28.07-.54.14-.78.23l-1.08.41c-1.4.53-2.85,1.07-4.25,1.68-.33.15-.63.22-.92.23-.31.01-.62-.05-.95-.18-.33-.14-.7-.23-1.03-.32-.12-.03-.25-.06-.34-.1l-.35.19-.98.51-.44.66-.81,1.14c-6.14,2.3-11.19,3.78-15.84,4.6l-.87,1.49.11.26c.1.25.19.47.29.68.05.1.11.19.21.32.04.05.07.1.1.15.2.02.4.06.62.1.34.06.66.12.96.1.09,0,.18-.01.27-.03,2.4-.52,4.78-1.15,6.8-1.69,1.15-.31,2.25-.65,3.41-1.01l1.91-.58-.72,2.5c-.44,1.5-.86,2.96-1.27,4.43l-.1.35c-.42,1.47-.89,3.13-1.31,4.74-.2.79-.38,1.57-.56,2.36-.15.68-.31,1.37-.48,2.05-.44,1.77-.87,3.39-1.31,4.96-.35,1.27-.69,2.64-1.02,4.2-.2.94-.49,1.88-.77,2.8-.19.61-.38,1.24-.54,1.86-.28,1.08-.54,2.16-.81,3.24l-.03.14c-.26,1.09-.53,2.17-.81,3.26-.78,3-1.59,6.03-2.41,9.01-.57,2.07-1.17,4.07-1.83,6.3-.14.47-.31.93-.5,1.43-.08.21-.16.43-.36.76l-4.97,2.01c-.67.27-1.42.57-2.14.89-.64.28-1.27.58-1.93.89l-.08.04c-1.13.53-2.29,1.08-3.47,1.55-1.15.45-1.88,1.08-2.36,2l.39,1.33,1.67.53Zm20.7,82.34l-.07-.17c-.19-.05-.39-.07-.57-.06-.5.02-.97.23-1.54.65l-.32.92c-.23.66-.47,1.33-.69,2-.4,1.26-.75,2.6-1.13,4.34-.28,1.31-.68,2.61-1.06,3.89-.23.75-.45,1.5-.66,2.26-.35,1.28-.68,2.57-1.01,3.85-.24.93-.48,1.86-.73,2.79-.04.16-.09.33-.13.51-.15.6-.3,1.21-.59,1.77-.32.6-.49,1.27-.66,1.92-.1.37-.2.76-.33,1.14-.17.49-.32.98-.48,1.51l-.03.09c-.14.46-.28.92-.44,1.37-.84,2.45-1.62,4.67-2.37,6.79-.41,1.14-.83,2.27-1.25,3.41l-1.13,3.05c-.4,1.07-.8,2.15-1.18,3.23-.19.55-.37,1.11-.54,1.67-.32,1.03-.65,2.09-1.11,3.08-.38.82-.67,1.69-.96,2.54-.27.79-.54,1.62-.9,2.41-.44,1-.76,2.06-1.08,3.09-.18.6-.36,1.2-.57,1.79-.57,1.66-1.16,3.31-1.75,4.97-.3.85-.61,1.7-.91,2.56-.1.27-.2.54-.31.83-.24.64-.49,1.29-.64,1.95-.1.45-.23.92-.36,1.38-.38,1.34-.77,2.73-.41,4.08.43.65.95.94,1.63.92,0,0,.1,0,.16,0l.83-.81c.09-.35.17-.69.26-1.04l.04-.16c.19-.79.38-1.54.61-2.29.27-.86.59-1.72.9-2.58l.02-.07c.23-.64.47-1.28.68-1.92.21-.61.39-1.23.58-1.86.32-1.06.65-2.15,1.08-3.21.59-1.44,1.13-2.95,1.64-4.4.51-1.43,1.03-2.91,1.62-4.36.63-1.54,1.16-3.15,1.68-4.72.23-.69.45-1.38.69-2.06.09-.27.18-.54.29-.87.17-.5.33-1.01.52-1.5.21-.55.44-1.1.67-1.67.42-1.01.86-2.06,1.16-3.12.22-.76.51-1.52.79-2.25.32-.85.66-1.72.89-2.62.15-.59.38-1.18.61-1.76.25-.62.5-1.27.66-1.97.17-.76.35-1.55.74-2.24.38-.67.57-1.4.76-2.1.08-.31.16-.62.26-.93.35-1.1.66-2.24.98-3.37.13-.47.26-.94.4-1.41l.36-1.25c.34-1.18.67-2.36,1.01-3.54l.32-1.12c.33-1.15.66-2.34.96-3.53.24-.97.47-1.94.69-2.91l.04-.18c.13-.58.26-1.16.4-1.73.08-.35.19-.7.29-1.05.18-.64.38-1.29.44-1.93.05-.47.22-.92.38-1.36.25-.67.51-1.36.32-2.04l-.43-.59Zm231.14-121.68c3.44-.24,6.32-2.02,9.07-5.56l.52-1.85c.09-1.39-.57-2.38-1.27-3.42-.18-.27-.37-.56-.47-.78l-1.81-1-.41-.24-.86-.17-.94-.22-.21.08c-.17.07-.34.14-.53.19-1.11.29-2.03.94-2.88,2.04-1.05,1.36-1.88,2.86-2.51,4.6-.74,2.03-.65,3.75.26,5.38l2.04.95Zm2.91-9.96c.26-.06.51-.09.75-.1.66-.03,1.25.13,1.81.5l1.2,1.75v.06s0,.07,0,.07c-.36,1.1-.88,1.85-1.53,2.24-.28.17-.55.35-.84.54-1,.67-2.03,1.36-3.43,1.42h-.32s-.07-.83-.07-.83l-.05-.88c.53-1.59,1.33-3.14,2.49-4.77Zm14.51,4.97c-.01.54-.03,1.2.61,1.59l1.42.16.98-1.19-.1-.04,1.43-3.35c3.35-3.07,6.64-4.58,10.36-4.73h.2s.24-.89.24-.89l.19-.45c-.41-.68-1.02-.91-1.56-1.12-.14-.05-.28-.11-.33-.14-.26,0-.51,0-.76,0-2.79.12-5.14,1.36-7.92,2.98l-.36.21.34-2.87.35-2.4-1.26-1.45-.51.22-.72.24c-.07.16-.15.33-.22.5-.16.34-.33.69-.38,1.03-.16.96-.29,1.95-.42,2.85-.14,1.05-.29,2.14-.48,3.21-.19,1.1-.45,2.22-.72,3.41l-.2.86-.2.81c.03.17.03.36.02.57Zm75.19-17.56l-.53-1.09c-.13,0-.26,0-.39.01-1.56.07-3.01.33-4.44.8-3.12,1.04-5.7,2.4-7.89,4.15-.67.54-1.42,1.07-2.14,1.59l-.08.06c-.31.22-.64.45-.97.7l-.36.26.03-.44c.1-1.58.13-3-.53-4.32l-.8-.21-.72-.24c-1.19.53-1.27,1.46-1.19,2.38.31,3.42-.65,6.75-1.4,8.91l.38,1.02.08.27,1.62.52c.11-.11.22-.21.36-.34.32-.29.61-.57.81-.89.68-1.11,1.48-2.12,2.39-2.98l.41-.39c1.41-1.34,2.86-2.73,4.51-3.87,1.87-1.3,3.73-2.53,5.87-3.33.54-.2,1.08-.42,1.63-.64.7-.28,1.42-.57,2.14-.82.59-.21.95-.56,1.2-1.1Zm-53.68,73.27l-1.54.86c-1.06.59-2.07,1.15-3.09,1.71-1.76.96-3.61,1.42-5.66,1.89-.14.03-.28.07-.46.13-.33.1-.67.21-1.02.22-.43.02-.79-.1-1.1-.38l-.24-.22.3-.14c.46-.22.92-.43,1.4-.64,1.09-.49,2.22-1,3.29-1.6.59-.33,1.1-.86,1.61-1.38.15-.15.3-.31.45-.45.21-.21.39-.46.58-.72.1-.14.19-.26.23-.27l.23-1.84c-.78-2.6-2.33-3.82-4.74-3.71-.3.01-.64.05-.95.09-3.3,1.57-5.5,4.42-6.56,8.51v.04s-2.33,1.05-2.33,1.05c-.19,1.03.09,1.65.91,2.07l1.4.07.27.45c.39.68.76,1.32,1.51,1.66,1.03.47,2.1.68,3.18.63.62-.03,1.26-.14,1.9-.33l.99-.29c1.42-.42,2.88-.85,4.28-1.42l.41-.17c2.15-.87,4.38-1.76,5.77-4.09l-.23-1.38-.75-.34Zm-13.27.6c.45-2.2,1.93-3.22,3.47-4.11h.05s.06,0,.06,0c.74.2,1.42.55,1.35,1.77-.89,1.07-2.03,1.51-3.24,1.98-.46.18-.94.36-1.4.59l-.37.18.08-.41Zm71.21,115.59c0-.24-.02-.48-.01-.71.01-.42-.07-.85-.15-1.23-.03-.13-.05-.27-.06-.38l-.63-.35-.56-.33-3.37,1.4c-.23.16-1.02.8-1.49,2.16l.15.79.12.83c.92.9,2,.89,3.05.88.27,0,.54,0,.8,0l1.41-.56c.81-.74.78-1.65.74-2.52Zm-40.67-177.08l.43.58c.22.3.44.59.65.88.06.07.11.15.17.24.13.19.26.39.43.5,1.33.93,2.69,1.36,4.17,1.3h.01c2.09-.09,4.04-.79,5.82-2.09.17-.12.34-.24.57-.38.64-.42,1.31-.85,1.67-1.6l-.58-1.13c-.22.05-.45.1-.69.16-.55.13-1.06.24-1.57.4-.53.16-1.07.37-1.6.57-1.11.43-2.25.87-3.53.93l-.15-.02c-.18-.08-.4-.13-.65-.17-.57-.11-1.21-.23-1.63-1.03v-.08s.04-.06.04-.06v-.02c.52-.68,1.22-.95,1.9-1.2.49-.19.95-.36,1.32-.69.67-.59,1.32-1.23,1.9-1.79.25-.25.51-.49.73-.72l-.03-.21.3-1.6c-.31-1.26-1.22-2.08-2.21-2.98l.02-.02-1.51-.23-.33-.07c-.11.03-.23.07-.37.11-.27.07-.57.16-.82.31-.15.08-.3.17-.46.25-.57.31-1.17.63-1.51,1.09-1.15,1.55-2.29,3.23-2.49,5.32v.05s-1.6.34-1.6.34l-1.21.2-1.04,1.31,1.02,1.51,2.82.06Zm4.65-6.75c.08-.11.15-.21.22-.33l.08-.14,1.8.42-2.39,1.86-.09-.28c-.22-.7.11-1.15.37-1.52Zm4.46,185.4c.3-.01.61-.05.96-.09.21-.02.42-.05.63-.07l.69-1.33-.48-.8-.02-.06-.82-.16-.68-.17-1.9-1.74c-1.87-4.28-1.36-8.77-.36-11.27l-.48-1.88-.51-.02-1.18-.1q-1.04.73-1.63,1.76l-.07.13c-.14.25-.28.5-.49.71-.58.56-1.13,1.17-1.68,1.78-.44.49-.94,1.04-1.45,1.56-1.59,1.61-3.35,2.84-5.17,4.07l-.22.15-.09-.25c-.03-.1-.07-.19-.12-.29-.09-.2-.18-.41-.17-.64.08-2.37.76-4.46,2.01-6.17l.06-1.82-1.38-.71-1.13.64-.4.18c-.91,1.87-1.69,3.57-2.13,5.46-.52,2.25-.48,4,.11,5.48l.33.33.85.89,1.54.28.27.07c2.91-.76,5-2.72,7.21-4.79l.09-.08c.32-.3.65-.61.98-.91l.25-.23.09.32c.04.13.08.25.14.42.09.28.18.54.21.81.31,2.25.86,4.1,1.66,5.66.9,1.75,2.23,2.72,3.94,2.87.18.01.37.02.55,0ZM160.69,58.07l1.27.62,1.21-.56.34-.59c1.66-2.86,3.24-5.55,5.78-7.79l.2-.18.12.23c.49.93.28,1.76.08,2.56-.07.28-.13.54-.17.81-.04.31-.1.62-.16.95-.19,1-.37,1.95.04,2.79l.72.54c1.05-.29,1.68-1.04,1.92-2.31.1-.5.21-1.01.33-1.54.42-1.87.85-3.81.42-5.79q-.52-1.01-1.49-1.63c-.19-.02-.38-.03-.57-.02-1.23.05-2.28.76-3.4,1.52-.23.16-.47.32-.71.48l-.43.28,1.16-4.97c.14-.61.28-1.21.43-1.82l1.22-4.98.41-1.67c.24-1,.49-2.01.74-3.01.14-.56.28-1.11.44-1.69.22-.84.45-1.68.64-2.53.16-.7.31-1.4.46-2.17.16-.79.34-1.67.55-2.52.37-1.51.78-3.03,1.18-4.5l.33-1.22c.28-1.04,0-1.78-.9-2.32l-.3.15-.95.4c-.12.36-.25.72-.38,1.08l-.05.14c-.31.88-.64,1.79-.91,2.71-.42,1.48-.82,3.01-1.22,4.53-.17.65-.34,1.3-.51,1.95l-.57,2.14c-.44,1.64-.88,3.29-1.3,4.94-.18.7-.33,1.41-.48,2.11-.15.71-.31,1.42-.49,2.13-.39,1.54-.8,3.08-1.21,4.62,0,0-.49,1.84-.69,2.59-.09.36-.18.72-.26,1.08-.12.49-.24.98-.37,1.47-.67,2.36-1.34,4.72-2.03,7.07-.18.62-.37,1.23-.58,1.87l-.27.72.24.71.14.63Zm-19.59-6.38c.49.09.99.13,1.55.1.99-.04,1.96-.26,3-.49.53-.12,1.07-.24,1.61-.33l.26-.04-.02.27c-.04.45-.09.89-.14,1.34-.11.97-.21,1.88-.2,2.8,0,1.43.5,2.66,1.4,3.56l1.77.59c.08,0,.16,0,.24,0,3.93-.16,7.4-4.04,8.5-6.56l-.37-1h-.06s-.86-.03-.86-.03c-.41.34-.81.67-1.26,1.04-.96.79-1.86,1.54-2.78,2.33-.81.7-1.61,1.04-2.53,1.08-.12,0-.24,0-.44-.01l-.06-.04-.04-.06c-.04-.08-.1-.16-.16-.24-.16-.23-.33-.46-.31-.74l.03-.52c.09-1.61.19-3.27,1.16-4.67l4.51-1.71,1.21-.42,1.13-1.49-.52-1.16c-.29-.06-.58-.08-.88-.06-.76.03-1.47.27-2.23.53-.54.18-1.11.37-1.71.49l-.39.07.17-.37c.16-.35.36-.66.56-.99.42-.66.81-1.29.72-2.01l-.81-.9c-1.22.11-2.05.65-2.54,1.65-.17.35-.33.7-.51,1.11l-.04.09c-.2.46-.41.92-.64,1.37-.15.3-.36.58-.55.83-.09.12-.18.24-.39.44l-7.12,1.41-.93,1.41.42.85.23.5Zm39.66,1.5l.64,1.42,2.11,1.39c1.09.26,2.18.38,3.22.33,3.16-.13,6.19-1.65,9.51-4.72l.19-1.65c-.25-.15-.51-.22-.79-.21-.38.02-.76.18-1.13.34l-.06.03c-.69.3-1.4.68-2.31,1.23-1.92,1.15-3.8,1.75-5.76,1.84-.14,0-.28,0-.55-.06-.09-.11-.29-.15-.5-.19-.37-.07-.88-.18-1.12-.77l-.08-.19.19-.09c3.22-1.49,6.04-2.96,7.99-5.84l.19-.68.29-.91-.45-1.62-.85-.76-.82-.77-1.65-.32c-1.62.14-2.89.94-4.14,1.72-.21.13-.42.26-.58.35-1.52,1.74-3.08,3.65-3.91,6.1l-1.16.78v1.61s1.11.79,1.11.79l.4.85Zm4.01-5.74c.65-1.79,2.03-2.59,3.51-3.33l.11-.05.74.51.03.08v.07s-.02.02-.02.02c-.01.04-.02.08-.03.12-.02.1-.05.2-.13.28-1.08,1.14-2.2,2.31-3.98,2.58l-.34.05.12-.33Zm16.31,7.66c.05-.07.11-.15.21-.27.23-.29.46-.6.65-.93.16-.29.3-.6.45-.93.23-.5.46-1.02.8-1.47,1.66-2.13,3.33-4.19,5.42-5.95,1.5-1.27,3.31-2.71,5.43-3.78,1.08-.55,1.8-1.23,2.13-2-.19-.82-.83-.91-1.49-.89-.68.03-1.37.19-1.94.45-2.13.97-4.37,2.08-6.15,4.01-.21.23-.48.39-.74.56-.15.09-.3.18-.44.29-.1.08-.2.17-.3.27-.27.26-.55.53-1,.63l-.28.06.03-.28q.43-4.49-.31-5.8l-.89-.4c-.64.19-.94.65-1.23,1.19-.25.45-.28.92-.3,1.41-.01.26-.03.52-.08.79-.08.47-.18.93-.28,1.41-.19.92-.39,1.87-.48,2.81-.12,1.26-.44,2.47-.74,3.5-.25.88-.44,1.81-.63,2.72-.08.38-.16.78-.26,1.01l.71,1.51,1.71.08Zm136.84,135.98c.31-.43.57-.8.87-1.14l.19-.22c.37-.44.75-.89,1.24-1.13,1.02-.5,1.44-1.24,1.39-2.35-.39-.38-.82-.56-1.29-.54-.58.02-1.2.33-1.81.63l-.23.1-.34.35c-1.42,1.46-2.88,2.98-3.77,4.87l-.43,1.66.1.4c.06.26.13.51.21.77.23.73.54,1.54,1.23,1.98,1.03.66,1.74,1.6,2.43,2.51l.35.52.08,1.96c-.33,1.21-.92,2.38-1.81,3.57-.38.51-.77,1-1.25,1.58-.33.4-.66.81-.98,1.22-.78.98-1.59,2-2.49,2.9-1.48,1.49-2.83,2.77-4.13,3.92-1.5,1.33-3.17,2.55-5.09,3.73-.77.47-1.37,1.06-2.05,1.74l-.12.12.75,1,.2.34,1.88.09c.18-.07.37-.14.58-.21.44-.15.85-.3,1.18-.55.64-.49,1.31-.95,1.97-1.39,1.04-.7,2.11-1.42,3.04-2.31.14-.13.26-.28.4-.44.22-.26.44-.53.74-.71,1.08-.69,1.94-1.65,2.77-2.59.5-.56,1.02-1.14,1.58-1.66.17-.15.31-.36.45-.56.16-.24.33-.48.55-.67.92-.79,1.62-1.79,2.33-2.81.19-.28.39-.55.59-.82,1.18-1.6,1.93-3.35,2.24-5.19.16-.94.19-1.68.11-2.31-.08-.6-.26-1.18-.45-1.79-.08-.25-.17-.54-.19-.72l-3.95-3.59.44-1.52c.17-.24.33-.45.51-.7ZM108.49,64.15c1.88-3.28,3.76-5.96,5.95-8.43.22-.12.45-.3.69-.48.58-.44,1.24-.93,2.18-1.18l.21-.06.04.22c.45,2.55.2,5.04-.04,7.46l-.09.94-.12,1.14c.34.79.89,1.15,1.73,1.15l.71-.82.33-.31c0-.1,0-.2.01-.37,0-.28,0-.58.08-.88.62-2.75.78-5.04.52-7.21-.09-.71-.26-1.45-.52-2.28-.33-1.04-1.27-1.4-2.19-1.74l-.2-.1c-2.36.12-3.97,1.66-5.84,3.45l-.85.81.24-1.23.64-3.03-.37-.72-.17-.44-.99-.45c-1.02.25-1.47,1.09-1.54,1.8-.08.72-.26,1.4-.44,2.08-.16.6-.32,1.23-.4,1.84-.14,1.17-.47,2.32-.79,3.43-.17.61-.35,1.24-.5,1.86-.04.17-.09.35-.14.55-.27,1-.54,2.04.18,2.91l1.68.08Zm157.7,33.87l.94.93c.62,1.8.42,3.57.22,5.29l-.12.9c.26.69.82.77,1.36.84l.7-.59.64-.49c1.18-4.33.75-7.19-1.4-9.25-.84-.42-1.67-.61-2.53-.57-1.56.07-2.97.85-4.33,1.62l-.45.26-1.48-1.58-1.64-.17c-1.11.34-1.99,1.01-2.93,1.73-.33.25-.66.5-.99.73l-.21.14-.98-2.38-1.69-.08-1.27,2.18c.55.86.69,1.75.4,2.65-.37,1.17-.76,2.29-1.18,3.48-.17.47-.35,1.01-.53,1.4l.12.39.17.67.92.64.25-.07c.14-.03.26-.07.37-.12.19-.09.37-.2.57-.32l.14-.03c1.26-3.06,3.31-5.52,6.45-7.76l.35-.25-.09,1.76-.05.74-.63,1.46-.7,1.55.13,1.5,1.62.57c1.17-.69,1.57-1.77,1.92-2.73.14-.37.26-.72.45-1.06,1.37-1.9,2.79-3.86,5.48-3.98h.04Zm-57.85,74.62c.78-.92,1.37-1.95,2-3.06.16-.28.32-.56.45-.75l.27-2.04-.93-1.88-.19-.51-1.64-.64-.21-.12-.83-1.22v-.08s.02-.06.02-.06v-.02c.1-.14.19-.28.3-.44.18-.26.35-.51.45-.77.43-1.18,1.18-2.18,1.9-3.14.18-.24.37-.49.55-.74l.06-.08c.5-.69.97-1.34.99-2.17l-.19-.14-.83-.69c-1.76.37-2.64,1.66-3.48,2.91-.19.28-.38.56-.58.83l-.19.26c-.67.89-1.36,1.82-1.57,2.94-.05.25-.21.45-.36.64-.05.06-.08.09-.1.12l-.04.91-.06.87.36.93.14.44.59.47,2.2,1.84c.02,1.11-.08,1.45-.57,2.07-.38.47-.75.95-1.14,1.45-.42.54-.85,1.08-1.28,1.62-.23.29-.47.58-.71.88-.77.97-1.58,1.96-2.44,2.88-.83.89-1.74,1.73-2.61,2.54-.41.38-.82.76-1.17,1.05-.2.8.08,1.44.84,1.96h.06c1.34-.06,2.28-.43,2.97-1.16.38-.41.8-.78,1.22-1.16.81-.73,1.65-1.48,2.17-2.48.07-.14.19-.28.38-.42.84-.68,1.49-1.57,2.13-2.45.34-.46.69-.94,1.07-1.38Zm3.76,38.23l-.58-.95-.6-.09-.6-.12c-.16.15-.32.32-.51.52-.42.43-.84.88-1.36,1.15-.81.41-1.08,1.1-1.37,1.85-.06.15-.12.3-.18.45-.08.18-.07.39-.07.65,0,.23,0,.47-.07.7-.59,2.04-.34,3.82.73,5.42,1.01.43,1.81.61,2.6.57.61-.03,1.2-.18,1.81-.47.4-.19.76-.44,1.11-.69.39-.27.79-.56,1.25-.75,1.04-.45,1.68-1.35,2.12-2.09.15-.25.31-.49.47-.73l.17-.23c.21-1.14.07-2.1-.43-2.93-1.32-.95-2.86-1.73-4.5-2.27Zm2,4.51c-.71,1.08-1.73,1.55-2.72,2.01-.42.19-.85.39-1.25.64l-.17.1-.11-.16c-.75-1.1-.47-2.12-.2-3.12.08-.29.15-.57.21-.86l.04-.19h.19c1.22.06,2.64.25,3.98,1.3l.15.12-.11.17Zm-12.89-3.34c-.17-.05-.3-.1-.38-.15-2.72.54-5.04,2.23-7.09,3.73l-.48.35.16-.58c.1-.36.21-.7.32-1.04.24-.73.46-1.43.51-2.12.02-.29.09-.6.16-.91.18-.77.36-1.57-.19-2.26l-1.23-.52-.62.46-.49.3c-.2.77-.4,1.54-.61,2.33-.45,1.72-.92,3.51-1.33,5.28-.53,2.33-1.28,4.68-2.28,7.14l.47,1.61c.32.35.7.38,1.05.37.12,0,.24-.02.39-.03.14-.01.28-.03.42-.03.04,0,.08,0,.12,0,.76-.72,1.06-1.7,1.36-2.64.1-.31.2-.65.37-1.05.09-.1.18-.19.29-.29.19-.19.4-.4.55-.62.7-1.04,1.57-1.92,2.43-2.77.41-.41.87-.87,1.29-1.34l.08-.09c.16-.18.33-.37.54-.5.42-.26.85-.51,1.34-.79.65-.38,1.33-.77,1.99-1.2.75-.49,1.52-.99,1.8-1.77-.09-.59-.47-.71-.96-.86Zm-11.05-34.08c.71-.03,1.39-.21,2.02-.53.88-.45,1.74-1.76,1.75-2.59l-.68-.93-2.48.89h-.51s-1.15-.05-1.15-.05l-1.43-1.65c-.29-2.3.1-4.29.54-5.94.32-.57.86-.93,1.65-1.11,2-.44,3.76-1.18,5.35-2.22l.65-1.2-.22-.29-.29-.46c-.13,0-.27,0-.4,0-.82.03-1.62.24-2.4.44-.8.21-1.63.42-2.52.46h-.48s.1-.28.1-.28c1.82-5,3.97-10,6.97-16.14l-.23-1.17-1.02-.35c-.08.08-.17.17-.27.27-.25.24-.49.47-.65.73-.3.48-.58.99-.84,1.5-.17.32-.34.65-.53.97-1.17,2.07-2.14,4.03-2.95,6.01-.22.54-.46,1.07-.7,1.61-.15.32-.29.65-.43.97-.13.31-.26.62-.41.97l-.04.1c-.27.65-.58,1.39-.92,2.09-.18.38-.32.76-.47,1.16-.31.85-.62,1.73-1.47,2.59l-.52.06c-.38.05-.79.1-1.19.13-.44.04-.88.06-1.37.09h-.55s-1.25,1-1.25,1l.16.84.09.58.73.38.5.29h2.57s.07.06.07.06l.03.08v.03c.01.08.03.15.05.26.05.22.09.42,0,.62-.45,1.07-.49,2.2-.53,3.3,0,.2-.02.4-.03.6-.04.82.09,1.67.38,2.4.78,1.98,1.8,2.87,3.75,3.3.54.12,1.06.17,1.56.15Zm-11.14,44.52c-.3-.31-.61-.63-.88-.99-.85-1.13-.74-2.5-.53-3.59l-1.18-1.27-.77.26-.66.19-.18.46c-.17.43-.34.87-.54,1.29-.15.34-.33.72-.62,1-.53.51-1.15,1.09-1.84,1.55l-.26.17c-.8.54-1.63,1.11-2.69,1.15-.11,0-.23,0-.47-.08-.35-.47-.27-.99-.2-1.49.05-.31.1-.63.01-1.01v-.04s1.72-1.63,1.72-1.63l.19-1.16-.8-.84-1.13.16-.29.02-.96.65-.34.2c-.13.24-.26.47-.39.69-.28.49-.55.95-.71,1.43-.3.89-.45,1.73-.47,2.48-.03,2.13.88,3.47,2.69,3.98.16,0,.32,0,.47,0,2.91-.12,4.97-1.8,6.6-3.42l.17-.17.14.19c1.33,1.76,2.72,3.37,5.1,3.69.54-.19,1.07-.48,1.33-1.29l-.63-.64c-.61-.63-1.25-1.28-1.89-1.94Zm78.63-17.42l-.25-.19-1.91.24-2.93,1.9v-.36c-.04-.55.09-1.06.22-1.56.18-.69.34-1.34.08-1.92-.38-.32-.77-.48-1.15-.46-.35.01-.74.18-1.08.44l-.36.84c-.23.54-.46,1.07-.67,1.61-.23.59-.45,1.18-.68,1.78-.41,1.09-.84,2.22-1.32,3.31-.1.23-.34.76-.34.76-.56,1.22-1.08,2.37-1.33,3.47.2.73.71.99,1.36,1.33.1.05.2.1.3.16.12-.09.25-.18.37-.28.36-.26.72-.53,1.02-.85.27-.3.52-.64.76-.98.34-.48.69-.97,1.14-1.36.56-.49,1.04-1.07,1.52-1.64.62-.74,1.26-1.51,2.09-2.1l.33-.24c.48-.35.97-.71,1.69-.94l.08.03.05.06v.02c.05.06.09.11.14.18.1.14.22.29.21.48v.4c-.05,1.16-.09,2.35-.22,3.54-.07.72-.19,1.46-.3,2.12-.1.6-.2,1.22-.27,1.83-.09.77.1,1.34.59,1.79l1.37-.06c1.3-2.04,1.49-4.29,1.68-6.47l.07-.8c.16-1.7.18-3.51-.74-5.15l-1.56-.9Zm-15.98-105.66c-.37-.13-.79-.28-1.14-.54-.38-.29-.8-.35-1.3-.43-.15-.02-.3-.04-.44-.07-.74-.15-1.53-.2-2.48-.16-.27.01-.55.03-.82.05-1.85.15-3.08.93-3.84,2.42l.05.46.06.9c-1.59,2.56-1.53,4.98.14,6.62l1.86.55c3.76-.59,6.67-2.2,8.88-4.91l.6-1.78c-.03-1.11-.49-1.99-1.15-2.95-.12-.05-.25-.1-.42-.15Zm-1.52,2.95v.02c-1.38,2.29-3.47,2.91-5.69,3.57l-.4.12-.06-.19c-.03-.09-.06-.17-.11-.27-.09-.21-.17-.4-.1-.6.06-.19.13-.38.19-.58.35-1.13.71-2.29,2.06-3.09l1.35-.38.08.02.04.03h.01c.23.22.57.26.94.31.57.07,1.21.15,1.72.92v.08s-.02.06-.02.06Zm1.86,115.69l-2.97-.16c-.12-.07-.24-.14-.38-.21-.32-.17-.65-.36-.97-.58l-.12-.08c-.34-.24-.73-.51-.89-.9-.12-.29-.24-.59-.37-.88-.8-1.87-1.63-3.81-.71-6.21.23-.6.24-1.29.25-1.97,0-.29,0-.59.06-.79l-1.07-1.2-.29.08c-.76.22-1.49.43-1.79,1.19l-.15.38c-.27.66-.56,1.33-.56,2.07,0,1.1-.51,2.11-1.41,2.77-1.4,1.03-2.82,1.77-4.35,2.27l-.22.07-.05-.22c-.3-1.46.22-2.78.72-4.05.09-.24.19-.48.28-.68l-.38-.81-1.27-.26-1.36,1.36c-.07.2-.15.39-.22.57l-.03.08c-.16.41-.31.79-.41,1.19-.45,1.74-.92,3.54.24,5.23l.79.37,1.04.53c.08-.02.17-.04.29-.08.21-.06.43-.11.65-.13,1.12-.08,2.09-.44,2.98-1.11.54-.41,1.11-.73,1.74-1.08.27-.15.54-.3.82-.47l.19-.11,1.07,2.08,1.28,2.55,1.78,1.17.64.44,1.94.5,2.21-.62.7-.14.87-1.27-.35-.51-.23-.37Zm-20.33-117.53l-1.31-.37-.84-.28-5.27,1.77s.48-1.25.65-1.7c.34-.89.66-1.74,1.02-2.59.21-.5.44-.99.69-1.51.23-.48.46-.97.66-1.46.31-.75.61-1.55.92-2.37.12-.33.25-.66.37-.99.57-1.51,1.15-3.01,1.74-4.52.66-1.7,1.23-3.49,1.79-5.22.22-.69.44-1.38.67-2.08l-.76-1.01-.27.02-.85.02-.73.81-.75,1.98c-.52,1.38-1.01,2.65-1.5,3.92-.21.54-.44,1.07-.67,1.61l-.05.12c-.14.33-.28.66-.42,1-.21.5-.41,1.01-.61,1.52l-.09.22c-.21.53-.42,1.06-.64,1.59-.31.74-.62,1.48-.93,2.22l-.12.28c-.32.76-.64,1.52-.95,2.28-.15.37-.3.74-.44,1.12-.24.62-.49,1.27-.78,1.9-.81,1.74-1.63,3.4-2.47,5.1-.35.7-.71,1.39-1.07,2.1-.57,1.1-1.16,2.24-1.69,3.39-.2.42-.42.84-.65,1.26-.57,1.05-1.16,2.13-1.41,3.37l1.1,1.22,1.59-.35.57-1.06c.3-.55.59-1.08.89-1.62.15-.26.29-.53.43-.8.34-.66.7-1.34,1.15-1.95,1.08-1.44,2.29-2.73,3.61-3.81,1.38-1.14,3.04-2.39,5.3-2.74l.08.05.04.07v.02c.05.13.1.25.14.37.11.28.22.55.22.85.01,1.27-.2,2.57-.62,3.87-.42,1.3-.88,2.62-1.33,3.89l-.25.71c-.15.42-.31.84-.49,1.32l-.27.68-.19,1.6,1.6.49.25-.17.77-.5c.16-.35.32-.67.47-.99.31-.64.61-1.25.84-1.88.77-2.07,1.35-4.22,1.87-6.25.67-2.62.34-4.76-.99-6.53Zm-131.43.72l-1.81-.45c-.2.06-.42.13-.65.19-.51.15-1.05.3-1.55.53-.54.24-1.05.55-1.59.88-.23.14-.49.3-.67.37-.2.33-.41.66-.62.99-.43.67-.96,1.51-1.41,2.32-.84,1.52-1.29,3.14-1.77,4.94-.29,1.14-.56,2.37-.8,3.76-.12.71-.22,1.41-.33,2.15-.12.84-.24,1.71-.4,2.56-.25,1.31-.55,2.61-.88,4.04l-.44,1.9c-.24.47-.73,1.03-1.71,1.07-.19,0-.38.06-.59.12-.13.04-.27.07-.4.1l-.81.16c-1.2.24-2.41.48-3.62.7-1.23.23-2.34.41-3.4.57-.48.07-.96.16-1.5.27-.91.18-1.85.36-2.8.4h-.2c-.36.02-.74.17-1.11.32-.17.07-.34.14-.43.14,0,0-.02,0-.02,0l-.92,1.06.48,1.41.38.07c.51.09,1,.18,1.48.16.29-.01.56-.06.83-.15.53-.18,1.13-.3,1.84-.34,2.65-.17,5.28-.72,7.97-1.31.22-.05.44-.1.67-.16.63-.16,1.28-.32,1.96-.35.24,0,.46,0,.68.02l.23.03-.06.23c-.13.5-.24.98-.37,1.55-.26,1.12-.5,2.19-.87,3.23-.66,1.9-1.43,3.83-2.18,5.7,0,0-.54,1.35-.76,1.91-.07.19-.14.38-.21.57-.22.6-.45,1.23-.82,1.76-.41.58-.66,1.24-.91,1.89-.17.44-.34.89-.56,1.33-.66,1.28-1.21,2.63-1.75,3.94-.23.55-.46,1.13-.69,1.56l.26,1.42,1.34.58.82-.53.26-.12c.16-.37.32-.73.48-1.12.32-.75.62-1.45.98-2.14,1.18-2.22,2.11-4.21,2.85-6.09.18-.45.39-.9.58-1.32.13-.28.26-.55.38-.83l.24-.55c.37-.85.79-1.82,1.16-2.75.39-.98.77-2.02,1.18-3.18l.19-.56c.62-1.79,1.26-3.63,1.6-5.51.08-.45.2-.89.35-1.42.05-.19.11-.39.19-.66l.05-.05.05-.03h.02c.62-.24,1.24-.44,1.88-.65,2.3-.75,4.47-1.46,6.1-3.42l-.49-.79-.7.02c-.23,0-.51.03-.77.1-.67.17-1.36.39-1.98.58l-.1.03c-.62.19-1.24.38-1.87.54-.08.02-.17.04-.26.04-.2,0-.4-.03-.6-.06-.09-.01-.17-.03-.25-.03l-.22-.02.28-1.63c.16-.98.32-1.9.49-2.83.37-1.98.7-3.62,1.03-5.15.4-1.89.82-3.84,1.32-5.76.24-.93.66-1.83,1-2.51.22-.43.49-.81.81-1.24l.53-.72,1.74-.98.83.63.45.39c.65,1.94.36,3.77.05,5.72l-.12.53.38.95,1.16.26c1.29-1.3,1.51-2.98,1.73-4.61,0,0,.07-.49.09-.65.38-2.53-.47-4.6-2.41-6Zm11.63-30.89c.35.31.83.49,1.35.68.2.07.4.15.59.23l.57-.55.29-.25c-.08-1.13-.66-1.86-1.36-2.62-.29-.32-.56-.66-.84-1.02-.9-1.14-1.32-2.53-1.73-3.88l-.04-.14c-.47-1.55-.96-3.15-.82-4.83.16-1.91-.31-3.61-.75-5.27v-.06s-1.51-.94-1.51-.94l-.21-.18c-1.46.12-2.72.63-4.08,1.65-1.11.83-2.05,1.79-3.08,2.85-.78.82-1.33,1.79-1.87,2.75-.17.3-.34.6-.52.9-.37.62-.63,1.24-.75,1.81-.31,1.39-.58,3.01.23,4.46l1.33.93.23.19c.34.02.65.03.93.02.97-.04,1.71-.3,2.33-.81.23-.19.46-.37.7-.56l.11-.09c1.02-.8,2.07-1.63,2.81-2.75.22-.33.5-.6.83-.91.13-.13.27-.26.4-.4l.24-.25.75,2.32c.25.77.49,1.51.73,2.25.52,1.59,1.52,3,3.13,4.46Zm-5.6-12.65c-.08.06-.16.17-.24.3-1.17,2.08-2.52,3.72-4.13,5-.15.12-.28.27-.41.44-.07.09-.14.17-.31.31l-1.27.39-.07-.17c-.02-.05-.05-.1-.08-.16-.07-.14-.16-.31-.14-.49.06-.41.15-.83.24-1.24l.13-.56c1.65-3.49,3.82-5.81,6.84-7.27l.26-.13.03.29c.15,1.29.28,2.41-.85,3.3Zm12.92,136.87c.4-.38.8-.78,1.27-1.08,1.21-.76,1.98-1.95,2.71-3.1l.27-.41c1.11-1.7,1.74-3.33,1.95-4.96.14-1.14-.03-3.26-.72-4.12-.48-.59-1.02-1.16-1.47-1.62-.18-.18-.34-.35-.43-.46l-5.26-2.9-.03-.08v-.08s.01-.02.01-.02c.06-.2.1-.38.15-.58.09-.37.17-.7.35-.98.65-1.02,1.36-2.03,2.11-2.99.55-.72,1.16-1.42,1.71-2.06.24-.28.48-.56.72-.85,1.43-1.69,2.85-3.38,4.28-5.08.31-.37,1.27-1.49,1.52-1.79l-.75-1.46-1.68.33c-.56.63-1.14,1.27-1.78,1.96-1.33,1.46-2.71,2.97-4,4.53l-.13.16c-1.82,2.21-3.71,4.5-5.08,6.99l-.32,1.27-.17.6.25,1.32c1.49,1.99,3.6,3.02,5.28,3.7l1.41,1.19.55.51.39,1.38.09.48-1.35,3.66c-1.84,2.45-4.45,5.43-8.33,6.75l-.81-.47-.47-.36c-.93.3-1.13,1.01-1.34,1.75-.04.15-.07.25-.1.31.22.88.79,1.52,1.78,2.02.18-.02.36-.04.55-.05.42-.03.81-.06,1.16-.2l.49-.19c1.58-.61,3.21-1.25,4.55-2.41.21-.18.42-.38.64-.6Zm-50.69-57.51l-.93-1.06-.95-1.11-2.61-1.27.34-1.56.12-.33c-.44-.87-1.14-1.01-1.87-1.16-.16-.03-.25-.05-.31-.09-1.48.71-2.57,1.65-3.38,2.89l-.81.3h-.12s-.96,1.24-.96,1.24c.36,1.28-.09,2.47-.54,3.48-.51,1.14-.79,2.48-.85,3.96-.01.3.06.61.16.98.05.19.09.38.1.51l1.12,1.68,1.7.53c1.77-.12,3.46-.73,5.15-1.86,1.89-1.26,3.22-2.5,4.29-4.01.42-1.02.78-2.18.36-3.13Zm-3.07,1.38v.02c-1.25,2.32-3.24,3.16-5.16,3.97l-.77.32h-.08s-.05-.05-.05-.05h-.02c-.51-.5-.64-1.13-.41-1.87.32-1.01.67-1.99,1.05-3.05l.53-1.48.19.05c.39.11.81.19,1.18.26,1.22.24,2.48.49,3.55,1.66v.08s-.01.07-.01.07Zm110.54,38.18c.85-.76,1.72-1.55,2.65-2.23,2.88-2.11,5.39-3.32,7.83-3.79l.93-1.56-.17-.21-.24-.37c-.78-.14-1.59-.26-2.32-.23-.5.02-.94.11-1.34.27-1.58.64-3.25,1.37-4.77,2.42-.39.27-.8.49-1.24.72-.21.11-.43.23-.65.35l-.26.15-.04-.3c-.02-.17-.06-.33-.1-.51-.08-.36-.14-.67-.09-1,.19-1.29.13-2.63-.17-3.98-.03-.15-.06-.3-.1-.49-.15-.82-.31-1.66-1.13-2.06h-.21s-.9-.03-.9-.03l-1.01,1.11c.02.12.03.23.05.37.04.31.08.61.18.87.29.76.31,1.56.32,2.33v.44c.02.27-.02.55-.07.84-.02.13-.04.26-.05.4-.04.44-.08.88-.12,1.33v.12c-.1,1.01-.18,2.06-.33,3.09-.11.79-.36,1.55-.71,2.14-.77,1.31-1.5,2.71-1.31,4.22.71.7.72.7,1.78,1.03,1.18-.61,1.8-1.36,2.01-2.44.09-.49.28-.96.47-1.42l.11-.28c.12-.3.25-.65.51-.87l.48-.43Zm122.17.05l-.68.36-.6.24c-.13.42-.28.84-.42,1.28-.32.96-.66,1.95-.92,2.95-.23.89-.42,1.82-.6,2.74-.13.65-.26,1.29-.4,1.93-.28,1.2-.56,2.4-.85,3.6l-.12.49c-.33,1.39-.67,2.79-.98,4.19-.35,1.52-.67,3.05-.97,4.48l-.41,1.85c-1.39,1.87-2.81,3.43-4.62,5.06l-.19.17-.94-1.68-2.12-1.45-1.65-.1c-.17.08-.57.25-.6.26-.44.18-.85.36-1.3.59-.37.19-.79.41-1.01.72l-.31.44c-1.06,1.51-2.17,3.07-2.43,5.01-.04.32-.02.65,0,.94.03.37.06.75-.05.99l.79,1.67.75.22,1.14.36c.19-.04.38-.08.59-.12.42-.08.86-.17,1.26-.34,1.98-.87,4.28-2.03,6.22-3.96.54-.54,1.18-1.01,1.88-1.52.32-.23.65-.48.99-.74l.42-.33-.09.53c-.07.42-.14.81-.22,1.22-.15.8-.27,1.49-.34,2.19l-.04.41c-.1.9-.2,1.83.2,2.69l1.53.83,1.32-.93c.04-1.44.31-2.86.56-4.23.15-.82.31-1.66.42-2.51.14-1.11.43-2.23.71-3.33.12-.45.23-.89.33-1.34.05-.21.11-.42.18-.63.12-.37.24-.76.25-1.12.03-1.1.31-2.16.58-3.19.17-.64.34-1.31.45-1.97.1-.61.27-1.22.42-1.77.19-.7.39-1.43.45-2.14.1-1.08.36-2.14.63-3.18.19-.74.38-1.51.5-2.28.19-1.18.43-2.32.68-3.53l.36-1.68c.77-1.29.94-2.55.54-3.72l-1.31-.62Zm-14.38,31.2l-.03.05v.02c-1.09,1.27-2.52,1.91-3.9,2.41l-.18.07-.08-.17c-.32-.73-.05-1.34.25-1.84,1.03-1.73,1.07-1.77,2.15-2.23l.06-.02h.05s.04,0,.04,0c1.03.16,1.43.95,1.67,1.66v.07Zm-198.62-17.33c-.81.61-1.58,1.28-2.33,1.94-1.97,1.72-3.83,3.34-6.36,4.01l-.2.06-.05-.2c-.67-2.58.04-7.29,1.77-11.5.36-.15.72-.31,1.19-.52.78-.34,1.58-.69,2.38-1,1.66-.63,2.63-1.56,3.13-3.01l-1.13-.9-4.18,1.45.11-.38c.44-1.61,1.11-3.08,1.75-4.5.53-1.18,1.04-2.29,1.42-3.33-.57-.86-.59-.88-1.45-1.37-1.09.52-1.83,1.32-2.25,2.43-.22.58-.48,1.18-.74,1.78-.14.33-.29.65-.42.98-.51,1.23-1.77,4.25-1.77,4.25l-.91,2.02-1.09.41c-.84.31-1.79.67-2.73.99-.25.08-.5.16-.75.23-.84.25-1.71.5-2.39,1.07l-.08,1.61,1.24.76,4.67-1.21-.08.33c-.85,3.75-1.52,7.12-1.08,10.49.48,1.12,1.07,1.86,1.83,2.33.41.06.81.08,1.2.06,1.01-.04,1.97-.34,2.85-.9l.79-.5c.66-.41,1.4-.87,2.09-1.34,2.3-1.58,4.04-3.4,5.3-5.58l-.51-1.22-1.21.26Zm88.99-71.64h.02c.1,0,.24.09.3.16.11.12.21.26.27.43.37,1.16,1.22,2.09,2.6,2.87,1.18.66,2.62.96,4.28.89.41-.02.85-.06,1.29-.12,2.1-.3,4.09-1.06,5.87-2.25l1.02-1.97c-.16-.84-.51-1.26-1.12-1.39-1.96,1.65-4.04,2.53-6.19,2.62-1.03.04-2.1-.1-3.2-.45-.11-.13-.28-.23-.47-.33-.44-.25-1.05-.6-.88-1.68l.05-.06.06-.03h.02c2.5-.93,4.84-2.42,7.01-3.84l1.51-2.2c.86-2.38.44-4.26-1.33-6.08l-1.54-.28-.28-.07-1.34.33h-.1c-.14.1-.28.19-.46.29-.32.19-.65.39-.95.62l-.35.28c-1.28,1-2.61,2.04-3.53,3.48-1,1.57-1.62,2.85-2,4.15-.1.36-.3.69-.49,1.01-.08.13-.15.26-.26.46l-.02.03-3.81.54-.78.08-1.17.9.13.74.04.58.74.49.54.41,4.48-.58.07-.02Zm3.78-5.06c.94-2.26,2.38-3.98,4.96-5.91l.12-.09,1.43.99-.37,1.87c-1.61,1.6-3.62,2.49-5.89,3.41l-.46.19.19-.46Zm-10.83,92.33l-.77-.11c-.4.38-.8.75-1.2,1.13-2.06,1.93-4.18,3.92-5.73,6.34l-.53,2.13c.09,1.45.76,2.69,1.48,4,.48.87.97,1.77,1.31,2.86,0,0-.03.72-.05.95,0,.11-.02.21-.04.34l-.05.23c-2.21,3.67-5.52,6-8.19,7.62h-.22c-.19-.02-.38-.04-.58-.03-.51.02-.89.18-1.22.49l-.61,1.58.45.85.1.24,1.79.45c1.9-.47,3.47-1.69,4.99-2.87.34-.26.67-.52,1.01-.77,2.08-1.55,3.74-3.35,4.92-5.33l.89-1.92c.01-.21.04-.43.06-.65.05-.47.1-.95.07-1.41-.06-1.15-.56-2.16-1.1-3.08-.47-.81-.91-1.63-1.35-2.44l-.58-1.08v-.07s.01-.05.01-.05v-.02c.11-.22.2-.44.28-.66.18-.45.34-.88.62-1.23,1-1.26,1.88-2.24,2.76-3.07.87-.83,1.74-1.82,2.62-2.96l-.16-1.42-1-.05Zm-19.51-34.3l-1.42-1.33-.22-.23-1.92-.63-.12-.05-.03-.05-3.18-.15.32-2.57c-.16-.58-.59-.88-1.46-1.02l-1.1,1.08h-.02s-.98,3.36-.98,3.36l-.24.13c-1.5.81-3.05,1.64-3.46,3.53l-.03,1.51.39.25.48.38,1.64-.3-1.94,7.52-.04.05-.06.03c-.25.12-.49.24-.73.37-.55.3-1.07.58-1.64.66-.13.02-.26.03-.4.04-.5.02-1-.05-1.52-.12l-.12-.02-.62-.12c-.62.4-.61,1.08-.55,1.72l.61,1.17.07.16.87.19.85.2,1.8-.44-.03.29c-.02.19-.02.37-.03.54-.01.36-.02.68-.13.99-.3.9-.63,1.79-.95,2.68-.25.67-.49,1.35-.73,2.02-.32.93-.64,1.86-.95,2.79l-.17.49c-.34,1.02-.69,2.03-1.04,3.05-.51,1.45-1.12,3.16-1.78,4.86-.32.81-.67,1.63-1.02,2.43-.32.73-.63,1.46-.92,2.2-.3.76-.58,1.53-.87,2.31-.32.87-.68,1.86-1.07,2.8-.37.89-.77,1.78-1.18,2.67l-.05.1c-.35.76-.71,1.55-1.03,2.33-.43,1.03-.85,2.13-1.18,3.01l-.05.12c-.21.56-.43,1.12-.65,1.68-.3.76-.65,1.64-1.03,2.47-.19.42-.41.84-.62,1.26l-.06.12c-.24.47-.47.93-.68,1.41-.4.89-.78,1.8-1.17,2.75l-.04.1c-.18.43-.36.87-.54,1.24v.07c-.03.66-.06,1.41.68,1.82.19.02.37.03.53.02.57-.02,1.05-.23,1.48-.62l3.47-7.58c.76-1.66,1.55-3.38,2.28-5.08.46-1.07.88-2.2,1.26-3.21l.05-.14c.2-.53.4-1.06.6-1.58.32-.81.64-1.6.95-2.32.18-.42.37-.84.57-1.29l.04-.1c.26-.58.52-1.17.77-1.76.71-1.69,1.39-3.38,2.07-5.07.07-.19.26-.64.26-.64.27-.63.54-1.29.7-1.95.2-.85.53-1.67.85-2.47.31-.78.63-1.58.83-2.41.28-1.16.73-2.28,1.17-3.39.25-.63.51-1.28.73-1.93.36-1.07.69-2.16,1.01-3.24l.36-1.22c.22-.73.44-1.46.69-2.29l.13-.42.53-1.62.35-.26c.35-.27.81-.61,1.27-.94.38-.27.78-.54,1.2-.81.8-.53,1.63-1.08,2.36-1.73.34-.3.69-.6,1.07-.92,1.18-.98,2.4-2,3.15-3.42.12-.23.32-.39.49-.52.05-.04.08-.07.11-.08l.22-.52.76-1.76-.08-.6-.22-2.04Zm-2.79,2.18v.02c-1.13,2.41-3.05,3.99-5.09,5.67l-.13.11c-.28.24-.58.47-.86.72l-.43.36.09-.55c.26-1.64.6-3.13.93-4.57.22-.97.45-1.97.68-3.11l.07-.06.07-.02h.02c.17-.01.33-.03.55-.05.28-.03.57-.06.85-.07.14,0,.27,0,.41,0,.4.01.77.09,1.2.17.17.03.34.07.62.15l1.04,1.09v.08s0,.07,0,.07Zm6.37-47.95c.09-.09.19-.18.32-.29.24-.21.51-.44.64-.71.86-1.77,2.1-3.24,3.3-4.65.97-1.15,1.97-1.94,3.04-2.42l.18-.08.09.18c.43.88.33,1.77.24,2.62l-.03.25c-.05.49-.07,1.01-.09,1.47-.04.92-.08,1.88-.31,2.8-.21.84-.11,1.51.03,2.32l1.33.44c.7-.52.72-.56.96-1.05l.05-.1c.44-.89.58-1.85.72-2.79l.08-.56c.42-2.8.86-5.69-.7-8.09l-.21-.1c-.77-.36-1.28-.6-1.91-.57-.62.03-1.39.31-2.58.96l-.33.18.02-.37c0-.1,0-.2,0-.32,0-.24,0-.46.08-.68.29-.86.6-1.71.91-2.56l.03-.09c.23-.63.46-1.27.69-1.91l.23-.65c.44-1.23.89-2.5,1.29-3.78.47-1.5.92-3,1.38-4.5.25-.83.5-1.66.75-2.49l.09-.29c.18-.59.36-1.2.6-1.79.2-.51.43-.99.67-1.5.09-.19.18-.38.26-.45-.32-.86-.82-1.38-1.53-1.66-.93.25-1.57.85-2.04,1.95-.59,1.35-1.08,2.81-1.56,4.23-.47,1.38-.92,2.77-1.37,4.16l-.04.13c-.31.95-.61,1.89-.92,2.84-.15.44-.3.88-.46,1.32l-.03.09c-.15.42-.3.83-.44,1.25-.2.6-.39,1.2-.58,1.8-.32,1-.68,2.13-1.08,3.22-.65,1.77-1.35,3.55-2.02,5.27l-.63,1.6c-.29.73-.58,1.46-.88,2.2l-.08.2-.45,1.04c.22,1.82.23,1.97,1.96,1.9l.32.04Z"/>
  </g>
</svg>