<?xml version="1.0" encoding="UTF-8"?>
<svg id="_圖層_1" data-name="圖層 1" xmlns="http://www.w3.org/2000/svg" viewBox="0 0 986.28 290.85">
  <defs>
    <style>
      .cls-1 {
        fill: #e76751;
        stroke-width: 0px;
      }
    </style>
  </defs>
  <path class="cls-1" d="m297.67,229.36c-2.15-1.96-3.86-4.47-5.07-7.45-.34-.83-.41-1.73-.42-2.34-.01-2.52-1.05-4.43-3.16-5.84-.75-.5-1.58-.78-2.45-.83-.83-.04-1.7.12-2.6.49-5.02,2.07-8.39,5.91-10.01,11.44-.21.73-.29,1.6-.23,2.66.14,2.69,2,4.66,4.54,4.79.13,0,.27.01.41,0,.93-.02,1.95-.22,3.04-.59,1.76-.6,3.47-1.71,5.38-3.47l1.63-1.52.75,1.02c.43.59.84,1.14,1.25,1.67,1.22,1.57,2.75,3.32,4.85,4.35.71.35,1.58.59,2.59.71h.13c.69.05,1.29-.3,1.63-.95.46-.86.12-1.57-.24-2.01-.61-.76-1.29-1.48-2.02-2.14Zm-10.54-10.89c-.96,3.88-3.62,6.75-6.97,7.47l-.23.05.02-.23c.11-1.54,1.06-3.41,2.55-5.01,1.5-1.61,3.17-2.54,4.47-2.49h.22s-.05.21-.05.21Zm43.1-49.27c.1-.37.21-.74.31-1.11.2-.69.4-1.38.55-2.08.22-1.01-.11-1.9-.86-2.32-.24-.13-.5-.21-.78-.22-.62-.03-1.25.26-1.72.8-.48.55-.88,1.2-1.11,1.81-.28.73-.56,1.46-.85,2.18-.91,2.33-1.85,4.74-2.55,7.17-2.97,10.29-6.13,21.32-9.06,32.34-1.63,6.14-2.91,12.33-4.14,18.33-.5,2.46-.61,4.97-.64,6.89-.03,1.76,1,3.05,2.5,3.12.08,0,.16,0,.24,0,1.62-.06,2.86-1.46,3.03-3.4l.03-.33c.03-.45.07-.89.15-1.33.21-1.08.4-2.17.6-3.25.51-2.79,1.04-5.68,1.68-8.51,1.38-6.1,2.82-12.2,4.09-17.59l1.35-5.74,7.17-26.77Zm-63.54,57.39c-.25-.2-.52-.31-.81-.32-.35-.02-.72.1-1.11.35-.59.38-1.04.72-1.43,1.08-3.34,3.05-7.44,4.34-11.01,5.2-.13.03-.26.04-.43.03-.12,0-.25-.02-.4-.04-.17-.02-.37-.04-.6-.06l-.53-.03,1.13-.75c.37-.24.65-.43.94-.62,2.98-1.87,5.67-4.07,7.99-6.53.93-.98,1.66-1.96,2.17-2.89,1.04-1.89.95-3.71-.27-5.27-1.22-1.58-3.26-2.58-5.45-2.7-1.38-.07-2.71.21-3.86.82-1.85.98-3.34,2.53-4.57,4.73-1.65,2.97-2.74,5.69-3.36,8.32-.1.42-.21.85-.3,1.22l-.12.47-.39.16c-.14.06-.22.1-.36.1h-.21c-.11,0-.26-.02-.38-.12-.47-.38-.96-.57-1.49-.6-.93-.05-1.86.43-2.74.93-.94.53-1.51,1.4-1.53,2.32-.02.89.46,1.69,1.32,2.18.86.5,1.96.65,2.73.7.77.04,1.56-.05,2.4-.15.38-.04.77-.09,1.17-.12h.12s.05.09.05.09c1,1.98,2.61,3.04,4.8,3.15h.19c.93.03,1.88-.07,2.74-.29,3.48-.88,6.7-2.32,9.56-4.28,1.08-.74,2.14-1.7,3.07-2.77.57-.66.92-1.56,1.29-2.54.13-.35.37-1.22-.36-1.79Zm-15.64-.69c.53-2.39,1.34-4.2,2.55-5.69.82-1.01,1.65-1.48,2.55-1.43.69.04,1.41.38,2.2,1.04l.12.11-.1.14c-2.09,2.74-4.74,4.58-7.05,6.02l-.36.23.09-.41Zm65.75-160.34c.34-.9.67-1.8,1-2.7,1.02-2.81,2.08-5.72,3.56-8.41.44-.79.36-1.55-.21-2.15-.33-.35-.72-.54-1.14-.56-.3-.02-.6.05-.9.21-.62.32-1.2.78-1.61,1.29-.71.87-1.27,1.74-1.68,2.58-1.26,2.62-2.7,5.59-3.93,8.54-3.36,7.99-6.68,16-9.99,24.01l-2.06,4.97c-2.09,5.05-4.28,10.58-6.06,16.77-.02.14-.05.31-.09.51-.1.55-.24,1.3-.26,2.04-.02,1.22.68,2.24,1.75,2.54.17.05.34.08.51.09.88.05,1.7-.46,2.29-1.42.47-.77.91-1.65,1.28-2.62,2.52-6.42,5.02-12.84,7.49-19.28,1.89-4.94,3.77-9.88,5.64-14.82,1.47-3.86,2.93-7.73,4.41-11.59Zm-77.73,50.23c.17-.32.32-.65.45-.98l7.07-18.24c3.12-8.04,5.28-16.49,7.36-24.67l1.06-4.14c.23-.88.08-1.53-.45-1.97-.38-.31-.79-.49-1.19-.51-.36-.02-.71.09-1.03.31-.58.4-1.36,1.05-1.79,1.88-.67,1.26-1.23,2.62-1.65,4.05-3.64,12.41-8.28,24.36-11.91,33.38-.71,1.76-1.37,3.53-2.06,5.35l-.96,2.49c0,.24,0,.48,0,.74-.01.6-.02,1.22.09,1.81.23,1.19,1.01,1.9,2.26,2.07.08,0,.15.02.22.02,1.04.05,1.91-.49,2.51-1.59Zm136.95-9.02h.31c1.97.03,3.92-.58,5.78-1.79,1.37-.89,2.7-1.89,3.99-2.86.58-.43,1.15-.87,1.73-1.29l1.95-1.43-.73,2.33-.81,2.49c-.67,2.04-1.33,4.08-1.96,6.13-.24.78-.36,1.64-.34,2.47.03,1.34.63,2.18,1.78,2.5.23.06.46.1.67.11.91.05,1.67-.35,2.26-1.18.55-.76.98-1.59,1.27-2.39,1.48-4.17,2.94-8.35,4.4-12.53,1.39-3.96,2.78-7.92,4.18-11.88,3.44-9.72,6.09-17.12,8.6-24.01.45-1.23,1.02-2.41,1.58-3.54.25-.5.48-.99.79-1.56l.54-.25c.27-.12.48-.21.67-.33.57-.36.94-.82,1.06-1.35.13-.53,0-1.11-.37-1.67-.55-.83-1.34-1.29-2.43-1.38-1.13-.06-2.14.39-2.93,1.31-.91,1.05-1.95,2.29-2.66,3.67-1.51,2.92-2.63,5.36-3.52,7.7-1.44,3.78-2.84,7.66-4.18,11.4-.74,2.05-1.47,4.09-2.22,6.13-.26.71-.59,1.38-.98,2-.38.61-.8,1.21-1.22,1.8-.25.36-.51.72-.75,1.08-.43.64-.86,1.3-1.34,2.04l-.9,1.38-.75-1.45c-.96-1.91-2.41-2.92-4.31-3.03-.44-.02-.92,0-1.41.08-1.27.2-2.47.57-3.5,1.07-3.09,1.51-5.71,3.83-7.77,6.88-1.01,1.5-1.6,2.97-1.8,4.51-.24,1.91.21,3.65,1.28,4.92.97,1.15,2.41,1.83,4.05,1.92Zm.53-6.32c.18-3.21,4.79-7.36,8.65-7.78h.1s1.55,2.01,1.55,2.01l-.08.11c-2.11,2.81-7.49,5.98-10.07,5.84,0,0-.17-.02-.17-.02v-.16Zm-22.73,107.69c-.15,0-.3,0-.45,0-.79.05-1.53.18-2.22.38-1.13.32-2.24.68-3.36,1.04l-3.45,1.09.03-.27c.14-1.24.56-2.29,1.36-3.4.55-.77.72-1.53.47-2.16-.24-.6-.84-1.02-1.7-1.18-.13-.02-.26-.04-.39-.05-.89-.05-1.67.34-2.25,1.13-.7.95-1.29,1.95-1.77,2.96-.5,1.08-.94,2.18-1.4,3.35-.2.51-.65,1.63-.65,1.63l-.71.22c-.42.13-.8.25-1.18.36l-3.08.84c-2.18.59-4.35,1.18-6.52,1.81-1.08.32-1.98.72-2.7,1.21-.94.64-1.35,1.93-.97,3.06.31.94,1.08,1.51,2.12,1.57.15,0,.3,0,.45,0,.22-.02.45-.07.67-.12l8.29-1.94,1.98-.47v.87c0,.4-.01.76.02,1.11l.08.83c.08.85.16,1.74.4,2.53.78,2.62,2.6,4.2,5,4.32.9.05,1.83-.11,2.79-.48,2.43-.94,4.48-2.29,6.08-4.02.89-.96,1.6-2.15,2.29-3.29l.08-.14c.36-.6.29-1.3-.19-1.82-.28-.3-.6-.47-.97-.49-.24-.01-.49.04-.75.15-.43.19-.84.44-1.25.68,0,0-1.33.81-1.84,1.12-1.08.66-2.17,1.33-3.27,1.95-.46.26-.96.4-1.49.55-.24.07-.49.14-.74.23l-.16.05-.06-.15c-.84-2.08-.54-3.92-.12-5.79l.02-.09.53-.24c.29-.13.55-.24.81-.35.83-.34,1.67-.67,2.5-1,1.94-.77,3.88-1.54,5.79-2.38.91-.4,1.86-1,2.83-1.8.72-.6.99-1.45.7-2.29-.25-.73-.78-1.1-1.63-1.15Zm-35.16-116.45c-4.6,3.09-7.41,7.38-8.34,12.76-.56,3.23,0,6.09,1.6,8.07,1.4,1.73,3.53,2.72,6.18,2.86h.22c5.23.2,9.97-1.82,14.09-5.99.12-.12.24-.26.34-.4.48-.69.57-1.24.25-1.65-.28-.37-.82-.67-1.45-.76-.4-.02-.89.09-1.47.32-.49.2-.97.43-1.45.67-.54.27-1.09.53-1.65.75l-.93.36c-1.4.54-2.84,1.11-4.31,1.39-.62.12-1.29.16-2.07.11-.72-.04-1.46-.14-2.14-.25-1.22-.19-1.97-1.09-2.19-2.6l-.02-.14s1.45-.63,1.82-.78c3.32-1.38,6.31-3.3,8.9-5.68.88-.81,1.97-1.94,2.55-3.45.62-1.61.48-3.07-.41-4.34-.44-.63-2.1-2.69-4.77-2.83-.84-.04-1.7.11-2.56.45-.81.32-1.55.7-2.19,1.14Zm4.23,3.05c.45.02.84.25,1.15.68l.07.09-.06.1c-.95,1.73-3.78,3.82-7.21,5.33l-.43.19.2-.42c1.16-2.47,2.71-4.23,4.88-5.52.55-.33,1-.47,1.41-.45Zm276.5-9.72c.25.01.52,0,.79-.03,1.22-.14,2.56-.58,3.78-1.23,2.82-1.5,5.41-3.82,7.92-7.08.38-.49.73-1.09,1.11-1.87,1.43-2.95.98-5.77-1.24-7.93-1.63-1.58-3.56-2.41-5.91-2.53-.42-.02-.86-.02-1.3,0-2.15.11-3.72.71-4.95,1.88-1.47,1.4-1.88,2.58-1.3,3.97-.29.71-.58,1.39-.86,2.04-.6,1.41-1.17,2.74-1.64,4.09-.67,1.9-.73,3.74-.18,5.46.62,1.95,2,3.13,3.77,3.22Zm1.52-6.4c.82-3.37,1.6-6.56,4.49-8.79l.06-.04h.07c1.46.11,2.39.79,2.94,2.31-1.54,2.74-3.8,4.82-7.3,6.72l-.35.19.09-.38Zm-370.29,114.71c-.21-.04-.4-.06-.59-.07-1.58-.08-2.84.73-3.85,2.48-2.31,4.03-3.65,8.36-4.92,12.81-.42,1.45-.84,2.91-1.24,4.28l-.54,1.72c-10.65,8.82-29.94,16.47-35.95,16.42h-.24s.18-.72.18-.72c.09-.36.17-.71.28-1.06l1.16-3.75c.66-2.12,1.32-4.25,1.95-6.38,1.77-5.94,3.51-11.89,5.24-17.84.82-2.83,1.6-5.67,2.37-8.52l.22-.8c.37-1.36.76-2.78,1.06-4.17l.1-.45c.25-1.07.48-2.08-.3-2.93l-.76-.25-.9-.36c-1.54.78-1.7.94-2.17,2.08-.36.87-.68,1.75-.96,2.62-.72,2.28-1.43,4.56-2.15,6.85-1.1,3.51-2.2,7.03-3.32,10.53-2.07,6.46-4.18,12.9-6.28,19.35l-1.39,4.27c-.15.46-.34.91-.52,1.35l-.31.77-.33-.03c-1.67-.17-3.12-.32-4.45-1.11-.97-.58-1.97-1.17-1.84-2.83.08-.96-.72-1.55-1.43-1.75-.17-.05-.35-.08-.52-.09-.66-.04-1.26.22-1.75.74-.73.79-1.13,1.62-1.2,2.53-.18,2.28.66,4.09,2.65,5.72,1.31,1.07,2.93,1.88,4.95,2.47.15.04.31.07.47.09.45.07.97.15,1.16.78l-.89,2.62-10.28,29.95c-.63,1.85-.36,2.6,1.3,3.81.19.03.38.05.56.07,1.6.09,2.83-.81,3.67-2.67l.17-.38c1.24-2.74,2.52-5.58,3.53-8.45,2.04-5.81,4.01-11.65,6.02-17.61l2.53-7.47.12-.02c3.33-.47,7.71-1.19,12.04-2.65,3.59-1.2,7.75-2.65,11.68-4.67,2.65-1.35,5.28-2.76,7.92-4.17l3.86-2.05-.11.66c-.03.19-.06.37-.11.55-.4,1.39-.8,2.79-1.2,4.19-.92,3.23-1.86,6.57-2.88,9.83-2.39,7.62-4.92,15.39-7.31,22.69-1.28,3.92-2.58,7.83-3.89,11.74-1.15,3.44-2.29,6.88-3.42,10.33-.34,1.04-.58,2.07-.69,3.06-.17,1.43.59,2.84,1.78,3.28.2.08.42.12.64.13,1.09.06,2.3-.62,2.94-1.66.48-.78.81-1.46,1.03-2.11l1.22-3.66c2.97-8.91,5.94-17.83,8.85-26.77,1.57-4.84,3.08-9.79,4.54-14.58l.86-2.81c.68-2.22,1.32-4.45,1.96-6.68l.79-2.72c.04-.13.06-.26.09-.39.03-.13.05-.26.09-.39l.66-2.45c.73-2.72,1.46-5.44,2.24-8.15.17-.59.57-1.12,1.04-1.74.36-.48.74-.95,1.12-1.41.57-.7,1.16-1.43,1.67-2.19,1.78-2.67,2.94-5.8,3.58-9.67.36-2.14.73-4.35.49-6.56-.19-1.79-.86-2.93-2.06-3.58Zm-16.26-66.16c.18.06.37.1.57.11.88.05,1.73-.43,2.29-1.29.4-.61.68-1.3.95-1.95.31-.8.59-1.61.87-2.42l3.9-11.46c3.76-11.03,7.52-22.07,11.27-33.11,1.28-3.78,2.41-7.28,3.46-10.71.36-1.17.59-2.46.68-3.74.07-1.14-.47-1.97-1.5-2.27-.18-.05-.36-.08-.53-.09-.86-.05-1.64.41-2.15,1.26-.37.61-.71,1.35-1.06,2.31-.77,2.1-1.54,4.21-2.31,6.31-2.12,5.77-4.32,11.74-6.36,17.65-2.49,7.18-4.94,14.52-7.31,21.61-1.02,3.06-2.05,6.13-3.07,9.19l.19.06-.86,3.19c-.09.35-.19.7-.26,1.06l-.06.3c-.09.43-.18.87-.21,1.3-.09,1.28.5,2.33,1.52,2.69Zm528.24-61.31c.57.03,1.17-.02,1.78-.16.77-.17,1.56-.46,2.3-.84,2.89-1.48,5.27-3.7,7.06-6.58,1.88-3.03,1.35-6.2-1.36-8.07-.97-.67-2.05-1.15-3.1-1.62-.46-.21-.91-.41-1.26-.6-.49,0-.96,0-1.41-.01-.93-.02-1.81-.03-2.66.08-1.54.2-2.54,1.18-2.73,2.68-.15,1.13-.69,1.96-1.23,2.71-1.48,2.04-2.25,3.88-2.45,5.79-.19,1.89.29,3.61,1.36,4.85.92,1.06,2.24,1.69,3.7,1.77Zm3.6-13.28l.07-.05h.08c1.36.23,2.9.66,3.92,2.12l.05.08-.04.09c-1.22,2.84-4.76,5.51-7.14,5.38-.07,0-.34-.04-.34-.04l-.03-.11c-.64-2.18.84-5.39,3.43-7.47Zm-91.35,27.14c.94.05,2-.2,3.24-.77.38-.17.75-.35,1.11-.55,5.09-2.88,9.08-6.2,12.2-10.16,1.09-1.38,2.13-2.99,3.27-5.07,1.02-1.85,1.53-3.84,1.51-5.92-.04-3.38-2.15-5.73-5.38-5.99l-.28-.02c-1.79-.1-3.58.29-5.46,1.19-.75.36-1.49.77-2.33,1.23-.41.23-1.67.92-1.67.92l.29-1.32c.1-.48.19-.89.29-1.3l1.35-5.61c1.11-4.65,2.23-9.3,3.39-13.94,1.22-4.9,2.38-9.22,3.52-13.2.94-3.27,1.94-6.52,2.94-9.78.57-1.87,1.15-3.74,1.71-5.61.19-.65.4-1.4.42-2.11.02-1.08-.72-1.69-1.47-1.73-.37-.02-.75.09-1.09.33-.44.3-.79.8-1,1.17-.37.64-.73,1.37-1.12,2.3-2.88,6.87-5.31,13.98-7.23,21.11-1.8,6.72-3.55,13.57-5.24,20.2-.94,3.69-1.88,7.39-2.84,11.08-.64,2.49-1.31,4.98-1.98,7.47-.58,2.14-1.15,4.29-1.71,6.44-.36,1.36-.67,2.81-.93,4.31-.2,1.16,0,2.16.64,2.95,1.23,1.55,2.46,2.3,3.86,2.37Zm1.88-7.07c.03-.29.06-.58.12-.85l.11-.46c.3-1.28.61-2.57.97-3.84,1.37-4.88,4.4-8.46,9.01-10.63.72-.34,1.67-.72,2.64-.67.36.02.7.09,1.1.28.68.89.4,1.83.05,2.64-.53,1.2-1.11,2.47-1.91,3.6-2.68,3.79-6.31,7.11-11.42,10.45-.1.07-.22.07-.34.07l-.41.03.07-.6ZM116.67,112.05c-.06,0-.12,0-.18,0-.46.02-.98.15-1.46.38-1.59.74-3.01,1.45-4.34,2.15-2.8,1.48-5.5,2.14-8.3,1.99-1.18-.06-2.54-.33-3.6-1.79l-.1-.14.15-.11s1.26-.93,1.59-1.17c3.04-2.17,5.17-4.07,6.89-6.16.75-.91,1.82-2.3,2.39-3.81.61-1.62.51-3.28-.29-4.56-.74-1.19-1.99-1.92-3.51-2.07l-.28-.02c-1.06-.06-2.28.13-3.43.54-6.11,2.13-9.36,8.12-9.41,12.94,0,.28-.04.55-.1.9l-.1.72s-.95.3-1.36.44c-.96.32-1.96.64-2.95.89-.43.11-.82.15-1.2.13-.74-.04-1.41-.32-2.04-.86-.35-.3-.74-.47-1.15-.49-.9-.05-1.72.6-2.12,1.64-.47,1.26-.22,2.38.7,3.07,1,.76,2.09,1.32,3.13,1.63.51.15,1.05.24,1.61.27,1.57.08,3.15-.31,4.35-.67.49-.15.99-.31,1.48-.46l.81-.26.28.31c.13.14.24.26.33.4,1.55,2.47,3.93,3.81,7.08,3.98.26.01.53.02.8.02,5.5-.04,10.35-2.17,14.4-6.33.46-.46.77-.87.98-1.26.3-.56.34-1.14.09-1.58-.22-.39-.62-.62-1.13-.65Zm-18.48-3.73l.03-.38c.28-3.21,3.17-5.93,6.57-6.2l.4-.03-.26.32c-1.89,2.34-3.87,4.21-6.44,6.06l-.32.23Zm66.78,7.47l.65-.5.07.24c.1.33.19.64.27.93.17.6.32,1.14.53,1.65.71,1.78,2.08,2.86,3.77,2.95.64.03,1.31-.07,2-.32.92-.33,1.7-.75,2.31-1.24,1.36-1.09,2.8-2.26,4.07-3.61,3.72-3.95,6.83-8.56,9.51-14.1.54-1.12.93-2.34,1.27-3.43.27-.86.2-1.73-.21-2.52-.38-.73-.95-1.17-1.58-1.2-.64-.03-1.28.36-1.76,1.09-.36.56-.67,1.17-.97,1.76-.14.27-.28.55-.42.82-2.67,5-5.88,9.48-9.55,13.31-.65.68-1.36,1.29-2.1,1.95-.37.32-.75.66-1.14,1.01l-.25.22-.05-.32c-.04-.25-.09-.46-.13-.64-.08-.36-.15-.64-.11-.93.25-1.81.55-3.62.86-5.42.05-.26.12-.52.2-.77.1-.34.2-.67.22-.99.07-1.3-.77-2.32-1.96-2.39-.42-.02-.85.09-1.25.32-.47.27-.93.72-1.22,1.19-1.91,3.1-4.59,5.39-6.96,7.3-.38.31-.8.57-1.22.84-.19.12-.67.43-.67.43l-.55-.36.02-.11c.04-.3.07-.59.11-.89.07-.66.15-1.35.33-2,.74-2.59,1.56-5.24,2.5-8.1.46-1.39.26-2.43-.58-3.08-.37-.28-.8-.45-1.24-.47-.68-.04-1.35.25-1.88.81-.64.68-1.2,1.53-1.58,2.38-1.48,3.34-2.43,6.43-2.91,9.45-.23,1.45-.25,2.87-.06,4.11.41,2.6,1.96,4.22,4.17,4.34.82.04,1.7-.13,2.59-.52,1.01-.43,1.96-1.11,2.88-1.76.39-.28.79-.56,1.19-.82.28-.18.54-.39.83-.61Zm32.7-29.44c.87.63,1.81,1.07,2.71,1.29.15.04.3.06.44.07,1.31.07,2.42-.98,2.57-2.44.11-1.07-1.29-4.19-2.12-4.7-.17-.1-.35-.17-.62-.27-.17-.03-.33-.05-.48-.06-1.45-.08-1.96,1-2.5,2.13-.13.28-.26.55-.4.81-.72,1.29-.58,2.48.39,3.17Zm-95.07-17.5c.73-1.32,1.36-2.84,1.86-4.5.23-.75.21-1.73-.05-2.45-.44-1.22-1.34-1.95-2.47-2.01-.81-.04-1.62.29-2.12.87-.53.61-.97,1.31-1.36,1.98-.72,1.22-1.42,2.45-2.13,3.68-1.31,2.3-2.67,4.68-4.12,6.94-6.08,9.5-12.8,18.34-19.97,26.27-5.11,5.65-10.1,10.17-15.22,13.83-2.03,1.44-4.42,3.03-7.18,3.6-.58.12-1.02.16-1.39.15-1.23-.07-1.74-.89-2.26-2.39l-.03-.09.38-.53c.24-.33.49-.67.72-1.03l1.33-2.12c1.29-2.04,2.62-4.14,3.84-6.26,1.09-1.88,1.71-3.88,1.84-5.95.23-3.38-1.95-5.03-4.06-5.15-1-.05-2.02.22-2.95.8-1.41.88-2.64,2.02-3.66,3.38-2.68,3.58-4.17,7.77-4.43,12.47-.03.64-.08,1.28-.13,1.96l-.12,1.11c-4.81,5.81-9.94,10.92-15.25,15.19-2.6,2.09-4.98,3.91-7.78,5.12-1.71.73-3.21,1.17-4.58,1.32-.36.04-.69.05-1,.04-1.78-.09-2.71-1.14-3.01-3.38-.16-1.22-.23-2.55-.2-4.07.09-4.59.97-9.04,1.81-12.78,1.81-8.07,4.44-16.35,7.81-24.64,4.31-10.6,9.93-20.4,14.33-27.75.07-.12.19-.18.29-.23l.15-.08h.04c2.28-.06,2.65-.36,3.26-2.66.41-1.53.74-3.07,1.1-4.78.32-1.51-.26-2.99-1.41-3.6-.4-.21-.82-.33-1.27-.35-.92-.05-1.8.31-2.49,1.02-.69.72-1.31,1.52-1.85,2.4l-1.73,2.8c-2.27,3.66-4.62,7.45-6.81,11.24-6.78,11.69-12.1,24.09-15.82,36.87-1.54,5.29-3.06,10.98-3.74,16.75-.03.24-.14.46-.24.66-.04.09-.09.18-.11.21l-.44,6.08.09.47c.07.35.14.7.16,1.06.11,1.87.37,4.31,1.45,6.55,1.54,3.21,4.57,5.23,8.1,5.42.59.03,1.19.01,1.78-.06,3.3-.41,6.47-1.6,9.71-3.64,7.57-4.76,13.71-10.98,18.71-16.43.31-.34.62-.67.94-1l.53-.56.54.47c.24.21.45.38.63.56,1.44,1.46,3.2,2.23,5.39,2.35.2.01.4.02.61.02,2.35,0,4.77-.72,7.62-2.26,7.43-4.02,13.6-9.9,18.65-15.12,6.33-6.54,11.81-13.85,15.89-19.49,5.01-6.93,8.75-12.74,11.79-18.26Zm91.09,46.54c.13.03.26.05.38.05.76.04,1.41-.32,1.87-1.05.41-.65.76-1.43,1.02-2.3.41-1.35.79-2.72,1.12-3.96l.37-1.36.39-1.73c.3-1.3.56-2.47.78-3.65.13-.71.28-1.64.17-2.49-.13-1.07-.89-1.83-1.89-1.88-.59-.03-1.18.2-1.65.66-.5.48-.9,1.16-1.06,1.77-.94,3.63-1.91,7.6-3.06,12.5-.11.46-.1,1.02.03,1.74.17.95.68,1.52,1.51,1.7Zm540.84-48.71c-.24-.42-.57-.64-1.04-.66-.3-.02-.64.04-.92.11-.33.07-.66.15-.98.22-.76.18-1.54.36-2.32.46-.36.05-.7.07-1.01.05-1.52-.08-2.52-.93-3.07-2.61-.33-.99-.44-1.85-.35-2.56.59-4.43,2.66-7.75,6.16-9.86.73-.44,1.32-.88,1.3-1.8-.02-.77-.58-1.38-1.53-1.65-.27-.08-.55-.13-.82-.14-.92-.05-1.86.26-2.87.96-3.38,2.31-5.79,5.65-6.99,9.65-.76,3.75-.38,6.56,1.25,9.11,1.37,2.15,3.49,3.41,5.97,3.54h0c2.34.12,4.74-.82,6.59-2.59.77-.73,1.01-1.57.63-2.23Zm56.56,2.05c.48-.86,1.07-1.99,1.33-3.15,1.03-4.66,1.37-9.36,1-13.98-.1-1.21-.25-2.16-.48-3-.7-2.5-2.27-3.99-4.29-4.1-1.12-.06-2.33.32-3.51,1.1-1.14.75-2.17,1.75-3.17,2.7-.43.42-.87.83-1.31,1.23-.25.22-.48.47-.74.74l-.6.62-.34-.9c-.14-.38-.27-.7-.41-1.02-.76-1.69-2.03-2.67-3.57-2.75-.73-.04-1.49.12-2.28.48-.73.33-1.43.82-2.1,1.29-.31.21-.61.43-.92.63-.21.13-1.26.86-1.26.86l-.04-.29c-.05-.38-.08-.75-.12-1.1-.07-.73-.14-1.43-.31-2.07-.26-1.02-1-1.68-1.92-1.73-.16,0-.32,0-.48.03-1.02.18-1.7,1.03-1.88,2.34-.04.3-.08.61-.11.91-.08.72-.17,1.47-.36,2.19-.64,2.43-1.32,4.84-2,7.26l-.71,2.52c-.07.23-.14.47-.21.7-.15.46-.3.94-.37,1.41-.24,1.46.41,2.73,1.61,3.16.21.07.42.12.64.13,1,.05,2-.56,2.61-1.6.23-.4.41-.85.58-1.28l.08-.21c1.48-3.74,3.72-6.93,6.66-9.46.33-.28.69-.52,1.13-.8.22-.14.46-.3.73-.48l.27-.18v.31c.03.4.06.76.09,1.1.06.71.11,1.32.03,1.92-.22,1.72-.52,3.45-.81,5.13l-.21,1.22c-.05.27-.12.53-.19.79-.09.33-.18.66-.21.99-.14,1.3.51,2.43,1.61,2.81.25.09.5.14.74.15.91.05,1.72-.41,2.28-1.3.36-.57.67-1.26.95-2.14,1.06-3.29,2.92-6.28,6.05-9.68.68-.74,1.52-1.57,2.82-2l.21-.07.12,1.04c.06.55.13,1.07.17,1.59.29,3.94,0,7.95-.3,11.83l-.07.99c-.05.7,0,1.49.16,2.48.14.88.63,1.46,1.38,1.62.1.02.21.04.31.04.71.04,1.35-.35,1.76-1.07Zm7.45,93.94c-.3-.18-.64-.28-.98-.3-.64-.03-1.25.22-1.71.72-.63.69-1.15,1.48-1.45,2.24-.95,2.37-1.85,4.76-2.75,7.15l-1.01,2.66.1-.16.16.05-.05.16c-.13.47-.27.94-.41,1.41-.32,1.1-.66,2.23-.89,3.36-.22,1.11.46,1.93,1.24,2.24.19.08.4.12.61.13.72.04,1.44-.31,1.86-.9.4-.56.77-1.26,1.08-2.07,1.28-3.33,2.53-6.67,3.74-10.02.48-1.34.92-2.76,1.28-4.21.28-1.09-.03-1.99-.84-2.47Zm4.36-14.62c-.38-.27-.75-.55-1.12-.84-.45-.34-.91-.69-1.37-1.02-.3-.21-.63-.38-.86-.5l-.19-.11c-.29-.08-.58-.13-.85-.14-1.47-.08-2.56.79-2.92,2.33-.21.88-.04,1.74.47,2.41.53.7,1.36,1.12,2.35,1.17h.09c1.13.04,2.3-.08,3.43-.19l.2-.02c.56-.06,1.27-.32,1.53-1.28.19-.72-.04-1.29-.75-1.8Zm-47.84,34.72c-.46-.41-1.09-.94-1.76-1.36-1.33-.83-2.28-2.06-2.9-3.78-.8-2.23-1.19-4.63-1.19-7.34v-.46c.02-.44.03-.9-.05-1.31-.24-1.12-1.08-1.88-2.15-1.94-.7-.04-1.39.25-1.93.8-.42.44-.73,1.06-.99,1.66-1.47,3.26-3.78,5.74-7.07,7.61-.24.13-.5.2-.8.28-.16.04-.32.08-.52.14l-.28.09.05-.28c.05-.28.09-.54.12-.78.08-.52.14-.98.3-1.41.36-1.01.8-2.03,1.32-3.05.45-.89.78-2.16-.24-3.12-.36-.34-.81-.53-1.3-.56-.62-.03-1.27.21-1.83.68-.31.26-.55.51-.71.76-1.82,2.81-2.72,5.28-2.82,7.79-.14,3.28,1.52,5.49,4.22,5.63.84.04,1.74-.11,2.67-.47,1.84-.71,3.64-1.89,5.68-3.72l1.63-1.48s.27.68.34.88c.15.4.28.76.47,1.09.21.38.42.77.63,1.16.59,1.1,1.2,2.24,1.97,3.19,1.19,1.47,2.76,2.27,4.67,2.37.45.02.92,0,1.4-.05.84-.1,1.38-.51,1.6-1.24.26-.84-.14-1.43-.53-1.77Zm30.37-20.8c-.27-.01-.55,0-.84.04-.52.06-1.04.11-1.56.22-.75.16-1.5.32-2.25.48-.75.16-1.5.33-2.25.48-.29.06-.59.09-.94.12l-.88.1.11-.27c.17-.4.3-.81.44-1.21.48-1.37.92-2.67,2.21-3.42.78-.45,1.2-1.15,1.17-1.91-.03-.84-.61-1.61-1.5-1.99-.42-.18-.84-.29-1.25-.31-1.02-.05-1.92.39-2.7,1.32-.93,1.11-1.78,2.43-2.79,4.27-.58,1.08-1.08,2.23-1.56,3.35-.22.5-.43.99-.65,1.49l-.04.08-.58.14c-.34.09-.65.16-.97.22-.63.12-1.26.23-1.89.34-1.29.22-2.57.45-3.85.74-.84.19-1.69.55-2.39,1-.9.59-1.36,1.8-1.09,2.88.26,1.06.96,1.65,2.09,1.76h.17c.56.04,1.15-.04,1.7-.12,1.02-.16,2.03-.34,3.16-.55l1.72-.31-.35,2.52c-.3,2.23-.24,4.05.18,5.73.87,3.42,3.23,5.55,6.31,5.72,1.01.05,2.06-.1,3.14-.46,3.09-1.03,5.66-3.02,7.84-6.08.19-.27.34-.52.42-.76.21-.58.18-1.15-.09-1.56-.23-.34-.61-.55-1.2-.58,0,0-.01,0-.02,0-.46,0-1.02.16-1.61.45-.92.45-1.82.93-2.72,1.42-.53.28-1.06.57-1.59.84-.98.51-1.96.96-3.18.89-.23-.01-.46-.04-.82-.17-1.56-2.38-.96-4.92-.38-7.38.14-.59.28-1.17.39-1.76l.02-.11,1.93-.55c.55-.16,1.11-.3,1.67-.45,1.26-.33,2.56-.67,3.8-1.12,1.25-.46,2.52-1.12,3.77-1.96,1.14-.77,1.56-1.67,1.19-2.55-.27-.65-.73-.96-1.49-1Zm29.11-99.22c1.11.04,2.27-.02,3.47-.2,4.19-.63,8.33-2.29,12.3-4.93,1.69-1.13,3.27-2.42,4.45-3.43,1.35-1.15,2.43-2.68,3.2-4.56.17-.41.28-1.01-.18-1.52-.25-.27-.54-.42-.87-.44-.22-.01-.46.04-.69.14-.39.17-.75.43-1.18.76-.53.41-1.05.82-1.57,1.24-.57.45-1.14.91-1.72,1.35-3.89,2.96-8.04,4.9-12.35,5.75-1.38.27-2.81.32-4.05.34-.09,0-.18,0-.27,0-.97-.05-1.78-.48-2.5-1.33l-.14-.16.66-.37c.28-.16.52-.3.77-.42,2.8-1.28,5.47-3.2,8.16-5.88.92-.91,1.68-1.86,2.27-2.82,1.63-2.65,1-5.6-1.51-7.16-1.16-.72-2.39-1.12-3.64-1.19-.69-.04-1.39.03-2.09.18-2.86.65-5.28,2.01-7.2,4.04-2.75,2.91-4.16,6.05-4.31,9.58v.11s-.8.38-.8.38c-1.28.58-1.77,1.21-1.75,2.24.02.99.65,1.74,1.77,2.11.36.12.72.21,1.15.32l.82.28.22.45c.18.37.37.77.61,1.14,1.64,2.49,3.95,3.83,6.85,3.98h.14Zm-3.7-12.52l.11-.35c.95-2.87,2.29-4.68,4.36-5.88,1.28-.74,2.09-1.01,2.91-.96.41.02.84.12,1.35.32l.18.07-.08.17c-.98,1.97-5.42,5.37-8.48,6.5l-.35.13Zm52.18,119.71c-2.11-.13-3.72-1.26-4.92-3.43-1.24-2.25-1.67-4.32-1.33-6.52.25-1.63-.45-2.77-1.86-3.05-.12-.02-.24-.04-.35-.04-1.18-.06-2.28.74-2.81,2.05-.1.25-.16.51-.23.78-.07.28-.13.55-.23.81l-.13.34c-.22.59-.45,1.19-.83,1.68-1.82,2.35-3.7,4.21-5.77,5.67-.34.25-.71.46-1.16.72l-1.1.66.09-.4c.06-.26.09-.47.12-.65.06-.33.1-.57.21-.79.77-1.6,1.58-3.19,2.39-4.78.14-.28.3-.55.46-.81.26-.43.5-.83.66-1.27.4-1.05.22-1.98-.5-2.64-.45-.41-.96-.64-1.47-.66-.36-.02-.73.06-1.09.24-.68.33-1.32.82-1.8,1.37-2.33,2.65-3.94,5.73-4.8,9.15-.25,1-.31,2.2-.16,3.37.3,2.38,1.82,3.93,3.98,4.04.41.02.83,0,1.26-.09,1.1-.21,2.31-.67,3.59-1.37,2.3-1.25,4.14-3.08,5.8-4.88.27-.29.55-.57.85-.86l.59-.59.57.87c.28.44.53.84.81,1.21,1.71,2.32,3.68,3.7,6.03,4.22.27.06.54.1.8.11,1.09.06,2.11-.28,3.05-1.02.86-.67,1.22-1.39,1.09-2.18-.14-.81-.68-1.18-1.8-1.25Zm120.92-118.31c-2.27-.82-4.41-.01-5.91,2.32-.78,1.21-1.46,2.47-2.1,3.74-10.27,20.28-20.69,40.52-30.72,60.89-4.11,8.35-7.41,16.98-10.93,25.53-.59,1.44-.73,3.11-.56,4.65.22,1.91,2.2,3.19,4.32,3.24,2.11.05,3.3-.91,3.95-2.86,1.06-3.22,1.98-6.49,3.43-9.58,6.23-13.27,12.62-26.48,20.24-42.4,1.79-3.5,5.01-9.62,8.08-15.8,4.05-8.17,7.98-16.39,11.95-24.59,1.21-2.5.58-4.3-1.75-5.14Zm-53,114.01c-.55-.26-1.22-.37-1.95-.31-2.01.15-4,1.47-4.62,3.07-.4,1.02-.7,2.11-.95,3.07-.11.41-.21.8-.31,1.13-.31,2.04.2,3.5,1.5,4.36.64.42,1.36.61,2.09.56,1.22-.09,2.36-.86,3.12-2.11.89-1.46,1.73-3.03,2.57-4.81.93-1.97.3-4.15-1.44-4.97Zm-207.71,18.56c-1.12-.84-2.18-1.7-2.76-2.98-.57-1.26-1.22-2.75-1.69-4.33-.42-1.42-.89-2.44-2-3.24-.61-2.92-1.89-4.39-3.91-4.49-.8-.04-1.75.14-2.8.53-1.38.51-2.77,1.29-4.03,2.24-2.81,2.12-5.04,5-6.63,8.55-.47,1.05-.78,2.28-.86,3.47-.2,2.83,1.56,4.92,4.29,5.06.11,0,.23,0,.35,0,1.53-.01,3.06-.51,4.41-1.44,1.43-.98,2.81-2.1,4.15-3.18l1.29-1.04c.33-.27.64-.56.97-.88l.67-.63.58.98c.28.48.54.91.8,1.34,1.86,2.92,4.47,4.63,7.76,5.08.1.01.2.02.3.03.86.05,1.49-.27,1.8-.91.37-.74.23-1.46-.4-2.12-.71-.75-1.49-1.44-2.3-2.05Zm-10.16-9.77c-.02.17-.02.34-.02.51,0,.41-.01.8-.22,1.08-2.26,3.06-4.79,5.26-7.74,6.7l-.31.15.06-.34c.58-3.39,5.02-7.97,8.05-8.3l.22-.02-.02.22Zm125.65-23.1c.36-.47.46-1.01.27-1.45-.17-.39-.54-.65-1.11-.7-.5-.03-1.05.12-1.56.27-1.13.35-2.26.71-3.39,1.08-.85.28-1.71.55-2.57.82-.26.08-.52.11-.8.15l-.59.09s-.01-.42-.02-.5c-.01-.17-.02-.3.02-.43l1.32-4.88c1.22-4.54,2.49-9.23,3.84-13.82.48-1.63,1.28-3.2,2.05-4.71l.53-1.05c.42-.84.95-1.67,1.99-2.03l.16-.06.06.16c.45,1.14.53,2.33.24,3.76-.13.63-.27,1.27-.42,1.9-.21.92-.42,1.85-.59,2.78-.18,1.04-.25,2-.19,2.86.06.93.63,1.61,1.48,1.69.77.04,1.42-.49,1.75-1.42l.06-.16c.8-2.23,1.63-4.53,2.3-6.84.59-2.03.57-4.12-.06-6.21-.7-2.31-2.16-3.69-4.01-3.79-1.23-.07-2.56.45-3.84,1.48-.64.52-1.25,1.15-1.75,1.81-.69.92-1.32,1.91-1.88,2.92-1.68,3.07-2.68,6.33-3.44,9.11l-4.66,17.11c-.13.47-.29.94-.46,1.43l-.28.82-1,.29c-.64.19-1.27.37-1.9.51-1.04.22-2.08.43-3.12.63-1.28.25-2.56.5-3.83.78-.98.22-1.78.49-2.47.85-.82.43-1.25,1.27-1.18,2.3.07.98.64,1.61,1.6,1.78.36.06.74.11,1.12.13.45.02.87,0,1.25-.05,1.27-.19,2.54-.46,3.8-.72l1.58-.32,2.2-.43s-.26.95-.34,1.26c-.17.66-.33,1.26-.53,1.84-1.74,4.92-3.21,10.39-4.48,16.73-.49,2.46-.82,4.48-1.04,6.34-.1.84.03,1.8.33,2.56.24.59.69.95,1.24.98.58.03,1.14-.32,1.5-.92.4-.68.6-1.54.74-2.2,1.97-9.79,4.98-19.06,7.65-26.83.12-.36.27-.72.43-1.09l.32-.61,4.37-1.62c2.51-.94,4.46-1.99,6.16-3.32.41-.32.84-.66,1.15-1.06Zm56.9-36.66c-.29-.15-.57-.23-.84-.25-.4-.02-.77.11-1.1.4-.44.39-.83.88-1.1,1.37l-.34.63c-.7,1.28-1.43,2.6-1.99,3.96l-.6,1.46c-2,4.84-4.07,9.85-5.95,14.83-2.69,7.12-5.31,14.27-8.04,21.72l-3.48,9.47-.29,1c-.32,1.09-.73,2.54-1.09,4-.32,1.3-.48,2.41-.51,3.4-.04,1.6.88,2.77,2.24,2.84h.11c1.4.02,2.49-1.02,2.86-2.7.21-.96.48-2.09.87-3.21,1.18-3.37,2.38-6.74,3.58-10.11,1.16-3.25,2.31-6.5,3.46-9.76.98-2.8,1.95-5.6,2.93-8.4,1.35-3.89,2.7-7.79,4.08-11.67,1-2.81,2.04-5.6,3.08-8.4.79-2.12,1.57-4.23,2.34-6.36.28-.77.48-1.64.62-2.64.09-.7-.21-1.28-.83-1.6Zm-536.86-7.88c-2.26-3.16-3.22-6.68-2.86-10.45.04-.44.04-.76,0-1.06-.15-1.24-1-2.12-2.12-2.18-.41-.02-.83.06-1.25.26-.24.11-.46.27-.72.44-.14.09-.56.37-.56.37l-.28-.24c-.11-.09-.21-.17-.29-.28-.81-1.11-1.9-1.72-3.13-1.79-.97-.05-1.99.25-2.89.85-4.16,2.77-6.41,6.57-6.66,11.28-.18,3.34,1.66,5.69,4.58,5.85.83.04,1.71-.09,2.61-.41,1.77-.61,3.4-1.62,4.98-3.08.34-.32,1.72-1.55,1.72-1.55,0,0,.3.59.39.77.17.35.32.66.51.93l.48.68c.6.86,1.22,1.75,1.96,2.48.62.62,1.53,1,2.32,1.33.25.1.49.16.73.18.47.02.87-.15,1.2-.51.54-.6.61-1.34.21-2.2-.31-.67-.62-1.21-.94-1.67Zm-9.15-6.82c-1.85,2.3-3.64,3.58-6,4.28l-.27.08.04-.27c.42-2.79,1.54-4.88,3.66-6.77l.14-.12,2.53,2.68-.1.12Zm154.66,94.31c-.91-.05-1.91.23-2.89.81-.59.35-1.14.74-1.76,1.19-.3.21-1.14.81-1.14.81l-.22-.57c-.08-.21-.14-.38-.22-.55-.4-.77-1.02-1.23-1.7-1.27-.7-.04-1.41.38-1.93,1.14-.21.31-.36.68-.51,1.04l-.11.26c-1.75,4.2-3.5,8.4-5.24,12.6l-.09.22c-.22.53-.46,1.09-.53,1.64-.19,1.35.39,2.41,1.53,2.84.21.08.42.12.65.14.84.04,1.69-.4,2.28-1.17.34-.45.65-.99.89-1.55,1.47-3.43,3.77-6.67,7.23-10.19.33-.33.69-.64,1.13-1,.23-.19,1.07-.9,1.07-.9,0,0-.03,1.04-.04,1.3,0,.49-.01.88-.06,1.27-.16,1.38-.33,2.76-.51,4.15-.28,2.26-.56,4.52-.81,6.79-.12,1.14-.11,2.15.05,3.01.22,1.18,1.27,1.44,1.88,1.49h.06c.85.05,1.48-.38,1.88-1.26l.08-.17c.25-.55.51-1.11.61-1.68l.4-2.09c.6-3.16,1.23-6.43,1.68-9.66.23-1.62.18-3.35-.14-5.01-.41-2.15-1.73-3.49-3.53-3.59Zm-13.81-109.57c-1.02-2.35-3.79-4.04-6.87-4.2-2.18-.12-4.12.57-5.47,1.92-2.55,2.56-4.34,5.54-5.32,8.82l-.09.51c-.06.33-.11.62-.15.9-.3,2.19.14,4.12,1.24,5.43.86,1.03,2.07,1.61,3.5,1.69h0c.94.05,1.94-.12,2.97-.51,4.06-1.52,7.41-4.47,9.96-8.77,1.05-1.78,1.13-3.72.23-5.79Zm-4.61,2.87c-1.12,2.78-4.8,5.77-7.73,6.27l-.23.04.03-.23c.03-.23.04-.46.05-.69.03-.52.06-1.01.25-1.46.57-1.39,1.19-2.86,2.02-4.15.7-1.1,1.77-1.7,2.92-1.64,1.07.06,2.04.68,2.68,1.71l.04.07-.03.08Zm-25.55,5.52c.57-1.93,1.16-3.92,2.47-5.6.42-.54.71-1.21.92-1.74.46-1.2.85-2.5.55-3.84-.29-1.26-1.2-2.11-2.34-2.17-.65-.03-1.31.2-1.89.67-.59.48-1.12,1.12-1.46,1.77-.49.95-.92,1.92-1.35,2.9-.26.59-.53,1.19-.8,1.78l-.22.49c-.26.59-.53,1.21-.97,1.64-4.3,4.13-8.57,7.01-13.08,8.78-.35.14-.72.22-1.18.33-.24.06-.51.12-.82.2l-.3.08.09-.3c.11-.38.21-.72.3-1.04.18-.64.33-1.19.54-1.71,1.32-3.22,3.08-6.23,5.24-8.93.22-.28.45-.55.67-.82.36-.43.72-.86,1.06-1.32.69-.94.79-1.93.25-2.66-.32-.44-.84-.71-1.42-.74-.41-.02-.83.08-1.19.29-.58.33-1.16.8-1.8,1.44-3.07,3.08-5.56,6.8-7.6,11.37-.79,1.76-1.16,3.37-1.13,4.91.05,2.79,1.76,4.75,4.26,4.88.1,0,.21,0,.32,0,1.07,0,2.64-.15,4.05-.77,1.75-.77,3.47-1.73,5.14-2.65.62-.34,1.24-.68,1.85-1.02.32-.18.64-.38,1.04-.64l1.19-.76-.13.45c-2.14,7.16-4.36,13.83-6.88,20.5l-.82.45c-.53.29-1.02.56-1.49.85-6.69,4.18-12.85,8.98-18.33,14.28-6.52,6.31-11.35,12.84-14.77,19.97-1.25,2.6-1.86,5.01-1.89,7.37-.04,3.45,1.3,5.94,4.07,7.59,1.38.82,2.93,1.29,4.6,1.38.54.03,1.1.02,1.66-.03,4.35-.36,8.25-2.37,11.93-6.16,1.95-2.01,3.71-4.39,5.52-7.52,3.2-5.51,5.73-11.42,8.04-17,6.77-16.34,11.89-32.74,16-46.62l.11-.35Zm-17.86,34.66c-.6,1.55-1.2,3.09-1.83,4.63l-.26.63c-2.61,6.35-5.31,12.92-8.77,19.01-1.15,2.02-2.55,4.1-4.53,6.73-1.62,2.15-3.56,3.66-5.76,4.49-1.36.51-2.68.77-3.84.75h-.27c-1.11-.07-1.88-.38-2.35-.96-.52-.65-.66-1.64-.41-3.02.2-1.09.51-2.17.94-3.21,2.02-4.92,5.09-9.67,9.39-14.53,2.53-2.86,5.34-5.54,8.06-8.13l.47-.45c1.94-1.85,3.97-3.66,5.93-5.41.83-.73,1.65-1.47,2.47-2.21.21-.19.42-.36.64-.54l.43-.36.53.41-.84,2.16Zm40.73,85.99c-2.75-2.51-3.91-6-4.62-8.77-.14-.53-.21-1.08-.28-1.62-.16-1.19-.3-2.32-1.08-3.24-.12-.14-.13-.34-.14-.53,0-.08,0-.17-.02-.25-.5-2.32-1.91-3.56-4.18-3.68h-.19c-1.57-.05-3.12.47-4.89,1.63-3.36,2.2-5.98,5.37-7.79,9.41-1.02,2.28-1.32,4.29-.93,6.15.47,2.22,2.03,3.67,4.06,3.78.31.02.64,0,.96-.05.99-.15,2.07-.51,3.3-1.11,1.78-.86,3.46-2.13,5.46-4.1.29-.28.58-.56.91-.86l.68-.64.6,1.15c.36.69.69,1.34,1.04,1.97,1.3,2.33,2.72,3.8,4.49,4.62.58.27,1.29.44,2.11.52h.11c.78.05,1.35-.25,1.69-.88.41-.75.35-1.49-.17-2.2-.39-.52-.71-.95-1.11-1.31Zm-10.46-9.77l-.03.45c-1.89,3.22-6.06,6.53-8.42,6.69h-.19s0-.17,0-.17c-.05-3.87,4.86-9.71,8.47-10.07l.2-.02-.03,3.12Zm-98.46,9.86c.08,0,.16.01.36.1.81,1.09.73,2.34.67,3.55l-.02.24c-.07,1.24-.17,2.48-.28,3.72-.08.89-.15,1.79-.22,2.68-.04.61-.08,1.4.04,2.14.19,1.23,1.01,2.02,2.21,2.1h0c1.01.05,1.94-.61,2.41-1.74.22-.52.35-.97.39-1.36l.16-1.53c.23-2.13.46-4.33.58-6.49.09-1.7-.25-3.38-1.01-5.02-.91-1.96-2.57-3.15-4.56-3.25-.73-.04-1.48.07-2.23.32-.36.12-.71.26-1.17.45l-1.22.48,2.23-7.57,2.34-7.84c2.32-7.77,4.63-15.54,6.93-23.31.17-.57.26-1.18.26-1.75,0-.8-.38-1.38-1.08-1.64-.18-.06-.36-.1-.54-.11-.52-.03-.99.19-1.36.62-.47.56-.86,1.21-1.08,1.83-1.34,3.68-2.55,7-3.7,10.44-2.32,6.95-4.58,13.92-6.84,20.89-2.72,8.4-5.11,15.99-6.65,23.79l-.05.24c-.15.76-.3,1.52-.39,2.28-.2,1.82.53,3.11,1.94,3.45.17.04.34.07.5.07,1.22.07,2.28-.75,2.92-2.23.28-.64.5-1.29.72-1.96l1.12-3.21c.61-1.76,1.23-3.52,1.88-5.27.66-1.75,1.5-3.09,2.59-4.09.53-.49,1.2-1.1,2.12-1.05Zm40.8-12.18c-.21-.06-.42-.1-.63-.11-.88-.05-1.65.37-2.3,1.24-.58.77-1.04,1.55-1.39,2.34-.38.85-.72,1.71-1.06,2.57-.36.91-.72,1.83-1.12,2.72-.39.87-.84,1.75-1.5,2.35-2.16,1.94-4.63,3.52-7.35,4.69-.27.12-.56.19-.94.28-.2.05-.43.1-.71.18l-.35.09.56-1.38c.26-.66.49-1.22.76-1.77,1.36-2.82,3.12-6.06,5.84-8.75.86-.85,1.01-1.88.4-2.75-.32-.46-.84-.74-1.44-.77-.39-.02-.8.07-1.17.25-.42.21-.82.48-1.15.78-3.57,3.32-6.29,7.44-8.32,12.58-.15.37-.23.78-.32,1.22-.38,1.82-.1,3.44.78,4.57.71.92,1.78,1.44,3.06,1.51.52.03,1.07-.02,1.65-.14,1.13-.24,2.25-.74,3.33-1.23.43-.19.85-.39,1.28-.56.35-.15.69-.34,1.07-.55l.9-.49-.06.72c-.01.21-.02.38-.07.54l-.92,2.98c-1.56,5.07-3.11,10.14-4.73,15.19-.27.84-.98,1.62-1.49,2.13-1.22,1.22-2.47,2.42-3.71,3.63-1.88,1.82-3.83,3.71-5.68,5.63-5.34,5.58-9.55,11.19-12.87,17.15-1.25,2.24-2.61,4.95-3.22,7.97-.44,2.19-.42,3.95.05,5.52.79,2.61,2.69,4.24,5.09,4.36.44.02.9,0,1.37-.08,1.23-.21,2.59-.71,3.92-1.46,2.23-1.25,4.13-3.02,5.64-5.27,1.39-2.06,3.17-4.79,4.7-7.68,4.61-8.73,7.83-18.06,10.37-26.03.69-2.16,1.6-4.6,3.78-6.27.25-.19.46-.43.67-.67l.43-.47c.6-.62,1.16-1.21.94-2.11-.18-.76-.7-.94-1.44-.98-.22-.01-.45-.01-.8,0h-.22s.21-.85.21-.85c.09-.4.18-.75.28-1.09l1.82-6c1.04-3.42,2.08-6.85,3.1-10.27.71-2.36,1.57-4.86,3.06-7.14,1.06-1.62,1.58-3.53,1.54-5.69-.02-1.44-.57-2.29-1.66-2.6Zm-29.88,71.61c-1.04,1.66-2.49,3.77-4.57,5.32-.45.33-.92.6-1.47.92-.28.16-.57.32-.88.51l-.23.14-.04-.26c-.04-.25-.08-.47-.12-.66-.07-.38-.13-.68-.12-.99.05-2,.79-3.84,1.58-5.53,1.83-3.92,4.17-7.66,7.16-11.42,1.59-2,3.28-3.96,4.92-5.86.62-.71,1.24-1.43,1.85-2.14.21-.25.46-.47.7-.69l.33-.3.3.18c-2.82,8.44-5.8,15.04-9.39,20.78Zm308.24-88.47c-.06,0-.12,0-.19,0-.46.03-.97.16-1.47.39-.67.31-1.32.66-1.96,1.02l-.58.32c-1.21.66-2.83,1.4-4.62,1.3l-.23-.02c-1.53-.14-2.63-.89-3.37-2.29l-.07-.14.68-.44c.36-.23.69-.44,1-.68.49-.37.98-.74,1.47-1.11,1.33-.99,2.71-2.02,3.95-3.16,1.01-.93,1.93-2.15,2.6-3.45.69-1.36.78-2.82.24-4.12-.52-1.25-1.56-2.17-2.92-2.59-.49-.15-.99-.24-1.48-.27-1.35-.07-2.71.31-4.13,1.16-2.45,1.46-4.3,3.74-5.48,6.79-.44,1.12-.74,2.33-1.03,3.49-.14.54-.27,1.08-.52,1.74-2.27,1.05-4.57,1.81-7.03,2.3-.16.03-.33.06-.49.08-.3.04-.59.09-.87.18-.85.28-1.38.97-1.44,1.89-.06.88.31,1.54,1.05,1.84.34.14.85.31,1.39.34.19.01.37,0,.53-.03,1.61-.27,3.24-.63,4.81-.98l1.23-.27c.38-.08.75-.2,1.11-.31l.63-.18.42.62c.22.33.42.62.64.9,1.72,2.19,3.84,3.37,6.28,3.5h0c.36.02.73.02,1.12-.01,3.46-.24,6.48-1.76,8.97-4.52.41-.45.73-.99.9-1.49.16-.48.11-.93-.13-1.28-.22-.32-.57-.5-.99-.52Zm-11.71-6.19c.56-2.33,2.07-3.85,4.16-4.16l.26-.04-.06.25c-.32,1.41-2.01,3.11-4.1,4.14l-.34.17.09-.36Zm-162.55-81.3c.83-.05,1.4-.42,1.72-1.1.31-.68.18-1.35-.39-1.97-.19-.21-.4-.4-.61-.58-.27-.24-.54-.49-.77-.77-2.53-3.12-3.3-6.08-2.4-9.3.11-.4.22-.82.25-1.23.09-1.17-.46-2.19-1.41-2.6-.36-.16-.72-.25-1.06-.27-.69-.04-1.31.22-1.84.75-.51.51-.93,1.16-1.15,1.76-1.13,3.06-3.57,4.59-6.41,6.14l-.31.17.04-.34c.29-2.38,1.12-4.24,2.53-5.68.96-.99,1.16-1.78.67-2.73-.36-.7-1.01-1.14-1.74-1.18-.34-.02-.68.05-1.02.21-.96.46-1.79,1.1-2.34,1.8-1.12,1.42-1.93,2.73-2.49,4.01-.69,1.58-1.11,3.14-1.23,4.52-.15,1.68.26,3.17,1.15,4.18.73.82,1.72,1.29,2.87,1.35h0c.8.04,1.64-.11,2.5-.46,1.08-.43,2.11-1.12,3.1-1.78.39-.26.79-.53,1.19-.78.32-.2.62-.44.95-.7l.68-.53s.52,1.16.61,1.37c.78,1.86,1.77,3.31,3.02,4.41.92.81,2,1.25,3.21,1.32.22.01.44.01.67,0Zm134.94,59.76c-.2-.11-.39-.26-.58-.41l-.41-.31.4-.7c.22-.38.42-.73.61-1.1,1.56-3.14,3.1-6.52,3.18-10.33.05-2.19-.17-3.92-.68-5.45-1.52-4.57-4.73-7.43-9.81-8.74-1.61-.41-3.32-.67-5.1-.77-2.57-.14-5.41.06-8.67.59-.27.04-.53.1-.8.15-.67.14-1.36.28-2.06.24-.3-.02-.58-.06-.85-.14-.12-.04-.25-.06-.37-.07-.6-.03-1.1.32-1.64.69-.39.27-.8.56-1.26.69-3.8,1.12-6.83,2.17-9.56,3.3-7.55,3.14-14.71,7.39-21.27,12.66-1.54,1.23-2.56,2.32-3.32,3.54-.92,1.47-1.04,2.74-.45,3.92l.56.3.56.35c1.05-.13,1.66-.51,1.98-1.22.9-2.01,2.62-3.27,4.01-4.28,6.57-4.82,13.97-8.79,21.99-11.8.73-.27,1.47-.5,2.29-.75.41-.12,1.63-.51,1.63-.51l-.33.9c-.1.29-.18.51-.28.72-.58,1.23-1.17,2.46-1.76,3.69-1.19,2.48-2.42,5.04-3.55,7.6-3.09,6.93-7.13,16.07-11.04,25.2-1.87,4.36-3.69,8.84-5.46,13.16-.84,2.06-1.68,4.11-2.52,6.16l-1.62,3.94c-1.51,3.66-3.01,7.33-4.56,10.97-.26.61-.51,1.22-.76,1.83-.85,2.08-1.73,4.22-2.96,6.17-.4.63-.7,1.31-.85,1.96-.51,2.07,0,3.49,1.53,4.21.22.1.46.16.72.18,1.06.06,2.24-.63,3-1.75.32-.47.61-1.02.94-1.75l1.02-2.28c1.07-2.38,2.17-4.84,3.18-7.29l1.13-2.73c3.78-9.16,7.7-18.64,11.44-28,4.06-10.14,8.48-21.03,13.38-31.98.23-.51.44-1.04.65-1.56.69-1.73,1.41-3.52,2.83-4.91.18-.18.28-.52.4-.91.35-1.16.68-2.33,1.02-3.51l.47-1.37c1.16-.51,2.37-.63,3.53-.75.34-.03.67-.07,1-.11,2.13-.28,4.01-.37,5.75-.28,1.92.1,3.67.42,5.34.98,3.84,1.28,6.05,4.29,5.92,8.05-.14,4.07-1.65,7.98-4.61,11.71-.39.02-.77.04-1.14.05-.78.03-1.52.06-2.26.15-5.55.69-10.66,2.53-15.19,5.48-2.75,1.79-4.77,3.9-6.17,6.46-.86,1.55-.9,3.48-.11,4.9.75,1.34,2.15,2.13,3.96,2.23h.21c1.86.05,3.75-.31,5.94-1.14,5.99-2.26,11.37-5.98,15.99-11.07.28-.3.57-.59.85-.86l.44-.43.11.05c4.25,1.72,6.37,4.99,6.46,9.98.04,2.28-.39,4.7-1.37,7.61-1.15,3.41-2.71,6.77-4.64,10-2.91,4.88-6.63,8.77-11.06,11.57-2.11,1.34-4.09,2.24-6.05,2.77-.88.23-1.66.33-2.39.29-.7-.04-1.35-.2-1.99-.48-.5-.23-1.11-.38-1.89-.45-1.21-.06-2.08.69-2.33,2.02-.19,1.03.1,1.9.88,2.56,1.42,1.22,3.02,1.88,4.9,2.01h.19c1.93.11,3.86-.24,5.92-1.06,6.01-2.4,11.11-6.3,15.16-11.57,3.83-4.99,6.7-10.68,8.75-17.38.91-2.97,1.29-5.71,1.17-8.38-.29-6.36-2.79-10.76-7.64-13.45Zm-12.35,4.42c-2.02,3.02-10.24,7.49-14.2,7.71l-.31.02.14-.27c1.88-3.62,10.23-7.47,14.21-7.73l.36-.02-.2.3Zm68.43-91.42c.52-.62,1.02-1.52.44-2.26-.26-.33-.57-.5-.96-.52-.3-.02-.64.05-1.07.22-.33.12-.66.25-.97.41-.62.32-3.52,1.82-3.52,1.82-2.39,1.22-4.85,1.77-7.32,1.64-.79-.04-1.6-.16-2.39-.34-1.14-.26-2.42-.65-3.21-2.04l-.09-.16s1.36-.65,1.93-.92c1.24-.58,2.41-1.14,3.55-1.75,2.73-1.47,4.9-3.17,6.64-5.21,1.37-1.59,2.13-3.29,2.33-5.19.17-1.61-.4-3.4-1.48-4.65-.62-.72-1.7-1.6-3.3-1.68-1.03-.05-2.12.23-3.32.9-.18.1-.36.2-.53.31-4.16,2.75-7.41,6.42-9.66,10.92-.28.55-.5,1.12-.74,1.73-.11.29-.4,1-.4,1l-1.22.13c-.82.08-1.61.16-2.41.27-.97.13-1.65.7-1.95,1.64-.31.94-.05,1.82.7,2.4.65.51,1.41.77,1.94.9.56.14,1.14.17,1.75.22.27.02.53.03.8.06h.1s.16.32.16.32c.08.16.16.3.22.46.83,2.21,2.37,3.75,4.71,4.7,1.43.58,2.97.92,4.56,1,1.75.09,3.59-.1,5.65-.6,3.59-.87,6.65-2.79,9.07-5.71Zm-16.77-9.18c1.25-2.53,4.36-5.43,6.41-5.98l.23-.06v.23c-.05,1.9-2.69,4.38-6.41,6.05l-.45.2.21-.44Zm-107.52,16.51c-.41-.02-.86.13-1.29.43-.22.15-.43.35-.64.58-2.89,3.23-6.64,4.53-10.24,5.59-.27.08-.55.09-.87.1-.17,0-.35.01-.56.03l-.2.02v-.2c.12-3.42,1.53-6.32,2.88-9.13l.52-.94s1.58-.44,1.98-.56l2.28-.66c1.97-.57,3.95-1.14,5.9-1.78,1.66-.54,3.21-1.18,4.61-1.89.76-.39,1.47-1.06,1.86-1.75.39-.69.43-1.42.1-2.02-.31-.56-.89-.91-1.59-.94-.08,0-.15,0-.23,0-.37.02-.77.13-1.15.24l-3.29.91c-1.82.5-3.65,1-5.48,1.49-.25.07-.51.06-.81.06-.15,0-.32,0-.5,0h-.31s1.29-2.3,1.29-2.3c.89-1.59,1.73-3.09,2.54-4.62.38-.72.67-1.53.84-2.37.2-.96-.15-1.77-.98-2.28-.28-.17-.59-.27-.92-.29-.58-.03-1.16.2-1.64.65-.51.47-.98,1.04-1.37,1.66-1.91,3.01-3.79,6.04-5.67,9.08-.32.53-.63,1.07-.93,1.6l-.54.84-.44.14c-.3.1-.57.19-.85.23-1.98.33-12.38,2.06-12.38,2.06-.68.11-1.38.22-2.02.47-.94.36-1.49,1.17-1.56,2.26-.07,1.09.4,1.86,1.34,2.23.55.22,1.13.43,1.67.46.09,0,.17,0,.25,0,2.6-.15,5.25-.4,7.87-.65.49-.05.97-.15,1.54-.26.29-.06,1.25-.24,1.25-.24l-.35.97c-.13.34-.22.59-.29.85-.14.54-.3,1.09-.46,1.63-.37,1.27-.75,2.58-.9,3.87-.26,2.3.21,4.22,1.37,5.58.97,1.13,2.36,1.77,4.03,1.86.73.04,1.5-.03,2.4-.22.14-.03.28-.06.41-.1,3.74-1.17,6.57-2.58,8.91-4.45,1.25-1,2.36-2.28,3.38-3.52.69-.85.94-1.97.69-3.16-.19-.94-.75-1.52-1.49-1.56Zm-28.55,74.54c-.37-.28-.78-.43-1.23-.45-.71-.04-1.45.26-2.09.84-.36.33-.68.7-.99,1.2-.42.68-.85,1.38-1.13,2.11l-.08.2c-.82,2.14-1.67,4.35-2.36,6.57-2.67,8.59-5.81,18.73-8.83,28.79-.62,2.07-1.98,3.26-3.57,4.49l-.21.16-.24-.8c-.1-.33-.19-.62-.28-.9-.78-2.22-2.35-3.51-4.43-3.62-.39-.02-.8,0-1.21.07-1.2.18-2.4.57-3.47,1.13-3.34,1.73-6.02,4.41-7.96,7.95-.87,1.6-1.33,3.23-1.36,4.84-.06,3.07,1.81,5.32,4.54,5.46.32.02.65,0,.99-.04,1.32-.16,2.8-.6,4.53-1.35,2.7-1.17,5.1-2.98,7.09-4.59.24-.2.49-.38.81-.6l.93-.67-.12.47s-.34,1.38-.42,1.67c-.23.87-.48,1.74-.73,2.61-.56,2-1.15,4.06-1.59,6.12-.28,1.27-.31,2.75-.11,4.28.15,1.13,1.03,1.9,2.24,1.96.13,0,.26,0,.39,0,1.12-.09,1.89-.86,2.24-2.23.08-.32.15-.65.23-.97.13-.58.26-1.16.44-1.72.77-2.4,1.55-4.81,2.34-7.21,1.32-4.04,2.63-8.08,3.89-12.14,1.36-4.38,2.68-8.77,4-13.16,1.04-3.45,2.07-6.9,3.13-10.35.55-1.8,1.03-3.65,1.49-5.44.99-3.83,2.01-7.79,3.81-11.46.59-1.2.32-2.47-.67-3.21Zm-23.85,47.24c-2.5,1.99-5.56,4.15-9.37,5.11l-.22.06v-.22c0-3.16,4.55-7.74,7.98-8.04h.12s1.62,3,1.62,3l-.12.09Z"/>
</svg>