<?xml version="1.0" encoding="UTF-8"?>
<svg xmlns="http://www.w3.org/2000/svg" viewBox="0 0 428 260">
  <defs>
    <style>
      .cls-1 {
        fill: none;
      }

      .cls-1, .cls-2 {
        stroke-width: 0px;
      }

      .cls-2 {
        fill: #e66751;
      }
    </style>
  </defs>
  <g id="board">
    <rect class="cls-1" x="0" y="0" width="428" height="260"/>
  </g>
  <g id="text">
    <path class="cls-2" d="m157.15,79.11c.09.03.19.04.29.04h.02c.47,0,.92-.31,1.18-.8.2-.36.33-.76.44-1.14.14-.47.26-.94.38-1.41l1.71-6.68c1.65-6.43,3.29-12.86,4.93-19.29.57-2.23,1.05-4.27,1.49-6.23.15-.67.23-1.42.22-2.14,0-.63-.33-1.06-.89-1.18-.09-.02-.18-.03-.29-.03h0c-.46,0-.86.29-1.11.78-.18.36-.34.79-.49,1.35-.34,1.23-.69,2.45-1.03,3.68-.95,3.37-1.92,6.85-2.82,10.29-1.13,4.33-2.27,8.91-3.19,12.59l-.07.29-1.3,5,.15.09-.35,1.85c-.04.2-.07.41-.1.61l-.02.19c-.03.24-.06.48-.06.73,0,.71.36,1.26.92,1.42Zm-11-22.54c.51.32,1.04.53,1.55.62.07.01.14.02.21.02h.03c.71-.01,1.26-.63,1.28-1.45.02-.59-.89-2.3-1.35-2.54-.09-.05-.18-.07-.34-.12-.08-.01-.15-.01-.25-.01h-.01c-.78.01-1.01.63-1.27,1.3-.06.16-.12.31-.18.46-.34.74-.22,1.38.33,1.72Zm21.71,59.75c.4-.27.7-.51.67-1.01-.03-.42-.34-.73-.85-.86-.15-.04-.3-.06-.48-.06-.49,0-.99.2-1.53.6-1.83,1.38-3.1,3.32-3.68,5.61-.34,2.14-.07,3.72.89,5.13.8,1.18,2,1.85,3.37,1.87h.07c1.27,0,2.56-.58,3.53-1.6.4-.42.51-.88.3-1.22-.14-.22-.31-.33-.57-.33-.16,0-.33.04-.49.08-.16.04-.32.08-.54.15-.42.12-.85.24-1.29.31-.19.03-.36.05-.57.05h0c-.87-.01-1.47-.49-1.82-1.46-.21-.56-.29-1.06-.25-1.47.24-2.55,1.33-4.5,3.26-5.78Zm-75.03,16.87c-.33,1.09-.33,2.13.02,3.09.38,1.08,1.16,1.71,2.13,1.72h.04c.13,0,.26-.01.39-.03.67-.11,1.41-.38,2.07-.77,1.54-.91,2.93-2.28,4.26-4.19.2-.29.38-.63.58-1.08.73-1.69.42-3.27-.86-4.44-.93-.86-2.02-1.28-3.33-1.31h-.1c-.21,0-.41,0-.62.03-1.18.11-2.04.48-2.7,1.16-.78.81-.97,1.48-.63,2.27-.15.41-.3.8-.46,1.24-.3.8-.58,1.55-.81,2.31Zm2.81,1.17c.39-1.95.76-3.79,2.34-5.13l.03-.03h.06s.02-.01.02-.01c.86.03,1.4.43,1.74,1.32-.81,1.61-2.03,2.84-3.96,4l-.29.18.07-.33Zm33.54-12.88l.65-3.3c.52-2.65,1.04-5.3,1.58-7.94.58-2.81,1.13-5.3,1.69-7.6.46-1.88.94-3.76,1.43-5.64.28-1.07.56-2.15.83-3.22.09-.37.19-.8.19-1.2-.01-.59-.42-.9-.82-.9-.19,0-.39.07-.56.2-.24.18-.41.46-.52.67-.19.36-.37.79-.57,1.33-1.47,3.98-2.67,8.07-3.59,12.18-.86,3.85-1.69,7.78-2.5,11.62l-.22,1.02c-.38,1.78-.75,3.57-1.14,5.35-.31,1.43-.63,2.87-.95,4.3-.28,1.23-.55,2.47-.82,3.7-.17.79-.32,1.62-.43,2.47-.09.65.05,1.2.41,1.63.71.84,1.4,1.24,2.17,1.25h.04c.51,0,1.08-.16,1.74-.5.21-.1.41-.21.61-.34,2.78-1.74,4.94-3.72,6.6-6.03.58-.81,1.12-1.75,1.72-2.95.53-1.07.77-2.21.71-3.38-.09-1.89-1.31-3.17-3.09-3.25h-.25c-.96,0-1.92.25-2.91.78-.4.21-.78.45-1.27.75-.23.14-1.01.62-1.01.62l.15-.87c.05-.28.09-.51.13-.75Zm3.09,2.64c.39-.21.91-.45,1.46-.45h.03c.22,0,.42.05.66.16.41.51.28,1.07.09,1.55-.27.7-.57,1.43-.99,2.1-1.42,2.22-3.38,4.19-6.18,6.21-.07.05-.14.05-.21.06l-.29-.03.03-.34c0-.17.02-.34.05-.5l.05-.26c.14-.74.29-1.48.46-2.21.66-2.82,2.29-4.94,4.83-6.28Zm44.27-10.23c-.49,0-1,.02-1.48.1-.83.14-1.35.7-1.43,1.54-.06.66-.35,1.15-.64,1.59-.78,1.19-1.17,2.25-1.24,3.33-.07,1.07.24,2.03.85,2.69.53.57,1.26.9,2.07.91h.05c.3,0,.61-.04.93-.12.42-.11.86-.29,1.25-.52,1.58-.9,2.85-2.21,3.79-3.88.97-1.74.61-3.51-.92-4.5-.55-.36-1.16-.61-1.78-.86-.26-.11-.51-.21-.67-.3-.27.01-.53.02-.79.02Zm2.26,3.67v.08s-.01.03-.01.03c-.62,1.64-2.55,3.25-3.93,3.25h-.19s-.05-.08-.05-.08v-.03c-.42-1.25.34-3.13,1.76-4.38l.04-.03h.06s.02,0,.02,0c.78.1,1.66.31,2.3,1.18Zm145.08-68.38c.52.4,1.11.61,1.76.61h.06c.12,0,.24-.01.37-.03.44-.06.73-.28.87-.66.14-.38.04-.73-.28-1.05-.11-.11-.24-.21-.36-.31-.16-.13-.33-.26-.47-.41-1.56-1.69-2.11-3.35-1.73-5.23.05-.23.09-.47.09-.7,0-.65-.33-1.19-.86-1.37-.19-.07-.38-.11-.58-.11h0c-.37,0-.7.17-.96.48-.26.31-.46.68-.56,1.03-.51,1.8-1.82,2.78-3.35,3.78l-.25.16v-.29c.08-1.37.47-2.47,1.2-3.36.48-.58.56-1.02.26-1.52-.22-.36-.57-.58-.98-.58-.18,0-.36.06-.53.15-.51.3-.94.69-1.22,1.1-.56.85-.96,1.62-1.22,2.37-.32.92-.49,1.82-.5,2.6-.01.95.27,1.76.8,2.29.42.42.96.64,1.62.64h0c.44,0,.89-.13,1.35-.36.58-.29,1.13-.72,1.65-1.14.21-.17.42-.33.63-.49.17-.13.33-.27.5-.43l.44-.32s.34.64.4.76c.51,1.02,1.11,1.8,1.85,2.37Zm-178.78,24.05c.06,0,.12.01.18.01h.03c.41,0,.74-.23.96-.65.2-.39.36-.84.47-1.34.17-.78.32-1.56.46-2.3l.15-.78.15-1c.11-.75.21-1.42.29-2.1.05-.41.09-.94,0-1.41-.11-.57-.54-.95-1.09-.95-.32,0-.62.16-.85.42-.25.29-.45.68-.51,1.02-.38,2.14-.76,4.44-1.19,7.23-.04.26-.01.57.09.97.13.51.42.81.87.87Zm-20.06,3.8c.45,0,.93-.14,1.4-.39.54-.29,1.04-.71,1.54-1.12.21-.17.41-.34.62-.51.15-.11.29-.24.44-.38l.43-.29.24.66c.12.33.22.63.36.91.45.95,1.23,1.49,2.14,1.49h.04c.35,0,.71-.09,1.08-.26.49-.22.91-.49,1.23-.79.75-.71,1.47-1.41,2.12-2.21,1.91-2.39,3.46-5.13,4.72-8.39.25-.65.42-1.36.56-1.99.11-.49.04-.97-.21-1.39-.23-.38-.54-.6-.89-.6-.34,0-.67.25-.89.66-.18.33-.33.71-.47,1.04-.07.16-.13.32-.2.48-1.29,2.96-2.9,5.64-4.79,7.97-.33.41-.7.79-1.09,1.19l-.07.07c-.17.18-.35.36-.53.56l-.22.11-.04-.18c-.03-.14-.07-.25-.1-.36-.06-.21-.11-.37-.1-.54.06-1.04.16-2.08.26-3.12.01-.15.05-.3.08-.46.04-.19.08-.37.08-.55-.01-.7-.49-1.23-1.14-1.23-.22,0-.45.08-.66.22-.25.17-.48.43-.62.71-.94,1.85-2.35,3.26-3.59,4.45-.2.19-.42.36-.65.53l-.41.28-.32-.19-.02-.08v-.03c.01-.17.02-.34.02-.53.01-.38.03-.76.1-1.14.31-1.49.65-3.03,1.06-4.71.19-.79.05-1.35-.43-1.67-.2-.13-.43-.21-.68-.21h0c-.37,0-.71.19-.98.52-.33.41-.6.91-.77,1.4-.68,1.96-1.09,3.75-1.23,5.48-.07.83-.02,1.64.14,2.33.32,1.42,1.22,2.26,2.46,2.26Zm214.47,84.38c.19-.25.25-.54.15-.78-.09-.21-.29-.34-.66-.38-.25,0-.52.07-.78.15-.64.19-1.27.39-1.9.59,0,0-1.04.33-1.44.45-.15.05-.3.06-.46.08h-.39s0-.24,0-.31c0-.09,0-.17.02-.24l.78-2.81c.71-2.57,1.45-5.22,2.23-7.82.28-.93.74-1.82,1.18-2.68l.3-.59c.25-.49.56-.97,1.16-1.17h.16s.03.09.03.09c.25.66.28,1.35.11,2.17-.07.33-.15.65-.22.98l-.03.15c-.12.51-.24,1.03-.34,1.54-.11.59-.15,1.13-.13,1.62.02.52.33.88.82.93.38,0,.71-.29.89-.76l.03-.09c.46-1.26.94-2.57,1.33-3.88.34-1.15.35-2.33.01-3.51-.37-1.3-1.16-2.08-2.17-2.15-.05,0-.1,0-.14,0-.64,0-1.32.28-1.98.81-.36.29-.7.64-.98,1.01-.39.52-.75,1.07-1.07,1.65-.96,1.74-1.54,3.58-1.99,5.16l-2.73,9.73c-.08.27-.17.54-.27.81l-.2.5-.56.16c-.36.1-.71.2-1.07.28-.58.12-1.17.23-1.79.34-.71.13-1.41.27-2.11.42-.54.12-.99.27-1.37.46-.45.23-.68.69-.65,1.26.03.53.33.88.84.98.2.04.41.07.62.08.09,0,.17,0,.26,0,.15,0,.3,0,.43-.03.7-.1,1.39-.24,2.13-.38l.89-.17,1.29-.17-.2.72c-.1.37-.19.71-.31,1.04-1.01,2.78-1.87,5.89-2.62,9.5-.29,1.41-.49,2.55-.62,3.6-.06.47,0,1.01.17,1.44.12.32.36.51.65.53h.05c.29,0,.57-.18.75-.49.22-.38.34-.86.42-1.24,1.17-5.57,2.92-10.84,4.47-15.25.07-.21.16-.41.25-.63l.21-.37,2.46-.9c1.41-.51,2.5-1.1,3.46-1.84.23-.18.47-.36.64-.58Zm-171.94-90.85c.02.34.04.69.13,1.01.17.64.62,1.01,1.3,1.05h.1s.02,0,.02,0c.56-.01,1.01-.35,1.29-.97.08-.18.15-.38.21-.57l3.2-10.66c1.41-4.69,2.27-9.59,3.09-14.32l.42-2.4c.09-.49-.02-.84-.31-1.05-.21-.15-.43-.23-.66-.23-.19,0-.37.07-.53.21-.3.25-.7.65-.91,1.12-.32.74-.57,1.53-.75,2.36-1.53,7.21-3.62,14.2-5.27,19.47-.32,1.03-.62,2.06-.93,3.12l-.43,1.44c.01.13.02.28.03.43Zm238.02,48.47c-.13-.33-.43-.59-.87-.76-.24-.09-.49-.14-.72-.14-.68,0-1.28.38-1.75,1.1-.37.57-.68,1.16-.91,1.61-1.22,2.38-2.45,4.76-3.67,7.14-3.23,6.27-6.56,12.75-9.75,19.15-1.41,2.83-2.62,5.78-3.8,8.63-.33.8-.66,1.6-.99,2.4-.24.57-.33,1.28-.26,1.99.07.76.84,1.35,1.78,1.38h.09c.8,0,1.28-.37,1.55-1.19.1-.31.2-.61.31-.92.35-1.07.71-2.18,1.21-3.23,1.97-4.15,4.03-8.39,6.21-12.87l2.64-5.44.76-1.46c.78-1.49,1.79-3.42,2.77-5.37,1.36-2.71,2.69-5.42,4.01-8.14l1.21-2.48c.27-.55.33-1.03.18-1.41Zm-52.57,53.23c-1.2-.09-2.11-.75-2.77-2.02-.69-1.3-.91-2.49-.7-3.76.14-.9-.22-1.53-.98-1.69-.06-.01-.13-.02-.28-.03-.61,0-1.17.43-1.45,1.12-.05.13-.09.28-.13.44-.04.16-.08.32-.14.47l-.08.19c-.13.34-.26.68-.48.96-1.03,1.33-2.11,2.38-3.28,3.2-.19.14-.4.26-.66.4l-.72.43.08-.34c.03-.14.06-.26.08-.39.03-.18.06-.32.12-.44.45-.91.9-1.81,1.37-2.71.08-.16.17-.31.27-.46.14-.24.28-.47.38-.71.22-.57.14-1.09-.25-1.45-.24-.23-.51-.36-.86-.38-.17,0-.35.04-.52.12-.38.18-.73.45-1,.76-1.32,1.49-2.24,3.23-2.74,5.16-.15.56-.19,1.24-.11,1.91.15,1.33.97,2.21,2.16,2.29.06,0,.11,0,.17,0,.17,0,.34-.02.52-.05.61-.11,1.28-.37,2.01-.75,1.29-.69,2.33-1.72,3.26-2.73.14-.15.29-.3.48-.49l.41-.32.31.51c.15.25.29.47.44.69.93,1.32,2.02,2.12,3.32,2.42.15.04.29.06.44.07.05,0,.16,0,.16,0,.54,0,1.05-.19,1.52-.56.47-.37.67-.76.6-1.19-.07-.44-.34-.64-.95-.68Zm-50.27-119.39h.06c.52-.01,1.06-.15,1.62-.41,2.19-1.02,3.94-2.83,5.18-5.37.51-1.04.47-2.13-.11-3.26-.64-1.25-2.2-2.09-3.87-2.09h-.09c-1.21.02-2.25.48-2.94,1.3-1.31,1.56-2.18,3.31-2.59,5.21l-.03.29c-.02.19-.04.35-.05.52-.07,1.25.24,2.31.9,3,.5.53,1.17.8,1.93.8Zm.1-3.46c0-.13,0-.26,0-.39,0-.3,0-.59.08-.86.26-.82.55-1.68.96-2.45.36-.67.94-1.07,1.61-1.08h.03c.6,0,1.18.32,1.6.93v.07s0,.02,0,.02c-.51,1.64-2.47,3.51-4.09,3.91l-.19-.02v-.13Zm78.66,118.12c-.19-.09-.42-.14-.67-.14h-.13c-.84.06-1.68.61-1.94,1.28-.18.44-.31.91-.42,1.32-.05.18-.1.35-.14.49-.14.86.06,1.49.6,1.85.23.16.5.25.77.25h.08c.51-.04.98-.36,1.3-.88.39-.63.75-1.31,1.12-2.07.39-.83.15-1.75-.56-2.1Zm-153.5-103.49c.46,0,.94-.12,1.42-.33.95-.42,1.82-1.05,2.64-1.94.18-.19.89-.94.98-.94,0,0,.25.42.25.42.11.19.2.36.32.5l.3.37c.37.46.75.94,1.19,1.32.36.32.88.5,1.33.65.13.05.26.07.38.07h.01c.25,0,.45-.11.61-.32.26-.35.27-.75.02-1.2-.2-.37-.39-.66-.59-.9-1.4-1.71-2.08-3.69-2.04-5.86,0-.25,0-.43-.04-.59-.13-.67-.61-1.11-1.22-1.11-.22,0-.44.07-.66.19-.13.07-.24.16-.38.27l-.36.24-.17-.13c-.07-.05-.12-.09-.17-.15-.48-.57-1.08-.87-1.78-.87h0c-.53,0-1.08.22-1.55.59-2.2,1.73-3.29,3.97-3.24,6.64.04,1.85,1.12,3.09,2.75,3.09Zm.15-3.27c.12-1.62.67-2.86,1.78-4.03l.11-.11,1.56,1.46-.02.1-.02.04c-.94,1.39-1.9,2.2-3.2,2.69h-.22s.01-.15.01-.15Zm-18.33,1.57c-.18,1.84.25,3.44,1.21,4.49.82.89,2,1.36,3.41,1.36h.24c2.91-.11,5.46-1.44,7.58-3.97.06-.07.12-.15.17-.23.23-.39.26-.69.08-.89-.17-.2-.48-.33-.8-.35-.21,0-.48.08-.78.23-.24.12-.48.26-.78.44-.29.17-.59.35-.89.49l-.5.24c-.76.37-1.54.75-2.36.97-.34.09-.72.14-1.17.15h-.14c-.36,0-.73-.02-1.07-.05-.71-.06-1.19-.55-1.37-1.43l-.03-.11s.82-.44,1.02-.54c1.79-.92,3.38-2.12,4.72-3.58.45-.49,1.01-1.17,1.27-2.05.28-.92.14-1.73-.4-2.4-.26-.33-1.24-1.4-2.74-1.4-.46,0-.93.13-1.39.35-.44.21-.83.46-1.17.73-2.43,1.93-3.81,4.48-4.11,7.56Zm5.78-5.76c.3-.22.56-.32.8-.32h.02c.26,0,.49.12.74.41v.08s-.02.03-.02.03c-.46,1.03-1.97,2.34-3.83,3.35l-.35.19.14-.38c.55-1.46,1.35-2.53,2.51-3.36Zm-13.83,12.43c.09.02.17.03.25.03h.02c.48,0,.89-.32,1.17-.87.23-.46.44-.97.61-1.53,1.14-3.75,2.27-7.51,3.39-11.26.85-2.88,1.7-5.77,2.54-8.66.66-2.26,1.32-4.51,1.98-6.77.14-.47.27-.95.4-1.43l.04-.15c.45-1.64.92-3.33,1.64-4.94.2-.45.13-.86-.19-1.16-.18-.17-.4-.26-.62-.26-.16,0-.31.05-.47.15-.33.2-.63.48-.83.79-.36.52-.63,1.03-.82,1.53-.56,1.45-1.27,3.27-1.84,5.01-1.44,4.37-2.86,8.74-4.28,13.12l-1.25,3.85c-.96,2.96-1.95,6.19-2.69,9.77,0,.06-.03.31-.03.31-.03.31-.08.73-.06,1.14.04.67.45,1.2,1.04,1.33Zm169.85,71.95c-.16-.08-.31-.13-.5-.14-.19,0-.37.07-.53.21-.24.22-.46.49-.61.76l-.2.36c-.4.72-.81,1.47-1.13,2.23l-.35.83c-1.15,2.74-2.34,5.56-3.43,8.41-1.55,4.03-3.06,8.07-4.65,12.33l-2.01,5.37-.17.57c-.18.62-.43,1.44-.64,2.27-.18.73-.29,1.36-.31,1.92-.03.88.45,1.54,1.24,1.59h.03c.74,0,1.33-.57,1.54-1.48.12-.54.28-1.19.51-1.83.61-1.69,1.22-3.38,1.83-5.06l.5-1.38c.59-1.61,1.17-3.22,1.75-4.84.55-1.54,1.1-3.08,1.64-4.62l.05-.15c.78-2.21,1.57-4.42,2.37-6.63.57-1.56,1.15-3.11,1.74-4.67l.18-.46c.41-1.08.82-2.16,1.22-3.24.16-.44.28-.93.36-1.49.05-.37-.1-.69-.43-.87Zm-156.45-23.26h-.16c-.56,0-1.03-.24-1.46-.72l-.07-.17.37-.23c.16-.1.29-.18.43-.25,1.53-.79,2.98-1.93,4.43-3.51.49-.54.9-1.09,1.2-1.64.84-1.52.44-3.16-.98-3.98-.66-.38-1.34-.58-2.1-.59-.36,0-.73.05-1.09.15-1.57.43-2.89,1.25-3.91,2.44-1.47,1.71-2.19,3.51-2.2,5.52v.09l-.46.25c-.68.35-.93.7-.9,1.27.03.54.39.94,1,1.12.19.06.39.1.65.16l.5.16.14.26c.11.2.22.42.36.62.96,1.37,2.27,2.08,3.96,2.1h.02c.61,0,1.25-.06,1.9-.19,2.32-.45,4.6-1.48,6.75-3.06.93-.68,1.77-1.45,2.41-2.04.72-.68,1.29-1.57,1.68-2.65.08-.22.13-.55-.12-.81-.13-.14-.29-.21-.47-.22-.11,0-.23.03-.35.09-.21.1-.4.26-.63.45-.29.24-.57.49-.92.79-.29.25-.58.51-.87.75-2.12,1.77-4.41,2.97-6.81,3.55-.77.18-1.57.24-2.27.28Zm-2.74-3.87l.09-.3c.47-1.67,1.19-2.74,2.34-3.47.7-.44,1.15-.62,1.61-.62h.03c.23,0,.48.05.78.16l.13.11-.04.1c-.51,1.15-2.93,3.19-4.63,3.91l-.29.12Zm80.95-71.64c-.35,0-.7.16-1,.44-.3.29-.57.67-.73,1.04-.23.56-.43,1.13-.63,1.7-.12.35-.24.7-.38,1.04l-.1.29c-.12.35-.25.72-.48.99-2.23,2.53-4.51,4.34-6.96,5.54-.19.09-.39.16-.67.25-.13.04-.27.08-.43.14h-.23s.12-.59.16-.78c.07-.37.13-.69.23-1,.6-1.89,1.47-3.67,2.57-5.3l.34-.5c.18-.26.37-.52.54-.79.34-.54.35-1.09.03-1.46-.18-.22-.46-.34-.79-.34h0c-.22,0-.44.07-.63.2-.3.21-.61.5-.94.88-1.58,1.87-2.82,4.08-3.77,6.76-.37,1.03-.51,1.95-.43,2.82.14,1.53,1.14,2.56,2.53,2.56.06,0,.12,0,.18,0,.59-.05,1.45-.19,2.21-.59.95-.51,1.91-1.15,2.76-1.71.33-.22.66-.44.99-.65.17-.11.32-.23.55-.4l.75-.56-.09.39c-.93,4.28-1.91,8.19-3.02,11.97l-.44.3c-.28.18-.54.35-.79.54-3.56,2.64-6.8,5.62-9.64,8.86-3.38,3.85-5.8,7.76-7.42,11.94-.59,1.52-.83,2.91-.75,4.24.12,1.95.96,3.29,2.56,4.11.77.39,1.6.59,2.49.59h.11c.3,0,.61-.03.92-.08,2.4-.38,4.49-1.67,6.38-3.97,1-1.22,1.88-2.64,2.76-4.49,1.56-3.26,2.72-6.72,3.78-9.99,3.1-9.56,5.29-19.1,7.01-27.16l.04-.21c.24-1.12.48-2.28,1.16-3.3.21-.31.34-.71.43-1.02.21-.7.37-1.44.15-2.18-.2-.67-.72-1.1-1.34-1.1Zm-8.88,28.19c-.26.86-.52,1.71-.79,2.57l-.12.37c-1.19,3.72-2.43,7.56-4.11,11.17-.56,1.2-1.26,2.44-2.26,4.02-.82,1.3-1.85,2.24-3.05,2.81-.74.35-1.48.55-2.13.59h-.22c-.6,0-1.03-.15-1.32-.46-.33-.36-.45-.93-.37-1.74.06-.64.2-1.27.39-1.88.93-2.89,2.45-5.72,4.65-8.66,1.31-1.74,2.76-3.38,4.17-4.95l.24-.27c.99-1.12,2.04-2.22,3.09-3.31.43-.45.86-.9,1.29-1.36.11-.12.22-.22.33-.33l.26-.25.04.02.33.27-.42,1.41Zm-9.86,109.05c-.63-.49-1.22-.99-1.54-1.74-.31-.72-.67-1.58-.92-2.49-.23-.82-.47-1.38-1.1-1.86-.32-1.64-1.01-2.48-2.11-2.55-.05,0-.11,0-.16,0-.41,0-.87.1-1.39.29-.77.28-1.55.71-2.26,1.24-1.58,1.18-2.84,2.8-3.76,4.81-.27.59-.45,1.29-.5,1.96-.07.79.14,1.52.59,2.04.42.49,1.02.77,1.73.82.06,0,.13,0,.22,0,.84,0,1.68-.27,2.43-.78.81-.55,1.59-1.18,2.34-1.78l.73-.58c.19-.15.36-.31.55-.49l.46-.34.32.56c.15.28.29.52.44.76,1.01,1.66,2.45,2.65,4.27,2.93.06,0,.11.01.16.02h.11c.4,0,.7-.16.86-.48.2-.4.13-.79-.2-1.16-.39-.43-.82-.83-1.27-1.18Zm-5.54-5.67c-.01.09-.01.19-.02.29,0,.24-.01.47-.14.64-1.29,1.74-2.73,2.98-4.4,3.78l-.27.13.05-.29c.35-1.95,2.89-4.55,4.61-4.72l.19-.02-.02.19Zm-110.71-45.8c.27-.35.52-.85.2-1.23-.14-.17-.31-.26-.52-.26-.16,0-.33.05-.56.14-.18.08-.36.15-.53.25-.34.19-1.93,1.11-1.93,1.11-1.28.73-2.62,1.1-3.97,1.1h-.12c-.44,0-.9-.06-1.35-.14-.65-.13-1.39-.33-1.87-1.12l-.04-.16,1.16-.62c.64-.34,1.25-.66,1.85-1.02,1.49-.89,2.66-1.9,3.59-3.09.73-.93,1.11-1.9,1.18-2.98.06-.91-.29-1.9-.91-2.58-.36-.39-.97-.86-1.89-.87-.56,0-1.14.19-1.78.58-.09.06-.19.11-.27.18-2.26,1.65-3.99,3.8-5.16,6.4-.14.32-.26.65-.38,1l-.24.61-.79.11c-.41.06-.82.12-1.23.19-.52.09-.87.42-1.02.94-.15.52,0,.99.42,1.3.36.27.79.4,1.09.46.31.07.64.07.98.09.15,0,.3,0,.45.02h.08s.11.21.11.21c.05.09.1.17.13.26.5,1.23,1.39,2.06,2.71,2.55.81.3,1.67.46,2.56.47h.14c.93,0,1.91-.15,2.99-.46,1.98-.57,3.64-1.72,4.93-3.42Zm-9.59-4.87c.65-1.48,2.35-3.21,3.49-3.57l.19-.06v.2c.02,1.1-1.42,2.59-3.48,3.63l-.37.19.17-.38Zm142.68,54.96c-.75-.49-1.28-1.21-1.62-2.2-.44-1.28-.64-2.65-.62-4.21v-.26c.02-.24.03-.5-.02-.74-.12-.62-.57-1.04-1.22-1.08-.35,0-.69.15-.96.43-.24.24-.4.59-.56.93-.85,1.86-2.17,3.27-4.03,4.31-.14.08-.28.11-.46.16-.09.02-.18.05-.29.08h-.22s.03-.17.03-.17c.03-.16.05-.3.07-.44.04-.29.09-.56.18-.81.21-.57.46-1.15.76-1.74.25-.49.44-1.19-.1-1.72-.19-.19-.43-.3-.77-.32-.31,0-.64.13-.92.37-.17.14-.3.28-.39.42-1.03,1.58-1.55,2.98-1.63,4.4-.1,1.84.8,3.09,2.28,3.19.06,0,.12,0,.19,0,.41,0,.84-.09,1.29-.25,1.03-.39,2.04-1.05,3.19-2.07l1-.81s.15.39.19.52c.08.22.15.42.24.6.12.22.23.44.35.67.32.63.65,1.28,1.08,1.82.65.83,1.51,1.29,2.56,1.36.09,0,.18,0,.28,0,.16,0,.33,0,.5-.03.45-.05.74-.27.86-.66.14-.45-.07-.77-.27-.96-.26-.24-.6-.54-.97-.78Zm-33.53,1.53h-.1c-.25.01-.53.09-.81.21-.36.16-.71.35-1.1.57l-.33.18c-.63.34-1.47.72-2.4.72-.07,0-.15,0-.22,0h-.13c-.87-.1-1.5-.55-1.91-1.36l-.02-.15.39-.25c.2-.13.39-.24.56-.38l.83-.62c.75-.56,1.53-1.13,2.23-1.77.57-.52,1.09-1.21,1.47-1.93.39-.76.45-1.57.16-2.3-.28-.7-.84-1.22-1.58-1.47-.27-.09-.55-.14-.82-.16-.07,0-.14,0-.22,0-.67,0-1.35.21-2.07.63-1.37.81-2.41,2.09-3.09,3.81-.25.63-.43,1.31-.6,1.98-.08.3-.16.62-.33,1.02-1.28.59-2.58,1-3.96,1.27-.09.02-.19.03-.28.04-.16.02-.32.04-.48.09-.46.15-.74.52-.79,1.03-.04.48.15.84.54,1.01.18.08.47.18.76.2h.1c.07,0,.13,0,.19-.01.91-.14,1.82-.34,2.7-.53l.69-.15c.21-.04.42-.11.62-.17l.41-.08.23.36c.12.19.23.36.35.51.94,1.25,2.1,1.93,3.46,2.02.11,0,.21.01.32.01.1,0,.2,0,.3,0,1.92-.11,3.61-.95,5.02-2.5.23-.25.41-.55.5-.83.09-.26.06-.5-.06-.68-.11-.17-.29-.27-.51-.28Zm-6.56-3.67c.33-1.35,1.21-2.21,2.4-2.38l.22-.03-.05.21c-.19.81-1.16,1.79-2.35,2.37l-.29.14.08-.31Zm-130.39,12.16h0s.1,0,.24.07c.47.62.44,1.35.42,2.05v.14c-.03.68-.07,1.36-.13,2.13-.04.51-.07,1.02-.1,1.53-.02.37-.03.8.04,1.21.12.68.57,1.1,1.25,1.14.53,0,1-.38,1.24-.98.12-.29.18-.55.2-.77l.09-.96c.1-1.19.21-2.41.26-3.61.03-.96-.17-1.91-.61-2.83-.52-1.09-1.44-1.74-2.54-1.78h-.11c-.37,0-.75.07-1.12.2-.2.07-.39.15-.64.26l-.77.33,1.21-4.44,1.23-4.49c1.22-4.45,2.44-8.9,3.66-13.36.09-.33.13-.67.13-.99,0-.43-.22-.75-.59-.88-.1-.03-.19-.05-.32-.06-.26,0-.5.12-.68.35-.26.32-.46.69-.58,1.04-.69,2.01-1.35,3.99-1.97,5.99-1.23,3.99-2.43,7.98-3.63,11.98-1.44,4.81-2.7,9.16-3.49,13.62l-.03.16c-.07.43-.15.85-.19,1.28-.09,1.01.32,1.72,1.08,1.89.09.02.18.03.27.04h.05c.64,0,1.19-.46,1.52-1.27.15-.36.27-.74.38-1.12l.62-1.93c.32-.98.63-1.96.97-2.93.35-1.01.82-1.79,1.43-2.38.29-.28.65-.63,1.21-.63Zm21.79-8.1c-.12-.03-.23-.05-.39-.05-.45,0-.85.24-1.18.71-.31.44-.57.89-.75,1.33-.2.47-.37.95-.57,1.47-.19.53-.39,1.05-.6,1.57-.21.5-.45,1.02-.83,1.37-1.19,1.13-2.57,2.06-4.09,2.75-.15.07-.31.11-.53.17-.11.03-.24.06-.39.11l-.29.09.34-.89c.14-.38.26-.71.41-1.02.74-1.62,1.69-3.49,3.19-5.06.45-.47.52-1.04.19-1.51-.17-.24-.45-.39-.81-.4-.2,0-.4.05-.59.15-.23.12-.45.28-.62.45-1.96,1.92-3.44,4.29-4.52,7.23-.07.2-.11.42-.17.69-.19,1.03-.02,1.93.47,2.56.4.5.98.79,1.69.81h.11c.26,0,.52-.03.8-.09.62-.15,1.24-.44,1.87-.75.23-.11.45-.22.68-.32.19-.09.38-.2.59-.32l.57-.24-.03.41c0,.12,0,.22-.03.32l-.49,1.71c-.82,2.91-1.64,5.81-2.5,8.71-.15.49-.54.95-.83,1.25-.67.71-1.36,1.4-2.07,2.13-1.03,1.05-2.09,2.13-3.1,3.24-2.94,3.23-5.24,6.47-7.03,9.89-.68,1.29-1.41,2.84-1.72,4.56-.22,1.25-.2,2.24.08,3.12.46,1.46,1.52,2.36,2.84,2.4h.12c.21,0,.42-.02.63-.06.69-.13,1.43-.43,2.16-.86,1.23-.73,2.27-1.75,3.09-3.04.76-1.19,1.73-2.77,2.56-4.42,2.5-5.02,4.21-10.37,5.55-14.93.37-1.24.86-2.65,2.07-3.63.13-.11.25-.24.37-.38l.24-.27c.32-.35.62-.68.5-1.17-.1-.4-.37-.49-.77-.51h-.13s-.31,0-.31,0l-.18-.06.11-.52c.05-.22.09-.41.14-.6l.96-3.44c.55-1.96,1.1-3.92,1.64-5.88.37-1.36.83-2.79,1.65-4.11.57-.92.84-2.01.8-3.23-.03-.79-.33-1.26-.91-1.42Zm-15.98,41.09c-.57.96-1.36,2.18-2.52,3.09-.24.19-.5.34-.82.54-.15.09-.31.19-.48.3l-.2.05-.03-.15c-.02-.14-.05-.26-.08-.38-.04-.21-.08-.38-.08-.56.01-1.15.41-2.21.83-3.19.99-2.26,2.26-4.41,3.9-6.59.87-1.16,1.8-2.29,2.7-3.39l1.01-1.24c.12-.14.25-.27.39-.41l.21-.2.03.02.19.16c-1.5,4.84-3.11,8.64-5.06,11.95ZM263.93,32.93c.12-.3.23-.59.4-.95l.31-.17c.14-.07.24-.13.34-.2.29-.22.47-.49.52-.78.05-.29-.05-.6-.27-.9-.34-.44-.79-.66-1.37-.67-.61.01-1.15.3-1.54.84-.46.63-.99,1.37-1.33,2.19-.72,1.72-1.25,3.16-1.64,4.52-.65,2.23-1.27,4.48-1.87,6.65-.33,1.19-.65,2.39-.99,3.58-.12.42-.27.81-.47,1.19-.18.35-.38.69-.63,1.11-.12.2-.24.41-.36.61-.2.36-.4.72-.62,1.13l-.05.09-.53.82-.48-.8c-.59-1.01-1.41-1.52-2.49-1.52h0c-.24,0-.5.04-.77.1-.69.16-1.35.42-1.89.74-1.66.98-3.02,2.4-4.04,4.21-.5.88-.77,1.74-.81,2.62-.06,1.08.26,2.04.9,2.71.56.59,1.36.91,2.3.91,0,0,.18,0,.18,0,1.09-.07,2.14-.49,3.12-1.25.72-.55,1.41-1.17,2.1-1.79.31-.27.61-.54.92-.81l1.15-.99-.35,1.51-.35,1.45c-.29,1.19-.58,2.37-.84,3.56-.1.45-.13.93-.09,1.4.07.74.42,1.17,1.06,1.3.12.02.23.04.35.04h.02c.49,0,.89-.26,1.17-.74.27-.45.48-.94.6-1.4.65-2.43,1.3-4.87,1.94-7.3l.18-.66c.55-2.09,1.11-4.18,1.67-6.26,1.5-5.59,2.68-9.91,3.81-14,.2-.73.47-1.42.74-2.08Zm-11.8,20.82l-.02.03c-1.09,1.73-3.98,3.73-5.42,3.75l-.15-.05v-.09c-.03-1.86,2.39-4.43,4.55-4.83l.09-.02.97,1.11-.02.09Zm-16.01,109.76c-.11-.07-.22-.15-.33-.24l-.24-.24.23-.41c.12-.21.24-.41.34-.61.89-1.77,1.77-3.69,1.84-5.85.04-1.24-.07-2.22-.34-3.1-.82-2.6-2.58-4.24-5.39-5.01-.89-.24-1.85-.4-2.84-.47-.37-.02-.74-.04-1.13-.04-1.13,0-2.35.1-3.72.31-.13.02-.27.05-.45.08-.33.06-.66.13-1,.13-.06,0-.11,0-.16,0-.17-.01-.33-.04-.49-.09-.07-.02-.13-.03-.24-.04-.3,0-.56.18-.84.37-.22.16-.46.32-.73.39-2.13.61-3.83,1.19-5.37,1.81-4.25,1.74-8.28,4.11-11.98,7.07-.86.69-1.44,1.3-1.87,1.98-.51.8-.6,1.51-.29,2.16l.31.18.28.19c.57-.06.9-.27,1.08-.65.52-1.15,1.5-1.86,2.29-2.44,3.72-2.71,7.89-4.92,12.41-6.58.4-.15.81-.27,1.29-.41l1.02-.31-.23.61c-.06.17-.11.29-.16.41-.33.69-.67,1.39-1.02,2.11-.68,1.4-1.38,2.85-2.03,4.29-1.76,3.9-4.08,9.05-6.35,14.29-1.07,2.46-2.11,4.98-3.14,7.47-.48,1.17-.97,2.33-1.46,3.5l-1.05,2.52c-.83,1.98-1.66,3.97-2.51,5.94-.15.34-.29.69-.44,1.04-.49,1.18-1,2.4-1.7,3.51-.23.35-.39.73-.49,1.09-.29,1.15-.02,1.94.8,2.36.12.06.25.09.38.1h.08c.56,0,1.16-.36,1.56-.95.18-.26.35-.57.53-.98l.59-1.29c.58-1.27,1.24-2.71,1.83-4.13l.66-1.58c2.18-5.19,4.43-10.55,6.58-15.85,2.34-5.76,4.89-11.94,7.71-18.15.13-.27.24-.55.38-.89.4-.98.82-2,1.63-2.79.09-.09.15-.27.22-.49.18-.57.34-1.14.52-1.72l.08-.28.3-.81c.66-.28,1.33-.35,2.07-.41.16-.01.33-.03.49-.05.83-.1,1.58-.15,2.3-.15.32,0,.63,0,.93.03,1.08.07,2.06.27,3,.6,2.16.77,3.39,2.52,3.29,4.68-.11,2.35-1.01,4.59-2.71,6.7l-.65.02c-.43.01-.84.02-1.25.07-3.1.35-5.97,1.37-8.52,3.02-1.54,1-2.68,2.18-3.48,3.62-.48.87-.52,1.94-.1,2.75.4.75,1.16,1.2,2.16,1.27h.36c.96.01,1.93-.19,3.07-.6,3.36-1.24,6.39-3.33,9.01-6.19.15-.16.3-.31.48-.48l.25-.24h.09s.03.02.03.02c2.39,1.02,3.56,2.91,3.58,5.78.01,1.3-.25,2.69-.82,4.34-.67,1.93-1.57,3.85-2.67,5.68-1.67,2.77-3.78,4.97-6.29,6.54-1.19.75-2.31,1.25-3.42,1.54-.41.11-.78.16-1.13.16-.08,0-.15,0-.22,0-.4-.03-.77-.12-1.13-.29-.28-.13-.62-.22-1.04-.26h-.09c-.61,0-1.04.4-1.17,1.09-.11.57.04,1.05.46,1.42.78.7,1.66,1.08,2.7,1.16h.11c.15.02.3.02.45.02.93,0,1.86-.19,2.85-.58,3.37-1.33,6.25-3.51,8.55-6.48,2.18-2.82,3.81-6.03,5.01-9.83.53-1.68.76-3.24.71-4.76-.12-3.61-1.48-6.12-4.16-7.68Zm-6.88,2.42c-1.15,1.72-5.81,4.22-8.04,4.32l-.22-.07.08-.15c1.09-2.07,5.81-4.21,8.05-4.34l.3-.02-.17.25Zm-29.69-51.7l.09.62c.05.3.09.59.12.88.25,2.24.17,4.54.09,6.76l-.02.57c-.01.4.03.84.14,1.4.09.48.37.78.77.85.06,0,.11.01.17.02h.02c.37,0,.7-.23.9-.62.25-.5.55-1.15.67-1.81.48-2.67.56-5.35.26-7.97-.08-.68-.18-1.22-.33-1.69-.44-1.39-1.33-2.19-2.48-2.21-.6,0-1.25.24-1.87.69-.61.45-1.17,1.03-1.71,1.6-.23.25-.47.5-.71.73-.13.13-.26.28-.39.43l-.41.35-.22-.52c-.09-.2-.16-.38-.24-.55-.45-.93-1.17-1.45-2.05-1.46-.39,0-.79.11-1.2.32-.4.2-.78.49-1.18.8-.16.12-.31.24-.47.35-.11.08-.65.49-.76.49,0,0,0,0-.01,0l-.03-.16c-.03-.19-.06-.38-.09-.64-.06-.41-.11-.8-.22-1.16-.16-.55-.57-.9-1.07-.91-.09,0-.17,0-.25.03-.54.12-.89.6-.96,1.33-.02.17-.03.35-.04.52-.03.39-.06.84-.15,1.26-.3,1.4-.63,2.79-.96,4.18l-.34,1.45c-.03.13-.07.27-.11.42-.07.26-.14.53-.17.8-.1.81.28,1.5.94,1.71.11.04.23.06.36.06.53,0,1.06-.36,1.36-.94.12-.24.22-.51.29-.74l.04-.12c.75-2.17,1.94-4.04,3.53-5.55.18-.17.38-.31.64-.5.11-.08.24-.17.37-.27l.23-.07v.18c.03.22.06.42.08.64.05.4.09.74.06,1.09-.09.98-.22,1.98-.34,2.94l-.09.7c-.02.15-.05.31-.09.46-.04.19-.08.37-.1.56-.05.72.32,1.33.92,1.52.14.04.27.06.42.07.48,0,.9-.27,1.18-.76.19-.32.35-.72.48-1.22.52-1.9,1.51-3.65,3.19-5.66.37-.44.82-.94,1.56-1.22h.18Zm-18.72,59.06c2.89-2.57,4.28-5.04,4.26-7.56-.02-2.03-1.64-5.99-4.12-6.13-.05,0-.11,0-.16,0-1.2,0-2.18.78-2.56,2.05-.8,2.66-1.15,6.14-.96,9.53.03.47.07.94.12,1.41.01.12-.04.23-.13.31-1.33,1.08-2.67,2.1-3.98,3.04-1.54,1.1-3.17,2.2-4.86,3.26-.06.04-.12.05-.19.05-.14,0-.27-.08-.32-.21-.95-2.15-1.33-4.51-1.11-6.83.03-.35-.05-.65-.25-.86-.21-.23-.54-.37-.92-.37-.63,0-1.34.39-1.42,1.24-.26,2.74.25,5.59,1.5,8.24.08.16.02.36-.14.44-3.98,2.3-8.14,4.31-12.36,5.97-.73.29-.95,1.01-.84,1.59.1.5.46,1,1.05,1,.15,0,.31-.03.47-.1,4.5-1.77,8.88-3.88,13.01-6.26.05-.03.11-.05.17-.05.11,0,.21.05.27.14,1.76,2.4,4.05,4.18,6.62,5.15,1.03.38,2.13.59,3.19.59h0c2.24,0,3.99-.89,4.92-2.51,1.43-2.49.38-5.32-.64-8.06-.39-1.05-.76-2.04-.98-2.99-.12-.5-.21-1.01-.28-1.57l.27-.23c.12-.1.24-.2.36-.3Zm-1.38,12.38c-.52.48-1.26.72-2.19.72-.37,0-.76-.04-1.16-.11-2.31-.43-4.66-2.01-6.44-4.34-.06-.08-.08-.17-.06-.27.02-.1.08-.18.16-.23,1.09-.68,2.03-1.29,2.9-1.88,1.86-1.26,3.61-2.54,5.2-3.78l.06-.05.02.08s.12.54.15.69c.27,1.07.64,2.11,1.01,3.12.22.62.45,1.23.65,1.86.51,1.59.82,3.19-.29,4.21Zm.5-15.1l-.07-.07c.43-.43.33-1.24.24-1.96-.04-.29-.07-.56-.06-.78.03-1.39.13-3.39.71-4.68.06-.13.19-.21.33-.21.11,0,.21.05.27.14,1.25,1.73,1.26,4.02.04,5.85-.37.56-.83,1.1-1.45,1.72Zm-119.48,25.74c-.18,0-.37.07-.57.2-.32.22-.57.42-.78.62-1.85,1.78-4.14,2.56-6.13,3.08-.06.02-.12.02-.24.02h-.02c-.07,0-.14,0-.23-.02-.1-.01-.21-.02-.33-.03l-.44-.02.76-.54c.2-.14.35-.25.51-.35,1.65-1.1,3.13-2.37,4.4-3.79.51-.56.9-1.12,1.18-1.66.55-1.07.49-2.08-.19-2.94-.69-.88-1.83-1.43-3.04-1.47h-.16c-.7,0-1.38.17-1.97.5-1.02.57-1.83,1.46-2.49,2.72-.89,1.7-1.48,3.26-1.79,4.76-.05.24-.11.49-.16.7l-.09.31-.22.1c-.08.04-.13.06-.22.06h-.12c-.07,0-.16,0-.24-.07-.26-.2-.53-.31-.86-.32-.5,0-.99.27-1.45.55-.5.3-.81.79-.81,1.29,0,.49.26.92.74,1.19.48.27,1.09.35,1.51.37h.14c.38,0,.78-.05,1.21-.11.21-.03.42-.06.7-.09l.07.06.02.03c.57,1.1,1.47,1.68,2.67,1.73h.17c.49,0,1-.06,1.45-.19,1.93-.53,3.71-1.38,5.29-2.52.59-.43,1.17-.98,1.68-1.6.31-.37.49-.89.69-1.44.07-.19.19-.66-.2-.96-.13-.1-.27-.16-.45-.17Zm-8.33-.13c.28-1.38.72-2.42,1.38-3.29.44-.58.9-.86,1.41-.86h.05c.4.02.82.21,1.27.59l.08.13-.06.08c-1.15,1.59-2.62,2.67-3.9,3.51l-.3.2.07-.35Zm26.24-123.11c3.25-3.97,6.02-8.35,8.06-11.72,2.51-4.15,4.36-7.59,5.83-10.86.35-.78.64-1.66.85-2.62.1-.42.04-.97-.13-1.36-.28-.64-.79-1.01-1.41-1.01-.44,0-.86.22-1.11.56-.27.37-.49.8-.67,1.17-.35.72-.69,1.45-1.04,2.18-.64,1.36-1.3,2.76-2.02,4.12-3,5.65-6.39,10.95-10.08,15.76-2.62,3.42-5.22,6.2-7.94,8.49-1.08.91-2.35,1.91-3.88,2.35-.33.09-.57.14-.81.14-.7,0-1.03-.46-1.38-1.3l-.03-.07.23-.38c.11-.19.23-.38.33-.57l.67-1.28c.63-1.2,1.28-2.45,1.88-3.7.53-1.1.79-2.26.78-3.43-.01-1.86-1.25-2.71-2.43-2.71-.55.01-1.1.21-1.58.57-.75.55-1.38,1.25-1.9,2.06-1.34,2.14-2,4.57-1.95,7.24,0,.37,0,.73,0,1.12l-.03.66c-2.45,3.5-5.11,6.62-7.9,9.26-1.37,1.3-2.62,2.43-4.14,3.23-.93.49-1.75.8-2.52.94-.2.04-.39.06-.61.06-1,0-1.56-.57-1.82-1.84-.14-.69-.23-1.44-.28-2.31-.14-2.61.17-5.18.48-7.35.68-4.67,1.81-9.49,3.35-14.34,1.97-6.2,4.7-12.01,6.86-16.37.04-.08.11-.13.17-.16l.13-.06c1.25-.12,1.42-.29,1.67-1.6.17-.88.29-1.77.42-2.76.11-.85-.26-1.65-.91-1.93-.21-.1-.44-.15-.7-.15h0c-.5,0-.96.24-1.31.66-.35.43-.67.91-.93,1.43l-.85,1.66c-1.11,2.16-2.26,4.4-3.34,6.66-3.3,6.92-5.76,14.18-7.31,21.6-.64,3.07-1.25,6.37-1.39,9.67,0,.15-.06.29-.11.41-.02.05-.04.11-.05.11h0v3.46s.08.26.08.26c.06.2.11.4.14.6.14,1.05.38,2.42,1.07,3.65.96,1.71,2.68,2.73,4.6,2.73h.1c.33,0,.66-.04.98-.11,1.82-.37,3.53-1.17,5.25-2.45,4.03-3.02,7.2-6.79,9.76-10.09.15-.2.31-.39.49-.61l.34-.35.35.27c.13.1.24.18.35.27.83.74,1.8,1.1,2.97,1.1h.11c.11,0,.22,0,.34-.02,1.3-.1,2.62-.6,4.14-1.59,3.98-2.58,7.18-6.17,9.78-9.34Zm241.11,86.31c-.21-.16-.42-.32-.65-.51-.24-.19-.48-.38-.73-.56-.16-.12-.34-.22-.48-.29l-.09-.06c-.16-.05-.32-.08-.47-.09h-.12c-.74,0-1.28.46-1.48,1.27-.12.48-.03.96.24,1.34.28.39.73.63,1.32.66.11,0,.22,0,.33,0,.53,0,1.06-.05,1.58-.1h.11c.29-.04.68-.18.82-.69.11-.39-.01-.7-.39-.98Zm-2.54,8.31c-.16-.1-.34-.16-.6-.17-.31,0-.61.14-.84.39-.35.38-.65.83-.82,1.25-.54,1.33-1.06,2.67-1.59,4.06l-.53,1.37.1.07-.03.09c-.07.24-.14.48-.21.71l-.03.1c-.19.62-.38,1.26-.52,1.9-.13.6.24,1.05.65,1.23.1.04.21.07.33.07h.07c.37,0,.71-.18.93-.48.23-.32.43-.71.61-1.16.74-1.89,1.46-3.78,2.16-5.69.28-.76.53-1.57.75-2.39.16-.6,0-1.09-.43-1.36Zm-276.51,10.17c-.11-.02-.22-.03-.41-.04-.83,0-1.48.47-2,1.43-1.25,2.32-1.96,4.79-2.63,7.34-.19.72-.65,2.45-.65,2.45l-.3,1.01c-5.88,5.14-16.63,9.68-20,9.71l-.19-.06.1-.45c.04-.19.09-.38.14-.57l.67-2.34c.33-1.16.66-2.31.98-3.47.93-3.4,1.85-6.81,2.76-10.22.43-1.61.83-3.23,1.25-4.88l.12-.48c.19-.78.39-1.58.55-2.37l.05-.26c.13-.6.24-1.16-.16-1.61l-.43-.13-.46-.2c-.85.46-.92.53-1.17,1.18-.2.51-.37,1.01-.51,1.5-.38,1.31-.76,2.62-1.14,3.93-.58,2.01-1.16,4.03-1.76,6.04-1.07,3.6-2.15,7.19-3.23,10.78l-.83,2.77c-.08.26-.18.52-.28.78l-.22.47-.19-.02c-.94-.08-1.76-.15-2.52-.6-.56-.33-1.14-.67-1.08-1.64.03-.52-.4-.83-.78-.93-.09-.02-.18-.04-.33-.04-.34,0-.64.15-.89.42-.4.45-.6.91-.64,1.42-.08,1.28.4,2.3,1.52,3.19.74.59,1.65,1.04,2.78,1.35.08.02.17.04.26.05.26.04.57.08.7.5l-.47,1.5-5.47,17.17c-.33,1.03-.18,1.44.73,2.1.11.02.21.03.38.03.83,0,1.47-.51,1.9-1.53l.09-.22c.66-1.57,1.35-3.2,1.89-4.85,1.09-3.33,2.11-6.62,3.2-10.1l1.34-4.29.08-.04h.03c1.86-.3,4.3-.76,6.71-1.63,2-.72,4.31-1.59,6.48-2.77,1.47-.8,2.93-1.62,4.39-2.45l2.23-1.26-.07.48c-.01.11-.03.22-.06.32-.18.68-.63,2.4-.63,2.4-.46,1.75-.97,3.74-1.52,5.63-1.23,4.25-2.53,8.58-3.87,13-.64,2.11-1.29,4.21-1.93,6.32l-.13.42c-.61,1.97-1.22,3.95-1.82,5.92-.18.6-.3,1.18-.36,1.74-.08.79.35,1.57.99,1.8.11.04.22.06.34.07h.05c.58,0,1.21-.39,1.53-.95.26-.44.44-.84.55-1.2l.68-2.2c1.57-5.08,3.13-10.15,4.66-15.24.84-2.8,1.63-5.62,2.4-8.36l.45-1.61c.36-1.27.7-2.55,1.04-3.82l.42-1.56c.01-.06.03-.12.04-.22.01-.08.03-.15.04-.23l.35-1.41c.38-1.56.77-3.11,1.17-4.67.09-.35.31-.66.57-1.02.2-.28.41-.55.64-.84.31-.4.62-.81.89-1.23.96-1.53,1.59-3.34,1.91-5.53.18-1.22.36-2.48.21-3.73-.12-1-.49-1.63-1.15-1.98Zm48.15-103.42c0,.16,0,.32-.02.52l-.06.46-.77.31c-.52.22-1.05.44-1.59.62-.24.08-.46.12-.72.12-.42,0-.8-.14-1.17-.42-.19-.15-.4-.22-.63-.22-.48,0-.9.39-1.07.98-.21.71-.02,1.32.5,1.66.59.39,1.21.66,1.8.79.26.06.53.09.88.09h.01c.87-.02,1.73-.3,2.38-.55.26-.1.51-.2.8-.32l.5-.17.17.16c.08.08.15.14.21.22.93,1.3,2.26,1.96,3.95,1.96h.12c.15,0,.29-.01.44-.02,3.06-.24,5.66-1.64,7.75-4.16.23-.28.38-.51.49-.74.14-.32.14-.63-.01-.85-.12-.19-.34-.3-.61-.3h-.1c-.25.04-.53.13-.78.27-.87.49-1.63.95-2.33,1.39-1.51.96-3,1.45-4.58,1.48h-.1c-.6,0-1.37-.1-2.03-.89l-.06-.15.08-.07s.67-.58.84-.73c1.6-1.35,2.71-2.52,3.58-3.77.38-.55.92-1.37,1.17-2.25.27-.93.15-1.86-.34-2.54-.45-.63-1.16-.99-2-1.01h-.16c-.59.01-1.26.17-1.88.44-3.3,1.45-4.86,4.97-4.69,7.69Zm2.84-1.52c.02-1.86,1.54-3.55,3.46-3.84l.34-.05-.2.29c-.96,1.41-1.99,2.56-3.35,3.72l-.26.22v-.33Zm-13.14,124.84c-1.23-1.11-2.21-2.52-2.93-4.22-.2-.48-.25-1-.26-1.35-.03-1.42-.62-2.48-1.8-3.26-.42-.27-.87-.42-1.35-.44h-.1c-.43,0-.88.1-1.33.3-2.78,1.22-4.61,3.43-5.46,6.58-.11.41-.15.9-.1,1.5.1,1.5,1.15,2.59,2.54,2.64h.22c.52-.02,1.08-.14,1.68-.37.97-.36,1.91-1,2.96-2.02l.98-.88.43.57c.25.33.48.64.72.94.7.88,1.56,1.85,2.74,2.42.4.19.88.32,1.51.38h.04c.35,0,.65-.2.82-.54.24-.47.05-.85-.15-1.09-.35-.43-.73-.83-1.15-1.2Zm-5.92-6.14c-.5,2.24-1.98,3.91-3.87,4.36l-.19-.02v-.13c.05-.89.57-1.98,1.4-2.91.82-.93,1.75-1.48,2.49-1.48h.03l.17.06-.03.12Zm237.27-24.41h-.13c-.11,0-.22,0-.37.02-.28.03-.56.06-.83.11-.42.08-2.11.44-2.53.52-.16.03-.33.05-.53.06l-.55-.02.06-.16c.09-.21.16-.42.26-.69.28-.79.54-1.53,1.28-1.96.42-.24.66-.62.64-1.04-.01-.46-.32-.88-.8-1.1-.23-.11-.46-.17-.68-.18h-.11c-.51,0-.97.24-1.37.72-.53.62-1.01,1.37-1.58,2.41-.34.62-.64,1.3-.9,1.9-.12.28-.25.56-.37.85l-.03.07-.35.08c-.19.05-.37.09-.55.12-.35.06-.71.12-1.06.18-.72.12-1.44.24-2.16.39-.46.1-.93.29-1.33.55-.49.32-.75.98-.61,1.58.13.58.51.91,1.11.98h.1c.06.01.11.01.17.01.26,0,.52-.04.77-.07.56-.08,1.12-.18,1.77-.29l1.03-.11-.22,1.43c-.18,1.26-.16,2.3.06,3.25.46,1.93,1.75,3.15,3.45,3.26.09,0,.18,0,.26,0,.47,0,.97-.08,1.48-.25,1.73-.56,3.17-1.67,4.4-3.39.11-.15.19-.29.24-.42.12-.32.11-.62-.03-.85-.12-.19-.33-.29-.64-.32-.25,0-.56.08-.88.24-.5.24-.99.5-1.53.79-.3.16-.6.32-.9.47-.51.26-1.02.5-1.65.5-.05,0-.11,0-.16,0-.14,0-.28-.03-.5-.13-.87-1.38-.51-2.84-.17-4.25.08-.33.16-.67.23-1l.02-.09,1.12-.31c.31-.09.62-.17.94-.25.7-.18,1.43-.36,2.12-.61.7-.25,1.42-.62,2.12-1.09.62-.41.86-.91.67-1.39-.14-.35-.38-.52-.78-.55Zm-221.9-30.59c.36-.48.47-1.11.31-1.77-.12-.5-.43-.81-.83-.82-.22,0-.45.09-.67.26-.12.09-.23.2-.34.34-1.56,1.91-3.63,2.74-5.63,3.42-.16.05-.32.06-.53.08-.08,0-.17.01-.28.03l-.17-.04v-.11c0-1.96.71-3.65,1.42-5.28l.3-.57s.88-.28,1.1-.36l1.26-.43c1.09-.37,2.18-.73,3.26-1.14.91-.34,1.77-.74,2.53-1.17.41-.23.78-.62.98-1.01.19-.38.2-.79.01-1.1-.17-.3-.49-.47-.89-.48-.03,0-.06,0-.1,0-.21.02-.43.09-.63.16l-2.06.66c-.93.3-1.86.6-2.79.89-.15.05-.3.05-.47.05-.08,0-.18,0-.28,0l-.22-.06.71-1.43c.45-.89.87-1.74,1.28-2.6.19-.41.34-.88.42-1.35.09-.53-.11-.96-.57-1.22-.15-.09-.32-.13-.51-.14-.31,0-.61.14-.85.39-.27.27-.52.61-.72.96-1,1.76-1.99,3.52-2.97,5.29-.17.31-.33.62-.49.93l-.31.51-.24.09c-.17.06-.32.12-.48.15-1.1.23-6.88,1.43-6.88,1.43-.37.08-.76.16-1.11.31-.5.22-.78.67-.79,1.28-.01.6.25,1.01.77,1.2.31.11.63.22.95.22.04,0,.08,0,.11,0,1.48-.14,3.02-.35,4.39-.54.26-.04.52-.1.85-.18.13-.03.5-.12.67-.12.04,0,.07,0,.08.02l-.18.58c-.06.19-.1.33-.13.47-.07.31-.15.63-.22.94-.18.72-.36,1.47-.42,2.22-.1,1.3.21,2.38.87,3.11.56.61,1.34.94,2.26.96h.06c.39,0,.81-.06,1.28-.18.07-.02.14-.04.2-.06,2.06-.74,3.61-1.6,4.87-2.71.67-.59,1.27-1.34,1.81-2.07Zm8.35,25.84c.11-.39.21-.79.29-1.19.11-.55-.08-1.04-.48-1.26-.13-.07-.27-.11-.45-.12-.32,0-.64.17-.88.45-.26.32-.47.68-.6,1.03l-.45,1.25c-.46,1.27-.98,2.7-1.36,4.11-1.57,5.89-3.23,12.21-4.76,18.52-.85,3.51-1.5,7.05-2.14,10.48-.26,1.4-.29,2.83-.29,3.93,0,.97.57,1.68,1.38,1.71h.05s.09,0,.09,0c.88-.05,1.54-.84,1.61-1.92v-.19c.03-.26.04-.51.09-.76.1-.6.2-1.2.31-1.86.25-1.52.53-3.24.86-4.87.71-3.49,1.46-6.98,2.12-10.06l.7-3.29,3.76-15.33c.05-.19.09-.37.17-.64Zm13.39,22.68c-.06,0-.12,0-.18,0-.44.04-.85.12-1.23.23-.61.19-1.21.39-1.87.62l-1.99.6v-.15c.08-.72.31-1.33.75-1.98.29-.43.38-.85.24-1.19-.13-.32-.46-.55-.93-.62-.07-.01-.14-.02-.27-.02-.46,0-.86.22-1.15.65-.38.55-.7,1.12-.96,1.7-.27.62-.5,1.25-.75,1.92l-.38.97-.46.15c-.21.07-.4.13-.6.19l-1.75.52c-1.2.36-2.4.71-3.6,1.09-.6.19-1.1.43-1.49.71-.5.36-.71,1.07-.5,1.7.18.51.6.82,1.21.84.06,0,.12,0,.19,0,.12-.01.24-.04.37-.07l4.62-1.18,1.17-.24v.5c0,.23,0,.43.03.63l.06.5c.05.48.1.97.24,1.41.46,1.46,1.47,2.33,2.79,2.38h.11c.46,0,.94-.1,1.42-.3,1.35-.55,2.47-1.34,3.35-2.34.49-.56.87-1.23,1.25-1.89l.05-.08c.18-.33.14-.7-.12-.98-.15-.16-.32-.25-.54-.25-.12,0-.25.03-.38.09-.23.11-.46.25-.69.4l-1.04.67c-.59.39-1.19.77-1.8,1.13-.26.15-.53.24-.87.34-.12.04-.25.08-.38.12h-.15s-.04-.08-.04-.08c-.5-1.19-.34-2.25-.13-3.33l.02-.08.41-.19c.12-.06.24-.11.36-.16.46-.2.93-.4,1.45-.62,1.06-.45,2.11-.9,3.15-1.38.51-.24,1.03-.59,1.55-1.04.38-.33.52-.8.35-1.26-.14-.39-.42-.59-.95-.61Z"/>
  </g>
</svg>