<?xml version="1.0" encoding="UTF-8"?>
<svg xmlns="http://www.w3.org/2000/svg" viewBox="0 0 440 310">
  <defs>
    <style>
      .cls-1 {
        isolation: isolate;
        opacity: .1;
      }

      .cls-1, .cls-2, .cls-3, .cls-4, .cls-5, .cls-6, .cls-7, .cls-8 {
        stroke-width: 0px;
      }

      .cls-1, .cls-6 {
        fill: #e4d2b1;
      }

      .cls-2 {
        fill: none;
      }

      .cls-3 {
        fill: #262626;
      }

      .cls-4 {
        fill: #fff;
      }

      .cls-5 {
        fill: #e9dbc1;
      }

      .cls-7 {
        fill: #e66751;
      }

      .cls-8 {
        fill: #e76751;
      }
    </style>
  </defs>
  <g id="board">
    <rect class="cls-2" x="0" width="440" height="310"/>
  </g>
  <g id="map">
    <path class="cls-7" d="m388.49,49.12c.4-.03.77-.2,1.03-.51,1.58-1.87,3.18-3.71,4.69-5.63.29-.37.73-.58,1.2-.55,1.18.06,2.46.18,3.63-.19.21-.07.41-.2.57-.35.64-.63,1.19-1.34,1.77-2.03.19-.22.38-.45.59-.7h-.22c-3.71,0-7.42,0-11.12,0-.73,0-1.47.06-2.15.34-.2.08-.37.22-.51.38-1.56,1.79-3.07,3.62-4.59,5.44-.24.29-.59.48-.97.52-1.34.15-2.77-.17-4.09.4-.19.08-.35.21-.49.36-.73.82-1.43,1.67-2.14,2.52-.02.03-.04.06-.06.1h.19c3.79,0,7.58,0,11.37,0,.44,0,.88-.07,1.3-.1Zm21.17-2.7c-3.71,0-7.42,0-11.12,0-.73,0-1.47.06-2.15.34-.2.08-.37.22-.51.38-1.56,1.79-3.07,3.62-4.59,5.44-.24.29-.59.48-.97.52-1.34.15-2.77-.17-4.09.4-.19.08-.35.21-.49.36-.73.82-1.43,1.67-2.14,2.52-.02.03-.04.06-.06.1h.19c3.79,0,7.58,0,11.37,0,.44,0,.88-.07,1.3-.1.4-.03.77-.2,1.03-.51,1.58-1.87,3.18-3.71,4.69-5.63.29-.37.73-.58,1.2-.55,1.18.06,2.46.18,3.63-.19.21-.07.41-.2.57-.35.64-.63,1.19-1.34,1.77-2.03.19-.22.38-.45.59-.7h-.22Z"/>
    <path class="cls-1" d="m225.05,61.44l6.54,6.54,6.54,6.54,6.54,6.54,6.54,6.54,6.54,6.54,6.54,6.54,6.54,6.54,6.54,6.54,6.54,6.54,1.82,1.82-.03-2.53-.54-.54-6.54-6.54-6.54-6.54-6.54-6.54-6.54-6.54-6.54-6.54-6.54-6.54-6.54-6.54-6.54-6.54-6.54-6.54-6.54-6.54-.23-.23-2.69-.19,1.67,1.67,6.54,6.54Zm-23.26-2.91l6.54,6.54,6.54,6.54,6.54,6.54,6.54,6.54,6.54,6.54,6.54,6.54,6.54,6.54,6.54,6.54,6.54,6.54,6.54,6.54,6.54,6.54,6.54,6.54,5.69,5.69-.03-2.53-4.41-4.41-6.54-6.54-6.54-6.54-6.54-6.54-6.54-6.54-6.54-6.54-6.54-6.54-6.54-6.54-6.54-6.54-6.54-6.54-6.54-6.54-6.54-6.54-6.54-6.54-5.41-5.41-2.69-.19.31.31,6.54,6.54h0Zm19.75,6.42l6.54,6.54,6.54,6.54,6.54,6.54,6.54,6.54,6.54,6.54,6.54,6.54,6.54,6.54,6.54,6.54,6.54,6.54,5.41,5.41-.03-2.53-4.13-4.13-6.54-6.54-6.54-6.54-6.54-6.54-6.54-6.54-6.54-6.54-6.54-6.54-6.54-6.54-6.54-6.54-6.54-6.54-6.54-6.54-4.27-4.27-2.69-.19,5.71,5.71,6.54,6.54h0Zm-22.91-3.26l6.54,6.54,6.54,6.54,6.54,6.54,6.54,6.54,6.54,6.54,6.54,6.54,6.54,6.54,6.54,6.54,6.54,6.54,6.54,6.54,6.54,6.54,6.54,6.54,6.54,6.54,2.39,2.39-.03-2.53-1.11-1.11-6.54-6.54-6.54-6.54-6.54-6.54-6.54-6.54-6.54-6.54-6.54-6.54-6.54-6.54-6.54-6.54-6.54-6.54-6.54-6.54-6.54-6.54-6.54-6.54-6.54-6.54-6.54-6.54-2.51-2.51-2.69-.19,3.95,3.95,6.54,6.54h0Zm-13.34,13.34l6.54,6.54,6.54,6.54,6.54,6.54,6.54,6.54,6.54,6.54,6.54,6.54,6.54,6.54,6.54,6.54,6.54,6.54,6.54,6.54,6.54,6.54,6.54,6.54,6.54,6.54,6.54,6.54,6.54,6.54,2.95,2.95-.03-2.53-1.67-1.67-6.54-6.54-6.54-6.54-6.54-6.54-6.54-6.54-6.54-6.54-6.54-6.54-6.54-6.54-6.54-6.54-6.54-6.54-6.54-6.54-6.54-6.54-6.54-6.54-6.54-6.54-6.54-6.54-6.54-6.54-6.54-6.54-5.19-5.19-.31,2.19,4.25,4.25,6.54,6.54h0Zm-3.38-9.7l6.54,6.54,6.54,6.54,6.54,6.54,6.54,6.54,6.54,6.54,6.54,6.54,6.54,6.54,6.54,6.54,6.54,6.54,6.54,6.54,6.54,6.54,6.54,6.54,6.54,6.54,6.54,6.54,6.54,6.54,6.26,6.26-.03-2.53-4.98-4.98-6.54-6.54-6.54-6.54-6.54-6.54-6.54-6.54-6.54-6.54-6.54-6.54-6.54-6.54-6.54-6.54-6.54-6.54-6.54-6.54-6.54-6.54-6.54-6.54-6.54-6.54-6.54-6.54-6.54-6.54-6.54-6.54-1.02-1.02-.31,2.19.08.08,6.54,6.54h0Zm6.67-6.67l6.54,6.54,6.54,6.54,6.54,6.54,6.54,6.54,6.54,6.54,6.54,6.54,6.54,6.54,6.54,6.54,6.54,6.54,6.54,6.54,6.54,6.54,6.54,6.54,6.54,6.54,6.54,6.54,5.98,5.98-.03-2.53-4.7-4.7-6.54-6.54-6.54-6.54-6.54-6.54-6.54-6.54-6.54-6.54-6.54-6.54-6.54-6.54-6.54-6.54-6.54-6.54-6.54-6.54-6.54-6.54-6.54-6.54-6.54-6.54-6.54-6.54-6.54-6.54h0l-2.69-.2,1.45,1.45,6.54,6.54h-.01Zm-3.16,3.16l6.54,6.54,6.54,6.54,6.54,6.54,6.54,6.54,6.54,6.54,6.54,6.54,6.54,6.54,6.54,6.54,6.54,6.54,6.54,6.54,6.54,6.54,6.54,6.54,6.54,6.54,6.54,6.54,6.54,6.54,2.67,2.67-.03-2.53-1.39-1.39-6.54-6.54-6.54-6.54-6.54-6.54-6.54-6.54-6.54-6.54-6.54-6.54-6.54-6.54-6.54-6.54-6.54-6.54-6.54-6.54-6.54-6.54-6.54-6.54-6.54-6.54-6.54-6.54-6.54-6.54-6.54-6.54-3.65-3.65-.31,2.19,2.71,2.71,6.54,6.54h0Zm26.42-.25l6.54,6.54,6.54,6.54,6.54,6.54,6.54,6.54,6.54,6.54,6.54,6.54,6.54,6.54,6.54,6.54,6.54,6.54,6.54,6.54,6.54,6.54,2.1,2.1-.03-2.53-.82-.82-6.54-6.54-6.54-6.54-6.54-6.54-6.54-6.54-6.54-6.54-6.54-6.54-6.54-6.54-6.54-6.54-6.54-6.54-6.54-6.54-6.54-6.54-6.54-6.54-1.37-1.37-2.69-.19,2.81,2.81,6.54,6.54h0Zm72.59,5.92l.68-.68v-1.16l-5.97-5.95-2.21-2.21-2.69-.19,3.65,3.65,6.54,6.54Zm-10.05-3.04l6.54,6.54,4.28,4.28-.03-2.53-3-3-6.54-6.54-6.25-6.25-2.69-.19,1.15,1.15,6.54,6.54Zm10.67-2.67l-.03-2.53-1.29-1.29-2.69-.19h.01l4,4.01Zm-13.83,5.83l6.54,6.54,6.54,6.54.95-.95v-.6l-6.24-6.24-6.54-6.54-6.54-6.54-3.35-3.35-2.69-.19,4.79,4.79,6.54,6.54h0Zm-32.96-6.29l6.54,6.54,6.54,6.54,6.54,6.54,6.54,6.54,6.54,6.54,6.54,6.54,6.54,6.54,1.54,1.54-.03-2.53-.26-.26-6.54-6.54-6.54-6.54-6.54-6.54-6.54-6.54-6.54-6.54-6.54-6.54-6.54-6.54-5.63-5.63-2.69-.19.53.53,6.54,6.54h0Zm9.7,3.38l6.54,6.54,6.54,6.54,6.54,6.54,6.54,6.54,6.54,6.54,4.85,4.85-.03-2.53-3.57-3.57-6.54-6.54-6.54-6.54-6.54-6.54-6.54-6.54-6.54-6.54-6.54-6.54-1.99-1.99-2.69-.19,3.43,3.43,6.54,6.54Zm-13.21.13l6.54,6.54,6.54,6.54,6.54,6.54,6.54,6.54,6.54,6.54,6.54,6.54,6.54,6.54,5.13,5.13-.03-2.53-3.85-3.85-6.54-6.54-6.54-6.54-6.54-6.54-6.54-6.54-6.54-6.54-6.54-6.54-6.54-6.54-6.54-6.54-3.13-3.13-2.69-.19,4.57,4.57,6.54,6.54Zm26.42-.25l6.54,6.54,6.54,6.54,6.54,6.54,4.56,4.56-.03-2.53-3.28-3.28-6.54-6.54-6.54-6.54-6.54-6.54-6.54-6.54-.85-.85-2.69-.19,2.29,2.29,6.54,6.54Zm-3.16,3.16l6.54,6.54,6.54,6.54,6.54,6.54,6.54,6.54,1.26,1.26-.03-2.53-6.52-6.52-6.54-6.54-6.54-6.54-6.54-6.54-6.54-6.54-4.49-4.49-2.69-.19,5.93,5.93,6.54,6.54h0Zm-76.23,10.8l6.54,6.54,6.54,6.54,6.54,6.54,6.54,6.54,6.54,6.54,6.54,6.54,6.54,6.54,6.54,6.54,6.54,6.54,6.54,6.54,6.54,6.54,6.54,6.54,6.54,6.54,6.54,6.54,6.54,6.54,6.54,6.54-.03-2.53-5.26-5.26-6.54-6.54-6.54-6.54-6.54-6.54-6.54-6.54-6.54-6.54-6.54-6.54-6.54-6.54-6.54-6.54-6.54-6.54-6.54-6.54-6.54-6.54-6.54-6.54-6.54-6.54-6.54-6.54-6.54-6.54-6.54-6.54-2.56-2.56-.31,2.19,1.62,1.62s6.54,6.54,6.54,6.54Zm59.76,97.26l-6.54-6.54-6.54-6.54-6.54-6.54-6.54-6.54-6.54-6.54-6.54-6.54-6.54-6.54-6.54-6.54-6.54-6.54-6.54-6.54-6.54-6.54-.64-.64-.31,2.19,6.24,6.24,6.54,6.54,6.54,6.54,6.54,6.54,6.54,6.54,6.54,6.54,6.54,6.54,6.54,6.54,6.54,6.54,6.54,6.54,6.54,6.54,6.46,6.46,2.48-.02-1.15-1.15-6.54-6.54h0Zm3.51-3.51l-6.54-6.54-6.54-6.54-6.54-6.54-6.54-6.54-6.54-6.54-6.54-6.54-6.54-6.54-6.54-6.54-6.54-6.54-6.54-6.54-6.54-6.54-3.27-3.27-.31,2.19,2.33,2.33,6.54,6.54,6.54,6.54,6.54,6.54,6.54,6.54,6.54,6.54,6.54,6.54,6.54,6.54,6.54,6.54,6.54,6.54,6.54,6.54,6.54,6.54,6.54,6.54,3.37,3.37,2.48-.02-4.61-4.61-6.54-6.54h.01Zm-13.21.13l-6.54-6.54-6.54-6.54-6.54-6.54-6.54-6.54-6.54-6.54-6.54-6.54-6.54-6.54-6.54-6.54-6.54-6.54-4.81-4.81-.31,2.19,3.87,3.87,6.54,6.54,6.54,6.54,6.54,6.54,6.54,6.54,6.54,6.54,6.54,6.54,6.54,6.54,6.54,6.54,6.54,6.54,6.54,6.54,3.35,3.35,2.48-.02-4.58-4.58-6.54-6.54Zm-3.51,3.51l-6.54-6.54-6.54-6.54-6.54-6.54-6.54-6.54-6.54-6.54-6.54-6.54-6.54-6.54-6.54-6.54-6.54-6.54-2.18-2.18-.31,2.19,1.24,1.24,6.54,6.54,6.54,6.54,6.54,6.54,6.54,6.54,6.54,6.54,6.54,6.54,6.54,6.54,6.54,6.54,6.54,6.54,6.43,6.43,2.48-.02-1.12-1.12-6.54-6.54h0Zm39.63-.38l-6.54-6.54-6.54-6.54-6.54-6.54-6.54-6.54-6.54-6.54-6.54-6.54-6.54-6.54-6.54-6.54-6.54-6.54-6.54-6.54-6.54-6.54-6.54-6.54-6.54-6.54-6.54-6.54-4.1-4.1-.31,2.19,3.16,3.16,6.54,6.54,6.54,6.54,6.54,6.54,6.54,6.54,6.54,6.54,6.54,6.54,6.54,6.54,6.54,6.54,6.54,6.54,6.54,6.54,6.54,6.54,6.54,6.54,6.54,6.54,6.54,6.54,6.52,6.52,2.48-.02-1.21-1.21-6.54-6.54Zm3.51-3.51l-6.54-6.54-6.54-6.54-6.54-6.54-6.54-6.54-6.54-6.54-6.54-6.54-6.54-6.54-6.54-6.54-6.54-6.54-6.54-6.54-6.54-6.54-6.54-6.54-6.54-6.54-6.54-6.54-6.54-6.54-.19-.19-.31,2.19,5.79,5.79,6.54,6.54,6.54,6.54,6.54,6.54,6.54,6.54,6.54,6.54,6.54,6.54,6.54,6.54,6.54,6.54,6.54,6.54,6.54,6.54,6.54,6.54,6.54,6.54,6.54,6.54,6.54,6.54,6.54,6.54,3.43,3.43,2.48-.02-4.66-4.66-6.54-6.54h0Zm-52.84.5l-6.54-6.54-6.54-6.54-6.54-6.54-6.54-6.54-6.54-6.54-6.54-6.54-6.54-6.54-6.35-6.35-.31,2.19,5.41,5.41,6.54,6.54,6.54,6.54,6.54,6.54,6.54,6.54,6.54,6.54,6.54,6.54,6.54,6.54,6.54,6.54,3.32,3.32,2.48-.02-4.55-4.55-6.54-6.54Zm39.63-.38l-6.54-6.54-6.54-6.54-6.54-6.54-6.54-6.54-6.54-6.54-6.54-6.54-6.54-6.54-6.54-6.54-6.54-6.54-6.54-6.54-6.54-6.54-6.54-6.54-6.54-6.54-1.73-1.73-.31,2.19.79.79,6.54,6.54,6.54,6.54,6.54,6.54,6.54,6.54,6.54,6.54,6.54,6.54,6.54,6.54,6.54,6.54,6.54,6.54,6.54,6.54,6.54,6.54,6.54,6.54,6.54,6.54,6.54,6.54,3.4,3.4,2.48-.02-4.63-4.63-6.54-6.54h0Zm-3.51,3.51l-6.54-6.54-6.54-6.54-6.54-6.54-6.54-6.54-6.54-6.54-6.54-6.54-6.54-6.54-6.54-6.54-6.54-6.54-6.54-6.54-6.54-6.54-6.54-6.54-5.64-5.64-.31,2.19,4.7,4.7,6.54,6.54,6.54,6.54,6.54,6.54,6.54,6.54,6.54,6.54,6.54,6.54,6.54,6.54,6.54,6.54,6.54,6.54,6.54,6.54,6.54,6.54,6.54,6.54,6.49,6.49,2.48-.02-1.18-1.18-6.54-6.54h0Zm-88.97-2.63l-5.97-5.97-.31,2.19,5.03,5.03,6.54,6.54,1.61,1.61,2.63.13-2.99-2.99-6.54-6.54Zm3.16-3.16l-6.54-6.54-1.8-1.8-.31,2.19.86.86,6.54,6.54,6.54,6.54,5.09,5.09,2.63.13-6.47-6.47-6.54-6.54Zm-10.79,8.86l-.31,2.19.03.03.81.81,2.63.13-2.19-2.19-.97-.97Zm.79-5.53l-.31,2.19,2.4,2.4,4.29,4.29,2.63.13-5.67-5.67-3.34-3.34Zm20.05-.3l-6.54-6.54-6.54-6.54-4.43-4.43-.31,2.19,3.49,3.49,6.54,6.54,6.54,6.54,6.54,6.54,2.41,2.41,2.63.13-3.79-3.79-6.54-6.54h0Zm9.7,3.38l-6.54-6.54-6.54-6.54-6.54-6.54-6.54-6.54-.26-.26-.31,2.19,5.86,5.86,6.54,6.54,6.54,6.54,6.54,6.54,5.89,5.89,2.63.13-.73-.73-6.54-6.54h0Zm13.21-.13l-6.54-6.54-6.54-6.54-6.54-6.54-6.54-6.54-6.54-6.54-5.26-5.26-.31,2.19,4.32,4.32,6.54,6.54,6.54,6.54,6.54,6.54,6.54,6.54,6.54,6.54,6.38,6.38,2.48-.02-1.07-1.07-6.54-6.54h0Zm13.21-.13l-6.54-6.54-6.54-6.54-6.54-6.54-6.54-6.54-6.54-6.54-6.54-6.54-6.54-6.54-3.72-3.72-.31,2.19,2.78,2.78,6.54,6.54,6.54,6.54,6.54,6.54,6.54,6.54,6.54,6.54,6.54,6.54,6.54,6.54,6.41,6.41,2.48-.02-1.1-1.1-6.54-6.54Zm-9.7-3.38l-6.54-6.54-6.54-6.54-6.54-6.54-6.54-6.54-6.54-6.54-6.54-6.54-1.35-1.35-.31,2.19.41.41,6.54,6.54,6.54,6.54,6.54,6.54,6.54,6.54,6.54,6.54,6.54,6.54,6.54,6.54,3.29,3.29,2.48-.02-4.52-4.52-6.54-6.54h0Zm-13.21.13l-6.54-6.54-6.54-6.54-6.54-6.54-6.54-6.54-2.89-2.89-.31,2.19,1.95,1.95,6.54,6.54,6.54,6.54,6.54,6.54,6.54,6.54,6.54,6.54,3.21,3.21.95.05h1.59l-4.5-4.51-6.54-6.54h0Z"/>
    <path class="cls-6" d="m328.95,59.44l-195.16-19.2c-18.49-1.83-35.7,10.43-40.05,28.48l-35.78,148.57c-2.7,11.22-.16,22.86,6.99,31.92,7.14,9.07,17.86,14.27,29.4,14.27h230.94c20.64,0,37.43-16.79,37.43-37.43V96.69c0-19.34-14.51-35.35-33.76-37.25Zm-148.08-8.54l102.21,10.05s0,.02,0,.03v118.5c0,.09.02.18.03.26h-76.34c-11.94,0-24.03-.63-35.92-1.86l-8.47-.88,18.49-125.92c0-.06,0-.12,0-.18Zm-81.3,19.23c3.65-15.16,18.11-25.45,33.63-23.92l41.71,4.1-18.5,125.96s0,.08,0,.11l-80.41-8.36,23.58-97.89Zm99.43,187.35h-104.65c-9.69,0-18.69-4.37-24.69-11.98-6-7.61-8.14-17.38-5.87-26.81l10.79-44.79,95.64,9.95c9.53.99,19.18,1.59,28.78,1.8v71.82Zm157.71-31.43c0,17.33-14.1,31.43-31.43,31.43h-120.29v-71.74c.59,0,1.17.01,1.76.01h149.95v40.3Zm0-46.3h-67.66c0-.09.03-.17.03-.26V61.55l39.29,3.86c16.16,1.59,28.35,15.04,28.35,31.28v83.06Z"/>
    <path class="cls-6" d="m136.73,24.46l6.8.56.08-1.03-6.79-.56-.09,1.03Zm-.16,1.97l6.8.56.08-1.03-6.8-.56-.08,1.03Zm-1.29-7.36c-.85,1.97-2.14,3.91-3.46,5.12.19.31.49,1.01.6,1.3.43-.43.88-.91,1.3-1.47l-.64,7.73,1.19.1.81-9.8c.49-.82.96-1.69,1.35-2.54l-1.14-.44Zm.64,12.88l1.1.09.04-.5,4.9.4-.04.46,1.14.09.37-4.48-7.14-.59-.37,4.52Zm1.39-3.38l4.9.4-.16,1.93-4.9-.4.16-1.93Zm4-7.24c-.17-.52-.52-1.31-.86-1.9l-1.15.34c.3.59.63,1.37.79,1.89l-4.09-.34-.09,1.06,8.85.73.09-1.06-4.58-.38,1.04-.35Zm55.91,4.76l-9.96-.82-.12,1.41,9.96.82.12-1.41Zm18.01,6.05l-.77-.34-.24.02-4.98-.41-.09,1.1,1.15.09-.7.13c.33,1.12.82,2.13,1.47,3-.95.57-2.04.93-3.25,1.11.23.29.49.81.58,1.17,1.3-.27,2.49-.69,3.53-1.35.79.75,1.75,1.38,2.9,1.8.21-.32.61-.81.9-1.04-1.1-.34-2.05-.86-2.81-1.51,1-.92,1.79-2.14,2.33-3.77Zm-4.54.5l2.92.24c-.41.87-.95,1.58-1.6,2.16-.59-.71-1.04-1.52-1.32-2.4Zm-2.07,1.08c-1.1.08-2.2.14-3.22.19l.14-1.74,2.96.24.09-1.14-2.96-.24.14-1.69,2.97.25.09-1.13-2.97-.24.1-1.26c1.21-.24,2.53-.54,3.56-.91l-.94-1.06c-.93.4-2.44.84-3.77,1.11l-.04-.02-.65,7.91-1.14.06.09,1.24.95-.08-.18,2.13,1.26.1.19-2.33c1.04-.08,2.18-.17,3.28-.26l.04-1.12Zm7.48-3.66c-.19.04-.5.04-.68.03l-.81-.07c-.18-.01-.21-.14-.18-.52l.28-3.39-4.09-.34-.14,1.67c-.08,1-.35,2.18-1.77,2.96.22.19.68.66.84.91,1.59-.89,2.03-2.46,2.13-3.74l.05-.59,1.7.14-.19,2.26c-.09,1.07.08,1.54,1.17,1.63l.92.08c.29.02.58.05.76,0-.02-.28-.01-.72,0-1.03Zm-53.88-.9l-1.47-.12.81-.75c-.47-.47-1.42-1.06-2.19-1.42l-.79.69c.77.4,1.7,1.02,2.14,1.47l-2.79-.23c-.09-.61-.12-1.26-.09-1.95l-1.25-.1c-.01.67.01,1.34.09,1.95l-2.75-.23.08-.91c.78-.05,1.51-.1,2.14-.2l-.7-.84c-1.25.21-3.45.26-5.3.21.11.23.19.61.21.83.76.03,1.57.04,2.39.03l-.07.78-2.84-.23-.08.99,2.85.23-.07.84c-1.11,0-2.12-.03-2.92-.06l.03,1.01h2.81s-.08.91-.08.91c-.02.2-.08.25-.3.23-.18,0-.92-.06-1.62-.16.12.3.25.74.29,1.05,1.05.09,1.73.13,2.19.01.47-.1.63-.37.69-1l.08-1.05c.76,0,1.55,0,2.32,0l.07-.91c-.77,0-1.56-.02-2.32-.02l.06-.75,3,.25c.15.7.37,1.35.64,1.91-.96.38-2.03.65-3.08.8.2.26.48.83.58,1.09,1.03-.22,2.1-.54,3.07-.96.62.82,1.44,1.34,2.38,1.42.98.08,1.41-.25,1.73-1.74-.31-.11-.7-.35-.93-.58-.14.89-.27,1.17-.63,1.14-.52-.03-1-.32-1.42-.81.74-.42,1.39-.9,1.9-1.47l-1.07-.47c-.37.41-.85.76-1.41,1.06-.19-.38-.35-.82-.47-1.29l3.99.33.08-.99Zm-5.27-4.31l4.19.35.08-.94-4.19-.34.06-.71,4.93.41.08-.98-2.67-.22c.28-.3.58-.67.89-1.05l-1.38-.42c-.2.39-.57.96-.86,1.36l-3.1-.25.07-.02c-.13-.4-.45-1.02-.81-1.44l-1.16.28c.23.33.45.72.58,1.07l-2.68-.22-.08.98,4.86.4-.06.71-4.12-.34-.08.93,4.12.34-.06.71-5.47-.45-.08,1.02,12.32,1.01.08-1.02-5.53-.45.06-.71Zm22.96-.46l-.79-.42-.23.04-2.37-.19c.18-.34.35-.69.51-1.04l-1.23-.41c-.62,1.56-1.62,3-2.75,3.93l.29-3.57-4.61-.38-.36,4.38,1.94.16-.45,5.44-.94.13.37-4.48-1.06-.09-.39,4.7c-.24.02-.47.05-.68.07l.12,1.27c1.54-.23,3.6-.55,5.55-.88l-.03-1.15-1.76.26.18-2.2,1.63.13h0c.12.19.25.41.32.59.22-.07.42-.15.64-.23l-.38,4.56,1.19.1.04-.49,3.11.26-.04.45,1.24.1.38-4.54.27.13c.19-.31.61-.79.88-1.01-1.15-.52-2.1-1.24-2.89-2.08.95-.96,1.75-2.15,2.3-3.56Zm-4,.48l2.33.19c-.38.71-.86,1.36-1.41,1.94-.45-.63-.79-1.26-1.07-1.89l.15-.24Zm-6.32.83l.18-2.15,2.27.19-.18,2.15-2.28-.19Zm3.31,3.83l.05-.57-1.63-.13.15-1.84,1.51.12.05-.63c.27.25.65.62.83.84.39-.35.81-.76,1.18-1.22.26.56.57,1.13.97,1.69-.95.79-2.02,1.38-3.11,1.74Zm4.96,4.24l-3.11-.26.19-2.32,3.11.26-.19,2.32Zm.67-3.39l-3.85-.32c.72-.35,1.41-.8,2.05-1.32.51.59,1.11,1.16,1.8,1.64Zm6.77,4.38l12.28,1.01.12-1.48-12.28-1.01-.12,1.48Z"/>
    <path class="cls-6" d="m67.33,113.06c.02-.92-.29-2.46-.65-3.67l-1.08.25c.33,1.21.57,2.79.54,3.73l1.18-.31Zm-24.26,75.38c-1.1-.1-2.2-.22-3.21-.35l.43-1.7,2.88.73.28-1.11-2.88-.73.42-1.64,2.89.73.28-1.1-2.89-.73.31-1.22c1.24-.03,2.59-.11,3.66-.32l-.75-1.2c-.99.24-2.55.42-3.9.47l-.04-.02-1.95,7.7-1.14-.13-.11,1.24.95.08-.53,2.08,1.22.31.57-2.27c1.05.09,2.18.19,3.28.28l.22-1.1Zm18.54-79.25l1.06-4.21-1.25-.31-1.06,4.21c-.2.79-.43,1.58-.74,2.35,0-.89-.13-2.42-.31-3.62l-1.12.16c.18,1.23.27,2.83.21,3.75l1.2-.22c-.64,1.6-1.66,3.06-3.43,3.99.22.29.55.85.65,1.2,3.04-1.57,4.1-4.51,4.81-7.31Zm10.63-19.99c-.03-.58-.21-1.5-.38-2.22l-1.28.04c.16.72.31,1.68.33,2.28l1.33-.1Zm-9.87,27.75l1.24.31,2.79-11.03-1.24-.31-2.79,11.03Zm1.63-24.99l-1.52,6.03,1.17.29,1.61-6.37c.25.77.5,1.64.61,2.16l1.03-.87c-.17-.46-.9-2.31-1.21-2.97l.12-.49,1.33.34.3-1.17-1.33-.34.7-2.77-1.17-.3-.7,2.77-1.85-.47-.3,1.17,1.77.45c-.84,1.54-2.1,3.17-3.2,3.93.12.38.27.99.29,1.37.76-.62,1.61-1.63,2.37-2.78Zm-14.15,96.01l-.71-.47-.24-.02-4.85-1.22-.27,1.07,1.11.28h-.71c.14,1.17.46,2.25.95,3.21-1.03.4-2.17.58-3.39.56.18.32.36.88.38,1.25,1.33-.05,2.57-.27,3.7-.75.66.87,1.5,1.65,2.57,2.25.26-.28.74-.69,1.06-.87-1.02-.52-1.88-1.18-2.53-1.95,1.14-.74,2.12-1.82,2.92-3.33Zm-3.65,2.33c-.46-.8-.78-1.67-.91-2.58l2.84.72c-.55.79-1.19,1.4-1.93,1.87Zm17.04-78.04c.08-.93-.07-2.47-.29-3.7l-1.12.15c.2,1.25.31,2.84.2,3.76l1.21-.21Zm9.69-15.21c-.2.77-.36,1.38-.46,1.65-.09.25-.17.38-.24.42-.07.04-.18.03-.27,0l-.31-.08c-.1-.02-.16-.05-.2-.12-.04-.07,0-.26.08-.59l1.49-5.89-4.71-1.19-.62,2.44c-.36,1.44-1.05,3.14-3.31,3.87.2.25.51.88.6,1.19,2.54-.83,3.51-2.98,3.95-4.72l.33-1.29,2.21.56-1.19,4.71c-.24.96-.22,1.26-.06,1.53.17.26.5.44.78.51l.72.18c.29.07.6.09.84,0,.22-.07.41-.24.58-.56.16-.3.42-1.16.62-1.88-.29-.17-.63-.48-.82-.74Zm-11.79,27.39l-1.35-.49c-.11.38-.25.8-.4,1.24l-5.32-1.35-.3,1.18,5.2,1.31c-.15.42-.33.84-.46,1.2l-4.41-1.12-2.21,8.76,1.26.32,1.92-7.59,8.06,2.04-1.58,6.23c-.05.22-.14.27-.38.21-.23-.04-1.07-.24-1.83-.48.1.34.17.87.17,1.2,1.07.27,1.86.47,2.38.4.52-.06.78-.33.95-1l1.87-7.4-4.98-1.26c.17-.36.34-.77.5-1.19l5.41,1.37.3-1.18-5.23-1.32c.15-.37.3-.73.44-1.09Zm4.96-5.74l1.26.32,3.06-12.12-1.26-.32-3.06,12.12Zm1.84-30.14l-.3,1.2,7.36,1.86.3-1.2-7.36-1.86Zm-7.37,57.24l-.71-.54h-.23l-2.31-.58c.23-.3.46-.62.67-.94l-1.15-.61c-.87,1.44-2.1,2.69-3.37,3.42l.88-3.48-4.48-1.13-1.08,4.26,1.89.48-1.34,5.3-.95-.02,1.1-4.36-1.03-.26-1.16,4.58c-.24-.02-.47-.03-.68-.04l-.09,1.28c1.55.03,3.64.05,5.62.05l.16-1.15-1.78-.03.54-2.15,1.59.4h0c.09.21.17.45.21.63.22-.03.44-.08.67-.12l-1.12,4.44,1.15.29.12-.48,3.03.77-.11.43,1.21.3,1.12-4.41.24.18c.24-.27.74-.68,1.04-.85-1.05-.7-1.87-1.57-2.51-2.53,1.1-.79,2.08-1.83,2.86-3.13Zm-10.4-.4l.53-2.09,2.21.56-.53,2.09-2.21-.56Zm2.63,4.32l.14-.56-1.59-.4.45-1.79,1.47.37.15-.61c.23.29.54.71.68.97.45-.28.92-.62,1.37-1.01.17.59.38,1.21.68,1.83-1.07.62-2.22,1.03-3.35,1.2Zm4.2,5l-3.03-.77.57-2.25,3.03.77-.57,2.25Zm1.22-3.23l-3.75-.95c.76-.22,1.53-.55,2.24-.96.41.67.91,1.33,1.51,1.91Zm-1.12-3.62c-.34-.69-.58-1.37-.74-2.04l.19-.21,2.27.57c-.49.64-1.07,1.2-1.71,1.68Zm-11.93,15.73l9.7,2.45.35-1.37-9.7-2.45-.35,1.37Zm9.54-31.48l-.26,1.02,2.73.69-.56,2.23,1.19.3.56-2.23,2.83.71.26-1.02-2.83-.71.29-1.17,2.57.65.25-.99-1.29-.33c.35-.42.72-.9,1.08-1.37l-1.08-.55c-.27.48-.74,1.16-1.11,1.64l-2.23-.56.78-.04c-.02-.45-.14-1.18-.32-1.73h-1.06c.15.52.26,1.2.26,1.68l-1.25-.32-.25.99,2.45.62-.3,1.17-2.73-.69Zm-12.68,39.16l11.95,3.02.36-1.44-11.95-3.02-.36,1.44Zm7.56,14.49c-.18-.04-.19-.18-.09-.54l.83-3.3-3.98-1.01-.41,1.63c-.25.98-.7,2.09-2.24,2.63.19.22.56.76.68,1.04,1.72-.62,2.41-2.09,2.72-3.34l.14-.57,1.66.42-.56,2.2c-.26,1.05-.17,1.53.89,1.8l.9.23c.29.07.57.14.75.12.03-.28.11-.71.17-1.01-.19,0-.5-.04-.67-.08l-.79-.2Z"/>
    <path class="cls-6" d="m375.57,176.49v1.41h10v-1.41h-10Zm10.52,23.87l-.8-.28-.24.04h-5v1.11h1.15l-.69.18c.42,1.09.99,2.06,1.71,2.87-.9.64-1.96,1.09-3.15,1.37.25.27.56.77.67,1.12,1.27-.38,2.42-.9,3.4-1.64.85.69,1.86,1.23,3.04,1.55.18-.34.55-.85.81-1.11-1.12-.25-2.12-.69-2.93-1.27.92-.99,1.61-2.28,2.02-3.95Zm-2.97,3.15c-.64-.66-1.16-1.43-1.51-2.28h2.93c-.34.9-.81,1.65-1.41,2.28Zm-3.49-1.04c-1.09.17-2.18.32-3.19.45v-1.75h2.97v-1.15h-2.97v-1.7h2.98v-1.13h-2.98v-1.26c1.19-.34,2.48-.74,3.47-1.2l-1.02-.98c-.9.48-2.37,1.04-3.67,1.41h-.04s0,7.93,0,7.93l-1.13.15.2,1.23.94-.15v2.14h1.26v-2.34c1.04-.17,2.16-.35,3.25-.53l-.06-1.12Zm5.56-3.17h.92c.29,0,.59,0,.76-.07-.04-.28-.07-.71-.08-1.02-.18.06-.49.08-.67.08h-.81c-.18,0-.22-.13-.22-.5v-3.4h-4.1v1.68c0,1.01-.17,2.2-1.53,3.1.24.17.73.6.91.84,1.51-1.02,1.82-2.62,1.82-3.91v-.59h1.71v2.27c0,1.08.21,1.53,1.3,1.53Zm-10.79-13.19h12.33v-1.48h-12.33v1.48Zm9.72-25.48c.87-1.04,1.57-2.28,2-3.74l-.83-.35-.22.06h-2.38c.15-.35.29-.71.42-1.08l-1.26-.31c-.49,1.61-1.37,3.12-2.42,4.15v-3.59h-4.62v4.4h1.95v5.46l-.92.21v-4.5h-1.06v4.72c-.24.04-.46.08-.67.13l.22,1.26c1.51-.35,3.54-.84,5.46-1.33l-.13-1.15-1.74.41v-2.21h1.64c.14.18.28.39.36.56.21-.08.41-.18.62-.28v4.58h1.19v-.49h3.12v.45h1.25v-4.55l.28.11c.17-.32.55-.84.8-1.08-1.19-.42-2.2-1.06-3.05-1.83Zm-1.95-2.93h2.34c-.32.74-.74,1.43-1.25,2.04-.5-.59-.9-1.19-1.22-1.79l.13-.25Zm-6.23,1.34v-2.16h2.28v2.16h-2.28Zm3.61,3.54v-.57h-1.64v-1.85h1.51v-.63c.29.22.7.56.9.77.36-.38.74-.83,1.08-1.32.31.53.66,1.08,1.11,1.61-.88.87-1.91,1.54-2.96,1.99Zm5.29,3.82h-3.12v-2.33h3.12v2.33Zm-3.47-3.43c.69-.41,1.34-.91,1.93-1.48.56.55,1.2,1.06,1.93,1.48h-3.87Zm-6.35-43.47v8.87h9.72v1.01h1.34v-9.92h-1.34v7.58h-3.53v-10.34h-1.37v10.34h-3.47v-7.54h-1.34Zm-.6,18.9h5.36c-.04.45-.11.9-.15,1.27h-4.55v9.03h1.3v-7.83h8.32v6.43c0,.22-.07.29-.32.29-.24.01-1.09.03-1.89-.01.18.31.38.8.46,1.12,1.11,0,1.92,0,2.41-.2.49-.18.67-.5.67-1.2v-7.63h-5.14c.07-.39.14-.83.2-1.27h5.58v-1.22h-5.39c.06-.39.11-.78.15-1.16l-1.43-.14c-.01.39-.04.84-.08,1.3h-5.49v1.22Zm2.9-32.84l-1.06.42c.5.78,1.05,1.83,1.25,2.49l1.13-.49c-.22-.66-.78-1.68-1.32-2.42Zm3.8,42.84v-2.3h2.91v-1.05h-2.91v-1.21h2.65v-1.02h-1.33c.24-.49.48-1.05.71-1.6l-1.18-.27c-.14.53-.43,1.3-.67,1.86h-2.3l.74-.22c-.13-.43-.42-1.11-.73-1.6l-1.02.27c.27.46.55,1.09.66,1.55h-1.29v1.02h2.52v1.21h-2.82v1.05h2.82v2.3h1.23Zm2.14-39.92c.48-.63,1.09-1.58,1.62-2.47l-1.26-.46c-.29.77-.88,1.83-1.36,2.51l1,.42Zm-6.37-6.67v.73h2.93v1.69h-4.62v1.18h4.62v3.12h-5.27v1.19h12.02v-1.19h-5.37v-3.12h4.69v-1.18h-4.69v-1.69h2.96v-.85c.7.39,1.4.71,2.09.97.2-.35.6-.87.9-1.13-2.1-.63-4.46-1.96-5.83-3.33.13-.17.24-.35.36-.53l-1.22-.55c-1.33,2.06-3.87,3.6-6.47,4.4.32.32.69.83.87,1.2.7-.25,1.37-.55,2.03-.9Zm3.67-2.75c.84.84,1.88,1.61,2.97,2.27h-5.79c1.05-.63,2-1.39,2.82-2.27Z"/>
    <path class="cls-6" d="m181.53,281.49l.92.7c.8-.55,1.25-1.41,1.54-2.27l-1-.42c-.27.76-.77,1.54-1.47,1.99Zm8.63-2.12l-.88.64c.8.63,1.74,1.57,2.14,2.21l.94-.7c-.45-.66-1.39-1.53-2.2-2.16Zm-7.94-.52h3.7l-.38.39c.73.32,1.58.85,2.03,1.22l.67-.76c-.34-.27-.88-.59-1.43-.85h4.64v1.6h1.29v-2.62h-2.4c.36-.46.77-1.02,1.13-1.55l-1.26-.45c-.28.6-.78,1.43-1.18,2h-2.39l.85-.31c-.1-.41-.39-.95-.7-1.37,1.93-.15,3.78-.36,5.24-.66l-.87-.9c-2.24.46-6.36.73-9.78.81.11.27.24.7.27.98.57-.01,1.16-.03,1.75-.06l-.73.29c.28.36.59.84.73,1.2h-2.42v2.48h1.23v-1.46Zm4.29-2.69l-.8.29c.27.42.56.97.66,1.37h-2.33l.56-.24c-.11-.36-.43-.88-.77-1.27.88-.04,1.79-.08,2.67-.15Zm57.68,3.87c.87-1.04,1.57-2.28,2-3.74l-.83-.35-.22.06h-2.38c.15-.35.29-.71.42-1.08l-1.26-.31c-.49,1.61-1.37,3.12-2.42,4.15v-3.59h-4.62v4.4h1.95v5.46l-.92.21v-4.5h-1.06v4.72c-.24.04-.46.08-.67.13l.22,1.26c1.51-.35,3.54-.84,5.46-1.33l-.13-1.15-1.74.41v-2.21h1.64c.14.18.28.39.36.56.21-.08.41-.18.62-.28v4.58h1.19v-.49h3.12v.45h1.25v-4.55l.28.11c.17-.32.55-.84.8-1.08-1.19-.42-2.2-1.06-3.05-1.83Zm-1.95-2.93h2.34c-.32.74-.74,1.43-1.25,2.04-.5-.59-.9-1.19-1.22-1.79l.13-.25Zm-6.23,1.34v-2.16h2.28v2.16h-2.28Zm3.61,3.54v-.57h-1.64v-1.85h1.51v-.63c.29.22.7.56.9.77.36-.38.74-.83,1.08-1.32.31.53.66,1.08,1.11,1.61-.88.87-1.91,1.54-2.96,1.99Zm5.29,3.82h-3.12v-2.33h3.12v2.33Zm-3.47-3.43c.69-.41,1.34-.91,1.93-1.48.56.55,1.2,1.06,1.93,1.48h-3.87Zm-50.27.94l-.81-.55-.22.04h-4.3c.24-.22.48-.48.67-.73l-.14-.06h1.79c.95,0,1.29-.28,1.4-1.37-.32-.07-.77-.21-1.01-.36-.06.7-.14.8-.53.8h-1.79c-.53,0-.63-.04-.63-.34v-1.18h-1.21v1.19c0,.71.18,1.04.76,1.18-.42.46-.94.88-1.53,1.26-.32-.29-.62-.6-.88-.95l-1.02.43c.27.39.59.74.92,1.09-.56.29-1.16.55-1.75.76.27.21.7.63.9.87.58-.25,1.15-.53,1.72-.87.55.43,1.18.81,1.82,1.15-1.41.38-3.04.62-4.69.74.24.25.56.78.66,1.09,1.99-.22,3.91-.57,5.59-1.18,1.62.57,3.5.94,5.56,1.12.15-.36.46-.9.73-1.2-1.65-.11-3.21-.34-4.61-.67,1.08-.59,1.96-1.33,2.61-2.27Zm-6.65.57l.14-.1h4.52c-.57.52-1.32.97-2.16,1.32-.95-.32-1.78-.74-2.51-1.22Zm43.19-.63v-5.18h-4.37v-1.02h5.48v-1.2h-5.48v-1.25h-1.36v1.25h-5.35v1.2h5.35v1.02h-4.16v5.18h3.15c-1.21,1.22-3.03,2.31-4.71,2.91.29.27.69.76.9,1.09,1.71-.7,3.52-1.93,4.82-3.35v3.53h1.36v-3.59c1.32,1.44,3.18,2.72,4.9,3.42.21-.34.62-.85.94-1.12-1.72-.57-3.59-1.68-4.82-2.9h3.35Zm-5.73-.99h-2.88v-1.13h2.88v1.13Zm0-2.07h-2.88v-1.12h2.88v1.12Zm1.36-1.12h3.05v1.12h-3.05v-1.12Zm0,2.06h3.05v1.13h-3.05v-1.13Zm-22.1-1.39v2.69h3.1v-2.69h-3.1Zm2.19,1.95h-1.32v-1.2h1.32v1.2Zm-4.5,5.81h1.23v-.62h9.16v.62h1.29v-12.28h-11.68v12.28Zm1.23-11.11h9.16v9.31h-9.16v-9.31Zm7.54,7.7c-.36-.07-.67-.45-.91-1.05.64-.94,1.16-2.05,1.5-3.32l-1.04-.21c-.21.81-.49,1.55-.87,2.23-.17-.78-.31-1.74-.41-2.75h2.77v-.97h-.85l.62-.64c-.31-.31-.92-.69-1.43-.92l-.6.6c.5.25,1.11.64,1.39.97h-1.98c-.03-.43-.06-.9-.07-1.34h-1.08c.03.45.06.9.08,1.34h-4.02v.97h4.1c.14,1.48.35,2.84.69,3.91-.25.32-.53.62-.84.88l-.03-.87c-1.51.24-3.04.48-4.06.62l.14.98c1.12-.2,2.54-.46,3.91-.69-.34.28-.7.53-1.08.76.21.18.59.6.73.8.62-.39,1.18-.87,1.67-1.4.34.62.76,1.02,1.27,1.16.81.32,1.4-.22,1.6-1.82-.22-.13-.62-.41-.83-.62-.08.87-.21,1.44-.38,1.39Z"/>
    <g>
      <path class="cls-6" d="m343.59,48.21c.49.05.93-.3.98-.79.05-.48-.31-.91-.81-.96s-.93.3-.98.79c-.05.48.31.91.81.96Z"/>
      <path class="cls-6" d="m340.01,47.86c.49.05.93-.3.98-.79.05-.48-.31-.91-.81-.96-.49-.05-.93.3-.98.79-.05.48.31.91.81.96Z"/>
      <path class="cls-6" d="m336.44,47.51c.49.05.93-.3.98-.79.05-.48-.31-.91-.81-.96-.49-.05-.93.3-.98.79-.05.48.31.91.81.96Z"/>
      <path class="cls-6" d="m332.87,47.16c.49.05.93-.3.98-.79.05-.48-.31-.91-.81-.96-.49-.05-.93.3-.98.79-.05.48.31.91.81.96Z"/>
      <path class="cls-6" d="m329.29,46.8c.49.05.93-.3.98-.79.05-.48-.31-.91-.81-.96-.49-.05-.93.3-.98.79-.05.48.31.91.81.96Z"/>
      <path class="cls-6" d="m325.72,46.45c.49.05.93-.3.98-.79.05-.48-.31-.91-.81-.96-.49-.05-.93.3-.98.79-.05.48.31.91.81.96Z"/>
      <path class="cls-6" d="m322.14,46.1c.49.05.93-.3.98-.79.05-.48-.31-.91-.81-.96-.49-.05-.93.3-.98.79-.05.48.31.91.81.96Z"/>
      <path class="cls-6" d="m318.57,45.75c.49.05.93-.3.98-.79.05-.48-.31-.91-.81-.96-.49-.05-.93.3-.98.79-.05.48.31.91.81.96Z"/>
      <path class="cls-6" d="m315,45.4c.49.05.93-.3.98-.79.05-.48-.31-.91-.81-.96-.49-.05-.93.3-.98.79-.05.48.31.91.81.96Z"/>
      <path class="cls-6" d="m311.42,45.05c.49.05.93-.3.98-.79.05-.48-.31-.91-.81-.96-.49-.05-.93.3-.98.79-.05.48.31.91.81.96Z"/>
      <path class="cls-6" d="m307.85,44.69c.49.05.93-.3.98-.79.05-.48-.31-.91-.81-.96s-.93.3-.98.79c-.05.48.31.91.81.96Z"/>
      <path class="cls-6" d="m304.27,44.34c.49.05.93-.3.98-.79.05-.48-.31-.91-.81-.96s-.93.3-.98.79c-.05.48.31.91.81.96Z"/>
      <path class="cls-6" d="m300.7,43.99c.49.05.93-.3.98-.79.05-.48-.31-.91-.81-.96s-.93.3-.98.79c-.05.48.31.91.81.96Z"/>
      <path class="cls-6" d="m297.13,43.64c.49.05.93-.3.98-.79.05-.48-.31-.91-.81-.96-.49-.05-.93.3-.98.79-.05.48.31.91.81.96Z"/>
      <path class="cls-6" d="m293.55,43.29c.49.05.93-.3.98-.79.05-.48-.31-.91-.81-.96-.49-.05-.93.3-.98.79-.05.48.31.91.81.96Z"/>
      <path class="cls-6" d="m289.98,42.94c.49.05.93-.3.98-.79.05-.48-.31-.91-.81-.96-.49-.05-.93.3-.98.79-.05.48.31.91.81.96Z"/>
      <path class="cls-6" d="m286.4,42.58c.49.05.93-.3.98-.79.05-.48-.31-.91-.81-.96s-.93.3-.98.79c-.05.48.31.91.81.96Z"/>
      <path class="cls-6" d="m282.83,42.23c.49.05.93-.3.98-.79.05-.48-.31-.91-.81-.96s-.93.3-.98.79c-.05.48.31.91.81.96Z"/>
      <path class="cls-6" d="m279.26,41.88c.49.05.93-.3.98-.79.05-.48-.31-.91-.81-.96s-.93.3-.98.79c-.05.48.31.91.81.96Z"/>
      <path class="cls-6" d="m275.68,41.53c.49.05.93-.3.98-.79.05-.48-.31-.91-.81-.96-.49-.05-.93.3-.98.79-.05.48.31.91.81.96Z"/>
      <path class="cls-6" d="m272.11,41.18c.49.05.93-.3.98-.79.05-.48-.31-.91-.81-.96-.49-.05-.93.3-.98.79-.05.48.31.91.81.96Z"/>
      <path class="cls-6" d="m268.53,40.83c.49.05.93-.3.98-.79s-.31-.91-.81-.96c-.49-.05-.93.3-.98.79s.31.91.81.96Z"/>
      <path class="cls-6" d="m264.96,40.48c.49.05.93-.3.98-.79s-.31-.91-.81-.96-.93.3-.98.79c-.05.48.31.91.81.96Z"/>
      <path class="cls-6" d="m261.39,40.12c.49.05.93-.3.98-.79.05-.48-.31-.91-.81-.96s-.93.3-.98.79c-.05.48.31.91.81.96Z"/>
      <path class="cls-6" d="m257.81,39.77c.49.05.93-.3.98-.79.05-.48-.31-.91-.81-.96-.49-.05-.93.3-.98.79-.05.48.31.91.81.96Z"/>
      <path class="cls-6" d="m254.24,39.42c.49.05.93-.3.98-.79.05-.48-.31-.91-.81-.96-.49-.05-.93.3-.98.79-.05.48.31.91.81.96Z"/>
      <path class="cls-6" d="m250.66,39.07c.49.05.93-.3.98-.79s-.31-.91-.81-.96c-.49-.05-.93.3-.98.79s.31.91.81.96Z"/>
      <path class="cls-6" d="m247.09,38.72c.49.05.93-.3.98-.79s-.31-.91-.81-.96c-.49-.05-.93.3-.98.79s.31.91.81.96Z"/>
      <path class="cls-6" d="m243.52,38.37c.49.05.93-.3.98-.79s-.31-.91-.81-.96-.93.3-.98.79c-.05.48.31.91.81.96Z"/>
      <path class="cls-6" d="m239.94,38.01c.49.05.93-.3.98-.79.05-.48-.31-.91-.81-.96s-.93.3-.98.79c-.05.48.31.91.81.96Z"/>
      <path class="cls-6" d="m236.59,37.95c.42-.1.77-.47.75-.96-.02-.47-.49-.89-1.03-.77-.55.08-.87.6-.73,1.06.14.47.59.73,1.02.67Z"/>
      <path class="cls-6" d="m233.64,39.13c.35-.25.49-.76.27-1.19-.22-.43-.81-.59-1.26-.26-.47.3-.53.92-.22,1.27.33.37.84.41,1.21.18Z"/>
      <path class="cls-6" d="m231.45,41.44c.24-.36.12-.9-.25-1.2-.39-.31-.96-.18-1.26.29-.28.48-.11,1.05.33,1.25.45.2.96.04,1.18-.34Z"/>
      <path class="cls-6" d="m230.43,44.46c.07-.43-.26-.87-.73-.98-.47-.11-.93.24-1.02.79-.03.56.34,1,.83.99.49,0,.9-.37.92-.8Z"/>
    </g>
    <g>
      <circle class="cls-5" cx="136" cy="75.83" r="9.58" transform="translate(-19.56 82.73) rotate(-31.68)"/>
      <g>
        <path class="cls-4" d="m133.06,79.06c.99-.82,1.78-1.51,2.36-2.06.59-.55,1.08-1.13,1.47-1.72.39-.6.59-1.18.59-1.76,0-.53-.12-.94-.37-1.24-.25-.3-.63-.45-1.14-.45s-.91.17-1.19.52-.42.82-.43,1.41h-2.1c.04-1.24.41-2.17,1.1-2.81s1.58-.96,2.65-.96c1.17,0,2.08.31,2.7.93.63.62.94,1.44.94,2.46,0,.8-.22,1.57-.65,2.3s-.93,1.37-1.48,1.91c-.56.54-1.28,1.19-2.18,1.95h4.56v1.79h-7.63v-1.61l.8-.68Z"/>
        <g>
          <path class="cls-3" d="m133.06,79.06c.99-.82,1.78-1.51,2.36-2.06.59-.55,1.08-1.13,1.47-1.72.39-.6.59-1.18.59-1.76,0-.53-.12-.94-.37-1.24-.25-.3-.63-.45-1.14-.45s-.91.17-1.19.52-.42.82-.43,1.41h-2.1c.04-1.24.41-2.17,1.1-2.81s1.58-.96,2.65-.96c1.17,0,2.08.31,2.7.93.63.62.94,1.44.94,2.46,0,.8-.22,1.57-.65,2.3s-.93,1.37-1.48,1.91c-.56.54-1.28,1.19-2.18,1.95h4.56v1.79h-7.63v-1.61l.8-.68Z"/>
          <path class="cls-3" d="m133.06,79.06c.99-.82,1.78-1.51,2.36-2.06.59-.55,1.08-1.13,1.47-1.72.39-.6.59-1.18.59-1.76,0-.53-.12-.94-.37-1.24-.25-.3-.63-.45-1.14-.45s-.91.17-1.19.52-.42.82-.43,1.41h-2.1c.04-1.24.41-2.17,1.1-2.81s1.58-.96,2.65-.96c1.17,0,2.08.31,2.7.93.63.62.94,1.44.94,2.46,0,.8-.22,1.57-.65,2.3s-.93,1.37-1.48,1.91c-.56.54-1.28,1.19-2.18,1.95h4.56v1.79h-7.63v-1.61l.8-.68Z"/>
          <path class="cls-3" d="m133.06,79.06c.99-.82,1.78-1.51,2.36-2.06.59-.55,1.08-1.13,1.47-1.72.39-.6.59-1.18.59-1.76,0-.53-.12-.94-.37-1.24-.25-.3-.63-.45-1.14-.45s-.91.17-1.19.52-.42.82-.43,1.41h-2.1c.04-1.24.41-2.17,1.1-2.81s1.58-.96,2.65-.96c1.17,0,2.08.31,2.7.93.63.62.94,1.44.94,2.46,0,.8-.22,1.57-.65,2.3s-.93,1.37-1.48,1.91c-.56.54-1.28,1.19-2.18,1.95h4.56v1.79h-7.63v-1.61l.8-.68Z"/>
        </g>
      </g>
    </g>
    <g>
      <circle class="cls-5" cx="359.6" cy="48.68" r="9.58" transform="translate(28.02 196.12) rotate(-31.68)"/>
      <g>
        <path class="cls-4" d="m357.36,45.08v-1.99h3.72v11.26h-2.23v-9.27h-1.5Z"/>
        <g>
          <path class="cls-3" d="m357.36,45.08v-1.99h3.72v11.26h-2.23v-9.27h-1.5Z"/>
          <path class="cls-3" d="m357.36,45.08v-1.99h3.72v11.26h-2.23v-9.27h-1.5Z"/>
          <path class="cls-3" d="m357.36,45.08v-1.99h3.72v11.26h-2.23v-9.27h-1.5Z"/>
        </g>
      </g>
    </g>
    <g>
      <path class="cls-8" d="m209.91,84.01h.03c.2.06.39.08.57.09v-.12h.01l.02.13c.1,0,.19.02.29.03.11.02.23.03.36.05.09,0,.17.02.26.03.23.04.46.08.69.13l.38.07s.09.02.13.02h.04c.08.02.17.03.25.05.45.12.83.22,1.22.34.67.2,1.16.42,1.59.7.35.23.57.48.66.71.05.35-.03.64-.22.93-.22.32-.41.56-.6.76-.44.46-.95.86-1.46,1.26-.5.4-1.03.76-1.67,1.18-.61.4-1.21.82-1.79,1.24l-.29.21c-.2.14-.4.3-.62.47l-.22.17-.11.12v.16s0,.19,0,.19l.29.36.22-.15c.09-.06.19-.13.28-.19l.05-.04c.21-.15.42-.29.63-.41.5-.29,1-.56,1.5-.84l.7-.39c.15-.08.29-.16.44-.23l.25-.12c.54-.26,1.1-.52,1.65-.77.6-.26,1.2-.52,1.8-.77l.5-.21c.64-.27,1.29-.46,2.02-.67.44-.13.91-.23,1.33-.32l.44-.1c.1-.02.21-.04.32-.06h.04c.14-.03.29-.06.43-.1.3-.07.61-.11.91-.15l.17-.02c.2-.03.4-.04.6-.06l.91-.09-.5-.6c-.11-.13-.2-.23-.23-.35h0c-.03-.1-.06-.19-.09-.29-.05-.16-.1-.3-.13-.46-.06-.28-.1-.56-.13-.86l-.03-.32c-.04-.37-.08-.71-.07-1.06,0-.08,0-.17.02-.25v-.06c.02-.14.03-.27.03-.41,0-.35.06-.7.12-1,.06-.31.14-.64.31-.9.05-.08.11-.16.17-.24l.22-.29-.08-.19c-.12-.27-.35-.28-.46-.29l-.17-.02c-.16-.02-.32-.03-.48-.06-.24-.04-.48-.09-.72-.14-.19-.04-.39-.08-.58-.12-.12-.02-.25-.04-.38-.07-.16-.02-.32-.05-.48-.09-.15-.03-.31-.08-.46-.12-.17-.05-.34-.1-.52-.14-.51-.11-1.03-.26-1.58-.46-.91-.33-1.82-.75-2.71-1.17l-.07-.03c-.89-.42-1.75-.88-2.48-1.28-.56-.31-1.11-.64-1.65-.96l-.48-.28c-.14-.08-.27-.17-.43-.28l-1.3-.85c-.09-.06-.18-.05-.21-.05h-.31v.68l.56.38c.28.19.57.39.86.58.52.34,1.05.68,1.58,1.02l.46.3c.84.54,1.57,1.06,2.23,1.59.49.4,1.01.84,1.44,1.38.24.3.42.6.54.92.16.41.09.82-.18,1.13-.2.23-.46.37-.78.52-.65.29-1.37.41-2.07.53-.42.07-.85.11-1.24.13-.19.01-.38.02-.59.02-.26,0-.52.01-.79.04-.29.03-.59.02-.89.01-.13,0-.26,0-.43,0,0,0-.03,0-.02,0-.21-.07-.41-.07-.64-.06-.08,0-.17,0-.26,0l-.57-.05.44.9,1.24.11Z"/>
      <path class="cls-8" d="m231.72,85.33c-.01.51-.21.89-.62,1.15-.29.19-.63.29-1.07.31-.14,0-.27.03-.41.05l-.19.03-.28.1.08.7h1.62s.09,0,.09,0c.02,0,.03,0,.04,0,.23.07.46.08.68.09.15,0,.3.01.43.04.14.03.27.04.42.05.1,0,.2.02.3.03.22.04.44.09.65.14h.05c.18.05.35.09.53.13.53.11,1.07.28,1.6.44l.08.03c.43.14.87.31,1.26.47.21.08.41.17.62.25.7.27,1.41.6,2.04.88l.14.06c.41.19.81.38,1.22.58l1.02.49c.29.14.6.28.88.44.44.25.88.51,1.31.77l.47.28c.1.06.21.13.31.2l.37.25.47-.64-.67-.48c-.3-.22-.59-.43-.89-.64-.25-.18-.51-.35-.77-.52l-.06-.04c-.23-.16-.47-.31-.7-.47-.5-.34-.99-.69-1.49-1.04-.74-.53-1.59-1.18-2.27-2.04-.32-.41-.45-.76-.42-1.09.09-.26.25-.48.53-.69.34-.26.72-.43,1.02-.55.73-.29,1.55-.51,2.51-.68.18-.03.37-.07.57-.11.29-.06.58-.11.87-.15.37-.04.73-.09,1.09-.14.19-.03.4-.04.59-.05h.04c.11,0,.22-.02.33-.03.05,0,.09-.02.17-.04l.28-.07-.13-.81-.28.02c-.09,0-.19.02-.28.02h-.05c-.23.03-.46.05-.68.05-.64,0-1.16,0-1.62-.04-.18-.01-.36-.02-.54-.03h-.08c-.42-.03-.87-.05-1.32-.11h-.07c-.28-.05-.55-.09-.82-.14-.52-.09-.92-.2-1.28-.34-.53-.21-1.02-.46-1.18-1.05-.05-.36.04-.7.28-1.09.24-.38.5-.7.8-.99.32-.31.66-.61,1.04-.92.34-.27.7-.53,1.05-.78l.38-.27c.44-.32.9-.61,1.38-.91l.05-.03c.29-.19.58-.37.87-.57.24-.16.48-.31.72-.47l.1-.07c.22-.14.43-.28.64-.42.13-.09.25-.2.35-.3.12-.11.12-.27.12-.39l.04-.6-.57.3s-.07.04-.1.06l-.91.57c-.55.35-1.12.71-1.68,1.04-.47.28-.96.55-1.39.79-.22.12-.43.24-.64.35-.05.03-.09.05-.14.08-.05.03-.11.07-.16.09l-.33.17c-.47.24-.94.47-1.42.7-.55.26-1.1.51-1.63.73-.16.07-.32.12-.49.18-.17.06-.35.12-.52.19-.3.13-.62.23-.91.31-.14.04-.28.09-.42.13-.28.09-.59.18-1,.27-.32.07-.64.13-.97.19l-.15.03c-.06.01-.12.02-.19.02-.12.01-.26.02-.4.07-.15.05-.32.06-.51.07-.1,0-.19.01-.28.02-.37.04-.76.05-1.13.07-.17,0-.35.01-.52.02-.1,0-.18.05-.24.13l-.11.12.02.19.09.36.24.02s.1,0,.15,0c.3-.03.6.05.85.13.47.15.73.45.81.95.03.2,0,.4-.1.57-.15.26-.33.43-.57.52-.15.06-.29.11-.44.16l-.47.18-.03.21s0,.09,0,.15c.01.1.05.16.08.21l.1.17h.19c.39-.05.7,0,.96.14.27.14.46.38.59.76v.09c0,.06,0,.11,0,.17Z"/>
      <path class="cls-8" d="m203.18,103.99c.65-.3,1.23-1,1.23-2.09,0-1.25-.88-2.47-3.21-2.47h-4.21v9.65h4.36c2.05,0,3.35-1.24,3.35-2.89,0-1.27-.85-1.95-1.5-2.2Zm-4.15-2.95h1.99c.8,0,1.34.36,1.34,1.07s-.41,1.12-1.4,1.12h-1.93v-2.19Zm1.88,6.42h-1.88v-2.62h1.87c1.15,0,1.65.5,1.65,1.27,0,.87-.51,1.35-1.64,1.35Z"/>
      <polygon class="cls-8" points="214.27 107.37 209.18 107.37 209.18 104.92 213.79 104.92 213.79 103.21 209.18 103.21 209.18 101.14 214 101.14 214 99.43 207.16 99.43 207.16 109.08 214.02 109.08 214.27 107.37"/>
      <path class="cls-8" d="m221.23,109.08v-3.44c0-.2.04-.24.08-.31l3.37-5.9h-2.18c-.73,1.4-1.79,3.43-2.21,4.44-.48-1.05-1.45-2.98-2.2-4.44h-2.36l3.33,5.93c.06.1.08.2.08.31v3.41h2.09Z"/>
      <path class="cls-8" d="m235.06,104.22c0-2.95-1.79-4.93-4.61-4.93-3,0-4.75,2.16-4.75,4.96s1.58,4.96,4.61,4.96,4.75-2.31,4.75-5Zm-4.67,3.3c-1.71,0-2.54-1.42-2.54-3.31s.76-3.22,2.5-3.22,2.55,1.43,2.55,3.26c0,1.72-.66,3.27-2.51,3.27Z"/>
      <path class="cls-8" d="m239.56,101.59c.48,1.11,2.95,5.6,3.98,7.49h2.45v-9.65h-1.89v2.86c0,1.58,0,3.26.11,4.27h-.03c-.44-1.05-2.67-4.96-3.88-7.12h-2.58v9.65h1.9v-2.93c0-1.73-.02-3.71-.09-4.55h.03Z"/>
      <path class="cls-8" d="m257.62,104.13c0-2.85-1.84-4.7-4.65-4.7h-3.82v9.65h3.74c2.95,0,4.73-2.13,4.73-4.94Zm-6.38,3.26v-6.28h1.58c1.89,0,2.65,1.45,2.65,3.02,0,1.88-.82,3.25-2.67,3.25h-1.56Z"/>
      <polygon class="cls-8" points="196.55 124.61 198.59 124.61 198.59 120.75 202.99 120.75 202.99 119.04 198.59 119.04 198.59 116.68 203.29 116.68 203.29 114.97 196.55 114.97 196.55 124.61"/>
      <rect class="cls-8" x="205.68" y="114.97" width="2.09" height="9.65"/>
      <polygon class="cls-8" points="210.04 116.68 212.97 116.68 212.97 124.61 215.05 124.61 215.05 116.68 217.97 116.68 217.97 114.97 210.04 114.97 210.04 116.68"/>
      <path class="cls-8" d="m226.49,117.82c0,1.58,0,3.26.11,4.27h-.03c-.44-1.05-2.67-4.96-3.88-7.12h-2.59v9.65h1.9v-2.93c0-1.73-.02-3.71-.09-4.55h.03c.48,1.11,2.95,5.6,3.98,7.49h2.45v-9.65h-1.89v2.86Z"/>
      <polygon class="cls-8" points="233.56 120.45 238.17 120.45 238.17 118.74 233.56 118.74 233.56 116.68 238.37 116.68 238.37 114.97 231.53 114.97 231.53 124.61 238.4 124.61 238.65 122.9 233.56 122.9 233.56 120.45"/>
      <path class="cls-8" d="m244.89,118.71c-1.56-.36-1.97-.63-1.97-1.3s.51-1.03,1.36-1.03c1.24,0,1.57.65,1.67,1.24h2.1c-.14-1.41-1.16-2.79-3.72-2.79-2.28,0-3.54,1.14-3.54,2.82,0,1.3.65,2.26,3.27,2.87,1.65.38,2.12.72,2.12,1.51,0,.71-.48,1.15-1.59,1.15s-1.81-.42-2.03-1.39h-2.1c.23,1.76,1.52,2.96,3.97,2.96s3.88-1.21,3.88-2.97c0-1.36-.62-2.4-3.42-3.06Z"/>
      <path class="cls-8" d="m254.73,118.71c-1.56-.36-1.97-.63-1.97-1.3s.51-1.03,1.36-1.03c1.24,0,1.57.65,1.67,1.24h2.1c-.14-1.41-1.16-2.79-3.72-2.79-2.28,0-3.54,1.14-3.54,2.82,0,1.3.65,2.26,3.27,2.87,1.65.38,2.12.72,2.12,1.51,0,.71-.48,1.15-1.59,1.15s-1.81-.42-2.03-1.39h-2.1c.23,1.76,1.52,2.96,3.97,2.96s3.88-1.21,3.88-2.97c0-1.36-.62-2.4-3.42-3.06Z"/>
    </g>
  </g>
</svg>