<?xml version="1.0" encoding="UTF-8"?>
<svg id="_圖層_1" data-name="圖層 1" xmlns="http://www.w3.org/2000/svg" viewBox="0 0 393.37 34.55">
  <defs>
    <style>
      .cls-1 {
        fill: #e4d2b1;
        stroke-width: 0px;
      }
    </style>
  </defs>
  <path class="cls-1" d="m0,.46h9.57c7.3,0,11.49,2.89,11.49,8.66,0,2.93-1.53,5.35-4.39,6.99,3.75,2.24,5.23,4.1,5.23,8.29,0,6.66-4.73,9.69-11.93,9.69H0V.46Zm6.8,13.32h2.37c3.06,0,5.08-1.68,5.08-3.96,0-2.47-1.53-4.05-4.73-4.05h-2.71v8.01Zm0,14.99h2.86c3.55,0,5.43-1.96,5.43-4.89,0-3.21-2.37-4.8-5.92-4.8h-2.37v9.69Z"/>
  <path class="cls-1" d="m31.36,34.08V.46h18.64v5.68h-11.83v7.73h9.02v5.68h-9.02v8.85h12.33v5.68h-19.13Z"/>
  <path class="cls-1" d="m70.71,14.02L76.47.46h7.25l-9.71,20.02v13.6h-6.8v-13.6L57.49.46h7.25l5.97,13.55Z"/>
  <path class="cls-1" d="m90.72,11.27c0-8.29,4.64-11.27,11.24-11.27s11.24,2.98,11.24,11.27v12.01c0,8.29-4.64,11.27-11.24,11.27s-11.24-2.98-11.24-11.27v-12.01Zm6.8,12.85c0,3.73,1.73,4.75,4.44,4.75s4.44-1.02,4.44-4.75v-13.69c0-3.73-1.72-4.75-4.44-4.75s-4.44,1.02-4.44,4.75v13.69Z"/>
  <path class="cls-1" d="m123.07,34.08V.46h7.45l9.47,19.93h.1V.46h6.21v33.62h-6.51l-10.41-21.7h-.1v21.7h-6.21Z"/>
  <path class="cls-1" d="m156.74.46h9.47c7.79,0,12.13,3.17,12.42,11.64v10.34c-.29,8.48-4.63,11.64-12.42,11.64h-9.47V.46Zm6.81,27.94h2.37c3.75,0,5.92-1.68,5.92-6.7v-8.85c0-4.75-1.68-6.71-5.92-6.71h-2.37v22.26Z"/>
  <path class="cls-1" d="m205.75,34.08V.46h17.75v5.68h-10.94v7.73h8.58v5.68h-8.58v14.53h-6.81Z"/>
  <path class="cls-1" d="m231.99,34.08V.46h6.81v33.62h-6.81Z"/>
  <path class="cls-1" d="m269.86.46v5.68h-7.94v27.94h-6.81V6.14h-7.94V.46h22.68Z"/>
  <path class="cls-1" d="m278.24,34.08V.46h7.44l9.47,19.93h.1V.46h6.21v33.62h-6.51l-10.41-21.7h-.1v21.7h-6.21Z"/>
  <path class="cls-1" d="m311.91,34.08V.46h18.64v5.68h-11.83v7.73h9.02v5.68h-9.02v8.85h12.33v5.68h-19.13Z"/>
  <path class="cls-1" d="m355.55,9.82c-1.13-3.17-2.61-4.52-4.98-4.52s-3.75,1.4-3.75,3.68c0,5.08,15.19,5.45,15.19,15.97,0,5.77-4.19,9.59-11.34,9.59-5.52,0-9.81-2.84-11.64-9.45l6.71-1.35c.79,4.05,3.26,5.49,5.28,5.49,2.37,0,4.19-1.49,4.19-4,0-6.33-15.19-6.43-15.19-15.83,0-5.77,3.65-9.4,10.7-9.4,6.07,0,9.76,3.4,10.94,8.15l-6.11,1.68Z"/>
  <path class="cls-1" d="m386.91,9.82c-1.13-3.17-2.61-4.52-4.98-4.52s-3.75,1.4-3.75,3.68c0,5.08,15.19,5.45,15.19,15.97,0,5.77-4.19,9.59-11.34,9.59-5.52,0-9.81-2.84-11.64-9.45l6.7-1.35c.79,4.05,3.26,5.49,5.28,5.49,2.37,0,4.19-1.49,4.19-4,0-6.33-15.19-6.43-15.19-15.83,0-5.77,3.65-9.4,10.7-9.4,6.06,0,9.76,3.4,10.95,8.15l-6.12,1.68Z"/>
</svg>