<?xml version="1.0" encoding="UTF-8"?>
<svg id="_圖層_1" data-name="圖層 1" xmlns="http://www.w3.org/2000/svg" viewBox="0 0 200 96">
  <defs>
    <style>
      .cls-1 {
        fill: #e4d2b1;
        stroke-width: 0px;
      }
    </style>
  </defs>
  <path class="cls-1" d="m196.86,48.25c0-.26,0-.51,0-.77,0-.17,0-.33,0-.5-1.03.01-2.13.02-3.31.02-12.24,0-33.54-1-38.59-7.71-1.28-1.7-1.69-3.49-1.27-5.49,1.91-8.94,20.46-19.27,34.28-26.89-.16-.35-.33-.71-.5-1.06-10.8,5.64-26.87,13.47-41.3,18.29-21.05,7.04-35.84,7.09-42.16,7.11h-.4v.82h.42c.35,0,.69,0,1.02,0,5.77,0,8.57,1.96,9.9,3.61,1.35,1.67,1.83,3.84,1.35,6.1-.64,2.98-4.08,5.31-9.2,6.22l-.33.06v.75h.41c.26,0,.52,0,.77,0,8.59,0,10.47,5.35,10.47,7.41,0,4.61-2.51,10.12-14.49,10.16-.19,0-.33,0-.42,0l-.38.02v.79l.41.05c.72-.02,1.61-.03,2.63-.03,7.08,0,21.17.69,35.91,5.29,10.42,3.26,31.02,11.02,44.89,17.62.22-.44.43-.89.64-1.33-.96-.56-1.93-1.13-2.92-1.71-14.37-8.38-30.66-17.88-28.95-25.49,1.41-6.24,15.23-10.72,41.09-13.34Z"/>
  <path class="cls-1" d="m88.7,31.82l.66-.59-.88-.11c-.22-.03-22.6-2.83-34.68-6.97C37.25,18.47,22.33,11.21,12.46,5.96c-.14.29-.27.57-.4.86,13.78,7.63,32.33,17.99,34.24,26.96.43,2,.01,3.81-1.27,5.52-5.05,6.71-26.17,7.71-38.32,7.71-1.28,0-2.47-.01-3.57-.03,0,.17,0,.34,0,.5,0,.25,0,.5,0,.75,25.82,2.61,39.63,7.1,41.05,13.36,1.74,7.65-14.54,17.2-28.91,25.62-.97.57-1.93,1.13-2.87,1.69.2.42.4.83.6,1.25,13.41-6.59,33.62-14.65,45.13-17.64,19.28-5,30.05-5.27,30.16-5.27l1.05-.02-.79-.68c-2.38-2.05-4.22-9.78-4.29-17.99-.06-7.96,1.6-14.22,4.44-16.73Z"/>
</svg>